%TF.GenerationSoftware,KiCad,Pcbnew,8.0.4-8.0.4-0~ubuntu24.04.1*%
%TF.CreationDate,2024-09-01T12:42:58+03:00*%
%TF.ProjectId,communication_body,636f6d6d-756e-4696-9361-74696f6e5f62,rev?*%
%TF.SameCoordinates,Original*%
%TF.FileFunction,Other,User*%
%FSLAX46Y46*%
G04 Gerber Fmt 4.6, Leading zero omitted, Abs format (unit mm)*
G04 Created by KiCad (PCBNEW 8.0.4-8.0.4-0~ubuntu24.04.1) date 2024-09-01 12:42:58*
%MOMM*%
%LPD*%
G01*
G04 APERTURE LIST*
%ADD10C,0.050000*%
G04 APERTURE END LIST*
D10*
%TO.C,J7*%
X117970000Y-112402500D02*
X111440000Y-112402500D01*
X117970000Y-112402500D02*
X117970000Y-121302500D01*
X111440000Y-112402500D02*
X111440000Y-121302500D01*
X117970000Y-121302500D02*
X111440000Y-121302500D01*
%TO.C,J5*%
X112665000Y-103165000D02*
X112665000Y-111665000D01*
X112665000Y-111665000D02*
X117165000Y-111665000D01*
X117165000Y-103165000D02*
X112665000Y-103165000D01*
X117165000Y-111665000D02*
X117165000Y-103165000D01*
%TO.C,J4*%
X148715000Y-121565000D02*
X148715000Y-127065000D01*
X148715000Y-127065000D02*
X155615000Y-127065000D01*
X155615000Y-121565000D02*
X148715000Y-121565000D01*
X155615000Y-127065000D02*
X155615000Y-121565000D01*
%TO.C,C11*%
X137360000Y-117625000D02*
X137360000Y-119725000D01*
X137360000Y-119725000D02*
X138210000Y-119725000D01*
X138210000Y-117425000D02*
X138210000Y-117625000D01*
X138210000Y-117425000D02*
X139360000Y-116275000D01*
X138210000Y-117625000D02*
X137360000Y-117625000D01*
X138210000Y-119725000D02*
X138210000Y-119925000D01*
X138210000Y-119925000D02*
X139360000Y-121075000D01*
X139360000Y-116275000D02*
X143010000Y-116275000D01*
X139360000Y-121075000D02*
X143010000Y-121075000D01*
X143010000Y-116275000D02*
X143010000Y-117625000D01*
X143010000Y-117625000D02*
X143860000Y-117625000D01*
X143010000Y-119725000D02*
X143010000Y-121075000D01*
X143860000Y-117625000D02*
X143860000Y-119725000D01*
X143860000Y-119725000D02*
X143010000Y-119725000D01*
%TO.C,R4*%
X155915000Y-121415000D02*
X157815000Y-121415000D01*
X155915000Y-125115000D02*
X155915000Y-121415000D01*
X157815000Y-121415000D02*
X157815000Y-125115000D01*
X157815000Y-125115000D02*
X155915000Y-125115000D01*
%TO.C,AE2*%
X132425000Y-78035000D02*
X133125000Y-78035000D01*
X132425000Y-81235000D02*
X132425000Y-78035000D01*
X132425000Y-81235000D02*
X133125000Y-81235000D01*
X133125000Y-77835000D02*
X133125000Y-78035000D01*
X133125000Y-77835000D02*
X133925000Y-77835000D01*
X133125000Y-81235000D02*
X133125000Y-81435000D01*
X133125000Y-81435000D02*
X136725000Y-81435000D01*
X133925000Y-77135000D02*
X135925000Y-77135000D01*
X133925000Y-77835000D02*
X133925000Y-77135000D01*
X135925000Y-77835000D02*
X135925000Y-77135000D01*
X135925000Y-77835000D02*
X136725000Y-77835000D01*
X136725000Y-77835000D02*
X136725000Y-78035000D01*
X136725000Y-78035000D02*
X137425000Y-78035000D01*
X136725000Y-81235000D02*
X136725000Y-81435000D01*
X136725000Y-81235000D02*
X137425000Y-81235000D01*
X137425000Y-81235000D02*
X137425000Y-78035000D01*
%TO.C,SW1*%
X119315000Y-81365000D02*
X123415000Y-81365000D01*
X119315000Y-91165000D02*
X119315000Y-81365000D01*
X123415000Y-81365000D02*
X123415000Y-91165000D01*
X123415000Y-91165000D02*
X119315000Y-91165000D01*
%TO.C,U2*%
X123690000Y-119752500D02*
X123690000Y-127152500D01*
X123690000Y-127152500D02*
X134090000Y-127152500D01*
X134090000Y-119752500D02*
X123690000Y-119752500D01*
X134090000Y-127152500D02*
X134090000Y-119752500D01*
%TO.C,R3*%
X150975000Y-115285000D02*
X154675000Y-115285000D01*
X150975000Y-117185000D02*
X150975000Y-115285000D01*
X154675000Y-115285000D02*
X154675000Y-117185000D01*
X154675000Y-117185000D02*
X150975000Y-117185000D01*
%TO.C,J6*%
X112715000Y-88215000D02*
X112715000Y-102715000D01*
X112715000Y-102715000D02*
X117215000Y-102715000D01*
X117215000Y-88215000D02*
X112715000Y-88215000D01*
X117215000Y-102715000D02*
X117215000Y-88215000D01*
%TO.C,D1*%
X132835000Y-99695000D02*
X137395000Y-99695000D01*
X132835000Y-101935000D02*
X132835000Y-99695000D01*
X137395000Y-99695000D02*
X137395000Y-101935000D01*
X137395000Y-101935000D02*
X132835000Y-101935000D01*
%TO.C,J1*%
X125985000Y-84295000D02*
X125985000Y-90445000D01*
X125985000Y-90445000D02*
X134635000Y-90445000D01*
X134635000Y-84295000D02*
X125985000Y-84295000D01*
X134635000Y-90445000D02*
X134635000Y-84295000D01*
%TO.C,TP3*%
X158575000Y-108065000D02*
G75*
G02*
X156575000Y-108065000I-1000000J0D01*
G01*
X156575000Y-108065000D02*
G75*
G02*
X158575000Y-108065000I1000000J0D01*
G01*
%TO.C,TP2*%
X126670000Y-76420000D02*
G75*
G02*
X124670000Y-76420000I-1000000J0D01*
G01*
X124670000Y-76420000D02*
G75*
G02*
X126670000Y-76420000I1000000J0D01*
G01*
%TO.C,D5*%
X149665000Y-117615000D02*
X156665000Y-117615000D01*
X149665000Y-121115000D02*
X149665000Y-117615000D01*
X156665000Y-117615000D02*
X156665000Y-121115000D01*
X156665000Y-121115000D02*
X149665000Y-121115000D01*
%TO.C,C10*%
X139335000Y-121265000D02*
X143095000Y-121265000D01*
X139335000Y-123225000D02*
X139335000Y-121265000D01*
X143095000Y-121265000D02*
X143095000Y-123225000D01*
X143095000Y-123225000D02*
X139335000Y-123225000D01*
%TO.C,H2*%
X118995000Y-77900000D02*
G75*
G02*
X114695000Y-77900000I-2150000J0D01*
G01*
X114695000Y-77900000D02*
G75*
G02*
X118995000Y-77900000I2150000J0D01*
G01*
%TO.C,D4*%
X120437500Y-107677500D02*
X127437500Y-107677500D01*
X120437500Y-111177500D02*
X120437500Y-107677500D01*
X127437500Y-107677500D02*
X127437500Y-111177500D01*
X127437500Y-111177500D02*
X120437500Y-111177500D01*
%TO.C,H4*%
X118650000Y-124500000D02*
G75*
G02*
X114350000Y-124500000I-2150000J0D01*
G01*
X114350000Y-124500000D02*
G75*
G02*
X118650000Y-124500000I2150000J0D01*
G01*
%TO.C,C4*%
X131220000Y-106460000D02*
X133180000Y-106460000D01*
X131220000Y-110220000D02*
X131220000Y-106460000D01*
X133180000Y-106460000D02*
X133180000Y-110220000D01*
X133180000Y-110220000D02*
X131220000Y-110220000D01*
%TO.C,C1*%
X152075000Y-102885000D02*
X154035000Y-102885000D01*
X152075000Y-106645000D02*
X152075000Y-102885000D01*
X154035000Y-102885000D02*
X154035000Y-106645000D01*
X154035000Y-106645000D02*
X152075000Y-106645000D01*
%TO.C,AE1*%
X126705000Y-77105000D02*
X131485000Y-77105000D01*
X126705000Y-81885000D02*
X126705000Y-77105000D01*
X126705000Y-81885000D02*
X131485000Y-81885000D01*
X131485000Y-81885000D02*
X131485000Y-77105000D01*
%TO.C,U4*%
X135365000Y-107135000D02*
X135365000Y-115935000D01*
X135365000Y-115935000D02*
X142565000Y-115935000D01*
X142565000Y-107135000D02*
X135365000Y-107135000D01*
X142565000Y-115935000D02*
X142565000Y-107135000D01*
%TO.C,C3*%
X142492500Y-97185000D02*
X146252500Y-97185000D01*
X142492500Y-99145000D02*
X142492500Y-97185000D01*
X146252500Y-97185000D02*
X146252500Y-99145000D01*
X146252500Y-99145000D02*
X142492500Y-99145000D01*
%TO.C,Y1*%
X145465000Y-101165000D02*
X145465000Y-114765000D01*
X145465000Y-114765000D02*
X150665000Y-114765000D01*
X150665000Y-101165000D02*
X145465000Y-101165000D01*
X150665000Y-114765000D02*
X150665000Y-101165000D01*
%TO.C,R6*%
X120770000Y-76970000D02*
X122670000Y-76970000D01*
X120770000Y-80670000D02*
X120770000Y-76970000D01*
X122670000Y-76970000D02*
X122670000Y-80670000D01*
X122670000Y-80670000D02*
X120770000Y-80670000D01*
%TO.C,Y2*%
X119915000Y-112565000D02*
X119915000Y-117765000D01*
X119915000Y-117765000D02*
X133515000Y-117765000D01*
X133515000Y-112565000D02*
X119915000Y-112565000D01*
X133515000Y-117765000D02*
X133515000Y-112565000D01*
%TO.C,TP1*%
X158665000Y-102635000D02*
G75*
G02*
X156665000Y-102635000I-1000000J0D01*
G01*
X156665000Y-102635000D02*
G75*
G02*
X158665000Y-102635000I1000000J0D01*
G01*
%TO.C,D6*%
X114450000Y-82620000D02*
X119010000Y-82620000D01*
X114450000Y-84860000D02*
X114450000Y-82620000D01*
X119010000Y-82620000D02*
X119010000Y-84860000D01*
X119010000Y-84860000D02*
X114450000Y-84860000D01*
%TO.C,C6*%
X129120000Y-106497500D02*
X131080000Y-106497500D01*
X129120000Y-110257500D02*
X129120000Y-106497500D01*
X131080000Y-106497500D02*
X131080000Y-110257500D01*
X131080000Y-110257500D02*
X129120000Y-110257500D01*
%TO.C,H1*%
X161050000Y-115700000D02*
G75*
G02*
X156750000Y-115700000I-2150000J0D01*
G01*
X156750000Y-115700000D02*
G75*
G02*
X161050000Y-115700000I2150000J0D01*
G01*
%TO.C,J2*%
X136365000Y-123565000D02*
X136365000Y-127165000D01*
X136365000Y-127165000D02*
X147565000Y-127165000D01*
X147565000Y-123565000D02*
X136365000Y-123565000D01*
X147565000Y-127165000D02*
X147565000Y-123565000D01*
%TO.C,C7*%
X119195000Y-120145000D02*
X121155000Y-120145000D01*
X119195000Y-123905000D02*
X119195000Y-120145000D01*
X121155000Y-120145000D02*
X121155000Y-123905000D01*
X121155000Y-123905000D02*
X119195000Y-123905000D01*
%TO.C,C2*%
X140585000Y-102135000D02*
X142545000Y-102135000D01*
X140585000Y-105895000D02*
X140585000Y-102135000D01*
X142545000Y-102135000D02*
X142545000Y-105895000D01*
X142545000Y-105895000D02*
X140585000Y-105895000D01*
%TO.C,U3*%
X120465000Y-92815000D02*
X131065000Y-92815000D01*
X120465000Y-103415000D02*
X120465000Y-92815000D01*
X120465000Y-103415000D02*
X131065000Y-103415000D01*
X131065000Y-103415000D02*
X131065000Y-92815000D01*
%TO.C,R1*%
X148975000Y-97225000D02*
X152675000Y-97225000D01*
X148975000Y-99125000D02*
X148975000Y-97225000D01*
X152675000Y-97225000D02*
X152675000Y-99125000D01*
X152675000Y-99125000D02*
X148975000Y-99125000D01*
%TO.C,D3*%
X114450000Y-85080000D02*
X119010000Y-85080000D01*
X114450000Y-87320000D02*
X114450000Y-85080000D01*
X119010000Y-85080000D02*
X119010000Y-87320000D01*
X119010000Y-87320000D02*
X114450000Y-87320000D01*
%TO.C,H3*%
X159950000Y-77435000D02*
G75*
G02*
X155650000Y-77435000I-2150000J0D01*
G01*
X155650000Y-77435000D02*
G75*
G02*
X159950000Y-77435000I2150000J0D01*
G01*
%TO.C,D2*%
X150995000Y-112695000D02*
X155555000Y-112695000D01*
X150995000Y-114935000D02*
X150995000Y-112695000D01*
X155555000Y-112695000D02*
X155555000Y-114935000D01*
X155555000Y-114935000D02*
X150995000Y-114935000D01*
%TO.C,R5*%
X122760000Y-76960000D02*
X124660000Y-76960000D01*
X122760000Y-80660000D02*
X122760000Y-76960000D01*
X124660000Y-76960000D02*
X124660000Y-80660000D01*
X124660000Y-80660000D02*
X122760000Y-80660000D01*
%TO.C,C8*%
X157985000Y-121347500D02*
X159945000Y-121347500D01*
X157985000Y-125107500D02*
X157985000Y-121347500D01*
X159945000Y-121347500D02*
X159945000Y-125107500D01*
X159945000Y-125107500D02*
X157985000Y-125107500D01*
%TO.C,R2*%
X133665000Y-97565000D02*
X137365000Y-97565000D01*
X133665000Y-99465000D02*
X133665000Y-97565000D01*
X137365000Y-97565000D02*
X137365000Y-99465000D01*
X137365000Y-99465000D02*
X133665000Y-99465000D01*
%TO.C,U1*%
X138565000Y-76355000D02*
X155065000Y-76355000D01*
X138565000Y-94855000D02*
X138565000Y-76355000D01*
X155065000Y-94855000D02*
X138565000Y-94855000D01*
X155065000Y-94855000D02*
X155065000Y-76355000D01*
%TO.C,C9*%
X121455000Y-120135000D02*
X123415000Y-120135000D01*
X121455000Y-123895000D02*
X121455000Y-120135000D01*
X123415000Y-120135000D02*
X123415000Y-123895000D01*
X123415000Y-123895000D02*
X121455000Y-123895000D01*
%TD*%
M02*
