M48
; DRILL file {KiCad 8.0.3-8.0.3-0~ubuntu22.04.1} date 2024-08-07T12:49:25+0300
; FORMAT={-:-/ absolute / inch / decimal}
; #@! TF.CreationDate,2024-08-07T12:49:25+03:00
; #@! TF.GenerationSoftware,Kicad,Pcbnew,8.0.3-8.0.3-0~ubuntu22.04.1
; #@! TF.FileFunction,Plated,1,2,PTH
FMAT,2
INCH
; #@! TA.AperFunction,Plated,PTH,ViaDrill
T1C0.0118
; #@! TA.AperFunction,Plated,PTH,ComponentDrill
T2C0.0295
; #@! TA.AperFunction,Plated,PTH,ComponentDrill
T3C0.0331
; #@! TA.AperFunction,Plated,PTH,ComponentDrill
T4C0.0343
; #@! TA.AperFunction,Plated,PTH,ComponentDrill
T5C0.0394
; #@! TA.AperFunction,Plated,PTH,ComponentDrill
T6C0.0866
%
G90
G05
T1
X4.6087Y-3.4555
X4.6508Y-3.5224
X4.6598Y-3.9061
X4.6663Y-3.986
X4.6931Y-3.8762
X4.7406Y-4.1366
X4.7732Y-4.1366
X4.7864Y-4.6447
X4.7872Y-4.6789
X4.8047Y-4.1374
X4.8585Y-3.96
X4.8624Y-3.5935
X4.8624Y-3.7738
X4.9106Y-4.1343
X4.9106Y-4.2154
X4.9213Y-3.5039
X4.9213Y-3.5433
X4.9213Y-3.5827
X4.9213Y-3.622
X4.9488Y-4.2157
X4.9496Y-4.1331
X4.9606Y-3.5039
X4.9606Y-3.5433
X4.9606Y-3.5827
X4.9606Y-3.622
X4.9856Y-3.8124
X4.9876Y-4.1817
X4.9994Y-4.6443
X5.0494Y-4.6785
X5.0616Y-3.847
X5.1187Y-4.0356
X5.1222Y-4.3687
X5.123Y-4.8325
X5.1494Y-4.6719
X5.1994Y-4.6742
X5.2423Y-4.8325
X5.2756Y-4.6063
X5.2756Y-4.6457
X5.2756Y-4.685
X5.2935Y-3.5774
X5.315Y-4.6063
X5.315Y-4.6457
X5.315Y-4.685
X5.3543Y-4.6063
X5.3543Y-4.6457
X5.3543Y-4.685
X5.4724Y-3.3465
X5.4724Y-3.3858
X5.5118Y-3.3465
X5.5118Y-3.3858
X5.536Y-4.3911
X5.538Y-3.8648
X5.5512Y-3.3465
X5.5512Y-3.3858
X5.5906Y-3.3465
X5.5906Y-3.3858
X5.7407Y-3.5778
X5.7411Y-3.214
T2
X5.9514Y-4.8726
X6.0301Y-4.8726
T3
X5.0325Y-3.0797
X5.0325Y-3.1797
X5.0825Y-3.1297
X5.1325Y-3.0797
X5.1325Y-3.1797
T4
X4.5419Y-4.1404
X4.5419Y-4.1994
X4.5419Y-4.2585
X4.5419Y-4.3175
X4.5439Y-3.5518
X4.5439Y-3.6108
X4.5439Y-3.6699
X4.5439Y-3.7289
X4.5439Y-3.788
X4.5439Y-3.847
X4.5439Y-3.9061
X4.5439Y-3.9652
T5
X5.0297Y-3.3896
X5.0297Y-3.4896
X5.1297Y-3.3896
X5.1297Y-3.4896
X5.2297Y-3.3896
X5.2297Y-3.4896
X5.4388Y-4.9356
X5.5388Y-4.9356
X5.6388Y-4.9356
X5.7388Y-4.9356
T6
X4.5866Y-4.9016
X4.6002Y-3.0669
X6.2126Y-3.0486
X6.2559Y-4.5551
M30
