%TF.GenerationSoftware,KiCad,Pcbnew,8.0.3-8.0.3-0~ubuntu22.04.1*%
%TF.CreationDate,2024-08-07T12:48:35+03:00*%
%TF.ProjectId,communication_body,636f6d6d-756e-4696-9361-74696f6e5f62,rev?*%
%TF.SameCoordinates,Original*%
%TF.FileFunction,Paste,Top*%
%TF.FilePolarity,Positive*%
%FSLAX46Y46*%
G04 Gerber Fmt 4.6, Leading zero omitted, Abs format (unit mm)*
G04 Created by KiCad (PCBNEW 8.0.3-8.0.3-0~ubuntu22.04.1) date 2024-08-07 12:48:35*
%MOMM*%
%LPD*%
G01*
G04 APERTURE LIST*
G04 Aperture macros list*
%AMRoundRect*
0 Rectangle with rounded corners*
0 $1 Rounding radius*
0 $2 $3 $4 $5 $6 $7 $8 $9 X,Y pos of 4 corners*
0 Add a 4 corners polygon primitive as box body*
4,1,4,$2,$3,$4,$5,$6,$7,$8,$9,$2,$3,0*
0 Add four circle primitives for the rounded corners*
1,1,$1+$1,$2,$3*
1,1,$1+$1,$4,$5*
1,1,$1+$1,$6,$7*
1,1,$1+$1,$8,$9*
0 Add four rect primitives between the rounded corners*
20,1,$1+$1,$2,$3,$4,$5,0*
20,1,$1+$1,$4,$5,$6,$7,0*
20,1,$1+$1,$6,$7,$8,$9,0*
20,1,$1+$1,$8,$9,$2,$3,0*%
G04 Aperture macros list end*
%ADD10RoundRect,0.250000X-1.075000X-0.550000X1.075000X-0.550000X1.075000X0.550000X-1.075000X0.550000X0*%
%ADD11RoundRect,0.250000X-0.450000X0.350000X-0.450000X-0.350000X0.450000X-0.350000X0.450000X0.350000X0*%
%ADD12RoundRect,0.250000X-0.250000X0.275000X-0.250000X-0.275000X0.250000X-0.275000X0.250000X0.275000X0*%
%ADD13RoundRect,0.250000X-0.275000X0.850000X-0.275000X-0.850000X0.275000X-0.850000X0.275000X0.850000X0*%
%ADD14R,1.500000X1.500000*%
%ADD15RoundRect,0.150000X-0.150000X0.825000X-0.150000X-0.825000X0.150000X-0.825000X0.150000X0.825000X0*%
%ADD16RoundRect,0.250000X-0.350000X-0.450000X0.350000X-0.450000X0.350000X0.450000X-0.350000X0.450000X0*%
%ADD17RoundRect,0.250000X-0.375000X-0.625000X0.375000X-0.625000X0.375000X0.625000X-0.375000X0.625000X0*%
%ADD18RoundRect,0.250000X1.000000X0.650000X-1.000000X0.650000X-1.000000X-0.650000X1.000000X-0.650000X0*%
%ADD19RoundRect,0.250000X-0.337500X-0.475000X0.337500X-0.475000X0.337500X0.475000X-0.337500X0.475000X0*%
%ADD20RoundRect,0.250000X-0.475000X0.337500X-0.475000X-0.337500X0.475000X-0.337500X0.475000X0.337500X0*%
%ADD21RoundRect,0.250000X0.475000X-0.337500X0.475000X0.337500X-0.475000X0.337500X-0.475000X-0.337500X0*%
%ADD22R,1.380000X0.450000*%
%ADD23R,1.300000X1.650000*%
%ADD24R,1.550000X1.425000*%
%ADD25R,1.900000X1.800000*%
%ADD26R,1.900000X1.000000*%
%ADD27RoundRect,0.375000X0.375000X-0.625000X0.375000X0.625000X-0.375000X0.625000X-0.375000X-0.625000X0*%
%ADD28RoundRect,0.500000X1.400000X-0.500000X1.400000X0.500000X-1.400000X0.500000X-1.400000X-0.500000X0*%
%ADD29RoundRect,0.250000X0.337500X0.475000X-0.337500X0.475000X-0.337500X-0.475000X0.337500X-0.475000X0*%
%ADD30R,2.000000X4.500000*%
%ADD31RoundRect,0.250000X0.450000X-0.350000X0.450000X0.350000X-0.450000X0.350000X-0.450000X-0.350000X0*%
%ADD32R,4.500000X2.000000*%
%ADD33RoundRect,0.250000X0.375000X0.625000X-0.375000X0.625000X-0.375000X-0.625000X0.375000X-0.625000X0*%
%ADD34R,0.550000X1.600000*%
%ADD35R,1.600000X0.550000*%
%ADD36RoundRect,0.250000X0.350000X0.450000X-0.350000X0.450000X-0.350000X-0.450000X0.350000X-0.450000X0*%
%ADD37RoundRect,0.317500X0.317500X-1.157500X0.317500X1.157500X-0.317500X1.157500X-0.317500X-1.157500X0*%
G04 APERTURE END LIST*
D10*
%TO.C,C11*%
X138935000Y-118675000D03*
X142285000Y-118675000D03*
%TD*%
D11*
%TO.C,R4*%
X156865000Y-122265000D03*
X156865000Y-124265000D03*
%TD*%
D12*
%TO.C,AE2*%
X134925000Y-78105000D03*
D13*
X136400000Y-79630000D03*
X133450000Y-79630000D03*
%TD*%
D14*
%TO.C,SW1*%
X121365000Y-82365000D03*
X121365000Y-90165000D03*
%TD*%
D15*
%TO.C,U2*%
X133335000Y-120977500D03*
X132065000Y-120977500D03*
X130795000Y-120977500D03*
X129525000Y-120977500D03*
X128255000Y-120977500D03*
X126985000Y-120977500D03*
X125715000Y-120977500D03*
X124445000Y-120977500D03*
X124445000Y-125927500D03*
X125715000Y-125927500D03*
X126985000Y-125927500D03*
X128255000Y-125927500D03*
X129525000Y-125927500D03*
X130795000Y-125927500D03*
X132065000Y-125927500D03*
X133335000Y-125927500D03*
%TD*%
D16*
%TO.C,R3*%
X151825000Y-116235000D03*
X153825000Y-116235000D03*
%TD*%
D17*
%TO.C,D1*%
X133715000Y-100815000D03*
X136515000Y-100815000D03*
%TD*%
D18*
%TO.C,D5*%
X155165000Y-119365000D03*
X151165000Y-119365000D03*
%TD*%
D19*
%TO.C,C10*%
X140177500Y-122245000D03*
X142252500Y-122245000D03*
%TD*%
D18*
%TO.C,D4*%
X125937500Y-109427500D03*
X121937500Y-109427500D03*
%TD*%
D20*
%TO.C,C4*%
X132200000Y-107302500D03*
X132200000Y-109377500D03*
%TD*%
D21*
%TO.C,C1*%
X153055000Y-105802500D03*
X153055000Y-103727500D03*
%TD*%
D22*
%TO.C,J7*%
X116850000Y-115552500D03*
X116850000Y-116202500D03*
X116850000Y-116852500D03*
X116850000Y-117502500D03*
X116850000Y-118152500D03*
D23*
X114190000Y-113477500D03*
D24*
X116765000Y-114365000D03*
D25*
X114190000Y-115702500D03*
D26*
X114190000Y-118402500D03*
D24*
X116765000Y-119340000D03*
D23*
X114190000Y-120227500D03*
%TD*%
D27*
%TO.C,U4*%
X136665000Y-114685000D03*
X138965000Y-114685000D03*
D28*
X138965000Y-108385000D03*
D27*
X141265000Y-114685000D03*
%TD*%
D29*
%TO.C,C3*%
X145410000Y-98165000D03*
X143335000Y-98165000D03*
%TD*%
D30*
%TO.C,Y1*%
X148065000Y-103715000D03*
X148065000Y-112215000D03*
%TD*%
D31*
%TO.C,R6*%
X121720000Y-79820000D03*
X121720000Y-77820000D03*
%TD*%
D32*
%TO.C,Y2*%
X130965000Y-115165000D03*
X122465000Y-115165000D03*
%TD*%
D33*
%TO.C,D6*%
X118130000Y-83740000D03*
X115330000Y-83740000D03*
%TD*%
D20*
%TO.C,C6*%
X130100000Y-107340000D03*
X130100000Y-109415000D03*
%TD*%
D21*
%TO.C,C7*%
X120175000Y-123062500D03*
X120175000Y-120987500D03*
%TD*%
D20*
%TO.C,C2*%
X141565000Y-102977500D03*
X141565000Y-105052500D03*
%TD*%
D34*
%TO.C,U3*%
X122965000Y-102365000D03*
X123765000Y-102365000D03*
X124565000Y-102365000D03*
X125365000Y-102365000D03*
X126165000Y-102365000D03*
X126965000Y-102365000D03*
X127765000Y-102365000D03*
X128565000Y-102365000D03*
D35*
X130015000Y-100915000D03*
X130015000Y-100115000D03*
X130015000Y-99315000D03*
X130015000Y-98515000D03*
X130015000Y-97715000D03*
X130015000Y-96915000D03*
X130015000Y-96115000D03*
X130015000Y-95315000D03*
D34*
X128565000Y-93865000D03*
X127765000Y-93865000D03*
X126965000Y-93865000D03*
X126165000Y-93865000D03*
X125365000Y-93865000D03*
X124565000Y-93865000D03*
X123765000Y-93865000D03*
X122965000Y-93865000D03*
D35*
X121515000Y-95315000D03*
X121515000Y-96115000D03*
X121515000Y-96915000D03*
X121515000Y-97715000D03*
X121515000Y-98515000D03*
X121515000Y-99315000D03*
X121515000Y-100115000D03*
X121515000Y-100915000D03*
%TD*%
D36*
%TO.C,R1*%
X151825000Y-98175000D03*
X149825000Y-98175000D03*
%TD*%
D33*
%TO.C,D3*%
X118130000Y-86200000D03*
X115330000Y-86200000D03*
%TD*%
%TO.C,D2*%
X154675000Y-113815000D03*
X151875000Y-113815000D03*
%TD*%
D31*
%TO.C,R5*%
X123710000Y-79810000D03*
X123710000Y-77810000D03*
%TD*%
D20*
%TO.C,C8*%
X158965000Y-122190000D03*
X158965000Y-124265000D03*
%TD*%
D36*
%TO.C,R2*%
X136515000Y-98515000D03*
X134515000Y-98515000D03*
%TD*%
D37*
%TO.C,U1*%
X139815000Y-93130000D03*
X141815000Y-93130000D03*
X143815000Y-93130000D03*
X145815000Y-93130000D03*
X147815000Y-93130000D03*
X149815000Y-93130000D03*
X151815000Y-93130000D03*
X153815000Y-93130000D03*
X153815000Y-78080000D03*
X151815000Y-78080000D03*
X149815000Y-78080000D03*
X147815000Y-78080000D03*
X145815000Y-78080000D03*
X143815000Y-78080000D03*
X141815000Y-78080000D03*
X139815000Y-78080000D03*
%TD*%
D21*
%TO.C,C9*%
X122435000Y-123052500D03*
X122435000Y-120977500D03*
%TD*%
M02*
