%TF.GenerationSoftware,KiCad,Pcbnew,8.0.3-8.0.3-0~ubuntu22.04.1*%
%TF.CreationDate,2024-08-07T12:48:34+03:00*%
%TF.ProjectId,communication_body,636f6d6d-756e-4696-9361-74696f6e5f62,rev?*%
%TF.SameCoordinates,Original*%
%TF.FileFunction,Copper,L2,Bot*%
%TF.FilePolarity,Positive*%
%FSLAX46Y46*%
G04 Gerber Fmt 4.6, Leading zero omitted, Abs format (unit mm)*
G04 Created by KiCad (PCBNEW 8.0.3-8.0.3-0~ubuntu22.04.1) date 2024-08-07 12:48:34*
%MOMM*%
%LPD*%
G01*
G04 APERTURE LIST*
G04 Aperture macros list*
%AMRoundRect*
0 Rectangle with rounded corners*
0 $1 Rounding radius*
0 $2 $3 $4 $5 $6 $7 $8 $9 X,Y pos of 4 corners*
0 Add a 4 corners polygon primitive as box body*
4,1,4,$2,$3,$4,$5,$6,$7,$8,$9,$2,$3,0*
0 Add four circle primitives for the rounded corners*
1,1,$1+$1,$2,$3*
1,1,$1+$1,$4,$5*
1,1,$1+$1,$6,$7*
1,1,$1+$1,$8,$9*
0 Add four rect primitives between the rounded corners*
20,1,$1+$1,$2,$3,$4,$5,0*
20,1,$1+$1,$4,$5,$6,$7,0*
20,1,$1+$1,$6,$7,$8,$9,0*
20,1,$1+$1,$8,$9,$2,$3,0*%
G04 Aperture macros list end*
%TA.AperFunction,ComponentPad*%
%ADD10RoundRect,0.250000X-0.685000X0.335000X-0.685000X-0.335000X0.685000X-0.335000X0.685000X0.335000X0*%
%TD*%
%TA.AperFunction,ComponentPad*%
%ADD11O,1.870000X1.170000*%
%TD*%
%TA.AperFunction,ComponentPad*%
%ADD12RoundRect,0.250000X-0.350000X-0.625000X0.350000X-0.625000X0.350000X0.625000X-0.350000X0.625000X0*%
%TD*%
%TA.AperFunction,ComponentPad*%
%ADD13O,1.200000X1.750000*%
%TD*%
%TA.AperFunction,ComponentPad*%
%ADD14R,1.700000X1.700000*%
%TD*%
%TA.AperFunction,ComponentPad*%
%ADD15O,1.700000X1.700000*%
%TD*%
%TA.AperFunction,ComponentPad*%
%ADD16C,3.800000*%
%TD*%
%TA.AperFunction,ComponentPad*%
%ADD17C,1.240000*%
%TD*%
%TA.AperFunction,ViaPad*%
%ADD18C,0.500000*%
%TD*%
%TA.AperFunction,Conductor*%
%ADD19C,0.200000*%
%TD*%
G04 APERTURE END LIST*
D10*
%TO.P,J5,1,Pin_1*%
%TO.N,GND*%
X115365000Y-105165000D03*
D11*
%TO.P,J5,2,Pin_2*%
%TO.N,/COM_Tx*%
X115365000Y-106665000D03*
%TO.P,J5,3,Pin_3*%
%TO.N,/COM_Rx*%
X115365000Y-108165000D03*
%TO.P,J5,4,Pin_4*%
%TO.N,/COM_int*%
X115365000Y-109665000D03*
%TD*%
D12*
%TO.P,J4,1,Pin_1*%
%TO.N,Net-(D5-A)*%
X151165000Y-123765000D03*
D13*
%TO.P,J4,2,Pin_2*%
%TO.N,GND*%
X153165000Y-123765000D03*
%TD*%
D10*
%TO.P,J6,1,Pin_1*%
%TO.N,/X_axis*%
X115415000Y-90215000D03*
D11*
%TO.P,J6,2,Pin_2*%
%TO.N,/Y_axis*%
X115415000Y-91715000D03*
%TO.P,J6,3,Pin_3*%
%TO.N,/Z_axis*%
X115415000Y-93215000D03*
%TO.P,J6,4,Pin_4*%
%TO.N,/output*%
X115415000Y-94715000D03*
%TO.P,J6,5,Pin_5*%
%TO.N,/input*%
X115415000Y-96215000D03*
%TO.P,J6,6,Pin_6*%
%TO.N,/intr*%
X115415000Y-97715000D03*
%TO.P,J6,7,Pin_7*%
%TO.N,/level*%
X115415000Y-99215000D03*
%TO.P,J6,8,Pin_8*%
%TO.N,GND*%
X115415000Y-100715000D03*
%TD*%
D14*
%TO.P,J1,1,Pin_1*%
%TO.N,/MISO*%
X132835000Y-86095000D03*
D15*
%TO.P,J1,2,Pin_2*%
%TO.N,/SCLK*%
X132835000Y-88635000D03*
%TO.P,J1,3,Pin_3*%
%TO.N,/reset*%
X130295000Y-86095000D03*
%TO.P,J1,4,Pin_4*%
%TO.N,GND*%
X130295000Y-88635000D03*
%TO.P,J1,5,Pin_5*%
%TO.N,/MOSI*%
X127755000Y-86095000D03*
%TO.P,J1,6,Pin_6*%
%TO.N,+3V3*%
X127755000Y-88635000D03*
%TD*%
D16*
%TO.P,H2,1,1*%
%TO.N,GND*%
X116845000Y-77900000D03*
%TD*%
%TO.P,H4,1,1*%
%TO.N,GND*%
X116500000Y-124500000D03*
%TD*%
D17*
%TO.P,AE1,1,A*%
%TO.N,Net-(AE1-A)*%
X129095000Y-79495000D03*
%TO.P,AE1,2,Shield*%
%TO.N,GND*%
X127825000Y-78225000D03*
X127825000Y-80765000D03*
X130365000Y-78225000D03*
X130365000Y-80765000D03*
%TD*%
D16*
%TO.P,H1,1,1*%
%TO.N,GND*%
X158900000Y-115700000D03*
%TD*%
D14*
%TO.P,J2,1,Pin_1*%
%TO.N,+3V3*%
X145765000Y-125365000D03*
D15*
%TO.P,J2,2,Pin_2*%
%TO.N,/RXD*%
X143225000Y-125365000D03*
%TO.P,J2,3,Pin_3*%
%TO.N,/TXD*%
X140685000Y-125365000D03*
%TO.P,J2,4,Pin_4*%
%TO.N,GND*%
X138145000Y-125365000D03*
%TD*%
D16*
%TO.P,H3,1,1*%
%TO.N,GND*%
X157800000Y-77435000D03*
%TD*%
D18*
%TO.N,GND*%
X124730000Y-107070000D03*
X125000000Y-92000000D03*
X136000000Y-117000000D03*
X141000000Y-85000000D03*
X136000000Y-118000000D03*
X134000000Y-117000000D03*
X135000000Y-117000000D03*
X139000000Y-85000000D03*
X136000000Y-119000000D03*
X122040000Y-105090000D03*
X135000000Y-118000000D03*
X125700000Y-107080000D03*
X134000000Y-118000000D03*
X125000000Y-91000000D03*
X125720000Y-104980000D03*
X134000000Y-119000000D03*
X126000000Y-91000000D03*
X141000000Y-86000000D03*
X125000000Y-90000000D03*
X126000000Y-92000000D03*
X120410000Y-105070000D03*
X126000000Y-89000000D03*
X126000000Y-90000000D03*
X142000000Y-85000000D03*
X142000000Y-86000000D03*
X140000000Y-85000000D03*
X125000000Y-89000000D03*
X124730000Y-105010000D03*
X140000000Y-86000000D03*
X121240000Y-105070000D03*
X139000000Y-86000000D03*
X135000000Y-119000000D03*
%TO.N,Net-(U3-AREF)*%
X126635000Y-96835000D03*
X140665000Y-98165000D03*
%TO.N,+3V3*%
X145825000Y-81635000D03*
%TO.N,/SCLK*%
X145815000Y-90875000D03*
X134455000Y-90865000D03*
%TO.N,/reset*%
X123505000Y-91275000D03*
X123505000Y-95855000D03*
%TO.N,/RXD*%
X123405000Y-100585000D03*
X132065000Y-118725000D03*
X119205000Y-98455000D03*
X118130000Y-89470000D03*
%TO.N,/TXD*%
X117060000Y-87770000D03*
X130795000Y-118665000D03*
X118525000Y-101245000D03*
%TO.N,/level*%
X118360000Y-99215000D03*
X128565000Y-97715000D03*
%TO.N,/COM_int*%
X130015000Y-102505000D03*
X126685000Y-106215000D03*
%TO.N,+5V*%
X140615000Y-111535000D03*
X130105000Y-110965000D03*
%TO.N,Net-(U2-V3)*%
X133155000Y-122745000D03*
X130125000Y-122745000D03*
%TO.N,Net-(J7-D-)*%
X121575000Y-117975000D03*
X126985000Y-117965000D03*
%TO.N,Net-(J7-D+)*%
X128255000Y-118835000D03*
X121595000Y-118845000D03*
%TD*%
D19*
%TO.N,Net-(U3-AREF)*%
X126635000Y-96835000D02*
X139335000Y-96835000D01*
X139335000Y-96835000D02*
X140665000Y-98165000D01*
%TO.N,+3V3*%
X127755000Y-88025000D02*
X128395000Y-87385000D01*
X144705000Y-87385000D02*
X145425000Y-86665000D01*
X145425000Y-86665000D02*
X145825000Y-86265000D01*
X145825000Y-86265000D02*
X145825000Y-81635000D01*
X127755000Y-88635000D02*
X127755000Y-88025000D01*
X128395000Y-87385000D02*
X144705000Y-87385000D01*
%TO.N,/SCLK*%
X145815000Y-90875000D02*
X145805000Y-90865000D01*
X145805000Y-90865000D02*
X134455000Y-90865000D01*
%TO.N,/reset*%
X123505000Y-95855000D02*
X123505000Y-91275000D01*
%TO.N,/RXD*%
X132065000Y-115555000D02*
X131105000Y-114595000D01*
X132065000Y-118725000D02*
X132065000Y-115555000D01*
X123405000Y-113755000D02*
X123405000Y-100585000D01*
X131105000Y-114595000D02*
X124245000Y-114595000D01*
X118130000Y-97380000D02*
X118130000Y-89470000D01*
X119205000Y-98455000D02*
X118130000Y-97380000D01*
X124245000Y-114595000D02*
X123405000Y-113755000D01*
%TO.N,/TXD*%
X129955000Y-115285000D02*
X121845000Y-115285000D01*
X117560000Y-101250000D02*
X117565000Y-101245000D01*
X121845000Y-115285000D02*
X118525000Y-111965000D01*
X118525000Y-111965000D02*
X118525000Y-101245000D01*
X117060000Y-100750000D02*
X117560000Y-101250000D01*
X117060000Y-87770000D02*
X117060000Y-100750000D01*
X130795000Y-118665000D02*
X130795000Y-116165000D01*
X130815000Y-116145000D02*
X129955000Y-115285000D01*
X130795000Y-116165000D02*
X130815000Y-116145000D01*
X117565000Y-101245000D02*
X118525000Y-101245000D01*
%TO.N,/level*%
X123735000Y-99215000D02*
X125235000Y-97715000D01*
X118360000Y-99215000D02*
X123735000Y-99215000D01*
X125235000Y-97715000D02*
X128565000Y-97715000D01*
%TO.N,/COM_int*%
X129485000Y-106215000D02*
X130015000Y-105685000D01*
X130015000Y-105685000D02*
X130015000Y-102505000D01*
X126685000Y-106215000D02*
X129485000Y-106215000D01*
%TO.N,+5V*%
X140615000Y-111535000D02*
X130675000Y-111535000D01*
X130675000Y-111535000D02*
X130105000Y-110965000D01*
%TO.N,Net-(U2-V3)*%
X133155000Y-122745000D02*
X130125000Y-122745000D01*
%TO.N,Net-(J7-D-)*%
X121575000Y-117975000D02*
X121585000Y-117965000D01*
X121585000Y-117965000D02*
X126985000Y-117965000D01*
%TO.N,Net-(J7-D+)*%
X128245000Y-118845000D02*
X128255000Y-118835000D01*
X121595000Y-118845000D02*
X128245000Y-118845000D01*
%TD*%
%TA.AperFunction,Conductor*%
%TO.N,GND*%
G36*
X159668234Y-73865712D02*
G01*
X159932568Y-73883037D01*
X159945396Y-73884726D01*
X160202040Y-73935775D01*
X160214529Y-73939122D01*
X160462307Y-74023231D01*
X160474255Y-74028180D01*
X160676290Y-74127814D01*
X160708928Y-74143909D01*
X160720142Y-74150383D01*
X160937707Y-74295755D01*
X160947971Y-74303631D01*
X161144692Y-74476150D01*
X161153849Y-74485307D01*
X161326364Y-74682023D01*
X161334248Y-74692297D01*
X161479616Y-74909857D01*
X161486090Y-74921071D01*
X161601815Y-75155736D01*
X161606771Y-75167701D01*
X161690874Y-75415461D01*
X161694226Y-75427969D01*
X161745272Y-75684598D01*
X161746962Y-75697437D01*
X161764288Y-75961765D01*
X161764500Y-75968240D01*
X161764500Y-125961759D01*
X161764288Y-125968234D01*
X161746962Y-126232562D01*
X161745272Y-126245401D01*
X161694226Y-126502030D01*
X161690874Y-126514538D01*
X161606771Y-126762298D01*
X161601815Y-126774263D01*
X161486090Y-127008928D01*
X161479616Y-127020142D01*
X161334248Y-127237702D01*
X161326364Y-127247976D01*
X161153849Y-127444692D01*
X161144692Y-127453849D01*
X160947976Y-127626364D01*
X160937702Y-127634248D01*
X160720142Y-127779616D01*
X160708928Y-127786090D01*
X160474263Y-127901815D01*
X160462298Y-127906771D01*
X160214538Y-127990874D01*
X160202030Y-127994226D01*
X159945401Y-128045272D01*
X159932562Y-128046962D01*
X159668234Y-128064288D01*
X159661759Y-128064500D01*
X114668241Y-128064500D01*
X114661766Y-128064288D01*
X114397437Y-128046962D01*
X114384598Y-128045272D01*
X114127969Y-127994226D01*
X114115461Y-127990874D01*
X113867701Y-127906771D01*
X113855736Y-127901815D01*
X113853643Y-127900783D01*
X113818638Y-127883520D01*
X113621071Y-127786090D01*
X113609857Y-127779616D01*
X113449895Y-127672733D01*
X113392295Y-127634246D01*
X113382023Y-127626364D01*
X113185307Y-127453849D01*
X113176150Y-127444692D01*
X113110855Y-127370237D01*
X113003631Y-127247971D01*
X112995755Y-127237707D01*
X112850383Y-127020142D01*
X112843909Y-127008928D01*
X112790191Y-126900000D01*
X112728180Y-126774255D01*
X112723231Y-126762307D01*
X112639122Y-126514529D01*
X112635775Y-126502040D01*
X112584726Y-126245396D01*
X112583037Y-126232562D01*
X112577193Y-126143407D01*
X112565712Y-125968234D01*
X112565500Y-125961759D01*
X112565500Y-124500000D01*
X114095255Y-124500000D01*
X114114217Y-124801399D01*
X114170802Y-125098027D01*
X114170805Y-125098037D01*
X114264127Y-125385252D01*
X114392706Y-125658495D01*
X114392707Y-125658496D01*
X114554519Y-125913473D01*
X114635310Y-126011133D01*
X115563707Y-125082735D01*
X115660967Y-125216602D01*
X115783398Y-125339033D01*
X115917262Y-125436290D01*
X114986566Y-126366987D01*
X115211483Y-126530400D01*
X115476107Y-126675877D01*
X115476110Y-126675879D01*
X115756892Y-126787047D01*
X116049402Y-126862150D01*
X116049398Y-126862150D01*
X116349005Y-126900000D01*
X116650995Y-126900000D01*
X116950599Y-126862150D01*
X117243107Y-126787047D01*
X117523887Y-126675879D01*
X117788518Y-126530397D01*
X117788531Y-126530389D01*
X118013432Y-126366987D01*
X117082736Y-125436291D01*
X117216602Y-125339033D01*
X117339033Y-125216602D01*
X117436291Y-125082736D01*
X118364688Y-126011133D01*
X118445479Y-125913474D01*
X118445480Y-125913473D01*
X118607286Y-125658508D01*
X118607293Y-125658495D01*
X118735872Y-125385252D01*
X118823682Y-125115000D01*
X136814364Y-125115000D01*
X137711988Y-125115000D01*
X137679075Y-125172007D01*
X137645000Y-125299174D01*
X137645000Y-125430826D01*
X137679075Y-125557993D01*
X137711988Y-125615000D01*
X136814364Y-125615000D01*
X136871569Y-125828489D01*
X136971399Y-126042577D01*
X137106886Y-126236073D01*
X137273926Y-126403113D01*
X137467422Y-126538600D01*
X137681509Y-126638430D01*
X137895000Y-126695634D01*
X137895000Y-125798012D01*
X137952007Y-125830925D01*
X138079174Y-125865000D01*
X138210826Y-125865000D01*
X138337993Y-125830925D01*
X138395000Y-125798012D01*
X138395000Y-126695633D01*
X138608490Y-126638430D01*
X138822577Y-126538600D01*
X139016073Y-126403113D01*
X139183113Y-126236073D01*
X139318600Y-126042577D01*
X139418431Y-125828488D01*
X139424958Y-125804130D01*
X139458281Y-125752815D01*
X139515402Y-125730888D01*
X139574503Y-125746723D01*
X139609206Y-125785624D01*
X139702630Y-125973248D01*
X139702632Y-125973252D01*
X139702634Y-125973255D01*
X139831128Y-126143407D01*
X139831135Y-126143413D01*
X139988692Y-126287047D01*
X139988699Y-126287053D01*
X140092389Y-126351255D01*
X140169981Y-126399298D01*
X140368802Y-126476321D01*
X140578390Y-126515500D01*
X140791610Y-126515500D01*
X141001198Y-126476321D01*
X141200019Y-126399298D01*
X141381302Y-126287052D01*
X141538872Y-126143407D01*
X141667366Y-125973255D01*
X141762405Y-125782389D01*
X141820756Y-125577310D01*
X141840429Y-125365000D01*
X142069571Y-125365000D01*
X142089244Y-125577310D01*
X142147595Y-125782389D01*
X142242634Y-125973255D01*
X142371128Y-126143407D01*
X142371135Y-126143413D01*
X142528692Y-126287047D01*
X142528699Y-126287053D01*
X142632389Y-126351255D01*
X142709981Y-126399298D01*
X142908802Y-126476321D01*
X143118390Y-126515500D01*
X143331610Y-126515500D01*
X143541198Y-126476321D01*
X143740019Y-126399298D01*
X143921302Y-126287052D01*
X144078872Y-126143407D01*
X144207366Y-125973255D01*
X144302405Y-125782389D01*
X144360756Y-125577310D01*
X144380429Y-125365000D01*
X144360756Y-125152690D01*
X144302405Y-124947611D01*
X144207366Y-124756745D01*
X144078872Y-124586593D01*
X143951119Y-124470130D01*
X144614500Y-124470130D01*
X144614500Y-126259860D01*
X144614501Y-126259863D01*
X144617414Y-126284990D01*
X144618325Y-126287053D01*
X144662794Y-126387765D01*
X144742235Y-126467206D01*
X144845009Y-126512585D01*
X144870135Y-126515500D01*
X146659864Y-126515499D01*
X146684991Y-126512585D01*
X146787765Y-126467206D01*
X146867206Y-126387765D01*
X146912585Y-126284991D01*
X146915500Y-126259865D01*
X146915499Y-124470136D01*
X146912585Y-124445009D01*
X146867206Y-124342235D01*
X146787765Y-124262794D01*
X146684991Y-124217415D01*
X146684990Y-124217414D01*
X146684988Y-124217414D01*
X146659868Y-124214500D01*
X144870139Y-124214500D01*
X144870136Y-124214501D01*
X144845009Y-124217414D01*
X144742235Y-124262794D01*
X144662794Y-124342235D01*
X144617414Y-124445011D01*
X144614500Y-124470130D01*
X143951119Y-124470130D01*
X143942473Y-124462248D01*
X143921307Y-124442952D01*
X143921300Y-124442946D01*
X143740024Y-124330705D01*
X143740019Y-124330702D01*
X143654518Y-124297579D01*
X143541198Y-124253679D01*
X143541197Y-124253678D01*
X143541195Y-124253678D01*
X143331610Y-124214500D01*
X143118390Y-124214500D01*
X142908804Y-124253678D01*
X142709980Y-124330702D01*
X142709975Y-124330705D01*
X142528699Y-124442946D01*
X142528692Y-124442952D01*
X142371135Y-124586586D01*
X142371131Y-124586589D01*
X142371128Y-124586593D01*
X142371125Y-124586597D01*
X142242635Y-124756743D01*
X142242630Y-124756752D01*
X142149206Y-124944375D01*
X142147595Y-124947611D01*
X142140970Y-124970895D01*
X142089244Y-125152688D01*
X142071977Y-125339033D01*
X142069571Y-125365000D01*
X141840429Y-125365000D01*
X141820756Y-125152690D01*
X141762405Y-124947611D01*
X141667366Y-124756745D01*
X141538872Y-124586593D01*
X141402473Y-124462248D01*
X141381307Y-124442952D01*
X141381300Y-124442946D01*
X141200024Y-124330705D01*
X141200019Y-124330702D01*
X141114518Y-124297579D01*
X141001198Y-124253679D01*
X141001197Y-124253678D01*
X141001195Y-124253678D01*
X140791610Y-124214500D01*
X140578390Y-124214500D01*
X140368804Y-124253678D01*
X140169980Y-124330702D01*
X140169975Y-124330705D01*
X139988699Y-124442946D01*
X139988692Y-124442952D01*
X139831135Y-124586586D01*
X139831131Y-124586589D01*
X139831128Y-124586593D01*
X139831125Y-124586597D01*
X139702635Y-124756743D01*
X139702630Y-124756752D01*
X139609206Y-124944375D01*
X139566343Y-124988037D01*
X139506002Y-124998167D01*
X139451231Y-124970895D01*
X139424958Y-124925869D01*
X139418430Y-124901506D01*
X139418429Y-124901505D01*
X139318605Y-124687432D01*
X139318601Y-124687424D01*
X139183113Y-124493926D01*
X139016073Y-124326886D01*
X138822577Y-124191399D01*
X138608489Y-124091569D01*
X138395000Y-124034364D01*
X138395000Y-124931988D01*
X138337993Y-124899075D01*
X138210826Y-124865000D01*
X138079174Y-124865000D01*
X137952007Y-124899075D01*
X137895000Y-124931988D01*
X137895000Y-124034364D01*
X137681505Y-124091570D01*
X137467432Y-124191394D01*
X137467424Y-124191398D01*
X137273926Y-124326886D01*
X137106886Y-124493926D01*
X136971398Y-124687424D01*
X136971394Y-124687432D01*
X136871570Y-124901505D01*
X136814364Y-125115000D01*
X118823682Y-125115000D01*
X118829194Y-125098037D01*
X118829197Y-125098027D01*
X118885782Y-124801399D01*
X118904744Y-124500000D01*
X118885782Y-124198600D01*
X118829197Y-123901972D01*
X118829194Y-123901962D01*
X118735872Y-123614747D01*
X118607293Y-123341504D01*
X118607286Y-123341491D01*
X118445480Y-123086526D01*
X118364688Y-122988865D01*
X117436290Y-123917262D01*
X117339033Y-123783398D01*
X117216602Y-123660967D01*
X117082735Y-123563707D01*
X117901444Y-122744999D01*
X129569750Y-122744999D01*
X129569750Y-122745000D01*
X129588669Y-122888708D01*
X129588670Y-122888709D01*
X129644139Y-123022625D01*
X129732379Y-123137621D01*
X129847375Y-123225861D01*
X129981291Y-123281330D01*
X130125000Y-123300250D01*
X130268709Y-123281330D01*
X130402625Y-123225861D01*
X130440934Y-123196464D01*
X130480693Y-123165958D01*
X130538369Y-123145534D01*
X130540960Y-123145500D01*
X132739040Y-123145500D01*
X132797231Y-123164407D01*
X132799307Y-123165958D01*
X132866078Y-123217193D01*
X132877375Y-123225861D01*
X133011291Y-123281330D01*
X133155000Y-123300250D01*
X133298709Y-123281330D01*
X133432625Y-123225861D01*
X133547621Y-123137621D01*
X133578873Y-123096893D01*
X150264500Y-123096893D01*
X150264500Y-124433106D01*
X150275123Y-124521565D01*
X150330637Y-124662339D01*
X150330638Y-124662341D01*
X150330639Y-124662342D01*
X150422078Y-124782922D01*
X150542658Y-124874361D01*
X150542659Y-124874361D01*
X150542660Y-124874362D01*
X150554515Y-124879037D01*
X150683436Y-124929877D01*
X150771898Y-124940500D01*
X150771900Y-124940500D01*
X151558100Y-124940500D01*
X151558102Y-124940500D01*
X151646564Y-124929877D01*
X151787342Y-124874361D01*
X151907922Y-124782922D01*
X151999361Y-124662342D01*
X152027056Y-124592110D01*
X152065990Y-124544917D01*
X152125232Y-124529619D01*
X152182152Y-124552065D01*
X152207361Y-124583486D01*
X152224192Y-124616519D01*
X152224197Y-124616528D01*
X152325962Y-124756596D01*
X152448403Y-124879037D01*
X152588471Y-124980802D01*
X152588475Y-124980804D01*
X152742751Y-125059411D01*
X152907413Y-125112913D01*
X152915000Y-125114114D01*
X152915000Y-124045330D01*
X152934745Y-124065075D01*
X153020255Y-124114444D01*
X153115630Y-124140000D01*
X153214370Y-124140000D01*
X153309745Y-124114444D01*
X153395255Y-124065075D01*
X153415000Y-124045330D01*
X153415000Y-125114114D01*
X153422586Y-125112913D01*
X153587248Y-125059411D01*
X153741524Y-124980804D01*
X153741528Y-124980802D01*
X153881596Y-124879037D01*
X154004037Y-124756596D01*
X154105802Y-124616528D01*
X154105804Y-124616524D01*
X154184411Y-124462248D01*
X154237915Y-124297579D01*
X154265000Y-124126575D01*
X154265000Y-124015001D01*
X154264999Y-124015000D01*
X153445330Y-124015000D01*
X153465075Y-123995255D01*
X153514444Y-123909745D01*
X153540000Y-123814370D01*
X153540000Y-123715630D01*
X153514444Y-123620255D01*
X153465075Y-123534745D01*
X153445330Y-123515000D01*
X154264999Y-123515000D01*
X154265000Y-123514999D01*
X154265000Y-123403424D01*
X154237915Y-123232420D01*
X154184411Y-123067751D01*
X154105804Y-122913475D01*
X154105802Y-122913471D01*
X154004037Y-122773403D01*
X153881596Y-122650962D01*
X153741528Y-122549197D01*
X153741524Y-122549195D01*
X153587248Y-122470588D01*
X153422586Y-122417086D01*
X153415000Y-122415884D01*
X153415000Y-123484670D01*
X153395255Y-123464925D01*
X153309745Y-123415556D01*
X153214370Y-123390000D01*
X153115630Y-123390000D01*
X153020255Y-123415556D01*
X152934745Y-123464925D01*
X152915000Y-123484670D01*
X152915000Y-122415884D01*
X152907413Y-122417086D01*
X152742751Y-122470588D01*
X152588475Y-122549195D01*
X152588471Y-122549197D01*
X152448403Y-122650962D01*
X152325962Y-122773403D01*
X152224197Y-122913471D01*
X152224195Y-122913476D01*
X152207361Y-122946514D01*
X152164096Y-122989777D01*
X152103663Y-122999348D01*
X152049147Y-122971569D01*
X152027056Y-122937889D01*
X151999361Y-122867658D01*
X151907922Y-122747078D01*
X151787342Y-122655639D01*
X151787341Y-122655638D01*
X151787339Y-122655637D01*
X151646565Y-122600123D01*
X151558106Y-122589500D01*
X151558102Y-122589500D01*
X150771898Y-122589500D01*
X150771893Y-122589500D01*
X150683434Y-122600123D01*
X150542660Y-122655637D01*
X150542656Y-122655640D01*
X150422081Y-122747075D01*
X150422075Y-122747081D01*
X150330640Y-122867656D01*
X150330637Y-122867660D01*
X150275123Y-123008434D01*
X150264500Y-123096893D01*
X133578873Y-123096893D01*
X133635861Y-123022625D01*
X133691330Y-122888709D01*
X133710250Y-122745000D01*
X133691330Y-122601291D01*
X133635861Y-122467375D01*
X133547621Y-122352379D01*
X133432625Y-122264139D01*
X133432621Y-122264137D01*
X133298709Y-122208670D01*
X133298708Y-122208669D01*
X133155000Y-122189750D01*
X133011291Y-122208669D01*
X133011290Y-122208670D01*
X132877378Y-122264137D01*
X132877370Y-122264142D01*
X132799307Y-122324042D01*
X132741631Y-122344466D01*
X132739040Y-122344500D01*
X130540960Y-122344500D01*
X130482769Y-122325593D01*
X130480693Y-122324042D01*
X130402629Y-122264142D01*
X130402628Y-122264141D01*
X130402625Y-122264139D01*
X130402622Y-122264138D01*
X130402621Y-122264137D01*
X130268709Y-122208670D01*
X130268708Y-122208669D01*
X130125000Y-122189750D01*
X129981291Y-122208669D01*
X129981290Y-122208670D01*
X129847378Y-122264137D01*
X129847374Y-122264139D01*
X129732381Y-122352377D01*
X129732377Y-122352381D01*
X129644139Y-122467374D01*
X129644137Y-122467378D01*
X129588670Y-122601290D01*
X129588669Y-122601291D01*
X129569750Y-122744999D01*
X117901444Y-122744999D01*
X118013433Y-122633010D01*
X117788522Y-122469603D01*
X117788518Y-122469600D01*
X117523892Y-122324122D01*
X117523889Y-122324120D01*
X117243107Y-122212952D01*
X116950597Y-122137849D01*
X116950601Y-122137849D01*
X116650995Y-122100000D01*
X116349005Y-122100000D01*
X116049400Y-122137849D01*
X115756892Y-122212952D01*
X115476110Y-122324120D01*
X115476107Y-122324122D01*
X115211487Y-122469597D01*
X115211468Y-122469609D01*
X114986565Y-122633010D01*
X115917263Y-123563708D01*
X115783398Y-123660967D01*
X115660967Y-123783398D01*
X115563708Y-123917263D01*
X114635310Y-122988865D01*
X114554522Y-123086523D01*
X114392707Y-123341503D01*
X114392706Y-123341504D01*
X114264127Y-123614747D01*
X114170805Y-123901962D01*
X114170802Y-123901972D01*
X114114217Y-124198600D01*
X114095255Y-124500000D01*
X112565500Y-124500000D01*
X112565500Y-117974999D01*
X121019750Y-117974999D01*
X121019750Y-117975000D01*
X121038669Y-118118708D01*
X121038670Y-118118709D01*
X121094139Y-118252625D01*
X121094141Y-118252628D01*
X121094142Y-118252629D01*
X121178652Y-118362765D01*
X121199076Y-118420440D01*
X121181699Y-118479106D01*
X121178652Y-118483299D01*
X121114142Y-118567370D01*
X121114137Y-118567378D01*
X121058670Y-118701290D01*
X121058669Y-118701291D01*
X121039750Y-118844999D01*
X121039750Y-118845000D01*
X121058669Y-118988708D01*
X121058670Y-118988709D01*
X121112066Y-119117622D01*
X121114139Y-119122625D01*
X121202379Y-119237621D01*
X121317375Y-119325861D01*
X121451291Y-119381330D01*
X121595000Y-119400250D01*
X121738709Y-119381330D01*
X121872625Y-119325861D01*
X121910934Y-119296464D01*
X121950693Y-119265958D01*
X122008369Y-119245534D01*
X122010960Y-119245500D01*
X127852073Y-119245500D01*
X127910264Y-119264407D01*
X127912340Y-119265958D01*
X127977375Y-119315861D01*
X128111291Y-119371330D01*
X128255000Y-119390250D01*
X128398709Y-119371330D01*
X128532625Y-119315861D01*
X128647621Y-119227621D01*
X128735861Y-119112625D01*
X128791330Y-118978709D01*
X128810250Y-118835000D01*
X128791330Y-118691291D01*
X128735861Y-118557375D01*
X128647621Y-118442379D01*
X128532625Y-118354139D01*
X128532621Y-118354137D01*
X128398709Y-118298670D01*
X128398708Y-118298669D01*
X128255000Y-118279750D01*
X128111291Y-118298669D01*
X128111290Y-118298670D01*
X127977378Y-118354137D01*
X127977370Y-118354142D01*
X127886275Y-118424042D01*
X127828600Y-118444466D01*
X127826008Y-118444500D01*
X127511709Y-118444500D01*
X127453518Y-118425593D01*
X127417554Y-118376093D01*
X127417554Y-118314907D01*
X127433167Y-118285232D01*
X127435151Y-118282647D01*
X127465861Y-118242625D01*
X127521330Y-118108709D01*
X127540250Y-117965000D01*
X127521330Y-117821291D01*
X127465861Y-117687375D01*
X127377621Y-117572379D01*
X127262625Y-117484139D01*
X127262621Y-117484137D01*
X127128709Y-117428670D01*
X127128708Y-117428669D01*
X126985000Y-117409750D01*
X126841291Y-117428669D01*
X126841290Y-117428670D01*
X126707378Y-117484137D01*
X126707370Y-117484142D01*
X126629307Y-117544042D01*
X126571631Y-117564466D01*
X126569040Y-117564500D01*
X121977927Y-117564500D01*
X121919736Y-117545593D01*
X121917660Y-117544042D01*
X121852625Y-117494139D01*
X121852621Y-117494137D01*
X121718709Y-117438670D01*
X121718708Y-117438669D01*
X121575000Y-117419750D01*
X121431291Y-117438669D01*
X121431290Y-117438670D01*
X121297378Y-117494137D01*
X121297374Y-117494139D01*
X121182381Y-117582377D01*
X121182377Y-117582381D01*
X121094139Y-117697374D01*
X121094137Y-117697378D01*
X121038670Y-117831290D01*
X121038669Y-117831291D01*
X121019750Y-117974999D01*
X112565500Y-117974999D01*
X112565500Y-104780012D01*
X113930000Y-104780012D01*
X113930000Y-104914999D01*
X113930001Y-104915000D01*
X115007042Y-104915000D01*
X114959644Y-104997096D01*
X114930000Y-105107731D01*
X114930000Y-105222269D01*
X114959644Y-105332904D01*
X115007042Y-105415000D01*
X113930002Y-105415000D01*
X113930001Y-105415001D01*
X113930001Y-105549986D01*
X113940492Y-105652687D01*
X113940495Y-105652699D01*
X113995643Y-105819124D01*
X114087680Y-105968340D01*
X114211660Y-106092320D01*
X114216181Y-106095895D01*
X114215075Y-106097292D01*
X114249569Y-106137911D01*
X114254197Y-106198921D01*
X114240316Y-106230535D01*
X114230280Y-106245555D01*
X114230279Y-106245557D01*
X114163529Y-106406707D01*
X114163529Y-106406709D01*
X114129500Y-106577783D01*
X114129500Y-106752216D01*
X114163529Y-106923290D01*
X114163529Y-106923292D01*
X114230278Y-107084439D01*
X114327186Y-107229473D01*
X114442709Y-107344997D01*
X114470486Y-107399513D01*
X114460914Y-107459945D01*
X114442709Y-107485003D01*
X114327186Y-107600526D01*
X114230278Y-107745560D01*
X114163529Y-107906707D01*
X114163529Y-107906709D01*
X114129500Y-108077783D01*
X114129500Y-108252216D01*
X114163529Y-108423290D01*
X114163529Y-108423292D01*
X114230278Y-108584439D01*
X114327186Y-108729473D01*
X114442709Y-108844997D01*
X114470486Y-108899513D01*
X114460914Y-108959945D01*
X114442709Y-108985003D01*
X114327186Y-109100526D01*
X114230278Y-109245560D01*
X114163529Y-109406707D01*
X114163529Y-109406709D01*
X114129500Y-109577783D01*
X114129500Y-109752216D01*
X114163529Y-109923290D01*
X114163529Y-109923292D01*
X114230278Y-110084439D01*
X114230279Y-110084441D01*
X114230280Y-110084442D01*
X114327187Y-110229474D01*
X114450526Y-110352813D01*
X114595558Y-110449720D01*
X114756709Y-110516471D01*
X114927786Y-110550500D01*
X114927787Y-110550500D01*
X115802213Y-110550500D01*
X115802214Y-110550500D01*
X115973291Y-110516471D01*
X116134442Y-110449720D01*
X116279474Y-110352813D01*
X116402813Y-110229474D01*
X116499720Y-110084442D01*
X116566471Y-109923291D01*
X116600500Y-109752214D01*
X116600500Y-109577786D01*
X116566471Y-109406709D01*
X116499720Y-109245558D01*
X116402813Y-109100526D01*
X116287288Y-108985001D01*
X116259513Y-108930487D01*
X116269084Y-108870055D01*
X116287287Y-108844999D01*
X116402813Y-108729474D01*
X116499720Y-108584442D01*
X116566471Y-108423291D01*
X116600500Y-108252214D01*
X116600500Y-108077786D01*
X116566471Y-107906709D01*
X116499720Y-107745558D01*
X116402813Y-107600526D01*
X116287288Y-107485001D01*
X116259513Y-107430487D01*
X116269084Y-107370055D01*
X116287287Y-107344999D01*
X116402813Y-107229474D01*
X116499720Y-107084442D01*
X116566471Y-106923291D01*
X116600500Y-106752214D01*
X116600500Y-106577786D01*
X116566471Y-106406709D01*
X116499720Y-106245558D01*
X116489685Y-106230539D01*
X116473076Y-106171655D01*
X116494252Y-106114251D01*
X116514245Y-106096434D01*
X116513819Y-106095895D01*
X116518339Y-106092320D01*
X116642319Y-105968340D01*
X116734356Y-105819124D01*
X116789506Y-105652693D01*
X116800000Y-105549987D01*
X116800000Y-105415001D01*
X116799999Y-105415000D01*
X115722958Y-105415000D01*
X115770356Y-105332904D01*
X115800000Y-105222269D01*
X115800000Y-105107731D01*
X115770356Y-104997096D01*
X115722958Y-104915000D01*
X116799998Y-104915000D01*
X116799999Y-104914999D01*
X116799999Y-104780013D01*
X116789507Y-104677312D01*
X116789504Y-104677300D01*
X116734356Y-104510875D01*
X116642319Y-104361659D01*
X116518340Y-104237680D01*
X116369124Y-104145643D01*
X116202693Y-104090493D01*
X116099987Y-104080000D01*
X115615001Y-104080000D01*
X115615000Y-104080001D01*
X115615000Y-104807042D01*
X115532904Y-104759644D01*
X115422269Y-104730000D01*
X115307731Y-104730000D01*
X115197096Y-104759644D01*
X115115000Y-104807042D01*
X115115000Y-104080001D01*
X115114999Y-104080000D01*
X114630013Y-104080000D01*
X114527312Y-104090492D01*
X114527300Y-104090495D01*
X114360875Y-104145643D01*
X114211659Y-104237680D01*
X114087680Y-104361659D01*
X113995643Y-104510875D01*
X113940493Y-104677306D01*
X113930000Y-104780012D01*
X112565500Y-104780012D01*
X112565500Y-100465000D01*
X114006071Y-100465000D01*
X115057042Y-100465000D01*
X115009644Y-100547096D01*
X114980000Y-100657731D01*
X114980000Y-100772269D01*
X115009644Y-100882904D01*
X115057042Y-100965000D01*
X114006071Y-100965000D01*
X114006714Y-100969065D01*
X114059491Y-101131495D01*
X114137023Y-101283661D01*
X114237410Y-101421831D01*
X114358168Y-101542589D01*
X114496338Y-101642976D01*
X114648504Y-101720508D01*
X114810933Y-101773285D01*
X114979606Y-101800000D01*
X115164999Y-101800000D01*
X115165000Y-101799999D01*
X115165000Y-101072957D01*
X115247096Y-101120356D01*
X115357731Y-101150000D01*
X115472269Y-101150000D01*
X115582904Y-101120356D01*
X115665000Y-101072957D01*
X115665000Y-101799999D01*
X115665001Y-101800000D01*
X115850394Y-101800000D01*
X116019066Y-101773285D01*
X116181495Y-101720508D01*
X116333661Y-101642976D01*
X116471831Y-101542589D01*
X116592589Y-101421831D01*
X116692977Y-101283660D01*
X116692978Y-101283658D01*
X116743951Y-101183617D01*
X116787215Y-101140352D01*
X116847647Y-101130780D01*
X116902164Y-101158557D01*
X117236057Y-101492449D01*
X117236062Y-101492455D01*
X117236063Y-101492455D01*
X117239518Y-101495910D01*
X117239520Y-101495913D01*
X117314087Y-101570480D01*
X117396752Y-101618207D01*
X117396753Y-101618208D01*
X117405408Y-101623205D01*
X117405409Y-101623205D01*
X117405412Y-101623207D01*
X117507273Y-101650500D01*
X117507275Y-101650500D01*
X117612726Y-101650500D01*
X117612727Y-101650500D01*
X117617033Y-101649345D01*
X117618800Y-101648873D01*
X117644421Y-101645500D01*
X118025500Y-101645500D01*
X118083691Y-101664407D01*
X118119655Y-101713907D01*
X118124500Y-101744500D01*
X118124500Y-111912273D01*
X118124500Y-112017727D01*
X118138863Y-112071330D01*
X118151794Y-112119592D01*
X118204516Y-112210908D01*
X118204518Y-112210910D01*
X118204520Y-112210913D01*
X121599087Y-115605480D01*
X121599089Y-115605481D01*
X121599091Y-115605483D01*
X121690408Y-115658205D01*
X121690406Y-115658205D01*
X121690410Y-115658206D01*
X121690412Y-115658207D01*
X121792273Y-115685500D01*
X121897727Y-115685500D01*
X129748099Y-115685500D01*
X129806290Y-115704407D01*
X129818103Y-115714496D01*
X130365504Y-116261896D01*
X130393281Y-116316413D01*
X130394500Y-116331900D01*
X130394500Y-118249040D01*
X130375593Y-118307231D01*
X130374042Y-118309307D01*
X130314142Y-118387370D01*
X130314137Y-118387378D01*
X130258670Y-118521290D01*
X130258669Y-118521291D01*
X130239750Y-118664999D01*
X130239750Y-118665000D01*
X130258669Y-118808708D01*
X130258670Y-118808709D01*
X130314137Y-118942621D01*
X130314139Y-118942625D01*
X130402379Y-119057621D01*
X130517375Y-119145861D01*
X130651291Y-119201330D01*
X130795000Y-119220250D01*
X130938709Y-119201330D01*
X131072625Y-119145861D01*
X131187621Y-119057621D01*
X131275861Y-118942625D01*
X131331330Y-118808709D01*
X131331330Y-118808707D01*
X131333690Y-118803010D01*
X131373426Y-118756484D01*
X131432921Y-118742200D01*
X131489449Y-118765614D01*
X131521418Y-118817783D01*
X131523307Y-118827973D01*
X131528669Y-118868708D01*
X131528670Y-118868709D01*
X131559286Y-118942625D01*
X131584139Y-119002625D01*
X131672379Y-119117621D01*
X131787375Y-119205861D01*
X131921291Y-119261330D01*
X132065000Y-119280250D01*
X132208709Y-119261330D01*
X132342625Y-119205861D01*
X132457621Y-119117621D01*
X132545861Y-119002625D01*
X132601330Y-118868709D01*
X132620250Y-118725000D01*
X132617128Y-118701290D01*
X132601330Y-118581291D01*
X132545861Y-118447375D01*
X132511294Y-118402326D01*
X132485958Y-118369307D01*
X132465534Y-118311631D01*
X132465500Y-118309040D01*
X132465500Y-115700000D01*
X156495255Y-115700000D01*
X156514217Y-116001399D01*
X156570802Y-116298027D01*
X156570805Y-116298037D01*
X156664127Y-116585252D01*
X156792706Y-116858495D01*
X156792707Y-116858496D01*
X156954519Y-117113473D01*
X157035310Y-117211133D01*
X157963707Y-116282735D01*
X158060967Y-116416602D01*
X158183398Y-116539033D01*
X158317262Y-116636290D01*
X157386566Y-117566987D01*
X157611483Y-117730400D01*
X157876107Y-117875877D01*
X157876110Y-117875879D01*
X158156892Y-117987047D01*
X158449402Y-118062150D01*
X158449398Y-118062150D01*
X158749005Y-118100000D01*
X159050995Y-118100000D01*
X159350599Y-118062150D01*
X159643107Y-117987047D01*
X159923887Y-117875879D01*
X160188518Y-117730397D01*
X160188531Y-117730389D01*
X160413432Y-117566987D01*
X159482736Y-116636291D01*
X159616602Y-116539033D01*
X159739033Y-116416602D01*
X159836291Y-116282736D01*
X160764688Y-117211133D01*
X160845479Y-117113474D01*
X160845480Y-117113473D01*
X161007286Y-116858508D01*
X161007293Y-116858495D01*
X161135872Y-116585252D01*
X161229194Y-116298037D01*
X161229197Y-116298027D01*
X161285782Y-116001399D01*
X161304744Y-115700000D01*
X161285782Y-115398600D01*
X161229197Y-115101972D01*
X161229194Y-115101962D01*
X161135872Y-114814747D01*
X161007293Y-114541504D01*
X161007286Y-114541491D01*
X160845480Y-114286526D01*
X160764688Y-114188865D01*
X159836290Y-115117262D01*
X159739033Y-114983398D01*
X159616602Y-114860967D01*
X159482735Y-114763707D01*
X160413433Y-113833010D01*
X160188522Y-113669603D01*
X160188518Y-113669600D01*
X159923892Y-113524122D01*
X159923889Y-113524120D01*
X159643107Y-113412952D01*
X159350597Y-113337849D01*
X159350601Y-113337849D01*
X159050995Y-113300000D01*
X158749005Y-113300000D01*
X158449400Y-113337849D01*
X158156892Y-113412952D01*
X157876110Y-113524120D01*
X157876107Y-113524122D01*
X157611487Y-113669597D01*
X157611468Y-113669609D01*
X157386565Y-113833010D01*
X158317263Y-114763708D01*
X158183398Y-114860967D01*
X158060967Y-114983398D01*
X157963708Y-115117263D01*
X157035310Y-114188865D01*
X156954522Y-114286523D01*
X156792707Y-114541503D01*
X156792706Y-114541504D01*
X156664127Y-114814747D01*
X156570805Y-115101962D01*
X156570802Y-115101972D01*
X156514217Y-115398600D01*
X156495255Y-115700000D01*
X132465500Y-115700000D01*
X132465500Y-115502274D01*
X132465500Y-115502273D01*
X132438207Y-115400413D01*
X132438207Y-115400412D01*
X132438207Y-115400411D01*
X132385483Y-115309091D01*
X132385481Y-115309089D01*
X132385480Y-115309087D01*
X131350913Y-114274520D01*
X131350910Y-114274518D01*
X131350908Y-114274516D01*
X131259591Y-114221794D01*
X131259593Y-114221794D01*
X131220070Y-114211204D01*
X131157727Y-114194500D01*
X131157725Y-114194500D01*
X124451901Y-114194500D01*
X124393710Y-114175593D01*
X124381897Y-114165504D01*
X123834496Y-113618103D01*
X123806719Y-113563586D01*
X123805500Y-113548099D01*
X123805500Y-110964999D01*
X129549750Y-110964999D01*
X129549750Y-110965000D01*
X129568669Y-111108708D01*
X129568670Y-111108709D01*
X129582615Y-111142377D01*
X129624139Y-111242625D01*
X129712379Y-111357621D01*
X129827375Y-111445861D01*
X129961291Y-111501330D01*
X130058849Y-111514173D01*
X130114073Y-111540514D01*
X130115930Y-111542322D01*
X130354518Y-111780910D01*
X130354520Y-111780913D01*
X130429087Y-111855480D01*
X130429089Y-111855481D01*
X130520409Y-111908205D01*
X130520413Y-111908207D01*
X130622270Y-111935500D01*
X130622272Y-111935501D01*
X130622273Y-111935501D01*
X130733790Y-111935501D01*
X130733806Y-111935500D01*
X140199040Y-111935500D01*
X140257231Y-111954407D01*
X140259307Y-111955958D01*
X140326078Y-112007193D01*
X140337375Y-112015861D01*
X140471291Y-112071330D01*
X140615000Y-112090250D01*
X140758709Y-112071330D01*
X140892625Y-112015861D01*
X141007621Y-111927621D01*
X141095861Y-111812625D01*
X141151330Y-111678709D01*
X141170250Y-111535000D01*
X141151330Y-111391291D01*
X141095861Y-111257375D01*
X141007621Y-111142379D01*
X140892625Y-111054139D01*
X140892621Y-111054137D01*
X140758709Y-110998670D01*
X140758708Y-110998669D01*
X140615000Y-110979750D01*
X140471291Y-110998669D01*
X140471290Y-110998670D01*
X140337378Y-111054137D01*
X140337370Y-111054142D01*
X140259307Y-111114042D01*
X140201631Y-111134466D01*
X140199040Y-111134500D01*
X130881900Y-111134500D01*
X130823709Y-111115593D01*
X130811896Y-111105504D01*
X130682322Y-110975930D01*
X130654545Y-110921413D01*
X130654173Y-110918848D01*
X130641330Y-110821291D01*
X130585861Y-110687375D01*
X130497621Y-110572379D01*
X130382625Y-110484139D01*
X130382621Y-110484137D01*
X130248709Y-110428670D01*
X130248708Y-110428669D01*
X130105000Y-110409750D01*
X129961291Y-110428669D01*
X129961290Y-110428670D01*
X129827378Y-110484137D01*
X129827374Y-110484139D01*
X129712381Y-110572377D01*
X129712377Y-110572381D01*
X129624139Y-110687374D01*
X129624137Y-110687378D01*
X129568670Y-110821290D01*
X129568669Y-110821291D01*
X129549750Y-110964999D01*
X123805500Y-110964999D01*
X123805500Y-106214999D01*
X126129750Y-106214999D01*
X126129750Y-106215000D01*
X126148669Y-106358708D01*
X126148670Y-106358709D01*
X126204139Y-106492625D01*
X126292379Y-106607621D01*
X126407375Y-106695861D01*
X126541291Y-106751330D01*
X126685000Y-106770250D01*
X126828709Y-106751330D01*
X126962625Y-106695861D01*
X127000934Y-106666464D01*
X127040693Y-106635958D01*
X127098369Y-106615534D01*
X127100960Y-106615500D01*
X129537725Y-106615500D01*
X129537727Y-106615500D01*
X129639588Y-106588207D01*
X129639590Y-106588205D01*
X129639592Y-106588205D01*
X129730908Y-106535483D01*
X129730908Y-106535482D01*
X129730913Y-106535480D01*
X130335480Y-105930913D01*
X130388207Y-105839588D01*
X130415500Y-105737727D01*
X130415500Y-105632273D01*
X130415500Y-102920958D01*
X130434407Y-102862767D01*
X130435959Y-102860690D01*
X130495857Y-102782630D01*
X130495856Y-102782630D01*
X130495861Y-102782625D01*
X130551330Y-102648709D01*
X130570250Y-102505000D01*
X130551330Y-102361291D01*
X130495861Y-102227375D01*
X130407621Y-102112379D01*
X130292625Y-102024139D01*
X130292621Y-102024137D01*
X130158709Y-101968670D01*
X130158708Y-101968669D01*
X130015000Y-101949750D01*
X129871291Y-101968669D01*
X129871290Y-101968670D01*
X129737378Y-102024137D01*
X129737374Y-102024139D01*
X129622381Y-102112377D01*
X129622377Y-102112381D01*
X129534139Y-102227374D01*
X129534137Y-102227378D01*
X129478670Y-102361290D01*
X129478669Y-102361291D01*
X129459750Y-102504999D01*
X129459750Y-102505000D01*
X129478669Y-102648708D01*
X129478670Y-102648709D01*
X129534137Y-102782621D01*
X129534142Y-102782630D01*
X129594041Y-102860690D01*
X129614466Y-102918365D01*
X129614500Y-102920958D01*
X129614500Y-105478099D01*
X129595593Y-105536290D01*
X129585504Y-105548103D01*
X129348103Y-105785504D01*
X129293586Y-105813281D01*
X129278099Y-105814500D01*
X127100960Y-105814500D01*
X127042769Y-105795593D01*
X127040693Y-105794042D01*
X126962629Y-105734142D01*
X126962628Y-105734141D01*
X126962625Y-105734139D01*
X126962622Y-105734138D01*
X126962621Y-105734137D01*
X126828709Y-105678670D01*
X126828708Y-105678669D01*
X126685000Y-105659750D01*
X126541291Y-105678669D01*
X126541290Y-105678670D01*
X126407378Y-105734137D01*
X126407374Y-105734139D01*
X126292381Y-105822377D01*
X126292377Y-105822381D01*
X126204139Y-105937374D01*
X126204137Y-105937378D01*
X126148670Y-106071290D01*
X126148669Y-106071291D01*
X126129750Y-106214999D01*
X123805500Y-106214999D01*
X123805500Y-101000958D01*
X123824407Y-100942767D01*
X123825959Y-100940690D01*
X123885857Y-100862630D01*
X123885856Y-100862630D01*
X123885861Y-100862625D01*
X123941330Y-100728709D01*
X123960250Y-100585000D01*
X123960132Y-100584107D01*
X123941330Y-100441291D01*
X123885861Y-100307375D01*
X123797621Y-100192379D01*
X123682625Y-100104139D01*
X123682621Y-100104137D01*
X123548709Y-100048670D01*
X123548708Y-100048669D01*
X123405000Y-100029750D01*
X123261291Y-100048669D01*
X123261290Y-100048670D01*
X123127378Y-100104137D01*
X123127374Y-100104139D01*
X123012381Y-100192377D01*
X123012377Y-100192381D01*
X122924139Y-100307374D01*
X122924137Y-100307378D01*
X122868670Y-100441290D01*
X122868669Y-100441291D01*
X122849750Y-100584999D01*
X122849750Y-100585000D01*
X122868669Y-100728708D01*
X122868670Y-100728709D01*
X122924137Y-100862621D01*
X122924142Y-100862630D01*
X122984041Y-100940690D01*
X123004466Y-100998365D01*
X123004500Y-101000958D01*
X123004500Y-113702273D01*
X123004500Y-113807727D01*
X123028570Y-113897559D01*
X123031794Y-113909592D01*
X123084516Y-114000908D01*
X123084517Y-114000909D01*
X123084518Y-114000910D01*
X123084520Y-114000913D01*
X123625098Y-114541491D01*
X123799103Y-114715496D01*
X123826880Y-114770013D01*
X123817309Y-114830445D01*
X123774044Y-114873710D01*
X123729099Y-114884500D01*
X122051901Y-114884500D01*
X121993710Y-114865593D01*
X121981897Y-114855504D01*
X118954496Y-111828103D01*
X118926719Y-111773586D01*
X118925500Y-111758099D01*
X118925500Y-101660958D01*
X118944407Y-101602767D01*
X118945959Y-101600690D01*
X119005857Y-101522630D01*
X119005856Y-101522630D01*
X119005861Y-101522625D01*
X119061330Y-101388709D01*
X119080250Y-101245000D01*
X119061330Y-101101291D01*
X119005861Y-100967375D01*
X118917621Y-100852379D01*
X118802625Y-100764139D01*
X118802621Y-100764137D01*
X118668709Y-100708670D01*
X118668708Y-100708669D01*
X118525000Y-100689750D01*
X118381291Y-100708669D01*
X118381290Y-100708670D01*
X118247378Y-100764137D01*
X118247370Y-100764142D01*
X118169307Y-100824042D01*
X118111631Y-100844466D01*
X118109040Y-100844500D01*
X117761899Y-100844500D01*
X117703708Y-100825593D01*
X117691895Y-100815503D01*
X117489496Y-100613103D01*
X117461719Y-100558587D01*
X117460500Y-100543100D01*
X117460500Y-89789916D01*
X117479407Y-89731725D01*
X117528907Y-89695761D01*
X117590093Y-89695761D01*
X117639593Y-89731725D01*
X117645483Y-89742244D01*
X117645896Y-89742007D01*
X117649142Y-89747630D01*
X117709041Y-89825690D01*
X117729466Y-89883365D01*
X117729500Y-89885958D01*
X117729500Y-97327273D01*
X117729500Y-97432727D01*
X117735926Y-97456709D01*
X117756794Y-97534592D01*
X117809516Y-97625908D01*
X117809518Y-97625910D01*
X117809520Y-97625913D01*
X118245985Y-98062377D01*
X118627676Y-98444068D01*
X118655453Y-98498585D01*
X118655825Y-98501150D01*
X118666936Y-98585546D01*
X118655786Y-98645707D01*
X118611404Y-98687824D01*
X118550742Y-98695810D01*
X118530898Y-98689932D01*
X118503709Y-98678670D01*
X118503708Y-98678669D01*
X118360000Y-98659750D01*
X118216291Y-98678669D01*
X118216290Y-98678670D01*
X118082378Y-98734137D01*
X118082374Y-98734139D01*
X117967381Y-98822377D01*
X117967377Y-98822381D01*
X117879139Y-98937374D01*
X117879137Y-98937378D01*
X117823670Y-99071290D01*
X117823669Y-99071291D01*
X117804750Y-99214999D01*
X117804750Y-99215000D01*
X117823669Y-99358708D01*
X117823670Y-99358709D01*
X117871130Y-99473291D01*
X117879139Y-99492625D01*
X117967379Y-99607621D01*
X118082375Y-99695861D01*
X118216291Y-99751330D01*
X118360000Y-99770250D01*
X118503709Y-99751330D01*
X118637625Y-99695861D01*
X118675934Y-99666464D01*
X118715693Y-99635958D01*
X118773369Y-99615534D01*
X118775960Y-99615500D01*
X123787725Y-99615500D01*
X123787727Y-99615500D01*
X123889588Y-99588207D01*
X123889590Y-99588205D01*
X123889592Y-99588205D01*
X123980908Y-99535483D01*
X123980908Y-99535482D01*
X123980913Y-99535480D01*
X125371897Y-98144496D01*
X125426414Y-98116719D01*
X125441901Y-98115500D01*
X128149040Y-98115500D01*
X128207231Y-98134407D01*
X128209307Y-98135958D01*
X128263879Y-98177832D01*
X128287375Y-98195861D01*
X128421291Y-98251330D01*
X128565000Y-98270250D01*
X128708709Y-98251330D01*
X128842625Y-98195861D01*
X128957621Y-98107621D01*
X129045861Y-97992625D01*
X129101330Y-97858709D01*
X129120250Y-97715000D01*
X129108767Y-97627783D01*
X129101330Y-97571291D01*
X129045861Y-97437375D01*
X129013166Y-97394767D01*
X128992743Y-97337092D01*
X129010120Y-97278426D01*
X129058662Y-97241179D01*
X129091709Y-97235500D01*
X139128099Y-97235500D01*
X139186290Y-97254407D01*
X139198103Y-97264496D01*
X140087676Y-98154069D01*
X140115453Y-98208586D01*
X140115825Y-98211150D01*
X140128670Y-98308709D01*
X140167648Y-98402813D01*
X140184139Y-98442625D01*
X140272379Y-98557621D01*
X140387375Y-98645861D01*
X140521291Y-98701330D01*
X140665000Y-98720250D01*
X140808709Y-98701330D01*
X140942625Y-98645861D01*
X141057621Y-98557621D01*
X141145861Y-98442625D01*
X141201330Y-98308709D01*
X141220250Y-98165000D01*
X141216426Y-98135958D01*
X141201330Y-98021291D01*
X141145861Y-97887375D01*
X141057621Y-97772379D01*
X140942625Y-97684139D01*
X140942621Y-97684137D01*
X140808709Y-97628670D01*
X140711150Y-97615825D01*
X140655925Y-97589483D01*
X140654069Y-97587676D01*
X140179014Y-97112621D01*
X139580913Y-96514520D01*
X139580910Y-96514518D01*
X139580909Y-96514517D01*
X139580908Y-96514516D01*
X139489591Y-96461794D01*
X139489593Y-96461794D01*
X139450070Y-96451204D01*
X139387727Y-96434500D01*
X139387725Y-96434500D01*
X127050960Y-96434500D01*
X126992769Y-96415593D01*
X126990693Y-96414042D01*
X126912629Y-96354142D01*
X126912628Y-96354141D01*
X126912625Y-96354139D01*
X126912622Y-96354138D01*
X126912621Y-96354137D01*
X126778709Y-96298670D01*
X126778708Y-96298669D01*
X126635000Y-96279750D01*
X126491291Y-96298669D01*
X126491290Y-96298670D01*
X126357378Y-96354137D01*
X126357374Y-96354139D01*
X126242381Y-96442377D01*
X126242377Y-96442381D01*
X126154139Y-96557374D01*
X126154137Y-96557378D01*
X126098670Y-96691290D01*
X126098669Y-96691291D01*
X126079750Y-96834999D01*
X126079750Y-96835000D01*
X126098669Y-96978708D01*
X126098670Y-96978709D01*
X126154137Y-97112621D01*
X126154139Y-97112625D01*
X126186833Y-97155232D01*
X126207257Y-97212908D01*
X126189880Y-97271574D01*
X126141338Y-97308821D01*
X126108291Y-97314500D01*
X125182273Y-97314500D01*
X125134603Y-97327273D01*
X125080411Y-97341793D01*
X124996482Y-97390250D01*
X124989089Y-97394518D01*
X123598103Y-98785504D01*
X123543586Y-98813281D01*
X123528099Y-98814500D01*
X119800111Y-98814500D01*
X119741920Y-98795593D01*
X119705956Y-98746093D01*
X119705956Y-98684907D01*
X119708641Y-98677627D01*
X119741330Y-98598709D01*
X119760250Y-98455000D01*
X119741330Y-98311291D01*
X119685861Y-98177375D01*
X119597621Y-98062379D01*
X119482625Y-97974139D01*
X119482621Y-97974137D01*
X119348709Y-97918670D01*
X119251149Y-97905825D01*
X119195924Y-97879483D01*
X119194068Y-97877676D01*
X118559496Y-97243103D01*
X118531719Y-97188586D01*
X118530500Y-97173099D01*
X118530500Y-91274999D01*
X122949750Y-91274999D01*
X122949750Y-91275000D01*
X122968669Y-91418708D01*
X122968670Y-91418709D01*
X123024137Y-91552621D01*
X123024142Y-91552630D01*
X123084041Y-91630690D01*
X123104466Y-91688365D01*
X123104500Y-91690958D01*
X123104500Y-95439040D01*
X123085593Y-95497231D01*
X123084042Y-95499307D01*
X123024142Y-95577370D01*
X123024137Y-95577378D01*
X122968670Y-95711290D01*
X122968669Y-95711291D01*
X122949750Y-95854999D01*
X122949750Y-95855000D01*
X122968669Y-95998708D01*
X122968670Y-95998709D01*
X123022134Y-96127786D01*
X123024139Y-96132625D01*
X123112379Y-96247621D01*
X123227375Y-96335861D01*
X123361291Y-96391330D01*
X123505000Y-96410250D01*
X123648709Y-96391330D01*
X123782625Y-96335861D01*
X123897621Y-96247621D01*
X123985861Y-96132625D01*
X124041330Y-95998709D01*
X124060250Y-95855000D01*
X124052424Y-95795560D01*
X124041330Y-95711291D01*
X123985861Y-95577375D01*
X123977193Y-95566078D01*
X123925958Y-95499307D01*
X123905534Y-95441631D01*
X123905500Y-95439040D01*
X123905500Y-91690958D01*
X123924407Y-91632767D01*
X123925959Y-91630690D01*
X123985857Y-91552630D01*
X123985856Y-91552630D01*
X123985861Y-91552625D01*
X124041330Y-91418709D01*
X124060250Y-91275000D01*
X124041330Y-91131291D01*
X123985861Y-90997375D01*
X123897621Y-90882379D01*
X123874971Y-90864999D01*
X133899750Y-90864999D01*
X133899750Y-90865000D01*
X133918669Y-91008708D01*
X133918670Y-91008709D01*
X133968924Y-91130036D01*
X133974139Y-91142625D01*
X134062379Y-91257621D01*
X134177375Y-91345861D01*
X134311291Y-91401330D01*
X134455000Y-91420250D01*
X134598709Y-91401330D01*
X134732625Y-91345861D01*
X134770934Y-91316464D01*
X134810693Y-91285958D01*
X134868369Y-91265534D01*
X134870960Y-91265500D01*
X145386008Y-91265500D01*
X145444199Y-91284407D01*
X145446275Y-91285958D01*
X145522794Y-91344672D01*
X145537375Y-91355861D01*
X145671291Y-91411330D01*
X145815000Y-91430250D01*
X145958709Y-91411330D01*
X146092625Y-91355861D01*
X146207621Y-91267621D01*
X146295861Y-91152625D01*
X146351330Y-91018709D01*
X146370250Y-90875000D01*
X146368933Y-90865000D01*
X146351330Y-90731291D01*
X146295861Y-90597375D01*
X146207621Y-90482379D01*
X146092625Y-90394139D01*
X146092621Y-90394137D01*
X145958709Y-90338670D01*
X145958708Y-90338669D01*
X145815000Y-90319750D01*
X145671291Y-90338669D01*
X145671290Y-90338670D01*
X145537378Y-90394137D01*
X145537374Y-90394139D01*
X145472340Y-90444042D01*
X145414664Y-90464466D01*
X145412073Y-90464500D01*
X134870960Y-90464500D01*
X134812769Y-90445593D01*
X134810693Y-90444042D01*
X134732629Y-90384142D01*
X134732628Y-90384141D01*
X134732625Y-90384139D01*
X134732622Y-90384138D01*
X134732621Y-90384137D01*
X134598709Y-90328670D01*
X134598708Y-90328669D01*
X134455000Y-90309750D01*
X134311291Y-90328669D01*
X134311290Y-90328670D01*
X134177378Y-90384137D01*
X134177374Y-90384139D01*
X134062381Y-90472377D01*
X134062377Y-90472381D01*
X133974139Y-90587374D01*
X133974137Y-90587378D01*
X133918670Y-90721290D01*
X133918669Y-90721291D01*
X133899750Y-90864999D01*
X123874971Y-90864999D01*
X123782625Y-90794139D01*
X123782621Y-90794137D01*
X123648709Y-90738670D01*
X123648708Y-90738669D01*
X123505000Y-90719750D01*
X123361291Y-90738669D01*
X123361290Y-90738670D01*
X123227378Y-90794137D01*
X123227374Y-90794139D01*
X123112381Y-90882377D01*
X123112377Y-90882381D01*
X123024139Y-90997374D01*
X123024137Y-90997378D01*
X122968670Y-91131290D01*
X122968669Y-91131291D01*
X122949750Y-91274999D01*
X118530500Y-91274999D01*
X118530500Y-89885958D01*
X118549407Y-89827767D01*
X118550959Y-89825690D01*
X118610857Y-89747630D01*
X118610856Y-89747630D01*
X118610861Y-89747625D01*
X118666330Y-89613709D01*
X118685250Y-89470000D01*
X118666330Y-89326291D01*
X118610861Y-89192375D01*
X118522621Y-89077379D01*
X118407625Y-88989139D01*
X118407621Y-88989137D01*
X118273709Y-88933670D01*
X118273708Y-88933669D01*
X118130000Y-88914750D01*
X117986291Y-88933669D01*
X117986290Y-88933670D01*
X117852378Y-88989137D01*
X117852374Y-88989139D01*
X117737381Y-89077377D01*
X117737377Y-89077381D01*
X117649139Y-89192374D01*
X117645896Y-89197993D01*
X117643558Y-89196643D01*
X117611217Y-89234501D01*
X117551720Y-89248777D01*
X117495195Y-89225355D01*
X117463233Y-89173182D01*
X117460500Y-89150083D01*
X117460500Y-88185958D01*
X117479407Y-88127767D01*
X117480959Y-88125690D01*
X117540857Y-88047630D01*
X117540856Y-88047630D01*
X117540861Y-88047625D01*
X117596330Y-87913709D01*
X117615250Y-87770000D01*
X117613697Y-87758207D01*
X117596330Y-87626291D01*
X117540861Y-87492375D01*
X117452621Y-87377379D01*
X117337625Y-87289139D01*
X117337621Y-87289137D01*
X117203709Y-87233670D01*
X117203708Y-87233669D01*
X117060000Y-87214750D01*
X116916291Y-87233669D01*
X116916290Y-87233670D01*
X116782378Y-87289137D01*
X116782374Y-87289139D01*
X116667381Y-87377377D01*
X116667377Y-87377381D01*
X116579139Y-87492374D01*
X116579137Y-87492378D01*
X116523670Y-87626290D01*
X116523669Y-87626291D01*
X116504750Y-87769999D01*
X116504750Y-87770000D01*
X116523669Y-87913708D01*
X116523670Y-87913709D01*
X116579137Y-88047621D01*
X116579142Y-88047630D01*
X116639041Y-88125690D01*
X116659466Y-88183365D01*
X116659500Y-88185958D01*
X116659500Y-89414649D01*
X116640593Y-89472840D01*
X116591093Y-89508804D01*
X116529907Y-89508804D01*
X116499210Y-89489993D01*
X116498318Y-89491170D01*
X116395780Y-89413413D01*
X116372342Y-89395639D01*
X116372341Y-89395638D01*
X116372339Y-89395637D01*
X116231565Y-89340123D01*
X116143106Y-89329500D01*
X116143102Y-89329500D01*
X114686898Y-89329500D01*
X114686893Y-89329500D01*
X114598434Y-89340123D01*
X114457660Y-89395637D01*
X114457656Y-89395640D01*
X114337081Y-89487075D01*
X114337075Y-89487081D01*
X114245640Y-89607656D01*
X114245637Y-89607660D01*
X114190123Y-89748434D01*
X114179500Y-89836893D01*
X114179500Y-90593106D01*
X114190123Y-90681565D01*
X114245637Y-90822339D01*
X114245638Y-90822341D01*
X114245639Y-90822342D01*
X114337078Y-90942922D01*
X114387491Y-90981151D01*
X114422432Y-91031376D01*
X114421179Y-91092549D01*
X114397676Y-91130036D01*
X114377186Y-91150525D01*
X114280278Y-91295560D01*
X114213529Y-91456707D01*
X114213529Y-91456709D01*
X114179500Y-91627783D01*
X114179500Y-91802216D01*
X114213529Y-91973290D01*
X114213529Y-91973292D01*
X114280278Y-92134439D01*
X114377186Y-92279473D01*
X114492709Y-92394997D01*
X114520486Y-92449513D01*
X114510914Y-92509945D01*
X114492709Y-92535003D01*
X114377186Y-92650526D01*
X114280278Y-92795560D01*
X114213529Y-92956707D01*
X114213529Y-92956709D01*
X114179500Y-93127783D01*
X114179500Y-93302216D01*
X114213529Y-93473290D01*
X114213529Y-93473292D01*
X114280278Y-93634439D01*
X114377186Y-93779473D01*
X114492709Y-93894997D01*
X114520486Y-93949513D01*
X114510914Y-94009945D01*
X114492709Y-94035003D01*
X114377186Y-94150526D01*
X114280278Y-94295560D01*
X114213529Y-94456707D01*
X114213529Y-94456709D01*
X114179500Y-94627783D01*
X114179500Y-94802216D01*
X114213529Y-94973290D01*
X114213529Y-94973292D01*
X114280278Y-95134439D01*
X114377186Y-95279473D01*
X114492709Y-95394997D01*
X114520486Y-95449513D01*
X114510914Y-95509945D01*
X114492709Y-95535003D01*
X114377186Y-95650526D01*
X114280278Y-95795560D01*
X114213529Y-95956707D01*
X114213529Y-95956709D01*
X114179500Y-96127783D01*
X114179500Y-96302216D01*
X114213529Y-96473290D01*
X114213529Y-96473292D01*
X114280278Y-96634439D01*
X114377186Y-96779473D01*
X114492709Y-96894997D01*
X114520486Y-96949513D01*
X114510914Y-97009945D01*
X114492709Y-97035003D01*
X114377186Y-97150526D01*
X114280278Y-97295560D01*
X114213529Y-97456707D01*
X114213529Y-97456709D01*
X114179500Y-97627783D01*
X114179500Y-97802216D01*
X114213529Y-97973290D01*
X114213529Y-97973292D01*
X114280278Y-98134439D01*
X114377186Y-98279473D01*
X114492709Y-98394997D01*
X114520486Y-98449513D01*
X114510914Y-98509945D01*
X114492709Y-98535003D01*
X114377186Y-98650526D01*
X114280278Y-98795560D01*
X114213529Y-98956707D01*
X114213529Y-98956709D01*
X114179500Y-99127783D01*
X114179500Y-99302216D01*
X114213529Y-99473290D01*
X114213529Y-99473292D01*
X114280279Y-99634441D01*
X114367663Y-99765220D01*
X114384272Y-99824109D01*
X114363094Y-99881512D01*
X114355352Y-99890225D01*
X114237412Y-100008165D01*
X114137023Y-100146338D01*
X114059491Y-100298504D01*
X114006714Y-100460934D01*
X114006071Y-100465000D01*
X112565500Y-100465000D01*
X112565500Y-86095000D01*
X126599571Y-86095000D01*
X126619244Y-86307310D01*
X126677595Y-86512389D01*
X126772634Y-86703255D01*
X126901128Y-86873407D01*
X126947952Y-86916093D01*
X127058692Y-87017047D01*
X127058699Y-87017053D01*
X127162389Y-87081255D01*
X127239981Y-87129298D01*
X127438802Y-87206321D01*
X127648390Y-87245500D01*
X127729100Y-87245500D01*
X127787291Y-87264407D01*
X127823255Y-87313907D01*
X127823255Y-87375093D01*
X127799106Y-87414500D01*
X127758101Y-87455505D01*
X127703587Y-87483281D01*
X127688100Y-87484500D01*
X127648390Y-87484500D01*
X127438804Y-87523678D01*
X127239980Y-87600702D01*
X127239975Y-87600705D01*
X127058699Y-87712946D01*
X127058692Y-87712952D01*
X126901135Y-87856586D01*
X126901131Y-87856589D01*
X126901128Y-87856593D01*
X126901125Y-87856597D01*
X126772635Y-88026743D01*
X126772630Y-88026752D01*
X126679206Y-88214375D01*
X126677595Y-88217611D01*
X126670970Y-88240895D01*
X126619244Y-88422688D01*
X126599571Y-88635000D01*
X126619244Y-88847310D01*
X126677595Y-89052389D01*
X126772634Y-89243255D01*
X126901128Y-89413407D01*
X126963206Y-89469999D01*
X127058692Y-89557047D01*
X127058699Y-89557053D01*
X127140426Y-89607656D01*
X127239981Y-89669298D01*
X127438802Y-89746321D01*
X127648390Y-89785500D01*
X127861610Y-89785500D01*
X128071198Y-89746321D01*
X128270019Y-89669298D01*
X128451302Y-89557052D01*
X128608872Y-89413407D01*
X128737366Y-89243255D01*
X128830795Y-89055621D01*
X128873655Y-89011962D01*
X128933996Y-89001832D01*
X128988767Y-89029104D01*
X129015040Y-89074127D01*
X129021567Y-89098487D01*
X129121399Y-89312577D01*
X129256886Y-89506073D01*
X129423926Y-89673113D01*
X129617422Y-89808600D01*
X129831509Y-89908430D01*
X130045000Y-89965634D01*
X130045000Y-89068012D01*
X130102007Y-89100925D01*
X130229174Y-89135000D01*
X130360826Y-89135000D01*
X130487993Y-89100925D01*
X130545000Y-89068012D01*
X130545000Y-89965633D01*
X130758490Y-89908430D01*
X130972577Y-89808600D01*
X131166073Y-89673113D01*
X131333113Y-89506073D01*
X131468600Y-89312577D01*
X131568431Y-89098488D01*
X131574958Y-89074130D01*
X131608281Y-89022815D01*
X131665402Y-89000888D01*
X131724503Y-89016723D01*
X131759205Y-89055623D01*
X131780549Y-89098487D01*
X131852630Y-89243248D01*
X131852632Y-89243252D01*
X131852634Y-89243255D01*
X131981128Y-89413407D01*
X132043206Y-89469999D01*
X132138692Y-89557047D01*
X132138699Y-89557053D01*
X132220426Y-89607656D01*
X132319981Y-89669298D01*
X132518802Y-89746321D01*
X132728390Y-89785500D01*
X132941610Y-89785500D01*
X133151198Y-89746321D01*
X133350019Y-89669298D01*
X133531302Y-89557052D01*
X133688872Y-89413407D01*
X133817366Y-89243255D01*
X133912405Y-89052389D01*
X133970756Y-88847310D01*
X133990429Y-88635000D01*
X133970756Y-88422690D01*
X133912405Y-88217611D01*
X133817366Y-88026745D01*
X133755001Y-87944161D01*
X133735021Y-87886330D01*
X133752849Y-87827800D01*
X133801676Y-87790927D01*
X133834004Y-87785500D01*
X144757725Y-87785500D01*
X144757727Y-87785500D01*
X144859588Y-87758207D01*
X144859590Y-87758205D01*
X144859592Y-87758205D01*
X144950908Y-87705483D01*
X144950908Y-87705482D01*
X144950913Y-87705480D01*
X145670910Y-86985481D01*
X145670913Y-86985480D01*
X146145480Y-86510913D01*
X146176105Y-86457867D01*
X146198169Y-86419653D01*
X146198179Y-86419634D01*
X146198206Y-86419588D01*
X146198207Y-86419587D01*
X146225500Y-86317727D01*
X146225500Y-82050958D01*
X146244407Y-81992767D01*
X146245959Y-81990690D01*
X146305857Y-81912630D01*
X146305856Y-81912630D01*
X146305861Y-81912625D01*
X146361330Y-81778709D01*
X146380250Y-81635000D01*
X146361330Y-81491291D01*
X146305861Y-81357375D01*
X146217621Y-81242379D01*
X146102625Y-81154139D01*
X146102621Y-81154137D01*
X145968709Y-81098670D01*
X145968708Y-81098669D01*
X145825000Y-81079750D01*
X145681291Y-81098669D01*
X145681290Y-81098670D01*
X145547378Y-81154137D01*
X145547374Y-81154139D01*
X145432381Y-81242377D01*
X145432377Y-81242381D01*
X145344139Y-81357374D01*
X145344137Y-81357378D01*
X145288670Y-81491290D01*
X145288669Y-81491291D01*
X145269750Y-81634999D01*
X145269750Y-81635000D01*
X145288669Y-81778708D01*
X145288670Y-81778709D01*
X145344137Y-81912621D01*
X145344142Y-81912630D01*
X145404041Y-81990690D01*
X145424466Y-82048365D01*
X145424500Y-82050958D01*
X145424500Y-86058099D01*
X145405593Y-86116290D01*
X145395504Y-86128103D01*
X144568103Y-86955504D01*
X144513586Y-86983281D01*
X144498099Y-86984500D01*
X134084500Y-86984500D01*
X134026309Y-86965593D01*
X133990345Y-86916093D01*
X133985500Y-86885500D01*
X133985499Y-85200139D01*
X133985499Y-85200136D01*
X133982585Y-85175009D01*
X133937206Y-85072235D01*
X133857765Y-84992794D01*
X133754991Y-84947415D01*
X133754990Y-84947414D01*
X133754988Y-84947414D01*
X133729868Y-84944500D01*
X131940139Y-84944500D01*
X131940136Y-84944501D01*
X131915009Y-84947414D01*
X131812235Y-84992794D01*
X131732794Y-85072235D01*
X131687414Y-85175011D01*
X131684500Y-85200130D01*
X131684500Y-85200132D01*
X131684500Y-85200135D01*
X131684500Y-86058099D01*
X131684501Y-86885500D01*
X131665594Y-86943691D01*
X131616094Y-86979655D01*
X131585501Y-86984500D01*
X131263798Y-86984500D01*
X131205607Y-86965593D01*
X131169643Y-86916093D01*
X131169643Y-86854907D01*
X131184794Y-86825839D01*
X131277366Y-86703255D01*
X131372405Y-86512389D01*
X131430756Y-86307310D01*
X131450429Y-86095000D01*
X131430756Y-85882690D01*
X131372405Y-85677611D01*
X131277366Y-85486745D01*
X131148872Y-85316593D01*
X131021125Y-85200135D01*
X130991307Y-85172952D01*
X130991300Y-85172946D01*
X130810024Y-85060705D01*
X130810019Y-85060702D01*
X130611198Y-84983679D01*
X130611197Y-84983678D01*
X130611195Y-84983678D01*
X130401610Y-84944500D01*
X130188390Y-84944500D01*
X129978804Y-84983678D01*
X129779980Y-85060702D01*
X129779975Y-85060705D01*
X129598699Y-85172946D01*
X129598692Y-85172952D01*
X129441135Y-85316586D01*
X129441131Y-85316589D01*
X129441128Y-85316593D01*
X129441125Y-85316597D01*
X129312635Y-85486743D01*
X129312630Y-85486752D01*
X129217596Y-85677608D01*
X129159244Y-85882688D01*
X129159244Y-85882690D01*
X129139571Y-86095000D01*
X129159244Y-86307310D01*
X129217174Y-86510910D01*
X129217596Y-86512391D01*
X129312630Y-86703247D01*
X129312635Y-86703256D01*
X129405206Y-86825839D01*
X129425185Y-86883670D01*
X129407356Y-86942201D01*
X129358529Y-86979073D01*
X129326202Y-86984500D01*
X128723798Y-86984500D01*
X128665607Y-86965593D01*
X128629643Y-86916093D01*
X128629643Y-86854907D01*
X128644794Y-86825839D01*
X128737366Y-86703255D01*
X128832405Y-86512389D01*
X128890756Y-86307310D01*
X128910429Y-86095000D01*
X128890756Y-85882690D01*
X128832405Y-85677611D01*
X128737366Y-85486745D01*
X128608872Y-85316593D01*
X128481125Y-85200135D01*
X128451307Y-85172952D01*
X128451300Y-85172946D01*
X128270024Y-85060705D01*
X128270019Y-85060702D01*
X128071198Y-84983679D01*
X128071197Y-84983678D01*
X128071195Y-84983678D01*
X127861610Y-84944500D01*
X127648390Y-84944500D01*
X127438804Y-84983678D01*
X127239980Y-85060702D01*
X127239975Y-85060705D01*
X127058699Y-85172946D01*
X127058692Y-85172952D01*
X126901135Y-85316586D01*
X126901131Y-85316589D01*
X126901128Y-85316593D01*
X126901125Y-85316597D01*
X126772635Y-85486743D01*
X126772630Y-85486752D01*
X126677596Y-85677608D01*
X126619244Y-85882688D01*
X126619244Y-85882690D01*
X126599571Y-86095000D01*
X112565500Y-86095000D01*
X112565500Y-77900000D01*
X114440255Y-77900000D01*
X114459217Y-78201399D01*
X114515802Y-78498027D01*
X114515805Y-78498037D01*
X114609127Y-78785252D01*
X114737706Y-79058495D01*
X114737707Y-79058496D01*
X114899519Y-79313473D01*
X114980310Y-79411133D01*
X115908707Y-78482735D01*
X116005967Y-78616602D01*
X116128398Y-78739033D01*
X116262262Y-78836290D01*
X115331566Y-79766987D01*
X115556483Y-79930400D01*
X115821107Y-80075877D01*
X115821110Y-80075879D01*
X116101892Y-80187047D01*
X116394402Y-80262150D01*
X116394398Y-80262150D01*
X116694005Y-80300000D01*
X116995995Y-80300000D01*
X117295599Y-80262150D01*
X117588107Y-80187047D01*
X117868887Y-80075879D01*
X118133518Y-79930397D01*
X118133531Y-79930389D01*
X118358432Y-79766987D01*
X117427736Y-78836291D01*
X117561602Y-78739033D01*
X117684033Y-78616602D01*
X117781291Y-78482736D01*
X118709688Y-79411133D01*
X118790479Y-79313474D01*
X118790480Y-79313473D01*
X118952286Y-79058508D01*
X118952293Y-79058495D01*
X119080872Y-78785252D01*
X119174194Y-78498037D01*
X119174197Y-78498027D01*
X119226280Y-78225000D01*
X126700202Y-78225000D01*
X126719354Y-78431682D01*
X126776157Y-78631324D01*
X126868673Y-78817122D01*
X126868682Y-78817137D01*
X126873253Y-78823190D01*
X127407356Y-78289086D01*
X127433622Y-78387114D01*
X127488916Y-78482886D01*
X127567114Y-78561084D01*
X127662886Y-78616378D01*
X127760909Y-78642643D01*
X127229785Y-79173768D01*
X127323631Y-79231876D01*
X127517186Y-79306860D01*
X127721217Y-79345000D01*
X127928782Y-79345000D01*
X128059804Y-79320507D01*
X128120478Y-79328399D01*
X128164926Y-79370448D01*
X128176454Y-79428169D01*
X128169430Y-79494999D01*
X128176454Y-79561830D01*
X128163732Y-79621679D01*
X128118262Y-79662619D01*
X128059805Y-79669492D01*
X127928783Y-79645000D01*
X127721217Y-79645000D01*
X127517186Y-79683139D01*
X127323633Y-79758122D01*
X127323628Y-79758125D01*
X127229784Y-79816230D01*
X127760909Y-80347357D01*
X127662886Y-80373622D01*
X127567114Y-80428916D01*
X127488916Y-80507114D01*
X127433622Y-80602886D01*
X127407356Y-80700911D01*
X126873253Y-80166808D01*
X126868678Y-80172868D01*
X126868677Y-80172869D01*
X126776157Y-80358675D01*
X126719354Y-80558317D01*
X126700202Y-80765000D01*
X126719354Y-80971682D01*
X126776157Y-81171324D01*
X126868673Y-81357122D01*
X126868682Y-81357137D01*
X126873253Y-81363190D01*
X127407356Y-80829086D01*
X127433622Y-80927114D01*
X127488916Y-81022886D01*
X127567114Y-81101084D01*
X127662886Y-81156378D01*
X127760909Y-81182643D01*
X127229785Y-81713768D01*
X127323631Y-81771876D01*
X127517186Y-81846860D01*
X127721217Y-81885000D01*
X127928783Y-81885000D01*
X128132813Y-81846860D01*
X128326364Y-81771878D01*
X128326364Y-81771877D01*
X128420212Y-81713767D01*
X127889088Y-81182643D01*
X127987114Y-81156378D01*
X128082886Y-81101084D01*
X128161084Y-81022886D01*
X128216378Y-80927114D01*
X128242643Y-80829089D01*
X128776745Y-81363190D01*
X128781320Y-81357134D01*
X128781324Y-81357127D01*
X128873842Y-81171324D01*
X128930645Y-80971682D01*
X128949797Y-80765000D01*
X128930644Y-80558315D01*
X128925887Y-80541594D01*
X128928147Y-80480450D01*
X128965915Y-80432312D01*
X129021107Y-80415500D01*
X129168893Y-80415500D01*
X129227084Y-80434407D01*
X129263048Y-80483907D01*
X129264113Y-80541594D01*
X129259355Y-80558315D01*
X129240202Y-80765000D01*
X129259354Y-80971682D01*
X129316157Y-81171324D01*
X129408673Y-81357122D01*
X129408682Y-81357137D01*
X129413253Y-81363191D01*
X129413254Y-81363191D01*
X129947356Y-80829089D01*
X129973622Y-80927114D01*
X130028916Y-81022886D01*
X130107114Y-81101084D01*
X130202886Y-81156378D01*
X130300909Y-81182643D01*
X129769785Y-81713768D01*
X129863631Y-81771876D01*
X130057186Y-81846860D01*
X130261217Y-81885000D01*
X130468783Y-81885000D01*
X130672813Y-81846860D01*
X130866364Y-81771878D01*
X130866364Y-81771877D01*
X130960212Y-81713767D01*
X130429088Y-81182643D01*
X130527114Y-81156378D01*
X130622886Y-81101084D01*
X130701084Y-81022886D01*
X130756378Y-80927114D01*
X130782643Y-80829088D01*
X131316745Y-81363190D01*
X131321320Y-81357134D01*
X131321324Y-81357127D01*
X131413842Y-81171324D01*
X131470645Y-80971682D01*
X131489797Y-80765000D01*
X131486554Y-80730000D01*
X133975000Y-80730000D01*
X133975001Y-80730000D01*
X135874999Y-80730000D01*
X135875000Y-80730000D01*
X135875000Y-78640000D01*
X133975000Y-78640000D01*
X133975000Y-80730000D01*
X131486554Y-80730000D01*
X131470645Y-80558317D01*
X131413842Y-80358675D01*
X131321325Y-80172874D01*
X131321322Y-80172869D01*
X131316745Y-80166808D01*
X130782643Y-80700909D01*
X130756378Y-80602886D01*
X130701084Y-80507114D01*
X130622886Y-80428916D01*
X130527114Y-80373622D01*
X130429090Y-80347357D01*
X130960214Y-79816230D01*
X130866374Y-79758126D01*
X130866368Y-79758123D01*
X130672813Y-79683139D01*
X130468783Y-79645000D01*
X130261217Y-79645000D01*
X130130194Y-79669492D01*
X130069520Y-79661599D01*
X130025073Y-79619550D01*
X130013545Y-79561832D01*
X130020570Y-79495000D01*
X130013545Y-79428167D01*
X130026266Y-79368322D01*
X130071736Y-79327380D01*
X130130195Y-79320507D01*
X130261218Y-79345000D01*
X130468783Y-79345000D01*
X130672813Y-79306860D01*
X130866364Y-79231878D01*
X130866364Y-79231877D01*
X130960213Y-79173767D01*
X130429090Y-78642642D01*
X130527114Y-78616378D01*
X130622886Y-78561084D01*
X130701084Y-78482886D01*
X130756378Y-78387114D01*
X130782643Y-78289088D01*
X131316745Y-78823190D01*
X131321320Y-78817134D01*
X131321324Y-78817127D01*
X131413842Y-78631324D01*
X131470645Y-78431682D01*
X131489797Y-78225000D01*
X131470645Y-78018317D01*
X131413842Y-77818675D01*
X131321325Y-77632874D01*
X131321322Y-77632869D01*
X131316745Y-77626808D01*
X130782643Y-78160909D01*
X130756378Y-78062886D01*
X130701084Y-77967114D01*
X130622886Y-77888916D01*
X130527114Y-77833622D01*
X130429086Y-77807356D01*
X130801443Y-77435000D01*
X155395255Y-77435000D01*
X155414217Y-77736399D01*
X155470802Y-78033027D01*
X155470805Y-78033037D01*
X155564127Y-78320252D01*
X155692706Y-78593495D01*
X155692707Y-78593496D01*
X155854519Y-78848473D01*
X155935310Y-78946133D01*
X156863707Y-78017735D01*
X156960967Y-78151602D01*
X157083398Y-78274033D01*
X157217262Y-78371290D01*
X156286566Y-79301987D01*
X156511483Y-79465400D01*
X156776107Y-79610877D01*
X156776110Y-79610879D01*
X157056892Y-79722047D01*
X157349402Y-79797150D01*
X157349398Y-79797150D01*
X157649005Y-79835000D01*
X157950995Y-79835000D01*
X158250599Y-79797150D01*
X158543107Y-79722047D01*
X158823887Y-79610879D01*
X159088518Y-79465397D01*
X159088531Y-79465389D01*
X159313432Y-79301987D01*
X158382736Y-78371291D01*
X158516602Y-78274033D01*
X158639033Y-78151602D01*
X158736291Y-78017736D01*
X159664688Y-78946133D01*
X159745479Y-78848474D01*
X159745480Y-78848473D01*
X159907286Y-78593508D01*
X159907293Y-78593495D01*
X160035872Y-78320252D01*
X160129194Y-78033037D01*
X160129197Y-78033027D01*
X160185782Y-77736399D01*
X160204744Y-77435000D01*
X160185782Y-77133600D01*
X160129197Y-76836972D01*
X160129194Y-76836962D01*
X160035872Y-76549747D01*
X159907293Y-76276504D01*
X159907286Y-76276491D01*
X159745480Y-76021526D01*
X159664688Y-75923865D01*
X158736290Y-76852262D01*
X158639033Y-76718398D01*
X158516602Y-76595967D01*
X158382735Y-76498707D01*
X159313433Y-75568010D01*
X159088522Y-75404603D01*
X159088518Y-75404600D01*
X158823892Y-75259122D01*
X158823889Y-75259120D01*
X158543107Y-75147952D01*
X158250597Y-75072849D01*
X158250601Y-75072849D01*
X157950995Y-75035000D01*
X157649005Y-75035000D01*
X157349400Y-75072849D01*
X157056892Y-75147952D01*
X156776110Y-75259120D01*
X156776107Y-75259122D01*
X156511487Y-75404597D01*
X156511468Y-75404609D01*
X156286565Y-75568010D01*
X157217263Y-76498708D01*
X157083398Y-76595967D01*
X156960967Y-76718398D01*
X156863708Y-76852263D01*
X155935310Y-75923865D01*
X155854522Y-76021523D01*
X155692707Y-76276503D01*
X155692706Y-76276504D01*
X155564127Y-76549747D01*
X155470805Y-76836962D01*
X155470802Y-76836972D01*
X155414217Y-77133600D01*
X155395255Y-77435000D01*
X130801443Y-77435000D01*
X130960213Y-77276230D01*
X130866374Y-77218126D01*
X130866368Y-77218123D01*
X130672813Y-77143139D01*
X130468783Y-77105000D01*
X130261217Y-77105000D01*
X130057186Y-77143139D01*
X129863633Y-77218122D01*
X129863628Y-77218125D01*
X129769785Y-77276230D01*
X130300911Y-77807356D01*
X130202886Y-77833622D01*
X130107114Y-77888916D01*
X130028916Y-77967114D01*
X129973622Y-78062886D01*
X129947356Y-78160910D01*
X129413253Y-77626808D01*
X129408678Y-77632868D01*
X129408677Y-77632869D01*
X129316157Y-77818675D01*
X129259354Y-78018317D01*
X129240202Y-78225000D01*
X129259355Y-78431684D01*
X129264113Y-78448406D01*
X129261853Y-78509550D01*
X129224085Y-78557688D01*
X129168893Y-78574500D01*
X129021107Y-78574500D01*
X128962916Y-78555593D01*
X128926952Y-78506093D01*
X128925887Y-78448406D01*
X128930644Y-78431684D01*
X128949797Y-78225000D01*
X128930645Y-78018317D01*
X128873842Y-77818675D01*
X128781325Y-77632874D01*
X128781322Y-77632869D01*
X128776745Y-77626808D01*
X128242643Y-78160909D01*
X128216378Y-78062886D01*
X128161084Y-77967114D01*
X128082886Y-77888916D01*
X127987114Y-77833622D01*
X127889086Y-77807356D01*
X128420213Y-77276230D01*
X128326374Y-77218126D01*
X128326368Y-77218123D01*
X128132813Y-77143139D01*
X127928783Y-77105000D01*
X127721217Y-77105000D01*
X127517186Y-77143139D01*
X127323633Y-77218122D01*
X127323628Y-77218125D01*
X127229785Y-77276230D01*
X127760911Y-77807356D01*
X127662886Y-77833622D01*
X127567114Y-77888916D01*
X127488916Y-77967114D01*
X127433622Y-78062886D01*
X127407356Y-78160911D01*
X126873253Y-77626808D01*
X126868678Y-77632868D01*
X126868677Y-77632869D01*
X126776157Y-77818675D01*
X126719354Y-78018317D01*
X126700202Y-78225000D01*
X119226280Y-78225000D01*
X119230782Y-78201399D01*
X119249744Y-77900000D01*
X119230782Y-77598600D01*
X119174197Y-77301972D01*
X119174194Y-77301962D01*
X119080872Y-77014747D01*
X118952293Y-76741504D01*
X118952286Y-76741491D01*
X118790480Y-76486526D01*
X118709688Y-76388865D01*
X117781290Y-77317262D01*
X117684033Y-77183398D01*
X117561602Y-77060967D01*
X117427735Y-76963707D01*
X118358433Y-76033010D01*
X118133522Y-75869603D01*
X118133518Y-75869600D01*
X117868892Y-75724122D01*
X117868889Y-75724120D01*
X117588107Y-75612952D01*
X117295597Y-75537849D01*
X117295601Y-75537849D01*
X116995995Y-75500000D01*
X116694005Y-75500000D01*
X116394400Y-75537849D01*
X116101892Y-75612952D01*
X115821110Y-75724120D01*
X115821107Y-75724122D01*
X115556487Y-75869597D01*
X115556468Y-75869609D01*
X115331565Y-76033010D01*
X116262263Y-76963708D01*
X116128398Y-77060967D01*
X116005967Y-77183398D01*
X115908708Y-77317263D01*
X114980310Y-76388865D01*
X114899522Y-76486523D01*
X114737707Y-76741503D01*
X114737706Y-76741504D01*
X114609127Y-77014747D01*
X114515805Y-77301962D01*
X114515802Y-77301972D01*
X114459217Y-77598600D01*
X114440255Y-77900000D01*
X112565500Y-77900000D01*
X112565500Y-75968240D01*
X112565712Y-75961765D01*
X112571753Y-75869597D01*
X112583037Y-75697429D01*
X112584727Y-75684598D01*
X112635776Y-75427955D01*
X112639121Y-75415474D01*
X112723233Y-75167686D01*
X112728178Y-75155750D01*
X112843911Y-74921066D01*
X112850383Y-74909857D01*
X112888188Y-74853278D01*
X112995760Y-74692285D01*
X113003625Y-74682035D01*
X113176159Y-74485297D01*
X113185297Y-74476159D01*
X113382035Y-74303625D01*
X113392285Y-74295760D01*
X113609862Y-74150379D01*
X113621066Y-74143911D01*
X113855750Y-74028178D01*
X113867686Y-74023233D01*
X114115474Y-73939121D01*
X114127955Y-73935776D01*
X114384605Y-73884726D01*
X114397429Y-73883037D01*
X114661766Y-73865712D01*
X114668241Y-73865500D01*
X114722583Y-73865500D01*
X159607417Y-73865500D01*
X159661759Y-73865500D01*
X159668234Y-73865712D01*
G37*
%TD.AperFunction*%
%TD*%
M02*
