%TF.GenerationSoftware,KiCad,Pcbnew,8.0.4-8.0.4-0~ubuntu24.04.1*%
%TF.CreationDate,2024-09-01T12:42:55+03:00*%
%TF.ProjectId,communication_body,636f6d6d-756e-4696-9361-74696f6e5f62,rev?*%
%TF.SameCoordinates,Original*%
%TF.FileFunction,Legend,Top*%
%TF.FilePolarity,Positive*%
%FSLAX46Y46*%
G04 Gerber Fmt 4.6, Leading zero omitted, Abs format (unit mm)*
G04 Created by KiCad (PCBNEW 8.0.4-8.0.4-0~ubuntu24.04.1) date 2024-09-01 12:42:55*
%MOMM*%
%LPD*%
G01*
G04 APERTURE LIST*
%ADD10C,0.080000*%
%ADD11C,0.254000*%
%ADD12C,0.076200*%
%ADD13C,0.127000*%
%ADD14C,0.150000*%
%ADD15C,0.120000*%
G04 APERTURE END LIST*
D10*
X129747869Y-90910840D02*
X129819297Y-90934649D01*
X129819297Y-90934649D02*
X129938345Y-90934649D01*
X129938345Y-90934649D02*
X129985964Y-90910840D01*
X129985964Y-90910840D02*
X130009773Y-90887030D01*
X130009773Y-90887030D02*
X130033583Y-90839411D01*
X130033583Y-90839411D02*
X130033583Y-90791792D01*
X130033583Y-90791792D02*
X130009773Y-90744173D01*
X130009773Y-90744173D02*
X129985964Y-90720363D01*
X129985964Y-90720363D02*
X129938345Y-90696554D01*
X129938345Y-90696554D02*
X129843107Y-90672744D01*
X129843107Y-90672744D02*
X129795488Y-90648935D01*
X129795488Y-90648935D02*
X129771678Y-90625125D01*
X129771678Y-90625125D02*
X129747869Y-90577506D01*
X129747869Y-90577506D02*
X129747869Y-90529887D01*
X129747869Y-90529887D02*
X129771678Y-90482268D01*
X129771678Y-90482268D02*
X129795488Y-90458459D01*
X129795488Y-90458459D02*
X129843107Y-90434649D01*
X129843107Y-90434649D02*
X129962154Y-90434649D01*
X129962154Y-90434649D02*
X130033583Y-90458459D01*
X130247868Y-90934649D02*
X130247868Y-90434649D01*
X130247868Y-90434649D02*
X130438344Y-90434649D01*
X130438344Y-90434649D02*
X130485963Y-90458459D01*
X130485963Y-90458459D02*
X130509773Y-90482268D01*
X130509773Y-90482268D02*
X130533582Y-90529887D01*
X130533582Y-90529887D02*
X130533582Y-90601316D01*
X130533582Y-90601316D02*
X130509773Y-90648935D01*
X130509773Y-90648935D02*
X130485963Y-90672744D01*
X130485963Y-90672744D02*
X130438344Y-90696554D01*
X130438344Y-90696554D02*
X130247868Y-90696554D01*
X130747868Y-90934649D02*
X130747868Y-90434649D01*
X158175940Y-103934649D02*
X157866416Y-103934649D01*
X157866416Y-103934649D02*
X158033083Y-104125125D01*
X158033083Y-104125125D02*
X157961654Y-104125125D01*
X157961654Y-104125125D02*
X157914035Y-104148935D01*
X157914035Y-104148935D02*
X157890226Y-104172744D01*
X157890226Y-104172744D02*
X157866416Y-104220363D01*
X157866416Y-104220363D02*
X157866416Y-104339411D01*
X157866416Y-104339411D02*
X157890226Y-104387030D01*
X157890226Y-104387030D02*
X157914035Y-104410840D01*
X157914035Y-104410840D02*
X157961654Y-104434649D01*
X157961654Y-104434649D02*
X158104511Y-104434649D01*
X158104511Y-104434649D02*
X158152130Y-104410840D01*
X158152130Y-104410840D02*
X158175940Y-104387030D01*
X157652131Y-104387030D02*
X157628321Y-104410840D01*
X157628321Y-104410840D02*
X157652131Y-104434649D01*
X157652131Y-104434649D02*
X157675940Y-104410840D01*
X157675940Y-104410840D02*
X157652131Y-104387030D01*
X157652131Y-104387030D02*
X157652131Y-104434649D01*
X157461655Y-103934649D02*
X157152131Y-103934649D01*
X157152131Y-103934649D02*
X157318798Y-104125125D01*
X157318798Y-104125125D02*
X157247369Y-104125125D01*
X157247369Y-104125125D02*
X157199750Y-104148935D01*
X157199750Y-104148935D02*
X157175941Y-104172744D01*
X157175941Y-104172744D02*
X157152131Y-104220363D01*
X157152131Y-104220363D02*
X157152131Y-104339411D01*
X157152131Y-104339411D02*
X157175941Y-104387030D01*
X157175941Y-104387030D02*
X157199750Y-104410840D01*
X157199750Y-104410840D02*
X157247369Y-104434649D01*
X157247369Y-104434649D02*
X157390226Y-104434649D01*
X157390226Y-104434649D02*
X157437845Y-104410840D01*
X157437845Y-104410840D02*
X157461655Y-104387030D01*
X157009274Y-103934649D02*
X156842608Y-104434649D01*
X156842608Y-104434649D02*
X156675941Y-103934649D01*
D11*
X158880892Y-94540990D02*
X158941368Y-94359561D01*
X158941368Y-94359561D02*
X158941368Y-94057180D01*
X158941368Y-94057180D02*
X158880892Y-93936228D01*
X158880892Y-93936228D02*
X158820415Y-93875752D01*
X158820415Y-93875752D02*
X158699463Y-93815275D01*
X158699463Y-93815275D02*
X158578511Y-93815275D01*
X158578511Y-93815275D02*
X158457558Y-93875752D01*
X158457558Y-93875752D02*
X158397082Y-93936228D01*
X158397082Y-93936228D02*
X158336606Y-94057180D01*
X158336606Y-94057180D02*
X158276130Y-94299085D01*
X158276130Y-94299085D02*
X158215653Y-94420037D01*
X158215653Y-94420037D02*
X158155177Y-94480514D01*
X158155177Y-94480514D02*
X158034225Y-94540990D01*
X158034225Y-94540990D02*
X157913272Y-94540990D01*
X157913272Y-94540990D02*
X157792320Y-94480514D01*
X157792320Y-94480514D02*
X157731844Y-94420037D01*
X157731844Y-94420037D02*
X157671368Y-94299085D01*
X157671368Y-94299085D02*
X157671368Y-93996704D01*
X157671368Y-93996704D02*
X157731844Y-93815275D01*
X158941368Y-93270990D02*
X157671368Y-93270990D01*
X158941368Y-92545275D02*
X158215653Y-93089561D01*
X157671368Y-92545275D02*
X158397082Y-93270990D01*
X157671368Y-92000990D02*
X158699463Y-92000990D01*
X158699463Y-92000990D02*
X158820415Y-91940513D01*
X158820415Y-91940513D02*
X158880892Y-91880037D01*
X158880892Y-91880037D02*
X158941368Y-91759085D01*
X158941368Y-91759085D02*
X158941368Y-91517180D01*
X158941368Y-91517180D02*
X158880892Y-91396228D01*
X158880892Y-91396228D02*
X158820415Y-91335751D01*
X158820415Y-91335751D02*
X158699463Y-91275275D01*
X158699463Y-91275275D02*
X157671368Y-91275275D01*
X158578511Y-90730990D02*
X158578511Y-90126228D01*
X158941368Y-90851942D02*
X157671368Y-90428609D01*
X157671368Y-90428609D02*
X158941368Y-90005275D01*
D12*
X159913867Y-91668916D02*
X159405867Y-91668916D01*
X159405867Y-91668916D02*
X159405867Y-91547964D01*
X159405867Y-91547964D02*
X159430057Y-91475392D01*
X159430057Y-91475392D02*
X159478438Y-91427011D01*
X159478438Y-91427011D02*
X159526819Y-91402821D01*
X159526819Y-91402821D02*
X159623581Y-91378630D01*
X159623581Y-91378630D02*
X159696153Y-91378630D01*
X159696153Y-91378630D02*
X159792915Y-91402821D01*
X159792915Y-91402821D02*
X159841296Y-91427011D01*
X159841296Y-91427011D02*
X159889677Y-91475392D01*
X159889677Y-91475392D02*
X159913867Y-91547964D01*
X159913867Y-91547964D02*
X159913867Y-91668916D01*
X159913867Y-91088345D02*
X159889677Y-91136726D01*
X159889677Y-91136726D02*
X159865486Y-91160916D01*
X159865486Y-91160916D02*
X159817105Y-91185107D01*
X159817105Y-91185107D02*
X159671962Y-91185107D01*
X159671962Y-91185107D02*
X159623581Y-91160916D01*
X159623581Y-91160916D02*
X159599391Y-91136726D01*
X159599391Y-91136726D02*
X159575200Y-91088345D01*
X159575200Y-91088345D02*
X159575200Y-91015773D01*
X159575200Y-91015773D02*
X159599391Y-90967392D01*
X159599391Y-90967392D02*
X159623581Y-90943202D01*
X159623581Y-90943202D02*
X159671962Y-90919011D01*
X159671962Y-90919011D02*
X159817105Y-90919011D01*
X159817105Y-90919011D02*
X159865486Y-90943202D01*
X159865486Y-90943202D02*
X159889677Y-90967392D01*
X159889677Y-90967392D02*
X159913867Y-91015773D01*
X159913867Y-91015773D02*
X159913867Y-91088345D01*
X159575200Y-90701297D02*
X159913867Y-90701297D01*
X159623581Y-90701297D02*
X159599391Y-90677107D01*
X159599391Y-90677107D02*
X159575200Y-90628726D01*
X159575200Y-90628726D02*
X159575200Y-90556154D01*
X159575200Y-90556154D02*
X159599391Y-90507773D01*
X159599391Y-90507773D02*
X159647772Y-90483583D01*
X159647772Y-90483583D02*
X159913867Y-90483583D01*
X159889677Y-90048154D02*
X159913867Y-90096535D01*
X159913867Y-90096535D02*
X159913867Y-90193297D01*
X159913867Y-90193297D02*
X159889677Y-90241678D01*
X159889677Y-90241678D02*
X159841296Y-90265869D01*
X159841296Y-90265869D02*
X159647772Y-90265869D01*
X159647772Y-90265869D02*
X159599391Y-90241678D01*
X159599391Y-90241678D02*
X159575200Y-90193297D01*
X159575200Y-90193297D02*
X159575200Y-90096535D01*
X159575200Y-90096535D02*
X159599391Y-90048154D01*
X159599391Y-90048154D02*
X159647772Y-90023964D01*
X159647772Y-90023964D02*
X159696153Y-90023964D01*
X159696153Y-90023964D02*
X159744534Y-90265869D01*
X159913867Y-89419201D02*
X159405867Y-89419201D01*
X159599391Y-89419201D02*
X159575200Y-89370820D01*
X159575200Y-89370820D02*
X159575200Y-89274058D01*
X159575200Y-89274058D02*
X159599391Y-89225677D01*
X159599391Y-89225677D02*
X159623581Y-89201487D01*
X159623581Y-89201487D02*
X159671962Y-89177296D01*
X159671962Y-89177296D02*
X159817105Y-89177296D01*
X159817105Y-89177296D02*
X159865486Y-89201487D01*
X159865486Y-89201487D02*
X159889677Y-89225677D01*
X159889677Y-89225677D02*
X159913867Y-89274058D01*
X159913867Y-89274058D02*
X159913867Y-89370820D01*
X159913867Y-89370820D02*
X159889677Y-89419201D01*
X159575200Y-89007963D02*
X159913867Y-88887011D01*
X159575200Y-88766058D02*
X159913867Y-88887011D01*
X159913867Y-88887011D02*
X160034819Y-88935392D01*
X160034819Y-88935392D02*
X160059010Y-88959582D01*
X160059010Y-88959582D02*
X160083200Y-89007963D01*
X159405867Y-88258058D02*
X159913867Y-88088724D01*
X159913867Y-88088724D02*
X159405867Y-87919391D01*
X159913867Y-87750057D02*
X159575200Y-87750057D01*
X159405867Y-87750057D02*
X159430057Y-87774248D01*
X159430057Y-87774248D02*
X159454248Y-87750057D01*
X159454248Y-87750057D02*
X159430057Y-87725867D01*
X159430057Y-87725867D02*
X159405867Y-87750057D01*
X159405867Y-87750057D02*
X159454248Y-87750057D01*
X159889677Y-87290438D02*
X159913867Y-87338819D01*
X159913867Y-87338819D02*
X159913867Y-87435581D01*
X159913867Y-87435581D02*
X159889677Y-87483962D01*
X159889677Y-87483962D02*
X159865486Y-87508152D01*
X159865486Y-87508152D02*
X159817105Y-87532343D01*
X159817105Y-87532343D02*
X159671962Y-87532343D01*
X159671962Y-87532343D02*
X159623581Y-87508152D01*
X159623581Y-87508152D02*
X159599391Y-87483962D01*
X159599391Y-87483962D02*
X159575200Y-87435581D01*
X159575200Y-87435581D02*
X159575200Y-87338819D01*
X159575200Y-87338819D02*
X159599391Y-87290438D01*
X159575200Y-87145295D02*
X159575200Y-86951771D01*
X159405867Y-87072723D02*
X159841296Y-87072723D01*
X159841296Y-87072723D02*
X159889677Y-87048533D01*
X159889677Y-87048533D02*
X159913867Y-87000152D01*
X159913867Y-87000152D02*
X159913867Y-86951771D01*
X159913867Y-86709866D02*
X159889677Y-86758247D01*
X159889677Y-86758247D02*
X159865486Y-86782437D01*
X159865486Y-86782437D02*
X159817105Y-86806628D01*
X159817105Y-86806628D02*
X159671962Y-86806628D01*
X159671962Y-86806628D02*
X159623581Y-86782437D01*
X159623581Y-86782437D02*
X159599391Y-86758247D01*
X159599391Y-86758247D02*
X159575200Y-86709866D01*
X159575200Y-86709866D02*
X159575200Y-86637294D01*
X159575200Y-86637294D02*
X159599391Y-86588913D01*
X159599391Y-86588913D02*
X159623581Y-86564723D01*
X159623581Y-86564723D02*
X159671962Y-86540532D01*
X159671962Y-86540532D02*
X159817105Y-86540532D01*
X159817105Y-86540532D02*
X159865486Y-86564723D01*
X159865486Y-86564723D02*
X159889677Y-86588913D01*
X159889677Y-86588913D02*
X159913867Y-86637294D01*
X159913867Y-86637294D02*
X159913867Y-86709866D01*
X159575200Y-86322818D02*
X159913867Y-86322818D01*
X159623581Y-86322818D02*
X159599391Y-86298628D01*
X159599391Y-86298628D02*
X159575200Y-86250247D01*
X159575200Y-86250247D02*
X159575200Y-86177675D01*
X159575200Y-86177675D02*
X159599391Y-86129294D01*
X159599391Y-86129294D02*
X159647772Y-86105104D01*
X159647772Y-86105104D02*
X159913867Y-86105104D01*
X159913867Y-85863199D02*
X159575200Y-85863199D01*
X159405867Y-85863199D02*
X159430057Y-85887390D01*
X159430057Y-85887390D02*
X159454248Y-85863199D01*
X159454248Y-85863199D02*
X159430057Y-85839009D01*
X159430057Y-85839009D02*
X159405867Y-85863199D01*
X159405867Y-85863199D02*
X159454248Y-85863199D01*
X159405867Y-85669675D02*
X159913867Y-85331008D01*
X159405867Y-85331008D02*
X159913867Y-85669675D01*
D10*
X124742607Y-79334649D02*
X124909273Y-79096554D01*
X125028321Y-79334649D02*
X125028321Y-78834649D01*
X125028321Y-78834649D02*
X124837845Y-78834649D01*
X124837845Y-78834649D02*
X124790226Y-78858459D01*
X124790226Y-78858459D02*
X124766416Y-78882268D01*
X124766416Y-78882268D02*
X124742607Y-78929887D01*
X124742607Y-78929887D02*
X124742607Y-79001316D01*
X124742607Y-79001316D02*
X124766416Y-79048935D01*
X124766416Y-79048935D02*
X124790226Y-79072744D01*
X124790226Y-79072744D02*
X124837845Y-79096554D01*
X124837845Y-79096554D02*
X125028321Y-79096554D01*
X124337845Y-79310840D02*
X124385464Y-79334649D01*
X124385464Y-79334649D02*
X124480702Y-79334649D01*
X124480702Y-79334649D02*
X124528321Y-79310840D01*
X124528321Y-79310840D02*
X124552130Y-79263220D01*
X124552130Y-79263220D02*
X124552130Y-79072744D01*
X124552130Y-79072744D02*
X124528321Y-79025125D01*
X124528321Y-79025125D02*
X124480702Y-79001316D01*
X124480702Y-79001316D02*
X124385464Y-79001316D01*
X124385464Y-79001316D02*
X124337845Y-79025125D01*
X124337845Y-79025125D02*
X124314035Y-79072744D01*
X124314035Y-79072744D02*
X124314035Y-79120363D01*
X124314035Y-79120363D02*
X124552130Y-79167982D01*
X124123559Y-79310840D02*
X124075940Y-79334649D01*
X124075940Y-79334649D02*
X123980702Y-79334649D01*
X123980702Y-79334649D02*
X123933083Y-79310840D01*
X123933083Y-79310840D02*
X123909274Y-79263220D01*
X123909274Y-79263220D02*
X123909274Y-79239411D01*
X123909274Y-79239411D02*
X123933083Y-79191792D01*
X123933083Y-79191792D02*
X123980702Y-79167982D01*
X123980702Y-79167982D02*
X124052131Y-79167982D01*
X124052131Y-79167982D02*
X124099750Y-79144173D01*
X124099750Y-79144173D02*
X124123559Y-79096554D01*
X124123559Y-79096554D02*
X124123559Y-79072744D01*
X124123559Y-79072744D02*
X124099750Y-79025125D01*
X124099750Y-79025125D02*
X124052131Y-79001316D01*
X124052131Y-79001316D02*
X123980702Y-79001316D01*
X123980702Y-79001316D02*
X123933083Y-79025125D01*
X123504512Y-79310840D02*
X123552131Y-79334649D01*
X123552131Y-79334649D02*
X123647369Y-79334649D01*
X123647369Y-79334649D02*
X123694988Y-79310840D01*
X123694988Y-79310840D02*
X123718797Y-79263220D01*
X123718797Y-79263220D02*
X123718797Y-79072744D01*
X123718797Y-79072744D02*
X123694988Y-79025125D01*
X123694988Y-79025125D02*
X123647369Y-79001316D01*
X123647369Y-79001316D02*
X123552131Y-79001316D01*
X123552131Y-79001316D02*
X123504512Y-79025125D01*
X123504512Y-79025125D02*
X123480702Y-79072744D01*
X123480702Y-79072744D02*
X123480702Y-79120363D01*
X123480702Y-79120363D02*
X123718797Y-79167982D01*
X123337845Y-79001316D02*
X123147369Y-79001316D01*
X123266417Y-78834649D02*
X123266417Y-79263220D01*
X123266417Y-79263220D02*
X123242607Y-79310840D01*
X123242607Y-79310840D02*
X123194988Y-79334649D01*
X123194988Y-79334649D02*
X123147369Y-79334649D01*
D13*
X157663056Y-89429686D02*
X157663056Y-88849114D01*
X158679056Y-89139400D02*
X157663056Y-89139400D01*
X158679056Y-88075019D02*
X158146866Y-88075019D01*
X158146866Y-88075019D02*
X158050104Y-88123400D01*
X158050104Y-88123400D02*
X158001723Y-88220162D01*
X158001723Y-88220162D02*
X158001723Y-88413686D01*
X158001723Y-88413686D02*
X158050104Y-88510448D01*
X158630676Y-88075019D02*
X158679056Y-88171781D01*
X158679056Y-88171781D02*
X158679056Y-88413686D01*
X158679056Y-88413686D02*
X158630676Y-88510448D01*
X158630676Y-88510448D02*
X158533914Y-88558829D01*
X158533914Y-88558829D02*
X158437152Y-88558829D01*
X158437152Y-88558829D02*
X158340390Y-88510448D01*
X158340390Y-88510448D02*
X158292009Y-88413686D01*
X158292009Y-88413686D02*
X158292009Y-88171781D01*
X158292009Y-88171781D02*
X158243628Y-88075019D01*
X158001723Y-87591210D02*
X158679056Y-87591210D01*
X158098485Y-87591210D02*
X158050104Y-87542829D01*
X158050104Y-87542829D02*
X158001723Y-87446067D01*
X158001723Y-87446067D02*
X158001723Y-87300924D01*
X158001723Y-87300924D02*
X158050104Y-87204162D01*
X158050104Y-87204162D02*
X158146866Y-87155781D01*
X158146866Y-87155781D02*
X158679056Y-87155781D01*
X158001723Y-86236543D02*
X158824199Y-86236543D01*
X158824199Y-86236543D02*
X158920961Y-86284924D01*
X158920961Y-86284924D02*
X158969342Y-86333305D01*
X158969342Y-86333305D02*
X159017723Y-86430067D01*
X159017723Y-86430067D02*
X159017723Y-86575210D01*
X159017723Y-86575210D02*
X158969342Y-86671972D01*
X158630676Y-86236543D02*
X158679056Y-86333305D01*
X158679056Y-86333305D02*
X158679056Y-86526829D01*
X158679056Y-86526829D02*
X158630676Y-86623591D01*
X158630676Y-86623591D02*
X158582295Y-86671972D01*
X158582295Y-86671972D02*
X158485533Y-86720353D01*
X158485533Y-86720353D02*
X158195247Y-86720353D01*
X158195247Y-86720353D02*
X158098485Y-86671972D01*
X158098485Y-86671972D02*
X158050104Y-86623591D01*
X158050104Y-86623591D02*
X158001723Y-86526829D01*
X158001723Y-86526829D02*
X158001723Y-86333305D01*
X158001723Y-86333305D02*
X158050104Y-86236543D01*
X158679056Y-85317305D02*
X158146866Y-85317305D01*
X158146866Y-85317305D02*
X158050104Y-85365686D01*
X158050104Y-85365686D02*
X158001723Y-85462448D01*
X158001723Y-85462448D02*
X158001723Y-85655972D01*
X158001723Y-85655972D02*
X158050104Y-85752734D01*
X158630676Y-85317305D02*
X158679056Y-85414067D01*
X158679056Y-85414067D02*
X158679056Y-85655972D01*
X158679056Y-85655972D02*
X158630676Y-85752734D01*
X158630676Y-85752734D02*
X158533914Y-85801115D01*
X158533914Y-85801115D02*
X158437152Y-85801115D01*
X158437152Y-85801115D02*
X158340390Y-85752734D01*
X158340390Y-85752734D02*
X158292009Y-85655972D01*
X158292009Y-85655972D02*
X158292009Y-85414067D01*
X158292009Y-85414067D02*
X158243628Y-85317305D01*
D10*
X157590226Y-109434649D02*
X157828321Y-109434649D01*
X157828321Y-109434649D02*
X157852130Y-109672744D01*
X157852130Y-109672744D02*
X157828321Y-109648935D01*
X157828321Y-109648935D02*
X157780702Y-109625125D01*
X157780702Y-109625125D02*
X157661654Y-109625125D01*
X157661654Y-109625125D02*
X157614035Y-109648935D01*
X157614035Y-109648935D02*
X157590226Y-109672744D01*
X157590226Y-109672744D02*
X157566416Y-109720363D01*
X157566416Y-109720363D02*
X157566416Y-109839411D01*
X157566416Y-109839411D02*
X157590226Y-109887030D01*
X157590226Y-109887030D02*
X157614035Y-109910840D01*
X157614035Y-109910840D02*
X157661654Y-109934649D01*
X157661654Y-109934649D02*
X157780702Y-109934649D01*
X157780702Y-109934649D02*
X157828321Y-109910840D01*
X157828321Y-109910840D02*
X157852130Y-109887030D01*
X157423559Y-109434649D02*
X157256893Y-109934649D01*
X157256893Y-109934649D02*
X157090226Y-109434649D01*
X130147869Y-82791792D02*
X130385964Y-82791792D01*
X130100250Y-82934649D02*
X130266916Y-82434649D01*
X130266916Y-82434649D02*
X130433583Y-82934649D01*
X130600249Y-82934649D02*
X130600249Y-82434649D01*
X130600249Y-82434649D02*
X130885963Y-82934649D01*
X130885963Y-82934649D02*
X130885963Y-82434649D01*
X131052631Y-82434649D02*
X131338345Y-82434649D01*
X131195488Y-82934649D02*
X131195488Y-82434649D01*
X131505011Y-82672744D02*
X131671678Y-82672744D01*
X131743106Y-82934649D02*
X131505011Y-82934649D01*
X131505011Y-82934649D02*
X131505011Y-82434649D01*
X131505011Y-82434649D02*
X131743106Y-82434649D01*
X131957392Y-82934649D02*
X131957392Y-82434649D01*
X131957392Y-82434649D02*
X132243106Y-82934649D01*
X132243106Y-82934649D02*
X132243106Y-82434649D01*
X132481202Y-82934649D02*
X132481202Y-82434649D01*
X132481202Y-82434649D02*
X132766916Y-82934649D01*
X132766916Y-82934649D02*
X132766916Y-82434649D01*
X132981203Y-82791792D02*
X133219298Y-82791792D01*
X132933584Y-82934649D02*
X133100250Y-82434649D01*
X133100250Y-82434649D02*
X133266917Y-82934649D01*
X124234649Y-85557392D02*
X123996554Y-85390726D01*
X124234649Y-85271678D02*
X123734649Y-85271678D01*
X123734649Y-85271678D02*
X123734649Y-85462154D01*
X123734649Y-85462154D02*
X123758459Y-85509773D01*
X123758459Y-85509773D02*
X123782268Y-85533583D01*
X123782268Y-85533583D02*
X123829887Y-85557392D01*
X123829887Y-85557392D02*
X123901316Y-85557392D01*
X123901316Y-85557392D02*
X123948935Y-85533583D01*
X123948935Y-85533583D02*
X123972744Y-85509773D01*
X123972744Y-85509773D02*
X123996554Y-85462154D01*
X123996554Y-85462154D02*
X123996554Y-85271678D01*
X123972744Y-85771678D02*
X123972744Y-85938345D01*
X124234649Y-86009773D02*
X124234649Y-85771678D01*
X124234649Y-85771678D02*
X123734649Y-85771678D01*
X123734649Y-85771678D02*
X123734649Y-86009773D01*
X124210840Y-86200250D02*
X124234649Y-86271678D01*
X124234649Y-86271678D02*
X124234649Y-86390726D01*
X124234649Y-86390726D02*
X124210840Y-86438345D01*
X124210840Y-86438345D02*
X124187030Y-86462154D01*
X124187030Y-86462154D02*
X124139411Y-86485964D01*
X124139411Y-86485964D02*
X124091792Y-86485964D01*
X124091792Y-86485964D02*
X124044173Y-86462154D01*
X124044173Y-86462154D02*
X124020363Y-86438345D01*
X124020363Y-86438345D02*
X123996554Y-86390726D01*
X123996554Y-86390726D02*
X123972744Y-86295488D01*
X123972744Y-86295488D02*
X123948935Y-86247869D01*
X123948935Y-86247869D02*
X123925125Y-86224059D01*
X123925125Y-86224059D02*
X123877506Y-86200250D01*
X123877506Y-86200250D02*
X123829887Y-86200250D01*
X123829887Y-86200250D02*
X123782268Y-86224059D01*
X123782268Y-86224059D02*
X123758459Y-86247869D01*
X123758459Y-86247869D02*
X123734649Y-86295488D01*
X123734649Y-86295488D02*
X123734649Y-86414535D01*
X123734649Y-86414535D02*
X123758459Y-86485964D01*
X123972744Y-86700249D02*
X123972744Y-86866916D01*
X124234649Y-86938344D02*
X124234649Y-86700249D01*
X124234649Y-86700249D02*
X123734649Y-86700249D01*
X123734649Y-86700249D02*
X123734649Y-86938344D01*
X123734649Y-87081202D02*
X123734649Y-87366916D01*
X124234649Y-87224059D02*
X123734649Y-87224059D01*
D14*
X118344819Y-117185833D02*
X119059104Y-117185833D01*
X119059104Y-117185833D02*
X119201961Y-117233452D01*
X119201961Y-117233452D02*
X119297200Y-117328690D01*
X119297200Y-117328690D02*
X119344819Y-117471547D01*
X119344819Y-117471547D02*
X119344819Y-117566785D01*
X118344819Y-116804880D02*
X118344819Y-116138214D01*
X118344819Y-116138214D02*
X119344819Y-116566785D01*
X117399819Y-109648333D02*
X118114104Y-109648333D01*
X118114104Y-109648333D02*
X118256961Y-109695952D01*
X118256961Y-109695952D02*
X118352200Y-109791190D01*
X118352200Y-109791190D02*
X118399819Y-109934047D01*
X118399819Y-109934047D02*
X118399819Y-110029285D01*
X117399819Y-108695952D02*
X117399819Y-109172142D01*
X117399819Y-109172142D02*
X117876009Y-109219761D01*
X117876009Y-109219761D02*
X117828390Y-109172142D01*
X117828390Y-109172142D02*
X117780771Y-109076904D01*
X117780771Y-109076904D02*
X117780771Y-108838809D01*
X117780771Y-108838809D02*
X117828390Y-108743571D01*
X117828390Y-108743571D02*
X117876009Y-108695952D01*
X117876009Y-108695952D02*
X117971247Y-108648333D01*
X117971247Y-108648333D02*
X118209342Y-108648333D01*
X118209342Y-108648333D02*
X118304580Y-108695952D01*
X118304580Y-108695952D02*
X118352200Y-108743571D01*
X118352200Y-108743571D02*
X118399819Y-108838809D01*
X118399819Y-108838809D02*
X118399819Y-109076904D01*
X118399819Y-109076904D02*
X118352200Y-109172142D01*
X118352200Y-109172142D02*
X118304580Y-109219761D01*
X147401666Y-121479819D02*
X147401666Y-122194104D01*
X147401666Y-122194104D02*
X147354047Y-122336961D01*
X147354047Y-122336961D02*
X147258809Y-122432200D01*
X147258809Y-122432200D02*
X147115952Y-122479819D01*
X147115952Y-122479819D02*
X147020714Y-122479819D01*
X148306428Y-121813152D02*
X148306428Y-122479819D01*
X148068333Y-121432200D02*
X147830238Y-122146485D01*
X147830238Y-122146485D02*
X148449285Y-122146485D01*
X144867142Y-117934580D02*
X144819523Y-117982200D01*
X144819523Y-117982200D02*
X144676666Y-118029819D01*
X144676666Y-118029819D02*
X144581428Y-118029819D01*
X144581428Y-118029819D02*
X144438571Y-117982200D01*
X144438571Y-117982200D02*
X144343333Y-117886961D01*
X144343333Y-117886961D02*
X144295714Y-117791723D01*
X144295714Y-117791723D02*
X144248095Y-117601247D01*
X144248095Y-117601247D02*
X144248095Y-117458390D01*
X144248095Y-117458390D02*
X144295714Y-117267914D01*
X144295714Y-117267914D02*
X144343333Y-117172676D01*
X144343333Y-117172676D02*
X144438571Y-117077438D01*
X144438571Y-117077438D02*
X144581428Y-117029819D01*
X144581428Y-117029819D02*
X144676666Y-117029819D01*
X144676666Y-117029819D02*
X144819523Y-117077438D01*
X144819523Y-117077438D02*
X144867142Y-117125057D01*
X145819523Y-118029819D02*
X145248095Y-118029819D01*
X145533809Y-118029819D02*
X145533809Y-117029819D01*
X145533809Y-117029819D02*
X145438571Y-117172676D01*
X145438571Y-117172676D02*
X145343333Y-117267914D01*
X145343333Y-117267914D02*
X145248095Y-117315533D01*
X146771904Y-118029819D02*
X146200476Y-118029819D01*
X146486190Y-118029819D02*
X146486190Y-117029819D01*
X146486190Y-117029819D02*
X146390952Y-117172676D01*
X146390952Y-117172676D02*
X146295714Y-117267914D01*
X146295714Y-117267914D02*
X146200476Y-117315533D01*
X157319819Y-126431666D02*
X156843628Y-126764999D01*
X157319819Y-127003094D02*
X156319819Y-127003094D01*
X156319819Y-127003094D02*
X156319819Y-126622142D01*
X156319819Y-126622142D02*
X156367438Y-126526904D01*
X156367438Y-126526904D02*
X156415057Y-126479285D01*
X156415057Y-126479285D02*
X156510295Y-126431666D01*
X156510295Y-126431666D02*
X156653152Y-126431666D01*
X156653152Y-126431666D02*
X156748390Y-126479285D01*
X156748390Y-126479285D02*
X156796009Y-126526904D01*
X156796009Y-126526904D02*
X156843628Y-126622142D01*
X156843628Y-126622142D02*
X156843628Y-127003094D01*
X156653152Y-125574523D02*
X157319819Y-125574523D01*
X156272200Y-125812618D02*
X156986485Y-126050713D01*
X156986485Y-126050713D02*
X156986485Y-125431666D01*
X133708333Y-76324104D02*
X134184523Y-76324104D01*
X133613095Y-76609819D02*
X133946428Y-75609819D01*
X133946428Y-75609819D02*
X134279761Y-76609819D01*
X134613095Y-76086009D02*
X134946428Y-76086009D01*
X135089285Y-76609819D02*
X134613095Y-76609819D01*
X134613095Y-76609819D02*
X134613095Y-75609819D01*
X134613095Y-75609819D02*
X135089285Y-75609819D01*
X135470238Y-75705057D02*
X135517857Y-75657438D01*
X135517857Y-75657438D02*
X135613095Y-75609819D01*
X135613095Y-75609819D02*
X135851190Y-75609819D01*
X135851190Y-75609819D02*
X135946428Y-75657438D01*
X135946428Y-75657438D02*
X135994047Y-75705057D01*
X135994047Y-75705057D02*
X136041666Y-75800295D01*
X136041666Y-75800295D02*
X136041666Y-75895533D01*
X136041666Y-75895533D02*
X135994047Y-76038390D01*
X135994047Y-76038390D02*
X135422619Y-76609819D01*
X135422619Y-76609819D02*
X136041666Y-76609819D01*
X119072200Y-89398332D02*
X119119819Y-89255475D01*
X119119819Y-89255475D02*
X119119819Y-89017380D01*
X119119819Y-89017380D02*
X119072200Y-88922142D01*
X119072200Y-88922142D02*
X119024580Y-88874523D01*
X119024580Y-88874523D02*
X118929342Y-88826904D01*
X118929342Y-88826904D02*
X118834104Y-88826904D01*
X118834104Y-88826904D02*
X118738866Y-88874523D01*
X118738866Y-88874523D02*
X118691247Y-88922142D01*
X118691247Y-88922142D02*
X118643628Y-89017380D01*
X118643628Y-89017380D02*
X118596009Y-89207856D01*
X118596009Y-89207856D02*
X118548390Y-89303094D01*
X118548390Y-89303094D02*
X118500771Y-89350713D01*
X118500771Y-89350713D02*
X118405533Y-89398332D01*
X118405533Y-89398332D02*
X118310295Y-89398332D01*
X118310295Y-89398332D02*
X118215057Y-89350713D01*
X118215057Y-89350713D02*
X118167438Y-89303094D01*
X118167438Y-89303094D02*
X118119819Y-89207856D01*
X118119819Y-89207856D02*
X118119819Y-88969761D01*
X118119819Y-88969761D02*
X118167438Y-88826904D01*
X118119819Y-88493570D02*
X119119819Y-88255475D01*
X119119819Y-88255475D02*
X118405533Y-88064999D01*
X118405533Y-88064999D02*
X119119819Y-87874523D01*
X119119819Y-87874523D02*
X118119819Y-87636428D01*
X119119819Y-86731666D02*
X119119819Y-87303094D01*
X119119819Y-87017380D02*
X118119819Y-87017380D01*
X118119819Y-87017380D02*
X118262676Y-87112618D01*
X118262676Y-87112618D02*
X118357914Y-87207856D01*
X118357914Y-87207856D02*
X118405533Y-87303094D01*
X132003095Y-118419819D02*
X132003095Y-119229342D01*
X132003095Y-119229342D02*
X132050714Y-119324580D01*
X132050714Y-119324580D02*
X132098333Y-119372200D01*
X132098333Y-119372200D02*
X132193571Y-119419819D01*
X132193571Y-119419819D02*
X132384047Y-119419819D01*
X132384047Y-119419819D02*
X132479285Y-119372200D01*
X132479285Y-119372200D02*
X132526904Y-119324580D01*
X132526904Y-119324580D02*
X132574523Y-119229342D01*
X132574523Y-119229342D02*
X132574523Y-118419819D01*
X133003095Y-118515057D02*
X133050714Y-118467438D01*
X133050714Y-118467438D02*
X133145952Y-118419819D01*
X133145952Y-118419819D02*
X133384047Y-118419819D01*
X133384047Y-118419819D02*
X133479285Y-118467438D01*
X133479285Y-118467438D02*
X133526904Y-118515057D01*
X133526904Y-118515057D02*
X133574523Y-118610295D01*
X133574523Y-118610295D02*
X133574523Y-118705533D01*
X133574523Y-118705533D02*
X133526904Y-118848390D01*
X133526904Y-118848390D02*
X132955476Y-119419819D01*
X132955476Y-119419819D02*
X133574523Y-119419819D01*
X155433333Y-116654819D02*
X155100000Y-116178628D01*
X154861905Y-116654819D02*
X154861905Y-115654819D01*
X154861905Y-115654819D02*
X155242857Y-115654819D01*
X155242857Y-115654819D02*
X155338095Y-115702438D01*
X155338095Y-115702438D02*
X155385714Y-115750057D01*
X155385714Y-115750057D02*
X155433333Y-115845295D01*
X155433333Y-115845295D02*
X155433333Y-115988152D01*
X155433333Y-115988152D02*
X155385714Y-116083390D01*
X155385714Y-116083390D02*
X155338095Y-116131009D01*
X155338095Y-116131009D02*
X155242857Y-116178628D01*
X155242857Y-116178628D02*
X154861905Y-116178628D01*
X155766667Y-115654819D02*
X156385714Y-115654819D01*
X156385714Y-115654819D02*
X156052381Y-116035771D01*
X156052381Y-116035771D02*
X156195238Y-116035771D01*
X156195238Y-116035771D02*
X156290476Y-116083390D01*
X156290476Y-116083390D02*
X156338095Y-116131009D01*
X156338095Y-116131009D02*
X156385714Y-116226247D01*
X156385714Y-116226247D02*
X156385714Y-116464342D01*
X156385714Y-116464342D02*
X156338095Y-116559580D01*
X156338095Y-116559580D02*
X156290476Y-116607200D01*
X156290476Y-116607200D02*
X156195238Y-116654819D01*
X156195238Y-116654819D02*
X155909524Y-116654819D01*
X155909524Y-116654819D02*
X155814286Y-116607200D01*
X155814286Y-116607200D02*
X155766667Y-116559580D01*
X117354819Y-101133333D02*
X118069104Y-101133333D01*
X118069104Y-101133333D02*
X118211961Y-101180952D01*
X118211961Y-101180952D02*
X118307200Y-101276190D01*
X118307200Y-101276190D02*
X118354819Y-101419047D01*
X118354819Y-101419047D02*
X118354819Y-101514285D01*
X117354819Y-100228571D02*
X117354819Y-100419047D01*
X117354819Y-100419047D02*
X117402438Y-100514285D01*
X117402438Y-100514285D02*
X117450057Y-100561904D01*
X117450057Y-100561904D02*
X117592914Y-100657142D01*
X117592914Y-100657142D02*
X117783390Y-100704761D01*
X117783390Y-100704761D02*
X118164342Y-100704761D01*
X118164342Y-100704761D02*
X118259580Y-100657142D01*
X118259580Y-100657142D02*
X118307200Y-100609523D01*
X118307200Y-100609523D02*
X118354819Y-100514285D01*
X118354819Y-100514285D02*
X118354819Y-100323809D01*
X118354819Y-100323809D02*
X118307200Y-100228571D01*
X118307200Y-100228571D02*
X118259580Y-100180952D01*
X118259580Y-100180952D02*
X118164342Y-100133333D01*
X118164342Y-100133333D02*
X117926247Y-100133333D01*
X117926247Y-100133333D02*
X117831009Y-100180952D01*
X117831009Y-100180952D02*
X117783390Y-100228571D01*
X117783390Y-100228571D02*
X117735771Y-100323809D01*
X117735771Y-100323809D02*
X117735771Y-100514285D01*
X117735771Y-100514285D02*
X117783390Y-100609523D01*
X117783390Y-100609523D02*
X117831009Y-100657142D01*
X117831009Y-100657142D02*
X117926247Y-100704761D01*
X138076905Y-101169819D02*
X138076905Y-100169819D01*
X138076905Y-100169819D02*
X138315000Y-100169819D01*
X138315000Y-100169819D02*
X138457857Y-100217438D01*
X138457857Y-100217438D02*
X138553095Y-100312676D01*
X138553095Y-100312676D02*
X138600714Y-100407914D01*
X138600714Y-100407914D02*
X138648333Y-100598390D01*
X138648333Y-100598390D02*
X138648333Y-100741247D01*
X138648333Y-100741247D02*
X138600714Y-100931723D01*
X138600714Y-100931723D02*
X138553095Y-101026961D01*
X138553095Y-101026961D02*
X138457857Y-101122200D01*
X138457857Y-101122200D02*
X138315000Y-101169819D01*
X138315000Y-101169819D02*
X138076905Y-101169819D01*
X139600714Y-101169819D02*
X139029286Y-101169819D01*
X139315000Y-101169819D02*
X139315000Y-100169819D01*
X139315000Y-100169819D02*
X139219762Y-100312676D01*
X139219762Y-100312676D02*
X139124524Y-100407914D01*
X139124524Y-100407914D02*
X139029286Y-100455533D01*
X135271666Y-84639819D02*
X135271666Y-85354104D01*
X135271666Y-85354104D02*
X135224047Y-85496961D01*
X135224047Y-85496961D02*
X135128809Y-85592200D01*
X135128809Y-85592200D02*
X134985952Y-85639819D01*
X134985952Y-85639819D02*
X134890714Y-85639819D01*
X136271666Y-85639819D02*
X135700238Y-85639819D01*
X135985952Y-85639819D02*
X135985952Y-84639819D01*
X135985952Y-84639819D02*
X135890714Y-84782676D01*
X135890714Y-84782676D02*
X135795476Y-84877914D01*
X135795476Y-84877914D02*
X135700238Y-84925533D01*
X156313095Y-106071819D02*
X156884523Y-106071819D01*
X156598809Y-107071819D02*
X156598809Y-106071819D01*
X157217857Y-107071819D02*
X157217857Y-106071819D01*
X157217857Y-106071819D02*
X157598809Y-106071819D01*
X157598809Y-106071819D02*
X157694047Y-106119438D01*
X157694047Y-106119438D02*
X157741666Y-106167057D01*
X157741666Y-106167057D02*
X157789285Y-106262295D01*
X157789285Y-106262295D02*
X157789285Y-106405152D01*
X157789285Y-106405152D02*
X157741666Y-106500390D01*
X157741666Y-106500390D02*
X157694047Y-106548009D01*
X157694047Y-106548009D02*
X157598809Y-106595628D01*
X157598809Y-106595628D02*
X157217857Y-106595628D01*
X158122619Y-106071819D02*
X158741666Y-106071819D01*
X158741666Y-106071819D02*
X158408333Y-106452771D01*
X158408333Y-106452771D02*
X158551190Y-106452771D01*
X158551190Y-106452771D02*
X158646428Y-106500390D01*
X158646428Y-106500390D02*
X158694047Y-106548009D01*
X158694047Y-106548009D02*
X158741666Y-106643247D01*
X158741666Y-106643247D02*
X158741666Y-106881342D01*
X158741666Y-106881342D02*
X158694047Y-106976580D01*
X158694047Y-106976580D02*
X158646428Y-107024200D01*
X158646428Y-107024200D02*
X158551190Y-107071819D01*
X158551190Y-107071819D02*
X158265476Y-107071819D01*
X158265476Y-107071819D02*
X158170238Y-107024200D01*
X158170238Y-107024200D02*
X158122619Y-106976580D01*
X124408095Y-74224819D02*
X124979523Y-74224819D01*
X124693809Y-75224819D02*
X124693809Y-74224819D01*
X125312857Y-75224819D02*
X125312857Y-74224819D01*
X125312857Y-74224819D02*
X125693809Y-74224819D01*
X125693809Y-74224819D02*
X125789047Y-74272438D01*
X125789047Y-74272438D02*
X125836666Y-74320057D01*
X125836666Y-74320057D02*
X125884285Y-74415295D01*
X125884285Y-74415295D02*
X125884285Y-74558152D01*
X125884285Y-74558152D02*
X125836666Y-74653390D01*
X125836666Y-74653390D02*
X125789047Y-74701009D01*
X125789047Y-74701009D02*
X125693809Y-74748628D01*
X125693809Y-74748628D02*
X125312857Y-74748628D01*
X126265238Y-74320057D02*
X126312857Y-74272438D01*
X126312857Y-74272438D02*
X126408095Y-74224819D01*
X126408095Y-74224819D02*
X126646190Y-74224819D01*
X126646190Y-74224819D02*
X126741428Y-74272438D01*
X126741428Y-74272438D02*
X126789047Y-74320057D01*
X126789047Y-74320057D02*
X126836666Y-74415295D01*
X126836666Y-74415295D02*
X126836666Y-74510533D01*
X126836666Y-74510533D02*
X126789047Y-74653390D01*
X126789047Y-74653390D02*
X126217619Y-75224819D01*
X126217619Y-75224819D02*
X126836666Y-75224819D01*
X157056905Y-119159819D02*
X157056905Y-118159819D01*
X157056905Y-118159819D02*
X157295000Y-118159819D01*
X157295000Y-118159819D02*
X157437857Y-118207438D01*
X157437857Y-118207438D02*
X157533095Y-118302676D01*
X157533095Y-118302676D02*
X157580714Y-118397914D01*
X157580714Y-118397914D02*
X157628333Y-118588390D01*
X157628333Y-118588390D02*
X157628333Y-118731247D01*
X157628333Y-118731247D02*
X157580714Y-118921723D01*
X157580714Y-118921723D02*
X157533095Y-119016961D01*
X157533095Y-119016961D02*
X157437857Y-119112200D01*
X157437857Y-119112200D02*
X157295000Y-119159819D01*
X157295000Y-119159819D02*
X157056905Y-119159819D01*
X158533095Y-118159819D02*
X158056905Y-118159819D01*
X158056905Y-118159819D02*
X158009286Y-118636009D01*
X158009286Y-118636009D02*
X158056905Y-118588390D01*
X158056905Y-118588390D02*
X158152143Y-118540771D01*
X158152143Y-118540771D02*
X158390238Y-118540771D01*
X158390238Y-118540771D02*
X158485476Y-118588390D01*
X158485476Y-118588390D02*
X158533095Y-118636009D01*
X158533095Y-118636009D02*
X158580714Y-118731247D01*
X158580714Y-118731247D02*
X158580714Y-118969342D01*
X158580714Y-118969342D02*
X158533095Y-119064580D01*
X158533095Y-119064580D02*
X158485476Y-119112200D01*
X158485476Y-119112200D02*
X158390238Y-119159819D01*
X158390238Y-119159819D02*
X158152143Y-119159819D01*
X158152143Y-119159819D02*
X158056905Y-119112200D01*
X158056905Y-119112200D02*
X158009286Y-119064580D01*
X144042142Y-122014580D02*
X143994523Y-122062200D01*
X143994523Y-122062200D02*
X143851666Y-122109819D01*
X143851666Y-122109819D02*
X143756428Y-122109819D01*
X143756428Y-122109819D02*
X143613571Y-122062200D01*
X143613571Y-122062200D02*
X143518333Y-121966961D01*
X143518333Y-121966961D02*
X143470714Y-121871723D01*
X143470714Y-121871723D02*
X143423095Y-121681247D01*
X143423095Y-121681247D02*
X143423095Y-121538390D01*
X143423095Y-121538390D02*
X143470714Y-121347914D01*
X143470714Y-121347914D02*
X143518333Y-121252676D01*
X143518333Y-121252676D02*
X143613571Y-121157438D01*
X143613571Y-121157438D02*
X143756428Y-121109819D01*
X143756428Y-121109819D02*
X143851666Y-121109819D01*
X143851666Y-121109819D02*
X143994523Y-121157438D01*
X143994523Y-121157438D02*
X144042142Y-121205057D01*
X144994523Y-122109819D02*
X144423095Y-122109819D01*
X144708809Y-122109819D02*
X144708809Y-121109819D01*
X144708809Y-121109819D02*
X144613571Y-121252676D01*
X144613571Y-121252676D02*
X144518333Y-121347914D01*
X144518333Y-121347914D02*
X144423095Y-121395533D01*
X145613571Y-121109819D02*
X145708809Y-121109819D01*
X145708809Y-121109819D02*
X145804047Y-121157438D01*
X145804047Y-121157438D02*
X145851666Y-121205057D01*
X145851666Y-121205057D02*
X145899285Y-121300295D01*
X145899285Y-121300295D02*
X145946904Y-121490771D01*
X145946904Y-121490771D02*
X145946904Y-121728866D01*
X145946904Y-121728866D02*
X145899285Y-121919342D01*
X145899285Y-121919342D02*
X145851666Y-122014580D01*
X145851666Y-122014580D02*
X145804047Y-122062200D01*
X145804047Y-122062200D02*
X145708809Y-122109819D01*
X145708809Y-122109819D02*
X145613571Y-122109819D01*
X145613571Y-122109819D02*
X145518333Y-122062200D01*
X145518333Y-122062200D02*
X145470714Y-122014580D01*
X145470714Y-122014580D02*
X145423095Y-121919342D01*
X145423095Y-121919342D02*
X145375476Y-121728866D01*
X145375476Y-121728866D02*
X145375476Y-121490771D01*
X145375476Y-121490771D02*
X145423095Y-121300295D01*
X145423095Y-121300295D02*
X145470714Y-121205057D01*
X145470714Y-121205057D02*
X145518333Y-121157438D01*
X145518333Y-121157438D02*
X145613571Y-121109819D01*
X120599405Y-107282319D02*
X120599405Y-106282319D01*
X120599405Y-106282319D02*
X120837500Y-106282319D01*
X120837500Y-106282319D02*
X120980357Y-106329938D01*
X120980357Y-106329938D02*
X121075595Y-106425176D01*
X121075595Y-106425176D02*
X121123214Y-106520414D01*
X121123214Y-106520414D02*
X121170833Y-106710890D01*
X121170833Y-106710890D02*
X121170833Y-106853747D01*
X121170833Y-106853747D02*
X121123214Y-107044223D01*
X121123214Y-107044223D02*
X121075595Y-107139461D01*
X121075595Y-107139461D02*
X120980357Y-107234700D01*
X120980357Y-107234700D02*
X120837500Y-107282319D01*
X120837500Y-107282319D02*
X120599405Y-107282319D01*
X122027976Y-106615652D02*
X122027976Y-107282319D01*
X121789881Y-106234700D02*
X121551786Y-106948985D01*
X121551786Y-106948985D02*
X122170833Y-106948985D01*
X132659580Y-105344166D02*
X132707200Y-105391785D01*
X132707200Y-105391785D02*
X132754819Y-105534642D01*
X132754819Y-105534642D02*
X132754819Y-105629880D01*
X132754819Y-105629880D02*
X132707200Y-105772737D01*
X132707200Y-105772737D02*
X132611961Y-105867975D01*
X132611961Y-105867975D02*
X132516723Y-105915594D01*
X132516723Y-105915594D02*
X132326247Y-105963213D01*
X132326247Y-105963213D02*
X132183390Y-105963213D01*
X132183390Y-105963213D02*
X131992914Y-105915594D01*
X131992914Y-105915594D02*
X131897676Y-105867975D01*
X131897676Y-105867975D02*
X131802438Y-105772737D01*
X131802438Y-105772737D02*
X131754819Y-105629880D01*
X131754819Y-105629880D02*
X131754819Y-105534642D01*
X131754819Y-105534642D02*
X131802438Y-105391785D01*
X131802438Y-105391785D02*
X131850057Y-105344166D01*
X132088152Y-104487023D02*
X132754819Y-104487023D01*
X131707200Y-104725118D02*
X132421485Y-104963213D01*
X132421485Y-104963213D02*
X132421485Y-104344166D01*
X153384580Y-101804166D02*
X153432200Y-101851785D01*
X153432200Y-101851785D02*
X153479819Y-101994642D01*
X153479819Y-101994642D02*
X153479819Y-102089880D01*
X153479819Y-102089880D02*
X153432200Y-102232737D01*
X153432200Y-102232737D02*
X153336961Y-102327975D01*
X153336961Y-102327975D02*
X153241723Y-102375594D01*
X153241723Y-102375594D02*
X153051247Y-102423213D01*
X153051247Y-102423213D02*
X152908390Y-102423213D01*
X152908390Y-102423213D02*
X152717914Y-102375594D01*
X152717914Y-102375594D02*
X152622676Y-102327975D01*
X152622676Y-102327975D02*
X152527438Y-102232737D01*
X152527438Y-102232737D02*
X152479819Y-102089880D01*
X152479819Y-102089880D02*
X152479819Y-101994642D01*
X152479819Y-101994642D02*
X152527438Y-101851785D01*
X152527438Y-101851785D02*
X152575057Y-101804166D01*
X153479819Y-100851785D02*
X153479819Y-101423213D01*
X153479819Y-101137499D02*
X152479819Y-101137499D01*
X152479819Y-101137499D02*
X152622676Y-101232737D01*
X152622676Y-101232737D02*
X152717914Y-101327975D01*
X152717914Y-101327975D02*
X152765533Y-101423213D01*
X127888333Y-76464104D02*
X128364523Y-76464104D01*
X127793095Y-76749819D02*
X128126428Y-75749819D01*
X128126428Y-75749819D02*
X128459761Y-76749819D01*
X128793095Y-76226009D02*
X129126428Y-76226009D01*
X129269285Y-76749819D02*
X128793095Y-76749819D01*
X128793095Y-76749819D02*
X128793095Y-75749819D01*
X128793095Y-75749819D02*
X129269285Y-75749819D01*
X130221666Y-76749819D02*
X129650238Y-76749819D01*
X129935952Y-76749819D02*
X129935952Y-75749819D01*
X129935952Y-75749819D02*
X129840714Y-75892676D01*
X129840714Y-75892676D02*
X129745476Y-75987914D01*
X129745476Y-75987914D02*
X129650238Y-76035533D01*
X141303095Y-108389819D02*
X141303095Y-109199342D01*
X141303095Y-109199342D02*
X141350714Y-109294580D01*
X141350714Y-109294580D02*
X141398333Y-109342200D01*
X141398333Y-109342200D02*
X141493571Y-109389819D01*
X141493571Y-109389819D02*
X141684047Y-109389819D01*
X141684047Y-109389819D02*
X141779285Y-109342200D01*
X141779285Y-109342200D02*
X141826904Y-109294580D01*
X141826904Y-109294580D02*
X141874523Y-109199342D01*
X141874523Y-109199342D02*
X141874523Y-108389819D01*
X142779285Y-108723152D02*
X142779285Y-109389819D01*
X142541190Y-108342200D02*
X142303095Y-109056485D01*
X142303095Y-109056485D02*
X142922142Y-109056485D01*
X147078333Y-98454580D02*
X147030714Y-98502200D01*
X147030714Y-98502200D02*
X146887857Y-98549819D01*
X146887857Y-98549819D02*
X146792619Y-98549819D01*
X146792619Y-98549819D02*
X146649762Y-98502200D01*
X146649762Y-98502200D02*
X146554524Y-98406961D01*
X146554524Y-98406961D02*
X146506905Y-98311723D01*
X146506905Y-98311723D02*
X146459286Y-98121247D01*
X146459286Y-98121247D02*
X146459286Y-97978390D01*
X146459286Y-97978390D02*
X146506905Y-97787914D01*
X146506905Y-97787914D02*
X146554524Y-97692676D01*
X146554524Y-97692676D02*
X146649762Y-97597438D01*
X146649762Y-97597438D02*
X146792619Y-97549819D01*
X146792619Y-97549819D02*
X146887857Y-97549819D01*
X146887857Y-97549819D02*
X147030714Y-97597438D01*
X147030714Y-97597438D02*
X147078333Y-97645057D01*
X147411667Y-97549819D02*
X148030714Y-97549819D01*
X148030714Y-97549819D02*
X147697381Y-97930771D01*
X147697381Y-97930771D02*
X147840238Y-97930771D01*
X147840238Y-97930771D02*
X147935476Y-97978390D01*
X147935476Y-97978390D02*
X147983095Y-98026009D01*
X147983095Y-98026009D02*
X148030714Y-98121247D01*
X148030714Y-98121247D02*
X148030714Y-98359342D01*
X148030714Y-98359342D02*
X147983095Y-98454580D01*
X147983095Y-98454580D02*
X147935476Y-98502200D01*
X147935476Y-98502200D02*
X147840238Y-98549819D01*
X147840238Y-98549819D02*
X147554524Y-98549819D01*
X147554524Y-98549819D02*
X147459286Y-98502200D01*
X147459286Y-98502200D02*
X147411667Y-98454580D01*
X144553628Y-105011190D02*
X145029819Y-105011190D01*
X144029819Y-105344523D02*
X144553628Y-105011190D01*
X144553628Y-105011190D02*
X144029819Y-104677857D01*
X145029819Y-103820714D02*
X145029819Y-104392142D01*
X145029819Y-104106428D02*
X144029819Y-104106428D01*
X144029819Y-104106428D02*
X144172676Y-104201666D01*
X144172676Y-104201666D02*
X144267914Y-104296904D01*
X144267914Y-104296904D02*
X144315533Y-104392142D01*
X120524819Y-78986666D02*
X120048628Y-79319999D01*
X120524819Y-79558094D02*
X119524819Y-79558094D01*
X119524819Y-79558094D02*
X119524819Y-79177142D01*
X119524819Y-79177142D02*
X119572438Y-79081904D01*
X119572438Y-79081904D02*
X119620057Y-79034285D01*
X119620057Y-79034285D02*
X119715295Y-78986666D01*
X119715295Y-78986666D02*
X119858152Y-78986666D01*
X119858152Y-78986666D02*
X119953390Y-79034285D01*
X119953390Y-79034285D02*
X120001009Y-79081904D01*
X120001009Y-79081904D02*
X120048628Y-79177142D01*
X120048628Y-79177142D02*
X120048628Y-79558094D01*
X119524819Y-78129523D02*
X119524819Y-78319999D01*
X119524819Y-78319999D02*
X119572438Y-78415237D01*
X119572438Y-78415237D02*
X119620057Y-78462856D01*
X119620057Y-78462856D02*
X119762914Y-78558094D01*
X119762914Y-78558094D02*
X119953390Y-78605713D01*
X119953390Y-78605713D02*
X120334342Y-78605713D01*
X120334342Y-78605713D02*
X120429580Y-78558094D01*
X120429580Y-78558094D02*
X120477200Y-78510475D01*
X120477200Y-78510475D02*
X120524819Y-78415237D01*
X120524819Y-78415237D02*
X120524819Y-78224761D01*
X120524819Y-78224761D02*
X120477200Y-78129523D01*
X120477200Y-78129523D02*
X120429580Y-78081904D01*
X120429580Y-78081904D02*
X120334342Y-78034285D01*
X120334342Y-78034285D02*
X120096247Y-78034285D01*
X120096247Y-78034285D02*
X120001009Y-78081904D01*
X120001009Y-78081904D02*
X119953390Y-78129523D01*
X119953390Y-78129523D02*
X119905771Y-78224761D01*
X119905771Y-78224761D02*
X119905771Y-78415237D01*
X119905771Y-78415237D02*
X119953390Y-78510475D01*
X119953390Y-78510475D02*
X120001009Y-78558094D01*
X120001009Y-78558094D02*
X120096247Y-78605713D01*
X131118809Y-111783628D02*
X131118809Y-112259819D01*
X130785476Y-111259819D02*
X131118809Y-111783628D01*
X131118809Y-111783628D02*
X131452142Y-111259819D01*
X131737857Y-111355057D02*
X131785476Y-111307438D01*
X131785476Y-111307438D02*
X131880714Y-111259819D01*
X131880714Y-111259819D02*
X132118809Y-111259819D01*
X132118809Y-111259819D02*
X132214047Y-111307438D01*
X132214047Y-111307438D02*
X132261666Y-111355057D01*
X132261666Y-111355057D02*
X132309285Y-111450295D01*
X132309285Y-111450295D02*
X132309285Y-111545533D01*
X132309285Y-111545533D02*
X132261666Y-111688390D01*
X132261666Y-111688390D02*
X131690238Y-112259819D01*
X131690238Y-112259819D02*
X132309285Y-112259819D01*
X156403095Y-100469819D02*
X156974523Y-100469819D01*
X156688809Y-101469819D02*
X156688809Y-100469819D01*
X157307857Y-101469819D02*
X157307857Y-100469819D01*
X157307857Y-100469819D02*
X157688809Y-100469819D01*
X157688809Y-100469819D02*
X157784047Y-100517438D01*
X157784047Y-100517438D02*
X157831666Y-100565057D01*
X157831666Y-100565057D02*
X157879285Y-100660295D01*
X157879285Y-100660295D02*
X157879285Y-100803152D01*
X157879285Y-100803152D02*
X157831666Y-100898390D01*
X157831666Y-100898390D02*
X157784047Y-100946009D01*
X157784047Y-100946009D02*
X157688809Y-100993628D01*
X157688809Y-100993628D02*
X157307857Y-100993628D01*
X158831666Y-101469819D02*
X158260238Y-101469819D01*
X158545952Y-101469819D02*
X158545952Y-100469819D01*
X158545952Y-100469819D02*
X158450714Y-100612676D01*
X158450714Y-100612676D02*
X158355476Y-100707914D01*
X158355476Y-100707914D02*
X158260238Y-100755533D01*
X114144819Y-84538094D02*
X113144819Y-84538094D01*
X113144819Y-84538094D02*
X113144819Y-84299999D01*
X113144819Y-84299999D02*
X113192438Y-84157142D01*
X113192438Y-84157142D02*
X113287676Y-84061904D01*
X113287676Y-84061904D02*
X113382914Y-84014285D01*
X113382914Y-84014285D02*
X113573390Y-83966666D01*
X113573390Y-83966666D02*
X113716247Y-83966666D01*
X113716247Y-83966666D02*
X113906723Y-84014285D01*
X113906723Y-84014285D02*
X114001961Y-84061904D01*
X114001961Y-84061904D02*
X114097200Y-84157142D01*
X114097200Y-84157142D02*
X114144819Y-84299999D01*
X114144819Y-84299999D02*
X114144819Y-84538094D01*
X113144819Y-83109523D02*
X113144819Y-83299999D01*
X113144819Y-83299999D02*
X113192438Y-83395237D01*
X113192438Y-83395237D02*
X113240057Y-83442856D01*
X113240057Y-83442856D02*
X113382914Y-83538094D01*
X113382914Y-83538094D02*
X113573390Y-83585713D01*
X113573390Y-83585713D02*
X113954342Y-83585713D01*
X113954342Y-83585713D02*
X114049580Y-83538094D01*
X114049580Y-83538094D02*
X114097200Y-83490475D01*
X114097200Y-83490475D02*
X114144819Y-83395237D01*
X114144819Y-83395237D02*
X114144819Y-83204761D01*
X114144819Y-83204761D02*
X114097200Y-83109523D01*
X114097200Y-83109523D02*
X114049580Y-83061904D01*
X114049580Y-83061904D02*
X113954342Y-83014285D01*
X113954342Y-83014285D02*
X113716247Y-83014285D01*
X113716247Y-83014285D02*
X113621009Y-83061904D01*
X113621009Y-83061904D02*
X113573390Y-83109523D01*
X113573390Y-83109523D02*
X113525771Y-83204761D01*
X113525771Y-83204761D02*
X113525771Y-83395237D01*
X113525771Y-83395237D02*
X113573390Y-83490475D01*
X113573390Y-83490475D02*
X113621009Y-83538094D01*
X113621009Y-83538094D02*
X113716247Y-83585713D01*
X130359580Y-105444166D02*
X130407200Y-105491785D01*
X130407200Y-105491785D02*
X130454819Y-105634642D01*
X130454819Y-105634642D02*
X130454819Y-105729880D01*
X130454819Y-105729880D02*
X130407200Y-105872737D01*
X130407200Y-105872737D02*
X130311961Y-105967975D01*
X130311961Y-105967975D02*
X130216723Y-106015594D01*
X130216723Y-106015594D02*
X130026247Y-106063213D01*
X130026247Y-106063213D02*
X129883390Y-106063213D01*
X129883390Y-106063213D02*
X129692914Y-106015594D01*
X129692914Y-106015594D02*
X129597676Y-105967975D01*
X129597676Y-105967975D02*
X129502438Y-105872737D01*
X129502438Y-105872737D02*
X129454819Y-105729880D01*
X129454819Y-105729880D02*
X129454819Y-105634642D01*
X129454819Y-105634642D02*
X129502438Y-105491785D01*
X129502438Y-105491785D02*
X129550057Y-105444166D01*
X129454819Y-104587023D02*
X129454819Y-104777499D01*
X129454819Y-104777499D02*
X129502438Y-104872737D01*
X129502438Y-104872737D02*
X129550057Y-104920356D01*
X129550057Y-104920356D02*
X129692914Y-105015594D01*
X129692914Y-105015594D02*
X129883390Y-105063213D01*
X129883390Y-105063213D02*
X130264342Y-105063213D01*
X130264342Y-105063213D02*
X130359580Y-105015594D01*
X130359580Y-105015594D02*
X130407200Y-104967975D01*
X130407200Y-104967975D02*
X130454819Y-104872737D01*
X130454819Y-104872737D02*
X130454819Y-104682261D01*
X130454819Y-104682261D02*
X130407200Y-104587023D01*
X130407200Y-104587023D02*
X130359580Y-104539404D01*
X130359580Y-104539404D02*
X130264342Y-104491785D01*
X130264342Y-104491785D02*
X130026247Y-104491785D01*
X130026247Y-104491785D02*
X129931009Y-104539404D01*
X129931009Y-104539404D02*
X129883390Y-104587023D01*
X129883390Y-104587023D02*
X129835771Y-104682261D01*
X129835771Y-104682261D02*
X129835771Y-104872737D01*
X129835771Y-104872737D02*
X129883390Y-104967975D01*
X129883390Y-104967975D02*
X129931009Y-105015594D01*
X129931009Y-105015594D02*
X130026247Y-105063213D01*
X136631666Y-122219819D02*
X136631666Y-122934104D01*
X136631666Y-122934104D02*
X136584047Y-123076961D01*
X136584047Y-123076961D02*
X136488809Y-123172200D01*
X136488809Y-123172200D02*
X136345952Y-123219819D01*
X136345952Y-123219819D02*
X136250714Y-123219819D01*
X137060238Y-122315057D02*
X137107857Y-122267438D01*
X137107857Y-122267438D02*
X137203095Y-122219819D01*
X137203095Y-122219819D02*
X137441190Y-122219819D01*
X137441190Y-122219819D02*
X137536428Y-122267438D01*
X137536428Y-122267438D02*
X137584047Y-122315057D01*
X137584047Y-122315057D02*
X137631666Y-122410295D01*
X137631666Y-122410295D02*
X137631666Y-122505533D01*
X137631666Y-122505533D02*
X137584047Y-122648390D01*
X137584047Y-122648390D02*
X137012619Y-123219819D01*
X137012619Y-123219819D02*
X137631666Y-123219819D01*
X120524580Y-119271666D02*
X120572200Y-119319285D01*
X120572200Y-119319285D02*
X120619819Y-119462142D01*
X120619819Y-119462142D02*
X120619819Y-119557380D01*
X120619819Y-119557380D02*
X120572200Y-119700237D01*
X120572200Y-119700237D02*
X120476961Y-119795475D01*
X120476961Y-119795475D02*
X120381723Y-119843094D01*
X120381723Y-119843094D02*
X120191247Y-119890713D01*
X120191247Y-119890713D02*
X120048390Y-119890713D01*
X120048390Y-119890713D02*
X119857914Y-119843094D01*
X119857914Y-119843094D02*
X119762676Y-119795475D01*
X119762676Y-119795475D02*
X119667438Y-119700237D01*
X119667438Y-119700237D02*
X119619819Y-119557380D01*
X119619819Y-119557380D02*
X119619819Y-119462142D01*
X119619819Y-119462142D02*
X119667438Y-119319285D01*
X119667438Y-119319285D02*
X119715057Y-119271666D01*
X119619819Y-118938332D02*
X119619819Y-118271666D01*
X119619819Y-118271666D02*
X120619819Y-118700237D01*
X141954580Y-101251666D02*
X142002200Y-101299285D01*
X142002200Y-101299285D02*
X142049819Y-101442142D01*
X142049819Y-101442142D02*
X142049819Y-101537380D01*
X142049819Y-101537380D02*
X142002200Y-101680237D01*
X142002200Y-101680237D02*
X141906961Y-101775475D01*
X141906961Y-101775475D02*
X141811723Y-101823094D01*
X141811723Y-101823094D02*
X141621247Y-101870713D01*
X141621247Y-101870713D02*
X141478390Y-101870713D01*
X141478390Y-101870713D02*
X141287914Y-101823094D01*
X141287914Y-101823094D02*
X141192676Y-101775475D01*
X141192676Y-101775475D02*
X141097438Y-101680237D01*
X141097438Y-101680237D02*
X141049819Y-101537380D01*
X141049819Y-101537380D02*
X141049819Y-101442142D01*
X141049819Y-101442142D02*
X141097438Y-101299285D01*
X141097438Y-101299285D02*
X141145057Y-101251666D01*
X141145057Y-100870713D02*
X141097438Y-100823094D01*
X141097438Y-100823094D02*
X141049819Y-100727856D01*
X141049819Y-100727856D02*
X141049819Y-100489761D01*
X141049819Y-100489761D02*
X141097438Y-100394523D01*
X141097438Y-100394523D02*
X141145057Y-100346904D01*
X141145057Y-100346904D02*
X141240295Y-100299285D01*
X141240295Y-100299285D02*
X141335533Y-100299285D01*
X141335533Y-100299285D02*
X141478390Y-100346904D01*
X141478390Y-100346904D02*
X142049819Y-100918332D01*
X142049819Y-100918332D02*
X142049819Y-100299285D01*
X120619819Y-94576904D02*
X121429342Y-94576904D01*
X121429342Y-94576904D02*
X121524580Y-94529285D01*
X121524580Y-94529285D02*
X121572200Y-94481666D01*
X121572200Y-94481666D02*
X121619819Y-94386428D01*
X121619819Y-94386428D02*
X121619819Y-94195952D01*
X121619819Y-94195952D02*
X121572200Y-94100714D01*
X121572200Y-94100714D02*
X121524580Y-94053095D01*
X121524580Y-94053095D02*
X121429342Y-94005476D01*
X121429342Y-94005476D02*
X120619819Y-94005476D01*
X120619819Y-93624523D02*
X120619819Y-93005476D01*
X120619819Y-93005476D02*
X121000771Y-93338809D01*
X121000771Y-93338809D02*
X121000771Y-93195952D01*
X121000771Y-93195952D02*
X121048390Y-93100714D01*
X121048390Y-93100714D02*
X121096009Y-93053095D01*
X121096009Y-93053095D02*
X121191247Y-93005476D01*
X121191247Y-93005476D02*
X121429342Y-93005476D01*
X121429342Y-93005476D02*
X121524580Y-93053095D01*
X121524580Y-93053095D02*
X121572200Y-93100714D01*
X121572200Y-93100714D02*
X121619819Y-93195952D01*
X121619819Y-93195952D02*
X121619819Y-93481666D01*
X121619819Y-93481666D02*
X121572200Y-93576904D01*
X121572200Y-93576904D02*
X121524580Y-93624523D01*
X153478333Y-98629819D02*
X153145000Y-98153628D01*
X152906905Y-98629819D02*
X152906905Y-97629819D01*
X152906905Y-97629819D02*
X153287857Y-97629819D01*
X153287857Y-97629819D02*
X153383095Y-97677438D01*
X153383095Y-97677438D02*
X153430714Y-97725057D01*
X153430714Y-97725057D02*
X153478333Y-97820295D01*
X153478333Y-97820295D02*
X153478333Y-97963152D01*
X153478333Y-97963152D02*
X153430714Y-98058390D01*
X153430714Y-98058390D02*
X153383095Y-98106009D01*
X153383095Y-98106009D02*
X153287857Y-98153628D01*
X153287857Y-98153628D02*
X152906905Y-98153628D01*
X154430714Y-98629819D02*
X153859286Y-98629819D01*
X154145000Y-98629819D02*
X154145000Y-97629819D01*
X154145000Y-97629819D02*
X154049762Y-97772676D01*
X154049762Y-97772676D02*
X153954524Y-97867914D01*
X153954524Y-97867914D02*
X153859286Y-97915533D01*
X114204819Y-86938094D02*
X113204819Y-86938094D01*
X113204819Y-86938094D02*
X113204819Y-86699999D01*
X113204819Y-86699999D02*
X113252438Y-86557142D01*
X113252438Y-86557142D02*
X113347676Y-86461904D01*
X113347676Y-86461904D02*
X113442914Y-86414285D01*
X113442914Y-86414285D02*
X113633390Y-86366666D01*
X113633390Y-86366666D02*
X113776247Y-86366666D01*
X113776247Y-86366666D02*
X113966723Y-86414285D01*
X113966723Y-86414285D02*
X114061961Y-86461904D01*
X114061961Y-86461904D02*
X114157200Y-86557142D01*
X114157200Y-86557142D02*
X114204819Y-86699999D01*
X114204819Y-86699999D02*
X114204819Y-86938094D01*
X113204819Y-86033332D02*
X113204819Y-85414285D01*
X113204819Y-85414285D02*
X113585771Y-85747618D01*
X113585771Y-85747618D02*
X113585771Y-85604761D01*
X113585771Y-85604761D02*
X113633390Y-85509523D01*
X113633390Y-85509523D02*
X113681009Y-85461904D01*
X113681009Y-85461904D02*
X113776247Y-85414285D01*
X113776247Y-85414285D02*
X114014342Y-85414285D01*
X114014342Y-85414285D02*
X114109580Y-85461904D01*
X114109580Y-85461904D02*
X114157200Y-85509523D01*
X114157200Y-85509523D02*
X114204819Y-85604761D01*
X114204819Y-85604761D02*
X114204819Y-85890475D01*
X114204819Y-85890475D02*
X114157200Y-85985713D01*
X114157200Y-85985713D02*
X114109580Y-86033332D01*
X153766905Y-112369819D02*
X153766905Y-111369819D01*
X153766905Y-111369819D02*
X154005000Y-111369819D01*
X154005000Y-111369819D02*
X154147857Y-111417438D01*
X154147857Y-111417438D02*
X154243095Y-111512676D01*
X154243095Y-111512676D02*
X154290714Y-111607914D01*
X154290714Y-111607914D02*
X154338333Y-111798390D01*
X154338333Y-111798390D02*
X154338333Y-111941247D01*
X154338333Y-111941247D02*
X154290714Y-112131723D01*
X154290714Y-112131723D02*
X154243095Y-112226961D01*
X154243095Y-112226961D02*
X154147857Y-112322200D01*
X154147857Y-112322200D02*
X154005000Y-112369819D01*
X154005000Y-112369819D02*
X153766905Y-112369819D01*
X154719286Y-111465057D02*
X154766905Y-111417438D01*
X154766905Y-111417438D02*
X154862143Y-111369819D01*
X154862143Y-111369819D02*
X155100238Y-111369819D01*
X155100238Y-111369819D02*
X155195476Y-111417438D01*
X155195476Y-111417438D02*
X155243095Y-111465057D01*
X155243095Y-111465057D02*
X155290714Y-111560295D01*
X155290714Y-111560295D02*
X155290714Y-111655533D01*
X155290714Y-111655533D02*
X155243095Y-111798390D01*
X155243095Y-111798390D02*
X154671667Y-112369819D01*
X154671667Y-112369819D02*
X155290714Y-112369819D01*
X122514819Y-78976666D02*
X122038628Y-79309999D01*
X122514819Y-79548094D02*
X121514819Y-79548094D01*
X121514819Y-79548094D02*
X121514819Y-79167142D01*
X121514819Y-79167142D02*
X121562438Y-79071904D01*
X121562438Y-79071904D02*
X121610057Y-79024285D01*
X121610057Y-79024285D02*
X121705295Y-78976666D01*
X121705295Y-78976666D02*
X121848152Y-78976666D01*
X121848152Y-78976666D02*
X121943390Y-79024285D01*
X121943390Y-79024285D02*
X121991009Y-79071904D01*
X121991009Y-79071904D02*
X122038628Y-79167142D01*
X122038628Y-79167142D02*
X122038628Y-79548094D01*
X121514819Y-78071904D02*
X121514819Y-78548094D01*
X121514819Y-78548094D02*
X121991009Y-78595713D01*
X121991009Y-78595713D02*
X121943390Y-78548094D01*
X121943390Y-78548094D02*
X121895771Y-78452856D01*
X121895771Y-78452856D02*
X121895771Y-78214761D01*
X121895771Y-78214761D02*
X121943390Y-78119523D01*
X121943390Y-78119523D02*
X121991009Y-78071904D01*
X121991009Y-78071904D02*
X122086247Y-78024285D01*
X122086247Y-78024285D02*
X122324342Y-78024285D01*
X122324342Y-78024285D02*
X122419580Y-78071904D01*
X122419580Y-78071904D02*
X122467200Y-78119523D01*
X122467200Y-78119523D02*
X122514819Y-78214761D01*
X122514819Y-78214761D02*
X122514819Y-78452856D01*
X122514819Y-78452856D02*
X122467200Y-78548094D01*
X122467200Y-78548094D02*
X122419580Y-78595713D01*
X159324580Y-126431666D02*
X159372200Y-126479285D01*
X159372200Y-126479285D02*
X159419819Y-126622142D01*
X159419819Y-126622142D02*
X159419819Y-126717380D01*
X159419819Y-126717380D02*
X159372200Y-126860237D01*
X159372200Y-126860237D02*
X159276961Y-126955475D01*
X159276961Y-126955475D02*
X159181723Y-127003094D01*
X159181723Y-127003094D02*
X158991247Y-127050713D01*
X158991247Y-127050713D02*
X158848390Y-127050713D01*
X158848390Y-127050713D02*
X158657914Y-127003094D01*
X158657914Y-127003094D02*
X158562676Y-126955475D01*
X158562676Y-126955475D02*
X158467438Y-126860237D01*
X158467438Y-126860237D02*
X158419819Y-126717380D01*
X158419819Y-126717380D02*
X158419819Y-126622142D01*
X158419819Y-126622142D02*
X158467438Y-126479285D01*
X158467438Y-126479285D02*
X158515057Y-126431666D01*
X158848390Y-125860237D02*
X158800771Y-125955475D01*
X158800771Y-125955475D02*
X158753152Y-126003094D01*
X158753152Y-126003094D02*
X158657914Y-126050713D01*
X158657914Y-126050713D02*
X158610295Y-126050713D01*
X158610295Y-126050713D02*
X158515057Y-126003094D01*
X158515057Y-126003094D02*
X158467438Y-125955475D01*
X158467438Y-125955475D02*
X158419819Y-125860237D01*
X158419819Y-125860237D02*
X158419819Y-125669761D01*
X158419819Y-125669761D02*
X158467438Y-125574523D01*
X158467438Y-125574523D02*
X158515057Y-125526904D01*
X158515057Y-125526904D02*
X158610295Y-125479285D01*
X158610295Y-125479285D02*
X158657914Y-125479285D01*
X158657914Y-125479285D02*
X158753152Y-125526904D01*
X158753152Y-125526904D02*
X158800771Y-125574523D01*
X158800771Y-125574523D02*
X158848390Y-125669761D01*
X158848390Y-125669761D02*
X158848390Y-125860237D01*
X158848390Y-125860237D02*
X158896009Y-125955475D01*
X158896009Y-125955475D02*
X158943628Y-126003094D01*
X158943628Y-126003094D02*
X159038866Y-126050713D01*
X159038866Y-126050713D02*
X159229342Y-126050713D01*
X159229342Y-126050713D02*
X159324580Y-126003094D01*
X159324580Y-126003094D02*
X159372200Y-125955475D01*
X159372200Y-125955475D02*
X159419819Y-125860237D01*
X159419819Y-125860237D02*
X159419819Y-125669761D01*
X159419819Y-125669761D02*
X159372200Y-125574523D01*
X159372200Y-125574523D02*
X159324580Y-125526904D01*
X159324580Y-125526904D02*
X159229342Y-125479285D01*
X159229342Y-125479285D02*
X159038866Y-125479285D01*
X159038866Y-125479285D02*
X158943628Y-125526904D01*
X158943628Y-125526904D02*
X158896009Y-125574523D01*
X158896009Y-125574523D02*
X158848390Y-125669761D01*
X138548333Y-98969819D02*
X138215000Y-98493628D01*
X137976905Y-98969819D02*
X137976905Y-97969819D01*
X137976905Y-97969819D02*
X138357857Y-97969819D01*
X138357857Y-97969819D02*
X138453095Y-98017438D01*
X138453095Y-98017438D02*
X138500714Y-98065057D01*
X138500714Y-98065057D02*
X138548333Y-98160295D01*
X138548333Y-98160295D02*
X138548333Y-98303152D01*
X138548333Y-98303152D02*
X138500714Y-98398390D01*
X138500714Y-98398390D02*
X138453095Y-98446009D01*
X138453095Y-98446009D02*
X138357857Y-98493628D01*
X138357857Y-98493628D02*
X137976905Y-98493628D01*
X138929286Y-98065057D02*
X138976905Y-98017438D01*
X138976905Y-98017438D02*
X139072143Y-97969819D01*
X139072143Y-97969819D02*
X139310238Y-97969819D01*
X139310238Y-97969819D02*
X139405476Y-98017438D01*
X139405476Y-98017438D02*
X139453095Y-98065057D01*
X139453095Y-98065057D02*
X139500714Y-98160295D01*
X139500714Y-98160295D02*
X139500714Y-98255533D01*
X139500714Y-98255533D02*
X139453095Y-98398390D01*
X139453095Y-98398390D02*
X138881667Y-98969819D01*
X138881667Y-98969819D02*
X139500714Y-98969819D01*
X138923095Y-74969819D02*
X138923095Y-75779342D01*
X138923095Y-75779342D02*
X138970714Y-75874580D01*
X138970714Y-75874580D02*
X139018333Y-75922200D01*
X139018333Y-75922200D02*
X139113571Y-75969819D01*
X139113571Y-75969819D02*
X139304047Y-75969819D01*
X139304047Y-75969819D02*
X139399285Y-75922200D01*
X139399285Y-75922200D02*
X139446904Y-75874580D01*
X139446904Y-75874580D02*
X139494523Y-75779342D01*
X139494523Y-75779342D02*
X139494523Y-74969819D01*
X140494523Y-75969819D02*
X139923095Y-75969819D01*
X140208809Y-75969819D02*
X140208809Y-74969819D01*
X140208809Y-74969819D02*
X140113571Y-75112676D01*
X140113571Y-75112676D02*
X140018333Y-75207914D01*
X140018333Y-75207914D02*
X139923095Y-75255533D01*
X122804580Y-119291666D02*
X122852200Y-119339285D01*
X122852200Y-119339285D02*
X122899819Y-119482142D01*
X122899819Y-119482142D02*
X122899819Y-119577380D01*
X122899819Y-119577380D02*
X122852200Y-119720237D01*
X122852200Y-119720237D02*
X122756961Y-119815475D01*
X122756961Y-119815475D02*
X122661723Y-119863094D01*
X122661723Y-119863094D02*
X122471247Y-119910713D01*
X122471247Y-119910713D02*
X122328390Y-119910713D01*
X122328390Y-119910713D02*
X122137914Y-119863094D01*
X122137914Y-119863094D02*
X122042676Y-119815475D01*
X122042676Y-119815475D02*
X121947438Y-119720237D01*
X121947438Y-119720237D02*
X121899819Y-119577380D01*
X121899819Y-119577380D02*
X121899819Y-119482142D01*
X121899819Y-119482142D02*
X121947438Y-119339285D01*
X121947438Y-119339285D02*
X121995057Y-119291666D01*
X122899819Y-118815475D02*
X122899819Y-118624999D01*
X122899819Y-118624999D02*
X122852200Y-118529761D01*
X122852200Y-118529761D02*
X122804580Y-118482142D01*
X122804580Y-118482142D02*
X122661723Y-118386904D01*
X122661723Y-118386904D02*
X122471247Y-118339285D01*
X122471247Y-118339285D02*
X122090295Y-118339285D01*
X122090295Y-118339285D02*
X121995057Y-118386904D01*
X121995057Y-118386904D02*
X121947438Y-118434523D01*
X121947438Y-118434523D02*
X121899819Y-118529761D01*
X121899819Y-118529761D02*
X121899819Y-118720237D01*
X121899819Y-118720237D02*
X121947438Y-118815475D01*
X121947438Y-118815475D02*
X121995057Y-118863094D01*
X121995057Y-118863094D02*
X122090295Y-118910713D01*
X122090295Y-118910713D02*
X122328390Y-118910713D01*
X122328390Y-118910713D02*
X122423628Y-118863094D01*
X122423628Y-118863094D02*
X122471247Y-118815475D01*
X122471247Y-118815475D02*
X122518866Y-118720237D01*
X122518866Y-118720237D02*
X122518866Y-118529761D01*
X122518866Y-118529761D02*
X122471247Y-118434523D01*
X122471247Y-118434523D02*
X122423628Y-118386904D01*
X122423628Y-118386904D02*
X122328390Y-118339285D01*
D15*
%TO.C,J7*%
X117050000Y-113092500D02*
X117050000Y-113512500D01*
X115070000Y-113092500D02*
X117050000Y-113092500D01*
X112700000Y-113092500D02*
X113100000Y-113092500D01*
X117280000Y-115092500D02*
X117730000Y-115092500D01*
X117730000Y-115542500D02*
X117730000Y-115092500D01*
X117050000Y-120612500D02*
X117050000Y-120192500D01*
X115070000Y-120612500D02*
X117050000Y-120612500D01*
X113100000Y-120612500D02*
X112700000Y-120612500D01*
%TO.C,J5*%
X113055000Y-103555000D02*
X113055000Y-111275000D01*
X113055000Y-111275000D02*
X116775000Y-111275000D01*
X113255000Y-103755000D02*
X113255000Y-111075000D01*
X113255000Y-111075000D02*
X115015000Y-111075000D01*
X115015000Y-103755000D02*
X113255000Y-103755000D01*
X115015000Y-103755000D02*
X115015000Y-103555000D01*
X115015000Y-111075000D02*
X115015000Y-111275000D01*
X115715000Y-103555000D02*
X115715000Y-103755000D01*
X115715000Y-103755000D02*
X115015000Y-103755000D01*
X115715000Y-103755000D02*
X116575000Y-103755000D01*
X115715000Y-111075000D02*
X115015000Y-111075000D01*
X115715000Y-111075000D02*
X115715000Y-111275000D01*
X116575000Y-103755000D02*
X116575000Y-111075000D01*
X116575000Y-111075000D02*
X115715000Y-111075000D01*
X116775000Y-103555000D02*
X113055000Y-103555000D01*
X116775000Y-111275000D02*
X116775000Y-103555000D01*
X117075000Y-103255000D02*
X115825000Y-103255000D01*
X117075000Y-104505000D02*
X117075000Y-103255000D01*
%TO.C,J4*%
X148805000Y-121655000D02*
X148805000Y-122905000D01*
X149105000Y-121955000D02*
X149105000Y-126675000D01*
X149105000Y-123265000D02*
X149715000Y-123265000D01*
X149105000Y-124565000D02*
X149715000Y-124565000D01*
X149105000Y-126675000D02*
X155225000Y-126675000D01*
X149715000Y-122565000D02*
X149715000Y-126065000D01*
X149715000Y-126065000D02*
X154615000Y-126065000D01*
X150055000Y-121655000D02*
X148805000Y-121655000D01*
X150565000Y-121755000D02*
X150565000Y-121955000D01*
X150865000Y-121755000D02*
X150565000Y-121755000D01*
X150865000Y-121855000D02*
X150565000Y-121855000D01*
X150865000Y-121955000D02*
X150865000Y-121755000D01*
X151665000Y-121955000D02*
X151665000Y-122565000D01*
X151665000Y-122565000D02*
X149715000Y-122565000D01*
X152065000Y-125565000D02*
X152265000Y-125565000D01*
X152065000Y-126065000D02*
X152065000Y-125565000D01*
X152165000Y-126065000D02*
X152165000Y-125565000D01*
X152265000Y-125565000D02*
X152265000Y-126065000D01*
X152665000Y-122565000D02*
X152665000Y-121955000D01*
X154615000Y-122565000D02*
X152665000Y-122565000D01*
X154615000Y-126065000D02*
X154615000Y-122565000D01*
X155225000Y-121955000D02*
X149105000Y-121955000D01*
X155225000Y-123265000D02*
X154615000Y-123265000D01*
X155225000Y-124565000D02*
X154615000Y-124565000D01*
X155225000Y-126675000D02*
X155225000Y-121955000D01*
%TO.C,C11*%
X138350000Y-117479437D02*
X138350000Y-117615000D01*
X138350000Y-117479437D02*
X139414437Y-116415000D01*
X138350000Y-119870563D02*
X138350000Y-119735000D01*
X138350000Y-119870563D02*
X139414437Y-120935000D01*
X139414437Y-116415000D02*
X142870000Y-116415000D01*
X139414437Y-120935000D02*
X142870000Y-120935000D01*
X142870000Y-116415000D02*
X142870000Y-117615000D01*
X142870000Y-120935000D02*
X142870000Y-119735000D01*
%TO.C,R4*%
X156130000Y-123037936D02*
X156130000Y-123492064D01*
X157600000Y-123037936D02*
X157600000Y-123492064D01*
%TO.C,AE2*%
X133525000Y-78270000D02*
X134165000Y-78270000D01*
X135685000Y-78270000D02*
X135685000Y-77640000D01*
X136275000Y-80990000D02*
X133575000Y-80990000D01*
X136325000Y-78270000D02*
X135685000Y-78270000D01*
%TO.C,SW1*%
X119515000Y-83205000D02*
X123215000Y-83205000D01*
X119515000Y-89325000D02*
X119515000Y-83205000D01*
X123215000Y-83205000D02*
X123215000Y-89325000D01*
X123215000Y-89325000D02*
X119515000Y-89325000D01*
%TO.C,U2*%
X123830000Y-123452500D02*
X123830000Y-121502500D01*
X123830000Y-123452500D02*
X123830000Y-125402500D01*
X133950000Y-123452500D02*
X133950000Y-121502500D01*
X133950000Y-123452500D02*
X133950000Y-125402500D01*
X134225000Y-120992500D02*
X133895000Y-120752500D01*
X134225000Y-120512500D01*
X134225000Y-120992500D01*
G36*
X134225000Y-120992500D02*
G01*
X133895000Y-120752500D01*
X134225000Y-120512500D01*
X134225000Y-120992500D01*
G37*
%TO.C,R3*%
X152597936Y-115500000D02*
X153052064Y-115500000D01*
X152597936Y-116970000D02*
X153052064Y-116970000D01*
%TO.C,J6*%
X113105000Y-88605000D02*
X113105000Y-102325000D01*
X113105000Y-102325000D02*
X116825000Y-102325000D01*
X113305000Y-88805000D02*
X113305000Y-102125000D01*
X113305000Y-102125000D02*
X115065000Y-102125000D01*
X115065000Y-88805000D02*
X113305000Y-88805000D01*
X115065000Y-88805000D02*
X115065000Y-88605000D01*
X115065000Y-102125000D02*
X115065000Y-102325000D01*
X115765000Y-88605000D02*
X115765000Y-88805000D01*
X115765000Y-88805000D02*
X115065000Y-88805000D01*
X115765000Y-88805000D02*
X116625000Y-88805000D01*
X115765000Y-102125000D02*
X115065000Y-102125000D01*
X115765000Y-102125000D02*
X115765000Y-102325000D01*
X116625000Y-88805000D02*
X116625000Y-102125000D01*
X116625000Y-102125000D02*
X115765000Y-102125000D01*
X116825000Y-88605000D02*
X113105000Y-88605000D01*
X116825000Y-102325000D02*
X116825000Y-88605000D01*
X117125000Y-88305000D02*
X115875000Y-88305000D01*
X117125000Y-89555000D02*
X117125000Y-88305000D01*
%TO.C,D1*%
X132830000Y-99680000D02*
X132830000Y-101950000D01*
X132830000Y-101950000D02*
X136715000Y-101950000D01*
X136715000Y-99680000D02*
X132830000Y-99680000D01*
%TO.C,J1*%
X126425000Y-84765000D02*
X126425000Y-89965000D01*
X131565000Y-84765000D02*
X126425000Y-84765000D01*
X131565000Y-84765000D02*
X131565000Y-87365000D01*
X131565000Y-87365000D02*
X134165000Y-87365000D01*
X132835000Y-84765000D02*
X134165000Y-84765000D01*
X134165000Y-84765000D02*
X134165000Y-86095000D01*
X134165000Y-87365000D02*
X134165000Y-89965000D01*
X134165000Y-89965000D02*
X126425000Y-89965000D01*
%TO.C,TP3*%
X158275000Y-108065000D02*
G75*
G02*
X156875000Y-108065000I-700000J0D01*
G01*
X156875000Y-108065000D02*
G75*
G02*
X158275000Y-108065000I700000J0D01*
G01*
%TO.C,TP2*%
X126370000Y-76420000D02*
G75*
G02*
X124970000Y-76420000I-700000J0D01*
G01*
X124970000Y-76420000D02*
G75*
G02*
X126370000Y-76420000I700000J0D01*
G01*
%TO.C,D5*%
X156675000Y-117715000D02*
X151165000Y-117715000D01*
X156675000Y-121015000D02*
X151165000Y-121015000D01*
X156675000Y-121015000D02*
X156675000Y-117715000D01*
%TO.C,C10*%
X140953748Y-121510000D02*
X141476252Y-121510000D01*
X140953748Y-122980000D02*
X141476252Y-122980000D01*
%TO.C,D4*%
X127447500Y-107777500D02*
X121937500Y-107777500D01*
X127447500Y-111077500D02*
X121937500Y-111077500D01*
X127447500Y-111077500D02*
X127447500Y-107777500D01*
%TO.C,C4*%
X131465000Y-108078748D02*
X131465000Y-108601252D01*
X132935000Y-108078748D02*
X132935000Y-108601252D01*
%TO.C,C1*%
X152320000Y-105026252D02*
X152320000Y-104503748D01*
X153790000Y-105026252D02*
X153790000Y-104503748D01*
%TO.C,AE1*%
X127225000Y-80115000D02*
X127225000Y-78875000D01*
X129715000Y-77625000D02*
X128475000Y-77625000D01*
X129715000Y-81365000D02*
X128475000Y-81365000D01*
X130965000Y-80115000D02*
X130965000Y-78875000D01*
%TO.C,U4*%
X135555000Y-109625000D02*
X136815000Y-109625000D01*
X135555000Y-113385000D02*
X135555000Y-109625000D01*
X142375000Y-109625000D02*
X141115000Y-109625000D01*
X142375000Y-113385000D02*
X142375000Y-109625000D01*
X135655000Y-114665000D02*
X135325000Y-114905000D01*
X135325000Y-114425000D01*
X135655000Y-114665000D01*
G36*
X135655000Y-114665000D02*
G01*
X135325000Y-114905000D01*
X135325000Y-114425000D01*
X135655000Y-114665000D01*
G37*
%TO.C,C3*%
X144633752Y-97430000D02*
X144111248Y-97430000D01*
X144633752Y-98900000D02*
X144111248Y-98900000D01*
%TO.C,Y1*%
X145515000Y-101265000D02*
X145515000Y-113865000D01*
X150615000Y-101265000D02*
X145515000Y-101265000D01*
X150615000Y-113865000D02*
X150615000Y-101265000D01*
%TO.C,R6*%
X120985000Y-79047064D02*
X120985000Y-78592936D01*
X122455000Y-79047064D02*
X122455000Y-78592936D01*
%TO.C,Y2*%
X120815000Y-117715000D02*
X133415000Y-117715000D01*
X133415000Y-112615000D02*
X120815000Y-112615000D01*
X133415000Y-117715000D02*
X133415000Y-112615000D01*
%TO.C,TP1*%
X158365000Y-102635000D02*
G75*
G02*
X156965000Y-102635000I-700000J0D01*
G01*
X156965000Y-102635000D02*
G75*
G02*
X158365000Y-102635000I700000J0D01*
G01*
%TO.C,D6*%
X115130000Y-84875000D02*
X119015000Y-84875000D01*
X119015000Y-82605000D02*
X115130000Y-82605000D01*
X119015000Y-84875000D02*
X119015000Y-82605000D01*
%TO.C,C6*%
X129365000Y-108116248D02*
X129365000Y-108638752D01*
X130835000Y-108116248D02*
X130835000Y-108638752D01*
%TO.C,J2*%
X136815000Y-124035000D02*
X136815000Y-126695000D01*
X144495000Y-124035000D02*
X136815000Y-124035000D01*
X144495000Y-124035000D02*
X144495000Y-126695000D01*
X144495000Y-126695000D02*
X136815000Y-126695000D01*
X145765000Y-124035000D02*
X147095000Y-124035000D01*
X147095000Y-124035000D02*
X147095000Y-125365000D01*
%TO.C,C7*%
X119440000Y-122286252D02*
X119440000Y-121763748D01*
X120910000Y-122286252D02*
X120910000Y-121763748D01*
%TO.C,C2*%
X140830000Y-103753748D02*
X140830000Y-104276252D01*
X142300000Y-103753748D02*
X142300000Y-104276252D01*
D14*
%TO.C,U3*%
X122140000Y-94490000D02*
X122140000Y-94815000D01*
X122140000Y-94490000D02*
X122465000Y-94490000D01*
X122140000Y-101740000D02*
X122140000Y-101415000D01*
X122140000Y-101740000D02*
X122365000Y-101740000D01*
X129390000Y-94490000D02*
X129065000Y-94490000D01*
X129390000Y-94490000D02*
X129390000Y-94815000D01*
X129390000Y-101740000D02*
X129065000Y-101740000D01*
X129390000Y-101740000D02*
X129390000Y-101415000D01*
D15*
X122425000Y-102505000D02*
X121955000Y-102845000D01*
X121955000Y-102165000D01*
X122425000Y-102505000D01*
G36*
X122425000Y-102505000D02*
G01*
X121955000Y-102845000D01*
X121955000Y-102165000D01*
X122425000Y-102505000D01*
G37*
%TO.C,R1*%
X151052064Y-97440000D02*
X150597936Y-97440000D01*
X151052064Y-98910000D02*
X150597936Y-98910000D01*
%TO.C,D3*%
X115130000Y-87335000D02*
X119015000Y-87335000D01*
X119015000Y-85065000D02*
X115130000Y-85065000D01*
X119015000Y-87335000D02*
X119015000Y-85065000D01*
%TO.C,D2*%
X151675000Y-114950000D02*
X155560000Y-114950000D01*
X155560000Y-112680000D02*
X151675000Y-112680000D01*
X155560000Y-114950000D02*
X155560000Y-112680000D01*
%TO.C,R5*%
X122975000Y-79037064D02*
X122975000Y-78582936D01*
X124445000Y-79037064D02*
X124445000Y-78582936D01*
%TO.C,C8*%
X158230000Y-122966248D02*
X158230000Y-123488752D01*
X159700000Y-122966248D02*
X159700000Y-123488752D01*
%TO.C,R2*%
X135742064Y-97780000D02*
X135287936Y-97780000D01*
X135742064Y-99250000D02*
X135287936Y-99250000D01*
%TO.C,U1*%
X138715000Y-77505000D02*
X139115000Y-77505000D01*
X138715000Y-93705000D02*
X138715000Y-77505000D01*
X154515000Y-93705000D02*
X154915000Y-93705000D01*
X154915000Y-77505000D02*
X154515000Y-77505000D01*
X154915000Y-93705000D02*
X154915000Y-77505000D01*
X138915000Y-94205000D02*
X138579000Y-94445000D01*
X138579000Y-93965000D01*
X138915000Y-94205000D01*
G36*
X138915000Y-94205000D02*
G01*
X138579000Y-94445000D01*
X138579000Y-93965000D01*
X138915000Y-94205000D01*
G37*
%TO.C,C9*%
X121700000Y-122276252D02*
X121700000Y-121753748D01*
X123170000Y-122276252D02*
X123170000Y-121753748D01*
%TD*%
M02*
