%TF.GenerationSoftware,KiCad,Pcbnew,8.0.4-8.0.4-0~ubuntu24.04.1*%
%TF.CreationDate,2024-09-01T12:42:56+03:00*%
%TF.ProjectId,communication_body,636f6d6d-756e-4696-9361-74696f6e5f62,rev?*%
%TF.SameCoordinates,Original*%
%TF.FileFunction,Legend,Bot*%
%TF.FilePolarity,Positive*%
%FSLAX46Y46*%
G04 Gerber Fmt 4.6, Leading zero omitted, Abs format (unit mm)*
G04 Created by KiCad (PCBNEW 8.0.4-8.0.4-0~ubuntu24.04.1) date 2024-09-01 12:42:56*
%MOMM*%
%LPD*%
G01*
G04 APERTURE LIST*
%ADD10C,0.100000*%
%ADD11C,0.080000*%
G04 APERTURE END LIST*
D10*
X126500000Y-90100000D02*
X134200000Y-90100000D01*
X134200000Y-90100000D02*
X134200000Y-93000000D01*
X134200000Y-93000000D02*
X126500000Y-93000000D01*
X126500000Y-93000000D02*
X126500000Y-90100000D01*
D11*
X153566416Y-125658459D02*
X153614035Y-125634649D01*
X153614035Y-125634649D02*
X153685464Y-125634649D01*
X153685464Y-125634649D02*
X153756892Y-125658459D01*
X153756892Y-125658459D02*
X153804511Y-125706078D01*
X153804511Y-125706078D02*
X153828321Y-125753697D01*
X153828321Y-125753697D02*
X153852130Y-125848935D01*
X153852130Y-125848935D02*
X153852130Y-125920363D01*
X153852130Y-125920363D02*
X153828321Y-126015601D01*
X153828321Y-126015601D02*
X153804511Y-126063220D01*
X153804511Y-126063220D02*
X153756892Y-126110840D01*
X153756892Y-126110840D02*
X153685464Y-126134649D01*
X153685464Y-126134649D02*
X153637845Y-126134649D01*
X153637845Y-126134649D02*
X153566416Y-126110840D01*
X153566416Y-126110840D02*
X153542607Y-126087030D01*
X153542607Y-126087030D02*
X153542607Y-125920363D01*
X153542607Y-125920363D02*
X153637845Y-125920363D01*
X153328321Y-126134649D02*
X153328321Y-125634649D01*
X153328321Y-125634649D02*
X153042607Y-126134649D01*
X153042607Y-126134649D02*
X153042607Y-125634649D01*
X152804511Y-126134649D02*
X152804511Y-125634649D01*
X152804511Y-125634649D02*
X152685463Y-125634649D01*
X152685463Y-125634649D02*
X152614035Y-125658459D01*
X152614035Y-125658459D02*
X152566416Y-125706078D01*
X152566416Y-125706078D02*
X152542606Y-125753697D01*
X152542606Y-125753697D02*
X152518797Y-125848935D01*
X152518797Y-125848935D02*
X152518797Y-125920363D01*
X152518797Y-125920363D02*
X152542606Y-126015601D01*
X152542606Y-126015601D02*
X152566416Y-126063220D01*
X152566416Y-126063220D02*
X152614035Y-126110840D01*
X152614035Y-126110840D02*
X152685463Y-126134649D01*
X152685463Y-126134649D02*
X152804511Y-126134649D01*
X133528321Y-91134649D02*
X133528321Y-90634649D01*
X133528321Y-90634649D02*
X133361654Y-90991792D01*
X133361654Y-90991792D02*
X133194988Y-90634649D01*
X133194988Y-90634649D02*
X133194988Y-91134649D01*
X132956892Y-91134649D02*
X132956892Y-90634649D01*
X132742606Y-91110840D02*
X132671178Y-91134649D01*
X132671178Y-91134649D02*
X132552130Y-91134649D01*
X132552130Y-91134649D02*
X132504511Y-91110840D01*
X132504511Y-91110840D02*
X132480702Y-91087030D01*
X132480702Y-91087030D02*
X132456892Y-91039411D01*
X132456892Y-91039411D02*
X132456892Y-90991792D01*
X132456892Y-90991792D02*
X132480702Y-90944173D01*
X132480702Y-90944173D02*
X132504511Y-90920363D01*
X132504511Y-90920363D02*
X132552130Y-90896554D01*
X132552130Y-90896554D02*
X132647368Y-90872744D01*
X132647368Y-90872744D02*
X132694987Y-90848935D01*
X132694987Y-90848935D02*
X132718797Y-90825125D01*
X132718797Y-90825125D02*
X132742606Y-90777506D01*
X132742606Y-90777506D02*
X132742606Y-90729887D01*
X132742606Y-90729887D02*
X132718797Y-90682268D01*
X132718797Y-90682268D02*
X132694987Y-90658459D01*
X132694987Y-90658459D02*
X132647368Y-90634649D01*
X132647368Y-90634649D02*
X132528321Y-90634649D01*
X132528321Y-90634649D02*
X132456892Y-90658459D01*
X132147369Y-90634649D02*
X132052131Y-90634649D01*
X132052131Y-90634649D02*
X132004512Y-90658459D01*
X132004512Y-90658459D02*
X131956893Y-90706078D01*
X131956893Y-90706078D02*
X131933083Y-90801316D01*
X131933083Y-90801316D02*
X131933083Y-90967982D01*
X131933083Y-90967982D02*
X131956893Y-91063220D01*
X131956893Y-91063220D02*
X132004512Y-91110840D01*
X132004512Y-91110840D02*
X132052131Y-91134649D01*
X132052131Y-91134649D02*
X132147369Y-91134649D01*
X132147369Y-91134649D02*
X132194988Y-91110840D01*
X132194988Y-91110840D02*
X132242607Y-91063220D01*
X132242607Y-91063220D02*
X132266416Y-90967982D01*
X132266416Y-90967982D02*
X132266416Y-90801316D01*
X132266416Y-90801316D02*
X132242607Y-90706078D01*
X132242607Y-90706078D02*
X132194988Y-90658459D01*
X132194988Y-90658459D02*
X132147369Y-90634649D01*
X143542607Y-123434649D02*
X143709273Y-123196554D01*
X143828321Y-123434649D02*
X143828321Y-122934649D01*
X143828321Y-122934649D02*
X143637845Y-122934649D01*
X143637845Y-122934649D02*
X143590226Y-122958459D01*
X143590226Y-122958459D02*
X143566416Y-122982268D01*
X143566416Y-122982268D02*
X143542607Y-123029887D01*
X143542607Y-123029887D02*
X143542607Y-123101316D01*
X143542607Y-123101316D02*
X143566416Y-123148935D01*
X143566416Y-123148935D02*
X143590226Y-123172744D01*
X143590226Y-123172744D02*
X143637845Y-123196554D01*
X143637845Y-123196554D02*
X143828321Y-123196554D01*
X143375940Y-122934649D02*
X143042607Y-123434649D01*
X143042607Y-122934649D02*
X143375940Y-123434649D01*
X142852131Y-123434649D02*
X142852131Y-122934649D01*
X142852131Y-122934649D02*
X142733083Y-122934649D01*
X142733083Y-122934649D02*
X142661655Y-122958459D01*
X142661655Y-122958459D02*
X142614036Y-123006078D01*
X142614036Y-123006078D02*
X142590226Y-123053697D01*
X142590226Y-123053697D02*
X142566417Y-123148935D01*
X142566417Y-123148935D02*
X142566417Y-123220363D01*
X142566417Y-123220363D02*
X142590226Y-123315601D01*
X142590226Y-123315601D02*
X142614036Y-123363220D01*
X142614036Y-123363220D02*
X142661655Y-123410840D01*
X142661655Y-123410840D02*
X142733083Y-123434649D01*
X142733083Y-123434649D02*
X142852131Y-123434649D01*
X130566416Y-92058459D02*
X130614035Y-92034649D01*
X130614035Y-92034649D02*
X130685464Y-92034649D01*
X130685464Y-92034649D02*
X130756892Y-92058459D01*
X130756892Y-92058459D02*
X130804511Y-92106078D01*
X130804511Y-92106078D02*
X130828321Y-92153697D01*
X130828321Y-92153697D02*
X130852130Y-92248935D01*
X130852130Y-92248935D02*
X130852130Y-92320363D01*
X130852130Y-92320363D02*
X130828321Y-92415601D01*
X130828321Y-92415601D02*
X130804511Y-92463220D01*
X130804511Y-92463220D02*
X130756892Y-92510840D01*
X130756892Y-92510840D02*
X130685464Y-92534649D01*
X130685464Y-92534649D02*
X130637845Y-92534649D01*
X130637845Y-92534649D02*
X130566416Y-92510840D01*
X130566416Y-92510840D02*
X130542607Y-92487030D01*
X130542607Y-92487030D02*
X130542607Y-92320363D01*
X130542607Y-92320363D02*
X130637845Y-92320363D01*
X130328321Y-92534649D02*
X130328321Y-92034649D01*
X130328321Y-92034649D02*
X130042607Y-92534649D01*
X130042607Y-92534649D02*
X130042607Y-92034649D01*
X129804511Y-92534649D02*
X129804511Y-92034649D01*
X129804511Y-92034649D02*
X129685463Y-92034649D01*
X129685463Y-92034649D02*
X129614035Y-92058459D01*
X129614035Y-92058459D02*
X129566416Y-92106078D01*
X129566416Y-92106078D02*
X129542606Y-92153697D01*
X129542606Y-92153697D02*
X129518797Y-92248935D01*
X129518797Y-92248935D02*
X129518797Y-92320363D01*
X129518797Y-92320363D02*
X129542606Y-92415601D01*
X129542606Y-92415601D02*
X129566416Y-92463220D01*
X129566416Y-92463220D02*
X129614035Y-92510840D01*
X129614035Y-92510840D02*
X129685463Y-92534649D01*
X129685463Y-92534649D02*
X129804511Y-92534649D01*
X117234649Y-106300250D02*
X117234649Y-106585964D01*
X117734649Y-106443107D02*
X117234649Y-106443107D01*
X117734649Y-106705011D02*
X117401316Y-106966916D01*
X117401316Y-106705011D02*
X117734649Y-106966916D01*
X117466916Y-91703445D02*
X117466916Y-91465350D01*
X117300250Y-91965350D02*
X117466916Y-91703445D01*
X117466916Y-91703445D02*
X117633583Y-91965350D01*
X146475940Y-122934649D02*
X146166416Y-122934649D01*
X146166416Y-122934649D02*
X146333083Y-123125125D01*
X146333083Y-123125125D02*
X146261654Y-123125125D01*
X146261654Y-123125125D02*
X146214035Y-123148935D01*
X146214035Y-123148935D02*
X146190226Y-123172744D01*
X146190226Y-123172744D02*
X146166416Y-123220363D01*
X146166416Y-123220363D02*
X146166416Y-123339411D01*
X146166416Y-123339411D02*
X146190226Y-123387030D01*
X146190226Y-123387030D02*
X146214035Y-123410840D01*
X146214035Y-123410840D02*
X146261654Y-123434649D01*
X146261654Y-123434649D02*
X146404511Y-123434649D01*
X146404511Y-123434649D02*
X146452130Y-123410840D01*
X146452130Y-123410840D02*
X146475940Y-123387030D01*
X145952131Y-123387030D02*
X145928321Y-123410840D01*
X145928321Y-123410840D02*
X145952131Y-123434649D01*
X145952131Y-123434649D02*
X145975940Y-123410840D01*
X145975940Y-123410840D02*
X145952131Y-123387030D01*
X145952131Y-123387030D02*
X145952131Y-123434649D01*
X145761655Y-122934649D02*
X145452131Y-122934649D01*
X145452131Y-122934649D02*
X145618798Y-123125125D01*
X145618798Y-123125125D02*
X145547369Y-123125125D01*
X145547369Y-123125125D02*
X145499750Y-123148935D01*
X145499750Y-123148935D02*
X145475941Y-123172744D01*
X145475941Y-123172744D02*
X145452131Y-123220363D01*
X145452131Y-123220363D02*
X145452131Y-123339411D01*
X145452131Y-123339411D02*
X145475941Y-123387030D01*
X145475941Y-123387030D02*
X145499750Y-123410840D01*
X145499750Y-123410840D02*
X145547369Y-123434649D01*
X145547369Y-123434649D02*
X145690226Y-123434649D01*
X145690226Y-123434649D02*
X145737845Y-123410840D01*
X145737845Y-123410840D02*
X145761655Y-123387030D01*
X145309274Y-122934649D02*
X145142608Y-123434649D01*
X145142608Y-123434649D02*
X144975941Y-122934649D01*
X117509773Y-98865350D02*
X117271678Y-98865350D01*
X117271678Y-98865350D02*
X117271678Y-99365350D01*
X117866916Y-98889160D02*
X117819297Y-98865350D01*
X117819297Y-98865350D02*
X117724059Y-98865350D01*
X117724059Y-98865350D02*
X117676440Y-98889160D01*
X117676440Y-98889160D02*
X117652631Y-98936779D01*
X117652631Y-98936779D02*
X117652631Y-99127255D01*
X117652631Y-99127255D02*
X117676440Y-99174874D01*
X117676440Y-99174874D02*
X117724059Y-99198683D01*
X117724059Y-99198683D02*
X117819297Y-99198683D01*
X117819297Y-99198683D02*
X117866916Y-99174874D01*
X117866916Y-99174874D02*
X117890726Y-99127255D01*
X117890726Y-99127255D02*
X117890726Y-99079636D01*
X117890726Y-99079636D02*
X117652631Y-99032017D01*
X118057392Y-99198683D02*
X118176440Y-98865350D01*
X118176440Y-98865350D02*
X118295487Y-99198683D01*
X118676439Y-98889160D02*
X118628820Y-98865350D01*
X118628820Y-98865350D02*
X118533582Y-98865350D01*
X118533582Y-98865350D02*
X118485963Y-98889160D01*
X118485963Y-98889160D02*
X118462154Y-98936779D01*
X118462154Y-98936779D02*
X118462154Y-99127255D01*
X118462154Y-99127255D02*
X118485963Y-99174874D01*
X118485963Y-99174874D02*
X118533582Y-99198683D01*
X118533582Y-99198683D02*
X118628820Y-99198683D01*
X118628820Y-99198683D02*
X118676439Y-99174874D01*
X118676439Y-99174874D02*
X118700249Y-99127255D01*
X118700249Y-99127255D02*
X118700249Y-99079636D01*
X118700249Y-99079636D02*
X118462154Y-99032017D01*
X118985963Y-98865350D02*
X118938344Y-98889160D01*
X118938344Y-98889160D02*
X118914534Y-98936779D01*
X118914534Y-98936779D02*
X118914534Y-99365350D01*
X117271678Y-97465350D02*
X117271678Y-97965350D01*
X117509773Y-97798683D02*
X117509773Y-97465350D01*
X117509773Y-97751064D02*
X117533583Y-97774874D01*
X117533583Y-97774874D02*
X117581202Y-97798683D01*
X117581202Y-97798683D02*
X117652630Y-97798683D01*
X117652630Y-97798683D02*
X117700249Y-97774874D01*
X117700249Y-97774874D02*
X117724059Y-97727255D01*
X117724059Y-97727255D02*
X117724059Y-97465350D01*
X117890726Y-97798683D02*
X118081202Y-97798683D01*
X117962154Y-97965350D02*
X117962154Y-97536779D01*
X117962154Y-97536779D02*
X117985964Y-97489160D01*
X117985964Y-97489160D02*
X118033583Y-97465350D01*
X118033583Y-97465350D02*
X118081202Y-97465350D01*
X118247868Y-97512969D02*
X118271678Y-97489160D01*
X118271678Y-97489160D02*
X118247868Y-97465350D01*
X118247868Y-97465350D02*
X118224059Y-97489160D01*
X118224059Y-97489160D02*
X118247868Y-97512969D01*
X118247868Y-97512969D02*
X118247868Y-97465350D01*
X138466416Y-122958459D02*
X138514035Y-122934649D01*
X138514035Y-122934649D02*
X138585464Y-122934649D01*
X138585464Y-122934649D02*
X138656892Y-122958459D01*
X138656892Y-122958459D02*
X138704511Y-123006078D01*
X138704511Y-123006078D02*
X138728321Y-123053697D01*
X138728321Y-123053697D02*
X138752130Y-123148935D01*
X138752130Y-123148935D02*
X138752130Y-123220363D01*
X138752130Y-123220363D02*
X138728321Y-123315601D01*
X138728321Y-123315601D02*
X138704511Y-123363220D01*
X138704511Y-123363220D02*
X138656892Y-123410840D01*
X138656892Y-123410840D02*
X138585464Y-123434649D01*
X138585464Y-123434649D02*
X138537845Y-123434649D01*
X138537845Y-123434649D02*
X138466416Y-123410840D01*
X138466416Y-123410840D02*
X138442607Y-123387030D01*
X138442607Y-123387030D02*
X138442607Y-123220363D01*
X138442607Y-123220363D02*
X138537845Y-123220363D01*
X138228321Y-123434649D02*
X138228321Y-122934649D01*
X138228321Y-122934649D02*
X137942607Y-123434649D01*
X137942607Y-123434649D02*
X137942607Y-122934649D01*
X137704511Y-123434649D02*
X137704511Y-122934649D01*
X137704511Y-122934649D02*
X137585463Y-122934649D01*
X137585463Y-122934649D02*
X137514035Y-122958459D01*
X137514035Y-122958459D02*
X137466416Y-123006078D01*
X137466416Y-123006078D02*
X137442606Y-123053697D01*
X137442606Y-123053697D02*
X137418797Y-123148935D01*
X137418797Y-123148935D02*
X137418797Y-123220363D01*
X137418797Y-123220363D02*
X137442606Y-123315601D01*
X137442606Y-123315601D02*
X137466416Y-123363220D01*
X137466416Y-123363220D02*
X137514035Y-123410840D01*
X137514035Y-123410840D02*
X137585463Y-123434649D01*
X137585463Y-123434649D02*
X137704511Y-123434649D01*
X117734649Y-108057392D02*
X117496554Y-107890726D01*
X117734649Y-107771678D02*
X117234649Y-107771678D01*
X117234649Y-107771678D02*
X117234649Y-107962154D01*
X117234649Y-107962154D02*
X117258459Y-108009773D01*
X117258459Y-108009773D02*
X117282268Y-108033583D01*
X117282268Y-108033583D02*
X117329887Y-108057392D01*
X117329887Y-108057392D02*
X117401316Y-108057392D01*
X117401316Y-108057392D02*
X117448935Y-108033583D01*
X117448935Y-108033583D02*
X117472744Y-108009773D01*
X117472744Y-108009773D02*
X117496554Y-107962154D01*
X117496554Y-107962154D02*
X117496554Y-107771678D01*
X117734649Y-108224059D02*
X117401316Y-108485964D01*
X117401316Y-108224059D02*
X117734649Y-108485964D01*
X117324059Y-90465350D02*
X117657392Y-89965350D01*
X117657392Y-90465350D02*
X117324059Y-89965350D01*
X117533583Y-100941540D02*
X117485964Y-100965350D01*
X117485964Y-100965350D02*
X117414535Y-100965350D01*
X117414535Y-100965350D02*
X117343107Y-100941540D01*
X117343107Y-100941540D02*
X117295488Y-100893921D01*
X117295488Y-100893921D02*
X117271678Y-100846302D01*
X117271678Y-100846302D02*
X117247869Y-100751064D01*
X117247869Y-100751064D02*
X117247869Y-100679636D01*
X117247869Y-100679636D02*
X117271678Y-100584398D01*
X117271678Y-100584398D02*
X117295488Y-100536779D01*
X117295488Y-100536779D02*
X117343107Y-100489160D01*
X117343107Y-100489160D02*
X117414535Y-100465350D01*
X117414535Y-100465350D02*
X117462154Y-100465350D01*
X117462154Y-100465350D02*
X117533583Y-100489160D01*
X117533583Y-100489160D02*
X117557392Y-100512969D01*
X117557392Y-100512969D02*
X117557392Y-100679636D01*
X117557392Y-100679636D02*
X117462154Y-100679636D01*
X117771678Y-100465350D02*
X117771678Y-100965350D01*
X117771678Y-100965350D02*
X118057392Y-100465350D01*
X118057392Y-100465350D02*
X118057392Y-100965350D01*
X118295488Y-100465350D02*
X118295488Y-100965350D01*
X118295488Y-100965350D02*
X118414536Y-100965350D01*
X118414536Y-100965350D02*
X118485964Y-100941540D01*
X118485964Y-100941540D02*
X118533583Y-100893921D01*
X118533583Y-100893921D02*
X118557393Y-100846302D01*
X118557393Y-100846302D02*
X118581202Y-100751064D01*
X118581202Y-100751064D02*
X118581202Y-100679636D01*
X118581202Y-100679636D02*
X118557393Y-100584398D01*
X118557393Y-100584398D02*
X118533583Y-100536779D01*
X118533583Y-100536779D02*
X118485964Y-100489160D01*
X118485964Y-100489160D02*
X118414536Y-100465350D01*
X118414536Y-100465350D02*
X118295488Y-100465350D01*
X117258459Y-104733583D02*
X117234649Y-104685964D01*
X117234649Y-104685964D02*
X117234649Y-104614535D01*
X117234649Y-104614535D02*
X117258459Y-104543107D01*
X117258459Y-104543107D02*
X117306078Y-104495488D01*
X117306078Y-104495488D02*
X117353697Y-104471678D01*
X117353697Y-104471678D02*
X117448935Y-104447869D01*
X117448935Y-104447869D02*
X117520363Y-104447869D01*
X117520363Y-104447869D02*
X117615601Y-104471678D01*
X117615601Y-104471678D02*
X117663220Y-104495488D01*
X117663220Y-104495488D02*
X117710840Y-104543107D01*
X117710840Y-104543107D02*
X117734649Y-104614535D01*
X117734649Y-104614535D02*
X117734649Y-104662154D01*
X117734649Y-104662154D02*
X117710840Y-104733583D01*
X117710840Y-104733583D02*
X117687030Y-104757392D01*
X117687030Y-104757392D02*
X117520363Y-104757392D01*
X117520363Y-104757392D02*
X117520363Y-104662154D01*
X117734649Y-104971678D02*
X117234649Y-104971678D01*
X117234649Y-104971678D02*
X117734649Y-105257392D01*
X117734649Y-105257392D02*
X117234649Y-105257392D01*
X117734649Y-105495488D02*
X117234649Y-105495488D01*
X117234649Y-105495488D02*
X117234649Y-105614536D01*
X117234649Y-105614536D02*
X117258459Y-105685964D01*
X117258459Y-105685964D02*
X117306078Y-105733583D01*
X117306078Y-105733583D02*
X117353697Y-105757393D01*
X117353697Y-105757393D02*
X117448935Y-105781202D01*
X117448935Y-105781202D02*
X117520363Y-105781202D01*
X117520363Y-105781202D02*
X117615601Y-105757393D01*
X117615601Y-105757393D02*
X117663220Y-105733583D01*
X117663220Y-105733583D02*
X117710840Y-105685964D01*
X117710840Y-105685964D02*
X117734649Y-105614536D01*
X117734649Y-105614536D02*
X117734649Y-105495488D01*
X117271678Y-95965350D02*
X117271678Y-96465350D01*
X117509773Y-96298683D02*
X117509773Y-95965350D01*
X117509773Y-96251064D02*
X117533583Y-96274874D01*
X117533583Y-96274874D02*
X117581202Y-96298683D01*
X117581202Y-96298683D02*
X117652630Y-96298683D01*
X117652630Y-96298683D02*
X117700249Y-96274874D01*
X117700249Y-96274874D02*
X117724059Y-96227255D01*
X117724059Y-96227255D02*
X117724059Y-95965350D01*
X117962154Y-96298683D02*
X117962154Y-95798683D01*
X117962154Y-96274874D02*
X118009773Y-96298683D01*
X118009773Y-96298683D02*
X118105011Y-96298683D01*
X118105011Y-96298683D02*
X118152630Y-96274874D01*
X118152630Y-96274874D02*
X118176440Y-96251064D01*
X118176440Y-96251064D02*
X118200249Y-96203445D01*
X118200249Y-96203445D02*
X118200249Y-96060588D01*
X118200249Y-96060588D02*
X118176440Y-96012969D01*
X118176440Y-96012969D02*
X118152630Y-95989160D01*
X118152630Y-95989160D02*
X118105011Y-95965350D01*
X118105011Y-95965350D02*
X118009773Y-95965350D01*
X118009773Y-95965350D02*
X117962154Y-95989160D01*
X118628821Y-96298683D02*
X118628821Y-95965350D01*
X118414535Y-96298683D02*
X118414535Y-96036779D01*
X118414535Y-96036779D02*
X118438345Y-95989160D01*
X118438345Y-95989160D02*
X118485964Y-95965350D01*
X118485964Y-95965350D02*
X118557392Y-95965350D01*
X118557392Y-95965350D02*
X118605011Y-95989160D01*
X118605011Y-95989160D02*
X118628821Y-96012969D01*
X118795488Y-96298683D02*
X118985964Y-96298683D01*
X118866916Y-96465350D02*
X118866916Y-96036779D01*
X118866916Y-96036779D02*
X118890726Y-95989160D01*
X118890726Y-95989160D02*
X118938345Y-95965350D01*
X118938345Y-95965350D02*
X118985964Y-95965350D01*
X141299749Y-122934649D02*
X141014035Y-122934649D01*
X141156892Y-123434649D02*
X141156892Y-122934649D01*
X140894988Y-122934649D02*
X140561655Y-123434649D01*
X140561655Y-122934649D02*
X140894988Y-123434649D01*
X140371179Y-123434649D02*
X140371179Y-122934649D01*
X140371179Y-122934649D02*
X140252131Y-122934649D01*
X140252131Y-122934649D02*
X140180703Y-122958459D01*
X140180703Y-122958459D02*
X140133084Y-123006078D01*
X140133084Y-123006078D02*
X140109274Y-123053697D01*
X140109274Y-123053697D02*
X140085465Y-123148935D01*
X140085465Y-123148935D02*
X140085465Y-123220363D01*
X140085465Y-123220363D02*
X140109274Y-123315601D01*
X140109274Y-123315601D02*
X140133084Y-123363220D01*
X140133084Y-123363220D02*
X140180703Y-123410840D01*
X140180703Y-123410840D02*
X140252131Y-123434649D01*
X140252131Y-123434649D02*
X140371179Y-123434649D01*
X117366916Y-94965350D02*
X117462154Y-94965350D01*
X117462154Y-94965350D02*
X117509773Y-94941540D01*
X117509773Y-94941540D02*
X117557392Y-94893921D01*
X117557392Y-94893921D02*
X117581202Y-94798683D01*
X117581202Y-94798683D02*
X117581202Y-94632017D01*
X117581202Y-94632017D02*
X117557392Y-94536779D01*
X117557392Y-94536779D02*
X117509773Y-94489160D01*
X117509773Y-94489160D02*
X117462154Y-94465350D01*
X117462154Y-94465350D02*
X117366916Y-94465350D01*
X117366916Y-94465350D02*
X117319297Y-94489160D01*
X117319297Y-94489160D02*
X117271678Y-94536779D01*
X117271678Y-94536779D02*
X117247869Y-94632017D01*
X117247869Y-94632017D02*
X117247869Y-94798683D01*
X117247869Y-94798683D02*
X117271678Y-94893921D01*
X117271678Y-94893921D02*
X117319297Y-94941540D01*
X117319297Y-94941540D02*
X117366916Y-94965350D01*
X118009774Y-94798683D02*
X118009774Y-94465350D01*
X117795488Y-94798683D02*
X117795488Y-94536779D01*
X117795488Y-94536779D02*
X117819298Y-94489160D01*
X117819298Y-94489160D02*
X117866917Y-94465350D01*
X117866917Y-94465350D02*
X117938345Y-94465350D01*
X117938345Y-94465350D02*
X117985964Y-94489160D01*
X117985964Y-94489160D02*
X118009774Y-94512969D01*
X118176441Y-94798683D02*
X118366917Y-94798683D01*
X118247869Y-94965350D02*
X118247869Y-94536779D01*
X118247869Y-94536779D02*
X118271679Y-94489160D01*
X118271679Y-94489160D02*
X118319298Y-94465350D01*
X118319298Y-94465350D02*
X118366917Y-94465350D01*
X118533583Y-94798683D02*
X118533583Y-94298683D01*
X118533583Y-94774874D02*
X118581202Y-94798683D01*
X118581202Y-94798683D02*
X118676440Y-94798683D01*
X118676440Y-94798683D02*
X118724059Y-94774874D01*
X118724059Y-94774874D02*
X118747869Y-94751064D01*
X118747869Y-94751064D02*
X118771678Y-94703445D01*
X118771678Y-94703445D02*
X118771678Y-94560588D01*
X118771678Y-94560588D02*
X118747869Y-94512969D01*
X118747869Y-94512969D02*
X118724059Y-94489160D01*
X118724059Y-94489160D02*
X118676440Y-94465350D01*
X118676440Y-94465350D02*
X118581202Y-94465350D01*
X118581202Y-94465350D02*
X118533583Y-94489160D01*
X119200250Y-94798683D02*
X119200250Y-94465350D01*
X118985964Y-94798683D02*
X118985964Y-94536779D01*
X118985964Y-94536779D02*
X119009774Y-94489160D01*
X119009774Y-94489160D02*
X119057393Y-94465350D01*
X119057393Y-94465350D02*
X119128821Y-94465350D01*
X119128821Y-94465350D02*
X119176440Y-94489160D01*
X119176440Y-94489160D02*
X119200250Y-94512969D01*
X119366917Y-94798683D02*
X119557393Y-94798683D01*
X119438345Y-94965350D02*
X119438345Y-94536779D01*
X119438345Y-94536779D02*
X119462155Y-94489160D01*
X119462155Y-94489160D02*
X119509774Y-94465350D01*
X119509774Y-94465350D02*
X119557393Y-94465350D01*
X151190226Y-125634649D02*
X151428321Y-125634649D01*
X151428321Y-125634649D02*
X151452130Y-125872744D01*
X151452130Y-125872744D02*
X151428321Y-125848935D01*
X151428321Y-125848935D02*
X151380702Y-125825125D01*
X151380702Y-125825125D02*
X151261654Y-125825125D01*
X151261654Y-125825125D02*
X151214035Y-125848935D01*
X151214035Y-125848935D02*
X151190226Y-125872744D01*
X151190226Y-125872744D02*
X151166416Y-125920363D01*
X151166416Y-125920363D02*
X151166416Y-126039411D01*
X151166416Y-126039411D02*
X151190226Y-126087030D01*
X151190226Y-126087030D02*
X151214035Y-126110840D01*
X151214035Y-126110840D02*
X151261654Y-126134649D01*
X151261654Y-126134649D02*
X151380702Y-126134649D01*
X151380702Y-126134649D02*
X151428321Y-126110840D01*
X151428321Y-126110840D02*
X151452130Y-126087030D01*
X151023559Y-125634649D02*
X150856893Y-126134649D01*
X150856893Y-126134649D02*
X150690226Y-125634649D01*
X130942607Y-91134649D02*
X131109273Y-90896554D01*
X131228321Y-91134649D02*
X131228321Y-90634649D01*
X131228321Y-90634649D02*
X131037845Y-90634649D01*
X131037845Y-90634649D02*
X130990226Y-90658459D01*
X130990226Y-90658459D02*
X130966416Y-90682268D01*
X130966416Y-90682268D02*
X130942607Y-90729887D01*
X130942607Y-90729887D02*
X130942607Y-90801316D01*
X130942607Y-90801316D02*
X130966416Y-90848935D01*
X130966416Y-90848935D02*
X130990226Y-90872744D01*
X130990226Y-90872744D02*
X131037845Y-90896554D01*
X131037845Y-90896554D02*
X131228321Y-90896554D01*
X130728321Y-90872744D02*
X130561654Y-90872744D01*
X130490226Y-91134649D02*
X130728321Y-91134649D01*
X130728321Y-91134649D02*
X130728321Y-90634649D01*
X130728321Y-90634649D02*
X130490226Y-90634649D01*
X130299749Y-91110840D02*
X130228321Y-91134649D01*
X130228321Y-91134649D02*
X130109273Y-91134649D01*
X130109273Y-91134649D02*
X130061654Y-91110840D01*
X130061654Y-91110840D02*
X130037845Y-91087030D01*
X130037845Y-91087030D02*
X130014035Y-91039411D01*
X130014035Y-91039411D02*
X130014035Y-90991792D01*
X130014035Y-90991792D02*
X130037845Y-90944173D01*
X130037845Y-90944173D02*
X130061654Y-90920363D01*
X130061654Y-90920363D02*
X130109273Y-90896554D01*
X130109273Y-90896554D02*
X130204511Y-90872744D01*
X130204511Y-90872744D02*
X130252130Y-90848935D01*
X130252130Y-90848935D02*
X130275940Y-90825125D01*
X130275940Y-90825125D02*
X130299749Y-90777506D01*
X130299749Y-90777506D02*
X130299749Y-90729887D01*
X130299749Y-90729887D02*
X130275940Y-90682268D01*
X130275940Y-90682268D02*
X130252130Y-90658459D01*
X130252130Y-90658459D02*
X130204511Y-90634649D01*
X130204511Y-90634649D02*
X130085464Y-90634649D01*
X130085464Y-90634649D02*
X130014035Y-90658459D01*
X129799750Y-90872744D02*
X129633083Y-90872744D01*
X129561655Y-91134649D02*
X129799750Y-91134649D01*
X129799750Y-91134649D02*
X129799750Y-90634649D01*
X129799750Y-90634649D02*
X129561655Y-90634649D01*
X129418797Y-90634649D02*
X129133083Y-90634649D01*
X129275940Y-91134649D02*
X129275940Y-90634649D01*
X117324059Y-93465350D02*
X117657392Y-93465350D01*
X117657392Y-93465350D02*
X117324059Y-92965350D01*
X117324059Y-92965350D02*
X117657392Y-92965350D01*
X117734649Y-109271678D02*
X117234649Y-109271678D01*
X117401316Y-109509773D02*
X117734649Y-109509773D01*
X117448935Y-109509773D02*
X117425125Y-109533583D01*
X117425125Y-109533583D02*
X117401316Y-109581202D01*
X117401316Y-109581202D02*
X117401316Y-109652630D01*
X117401316Y-109652630D02*
X117425125Y-109700249D01*
X117425125Y-109700249D02*
X117472744Y-109724059D01*
X117472744Y-109724059D02*
X117734649Y-109724059D01*
X117401316Y-109890726D02*
X117401316Y-110081202D01*
X117234649Y-109962154D02*
X117663220Y-109962154D01*
X117663220Y-109962154D02*
X117710840Y-109985964D01*
X117710840Y-109985964D02*
X117734649Y-110033583D01*
X117734649Y-110033583D02*
X117734649Y-110081202D01*
X117687030Y-110247868D02*
X117710840Y-110271678D01*
X117710840Y-110271678D02*
X117734649Y-110247868D01*
X117734649Y-110247868D02*
X117710840Y-110224059D01*
X117710840Y-110224059D02*
X117687030Y-110247868D01*
X117687030Y-110247868D02*
X117734649Y-110247868D01*
X133552130Y-92510840D02*
X133480702Y-92534649D01*
X133480702Y-92534649D02*
X133361654Y-92534649D01*
X133361654Y-92534649D02*
X133314035Y-92510840D01*
X133314035Y-92510840D02*
X133290226Y-92487030D01*
X133290226Y-92487030D02*
X133266416Y-92439411D01*
X133266416Y-92439411D02*
X133266416Y-92391792D01*
X133266416Y-92391792D02*
X133290226Y-92344173D01*
X133290226Y-92344173D02*
X133314035Y-92320363D01*
X133314035Y-92320363D02*
X133361654Y-92296554D01*
X133361654Y-92296554D02*
X133456892Y-92272744D01*
X133456892Y-92272744D02*
X133504511Y-92248935D01*
X133504511Y-92248935D02*
X133528321Y-92225125D01*
X133528321Y-92225125D02*
X133552130Y-92177506D01*
X133552130Y-92177506D02*
X133552130Y-92129887D01*
X133552130Y-92129887D02*
X133528321Y-92082268D01*
X133528321Y-92082268D02*
X133504511Y-92058459D01*
X133504511Y-92058459D02*
X133456892Y-92034649D01*
X133456892Y-92034649D02*
X133337845Y-92034649D01*
X133337845Y-92034649D02*
X133266416Y-92058459D01*
X132766417Y-92487030D02*
X132790226Y-92510840D01*
X132790226Y-92510840D02*
X132861655Y-92534649D01*
X132861655Y-92534649D02*
X132909274Y-92534649D01*
X132909274Y-92534649D02*
X132980702Y-92510840D01*
X132980702Y-92510840D02*
X133028321Y-92463220D01*
X133028321Y-92463220D02*
X133052131Y-92415601D01*
X133052131Y-92415601D02*
X133075940Y-92320363D01*
X133075940Y-92320363D02*
X133075940Y-92248935D01*
X133075940Y-92248935D02*
X133052131Y-92153697D01*
X133052131Y-92153697D02*
X133028321Y-92106078D01*
X133028321Y-92106078D02*
X132980702Y-92058459D01*
X132980702Y-92058459D02*
X132909274Y-92034649D01*
X132909274Y-92034649D02*
X132861655Y-92034649D01*
X132861655Y-92034649D02*
X132790226Y-92058459D01*
X132790226Y-92058459D02*
X132766417Y-92082268D01*
X132314036Y-92534649D02*
X132552131Y-92534649D01*
X132552131Y-92534649D02*
X132552131Y-92034649D01*
X132147369Y-92534649D02*
X132147369Y-92034649D01*
X131861655Y-92534649D02*
X132075940Y-92248935D01*
X131861655Y-92034649D02*
X132147369Y-92320363D01*
X128428321Y-91134649D02*
X128428321Y-90634649D01*
X128428321Y-90634649D02*
X128261654Y-90991792D01*
X128261654Y-90991792D02*
X128094988Y-90634649D01*
X128094988Y-90634649D02*
X128094988Y-91134649D01*
X127761654Y-90634649D02*
X127666416Y-90634649D01*
X127666416Y-90634649D02*
X127618797Y-90658459D01*
X127618797Y-90658459D02*
X127571178Y-90706078D01*
X127571178Y-90706078D02*
X127547368Y-90801316D01*
X127547368Y-90801316D02*
X127547368Y-90967982D01*
X127547368Y-90967982D02*
X127571178Y-91063220D01*
X127571178Y-91063220D02*
X127618797Y-91110840D01*
X127618797Y-91110840D02*
X127666416Y-91134649D01*
X127666416Y-91134649D02*
X127761654Y-91134649D01*
X127761654Y-91134649D02*
X127809273Y-91110840D01*
X127809273Y-91110840D02*
X127856892Y-91063220D01*
X127856892Y-91063220D02*
X127880701Y-90967982D01*
X127880701Y-90967982D02*
X127880701Y-90801316D01*
X127880701Y-90801316D02*
X127856892Y-90706078D01*
X127856892Y-90706078D02*
X127809273Y-90658459D01*
X127809273Y-90658459D02*
X127761654Y-90634649D01*
X127356891Y-91110840D02*
X127285463Y-91134649D01*
X127285463Y-91134649D02*
X127166415Y-91134649D01*
X127166415Y-91134649D02*
X127118796Y-91110840D01*
X127118796Y-91110840D02*
X127094987Y-91087030D01*
X127094987Y-91087030D02*
X127071177Y-91039411D01*
X127071177Y-91039411D02*
X127071177Y-90991792D01*
X127071177Y-90991792D02*
X127094987Y-90944173D01*
X127094987Y-90944173D02*
X127118796Y-90920363D01*
X127118796Y-90920363D02*
X127166415Y-90896554D01*
X127166415Y-90896554D02*
X127261653Y-90872744D01*
X127261653Y-90872744D02*
X127309272Y-90848935D01*
X127309272Y-90848935D02*
X127333082Y-90825125D01*
X127333082Y-90825125D02*
X127356891Y-90777506D01*
X127356891Y-90777506D02*
X127356891Y-90729887D01*
X127356891Y-90729887D02*
X127333082Y-90682268D01*
X127333082Y-90682268D02*
X127309272Y-90658459D01*
X127309272Y-90658459D02*
X127261653Y-90634649D01*
X127261653Y-90634649D02*
X127142606Y-90634649D01*
X127142606Y-90634649D02*
X127071177Y-90658459D01*
X126856892Y-91134649D02*
X126856892Y-90634649D01*
X128475940Y-92034649D02*
X128166416Y-92034649D01*
X128166416Y-92034649D02*
X128333083Y-92225125D01*
X128333083Y-92225125D02*
X128261654Y-92225125D01*
X128261654Y-92225125D02*
X128214035Y-92248935D01*
X128214035Y-92248935D02*
X128190226Y-92272744D01*
X128190226Y-92272744D02*
X128166416Y-92320363D01*
X128166416Y-92320363D02*
X128166416Y-92439411D01*
X128166416Y-92439411D02*
X128190226Y-92487030D01*
X128190226Y-92487030D02*
X128214035Y-92510840D01*
X128214035Y-92510840D02*
X128261654Y-92534649D01*
X128261654Y-92534649D02*
X128404511Y-92534649D01*
X128404511Y-92534649D02*
X128452130Y-92510840D01*
X128452130Y-92510840D02*
X128475940Y-92487030D01*
X127952131Y-92487030D02*
X127928321Y-92510840D01*
X127928321Y-92510840D02*
X127952131Y-92534649D01*
X127952131Y-92534649D02*
X127975940Y-92510840D01*
X127975940Y-92510840D02*
X127952131Y-92487030D01*
X127952131Y-92487030D02*
X127952131Y-92534649D01*
X127761655Y-92034649D02*
X127452131Y-92034649D01*
X127452131Y-92034649D02*
X127618798Y-92225125D01*
X127618798Y-92225125D02*
X127547369Y-92225125D01*
X127547369Y-92225125D02*
X127499750Y-92248935D01*
X127499750Y-92248935D02*
X127475941Y-92272744D01*
X127475941Y-92272744D02*
X127452131Y-92320363D01*
X127452131Y-92320363D02*
X127452131Y-92439411D01*
X127452131Y-92439411D02*
X127475941Y-92487030D01*
X127475941Y-92487030D02*
X127499750Y-92510840D01*
X127499750Y-92510840D02*
X127547369Y-92534649D01*
X127547369Y-92534649D02*
X127690226Y-92534649D01*
X127690226Y-92534649D02*
X127737845Y-92510840D01*
X127737845Y-92510840D02*
X127761655Y-92487030D01*
X127309274Y-92034649D02*
X127142608Y-92534649D01*
X127142608Y-92534649D02*
X126975941Y-92034649D01*
M02*
