%TF.GenerationSoftware,KiCad,Pcbnew,8.0.3-8.0.3-0~ubuntu22.04.1*%
%TF.CreationDate,2024-08-07T12:50:07+03:00*%
%TF.ProjectId,communication_body,636f6d6d-756e-4696-9361-74696f6e5f62,rev?*%
%TF.SameCoordinates,Original*%
%TF.FileFunction,Drillmap*%
%TF.FilePolarity,Positive*%
%FSLAX45Y45*%
G04 Gerber Fmt 4.5, Leading zero omitted, Abs format (unit mm)*
G04 Created by KiCad (PCBNEW 8.0.3-8.0.3-0~ubuntu22.04.1) date 2024-08-07 12:50:07*
%MOMM*%
%LPD*%
G01*
G04 APERTURE LIST*
%ADD10C,0.050000*%
%ADD11C,0.200000*%
G04 APERTURE END LIST*
D10*
X15966500Y-7346500D02*
G75*
G02*
X16216500Y-7596500I0J-250000D01*
G01*
X11466500Y-12846500D02*
G75*
G02*
X11216500Y-12596500I0J250000D01*
G01*
X15966500Y-12846500D02*
X11466500Y-12846500D01*
X11216500Y-12596500D02*
X11216500Y-7596500D01*
X16216500Y-7596500D02*
X16216500Y-12596500D01*
X11466500Y-7346500D02*
X15966500Y-7346500D01*
X16216500Y-12596500D02*
G75*
G02*
X15966500Y-12846500I-250000J0D01*
G01*
X11216500Y-7596500D02*
G75*
G02*
X11466500Y-7346500I250000J0D01*
G01*
D11*
X11474777Y-13160484D02*
X11474777Y-12960484D01*
X11474777Y-12960484D02*
X11522396Y-12960484D01*
X11522396Y-12960484D02*
X11550967Y-12970008D01*
X11550967Y-12970008D02*
X11570015Y-12989055D01*
X11570015Y-12989055D02*
X11579539Y-13008103D01*
X11579539Y-13008103D02*
X11589062Y-13046198D01*
X11589062Y-13046198D02*
X11589062Y-13074769D01*
X11589062Y-13074769D02*
X11579539Y-13112865D01*
X11579539Y-13112865D02*
X11570015Y-13131912D01*
X11570015Y-13131912D02*
X11550967Y-13150960D01*
X11550967Y-13150960D02*
X11522396Y-13160484D01*
X11522396Y-13160484D02*
X11474777Y-13160484D01*
X11674777Y-13160484D02*
X11674777Y-13027150D01*
X11674777Y-13065246D02*
X11684301Y-13046198D01*
X11684301Y-13046198D02*
X11693824Y-13036674D01*
X11693824Y-13036674D02*
X11712872Y-13027150D01*
X11712872Y-13027150D02*
X11731920Y-13027150D01*
X11798586Y-13160484D02*
X11798586Y-13027150D01*
X11798586Y-12960484D02*
X11789062Y-12970008D01*
X11789062Y-12970008D02*
X11798586Y-12979531D01*
X11798586Y-12979531D02*
X11808110Y-12970008D01*
X11808110Y-12970008D02*
X11798586Y-12960484D01*
X11798586Y-12960484D02*
X11798586Y-12979531D01*
X11922396Y-13160484D02*
X11903348Y-13150960D01*
X11903348Y-13150960D02*
X11893824Y-13131912D01*
X11893824Y-13131912D02*
X11893824Y-12960484D01*
X12027158Y-13160484D02*
X12008110Y-13150960D01*
X12008110Y-13150960D02*
X11998586Y-13131912D01*
X11998586Y-13131912D02*
X11998586Y-12960484D01*
X12255729Y-13160484D02*
X12255729Y-12960484D01*
X12255729Y-12960484D02*
X12322396Y-13103341D01*
X12322396Y-13103341D02*
X12389062Y-12960484D01*
X12389062Y-12960484D02*
X12389062Y-13160484D01*
X12570015Y-13160484D02*
X12570015Y-13055722D01*
X12570015Y-13055722D02*
X12560491Y-13036674D01*
X12560491Y-13036674D02*
X12541443Y-13027150D01*
X12541443Y-13027150D02*
X12503348Y-13027150D01*
X12503348Y-13027150D02*
X12484301Y-13036674D01*
X12570015Y-13150960D02*
X12550967Y-13160484D01*
X12550967Y-13160484D02*
X12503348Y-13160484D01*
X12503348Y-13160484D02*
X12484301Y-13150960D01*
X12484301Y-13150960D02*
X12474777Y-13131912D01*
X12474777Y-13131912D02*
X12474777Y-13112865D01*
X12474777Y-13112865D02*
X12484301Y-13093817D01*
X12484301Y-13093817D02*
X12503348Y-13084293D01*
X12503348Y-13084293D02*
X12550967Y-13084293D01*
X12550967Y-13084293D02*
X12570015Y-13074769D01*
X12665253Y-13027150D02*
X12665253Y-13227150D01*
X12665253Y-13036674D02*
X12684301Y-13027150D01*
X12684301Y-13027150D02*
X12722396Y-13027150D01*
X12722396Y-13027150D02*
X12741443Y-13036674D01*
X12741443Y-13036674D02*
X12750967Y-13046198D01*
X12750967Y-13046198D02*
X12760491Y-13065246D01*
X12760491Y-13065246D02*
X12760491Y-13122388D01*
X12760491Y-13122388D02*
X12750967Y-13141436D01*
X12750967Y-13141436D02*
X12741443Y-13150960D01*
X12741443Y-13150960D02*
X12722396Y-13160484D01*
X12722396Y-13160484D02*
X12684301Y-13160484D01*
X12684301Y-13160484D02*
X12665253Y-13150960D01*
X12846205Y-13141436D02*
X12855729Y-13150960D01*
X12855729Y-13150960D02*
X12846205Y-13160484D01*
X12846205Y-13160484D02*
X12836682Y-13150960D01*
X12836682Y-13150960D02*
X12846205Y-13141436D01*
X12846205Y-13141436D02*
X12846205Y-13160484D01*
X12846205Y-13036674D02*
X12855729Y-13046198D01*
X12855729Y-13046198D02*
X12846205Y-13055722D01*
X12846205Y-13055722D02*
X12836682Y-13046198D01*
X12836682Y-13046198D02*
X12846205Y-13036674D01*
X12846205Y-13036674D02*
X12846205Y-13055722D01*
M02*
