%TF.GenerationSoftware,KiCad,Pcbnew,8.0.4-8.0.4-0~ubuntu24.04.1*%
%TF.CreationDate,2024-08-31T18:15:16+03:00*%
%TF.ProjectId,ground_control_using_pc,67726f75-6e64-45f6-936f-6e74726f6c5f,rev?*%
%TF.SameCoordinates,Original*%
%TF.FileFunction,Other,User*%
%FSLAX46Y46*%
G04 Gerber Fmt 4.6, Leading zero omitted, Abs format (unit mm)*
G04 Created by KiCad (PCBNEW 8.0.4-8.0.4-0~ubuntu24.04.1) date 2024-08-31 18:15:16*
%MOMM*%
%LPD*%
G01*
G04 APERTURE LIST*
%ADD10C,0.050000*%
G04 APERTURE END LIST*
D10*
%TO.C,C10*%
X158480000Y-102650000D02*
X162240000Y-102650000D01*
X158480000Y-104610000D02*
X158480000Y-102650000D01*
X162240000Y-102650000D02*
X162240000Y-104610000D01*
X162240000Y-104610000D02*
X158480000Y-104610000D01*
%TO.C,H4*%
X204650000Y-104000000D02*
G75*
G02*
X200350000Y-104000000I-2150000J0D01*
G01*
X200350000Y-104000000D02*
G75*
G02*
X204650000Y-104000000I2150000J0D01*
G01*
%TO.C,D4*%
X156520000Y-80950000D02*
X158760000Y-80950000D01*
X156520000Y-85510000D02*
X156520000Y-80950000D01*
X158760000Y-80950000D02*
X158760000Y-85510000D01*
X158760000Y-85510000D02*
X156520000Y-85510000D01*
%TO.C,C7*%
X190555000Y-102260000D02*
X190555000Y-104360000D01*
X190555000Y-104360000D02*
X191405000Y-104360000D01*
X191405000Y-102060000D02*
X191405000Y-102260000D01*
X191405000Y-102060000D02*
X192555000Y-100910000D01*
X191405000Y-102260000D02*
X190555000Y-102260000D01*
X191405000Y-104360000D02*
X191405000Y-104560000D01*
X191405000Y-104560000D02*
X192555000Y-105710000D01*
X192555000Y-100910000D02*
X196205000Y-100910000D01*
X192555000Y-105710000D02*
X196205000Y-105710000D01*
X196205000Y-100910000D02*
X196205000Y-102260000D01*
X196205000Y-102260000D02*
X197055000Y-102260000D01*
X196205000Y-104360000D02*
X196205000Y-105710000D01*
X197055000Y-102260000D02*
X197055000Y-104360000D01*
X197055000Y-104360000D02*
X196205000Y-104360000D01*
%TO.C,R4*%
X159060000Y-74790000D02*
X160960000Y-74790000D01*
X159060000Y-78490000D02*
X159060000Y-74790000D01*
X160960000Y-74790000D02*
X160960000Y-78490000D01*
X160960000Y-78490000D02*
X159060000Y-78490000D01*
%TO.C,C2*%
X181360000Y-79577500D02*
X183320000Y-79577500D01*
X181360000Y-83337500D02*
X181360000Y-79577500D01*
X183320000Y-79577500D02*
X183320000Y-83337500D01*
X183320000Y-83337500D02*
X181360000Y-83337500D01*
%TO.C,U2*%
X198432500Y-77240000D02*
X198432500Y-86040000D01*
X198432500Y-86040000D02*
X205632500Y-86040000D01*
X205632500Y-77240000D02*
X198432500Y-77240000D01*
X205632500Y-86040000D02*
X205632500Y-77240000D01*
%TO.C,C5*%
X153000000Y-74762500D02*
X154960000Y-74762500D01*
X153000000Y-78522500D02*
X153000000Y-74762500D01*
X154960000Y-74762500D02*
X154960000Y-78522500D01*
X154960000Y-78522500D02*
X153000000Y-78522500D01*
%TO.C,R3*%
X157070000Y-74790000D02*
X158970000Y-74790000D01*
X157070000Y-78490000D02*
X157070000Y-74790000D01*
X158970000Y-74790000D02*
X158970000Y-78490000D01*
X158970000Y-78490000D02*
X157070000Y-78490000D01*
%TO.C,U1*%
X163775000Y-68695000D02*
X163775000Y-79095000D01*
X163775000Y-79095000D02*
X171175000Y-79095000D01*
X171175000Y-68695000D02*
X163775000Y-68695000D01*
X171175000Y-79095000D02*
X171175000Y-68695000D01*
%TO.C,SW1*%
X192920000Y-70230000D02*
X197020000Y-70230000D01*
X192920000Y-80030000D02*
X192920000Y-70230000D01*
X197020000Y-70230000D02*
X197020000Y-80030000D01*
X197020000Y-80030000D02*
X192920000Y-80030000D01*
%TO.C,U4*%
X178625000Y-83950000D02*
X197125000Y-83950000D01*
X178625000Y-100450000D02*
X178625000Y-83950000D01*
X178625000Y-100450000D02*
X197125000Y-100450000D01*
X197125000Y-83950000D02*
X197125000Y-100450000D01*
%TO.C,C6*%
X161110000Y-74760000D02*
X163070000Y-74760000D01*
X161110000Y-78520000D02*
X161110000Y-74760000D01*
X163070000Y-74760000D02*
X163070000Y-78520000D01*
X163070000Y-78520000D02*
X161110000Y-78520000D01*
%TO.C,J6*%
X164210000Y-80450000D02*
X164210000Y-86600000D01*
X164210000Y-86600000D02*
X172860000Y-86600000D01*
X172860000Y-80450000D02*
X164210000Y-80450000D01*
X172860000Y-86600000D02*
X172860000Y-80450000D01*
%TO.C,H1*%
X157150000Y-71200000D02*
G75*
G02*
X152850000Y-71200000I-2150000J0D01*
G01*
X152850000Y-71200000D02*
G75*
G02*
X157150000Y-71200000I2150000J0D01*
G01*
%TO.C,H2*%
X157150000Y-104000000D02*
G75*
G02*
X152850000Y-104000000I-2150000J0D01*
G01*
X152850000Y-104000000D02*
G75*
G02*
X157150000Y-104000000I2150000J0D01*
G01*
%TO.C,R5*%
X161510000Y-88060000D02*
X163410000Y-88060000D01*
X161510000Y-91760000D02*
X161510000Y-88060000D01*
X163410000Y-88060000D02*
X163410000Y-91760000D01*
X163410000Y-91760000D02*
X161510000Y-91760000D01*
%TO.C,C9*%
X176917500Y-102810000D02*
X180677500Y-102810000D01*
X176917500Y-104770000D02*
X176917500Y-102810000D01*
X180677500Y-102810000D02*
X180677500Y-104770000D01*
X180677500Y-104770000D02*
X176917500Y-104770000D01*
%TO.C,U3*%
X164100000Y-87550000D02*
X174700000Y-87550000D01*
X164100000Y-98150000D02*
X164100000Y-87550000D01*
X164100000Y-98150000D02*
X174700000Y-98150000D01*
X174700000Y-98150000D02*
X174700000Y-87550000D01*
%TO.C,AE1*%
X201040000Y-88750000D02*
X205820000Y-88750000D01*
X201040000Y-93530000D02*
X201040000Y-88750000D01*
X201040000Y-93530000D02*
X205820000Y-93530000D01*
X205820000Y-93530000D02*
X205820000Y-88750000D01*
%TO.C,H3*%
X204650000Y-71000000D02*
G75*
G02*
X200350000Y-71000000I-2150000J0D01*
G01*
X200350000Y-71000000D02*
G75*
G02*
X204650000Y-71000000I2150000J0D01*
G01*
%TO.C,D3*%
X154130000Y-80940000D02*
X156370000Y-80940000D01*
X154130000Y-85500000D02*
X154130000Y-80940000D01*
X156370000Y-80940000D02*
X156370000Y-85500000D01*
X156370000Y-85500000D02*
X154130000Y-85500000D01*
%TO.C,R6*%
X177000000Y-100620000D02*
X180700000Y-100620000D01*
X177000000Y-102520000D02*
X177000000Y-100620000D01*
X180700000Y-100620000D02*
X180700000Y-102520000D01*
X180700000Y-102520000D02*
X177000000Y-102520000D01*
%TO.C,C1*%
X178360000Y-76882500D02*
X180320000Y-76882500D01*
X178360000Y-80642500D02*
X178360000Y-76882500D01*
X180320000Y-76882500D02*
X180320000Y-80642500D01*
X180320000Y-80642500D02*
X178360000Y-80642500D01*
%TO.C,R1*%
X183460000Y-79620000D02*
X185360000Y-79620000D01*
X183460000Y-83320000D02*
X183460000Y-79620000D01*
X185360000Y-79620000D02*
X185360000Y-83320000D01*
X185360000Y-83320000D02*
X183460000Y-83320000D01*
%TO.C,Y1*%
X172945000Y-68750000D02*
X172945000Y-82350000D01*
X172945000Y-82350000D02*
X178145000Y-82350000D01*
X178145000Y-68750000D02*
X172945000Y-68750000D01*
X178145000Y-82350000D02*
X178145000Y-68750000D01*
%TO.C,J2*%
X182670000Y-73060000D02*
X182670000Y-66530000D01*
X191570000Y-66530000D02*
X182670000Y-66530000D01*
X191570000Y-73060000D02*
X182670000Y-73060000D01*
X191570000Y-73060000D02*
X191570000Y-66530000D01*
%TO.C,J5*%
X155470000Y-89040000D02*
X155470000Y-100240000D01*
X155470000Y-100240000D02*
X159070000Y-100240000D01*
X159070000Y-89040000D02*
X155470000Y-89040000D01*
X159070000Y-100240000D02*
X159070000Y-89040000D01*
%TO.C,D6*%
X161350000Y-80960000D02*
X163590000Y-80960000D01*
X161350000Y-85520000D02*
X161350000Y-80960000D01*
X163590000Y-80960000D02*
X163590000Y-85520000D01*
X163590000Y-85520000D02*
X161350000Y-85520000D01*
%TO.C,C8*%
X167682500Y-98760000D02*
X171442500Y-98760000D01*
X167682500Y-100720000D02*
X167682500Y-98760000D01*
X171442500Y-98760000D02*
X171442500Y-100720000D01*
X171442500Y-100720000D02*
X167682500Y-100720000D01*
%TO.C,C3*%
X178260000Y-70457500D02*
X180220000Y-70457500D01*
X178260000Y-74217500D02*
X178260000Y-70457500D01*
X180220000Y-70457500D02*
X180220000Y-74217500D01*
X180220000Y-74217500D02*
X178260000Y-74217500D01*
%TO.C,D5*%
X158900000Y-80940000D02*
X161140000Y-80940000D01*
X158900000Y-85500000D02*
X158900000Y-80940000D01*
X161140000Y-80940000D02*
X161140000Y-85500000D01*
X161140000Y-85500000D02*
X158900000Y-85500000D01*
%TO.C,AE2*%
X200920000Y-95150000D02*
X201620000Y-95150000D01*
X200920000Y-98350000D02*
X200920000Y-95150000D01*
X200920000Y-98350000D02*
X201620000Y-98350000D01*
X201620000Y-94950000D02*
X201620000Y-95150000D01*
X201620000Y-94950000D02*
X202420000Y-94950000D01*
X201620000Y-98350000D02*
X201620000Y-98550000D01*
X201620000Y-98550000D02*
X205220000Y-98550000D01*
X202420000Y-94250000D02*
X204420000Y-94250000D01*
X202420000Y-94950000D02*
X202420000Y-94250000D01*
X204420000Y-94950000D02*
X204420000Y-94250000D01*
X204420000Y-94950000D02*
X205220000Y-94950000D01*
X205220000Y-94950000D02*
X205220000Y-95150000D01*
X205220000Y-95150000D02*
X205920000Y-95150000D01*
X205220000Y-98350000D02*
X205220000Y-98550000D01*
X205220000Y-98350000D02*
X205920000Y-98350000D01*
X205920000Y-98350000D02*
X205920000Y-95150000D01*
%TO.C,Y2*%
X162950000Y-101200000D02*
X162950000Y-106400000D01*
X162950000Y-106400000D02*
X176550000Y-106400000D01*
X176550000Y-101200000D02*
X162950000Y-101200000D01*
X176550000Y-106400000D02*
X176550000Y-101200000D01*
%TO.C,R2*%
X155080000Y-74790000D02*
X156980000Y-74790000D01*
X155080000Y-78490000D02*
X155080000Y-74790000D01*
X156980000Y-74790000D02*
X156980000Y-78490000D01*
X156980000Y-78490000D02*
X155080000Y-78490000D01*
%TO.C,D2*%
X182930000Y-73840000D02*
X189930000Y-73840000D01*
X182930000Y-77340000D02*
X182930000Y-73840000D01*
X189930000Y-73840000D02*
X189930000Y-77340000D01*
X189930000Y-77340000D02*
X182930000Y-77340000D01*
%TO.C,TP2*%
X154480000Y-95960000D02*
G75*
G02*
X152480000Y-95960000I-1000000J0D01*
G01*
X152480000Y-95960000D02*
G75*
G02*
X154480000Y-95960000I1000000J0D01*
G01*
%TO.C,C4*%
X180300000Y-70447500D02*
X182260000Y-70447500D01*
X180300000Y-74207500D02*
X180300000Y-70447500D01*
X182260000Y-70447500D02*
X182260000Y-74207500D01*
X182260000Y-74207500D02*
X180300000Y-74207500D01*
%TO.C,TP1*%
X154480000Y-90700000D02*
G75*
G02*
X152480000Y-90700000I-1000000J0D01*
G01*
X152480000Y-90700000D02*
G75*
G02*
X154480000Y-90700000I1000000J0D01*
G01*
%TD*%
M02*
