%TF.GenerationSoftware,KiCad,Pcbnew,8.0.4-8.0.4-0~ubuntu24.04.1*%
%TF.CreationDate,2024-08-31T18:15:14+03:00*%
%TF.ProjectId,ground_control_using_pc,67726f75-6e64-45f6-936f-6e74726f6c5f,rev?*%
%TF.SameCoordinates,Original*%
%TF.FileFunction,Legend,Top*%
%TF.FilePolarity,Positive*%
%FSLAX46Y46*%
G04 Gerber Fmt 4.6, Leading zero omitted, Abs format (unit mm)*
G04 Created by KiCad (PCBNEW 8.0.4-8.0.4-0~ubuntu24.04.1) date 2024-08-31 18:15:14*
%MOMM*%
%LPD*%
G01*
G04 APERTURE LIST*
%ADD10C,0.127000*%
%ADD11C,0.254000*%
%ADD12C,0.076200*%
%ADD13C,0.150000*%
%ADD14C,0.120000*%
G04 APERTURE END LIST*
D10*
X186180313Y-101853056D02*
X186760885Y-101853056D01*
X186470599Y-102869056D02*
X186470599Y-101853056D01*
X187534980Y-102869056D02*
X187534980Y-102336866D01*
X187534980Y-102336866D02*
X187486599Y-102240104D01*
X187486599Y-102240104D02*
X187389837Y-102191723D01*
X187389837Y-102191723D02*
X187196313Y-102191723D01*
X187196313Y-102191723D02*
X187099551Y-102240104D01*
X187534980Y-102820676D02*
X187438218Y-102869056D01*
X187438218Y-102869056D02*
X187196313Y-102869056D01*
X187196313Y-102869056D02*
X187099551Y-102820676D01*
X187099551Y-102820676D02*
X187051170Y-102723914D01*
X187051170Y-102723914D02*
X187051170Y-102627152D01*
X187051170Y-102627152D02*
X187099551Y-102530390D01*
X187099551Y-102530390D02*
X187196313Y-102482009D01*
X187196313Y-102482009D02*
X187438218Y-102482009D01*
X187438218Y-102482009D02*
X187534980Y-102433628D01*
X188018789Y-102191723D02*
X188018789Y-102869056D01*
X188018789Y-102288485D02*
X188067170Y-102240104D01*
X188067170Y-102240104D02*
X188163932Y-102191723D01*
X188163932Y-102191723D02*
X188309075Y-102191723D01*
X188309075Y-102191723D02*
X188405837Y-102240104D01*
X188405837Y-102240104D02*
X188454218Y-102336866D01*
X188454218Y-102336866D02*
X188454218Y-102869056D01*
X189373456Y-102191723D02*
X189373456Y-103014199D01*
X189373456Y-103014199D02*
X189325075Y-103110961D01*
X189325075Y-103110961D02*
X189276694Y-103159342D01*
X189276694Y-103159342D02*
X189179932Y-103207723D01*
X189179932Y-103207723D02*
X189034789Y-103207723D01*
X189034789Y-103207723D02*
X188938027Y-103159342D01*
X189373456Y-102820676D02*
X189276694Y-102869056D01*
X189276694Y-102869056D02*
X189083170Y-102869056D01*
X189083170Y-102869056D02*
X188986408Y-102820676D01*
X188986408Y-102820676D02*
X188938027Y-102772295D01*
X188938027Y-102772295D02*
X188889646Y-102675533D01*
X188889646Y-102675533D02*
X188889646Y-102385247D01*
X188889646Y-102385247D02*
X188938027Y-102288485D01*
X188938027Y-102288485D02*
X188986408Y-102240104D01*
X188986408Y-102240104D02*
X189083170Y-102191723D01*
X189083170Y-102191723D02*
X189276694Y-102191723D01*
X189276694Y-102191723D02*
X189373456Y-102240104D01*
X190292694Y-102869056D02*
X190292694Y-102336866D01*
X190292694Y-102336866D02*
X190244313Y-102240104D01*
X190244313Y-102240104D02*
X190147551Y-102191723D01*
X190147551Y-102191723D02*
X189954027Y-102191723D01*
X189954027Y-102191723D02*
X189857265Y-102240104D01*
X190292694Y-102820676D02*
X190195932Y-102869056D01*
X190195932Y-102869056D02*
X189954027Y-102869056D01*
X189954027Y-102869056D02*
X189857265Y-102820676D01*
X189857265Y-102820676D02*
X189808884Y-102723914D01*
X189808884Y-102723914D02*
X189808884Y-102627152D01*
X189808884Y-102627152D02*
X189857265Y-102530390D01*
X189857265Y-102530390D02*
X189954027Y-102482009D01*
X189954027Y-102482009D02*
X190195932Y-102482009D01*
X190195932Y-102482009D02*
X190292694Y-102433628D01*
D11*
X181069009Y-103070892D02*
X181250438Y-103131368D01*
X181250438Y-103131368D02*
X181552819Y-103131368D01*
X181552819Y-103131368D02*
X181673771Y-103070892D01*
X181673771Y-103070892D02*
X181734247Y-103010415D01*
X181734247Y-103010415D02*
X181794724Y-102889463D01*
X181794724Y-102889463D02*
X181794724Y-102768511D01*
X181794724Y-102768511D02*
X181734247Y-102647558D01*
X181734247Y-102647558D02*
X181673771Y-102587082D01*
X181673771Y-102587082D02*
X181552819Y-102526606D01*
X181552819Y-102526606D02*
X181310914Y-102466130D01*
X181310914Y-102466130D02*
X181189962Y-102405653D01*
X181189962Y-102405653D02*
X181129485Y-102345177D01*
X181129485Y-102345177D02*
X181069009Y-102224225D01*
X181069009Y-102224225D02*
X181069009Y-102103272D01*
X181069009Y-102103272D02*
X181129485Y-101982320D01*
X181129485Y-101982320D02*
X181189962Y-101921844D01*
X181189962Y-101921844D02*
X181310914Y-101861368D01*
X181310914Y-101861368D02*
X181613295Y-101861368D01*
X181613295Y-101861368D02*
X181794724Y-101921844D01*
X182339009Y-103131368D02*
X182339009Y-101861368D01*
X183064724Y-103131368D02*
X182520438Y-102405653D01*
X183064724Y-101861368D02*
X182339009Y-102587082D01*
X183609009Y-101861368D02*
X183609009Y-102889463D01*
X183609009Y-102889463D02*
X183669486Y-103010415D01*
X183669486Y-103010415D02*
X183729962Y-103070892D01*
X183729962Y-103070892D02*
X183850914Y-103131368D01*
X183850914Y-103131368D02*
X184092819Y-103131368D01*
X184092819Y-103131368D02*
X184213771Y-103070892D01*
X184213771Y-103070892D02*
X184274248Y-103010415D01*
X184274248Y-103010415D02*
X184334724Y-102889463D01*
X184334724Y-102889463D02*
X184334724Y-101861368D01*
X184879009Y-102768511D02*
X185483771Y-102768511D01*
X184758057Y-103131368D02*
X185181390Y-101861368D01*
X185181390Y-101861368D02*
X185604724Y-103131368D01*
D12*
X183941083Y-104103867D02*
X183941083Y-103595867D01*
X183941083Y-103595867D02*
X184062035Y-103595867D01*
X184062035Y-103595867D02*
X184134607Y-103620057D01*
X184134607Y-103620057D02*
X184182988Y-103668438D01*
X184182988Y-103668438D02*
X184207178Y-103716819D01*
X184207178Y-103716819D02*
X184231369Y-103813581D01*
X184231369Y-103813581D02*
X184231369Y-103886153D01*
X184231369Y-103886153D02*
X184207178Y-103982915D01*
X184207178Y-103982915D02*
X184182988Y-104031296D01*
X184182988Y-104031296D02*
X184134607Y-104079677D01*
X184134607Y-104079677D02*
X184062035Y-104103867D01*
X184062035Y-104103867D02*
X183941083Y-104103867D01*
X184521654Y-104103867D02*
X184473273Y-104079677D01*
X184473273Y-104079677D02*
X184449083Y-104055486D01*
X184449083Y-104055486D02*
X184424892Y-104007105D01*
X184424892Y-104007105D02*
X184424892Y-103861962D01*
X184424892Y-103861962D02*
X184449083Y-103813581D01*
X184449083Y-103813581D02*
X184473273Y-103789391D01*
X184473273Y-103789391D02*
X184521654Y-103765200D01*
X184521654Y-103765200D02*
X184594226Y-103765200D01*
X184594226Y-103765200D02*
X184642607Y-103789391D01*
X184642607Y-103789391D02*
X184666797Y-103813581D01*
X184666797Y-103813581D02*
X184690988Y-103861962D01*
X184690988Y-103861962D02*
X184690988Y-104007105D01*
X184690988Y-104007105D02*
X184666797Y-104055486D01*
X184666797Y-104055486D02*
X184642607Y-104079677D01*
X184642607Y-104079677D02*
X184594226Y-104103867D01*
X184594226Y-104103867D02*
X184521654Y-104103867D01*
X184908702Y-103765200D02*
X184908702Y-104103867D01*
X184908702Y-103813581D02*
X184932892Y-103789391D01*
X184932892Y-103789391D02*
X184981273Y-103765200D01*
X184981273Y-103765200D02*
X185053845Y-103765200D01*
X185053845Y-103765200D02*
X185102226Y-103789391D01*
X185102226Y-103789391D02*
X185126416Y-103837772D01*
X185126416Y-103837772D02*
X185126416Y-104103867D01*
X185561845Y-104079677D02*
X185513464Y-104103867D01*
X185513464Y-104103867D02*
X185416702Y-104103867D01*
X185416702Y-104103867D02*
X185368321Y-104079677D01*
X185368321Y-104079677D02*
X185344130Y-104031296D01*
X185344130Y-104031296D02*
X185344130Y-103837772D01*
X185344130Y-103837772D02*
X185368321Y-103789391D01*
X185368321Y-103789391D02*
X185416702Y-103765200D01*
X185416702Y-103765200D02*
X185513464Y-103765200D01*
X185513464Y-103765200D02*
X185561845Y-103789391D01*
X185561845Y-103789391D02*
X185586035Y-103837772D01*
X185586035Y-103837772D02*
X185586035Y-103886153D01*
X185586035Y-103886153D02*
X185344130Y-103934534D01*
X186190798Y-104103867D02*
X186190798Y-103595867D01*
X186190798Y-103789391D02*
X186239179Y-103765200D01*
X186239179Y-103765200D02*
X186335941Y-103765200D01*
X186335941Y-103765200D02*
X186384322Y-103789391D01*
X186384322Y-103789391D02*
X186408512Y-103813581D01*
X186408512Y-103813581D02*
X186432703Y-103861962D01*
X186432703Y-103861962D02*
X186432703Y-104007105D01*
X186432703Y-104007105D02*
X186408512Y-104055486D01*
X186408512Y-104055486D02*
X186384322Y-104079677D01*
X186384322Y-104079677D02*
X186335941Y-104103867D01*
X186335941Y-104103867D02*
X186239179Y-104103867D01*
X186239179Y-104103867D02*
X186190798Y-104079677D01*
X186602036Y-103765200D02*
X186722988Y-104103867D01*
X186843941Y-103765200D02*
X186722988Y-104103867D01*
X186722988Y-104103867D02*
X186674607Y-104224819D01*
X186674607Y-104224819D02*
X186650417Y-104249010D01*
X186650417Y-104249010D02*
X186602036Y-104273200D01*
X187351941Y-103595867D02*
X187521275Y-104103867D01*
X187521275Y-104103867D02*
X187690608Y-103595867D01*
X187859942Y-104103867D02*
X187859942Y-103765200D01*
X187859942Y-103595867D02*
X187835751Y-103620057D01*
X187835751Y-103620057D02*
X187859942Y-103644248D01*
X187859942Y-103644248D02*
X187884132Y-103620057D01*
X187884132Y-103620057D02*
X187859942Y-103595867D01*
X187859942Y-103595867D02*
X187859942Y-103644248D01*
X188319561Y-104079677D02*
X188271180Y-104103867D01*
X188271180Y-104103867D02*
X188174418Y-104103867D01*
X188174418Y-104103867D02*
X188126037Y-104079677D01*
X188126037Y-104079677D02*
X188101847Y-104055486D01*
X188101847Y-104055486D02*
X188077656Y-104007105D01*
X188077656Y-104007105D02*
X188077656Y-103861962D01*
X188077656Y-103861962D02*
X188101847Y-103813581D01*
X188101847Y-103813581D02*
X188126037Y-103789391D01*
X188126037Y-103789391D02*
X188174418Y-103765200D01*
X188174418Y-103765200D02*
X188271180Y-103765200D01*
X188271180Y-103765200D02*
X188319561Y-103789391D01*
X188464704Y-103765200D02*
X188658228Y-103765200D01*
X188537276Y-103595867D02*
X188537276Y-104031296D01*
X188537276Y-104031296D02*
X188561466Y-104079677D01*
X188561466Y-104079677D02*
X188609847Y-104103867D01*
X188609847Y-104103867D02*
X188658228Y-104103867D01*
X188900133Y-104103867D02*
X188851752Y-104079677D01*
X188851752Y-104079677D02*
X188827562Y-104055486D01*
X188827562Y-104055486D02*
X188803371Y-104007105D01*
X188803371Y-104007105D02*
X188803371Y-103861962D01*
X188803371Y-103861962D02*
X188827562Y-103813581D01*
X188827562Y-103813581D02*
X188851752Y-103789391D01*
X188851752Y-103789391D02*
X188900133Y-103765200D01*
X188900133Y-103765200D02*
X188972705Y-103765200D01*
X188972705Y-103765200D02*
X189021086Y-103789391D01*
X189021086Y-103789391D02*
X189045276Y-103813581D01*
X189045276Y-103813581D02*
X189069467Y-103861962D01*
X189069467Y-103861962D02*
X189069467Y-104007105D01*
X189069467Y-104007105D02*
X189045276Y-104055486D01*
X189045276Y-104055486D02*
X189021086Y-104079677D01*
X189021086Y-104079677D02*
X188972705Y-104103867D01*
X188972705Y-104103867D02*
X188900133Y-104103867D01*
X189287181Y-103765200D02*
X189287181Y-104103867D01*
X189287181Y-103813581D02*
X189311371Y-103789391D01*
X189311371Y-103789391D02*
X189359752Y-103765200D01*
X189359752Y-103765200D02*
X189432324Y-103765200D01*
X189432324Y-103765200D02*
X189480705Y-103789391D01*
X189480705Y-103789391D02*
X189504895Y-103837772D01*
X189504895Y-103837772D02*
X189504895Y-104103867D01*
X189746800Y-104103867D02*
X189746800Y-103765200D01*
X189746800Y-103595867D02*
X189722609Y-103620057D01*
X189722609Y-103620057D02*
X189746800Y-103644248D01*
X189746800Y-103644248D02*
X189770990Y-103620057D01*
X189770990Y-103620057D02*
X189746800Y-103595867D01*
X189746800Y-103595867D02*
X189746800Y-103644248D01*
X189940324Y-103595867D02*
X190278991Y-104103867D01*
X190278991Y-103595867D02*
X189940324Y-104103867D01*
D13*
X159664642Y-105839580D02*
X159617023Y-105887200D01*
X159617023Y-105887200D02*
X159474166Y-105934819D01*
X159474166Y-105934819D02*
X159378928Y-105934819D01*
X159378928Y-105934819D02*
X159236071Y-105887200D01*
X159236071Y-105887200D02*
X159140833Y-105791961D01*
X159140833Y-105791961D02*
X159093214Y-105696723D01*
X159093214Y-105696723D02*
X159045595Y-105506247D01*
X159045595Y-105506247D02*
X159045595Y-105363390D01*
X159045595Y-105363390D02*
X159093214Y-105172914D01*
X159093214Y-105172914D02*
X159140833Y-105077676D01*
X159140833Y-105077676D02*
X159236071Y-104982438D01*
X159236071Y-104982438D02*
X159378928Y-104934819D01*
X159378928Y-104934819D02*
X159474166Y-104934819D01*
X159474166Y-104934819D02*
X159617023Y-104982438D01*
X159617023Y-104982438D02*
X159664642Y-105030057D01*
X160617023Y-105934819D02*
X160045595Y-105934819D01*
X160331309Y-105934819D02*
X160331309Y-104934819D01*
X160331309Y-104934819D02*
X160236071Y-105077676D01*
X160236071Y-105077676D02*
X160140833Y-105172914D01*
X160140833Y-105172914D02*
X160045595Y-105220533D01*
X161236071Y-104934819D02*
X161331309Y-104934819D01*
X161331309Y-104934819D02*
X161426547Y-104982438D01*
X161426547Y-104982438D02*
X161474166Y-105030057D01*
X161474166Y-105030057D02*
X161521785Y-105125295D01*
X161521785Y-105125295D02*
X161569404Y-105315771D01*
X161569404Y-105315771D02*
X161569404Y-105553866D01*
X161569404Y-105553866D02*
X161521785Y-105744342D01*
X161521785Y-105744342D02*
X161474166Y-105839580D01*
X161474166Y-105839580D02*
X161426547Y-105887200D01*
X161426547Y-105887200D02*
X161331309Y-105934819D01*
X161331309Y-105934819D02*
X161236071Y-105934819D01*
X161236071Y-105934819D02*
X161140833Y-105887200D01*
X161140833Y-105887200D02*
X161093214Y-105839580D01*
X161093214Y-105839580D02*
X161045595Y-105744342D01*
X161045595Y-105744342D02*
X160997976Y-105553866D01*
X160997976Y-105553866D02*
X160997976Y-105315771D01*
X160997976Y-105315771D02*
X161045595Y-105125295D01*
X161045595Y-105125295D02*
X161093214Y-105030057D01*
X161093214Y-105030057D02*
X161140833Y-104982438D01*
X161140833Y-104982438D02*
X161236071Y-104934819D01*
X158054819Y-87368094D02*
X157054819Y-87368094D01*
X157054819Y-87368094D02*
X157054819Y-87129999D01*
X157054819Y-87129999D02*
X157102438Y-86987142D01*
X157102438Y-86987142D02*
X157197676Y-86891904D01*
X157197676Y-86891904D02*
X157292914Y-86844285D01*
X157292914Y-86844285D02*
X157483390Y-86796666D01*
X157483390Y-86796666D02*
X157626247Y-86796666D01*
X157626247Y-86796666D02*
X157816723Y-86844285D01*
X157816723Y-86844285D02*
X157911961Y-86891904D01*
X157911961Y-86891904D02*
X158007200Y-86987142D01*
X158007200Y-86987142D02*
X158054819Y-87129999D01*
X158054819Y-87129999D02*
X158054819Y-87368094D01*
X157388152Y-85939523D02*
X158054819Y-85939523D01*
X157007200Y-86177618D02*
X157721485Y-86415713D01*
X157721485Y-86415713D02*
X157721485Y-85796666D01*
X198183333Y-103669580D02*
X198135714Y-103717200D01*
X198135714Y-103717200D02*
X197992857Y-103764819D01*
X197992857Y-103764819D02*
X197897619Y-103764819D01*
X197897619Y-103764819D02*
X197754762Y-103717200D01*
X197754762Y-103717200D02*
X197659524Y-103621961D01*
X197659524Y-103621961D02*
X197611905Y-103526723D01*
X197611905Y-103526723D02*
X197564286Y-103336247D01*
X197564286Y-103336247D02*
X197564286Y-103193390D01*
X197564286Y-103193390D02*
X197611905Y-103002914D01*
X197611905Y-103002914D02*
X197659524Y-102907676D01*
X197659524Y-102907676D02*
X197754762Y-102812438D01*
X197754762Y-102812438D02*
X197897619Y-102764819D01*
X197897619Y-102764819D02*
X197992857Y-102764819D01*
X197992857Y-102764819D02*
X198135714Y-102812438D01*
X198135714Y-102812438D02*
X198183333Y-102860057D01*
X198516667Y-102764819D02*
X199183333Y-102764819D01*
X199183333Y-102764819D02*
X198754762Y-103764819D01*
X160464819Y-79806666D02*
X159988628Y-80139999D01*
X160464819Y-80378094D02*
X159464819Y-80378094D01*
X159464819Y-80378094D02*
X159464819Y-79997142D01*
X159464819Y-79997142D02*
X159512438Y-79901904D01*
X159512438Y-79901904D02*
X159560057Y-79854285D01*
X159560057Y-79854285D02*
X159655295Y-79806666D01*
X159655295Y-79806666D02*
X159798152Y-79806666D01*
X159798152Y-79806666D02*
X159893390Y-79854285D01*
X159893390Y-79854285D02*
X159941009Y-79901904D01*
X159941009Y-79901904D02*
X159988628Y-79997142D01*
X159988628Y-79997142D02*
X159988628Y-80378094D01*
X159798152Y-78949523D02*
X160464819Y-78949523D01*
X159417200Y-79187618D02*
X160131485Y-79425713D01*
X160131485Y-79425713D02*
X160131485Y-78806666D01*
X182719580Y-78566666D02*
X182767200Y-78614285D01*
X182767200Y-78614285D02*
X182814819Y-78757142D01*
X182814819Y-78757142D02*
X182814819Y-78852380D01*
X182814819Y-78852380D02*
X182767200Y-78995237D01*
X182767200Y-78995237D02*
X182671961Y-79090475D01*
X182671961Y-79090475D02*
X182576723Y-79138094D01*
X182576723Y-79138094D02*
X182386247Y-79185713D01*
X182386247Y-79185713D02*
X182243390Y-79185713D01*
X182243390Y-79185713D02*
X182052914Y-79138094D01*
X182052914Y-79138094D02*
X181957676Y-79090475D01*
X181957676Y-79090475D02*
X181862438Y-78995237D01*
X181862438Y-78995237D02*
X181814819Y-78852380D01*
X181814819Y-78852380D02*
X181814819Y-78757142D01*
X181814819Y-78757142D02*
X181862438Y-78614285D01*
X181862438Y-78614285D02*
X181910057Y-78566666D01*
X181910057Y-78185713D02*
X181862438Y-78138094D01*
X181862438Y-78138094D02*
X181814819Y-78042856D01*
X181814819Y-78042856D02*
X181814819Y-77804761D01*
X181814819Y-77804761D02*
X181862438Y-77709523D01*
X181862438Y-77709523D02*
X181910057Y-77661904D01*
X181910057Y-77661904D02*
X182005295Y-77614285D01*
X182005295Y-77614285D02*
X182100533Y-77614285D01*
X182100533Y-77614285D02*
X182243390Y-77661904D01*
X182243390Y-77661904D02*
X182814819Y-78233332D01*
X182814819Y-78233332D02*
X182814819Y-77614285D01*
X203638095Y-75854819D02*
X203638095Y-76664342D01*
X203638095Y-76664342D02*
X203685714Y-76759580D01*
X203685714Y-76759580D02*
X203733333Y-76807200D01*
X203733333Y-76807200D02*
X203828571Y-76854819D01*
X203828571Y-76854819D02*
X204019047Y-76854819D01*
X204019047Y-76854819D02*
X204114285Y-76807200D01*
X204114285Y-76807200D02*
X204161904Y-76759580D01*
X204161904Y-76759580D02*
X204209523Y-76664342D01*
X204209523Y-76664342D02*
X204209523Y-75854819D01*
X204638095Y-75950057D02*
X204685714Y-75902438D01*
X204685714Y-75902438D02*
X204780952Y-75854819D01*
X204780952Y-75854819D02*
X205019047Y-75854819D01*
X205019047Y-75854819D02*
X205114285Y-75902438D01*
X205114285Y-75902438D02*
X205161904Y-75950057D01*
X205161904Y-75950057D02*
X205209523Y-76045295D01*
X205209523Y-76045295D02*
X205209523Y-76140533D01*
X205209523Y-76140533D02*
X205161904Y-76283390D01*
X205161904Y-76283390D02*
X204590476Y-76854819D01*
X204590476Y-76854819D02*
X205209523Y-76854819D01*
X154339580Y-79851666D02*
X154387200Y-79899285D01*
X154387200Y-79899285D02*
X154434819Y-80042142D01*
X154434819Y-80042142D02*
X154434819Y-80137380D01*
X154434819Y-80137380D02*
X154387200Y-80280237D01*
X154387200Y-80280237D02*
X154291961Y-80375475D01*
X154291961Y-80375475D02*
X154196723Y-80423094D01*
X154196723Y-80423094D02*
X154006247Y-80470713D01*
X154006247Y-80470713D02*
X153863390Y-80470713D01*
X153863390Y-80470713D02*
X153672914Y-80423094D01*
X153672914Y-80423094D02*
X153577676Y-80375475D01*
X153577676Y-80375475D02*
X153482438Y-80280237D01*
X153482438Y-80280237D02*
X153434819Y-80137380D01*
X153434819Y-80137380D02*
X153434819Y-80042142D01*
X153434819Y-80042142D02*
X153482438Y-79899285D01*
X153482438Y-79899285D02*
X153530057Y-79851666D01*
X153434819Y-78946904D02*
X153434819Y-79423094D01*
X153434819Y-79423094D02*
X153911009Y-79470713D01*
X153911009Y-79470713D02*
X153863390Y-79423094D01*
X153863390Y-79423094D02*
X153815771Y-79327856D01*
X153815771Y-79327856D02*
X153815771Y-79089761D01*
X153815771Y-79089761D02*
X153863390Y-78994523D01*
X153863390Y-78994523D02*
X153911009Y-78946904D01*
X153911009Y-78946904D02*
X154006247Y-78899285D01*
X154006247Y-78899285D02*
X154244342Y-78899285D01*
X154244342Y-78899285D02*
X154339580Y-78946904D01*
X154339580Y-78946904D02*
X154387200Y-78994523D01*
X154387200Y-78994523D02*
X154434819Y-79089761D01*
X154434819Y-79089761D02*
X154434819Y-79327856D01*
X154434819Y-79327856D02*
X154387200Y-79423094D01*
X154387200Y-79423094D02*
X154339580Y-79470713D01*
X158454819Y-79766666D02*
X157978628Y-80099999D01*
X158454819Y-80338094D02*
X157454819Y-80338094D01*
X157454819Y-80338094D02*
X157454819Y-79957142D01*
X157454819Y-79957142D02*
X157502438Y-79861904D01*
X157502438Y-79861904D02*
X157550057Y-79814285D01*
X157550057Y-79814285D02*
X157645295Y-79766666D01*
X157645295Y-79766666D02*
X157788152Y-79766666D01*
X157788152Y-79766666D02*
X157883390Y-79814285D01*
X157883390Y-79814285D02*
X157931009Y-79861904D01*
X157931009Y-79861904D02*
X157978628Y-79957142D01*
X157978628Y-79957142D02*
X157978628Y-80338094D01*
X157454819Y-79433332D02*
X157454819Y-78814285D01*
X157454819Y-78814285D02*
X157835771Y-79147618D01*
X157835771Y-79147618D02*
X157835771Y-79004761D01*
X157835771Y-79004761D02*
X157883390Y-78909523D01*
X157883390Y-78909523D02*
X157931009Y-78861904D01*
X157931009Y-78861904D02*
X158026247Y-78814285D01*
X158026247Y-78814285D02*
X158264342Y-78814285D01*
X158264342Y-78814285D02*
X158359580Y-78861904D01*
X158359580Y-78861904D02*
X158407200Y-78909523D01*
X158407200Y-78909523D02*
X158454819Y-79004761D01*
X158454819Y-79004761D02*
X158454819Y-79290475D01*
X158454819Y-79290475D02*
X158407200Y-79385713D01*
X158407200Y-79385713D02*
X158359580Y-79433332D01*
X161953095Y-69064819D02*
X161953095Y-69874342D01*
X161953095Y-69874342D02*
X162000714Y-69969580D01*
X162000714Y-69969580D02*
X162048333Y-70017200D01*
X162048333Y-70017200D02*
X162143571Y-70064819D01*
X162143571Y-70064819D02*
X162334047Y-70064819D01*
X162334047Y-70064819D02*
X162429285Y-70017200D01*
X162429285Y-70017200D02*
X162476904Y-69969580D01*
X162476904Y-69969580D02*
X162524523Y-69874342D01*
X162524523Y-69874342D02*
X162524523Y-69064819D01*
X163524523Y-70064819D02*
X162953095Y-70064819D01*
X163238809Y-70064819D02*
X163238809Y-69064819D01*
X163238809Y-69064819D02*
X163143571Y-69207676D01*
X163143571Y-69207676D02*
X163048333Y-69302914D01*
X163048333Y-69302914D02*
X162953095Y-69350533D01*
X197977200Y-76463332D02*
X198024819Y-76320475D01*
X198024819Y-76320475D02*
X198024819Y-76082380D01*
X198024819Y-76082380D02*
X197977200Y-75987142D01*
X197977200Y-75987142D02*
X197929580Y-75939523D01*
X197929580Y-75939523D02*
X197834342Y-75891904D01*
X197834342Y-75891904D02*
X197739104Y-75891904D01*
X197739104Y-75891904D02*
X197643866Y-75939523D01*
X197643866Y-75939523D02*
X197596247Y-75987142D01*
X197596247Y-75987142D02*
X197548628Y-76082380D01*
X197548628Y-76082380D02*
X197501009Y-76272856D01*
X197501009Y-76272856D02*
X197453390Y-76368094D01*
X197453390Y-76368094D02*
X197405771Y-76415713D01*
X197405771Y-76415713D02*
X197310533Y-76463332D01*
X197310533Y-76463332D02*
X197215295Y-76463332D01*
X197215295Y-76463332D02*
X197120057Y-76415713D01*
X197120057Y-76415713D02*
X197072438Y-76368094D01*
X197072438Y-76368094D02*
X197024819Y-76272856D01*
X197024819Y-76272856D02*
X197024819Y-76034761D01*
X197024819Y-76034761D02*
X197072438Y-75891904D01*
X197024819Y-75558570D02*
X198024819Y-75320475D01*
X198024819Y-75320475D02*
X197310533Y-75129999D01*
X197310533Y-75129999D02*
X198024819Y-74939523D01*
X198024819Y-74939523D02*
X197024819Y-74701428D01*
X198024819Y-73796666D02*
X198024819Y-74368094D01*
X198024819Y-74082380D02*
X197024819Y-74082380D01*
X197024819Y-74082380D02*
X197167676Y-74177618D01*
X197167676Y-74177618D02*
X197262914Y-74272856D01*
X197262914Y-74272856D02*
X197310533Y-74368094D01*
X194578095Y-82504819D02*
X194578095Y-83314342D01*
X194578095Y-83314342D02*
X194625714Y-83409580D01*
X194625714Y-83409580D02*
X194673333Y-83457200D01*
X194673333Y-83457200D02*
X194768571Y-83504819D01*
X194768571Y-83504819D02*
X194959047Y-83504819D01*
X194959047Y-83504819D02*
X195054285Y-83457200D01*
X195054285Y-83457200D02*
X195101904Y-83409580D01*
X195101904Y-83409580D02*
X195149523Y-83314342D01*
X195149523Y-83314342D02*
X195149523Y-82504819D01*
X196054285Y-82838152D02*
X196054285Y-83504819D01*
X195816190Y-82457200D02*
X195578095Y-83171485D01*
X195578095Y-83171485D02*
X196197142Y-83171485D01*
X162429580Y-79736666D02*
X162477200Y-79784285D01*
X162477200Y-79784285D02*
X162524819Y-79927142D01*
X162524819Y-79927142D02*
X162524819Y-80022380D01*
X162524819Y-80022380D02*
X162477200Y-80165237D01*
X162477200Y-80165237D02*
X162381961Y-80260475D01*
X162381961Y-80260475D02*
X162286723Y-80308094D01*
X162286723Y-80308094D02*
X162096247Y-80355713D01*
X162096247Y-80355713D02*
X161953390Y-80355713D01*
X161953390Y-80355713D02*
X161762914Y-80308094D01*
X161762914Y-80308094D02*
X161667676Y-80260475D01*
X161667676Y-80260475D02*
X161572438Y-80165237D01*
X161572438Y-80165237D02*
X161524819Y-80022380D01*
X161524819Y-80022380D02*
X161524819Y-79927142D01*
X161524819Y-79927142D02*
X161572438Y-79784285D01*
X161572438Y-79784285D02*
X161620057Y-79736666D01*
X161524819Y-78879523D02*
X161524819Y-79069999D01*
X161524819Y-79069999D02*
X161572438Y-79165237D01*
X161572438Y-79165237D02*
X161620057Y-79212856D01*
X161620057Y-79212856D02*
X161762914Y-79308094D01*
X161762914Y-79308094D02*
X161953390Y-79355713D01*
X161953390Y-79355713D02*
X162334342Y-79355713D01*
X162334342Y-79355713D02*
X162429580Y-79308094D01*
X162429580Y-79308094D02*
X162477200Y-79260475D01*
X162477200Y-79260475D02*
X162524819Y-79165237D01*
X162524819Y-79165237D02*
X162524819Y-78974761D01*
X162524819Y-78974761D02*
X162477200Y-78879523D01*
X162477200Y-78879523D02*
X162429580Y-78831904D01*
X162429580Y-78831904D02*
X162334342Y-78784285D01*
X162334342Y-78784285D02*
X162096247Y-78784285D01*
X162096247Y-78784285D02*
X162001009Y-78831904D01*
X162001009Y-78831904D02*
X161953390Y-78879523D01*
X161953390Y-78879523D02*
X161905771Y-78974761D01*
X161905771Y-78974761D02*
X161905771Y-79165237D01*
X161905771Y-79165237D02*
X161953390Y-79260475D01*
X161953390Y-79260475D02*
X162001009Y-79308094D01*
X162001009Y-79308094D02*
X162096247Y-79355713D01*
X172866666Y-85854819D02*
X172866666Y-86569104D01*
X172866666Y-86569104D02*
X172819047Y-86711961D01*
X172819047Y-86711961D02*
X172723809Y-86807200D01*
X172723809Y-86807200D02*
X172580952Y-86854819D01*
X172580952Y-86854819D02*
X172485714Y-86854819D01*
X173771428Y-85854819D02*
X173580952Y-85854819D01*
X173580952Y-85854819D02*
X173485714Y-85902438D01*
X173485714Y-85902438D02*
X173438095Y-85950057D01*
X173438095Y-85950057D02*
X173342857Y-86092914D01*
X173342857Y-86092914D02*
X173295238Y-86283390D01*
X173295238Y-86283390D02*
X173295238Y-86664342D01*
X173295238Y-86664342D02*
X173342857Y-86759580D01*
X173342857Y-86759580D02*
X173390476Y-86807200D01*
X173390476Y-86807200D02*
X173485714Y-86854819D01*
X173485714Y-86854819D02*
X173676190Y-86854819D01*
X173676190Y-86854819D02*
X173771428Y-86807200D01*
X173771428Y-86807200D02*
X173819047Y-86759580D01*
X173819047Y-86759580D02*
X173866666Y-86664342D01*
X173866666Y-86664342D02*
X173866666Y-86426247D01*
X173866666Y-86426247D02*
X173819047Y-86331009D01*
X173819047Y-86331009D02*
X173771428Y-86283390D01*
X173771428Y-86283390D02*
X173676190Y-86235771D01*
X173676190Y-86235771D02*
X173485714Y-86235771D01*
X173485714Y-86235771D02*
X173390476Y-86283390D01*
X173390476Y-86283390D02*
X173342857Y-86331009D01*
X173342857Y-86331009D02*
X173295238Y-86426247D01*
X161234819Y-90856666D02*
X160758628Y-91189999D01*
X161234819Y-91428094D02*
X160234819Y-91428094D01*
X160234819Y-91428094D02*
X160234819Y-91047142D01*
X160234819Y-91047142D02*
X160282438Y-90951904D01*
X160282438Y-90951904D02*
X160330057Y-90904285D01*
X160330057Y-90904285D02*
X160425295Y-90856666D01*
X160425295Y-90856666D02*
X160568152Y-90856666D01*
X160568152Y-90856666D02*
X160663390Y-90904285D01*
X160663390Y-90904285D02*
X160711009Y-90951904D01*
X160711009Y-90951904D02*
X160758628Y-91047142D01*
X160758628Y-91047142D02*
X160758628Y-91428094D01*
X160234819Y-89951904D02*
X160234819Y-90428094D01*
X160234819Y-90428094D02*
X160711009Y-90475713D01*
X160711009Y-90475713D02*
X160663390Y-90428094D01*
X160663390Y-90428094D02*
X160615771Y-90332856D01*
X160615771Y-90332856D02*
X160615771Y-90094761D01*
X160615771Y-90094761D02*
X160663390Y-89999523D01*
X160663390Y-89999523D02*
X160711009Y-89951904D01*
X160711009Y-89951904D02*
X160806247Y-89904285D01*
X160806247Y-89904285D02*
X161044342Y-89904285D01*
X161044342Y-89904285D02*
X161139580Y-89951904D01*
X161139580Y-89951904D02*
X161187200Y-89999523D01*
X161187200Y-89999523D02*
X161234819Y-90094761D01*
X161234819Y-90094761D02*
X161234819Y-90332856D01*
X161234819Y-90332856D02*
X161187200Y-90428094D01*
X161187200Y-90428094D02*
X161139580Y-90475713D01*
X177833333Y-106359580D02*
X177785714Y-106407200D01*
X177785714Y-106407200D02*
X177642857Y-106454819D01*
X177642857Y-106454819D02*
X177547619Y-106454819D01*
X177547619Y-106454819D02*
X177404762Y-106407200D01*
X177404762Y-106407200D02*
X177309524Y-106311961D01*
X177309524Y-106311961D02*
X177261905Y-106216723D01*
X177261905Y-106216723D02*
X177214286Y-106026247D01*
X177214286Y-106026247D02*
X177214286Y-105883390D01*
X177214286Y-105883390D02*
X177261905Y-105692914D01*
X177261905Y-105692914D02*
X177309524Y-105597676D01*
X177309524Y-105597676D02*
X177404762Y-105502438D01*
X177404762Y-105502438D02*
X177547619Y-105454819D01*
X177547619Y-105454819D02*
X177642857Y-105454819D01*
X177642857Y-105454819D02*
X177785714Y-105502438D01*
X177785714Y-105502438D02*
X177833333Y-105550057D01*
X178309524Y-106454819D02*
X178500000Y-106454819D01*
X178500000Y-106454819D02*
X178595238Y-106407200D01*
X178595238Y-106407200D02*
X178642857Y-106359580D01*
X178642857Y-106359580D02*
X178738095Y-106216723D01*
X178738095Y-106216723D02*
X178785714Y-106026247D01*
X178785714Y-106026247D02*
X178785714Y-105645295D01*
X178785714Y-105645295D02*
X178738095Y-105550057D01*
X178738095Y-105550057D02*
X178690476Y-105502438D01*
X178690476Y-105502438D02*
X178595238Y-105454819D01*
X178595238Y-105454819D02*
X178404762Y-105454819D01*
X178404762Y-105454819D02*
X178309524Y-105502438D01*
X178309524Y-105502438D02*
X178261905Y-105550057D01*
X178261905Y-105550057D02*
X178214286Y-105645295D01*
X178214286Y-105645295D02*
X178214286Y-105883390D01*
X178214286Y-105883390D02*
X178261905Y-105978628D01*
X178261905Y-105978628D02*
X178309524Y-106026247D01*
X178309524Y-106026247D02*
X178404762Y-106073866D01*
X178404762Y-106073866D02*
X178595238Y-106073866D01*
X178595238Y-106073866D02*
X178690476Y-106026247D01*
X178690476Y-106026247D02*
X178738095Y-105978628D01*
X178738095Y-105978628D02*
X178785714Y-105883390D01*
X162394819Y-97601904D02*
X163204342Y-97601904D01*
X163204342Y-97601904D02*
X163299580Y-97554285D01*
X163299580Y-97554285D02*
X163347200Y-97506666D01*
X163347200Y-97506666D02*
X163394819Y-97411428D01*
X163394819Y-97411428D02*
X163394819Y-97220952D01*
X163394819Y-97220952D02*
X163347200Y-97125714D01*
X163347200Y-97125714D02*
X163299580Y-97078095D01*
X163299580Y-97078095D02*
X163204342Y-97030476D01*
X163204342Y-97030476D02*
X162394819Y-97030476D01*
X162394819Y-96649523D02*
X162394819Y-96030476D01*
X162394819Y-96030476D02*
X162775771Y-96363809D01*
X162775771Y-96363809D02*
X162775771Y-96220952D01*
X162775771Y-96220952D02*
X162823390Y-96125714D01*
X162823390Y-96125714D02*
X162871009Y-96078095D01*
X162871009Y-96078095D02*
X162966247Y-96030476D01*
X162966247Y-96030476D02*
X163204342Y-96030476D01*
X163204342Y-96030476D02*
X163299580Y-96078095D01*
X163299580Y-96078095D02*
X163347200Y-96125714D01*
X163347200Y-96125714D02*
X163394819Y-96220952D01*
X163394819Y-96220952D02*
X163394819Y-96506666D01*
X163394819Y-96506666D02*
X163347200Y-96601904D01*
X163347200Y-96601904D02*
X163299580Y-96649523D01*
X202223333Y-88109104D02*
X202699523Y-88109104D01*
X202128095Y-88394819D02*
X202461428Y-87394819D01*
X202461428Y-87394819D02*
X202794761Y-88394819D01*
X203128095Y-87871009D02*
X203461428Y-87871009D01*
X203604285Y-88394819D02*
X203128095Y-88394819D01*
X203128095Y-88394819D02*
X203128095Y-87394819D01*
X203128095Y-87394819D02*
X203604285Y-87394819D01*
X204556666Y-88394819D02*
X203985238Y-88394819D01*
X204270952Y-88394819D02*
X204270952Y-87394819D01*
X204270952Y-87394819D02*
X204175714Y-87537676D01*
X204175714Y-87537676D02*
X204080476Y-87632914D01*
X204080476Y-87632914D02*
X203985238Y-87680533D01*
X155694819Y-87368094D02*
X154694819Y-87368094D01*
X154694819Y-87368094D02*
X154694819Y-87129999D01*
X154694819Y-87129999D02*
X154742438Y-86987142D01*
X154742438Y-86987142D02*
X154837676Y-86891904D01*
X154837676Y-86891904D02*
X154932914Y-86844285D01*
X154932914Y-86844285D02*
X155123390Y-86796666D01*
X155123390Y-86796666D02*
X155266247Y-86796666D01*
X155266247Y-86796666D02*
X155456723Y-86844285D01*
X155456723Y-86844285D02*
X155551961Y-86891904D01*
X155551961Y-86891904D02*
X155647200Y-86987142D01*
X155647200Y-86987142D02*
X155694819Y-87129999D01*
X155694819Y-87129999D02*
X155694819Y-87368094D01*
X154694819Y-86463332D02*
X154694819Y-85844285D01*
X154694819Y-85844285D02*
X155075771Y-86177618D01*
X155075771Y-86177618D02*
X155075771Y-86034761D01*
X155075771Y-86034761D02*
X155123390Y-85939523D01*
X155123390Y-85939523D02*
X155171009Y-85891904D01*
X155171009Y-85891904D02*
X155266247Y-85844285D01*
X155266247Y-85844285D02*
X155504342Y-85844285D01*
X155504342Y-85844285D02*
X155599580Y-85891904D01*
X155599580Y-85891904D02*
X155647200Y-85939523D01*
X155647200Y-85939523D02*
X155694819Y-86034761D01*
X155694819Y-86034761D02*
X155694819Y-86320475D01*
X155694819Y-86320475D02*
X155647200Y-86415713D01*
X155647200Y-86415713D02*
X155599580Y-86463332D01*
X176833333Y-100454819D02*
X176500000Y-99978628D01*
X176261905Y-100454819D02*
X176261905Y-99454819D01*
X176261905Y-99454819D02*
X176642857Y-99454819D01*
X176642857Y-99454819D02*
X176738095Y-99502438D01*
X176738095Y-99502438D02*
X176785714Y-99550057D01*
X176785714Y-99550057D02*
X176833333Y-99645295D01*
X176833333Y-99645295D02*
X176833333Y-99788152D01*
X176833333Y-99788152D02*
X176785714Y-99883390D01*
X176785714Y-99883390D02*
X176738095Y-99931009D01*
X176738095Y-99931009D02*
X176642857Y-99978628D01*
X176642857Y-99978628D02*
X176261905Y-99978628D01*
X177690476Y-99454819D02*
X177500000Y-99454819D01*
X177500000Y-99454819D02*
X177404762Y-99502438D01*
X177404762Y-99502438D02*
X177357143Y-99550057D01*
X177357143Y-99550057D02*
X177261905Y-99692914D01*
X177261905Y-99692914D02*
X177214286Y-99883390D01*
X177214286Y-99883390D02*
X177214286Y-100264342D01*
X177214286Y-100264342D02*
X177261905Y-100359580D01*
X177261905Y-100359580D02*
X177309524Y-100407200D01*
X177309524Y-100407200D02*
X177404762Y-100454819D01*
X177404762Y-100454819D02*
X177595238Y-100454819D01*
X177595238Y-100454819D02*
X177690476Y-100407200D01*
X177690476Y-100407200D02*
X177738095Y-100359580D01*
X177738095Y-100359580D02*
X177785714Y-100264342D01*
X177785714Y-100264342D02*
X177785714Y-100026247D01*
X177785714Y-100026247D02*
X177738095Y-99931009D01*
X177738095Y-99931009D02*
X177690476Y-99883390D01*
X177690476Y-99883390D02*
X177595238Y-99835771D01*
X177595238Y-99835771D02*
X177404762Y-99835771D01*
X177404762Y-99835771D02*
X177309524Y-99883390D01*
X177309524Y-99883390D02*
X177261905Y-99931009D01*
X177261905Y-99931009D02*
X177214286Y-100026247D01*
X179659580Y-76036666D02*
X179707200Y-76084285D01*
X179707200Y-76084285D02*
X179754819Y-76227142D01*
X179754819Y-76227142D02*
X179754819Y-76322380D01*
X179754819Y-76322380D02*
X179707200Y-76465237D01*
X179707200Y-76465237D02*
X179611961Y-76560475D01*
X179611961Y-76560475D02*
X179516723Y-76608094D01*
X179516723Y-76608094D02*
X179326247Y-76655713D01*
X179326247Y-76655713D02*
X179183390Y-76655713D01*
X179183390Y-76655713D02*
X178992914Y-76608094D01*
X178992914Y-76608094D02*
X178897676Y-76560475D01*
X178897676Y-76560475D02*
X178802438Y-76465237D01*
X178802438Y-76465237D02*
X178754819Y-76322380D01*
X178754819Y-76322380D02*
X178754819Y-76227142D01*
X178754819Y-76227142D02*
X178802438Y-76084285D01*
X178802438Y-76084285D02*
X178850057Y-76036666D01*
X179754819Y-75084285D02*
X179754819Y-75655713D01*
X179754819Y-75369999D02*
X178754819Y-75369999D01*
X178754819Y-75369999D02*
X178897676Y-75465237D01*
X178897676Y-75465237D02*
X178992914Y-75560475D01*
X178992914Y-75560475D02*
X179040533Y-75655713D01*
X184914819Y-78716666D02*
X184438628Y-79049999D01*
X184914819Y-79288094D02*
X183914819Y-79288094D01*
X183914819Y-79288094D02*
X183914819Y-78907142D01*
X183914819Y-78907142D02*
X183962438Y-78811904D01*
X183962438Y-78811904D02*
X184010057Y-78764285D01*
X184010057Y-78764285D02*
X184105295Y-78716666D01*
X184105295Y-78716666D02*
X184248152Y-78716666D01*
X184248152Y-78716666D02*
X184343390Y-78764285D01*
X184343390Y-78764285D02*
X184391009Y-78811904D01*
X184391009Y-78811904D02*
X184438628Y-78907142D01*
X184438628Y-78907142D02*
X184438628Y-79288094D01*
X184914819Y-77764285D02*
X184914819Y-78335713D01*
X184914819Y-78049999D02*
X183914819Y-78049999D01*
X183914819Y-78049999D02*
X184057676Y-78145237D01*
X184057676Y-78145237D02*
X184152914Y-78240475D01*
X184152914Y-78240475D02*
X184200533Y-78335713D01*
X173378628Y-70276190D02*
X173854819Y-70276190D01*
X172854819Y-70609523D02*
X173378628Y-70276190D01*
X173378628Y-70276190D02*
X172854819Y-69942857D01*
X173854819Y-69085714D02*
X173854819Y-69657142D01*
X173854819Y-69371428D02*
X172854819Y-69371428D01*
X172854819Y-69371428D02*
X172997676Y-69466666D01*
X172997676Y-69466666D02*
X173092914Y-69561904D01*
X173092914Y-69561904D02*
X173140533Y-69657142D01*
X191066666Y-73254819D02*
X191066666Y-73969104D01*
X191066666Y-73969104D02*
X191019047Y-74111961D01*
X191019047Y-74111961D02*
X190923809Y-74207200D01*
X190923809Y-74207200D02*
X190780952Y-74254819D01*
X190780952Y-74254819D02*
X190685714Y-74254819D01*
X191495238Y-73350057D02*
X191542857Y-73302438D01*
X191542857Y-73302438D02*
X191638095Y-73254819D01*
X191638095Y-73254819D02*
X191876190Y-73254819D01*
X191876190Y-73254819D02*
X191971428Y-73302438D01*
X191971428Y-73302438D02*
X192019047Y-73350057D01*
X192019047Y-73350057D02*
X192066666Y-73445295D01*
X192066666Y-73445295D02*
X192066666Y-73540533D01*
X192066666Y-73540533D02*
X192019047Y-73683390D01*
X192019047Y-73683390D02*
X191447619Y-74254819D01*
X191447619Y-74254819D02*
X192066666Y-74254819D01*
X154164819Y-99633333D02*
X154879104Y-99633333D01*
X154879104Y-99633333D02*
X155021961Y-99680952D01*
X155021961Y-99680952D02*
X155117200Y-99776190D01*
X155117200Y-99776190D02*
X155164819Y-99919047D01*
X155164819Y-99919047D02*
X155164819Y-100014285D01*
X154164819Y-98680952D02*
X154164819Y-99157142D01*
X154164819Y-99157142D02*
X154641009Y-99204761D01*
X154641009Y-99204761D02*
X154593390Y-99157142D01*
X154593390Y-99157142D02*
X154545771Y-99061904D01*
X154545771Y-99061904D02*
X154545771Y-98823809D01*
X154545771Y-98823809D02*
X154593390Y-98728571D01*
X154593390Y-98728571D02*
X154641009Y-98680952D01*
X154641009Y-98680952D02*
X154736247Y-98633333D01*
X154736247Y-98633333D02*
X154974342Y-98633333D01*
X154974342Y-98633333D02*
X155069580Y-98680952D01*
X155069580Y-98680952D02*
X155117200Y-98728571D01*
X155117200Y-98728571D02*
X155164819Y-98823809D01*
X155164819Y-98823809D02*
X155164819Y-99061904D01*
X155164819Y-99061904D02*
X155117200Y-99157142D01*
X155117200Y-99157142D02*
X155069580Y-99204761D01*
X162754819Y-87488094D02*
X161754819Y-87488094D01*
X161754819Y-87488094D02*
X161754819Y-87249999D01*
X161754819Y-87249999D02*
X161802438Y-87107142D01*
X161802438Y-87107142D02*
X161897676Y-87011904D01*
X161897676Y-87011904D02*
X161992914Y-86964285D01*
X161992914Y-86964285D02*
X162183390Y-86916666D01*
X162183390Y-86916666D02*
X162326247Y-86916666D01*
X162326247Y-86916666D02*
X162516723Y-86964285D01*
X162516723Y-86964285D02*
X162611961Y-87011904D01*
X162611961Y-87011904D02*
X162707200Y-87107142D01*
X162707200Y-87107142D02*
X162754819Y-87249999D01*
X162754819Y-87249999D02*
X162754819Y-87488094D01*
X161754819Y-86059523D02*
X161754819Y-86249999D01*
X161754819Y-86249999D02*
X161802438Y-86345237D01*
X161802438Y-86345237D02*
X161850057Y-86392856D01*
X161850057Y-86392856D02*
X161992914Y-86488094D01*
X161992914Y-86488094D02*
X162183390Y-86535713D01*
X162183390Y-86535713D02*
X162564342Y-86535713D01*
X162564342Y-86535713D02*
X162659580Y-86488094D01*
X162659580Y-86488094D02*
X162707200Y-86440475D01*
X162707200Y-86440475D02*
X162754819Y-86345237D01*
X162754819Y-86345237D02*
X162754819Y-86154761D01*
X162754819Y-86154761D02*
X162707200Y-86059523D01*
X162707200Y-86059523D02*
X162659580Y-86011904D01*
X162659580Y-86011904D02*
X162564342Y-85964285D01*
X162564342Y-85964285D02*
X162326247Y-85964285D01*
X162326247Y-85964285D02*
X162231009Y-86011904D01*
X162231009Y-86011904D02*
X162183390Y-86059523D01*
X162183390Y-86059523D02*
X162135771Y-86154761D01*
X162135771Y-86154761D02*
X162135771Y-86345237D01*
X162135771Y-86345237D02*
X162183390Y-86440475D01*
X162183390Y-86440475D02*
X162231009Y-86488094D01*
X162231009Y-86488094D02*
X162326247Y-86535713D01*
X165995833Y-100299580D02*
X165948214Y-100347200D01*
X165948214Y-100347200D02*
X165805357Y-100394819D01*
X165805357Y-100394819D02*
X165710119Y-100394819D01*
X165710119Y-100394819D02*
X165567262Y-100347200D01*
X165567262Y-100347200D02*
X165472024Y-100251961D01*
X165472024Y-100251961D02*
X165424405Y-100156723D01*
X165424405Y-100156723D02*
X165376786Y-99966247D01*
X165376786Y-99966247D02*
X165376786Y-99823390D01*
X165376786Y-99823390D02*
X165424405Y-99632914D01*
X165424405Y-99632914D02*
X165472024Y-99537676D01*
X165472024Y-99537676D02*
X165567262Y-99442438D01*
X165567262Y-99442438D02*
X165710119Y-99394819D01*
X165710119Y-99394819D02*
X165805357Y-99394819D01*
X165805357Y-99394819D02*
X165948214Y-99442438D01*
X165948214Y-99442438D02*
X165995833Y-99490057D01*
X166567262Y-99823390D02*
X166472024Y-99775771D01*
X166472024Y-99775771D02*
X166424405Y-99728152D01*
X166424405Y-99728152D02*
X166376786Y-99632914D01*
X166376786Y-99632914D02*
X166376786Y-99585295D01*
X166376786Y-99585295D02*
X166424405Y-99490057D01*
X166424405Y-99490057D02*
X166472024Y-99442438D01*
X166472024Y-99442438D02*
X166567262Y-99394819D01*
X166567262Y-99394819D02*
X166757738Y-99394819D01*
X166757738Y-99394819D02*
X166852976Y-99442438D01*
X166852976Y-99442438D02*
X166900595Y-99490057D01*
X166900595Y-99490057D02*
X166948214Y-99585295D01*
X166948214Y-99585295D02*
X166948214Y-99632914D01*
X166948214Y-99632914D02*
X166900595Y-99728152D01*
X166900595Y-99728152D02*
X166852976Y-99775771D01*
X166852976Y-99775771D02*
X166757738Y-99823390D01*
X166757738Y-99823390D02*
X166567262Y-99823390D01*
X166567262Y-99823390D02*
X166472024Y-99871009D01*
X166472024Y-99871009D02*
X166424405Y-99918628D01*
X166424405Y-99918628D02*
X166376786Y-100013866D01*
X166376786Y-100013866D02*
X166376786Y-100204342D01*
X166376786Y-100204342D02*
X166424405Y-100299580D01*
X166424405Y-100299580D02*
X166472024Y-100347200D01*
X166472024Y-100347200D02*
X166567262Y-100394819D01*
X166567262Y-100394819D02*
X166757738Y-100394819D01*
X166757738Y-100394819D02*
X166852976Y-100347200D01*
X166852976Y-100347200D02*
X166900595Y-100299580D01*
X166900595Y-100299580D02*
X166948214Y-100204342D01*
X166948214Y-100204342D02*
X166948214Y-100013866D01*
X166948214Y-100013866D02*
X166900595Y-99918628D01*
X166900595Y-99918628D02*
X166852976Y-99871009D01*
X166852976Y-99871009D02*
X166757738Y-99823390D01*
X179549580Y-69496666D02*
X179597200Y-69544285D01*
X179597200Y-69544285D02*
X179644819Y-69687142D01*
X179644819Y-69687142D02*
X179644819Y-69782380D01*
X179644819Y-69782380D02*
X179597200Y-69925237D01*
X179597200Y-69925237D02*
X179501961Y-70020475D01*
X179501961Y-70020475D02*
X179406723Y-70068094D01*
X179406723Y-70068094D02*
X179216247Y-70115713D01*
X179216247Y-70115713D02*
X179073390Y-70115713D01*
X179073390Y-70115713D02*
X178882914Y-70068094D01*
X178882914Y-70068094D02*
X178787676Y-70020475D01*
X178787676Y-70020475D02*
X178692438Y-69925237D01*
X178692438Y-69925237D02*
X178644819Y-69782380D01*
X178644819Y-69782380D02*
X178644819Y-69687142D01*
X178644819Y-69687142D02*
X178692438Y-69544285D01*
X178692438Y-69544285D02*
X178740057Y-69496666D01*
X178644819Y-69163332D02*
X178644819Y-68544285D01*
X178644819Y-68544285D02*
X179025771Y-68877618D01*
X179025771Y-68877618D02*
X179025771Y-68734761D01*
X179025771Y-68734761D02*
X179073390Y-68639523D01*
X179073390Y-68639523D02*
X179121009Y-68591904D01*
X179121009Y-68591904D02*
X179216247Y-68544285D01*
X179216247Y-68544285D02*
X179454342Y-68544285D01*
X179454342Y-68544285D02*
X179549580Y-68591904D01*
X179549580Y-68591904D02*
X179597200Y-68639523D01*
X179597200Y-68639523D02*
X179644819Y-68734761D01*
X179644819Y-68734761D02*
X179644819Y-69020475D01*
X179644819Y-69020475D02*
X179597200Y-69115713D01*
X179597200Y-69115713D02*
X179549580Y-69163332D01*
X160424819Y-87438094D02*
X159424819Y-87438094D01*
X159424819Y-87438094D02*
X159424819Y-87199999D01*
X159424819Y-87199999D02*
X159472438Y-87057142D01*
X159472438Y-87057142D02*
X159567676Y-86961904D01*
X159567676Y-86961904D02*
X159662914Y-86914285D01*
X159662914Y-86914285D02*
X159853390Y-86866666D01*
X159853390Y-86866666D02*
X159996247Y-86866666D01*
X159996247Y-86866666D02*
X160186723Y-86914285D01*
X160186723Y-86914285D02*
X160281961Y-86961904D01*
X160281961Y-86961904D02*
X160377200Y-87057142D01*
X160377200Y-87057142D02*
X160424819Y-87199999D01*
X160424819Y-87199999D02*
X160424819Y-87438094D01*
X159424819Y-85961904D02*
X159424819Y-86438094D01*
X159424819Y-86438094D02*
X159901009Y-86485713D01*
X159901009Y-86485713D02*
X159853390Y-86438094D01*
X159853390Y-86438094D02*
X159805771Y-86342856D01*
X159805771Y-86342856D02*
X159805771Y-86104761D01*
X159805771Y-86104761D02*
X159853390Y-86009523D01*
X159853390Y-86009523D02*
X159901009Y-85961904D01*
X159901009Y-85961904D02*
X159996247Y-85914285D01*
X159996247Y-85914285D02*
X160234342Y-85914285D01*
X160234342Y-85914285D02*
X160329580Y-85961904D01*
X160329580Y-85961904D02*
X160377200Y-86009523D01*
X160377200Y-86009523D02*
X160424819Y-86104761D01*
X160424819Y-86104761D02*
X160424819Y-86342856D01*
X160424819Y-86342856D02*
X160377200Y-86438094D01*
X160377200Y-86438094D02*
X160329580Y-86485713D01*
X200109104Y-97796666D02*
X200109104Y-97320476D01*
X200394819Y-97891904D02*
X199394819Y-97558571D01*
X199394819Y-97558571D02*
X200394819Y-97225238D01*
X199871009Y-96891904D02*
X199871009Y-96558571D01*
X200394819Y-96415714D02*
X200394819Y-96891904D01*
X200394819Y-96891904D02*
X199394819Y-96891904D01*
X199394819Y-96891904D02*
X199394819Y-96415714D01*
X199490057Y-96034761D02*
X199442438Y-95987142D01*
X199442438Y-95987142D02*
X199394819Y-95891904D01*
X199394819Y-95891904D02*
X199394819Y-95653809D01*
X199394819Y-95653809D02*
X199442438Y-95558571D01*
X199442438Y-95558571D02*
X199490057Y-95510952D01*
X199490057Y-95510952D02*
X199585295Y-95463333D01*
X199585295Y-95463333D02*
X199680533Y-95463333D01*
X199680533Y-95463333D02*
X199823390Y-95510952D01*
X199823390Y-95510952D02*
X200394819Y-96082380D01*
X200394819Y-96082380D02*
X200394819Y-95463333D01*
X173023809Y-100328628D02*
X173023809Y-100804819D01*
X172690476Y-99804819D02*
X173023809Y-100328628D01*
X173023809Y-100328628D02*
X173357142Y-99804819D01*
X173642857Y-99900057D02*
X173690476Y-99852438D01*
X173690476Y-99852438D02*
X173785714Y-99804819D01*
X173785714Y-99804819D02*
X174023809Y-99804819D01*
X174023809Y-99804819D02*
X174119047Y-99852438D01*
X174119047Y-99852438D02*
X174166666Y-99900057D01*
X174166666Y-99900057D02*
X174214285Y-99995295D01*
X174214285Y-99995295D02*
X174214285Y-100090533D01*
X174214285Y-100090533D02*
X174166666Y-100233390D01*
X174166666Y-100233390D02*
X173595238Y-100804819D01*
X173595238Y-100804819D02*
X174214285Y-100804819D01*
X156464819Y-79756666D02*
X155988628Y-80089999D01*
X156464819Y-80328094D02*
X155464819Y-80328094D01*
X155464819Y-80328094D02*
X155464819Y-79947142D01*
X155464819Y-79947142D02*
X155512438Y-79851904D01*
X155512438Y-79851904D02*
X155560057Y-79804285D01*
X155560057Y-79804285D02*
X155655295Y-79756666D01*
X155655295Y-79756666D02*
X155798152Y-79756666D01*
X155798152Y-79756666D02*
X155893390Y-79804285D01*
X155893390Y-79804285D02*
X155941009Y-79851904D01*
X155941009Y-79851904D02*
X155988628Y-79947142D01*
X155988628Y-79947142D02*
X155988628Y-80328094D01*
X155560057Y-79375713D02*
X155512438Y-79328094D01*
X155512438Y-79328094D02*
X155464819Y-79232856D01*
X155464819Y-79232856D02*
X155464819Y-78994761D01*
X155464819Y-78994761D02*
X155512438Y-78899523D01*
X155512438Y-78899523D02*
X155560057Y-78851904D01*
X155560057Y-78851904D02*
X155655295Y-78804285D01*
X155655295Y-78804285D02*
X155750533Y-78804285D01*
X155750533Y-78804285D02*
X155893390Y-78851904D01*
X155893390Y-78851904D02*
X156464819Y-79423332D01*
X156464819Y-79423332D02*
X156464819Y-78804285D01*
X188411905Y-78774819D02*
X188411905Y-77774819D01*
X188411905Y-77774819D02*
X188650000Y-77774819D01*
X188650000Y-77774819D02*
X188792857Y-77822438D01*
X188792857Y-77822438D02*
X188888095Y-77917676D01*
X188888095Y-77917676D02*
X188935714Y-78012914D01*
X188935714Y-78012914D02*
X188983333Y-78203390D01*
X188983333Y-78203390D02*
X188983333Y-78346247D01*
X188983333Y-78346247D02*
X188935714Y-78536723D01*
X188935714Y-78536723D02*
X188888095Y-78631961D01*
X188888095Y-78631961D02*
X188792857Y-78727200D01*
X188792857Y-78727200D02*
X188650000Y-78774819D01*
X188650000Y-78774819D02*
X188411905Y-78774819D01*
X189364286Y-77870057D02*
X189411905Y-77822438D01*
X189411905Y-77822438D02*
X189507143Y-77774819D01*
X189507143Y-77774819D02*
X189745238Y-77774819D01*
X189745238Y-77774819D02*
X189840476Y-77822438D01*
X189840476Y-77822438D02*
X189888095Y-77870057D01*
X189888095Y-77870057D02*
X189935714Y-77965295D01*
X189935714Y-77965295D02*
X189935714Y-78060533D01*
X189935714Y-78060533D02*
X189888095Y-78203390D01*
X189888095Y-78203390D02*
X189316667Y-78774819D01*
X189316667Y-78774819D02*
X189935714Y-78774819D01*
X152218095Y-93966819D02*
X152789523Y-93966819D01*
X152503809Y-94966819D02*
X152503809Y-93966819D01*
X153122857Y-94966819D02*
X153122857Y-93966819D01*
X153122857Y-93966819D02*
X153503809Y-93966819D01*
X153503809Y-93966819D02*
X153599047Y-94014438D01*
X153599047Y-94014438D02*
X153646666Y-94062057D01*
X153646666Y-94062057D02*
X153694285Y-94157295D01*
X153694285Y-94157295D02*
X153694285Y-94300152D01*
X153694285Y-94300152D02*
X153646666Y-94395390D01*
X153646666Y-94395390D02*
X153599047Y-94443009D01*
X153599047Y-94443009D02*
X153503809Y-94490628D01*
X153503809Y-94490628D02*
X153122857Y-94490628D01*
X154075238Y-94062057D02*
X154122857Y-94014438D01*
X154122857Y-94014438D02*
X154218095Y-93966819D01*
X154218095Y-93966819D02*
X154456190Y-93966819D01*
X154456190Y-93966819D02*
X154551428Y-94014438D01*
X154551428Y-94014438D02*
X154599047Y-94062057D01*
X154599047Y-94062057D02*
X154646666Y-94157295D01*
X154646666Y-94157295D02*
X154646666Y-94252533D01*
X154646666Y-94252533D02*
X154599047Y-94395390D01*
X154599047Y-94395390D02*
X154027619Y-94966819D01*
X154027619Y-94966819D02*
X154646666Y-94966819D01*
X181599580Y-69426666D02*
X181647200Y-69474285D01*
X181647200Y-69474285D02*
X181694819Y-69617142D01*
X181694819Y-69617142D02*
X181694819Y-69712380D01*
X181694819Y-69712380D02*
X181647200Y-69855237D01*
X181647200Y-69855237D02*
X181551961Y-69950475D01*
X181551961Y-69950475D02*
X181456723Y-69998094D01*
X181456723Y-69998094D02*
X181266247Y-70045713D01*
X181266247Y-70045713D02*
X181123390Y-70045713D01*
X181123390Y-70045713D02*
X180932914Y-69998094D01*
X180932914Y-69998094D02*
X180837676Y-69950475D01*
X180837676Y-69950475D02*
X180742438Y-69855237D01*
X180742438Y-69855237D02*
X180694819Y-69712380D01*
X180694819Y-69712380D02*
X180694819Y-69617142D01*
X180694819Y-69617142D02*
X180742438Y-69474285D01*
X180742438Y-69474285D02*
X180790057Y-69426666D01*
X181028152Y-68569523D02*
X181694819Y-68569523D01*
X180647200Y-68807618D02*
X181361485Y-69045713D01*
X181361485Y-69045713D02*
X181361485Y-68426666D01*
X152218095Y-88706819D02*
X152789523Y-88706819D01*
X152503809Y-89706819D02*
X152503809Y-88706819D01*
X153122857Y-89706819D02*
X153122857Y-88706819D01*
X153122857Y-88706819D02*
X153503809Y-88706819D01*
X153503809Y-88706819D02*
X153599047Y-88754438D01*
X153599047Y-88754438D02*
X153646666Y-88802057D01*
X153646666Y-88802057D02*
X153694285Y-88897295D01*
X153694285Y-88897295D02*
X153694285Y-89040152D01*
X153694285Y-89040152D02*
X153646666Y-89135390D01*
X153646666Y-89135390D02*
X153599047Y-89183009D01*
X153599047Y-89183009D02*
X153503809Y-89230628D01*
X153503809Y-89230628D02*
X153122857Y-89230628D01*
X154646666Y-89706819D02*
X154075238Y-89706819D01*
X154360952Y-89706819D02*
X154360952Y-88706819D01*
X154360952Y-88706819D02*
X154265714Y-88849676D01*
X154265714Y-88849676D02*
X154170476Y-88944914D01*
X154170476Y-88944914D02*
X154075238Y-88992533D01*
D14*
%TO.C,C10*%
X160098748Y-102895000D02*
X160621252Y-102895000D01*
X160098748Y-104365000D02*
X160621252Y-104365000D01*
%TO.C,D4*%
X156505000Y-81630000D02*
X156505000Y-85515000D01*
X156505000Y-85515000D02*
X158775000Y-85515000D01*
X158775000Y-85515000D02*
X158775000Y-81630000D01*
%TO.C,C7*%
X191545000Y-102114437D02*
X191545000Y-102250000D01*
X191545000Y-102114437D02*
X192609437Y-101050000D01*
X191545000Y-104505563D02*
X191545000Y-104370000D01*
X191545000Y-104505563D02*
X192609437Y-105570000D01*
X192609437Y-101050000D02*
X196065000Y-101050000D01*
X192609437Y-105570000D02*
X196065000Y-105570000D01*
X196065000Y-101050000D02*
X196065000Y-102250000D01*
X196065000Y-105570000D02*
X196065000Y-104370000D01*
%TO.C,R4*%
X159275000Y-76867064D02*
X159275000Y-76412936D01*
X160745000Y-76867064D02*
X160745000Y-76412936D01*
%TO.C,C2*%
X181605000Y-81196248D02*
X181605000Y-81718752D01*
X183075000Y-81196248D02*
X183075000Y-81718752D01*
%TO.C,U2*%
X198622500Y-79790000D02*
X198622500Y-83550000D01*
X198622500Y-83550000D02*
X199882500Y-83550000D01*
X205442500Y-79790000D02*
X205442500Y-83550000D01*
X205442500Y-83550000D02*
X204182500Y-83550000D01*
X205672500Y-78750000D02*
X205342500Y-78510000D01*
X205672500Y-78270000D01*
X205672500Y-78750000D01*
G36*
X205672500Y-78750000D02*
G01*
X205342500Y-78510000D01*
X205672500Y-78270000D01*
X205672500Y-78750000D01*
G37*
%TO.C,C5*%
X153245000Y-76903752D02*
X153245000Y-76381248D01*
X154715000Y-76903752D02*
X154715000Y-76381248D01*
%TO.C,R3*%
X157285000Y-76867064D02*
X157285000Y-76412936D01*
X158755000Y-76867064D02*
X158755000Y-76412936D01*
%TO.C,U1*%
X167475000Y-68835000D02*
X165525000Y-68835000D01*
X167475000Y-68835000D02*
X169425000Y-68835000D01*
X167475000Y-78955000D02*
X165525000Y-78955000D01*
X167475000Y-78955000D02*
X169425000Y-78955000D01*
X170415000Y-79230000D02*
X169935000Y-79230000D01*
X170175000Y-78900000D01*
X170415000Y-79230000D01*
G36*
X170415000Y-79230000D02*
G01*
X169935000Y-79230000D01*
X170175000Y-78900000D01*
X170415000Y-79230000D01*
G37*
%TO.C,SW1*%
X193120000Y-72070000D02*
X196820000Y-72070000D01*
X193120000Y-78190000D02*
X193120000Y-72070000D01*
X196820000Y-72070000D02*
X196820000Y-78190000D01*
X196820000Y-78190000D02*
X193120000Y-78190000D01*
%TO.C,U4*%
X179775000Y-84100000D02*
X195975000Y-84100000D01*
X179775000Y-99900000D02*
X179775000Y-100300000D01*
X179775000Y-100300000D02*
X195975000Y-100300000D01*
X195975000Y-84100000D02*
X195975000Y-84500000D01*
X195975000Y-100300000D02*
X195975000Y-99900000D01*
X179275000Y-84300000D02*
X179035000Y-83964000D01*
X179515000Y-83964000D01*
X179275000Y-84300000D01*
G36*
X179275000Y-84300000D02*
G01*
X179035000Y-83964000D01*
X179515000Y-83964000D01*
X179275000Y-84300000D01*
G37*
%TO.C,C6*%
X161355000Y-76901252D02*
X161355000Y-76378748D01*
X162825000Y-76901252D02*
X162825000Y-76378748D01*
%TO.C,J6*%
X164650000Y-80920000D02*
X164650000Y-86120000D01*
X169790000Y-80920000D02*
X164650000Y-80920000D01*
X169790000Y-80920000D02*
X169790000Y-83520000D01*
X169790000Y-83520000D02*
X172390000Y-83520000D01*
X171060000Y-80920000D02*
X172390000Y-80920000D01*
X172390000Y-80920000D02*
X172390000Y-82250000D01*
X172390000Y-83520000D02*
X172390000Y-86120000D01*
X172390000Y-86120000D02*
X164650000Y-86120000D01*
%TO.C,R5*%
X161725000Y-89682936D02*
X161725000Y-90137064D01*
X163195000Y-89682936D02*
X163195000Y-90137064D01*
%TO.C,C9*%
X179058752Y-103055000D02*
X178536248Y-103055000D01*
X179058752Y-104525000D02*
X178536248Y-104525000D01*
D13*
%TO.C,U3*%
X165775000Y-89225000D02*
X165775000Y-89550000D01*
X165775000Y-89225000D02*
X166100000Y-89225000D01*
X165775000Y-96475000D02*
X165775000Y-96150000D01*
X165775000Y-96475000D02*
X166000000Y-96475000D01*
X173025000Y-89225000D02*
X172700000Y-89225000D01*
X173025000Y-89225000D02*
X173025000Y-89550000D01*
X173025000Y-96475000D02*
X172700000Y-96475000D01*
X173025000Y-96475000D02*
X173025000Y-96150000D01*
D14*
X166060000Y-97240000D02*
X165590000Y-97580000D01*
X165590000Y-96900000D01*
X166060000Y-97240000D01*
G36*
X166060000Y-97240000D02*
G01*
X165590000Y-97580000D01*
X165590000Y-96900000D01*
X166060000Y-97240000D01*
G37*
%TO.C,AE1*%
X201560000Y-91760000D02*
X201560000Y-90520000D01*
X204050000Y-89270000D02*
X202810000Y-89270000D01*
X204050000Y-93010000D02*
X202810000Y-93010000D01*
X205300000Y-91760000D02*
X205300000Y-90520000D01*
%TO.C,D3*%
X154115000Y-81620000D02*
X154115000Y-85505000D01*
X154115000Y-85505000D02*
X156385000Y-85505000D01*
X156385000Y-85505000D02*
X156385000Y-81620000D01*
%TO.C,R6*%
X179077064Y-100835000D02*
X178622936Y-100835000D01*
X179077064Y-102305000D02*
X178622936Y-102305000D01*
%TO.C,C1*%
X178605000Y-78501248D02*
X178605000Y-79023752D01*
X180075000Y-78501248D02*
X180075000Y-79023752D01*
%TO.C,R1*%
X183675000Y-81242936D02*
X183675000Y-81697064D01*
X185145000Y-81242936D02*
X185145000Y-81697064D01*
%TO.C,Y1*%
X172995000Y-69650000D02*
X172995000Y-82250000D01*
X172995000Y-82250000D02*
X178095000Y-82250000D01*
X178095000Y-82250000D02*
X178095000Y-69650000D01*
%TO.C,J2*%
X183360000Y-68190000D02*
X183360000Y-67790000D01*
X183360000Y-70160000D02*
X183360000Y-72140000D01*
X183360000Y-72140000D02*
X183780000Y-72140000D01*
X188430000Y-72820000D02*
X188880000Y-72820000D01*
X188880000Y-72370000D02*
X188880000Y-72820000D01*
X190880000Y-67790000D02*
X190880000Y-68190000D01*
X190880000Y-70160000D02*
X190880000Y-72140000D01*
X190880000Y-72140000D02*
X190460000Y-72140000D01*
%TO.C,J5*%
X155940000Y-89510000D02*
X157270000Y-89510000D01*
X155940000Y-90840000D02*
X155940000Y-89510000D01*
X155940000Y-92110000D02*
X155940000Y-99790000D01*
X155940000Y-92110000D02*
X158600000Y-92110000D01*
X155940000Y-99790000D02*
X158600000Y-99790000D01*
X158600000Y-92110000D02*
X158600000Y-99790000D01*
%TO.C,D6*%
X161335000Y-80955000D02*
X161335000Y-84840000D01*
X163605000Y-80955000D02*
X161335000Y-80955000D01*
X163605000Y-84840000D02*
X163605000Y-80955000D01*
%TO.C,C8*%
X169301248Y-99005000D02*
X169823752Y-99005000D01*
X169301248Y-100475000D02*
X169823752Y-100475000D01*
%TO.C,C3*%
X178505000Y-72598752D02*
X178505000Y-72076248D01*
X179975000Y-72598752D02*
X179975000Y-72076248D01*
%TO.C,D5*%
X158885000Y-81620000D02*
X158885000Y-85505000D01*
X158885000Y-85505000D02*
X161155000Y-85505000D01*
X161155000Y-85505000D02*
X161155000Y-81620000D01*
%TO.C,AE2*%
X202020000Y-95385000D02*
X202660000Y-95385000D01*
X204180000Y-95385000D02*
X204180000Y-94755000D01*
X204770000Y-98105000D02*
X202070000Y-98105000D01*
X204820000Y-95385000D02*
X204180000Y-95385000D01*
%TO.C,Y2*%
X163850000Y-106350000D02*
X176450000Y-106350000D01*
X176450000Y-101250000D02*
X163850000Y-101250000D01*
X176450000Y-106350000D02*
X176450000Y-101250000D01*
%TO.C,R2*%
X155295000Y-76867064D02*
X155295000Y-76412936D01*
X156765000Y-76867064D02*
X156765000Y-76412936D01*
%TO.C,D2*%
X182920000Y-73940000D02*
X182920000Y-77240000D01*
X182920000Y-73940000D02*
X188430000Y-73940000D01*
X182920000Y-77240000D02*
X188430000Y-77240000D01*
%TO.C,TP2*%
X154180000Y-95960000D02*
G75*
G02*
X152780000Y-95960000I-700000J0D01*
G01*
X152780000Y-95960000D02*
G75*
G02*
X154180000Y-95960000I700000J0D01*
G01*
%TO.C,C4*%
X180545000Y-72588752D02*
X180545000Y-72066248D01*
X182015000Y-72588752D02*
X182015000Y-72066248D01*
%TO.C,TP1*%
X154180000Y-90700000D02*
G75*
G02*
X152780000Y-90700000I-700000J0D01*
G01*
X152780000Y-90700000D02*
G75*
G02*
X154180000Y-90700000I700000J0D01*
G01*
%TD*%
M02*
