%TF.GenerationSoftware,KiCad,Pcbnew,8.0.4-8.0.4-0~ubuntu24.04.1*%
%TF.CreationDate,2024-08-31T18:15:15+03:00*%
%TF.ProjectId,ground_control_using_pc,67726f75-6e64-45f6-936f-6e74726f6c5f,rev?*%
%TF.SameCoordinates,Original*%
%TF.FileFunction,OtherDrawing,Comment*%
%FSLAX46Y46*%
G04 Gerber Fmt 4.6, Leading zero omitted, Abs format (unit mm)*
G04 Created by KiCad (PCBNEW 8.0.4-8.0.4-0~ubuntu24.04.1) date 2024-08-31 18:15:15*
%MOMM*%
%LPD*%
G01*
G04 APERTURE LIST*
%ADD10C,0.080000*%
%ADD11C,0.100000*%
G04 APERTURE END LIST*
D10*
X185405714Y-67957149D02*
X185405714Y-67457149D01*
X185405714Y-67457149D02*
X185596190Y-67457149D01*
X185596190Y-67457149D02*
X185643809Y-67480959D01*
X185643809Y-67480959D02*
X185667619Y-67504768D01*
X185667619Y-67504768D02*
X185691428Y-67552387D01*
X185691428Y-67552387D02*
X185691428Y-67623816D01*
X185691428Y-67623816D02*
X185667619Y-67671435D01*
X185667619Y-67671435D02*
X185643809Y-67695244D01*
X185643809Y-67695244D02*
X185596190Y-67719054D01*
X185596190Y-67719054D02*
X185405714Y-67719054D01*
X186191428Y-67909530D02*
X186167619Y-67933340D01*
X186167619Y-67933340D02*
X186096190Y-67957149D01*
X186096190Y-67957149D02*
X186048571Y-67957149D01*
X186048571Y-67957149D02*
X185977143Y-67933340D01*
X185977143Y-67933340D02*
X185929524Y-67885720D01*
X185929524Y-67885720D02*
X185905714Y-67838101D01*
X185905714Y-67838101D02*
X185881905Y-67742863D01*
X185881905Y-67742863D02*
X185881905Y-67671435D01*
X185881905Y-67671435D02*
X185905714Y-67576197D01*
X185905714Y-67576197D02*
X185929524Y-67528578D01*
X185929524Y-67528578D02*
X185977143Y-67480959D01*
X185977143Y-67480959D02*
X186048571Y-67457149D01*
X186048571Y-67457149D02*
X186096190Y-67457149D01*
X186096190Y-67457149D02*
X186167619Y-67480959D01*
X186167619Y-67480959D02*
X186191428Y-67504768D01*
X186572381Y-67695244D02*
X186643809Y-67719054D01*
X186643809Y-67719054D02*
X186667619Y-67742863D01*
X186667619Y-67742863D02*
X186691428Y-67790482D01*
X186691428Y-67790482D02*
X186691428Y-67861911D01*
X186691428Y-67861911D02*
X186667619Y-67909530D01*
X186667619Y-67909530D02*
X186643809Y-67933340D01*
X186643809Y-67933340D02*
X186596190Y-67957149D01*
X186596190Y-67957149D02*
X186405714Y-67957149D01*
X186405714Y-67957149D02*
X186405714Y-67457149D01*
X186405714Y-67457149D02*
X186572381Y-67457149D01*
X186572381Y-67457149D02*
X186620000Y-67480959D01*
X186620000Y-67480959D02*
X186643809Y-67504768D01*
X186643809Y-67504768D02*
X186667619Y-67552387D01*
X186667619Y-67552387D02*
X186667619Y-67600006D01*
X186667619Y-67600006D02*
X186643809Y-67647625D01*
X186643809Y-67647625D02*
X186620000Y-67671435D01*
X186620000Y-67671435D02*
X186572381Y-67695244D01*
X186572381Y-67695244D02*
X186405714Y-67695244D01*
X187286666Y-67695244D02*
X187453333Y-67695244D01*
X187524761Y-67957149D02*
X187286666Y-67957149D01*
X187286666Y-67957149D02*
X187286666Y-67457149D01*
X187286666Y-67457149D02*
X187524761Y-67457149D01*
X187953333Y-67957149D02*
X187953333Y-67457149D01*
X187953333Y-67933340D02*
X187905714Y-67957149D01*
X187905714Y-67957149D02*
X187810476Y-67957149D01*
X187810476Y-67957149D02*
X187762857Y-67933340D01*
X187762857Y-67933340D02*
X187739047Y-67909530D01*
X187739047Y-67909530D02*
X187715238Y-67861911D01*
X187715238Y-67861911D02*
X187715238Y-67719054D01*
X187715238Y-67719054D02*
X187739047Y-67671435D01*
X187739047Y-67671435D02*
X187762857Y-67647625D01*
X187762857Y-67647625D02*
X187810476Y-67623816D01*
X187810476Y-67623816D02*
X187905714Y-67623816D01*
X187905714Y-67623816D02*
X187953333Y-67647625D01*
X188405714Y-67623816D02*
X188405714Y-68028578D01*
X188405714Y-68028578D02*
X188381904Y-68076197D01*
X188381904Y-68076197D02*
X188358095Y-68100006D01*
X188358095Y-68100006D02*
X188310476Y-68123816D01*
X188310476Y-68123816D02*
X188239047Y-68123816D01*
X188239047Y-68123816D02*
X188191428Y-68100006D01*
X188405714Y-67933340D02*
X188358095Y-67957149D01*
X188358095Y-67957149D02*
X188262857Y-67957149D01*
X188262857Y-67957149D02*
X188215238Y-67933340D01*
X188215238Y-67933340D02*
X188191428Y-67909530D01*
X188191428Y-67909530D02*
X188167619Y-67861911D01*
X188167619Y-67861911D02*
X188167619Y-67719054D01*
X188167619Y-67719054D02*
X188191428Y-67671435D01*
X188191428Y-67671435D02*
X188215238Y-67647625D01*
X188215238Y-67647625D02*
X188262857Y-67623816D01*
X188262857Y-67623816D02*
X188358095Y-67623816D01*
X188358095Y-67623816D02*
X188405714Y-67647625D01*
X188834285Y-67933340D02*
X188786666Y-67957149D01*
X188786666Y-67957149D02*
X188691428Y-67957149D01*
X188691428Y-67957149D02*
X188643809Y-67933340D01*
X188643809Y-67933340D02*
X188620000Y-67885720D01*
X188620000Y-67885720D02*
X188620000Y-67695244D01*
X188620000Y-67695244D02*
X188643809Y-67647625D01*
X188643809Y-67647625D02*
X188691428Y-67623816D01*
X188691428Y-67623816D02*
X188786666Y-67623816D01*
X188786666Y-67623816D02*
X188834285Y-67647625D01*
X188834285Y-67647625D02*
X188858095Y-67695244D01*
X188858095Y-67695244D02*
X188858095Y-67742863D01*
X188858095Y-67742863D02*
X188620000Y-67790482D01*
D11*
%TO.C,J2*%
X184120000Y-67730000D02*
X190120000Y-67730000D01*
%TD*%
M02*
