M48
; DRILL file {KiCad 8.0.4-8.0.4-0~ubuntu24.04.1} date 2024-09-01T12:20:00+0300
; FORMAT={-:-/ absolute / inch / decimal}
; #@! TF.CreationDate,2024-09-01T12:20:00+03:00
; #@! TF.GenerationSoftware,Kicad,Pcbnew,8.0.4-8.0.4-0~ubuntu24.04.1
; #@! TF.FileFunction,Plated,1,2,PTH
FMAT,2
INCH
; #@! TA.AperFunction,Plated,PTH,ViaDrill
T1C0.0118
; #@! TA.AperFunction,Plated,PTH,ComponentDrill
T2C0.0197
; #@! TA.AperFunction,Plated,PTH,ComponentDrill
T3C0.0217
; #@! TA.AperFunction,Plated,PTH,ComponentDrill
T4C0.0331
; #@! TA.AperFunction,Plated,PTH,ComponentDrill
T5C0.0394
; #@! TA.AperFunction,Plated,PTH,ComponentDrill
T6C0.0866
%
G90
G05
T1
X6.2626Y-2.9094
X6.3Y-3.6386
X6.4453Y-3.5791
X6.5484Y-3.878
X6.6039Y-3.0346
X6.6055Y-2.9839
X6.6457Y-3.5429
X6.6626Y-3.6075
X6.7043Y-3.7114
X6.748Y-3.6315
X6.748Y-3.6988
X6.7874Y-2.8354
X6.7874Y-3.0748
X6.835Y-3.0984
X6.8366Y-3.0697
X6.837Y-3.039
X6.8961Y-3.4626
X6.9299Y-2.9441
X6.9488Y-3.3071
X6.9488Y-3.3465
X6.9488Y-3.3858
X6.9602Y-3.748
X6.9642Y-3.5906
X6.9882Y-3.3071
X6.9882Y-3.3465
X6.9882Y-3.3858
X7.0016Y-2.8894
X7.1362Y-3.0004
X7.2441Y-3.7992
X7.2441Y-3.8386
X7.2441Y-3.878
X7.2441Y-3.9173
X7.2638Y-4.1339
X7.2638Y-4.1732
X7.2835Y-3.7992
X7.2835Y-3.8386
X7.2835Y-3.878
X7.2835Y-3.9173
X7.3031Y-4.1339
X7.3031Y-4.1732
X7.3228Y-3.7992
X7.3228Y-3.8386
X7.3228Y-3.878
X7.3228Y-3.9173
X7.3425Y-4.1339
X7.3425Y-4.1732
X7.3622Y-3.7992
X7.3622Y-3.8386
X7.3622Y-3.878
X7.3622Y-3.9173
X7.3661Y-2.8906
X7.3819Y-4.1339
X7.3819Y-4.1732
X7.4016Y-3.7992
X7.4016Y-3.8386
X7.4016Y-3.878
X7.4016Y-3.9173
X7.4213Y-4.1339
X7.4213Y-4.1732
X7.4409Y-3.7992
X7.4409Y-3.8386
X7.4409Y-3.878
X7.4409Y-3.9173
X7.4606Y-4.1339
X7.4606Y-4.1732
X7.4657Y-3.628
X7.4803Y-3.7992
X7.4803Y-3.8386
X7.4803Y-3.878
X7.4803Y-3.9173
T4
X7.9591Y-3.5382
X7.9591Y-3.6382
X8.0091Y-3.5882
X8.0591Y-3.5382
X8.0591Y-3.6382
T5
X6.1917Y-3.5764
X6.1917Y-3.6764
X6.1917Y-3.7764
X6.1917Y-3.8764
X6.5346Y-3.2382
X6.5346Y-3.3382
X6.6346Y-3.2382
X6.6346Y-3.3382
X6.7346Y-3.2382
X6.7346Y-3.3382
T6
X6.1024Y-2.8031
X6.1024Y-4.0945
X7.9724Y-2.7953
X7.9724Y-4.0945
T2
G00X7.2291Y-2.7364
M15
G01X7.2291Y-2.7108
M16
G05
G00X7.5047Y-2.7364
M15
G01X7.5047Y-2.7108
M16
G05
T3
G00X7.2744Y-2.8299
M15
G01X7.2626Y-2.8299
M16
G05
G00X7.4713Y-2.8299
M15
G01X7.4594Y-2.8299
M16
G05
M30
