%TF.GenerationSoftware,KiCad,Pcbnew,8.0.4-8.0.4-0~ubuntu24.04.1*%
%TF.CreationDate,2024-08-31T18:15:14+03:00*%
%TF.ProjectId,ground_control_using_pc,67726f75-6e64-45f6-936f-6e74726f6c5f,rev?*%
%TF.SameCoordinates,Original*%
%TF.FileFunction,Paste,Top*%
%TF.FilePolarity,Positive*%
%FSLAX46Y46*%
G04 Gerber Fmt 4.6, Leading zero omitted, Abs format (unit mm)*
G04 Created by KiCad (PCBNEW 8.0.4-8.0.4-0~ubuntu24.04.1) date 2024-08-31 18:15:14*
%MOMM*%
%LPD*%
G01*
G04 APERTURE LIST*
G04 Aperture macros list*
%AMRoundRect*
0 Rectangle with rounded corners*
0 $1 Rounding radius*
0 $2 $3 $4 $5 $6 $7 $8 $9 X,Y pos of 4 corners*
0 Add a 4 corners polygon primitive as box body*
4,1,4,$2,$3,$4,$5,$6,$7,$8,$9,$2,$3,0*
0 Add four circle primitives for the rounded corners*
1,1,$1+$1,$2,$3*
1,1,$1+$1,$4,$5*
1,1,$1+$1,$6,$7*
1,1,$1+$1,$8,$9*
0 Add four rect primitives between the rounded corners*
20,1,$1+$1,$2,$3,$4,$5,0*
20,1,$1+$1,$4,$5,$6,$7,0*
20,1,$1+$1,$6,$7,$8,$9,0*
20,1,$1+$1,$8,$9,$2,$3,0*%
G04 Aperture macros list end*
%ADD10RoundRect,0.250000X-0.337500X-0.475000X0.337500X-0.475000X0.337500X0.475000X-0.337500X0.475000X0*%
%ADD11RoundRect,0.250000X0.625000X-0.375000X0.625000X0.375000X-0.625000X0.375000X-0.625000X-0.375000X0*%
%ADD12RoundRect,0.250000X-1.075000X-0.550000X1.075000X-0.550000X1.075000X0.550000X-1.075000X0.550000X0*%
%ADD13RoundRect,0.250000X0.450000X-0.350000X0.450000X0.350000X-0.450000X0.350000X-0.450000X-0.350000X0*%
%ADD14RoundRect,0.250000X-0.475000X0.337500X-0.475000X-0.337500X0.475000X-0.337500X0.475000X0.337500X0*%
%ADD15RoundRect,0.375000X-0.375000X0.625000X-0.375000X-0.625000X0.375000X-0.625000X0.375000X0.625000X0*%
%ADD16RoundRect,0.500000X-1.400000X0.500000X-1.400000X-0.500000X1.400000X-0.500000X1.400000X0.500000X0*%
%ADD17RoundRect,0.250000X0.475000X-0.337500X0.475000X0.337500X-0.475000X0.337500X-0.475000X-0.337500X0*%
%ADD18RoundRect,0.150000X0.825000X0.150000X-0.825000X0.150000X-0.825000X-0.150000X0.825000X-0.150000X0*%
%ADD19R,1.500000X1.500000*%
%ADD20RoundRect,0.317500X-1.157500X-0.317500X1.157500X-0.317500X1.157500X0.317500X-1.157500X0.317500X0*%
%ADD21RoundRect,0.250000X-0.450000X0.350000X-0.450000X-0.350000X0.450000X-0.350000X0.450000X0.350000X0*%
%ADD22RoundRect,0.250000X0.337500X0.475000X-0.337500X0.475000X-0.337500X-0.475000X0.337500X-0.475000X0*%
%ADD23R,0.550000X1.600000*%
%ADD24R,1.600000X0.550000*%
%ADD25RoundRect,0.250000X0.350000X0.450000X-0.350000X0.450000X-0.350000X-0.450000X0.350000X-0.450000X0*%
%ADD26R,2.000000X4.500000*%
%ADD27O,0.890000X1.550000*%
%ADD28O,1.250000X0.950000*%
%ADD29R,0.400000X1.350000*%
%ADD30R,1.200000X1.550000*%
%ADD31R,1.500000X1.550000*%
%ADD32RoundRect,0.250000X-0.625000X0.375000X-0.625000X-0.375000X0.625000X-0.375000X0.625000X0.375000X0*%
%ADD33RoundRect,0.250000X-0.250000X0.275000X-0.250000X-0.275000X0.250000X-0.275000X0.250000X0.275000X0*%
%ADD34RoundRect,0.250000X-0.275000X0.850000X-0.275000X-0.850000X0.275000X-0.850000X0.275000X0.850000X0*%
%ADD35R,4.500000X2.000000*%
%ADD36RoundRect,0.250000X-1.000000X-0.650000X1.000000X-0.650000X1.000000X0.650000X-1.000000X0.650000X0*%
G04 APERTURE END LIST*
D10*
%TO.C,C10*%
X159322500Y-103630000D03*
X161397500Y-103630000D03*
%TD*%
D11*
%TO.C,D4*%
X157640000Y-84630000D03*
X157640000Y-81830000D03*
%TD*%
D12*
%TO.C,C7*%
X192130000Y-103310000D03*
X195480000Y-103310000D03*
%TD*%
D13*
%TO.C,R4*%
X160010000Y-77640000D03*
X160010000Y-75640000D03*
%TD*%
D14*
%TO.C,C2*%
X182340000Y-80420000D03*
X182340000Y-82495000D03*
%TD*%
D15*
%TO.C,U2*%
X204332500Y-78490000D03*
X202032500Y-78490000D03*
D16*
X202032500Y-84790000D03*
D15*
X199732500Y-78490000D03*
%TD*%
D17*
%TO.C,C5*%
X153980000Y-77680000D03*
X153980000Y-75605000D03*
%TD*%
D13*
%TO.C,R3*%
X158020000Y-77640000D03*
X158020000Y-75640000D03*
%TD*%
D18*
%TO.C,U1*%
X169950000Y-78340000D03*
X169950000Y-77070000D03*
X169950000Y-75800000D03*
X169950000Y-74530000D03*
X169950000Y-73260000D03*
X169950000Y-71990000D03*
X169950000Y-70720000D03*
X169950000Y-69450000D03*
X165000000Y-69450000D03*
X165000000Y-70720000D03*
X165000000Y-71990000D03*
X165000000Y-73260000D03*
X165000000Y-74530000D03*
X165000000Y-75800000D03*
X165000000Y-77070000D03*
X165000000Y-78340000D03*
%TD*%
D19*
%TO.C,SW1*%
X194970000Y-71230000D03*
X194970000Y-79030000D03*
%TD*%
D20*
%TO.C,U4*%
X180350000Y-85200000D03*
X180350000Y-87200000D03*
X180350000Y-89200000D03*
X180350000Y-91200000D03*
X180350000Y-93200000D03*
X180350000Y-95200000D03*
X180350000Y-97200000D03*
X180350000Y-99200000D03*
X195400000Y-99200000D03*
X195400000Y-97200000D03*
X195400000Y-95200000D03*
X195400000Y-93200000D03*
X195400000Y-91200000D03*
X195400000Y-89200000D03*
X195400000Y-87200000D03*
X195400000Y-85200000D03*
%TD*%
D17*
%TO.C,C6*%
X162090000Y-77677500D03*
X162090000Y-75602500D03*
%TD*%
D21*
%TO.C,R5*%
X162460000Y-88910000D03*
X162460000Y-90910000D03*
%TD*%
D22*
%TO.C,C9*%
X179835000Y-103790000D03*
X177760000Y-103790000D03*
%TD*%
D23*
%TO.C,U3*%
X166600000Y-97100000D03*
X167400000Y-97100000D03*
X168200000Y-97100000D03*
X169000000Y-97100000D03*
X169800000Y-97100000D03*
X170600000Y-97100000D03*
X171400000Y-97100000D03*
X172200000Y-97100000D03*
D24*
X173650000Y-95650000D03*
X173650000Y-94850000D03*
X173650000Y-94050000D03*
X173650000Y-93250000D03*
X173650000Y-92450000D03*
X173650000Y-91650000D03*
X173650000Y-90850000D03*
X173650000Y-90050000D03*
D23*
X172200000Y-88600000D03*
X171400000Y-88600000D03*
X170600000Y-88600000D03*
X169800000Y-88600000D03*
X169000000Y-88600000D03*
X168200000Y-88600000D03*
X167400000Y-88600000D03*
X166600000Y-88600000D03*
D24*
X165150000Y-90050000D03*
X165150000Y-90850000D03*
X165150000Y-91650000D03*
X165150000Y-92450000D03*
X165150000Y-93250000D03*
X165150000Y-94050000D03*
X165150000Y-94850000D03*
X165150000Y-95650000D03*
%TD*%
D11*
%TO.C,D3*%
X155250000Y-84620000D03*
X155250000Y-81820000D03*
%TD*%
D25*
%TO.C,R6*%
X179850000Y-101570000D03*
X177850000Y-101570000D03*
%TD*%
D14*
%TO.C,C1*%
X179340000Y-77725000D03*
X179340000Y-79800000D03*
%TD*%
D21*
%TO.C,R1*%
X184410000Y-80470000D03*
X184410000Y-82470000D03*
%TD*%
D26*
%TO.C,Y1*%
X175545000Y-79800000D03*
X175545000Y-71300000D03*
%TD*%
D27*
%TO.C,J2*%
X190620000Y-69180000D03*
D28*
X189620000Y-71880000D03*
X184620000Y-71880000D03*
D27*
X183620000Y-69180000D03*
D29*
X188420000Y-71880000D03*
X187770000Y-71880000D03*
X187120000Y-71880000D03*
X186470000Y-71880000D03*
X185820000Y-71880000D03*
D30*
X190020000Y-69180000D03*
D31*
X188120000Y-69180000D03*
X186120000Y-69180000D03*
D30*
X184220000Y-69180000D03*
%TD*%
D32*
%TO.C,D6*%
X162470000Y-81840000D03*
X162470000Y-84640000D03*
%TD*%
D10*
%TO.C,C8*%
X168525000Y-99740000D03*
X170600000Y-99740000D03*
%TD*%
D17*
%TO.C,C3*%
X179240000Y-73375000D03*
X179240000Y-71300000D03*
%TD*%
D11*
%TO.C,D5*%
X160020000Y-84620000D03*
X160020000Y-81820000D03*
%TD*%
D33*
%TO.C,AE2*%
X203420000Y-95220000D03*
D34*
X204895000Y-96745000D03*
X201945000Y-96745000D03*
%TD*%
D35*
%TO.C,Y2*%
X174000000Y-103800000D03*
X165500000Y-103800000D03*
%TD*%
D13*
%TO.C,R2*%
X156030000Y-77640000D03*
X156030000Y-75640000D03*
%TD*%
D36*
%TO.C,D2*%
X184430000Y-75590000D03*
X188430000Y-75590000D03*
%TD*%
D17*
%TO.C,C4*%
X181280000Y-73365000D03*
X181280000Y-71290000D03*
%TD*%
M02*
