%TF.GenerationSoftware,KiCad,Pcbnew,8.0.4-8.0.4-0~ubuntu24.04.1*%
%TF.CreationDate,2024-09-01T12:54:39+03:00*%
%TF.ProjectId,control_body,636f6e74-726f-46c5-9f62-6f64792e6b69,rev?*%
%TF.SameCoordinates,Original*%
%TF.FileFunction,OtherDrawing,Comment*%
%FSLAX46Y46*%
G04 Gerber Fmt 4.6, Leading zero omitted, Abs format (unit mm)*
G04 Created by KiCad (PCBNEW 8.0.4-8.0.4-0~ubuntu24.04.1) date 2024-09-01 12:54:39*
%MOMM*%
%LPD*%
G01*
G04 APERTURE LIST*
%ADD10C,0.080000*%
%ADD11C,0.100000*%
G04 APERTURE END LIST*
D10*
X107632149Y-96964285D02*
X107132149Y-96964285D01*
X107132149Y-96964285D02*
X107132149Y-96773809D01*
X107132149Y-96773809D02*
X107155959Y-96726190D01*
X107155959Y-96726190D02*
X107179768Y-96702380D01*
X107179768Y-96702380D02*
X107227387Y-96678571D01*
X107227387Y-96678571D02*
X107298816Y-96678571D01*
X107298816Y-96678571D02*
X107346435Y-96702380D01*
X107346435Y-96702380D02*
X107370244Y-96726190D01*
X107370244Y-96726190D02*
X107394054Y-96773809D01*
X107394054Y-96773809D02*
X107394054Y-96964285D01*
X107584530Y-96178571D02*
X107608340Y-96202380D01*
X107608340Y-96202380D02*
X107632149Y-96273809D01*
X107632149Y-96273809D02*
X107632149Y-96321428D01*
X107632149Y-96321428D02*
X107608340Y-96392856D01*
X107608340Y-96392856D02*
X107560720Y-96440475D01*
X107560720Y-96440475D02*
X107513101Y-96464285D01*
X107513101Y-96464285D02*
X107417863Y-96488094D01*
X107417863Y-96488094D02*
X107346435Y-96488094D01*
X107346435Y-96488094D02*
X107251197Y-96464285D01*
X107251197Y-96464285D02*
X107203578Y-96440475D01*
X107203578Y-96440475D02*
X107155959Y-96392856D01*
X107155959Y-96392856D02*
X107132149Y-96321428D01*
X107132149Y-96321428D02*
X107132149Y-96273809D01*
X107132149Y-96273809D02*
X107155959Y-96202380D01*
X107155959Y-96202380D02*
X107179768Y-96178571D01*
X107370244Y-95797618D02*
X107394054Y-95726190D01*
X107394054Y-95726190D02*
X107417863Y-95702380D01*
X107417863Y-95702380D02*
X107465482Y-95678571D01*
X107465482Y-95678571D02*
X107536911Y-95678571D01*
X107536911Y-95678571D02*
X107584530Y-95702380D01*
X107584530Y-95702380D02*
X107608340Y-95726190D01*
X107608340Y-95726190D02*
X107632149Y-95773809D01*
X107632149Y-95773809D02*
X107632149Y-95964285D01*
X107632149Y-95964285D02*
X107132149Y-95964285D01*
X107132149Y-95964285D02*
X107132149Y-95797618D01*
X107132149Y-95797618D02*
X107155959Y-95749999D01*
X107155959Y-95749999D02*
X107179768Y-95726190D01*
X107179768Y-95726190D02*
X107227387Y-95702380D01*
X107227387Y-95702380D02*
X107275006Y-95702380D01*
X107275006Y-95702380D02*
X107322625Y-95726190D01*
X107322625Y-95726190D02*
X107346435Y-95749999D01*
X107346435Y-95749999D02*
X107370244Y-95797618D01*
X107370244Y-95797618D02*
X107370244Y-95964285D01*
X107370244Y-95083333D02*
X107370244Y-94916666D01*
X107632149Y-94845238D02*
X107632149Y-95083333D01*
X107632149Y-95083333D02*
X107132149Y-95083333D01*
X107132149Y-95083333D02*
X107132149Y-94845238D01*
X107632149Y-94416666D02*
X107132149Y-94416666D01*
X107608340Y-94416666D02*
X107632149Y-94464285D01*
X107632149Y-94464285D02*
X107632149Y-94559523D01*
X107632149Y-94559523D02*
X107608340Y-94607142D01*
X107608340Y-94607142D02*
X107584530Y-94630952D01*
X107584530Y-94630952D02*
X107536911Y-94654761D01*
X107536911Y-94654761D02*
X107394054Y-94654761D01*
X107394054Y-94654761D02*
X107346435Y-94630952D01*
X107346435Y-94630952D02*
X107322625Y-94607142D01*
X107322625Y-94607142D02*
X107298816Y-94559523D01*
X107298816Y-94559523D02*
X107298816Y-94464285D01*
X107298816Y-94464285D02*
X107322625Y-94416666D01*
X107298816Y-93964285D02*
X107703578Y-93964285D01*
X107703578Y-93964285D02*
X107751197Y-93988095D01*
X107751197Y-93988095D02*
X107775006Y-94011904D01*
X107775006Y-94011904D02*
X107798816Y-94059523D01*
X107798816Y-94059523D02*
X107798816Y-94130952D01*
X107798816Y-94130952D02*
X107775006Y-94178571D01*
X107608340Y-93964285D02*
X107632149Y-94011904D01*
X107632149Y-94011904D02*
X107632149Y-94107142D01*
X107632149Y-94107142D02*
X107608340Y-94154761D01*
X107608340Y-94154761D02*
X107584530Y-94178571D01*
X107584530Y-94178571D02*
X107536911Y-94202380D01*
X107536911Y-94202380D02*
X107394054Y-94202380D01*
X107394054Y-94202380D02*
X107346435Y-94178571D01*
X107346435Y-94178571D02*
X107322625Y-94154761D01*
X107322625Y-94154761D02*
X107298816Y-94107142D01*
X107298816Y-94107142D02*
X107298816Y-94011904D01*
X107298816Y-94011904D02*
X107322625Y-93964285D01*
X107608340Y-93535714D02*
X107632149Y-93583333D01*
X107632149Y-93583333D02*
X107632149Y-93678571D01*
X107632149Y-93678571D02*
X107608340Y-93726190D01*
X107608340Y-93726190D02*
X107560720Y-93749999D01*
X107560720Y-93749999D02*
X107370244Y-93749999D01*
X107370244Y-93749999D02*
X107322625Y-93726190D01*
X107322625Y-93726190D02*
X107298816Y-93678571D01*
X107298816Y-93678571D02*
X107298816Y-93583333D01*
X107298816Y-93583333D02*
X107322625Y-93535714D01*
X107322625Y-93535714D02*
X107370244Y-93511904D01*
X107370244Y-93511904D02*
X107417863Y-93511904D01*
X107417863Y-93511904D02*
X107465482Y-93749999D01*
D11*
%TO.C,J2*%
X107405000Y-98250000D02*
X107405000Y-92250000D01*
%TD*%
M02*
