%TF.GenerationSoftware,KiCad,Pcbnew,8.0.4-8.0.4-0~ubuntu24.04.1*%
%TF.CreationDate,2024-09-01T12:54:58+03:00*%
%TF.ProjectId,control_body,636f6e74-726f-46c5-9f62-6f64792e6b69,rev?*%
%TF.SameCoordinates,Original*%
%TF.FileFunction,Other,User*%
%FSLAX46Y46*%
G04 Gerber Fmt 4.6, Leading zero omitted, Abs format (unit mm)*
G04 Created by KiCad (PCBNEW 8.0.4-8.0.4-0~ubuntu24.04.1) date 2024-09-01 12:54:58*
%MOMM*%
%LPD*%
G01*
G04 APERTURE LIST*
%ADD10C,0.050000*%
G04 APERTURE END LIST*
D10*
%TO.C,J2*%
X112735000Y-90800000D02*
X106205000Y-90800000D01*
X112735000Y-90800000D02*
X112735000Y-99700000D01*
X106205000Y-90800000D02*
X106205000Y-99700000D01*
X112735000Y-99700000D02*
X106205000Y-99700000D01*
%TO.C,AE1*%
X177500000Y-70955000D02*
X178200000Y-70955000D01*
X177500000Y-74155000D02*
X177500000Y-70955000D01*
X177500000Y-74155000D02*
X178200000Y-74155000D01*
X178200000Y-70755000D02*
X178200000Y-70955000D01*
X178200000Y-70755000D02*
X179000000Y-70755000D01*
X178200000Y-74155000D02*
X178200000Y-74355000D01*
X178200000Y-74355000D02*
X181800000Y-74355000D01*
X179000000Y-70055000D02*
X181000000Y-70055000D01*
X179000000Y-70755000D02*
X179000000Y-70055000D01*
X181000000Y-70755000D02*
X181000000Y-70055000D01*
X181000000Y-70755000D02*
X181800000Y-70755000D01*
X181800000Y-70755000D02*
X181800000Y-70955000D01*
X181800000Y-70955000D02*
X182500000Y-70955000D01*
X181800000Y-74155000D02*
X181800000Y-74355000D01*
X181800000Y-74155000D02*
X182500000Y-74155000D01*
X182500000Y-74155000D02*
X182500000Y-70955000D01*
%TO.C,J21*%
X150030000Y-105000000D02*
X150030000Y-111150000D01*
X150030000Y-111150000D02*
X158680000Y-111150000D01*
X158680000Y-105000000D02*
X150030000Y-105000000D01*
X158680000Y-111150000D02*
X158680000Y-105000000D01*
%TO.C,U3*%
X169450000Y-74600000D02*
X181650000Y-74600000D01*
X169450000Y-85200000D02*
X169450000Y-74600000D01*
X181650000Y-74600000D02*
X181650000Y-85200000D01*
X181650000Y-85200000D02*
X169450000Y-85200000D01*
%TO.C,J16*%
X138390000Y-119190000D02*
X138390000Y-126190000D01*
X138390000Y-126190000D02*
X142890000Y-126190000D01*
X142890000Y-119190000D02*
X138390000Y-119190000D01*
X142890000Y-126190000D02*
X142890000Y-119190000D01*
%TO.C,C10*%
X182070000Y-76220000D02*
X185830000Y-76220000D01*
X182070000Y-78180000D02*
X182070000Y-76220000D01*
X185830000Y-76220000D02*
X185830000Y-78180000D01*
X185830000Y-78180000D02*
X182070000Y-78180000D01*
%TO.C,TP5*%
X184190000Y-115810000D02*
G75*
G02*
X181190000Y-115810000I-1500000J0D01*
G01*
X181190000Y-115810000D02*
G75*
G02*
X184190000Y-115810000I1500000J0D01*
G01*
%TO.C,Q3*%
X154165000Y-111795000D02*
X154165000Y-117195000D01*
X154165000Y-117195000D02*
X161565000Y-117195000D01*
X161565000Y-111795000D02*
X154165000Y-111795000D01*
X161565000Y-117195000D02*
X161565000Y-111795000D01*
%TO.C,R7*%
X127550000Y-93650000D02*
X131250000Y-93650000D01*
X127550000Y-95550000D02*
X127550000Y-93650000D01*
X131250000Y-93650000D02*
X131250000Y-95550000D01*
X131250000Y-95550000D02*
X127550000Y-95550000D01*
%TO.C,TP1*%
X184190000Y-103210000D02*
G75*
G02*
X181190000Y-103210000I-1500000J0D01*
G01*
X181190000Y-103210000D02*
G75*
G02*
X184190000Y-103210000I1500000J0D01*
G01*
%TO.C,J8*%
X144090000Y-63720000D02*
X144090000Y-70720000D01*
X144090000Y-70720000D02*
X148590000Y-70720000D01*
X148590000Y-63720000D02*
X144090000Y-63720000D01*
X148590000Y-70720000D02*
X148590000Y-63720000D01*
%TO.C,J3*%
X134775000Y-105155000D02*
X134775000Y-111305000D01*
X134775000Y-111305000D02*
X143425000Y-111305000D01*
X143425000Y-105155000D02*
X134775000Y-105155000D01*
X143425000Y-111305000D02*
X143425000Y-105155000D01*
%TO.C,J20*%
X181220000Y-87640000D02*
X181220000Y-96140000D01*
X181220000Y-96140000D02*
X185720000Y-96140000D01*
X185720000Y-87640000D02*
X181220000Y-87640000D01*
X185720000Y-96140000D02*
X185720000Y-87640000D01*
%TO.C,D2*%
X122320000Y-75900000D02*
X126880000Y-75900000D01*
X122320000Y-78140000D02*
X122320000Y-75900000D01*
X126880000Y-75900000D02*
X126880000Y-78140000D01*
X126880000Y-78140000D02*
X122320000Y-78140000D01*
%TO.C,R26*%
X172810000Y-107925000D02*
X174710000Y-107925000D01*
X172810000Y-111625000D02*
X172810000Y-107925000D01*
X174710000Y-107925000D02*
X174710000Y-111625000D01*
X174710000Y-111625000D02*
X172810000Y-111625000D01*
%TO.C,JP1*%
X166560000Y-70020000D02*
X166560000Y-72520000D01*
X166560000Y-70020000D02*
X169860000Y-70020000D01*
X169860000Y-72520000D02*
X166560000Y-72520000D01*
X169860000Y-72520000D02*
X169860000Y-70020000D01*
%TO.C,C16*%
X150890000Y-82010000D02*
X154650000Y-82010000D01*
X150890000Y-83970000D02*
X150890000Y-82010000D01*
X154650000Y-82010000D02*
X154650000Y-83970000D01*
X154650000Y-83970000D02*
X150890000Y-83970000D01*
%TO.C,R1*%
X123150000Y-73850000D02*
X126850000Y-73850000D01*
X123150000Y-75750000D02*
X123150000Y-73850000D01*
X126850000Y-73850000D02*
X126850000Y-75750000D01*
X126850000Y-75750000D02*
X123150000Y-75750000D01*
%TO.C,C14*%
X166660000Y-78210000D02*
X168620000Y-78210000D01*
X166660000Y-81970000D02*
X166660000Y-78210000D01*
X168620000Y-78210000D02*
X168620000Y-81970000D01*
X168620000Y-81970000D02*
X166660000Y-81970000D01*
%TO.C,SW3*%
X124380000Y-121070000D02*
X124380000Y-125870000D01*
X124380000Y-125870000D02*
X127680000Y-125870000D01*
X127680000Y-121070000D02*
X124380000Y-121070000D01*
X127680000Y-125870000D02*
X127680000Y-121070000D01*
%TO.C,D1*%
X118250000Y-77250000D02*
X121750000Y-77250000D01*
X118250000Y-84250000D02*
X118250000Y-77250000D01*
X121750000Y-77250000D02*
X121750000Y-84250000D01*
X121750000Y-84250000D02*
X118250000Y-84250000D01*
%TO.C,SW2*%
X124380000Y-115910000D02*
X124380000Y-120710000D01*
X124380000Y-120710000D02*
X127680000Y-120710000D01*
X127680000Y-115910000D02*
X124380000Y-115910000D01*
X127680000Y-120710000D02*
X127680000Y-115910000D01*
%TO.C,R2*%
X118740000Y-100260000D02*
X122440000Y-100260000D01*
X118740000Y-102160000D02*
X118740000Y-100260000D01*
X122440000Y-100260000D02*
X122440000Y-102160000D01*
X122440000Y-102160000D02*
X118740000Y-102160000D01*
%TO.C,C15*%
X146960000Y-82000000D02*
X150720000Y-82000000D01*
X146960000Y-83960000D02*
X146960000Y-82000000D01*
X150720000Y-82000000D02*
X150720000Y-83960000D01*
X150720000Y-83960000D02*
X146960000Y-83960000D01*
%TO.C,R5*%
X122700000Y-112090000D02*
X124600000Y-112090000D01*
X122700000Y-115790000D02*
X122700000Y-112090000D01*
X124600000Y-112090000D02*
X124600000Y-115790000D01*
X124600000Y-115790000D02*
X122700000Y-115790000D01*
%TO.C,R19*%
X152850000Y-78150000D02*
X154750000Y-78150000D01*
X152850000Y-81850000D02*
X152850000Y-78150000D01*
X154750000Y-78150000D02*
X154750000Y-81850000D01*
X154750000Y-81850000D02*
X152850000Y-81850000D01*
%TO.C,H1*%
X185450000Y-67000000D02*
G75*
G02*
X180550000Y-67000000I-2450000J0D01*
G01*
X180550000Y-67000000D02*
G75*
G02*
X185450000Y-67000000I2450000J0D01*
G01*
%TO.C,R23*%
X132740000Y-71300000D02*
X134640000Y-71300000D01*
X132740000Y-75000000D02*
X132740000Y-71300000D01*
X134640000Y-71300000D02*
X134640000Y-75000000D01*
X134640000Y-75000000D02*
X132740000Y-75000000D01*
%TO.C,Q7*%
X135950000Y-75600000D02*
X135950000Y-78800000D01*
X135950000Y-78800000D02*
X138750000Y-78800000D01*
X138750000Y-75600000D02*
X135950000Y-75600000D01*
X138750000Y-75600000D02*
X138750000Y-78800000D01*
%TO.C,D3*%
X122680000Y-97620000D02*
X124920000Y-97620000D01*
X122680000Y-102180000D02*
X122680000Y-97620000D01*
X124920000Y-97620000D02*
X124920000Y-102180000D01*
X124920000Y-102180000D02*
X122680000Y-102180000D01*
%TO.C,R29*%
X128250000Y-79750000D02*
X130150000Y-79750000D01*
X128250000Y-83450000D02*
X128250000Y-79750000D01*
X130150000Y-79750000D02*
X130150000Y-83450000D01*
X130150000Y-83450000D02*
X128250000Y-83450000D01*
%TO.C,J23*%
X160000000Y-118660000D02*
X160000000Y-133560000D01*
X160000000Y-133560000D02*
X176300000Y-133560000D01*
X176300000Y-118660000D02*
X160000000Y-118660000D01*
X176300000Y-133560000D02*
X176300000Y-118660000D01*
%TO.C,R13*%
X166270000Y-73540000D02*
X168170000Y-73540000D01*
X166270000Y-77240000D02*
X166270000Y-73540000D01*
X168170000Y-73540000D02*
X168170000Y-77240000D01*
X168170000Y-77240000D02*
X166270000Y-77240000D01*
%TO.C,R11*%
X182100000Y-78250000D02*
X185800000Y-78250000D01*
X182100000Y-80150000D02*
X182100000Y-78250000D01*
X185800000Y-78250000D02*
X185800000Y-80150000D01*
X185800000Y-80150000D02*
X182100000Y-80150000D01*
%TO.C,R25*%
X131050000Y-79750000D02*
X132950000Y-79750000D01*
X131050000Y-83450000D02*
X131050000Y-79750000D01*
X132950000Y-79750000D02*
X132950000Y-83450000D01*
X132950000Y-83450000D02*
X131050000Y-83450000D01*
%TO.C,C6*%
X109207500Y-115480000D02*
X112967500Y-115480000D01*
X109207500Y-117440000D02*
X109207500Y-115480000D01*
X112967500Y-115480000D02*
X112967500Y-117440000D01*
X112967500Y-117440000D02*
X109207500Y-117440000D01*
%TO.C,TP2*%
X184190000Y-107410000D02*
G75*
G02*
X181190000Y-107410000I-1500000J0D01*
G01*
X181190000Y-107410000D02*
G75*
G02*
X184190000Y-107410000I1500000J0D01*
G01*
%TO.C,J10*%
X128830000Y-119180000D02*
X128830000Y-126180000D01*
X128830000Y-126180000D02*
X133330000Y-126180000D01*
X133330000Y-119180000D02*
X128830000Y-119180000D01*
X133330000Y-126180000D02*
X133330000Y-119180000D01*
%TO.C,J14*%
X108200000Y-70800000D02*
X108200000Y-83700000D01*
X108200000Y-83700000D02*
X113700000Y-83700000D01*
X113700000Y-70800000D02*
X108200000Y-70800000D01*
X113700000Y-83700000D02*
X113700000Y-70800000D01*
%TO.C,C7*%
X149520000Y-94820000D02*
X153280000Y-94820000D01*
X149520000Y-96780000D02*
X149520000Y-94820000D01*
X153280000Y-94820000D02*
X153280000Y-96780000D01*
X153280000Y-96780000D02*
X149520000Y-96780000D01*
%TO.C,D5*%
X114550000Y-77250000D02*
X118050000Y-77250000D01*
X114550000Y-84250000D02*
X114550000Y-77250000D01*
X118050000Y-77250000D02*
X118050000Y-84250000D01*
X118050000Y-84250000D02*
X114550000Y-84250000D01*
%TO.C,H3*%
X114350000Y-123000000D02*
G75*
G02*
X109450000Y-123000000I-2450000J0D01*
G01*
X109450000Y-123000000D02*
G75*
G02*
X114350000Y-123000000I2450000J0D01*
G01*
%TO.C,J4*%
X131080000Y-113950000D02*
X131080000Y-117550000D01*
X131080000Y-117550000D02*
X142280000Y-117550000D01*
X142280000Y-113950000D02*
X131080000Y-113950000D01*
X142280000Y-117550000D02*
X142280000Y-113950000D01*
%TO.C,U1*%
X114510000Y-104015000D02*
X114510000Y-114415000D01*
X114510000Y-114415000D02*
X121910000Y-114415000D01*
X121910000Y-104015000D02*
X114510000Y-104015000D01*
X121910000Y-114415000D02*
X121910000Y-104015000D01*
%TO.C,TP3*%
X184190000Y-111610000D02*
G75*
G02*
X181190000Y-111610000I-1500000J0D01*
G01*
X181190000Y-111610000D02*
G75*
G02*
X184190000Y-111610000I1500000J0D01*
G01*
%TO.C,R20*%
X137050000Y-79750000D02*
X138950000Y-79750000D01*
X137050000Y-83450000D02*
X137050000Y-79750000D01*
X138950000Y-79750000D02*
X138950000Y-83450000D01*
X138950000Y-83450000D02*
X137050000Y-83450000D01*
%TO.C,J7*%
X148720000Y-63720000D02*
X148720000Y-70720000D01*
X148720000Y-70720000D02*
X153220000Y-70720000D01*
X153220000Y-63720000D02*
X148720000Y-63720000D01*
X153220000Y-70720000D02*
X153220000Y-63720000D01*
%TO.C,Q9*%
X161000000Y-86000000D02*
X161000000Y-93200000D01*
X161000000Y-93200000D02*
X169800000Y-93200000D01*
X169800000Y-86000000D02*
X161000000Y-86000000D01*
X169800000Y-93200000D02*
X169800000Y-86000000D01*
%TO.C,J11*%
X128510000Y-63690000D02*
X128510000Y-70690000D01*
X128510000Y-70690000D02*
X133010000Y-70690000D01*
X133010000Y-63690000D02*
X128510000Y-63690000D01*
X133010000Y-70690000D02*
X133010000Y-63690000D01*
%TO.C,J15*%
X133620000Y-119200000D02*
X133620000Y-126200000D01*
X133620000Y-126200000D02*
X138120000Y-126200000D01*
X138120000Y-119200000D02*
X133620000Y-119200000D01*
X138120000Y-126200000D02*
X138120000Y-119200000D01*
%TO.C,R3*%
X127550000Y-91450000D02*
X131250000Y-91450000D01*
X127550000Y-93350000D02*
X127550000Y-91450000D01*
X131250000Y-91450000D02*
X131250000Y-93350000D01*
X131250000Y-93350000D02*
X127550000Y-93350000D01*
%TO.C,U7*%
X143650000Y-111850000D02*
X143650000Y-117750000D01*
X143650000Y-111850000D02*
X153150000Y-111850000D01*
X143650000Y-117750000D02*
X153150000Y-117750000D01*
X153150000Y-111850000D02*
X153150000Y-117750000D01*
%TO.C,C1*%
X107975000Y-86200000D02*
X108925000Y-86200000D01*
X107975000Y-88300000D02*
X107975000Y-86200000D01*
X108925000Y-86200000D02*
X108925000Y-84850000D01*
X108925000Y-88300000D02*
X107975000Y-88300000D01*
X108925000Y-89650000D02*
X108925000Y-88300000D01*
X112575000Y-84850000D02*
X108925000Y-84850000D01*
X112575000Y-89650000D02*
X108925000Y-89650000D01*
X113725000Y-86000000D02*
X112575000Y-84850000D01*
X113725000Y-86200000D02*
X113725000Y-86000000D01*
X113725000Y-88300000D02*
X114675000Y-88300000D01*
X113725000Y-88500000D02*
X112575000Y-89650000D01*
X113725000Y-88500000D02*
X113725000Y-88300000D01*
X114675000Y-86200000D02*
X113725000Y-86200000D01*
X114675000Y-88300000D02*
X114675000Y-86200000D01*
%TO.C,C3*%
X118710000Y-98230000D02*
X122470000Y-98230000D01*
X118710000Y-100190000D02*
X118710000Y-98230000D01*
X122470000Y-98230000D02*
X122470000Y-100190000D01*
X122470000Y-100190000D02*
X118710000Y-100190000D01*
%TO.C,Q1*%
X169860000Y-111875000D02*
X169860000Y-117275000D01*
X169860000Y-117275000D02*
X177260000Y-117275000D01*
X177260000Y-111875000D02*
X169860000Y-111875000D01*
X177260000Y-117275000D02*
X177260000Y-111875000D01*
%TO.C,R24*%
X134050000Y-79750000D02*
X135950000Y-79750000D01*
X134050000Y-83450000D02*
X134050000Y-79750000D01*
X135950000Y-79750000D02*
X135950000Y-83450000D01*
X135950000Y-83450000D02*
X134050000Y-83450000D01*
%TO.C,J18*%
X147980000Y-119220000D02*
X147980000Y-126220000D01*
X147980000Y-126220000D02*
X152480000Y-126220000D01*
X152480000Y-119220000D02*
X147980000Y-119220000D01*
X152480000Y-126220000D02*
X152480000Y-119220000D01*
%TO.C,R4*%
X127550000Y-89250000D02*
X131250000Y-89250000D01*
X127550000Y-91150000D02*
X127550000Y-89250000D01*
X131250000Y-89250000D02*
X131250000Y-91150000D01*
X131250000Y-91150000D02*
X127550000Y-91150000D01*
%TO.C,J9*%
X139460000Y-63700000D02*
X139460000Y-70700000D01*
X139460000Y-70700000D02*
X143960000Y-70700000D01*
X143960000Y-63700000D02*
X139460000Y-63700000D01*
X143960000Y-70700000D02*
X143960000Y-63700000D01*
%TO.C,Q6*%
X132950000Y-75600000D02*
X132950000Y-78800000D01*
X132950000Y-78800000D02*
X135750000Y-78800000D01*
X135750000Y-75600000D02*
X132950000Y-75600000D01*
X135750000Y-75600000D02*
X135750000Y-78800000D01*
%TO.C,Q2*%
X162030000Y-111850000D02*
X162030000Y-117250000D01*
X162030000Y-117250000D02*
X169430000Y-117250000D01*
X169430000Y-111850000D02*
X162030000Y-111850000D01*
X169430000Y-117250000D02*
X169430000Y-111850000D01*
%TO.C,R16*%
X159450000Y-73550000D02*
X161350000Y-73550000D01*
X159450000Y-77250000D02*
X159450000Y-73550000D01*
X161350000Y-73550000D02*
X161350000Y-77250000D01*
X161350000Y-77250000D02*
X159450000Y-77250000D01*
%TO.C,R12*%
X182100000Y-82250000D02*
X185800000Y-82250000D01*
X182100000Y-84150000D02*
X182100000Y-82250000D01*
X185800000Y-82250000D02*
X185800000Y-84150000D01*
X185800000Y-84150000D02*
X182100000Y-84150000D01*
%TO.C,R17*%
X164070000Y-73540000D02*
X165970000Y-73540000D01*
X164070000Y-77240000D02*
X164070000Y-73540000D01*
X165970000Y-73540000D02*
X165970000Y-77240000D01*
X165970000Y-77240000D02*
X164070000Y-77240000D01*
%TO.C,R15*%
X157330000Y-73550000D02*
X159230000Y-73550000D01*
X157330000Y-77250000D02*
X157330000Y-73550000D01*
X159230000Y-73550000D02*
X159230000Y-77250000D01*
X159230000Y-77250000D02*
X157330000Y-77250000D01*
%TO.C,U5*%
X161140000Y-78350000D02*
X161140000Y-83650000D01*
X161140000Y-78350000D02*
X166440000Y-78350000D01*
X161140000Y-83650000D02*
X166440000Y-83650000D01*
X166440000Y-78350000D02*
X166440000Y-83650000D01*
%TO.C,J5*%
X157940000Y-63720000D02*
X157940000Y-70720000D01*
X157940000Y-70720000D02*
X162440000Y-70720000D01*
X162440000Y-63720000D02*
X157940000Y-63720000D01*
X162440000Y-70720000D02*
X162440000Y-63720000D01*
%TO.C,R28*%
X175010000Y-107925000D02*
X176910000Y-107925000D01*
X175010000Y-111625000D02*
X175010000Y-107925000D01*
X176910000Y-107925000D02*
X176910000Y-111625000D01*
X176910000Y-111625000D02*
X175010000Y-111625000D01*
%TO.C,D8*%
X109205000Y-108920000D02*
X113765000Y-108920000D01*
X109205000Y-111160000D02*
X109205000Y-108920000D01*
X113765000Y-108920000D02*
X113765000Y-111160000D01*
X113765000Y-111160000D02*
X109205000Y-111160000D01*
%TO.C,TP4*%
X184190000Y-99060000D02*
G75*
G02*
X181190000Y-99060000I-1500000J0D01*
G01*
X181190000Y-99060000D02*
G75*
G02*
X184190000Y-99060000I1500000J0D01*
G01*
%TO.C,C12*%
X182032500Y-80220000D02*
X185792500Y-80220000D01*
X182032500Y-82180000D02*
X182032500Y-80220000D01*
X185792500Y-80220000D02*
X185792500Y-82180000D01*
X185792500Y-82180000D02*
X182032500Y-82180000D01*
%TO.C,J17*%
X143200000Y-119200000D02*
X143200000Y-126200000D01*
X143200000Y-126200000D02*
X147700000Y-126200000D01*
X147700000Y-119200000D02*
X143200000Y-119200000D01*
X147700000Y-126200000D02*
X147700000Y-119200000D01*
%TO.C,J12*%
X123900000Y-63670000D02*
X123900000Y-70670000D01*
X123900000Y-70670000D02*
X128400000Y-70670000D01*
X128400000Y-63670000D02*
X123900000Y-63670000D01*
X128400000Y-70670000D02*
X128400000Y-63670000D01*
%TO.C,R18*%
X152850000Y-74320000D02*
X154750000Y-74320000D01*
X152850000Y-78020000D02*
X152850000Y-74320000D01*
X154750000Y-74320000D02*
X154750000Y-78020000D01*
X154750000Y-78020000D02*
X152850000Y-78020000D01*
%TO.C,Y2*%
X153530000Y-91360000D02*
X153530000Y-104960000D01*
X153530000Y-104960000D02*
X158730000Y-104960000D01*
X158730000Y-91360000D02*
X153530000Y-91360000D01*
X158730000Y-104960000D02*
X158730000Y-91360000D01*
%TO.C,U4*%
X157565000Y-78950000D02*
X160665000Y-78950000D01*
X157565000Y-81550000D02*
X157565000Y-78950000D01*
X160665000Y-78950000D02*
X160665000Y-81550000D01*
X160665000Y-81550000D02*
X157565000Y-81550000D01*
%TO.C,C5*%
X127482500Y-87020000D02*
X131242500Y-87020000D01*
X127482500Y-88980000D02*
X127482500Y-87020000D01*
X131242500Y-87020000D02*
X131242500Y-88980000D01*
X131242500Y-88980000D02*
X127482500Y-88980000D01*
%TO.C,AE2*%
X172270000Y-69640000D02*
X177050000Y-69640000D01*
X172270000Y-74420000D02*
X172270000Y-69640000D01*
X172270000Y-74420000D02*
X177050000Y-74420000D01*
X177050000Y-74420000D02*
X177050000Y-69640000D01*
%TO.C,J19*%
X152710000Y-119240000D02*
X152710000Y-126240000D01*
X152710000Y-126240000D02*
X157210000Y-126240000D01*
X157210000Y-119240000D02*
X152710000Y-119240000D01*
X157210000Y-126240000D02*
X157210000Y-119240000D01*
%TO.C,J1*%
X133150000Y-63730000D02*
X133150000Y-70730000D01*
X133150000Y-70730000D02*
X137650000Y-70730000D01*
X137650000Y-63730000D02*
X133150000Y-63730000D01*
X137650000Y-70730000D02*
X137650000Y-63730000D01*
%TO.C,H4*%
X185450000Y-123000000D02*
G75*
G02*
X180550000Y-123000000I-2450000J0D01*
G01*
X180550000Y-123000000D02*
G75*
G02*
X185450000Y-123000000I2450000J0D01*
G01*
%TO.C,C4*%
X109205000Y-113460000D02*
X112965000Y-113460000D01*
X109205000Y-115420000D02*
X109205000Y-113460000D01*
X112965000Y-113460000D02*
X112965000Y-115420000D01*
X112965000Y-115420000D02*
X109205000Y-115420000D01*
%TO.C,C11*%
X172060000Y-89280000D02*
X174020000Y-89280000D01*
X172060000Y-93040000D02*
X172060000Y-89280000D01*
X174020000Y-89280000D02*
X174020000Y-93040000D01*
X174020000Y-93040000D02*
X172060000Y-93040000D01*
%TO.C,D4*%
X125997500Y-84490000D02*
X131297500Y-84490000D01*
X125997500Y-86690000D02*
X125997500Y-84490000D01*
X131297500Y-84490000D02*
X131297500Y-86690000D01*
X131297500Y-86690000D02*
X125997500Y-86690000D01*
%TO.C,U2*%
X131950000Y-85200000D02*
X149350000Y-85200000D01*
X131950000Y-102600000D02*
X131950000Y-85200000D01*
X131950000Y-102600000D02*
X149350000Y-102600000D01*
X149350000Y-102600000D02*
X149350000Y-85200000D01*
%TO.C,R22*%
X109235000Y-102090000D02*
X112935000Y-102090000D01*
X109235000Y-103990000D02*
X109235000Y-102090000D01*
X112935000Y-102090000D02*
X112935000Y-103990000D01*
X112935000Y-103990000D02*
X109235000Y-103990000D01*
%TO.C,R6*%
X125250000Y-97550000D02*
X127150000Y-97550000D01*
X125250000Y-101250000D02*
X125250000Y-97550000D01*
X127150000Y-97550000D02*
X127150000Y-101250000D01*
X127150000Y-101250000D02*
X125250000Y-101250000D01*
%TO.C,C2*%
X109205000Y-111400000D02*
X112965000Y-111400000D01*
X109205000Y-113360000D02*
X109205000Y-111400000D01*
X112965000Y-111400000D02*
X112965000Y-113360000D01*
X112965000Y-113360000D02*
X109205000Y-113360000D01*
%TO.C,U6*%
X143710000Y-75100000D02*
X143710000Y-80500000D01*
X143710000Y-80500000D02*
X151110000Y-80500000D01*
X151110000Y-75100000D02*
X143710000Y-75100000D01*
X151110000Y-80500000D02*
X151110000Y-75100000D01*
%TO.C,JP2*%
X165260000Y-64350000D02*
X165260000Y-66850000D01*
X165260000Y-64350000D02*
X169860000Y-64350000D01*
X169860000Y-66850000D02*
X165260000Y-66850000D01*
X169860000Y-66850000D02*
X169860000Y-64350000D01*
%TO.C,SW1*%
X118560000Y-116010000D02*
X122660000Y-116010000D01*
X118560000Y-125810000D02*
X118560000Y-116010000D01*
X122660000Y-116010000D02*
X122660000Y-125810000D01*
X122660000Y-125810000D02*
X118560000Y-125810000D01*
%TO.C,Y1*%
X125400000Y-101690000D02*
X125400000Y-115290000D01*
X125400000Y-115290000D02*
X130600000Y-115290000D01*
X130600000Y-101690000D02*
X125400000Y-101690000D01*
X130600000Y-115290000D02*
X130600000Y-101690000D01*
%TO.C,BZ1*%
X126850000Y-91250000D02*
G75*
G02*
X114150000Y-91250000I-6350000J0D01*
G01*
X114150000Y-91250000D02*
G75*
G02*
X126850000Y-91250000I6350000J0D01*
G01*
%TO.C,R27*%
X129760000Y-71320000D02*
X131660000Y-71320000D01*
X129760000Y-75020000D02*
X129760000Y-71320000D01*
X131660000Y-71320000D02*
X131660000Y-75020000D01*
X131660000Y-75020000D02*
X129760000Y-75020000D01*
%TO.C,JP3*%
X166560000Y-67020000D02*
X166560000Y-69520000D01*
X166560000Y-67020000D02*
X169860000Y-67020000D01*
X169860000Y-69520000D02*
X166560000Y-69520000D01*
X169860000Y-69520000D02*
X169860000Y-67020000D01*
%TO.C,C8*%
X149520000Y-92820000D02*
X153280000Y-92820000D01*
X149520000Y-94780000D02*
X149520000Y-92820000D01*
X153280000Y-92820000D02*
X153280000Y-94780000D01*
X153280000Y-94780000D02*
X149520000Y-94780000D01*
%TO.C,D6*%
X122320000Y-79700000D02*
X126880000Y-79700000D01*
X122320000Y-81940000D02*
X122320000Y-79700000D01*
X126880000Y-79700000D02*
X126880000Y-81940000D01*
X126880000Y-81940000D02*
X122320000Y-81940000D01*
%TO.C,H2*%
X114450000Y-67000000D02*
G75*
G02*
X109550000Y-67000000I-2450000J0D01*
G01*
X109550000Y-67000000D02*
G75*
G02*
X114450000Y-67000000I2450000J0D01*
G01*
%TO.C,R10*%
X150750000Y-87350000D02*
X154450000Y-87350000D01*
X150750000Y-89250000D02*
X150750000Y-87350000D01*
X154450000Y-87350000D02*
X154450000Y-89250000D01*
X154450000Y-89250000D02*
X150750000Y-89250000D01*
%TO.C,Q5*%
X129950000Y-75600000D02*
X129950000Y-78800000D01*
X129950000Y-78800000D02*
X132750000Y-78800000D01*
X132750000Y-75600000D02*
X129950000Y-75600000D01*
X132750000Y-75600000D02*
X132750000Y-78800000D01*
%TO.C,R8*%
X127450000Y-97550000D02*
X129350000Y-97550000D01*
X127450000Y-101250000D02*
X127450000Y-97550000D01*
X129350000Y-97550000D02*
X129350000Y-101250000D01*
X129350000Y-101250000D02*
X127450000Y-101250000D01*
%TO.C,Q4*%
X159650000Y-93810000D02*
X159650000Y-105110000D01*
X159650000Y-105110000D02*
X176300000Y-105110000D01*
X176300000Y-93810000D02*
X159650000Y-93810000D01*
X176300000Y-105110000D02*
X176300000Y-93810000D01*
%TO.C,R14*%
X161670000Y-73540000D02*
X163570000Y-73540000D01*
X161670000Y-77240000D02*
X161670000Y-73540000D01*
X163570000Y-73540000D02*
X163570000Y-77240000D01*
X163570000Y-77240000D02*
X161670000Y-77240000D01*
%TO.C,C9*%
X129620000Y-97557500D02*
X131580000Y-97557500D01*
X129620000Y-101317500D02*
X129620000Y-97557500D01*
X131580000Y-97557500D02*
X131580000Y-101317500D01*
X131580000Y-101317500D02*
X129620000Y-101317500D01*
%TO.C,J6*%
X153330000Y-63710000D02*
X153330000Y-70710000D01*
X153330000Y-70710000D02*
X157830000Y-70710000D01*
X157830000Y-63710000D02*
X153330000Y-63710000D01*
X157830000Y-70710000D02*
X157830000Y-63710000D01*
%TO.C,J13*%
X119280000Y-63660000D02*
X119280000Y-70660000D01*
X119280000Y-70660000D02*
X123780000Y-70660000D01*
X123780000Y-63660000D02*
X119280000Y-63660000D01*
X123780000Y-70660000D02*
X123780000Y-63660000D01*
%TO.C,R9*%
X150760000Y-89360000D02*
X154460000Y-89360000D01*
X150760000Y-91260000D02*
X150760000Y-89360000D01*
X154460000Y-89360000D02*
X154460000Y-91260000D01*
X154460000Y-91260000D02*
X150760000Y-91260000D01*
%TO.C,C13*%
X156822500Y-83230000D02*
X160582500Y-83230000D01*
X156822500Y-85190000D02*
X156822500Y-83230000D01*
X160582500Y-83230000D02*
X160582500Y-85190000D01*
X160582500Y-85190000D02*
X156822500Y-85190000D01*
%TO.C,L1*%
X181960000Y-84270000D02*
X185800000Y-84270000D01*
X181960000Y-85970000D02*
X181960000Y-84270000D01*
X185800000Y-84270000D02*
X185800000Y-85970000D01*
X185800000Y-85970000D02*
X181960000Y-85970000D01*
%TO.C,R21*%
X109235000Y-104090000D02*
X112935000Y-104090000D01*
X109235000Y-105990000D02*
X109235000Y-104090000D01*
X112935000Y-104090000D02*
X112935000Y-105990000D01*
X112935000Y-105990000D02*
X109235000Y-105990000D01*
%TO.C,D7*%
X109205000Y-106320000D02*
X113765000Y-106320000D01*
X109205000Y-108560000D02*
X109205000Y-106320000D01*
X113765000Y-106320000D02*
X113765000Y-108560000D01*
X113765000Y-108560000D02*
X109205000Y-108560000D01*
%TD*%
M02*
