M48
; DRILL file {KiCad 8.0.4-8.0.4-0~ubuntu24.04.1} date 2024-09-01T12:58:17+0300
; FORMAT={-:-/ absolute / inch / decimal}
; #@! TF.CreationDate,2024-09-01T12:58:17+03:00
; #@! TF.GenerationSoftware,Kicad,Pcbnew,8.0.4-8.0.4-0~ubuntu24.04.1
; #@! TF.FileFunction,Plated,1,2,PTH
FMAT,2
INCH
; #@! TA.AperFunction,Plated,PTH,ViaDrill
T1C0.0118
; #@! TA.AperFunction,Plated,PTH,ViaDrill
T2C0.0157
; #@! TA.AperFunction,Plated,PTH,ComponentDrill
T3C0.0157
; #@! TA.AperFunction,Plated,PTH,ViaDrill
T4C0.0197
; #@! TA.AperFunction,Plated,PTH,ComponentDrill
T5C0.0197
; #@! TA.AperFunction,Plated,PTH,ComponentDrill
T6C0.0217
; #@! TA.AperFunction,Plated,PTH,ComponentDrill
T7C0.0295
; #@! TA.AperFunction,Plated,PTH,ComponentDrill
T8C0.0331
; #@! TA.AperFunction,Plated,PTH,ComponentDrill
T9C0.0343
; #@! TA.AperFunction,Plated,PTH,ComponentDrill
T10C0.0394
; #@! TA.AperFunction,Plated,PTH,ComponentDrill
T11C0.0866
%
G90
G05
T1
X4.2661Y-3.9547
X4.2661Y-3.989
X4.3016Y-3.9543
X4.302Y-3.9886
X4.5043Y-3.8783
X4.5043Y-3.911
X4.5043Y-3.9429
X4.5047Y-3.8461
X4.5087Y-4.5854
X4.537Y-3.8787
X4.5378Y-3.911
X4.5382Y-3.8461
X4.5386Y-3.9429
X4.5697Y-3.8465
X4.5697Y-3.8783
X4.5697Y-3.9114
X4.5709Y-3.9429
X4.6161Y-4.2748
X4.6173Y-4.1748
X4.6173Y-4.2248
X4.6634Y-4.4248
X4.6689Y-3.7386
X4.6693Y-3.7709
X4.7039Y-3.772
X4.7043Y-3.7366
X4.8469Y-4.1476
X4.8528Y-3.4988
X4.8531Y-3.4307
X4.8531Y-3.4657
X4.865Y-3.7209
X4.8657Y-3.7547
X4.8657Y-3.789
X4.8913Y-3.4988
X4.8917Y-3.4299
X4.8917Y-3.4654
X4.8949Y-4.6303
X4.9016Y-3.7886
X4.9024Y-3.7217
X4.9024Y-3.7539
X4.9551Y-4.4606
X4.9787Y-3.6831
X4.9874Y-3.5331
X4.9874Y-3.5732
X4.9882Y-3.4921
X4.9886Y-3.4449
X5.0398Y-4.2858
X5.0681Y-3.7752
X5.0984Y-3.8043
X5.1142Y-4.0161
X5.1374Y-4.0161
X5.1457Y-3.0283
X5.1618Y-4.0161
X5.1673Y-3.7752
X5.1866Y-3.5866
X5.1882Y-4.0531
X5.2035Y-2.9606
X5.2106Y-4.0776
X5.2295Y-2.9957
X5.2343Y-4.1035
X5.237Y-3.1209
X5.2622Y-3.2209
X5.2638Y-3.0417
X5.3Y-4.1748
X5.3472Y-3.0016
X5.3634Y-3.115
X5.3638Y-3.2858
X5.3642Y-4.1283
X5.3941Y-3.1256
X5.3961Y-3.3409
X5.4272Y-3.298
X5.4358Y-4.0776
X5.4413Y-3.0398
X5.4559Y-2.8409
X5.4563Y-2.8827
X5.4575Y-2.9563
X5.461Y-4.0531
X5.4618Y-4.1047
X5.4665Y-3.1185
X5.4677Y-3.2126
X5.5075Y-4.6343
X5.5173Y-4.4354
X5.5173Y-4.4575
X5.5189Y-4.411
X5.5291Y-3.4472
X5.5417Y-4.4594
X5.5425Y-4.4346
X5.5461Y-4.4083
X5.5772Y-4.1047
X5.6177Y-4.1551
X5.6512Y-4.6791
X5.6634Y-3.5291
X5.6752Y-4.678
X5.7016Y-3.4988
X5.7067Y-4.6787
X5.7319Y-4.6791
X5.7413Y-3.498
X5.7469Y-2.8445
X5.7661Y-4.4953
X5.7669Y-3.7756
X5.7705Y-3.0654
X5.7744Y-3.8209
X5.7827Y-3.1516
X5.7827Y-4.3799
X5.8008Y-3.1343
X5.802Y-2.8445
X5.8181Y-3.1201
X5.8531Y-2.8449
X5.8996Y-2.8457
X5.9327Y-4.0402
X5.9358Y-3.6417
X5.9382Y-2.8445
X5.9457Y-3.1811
X5.9461Y-3.2051
X5.9862Y-2.8457
X5.9894Y-4.0465
X6.0012Y-4.4091
X6.0067Y-3.8823
X6.0528Y-4.6177
X6.0941Y-3.8547
X6.0953Y-3.822
X6.1299Y-3.8559
X6.1303Y-3.822
X6.1539Y-3.1823
X6.1543Y-2.9299
X6.1543Y-3.0972
X6.1681Y-3.8228
X6.1685Y-3.8563
X6.1846Y-4.5909
X6.2063Y-3.8567
X6.2071Y-3.8244
X6.2079Y-3.5988
X6.2114Y-3.1122
X6.213Y-4.5917
X6.2169Y-4.4823
X6.2343Y-3.5752
X6.2382Y-4.5913
X6.2512Y-3.2378
X6.2846Y-3.437
X6.302Y-4.1913
X6.3028Y-3.0724
X6.3028Y-3.2374
X6.3063Y-3.7307
X6.3063Y-3.7571
X6.3264Y-4.2992
X6.3315Y-3.7555
X6.3327Y-3.7295
X6.3394Y-3.2783
X6.3555Y-3.3165
X6.3575Y-3.7307
X6.3575Y-3.7571
X6.3606Y-3.1
X6.361Y-2.8846
X6.3736Y-4.5591
X6.4012Y-2.8567
X6.4016Y-2.8201
X6.4028Y-2.7843
X6.4374Y-2.8197
X6.4378Y-2.7839
X6.4378Y-2.8567
X6.4531Y-3.9063
X6.4654Y-3.3165
X6.4701Y-2.8563
X6.4709Y-2.7839
X6.4709Y-2.8193
X6.4799Y-4.4362
X6.4803Y-4.3583
X6.4803Y-4.3941
X6.4811Y-4.2472
X6.522Y-3.8157
X6.5496Y-4.485
X6.552Y-3.2902
X6.5559Y-4.5965
X6.5567Y-4.5417
X6.5571Y-4.5717
X6.5748Y-3.2508
X6.622Y-2.8634
X6.6512Y-3.2902
X6.7075Y-2.8634
X6.7213Y-3.5638
X6.7461Y-4.1988
X6.8035Y-4.4193
X6.8043Y-4.4441
X6.8114Y-4.5264
X6.8118Y-4.5488
X6.8354Y-4.5244
X6.8354Y-4.5484
X6.8591Y-3.4039
X6.8618Y-3.4327
X6.8862Y-3.4031
X6.8862Y-3.4319
X6.9122Y-3.4028
X6.913Y-3.4303
X6.9276Y-4.2016
X6.9413Y-3.4299
X6.9425Y-3.4024
X6.9921Y-4.6331
X7.0524Y-4.5594
X7.1921Y-4.1461
X7.2748Y-3.8173
T2
X4.3717Y-2.7878
X7.102Y-4.3594
X7.102Y-4.702
T3
X4.3406Y-4.8425
X4.3445Y-2.6378
X4.3596Y-4.7966
X4.3596Y-4.8885
X4.3635Y-2.5919
X4.3635Y-2.6837
X4.4055Y-4.7776
X4.4055Y-4.9075
X4.4094Y-2.5728
X4.4094Y-2.7028
X4.4514Y-4.7966
X4.4514Y-4.8885
X4.4554Y-2.5919
X4.4554Y-2.6837
X4.4705Y-4.8425
X4.4744Y-2.6378
X7.1398Y-2.6378
X7.1398Y-4.8425
X7.1588Y-2.5919
X7.1588Y-2.6837
X7.1588Y-4.7966
X7.1588Y-4.8885
X7.2047Y-2.5728
X7.2047Y-2.7028
X7.2047Y-4.7776
X7.2047Y-4.9075
X7.2507Y-2.5919
X7.2507Y-2.6837
X7.2507Y-4.7966
X7.2507Y-4.8885
X7.2697Y-2.6378
X7.2697Y-4.8425
T4
X6.6787Y-4.6283
T7
X4.3898Y-2.8839
X4.3898Y-2.9626
X4.3898Y-3.0413
X4.3898Y-3.1201
X4.3898Y-3.1988
T8
X6.8264Y-2.7858
X6.8264Y-2.8858
X6.8764Y-2.8358
X6.9264Y-2.7858
X6.9264Y-2.8858
T9
X4.7669Y-2.585
X4.7669Y-2.6441
X4.7669Y-2.7031
X4.9488Y-2.5854
X4.9488Y-2.6445
X4.9488Y-2.7035
X5.1303Y-2.5862
X5.1303Y-2.6453
X5.1303Y-2.7043
X5.1783Y-4.7709
X5.1783Y-4.8299
X5.1783Y-4.889
X5.313Y-2.5878
X5.313Y-2.6469
X5.313Y-2.7059
X5.3669Y-4.7717
X5.3669Y-4.8307
X5.3669Y-4.8898
X5.5547Y-4.7713
X5.5547Y-4.8303
X5.5547Y-4.8894
X5.5614Y-2.5866
X5.5614Y-2.6457
X5.5614Y-2.7047
X5.7437Y-2.5874
X5.7437Y-2.6465
X5.7437Y-2.7055
X5.7441Y-4.7717
X5.7441Y-4.8307
X5.7441Y-4.8898
X5.926Y-2.5874
X5.926Y-2.6465
X5.926Y-2.7055
X5.9323Y-4.7724
X5.9323Y-4.8315
X5.9323Y-4.8906
X6.1075Y-2.587
X6.1075Y-2.6461
X6.1075Y-2.7051
X6.1185Y-4.7732
X6.1185Y-4.8323
X6.1185Y-4.8913
X6.289Y-2.5874
X6.289Y-2.6465
X6.289Y-2.7055
X7.2055Y-3.5291
X7.2055Y-3.5882
X7.2055Y-3.6472
X7.2055Y-3.7063
T10
X4.6457Y-3.5925
X4.8425Y-3.5925
X5.2315Y-4.5571
X5.3315Y-4.5571
X5.377Y-4.2112
X5.377Y-4.3112
X5.4315Y-4.5571
X5.477Y-4.2112
X5.477Y-4.3112
X5.5315Y-4.5571
X5.577Y-4.2112
X5.577Y-4.3112
X5.9776Y-4.2051
X5.9776Y-4.3051
X6.0776Y-4.2051
X6.0776Y-4.3051
X6.1776Y-4.2051
X6.1776Y-4.3051
X6.3701Y-4.7425
X6.3701Y-4.8425
X6.4701Y-4.7425
X6.4701Y-4.8425
X6.5701Y-4.7425
X6.5701Y-4.8425
X6.6701Y-4.7425
X6.6701Y-4.8425
X6.7701Y-4.7425
X6.7701Y-4.8425
X6.8701Y-4.7425
X6.8701Y-4.8425
T11
X4.4055Y-4.8425
X4.4094Y-2.6378
X7.2047Y-2.6378
X7.2047Y-4.8425
T5
G00X4.2984Y-3.6122
M15
G01X4.2728Y-3.6122
M16
G05
G00X4.2984Y-3.8878
M15
G01X4.2728Y-3.8878
M16
G05
T6
G00X4.3919Y-3.6457
M15
G01X4.3919Y-3.6575
M16
G05
G00X4.3919Y-3.8425
M15
G01X4.3919Y-3.8543
M16
G05
M30
