%TF.GenerationSoftware,KiCad,Pcbnew,8.0.3-8.0.3-0~ubuntu22.04.1*%
%TF.CreationDate,2024-08-07T12:57:24+03:00*%
%TF.ProjectId,control_body,636f6e74-726f-46c5-9f62-6f64792e6b69,rev?*%
%TF.SameCoordinates,Original*%
%TF.FileFunction,Legend,Top*%
%TF.FilePolarity,Positive*%
%FSLAX46Y46*%
G04 Gerber Fmt 4.6, Leading zero omitted, Abs format (unit mm)*
G04 Created by KiCad (PCBNEW 8.0.3-8.0.3-0~ubuntu22.04.1) date 2024-08-07 12:57:24*
%MOMM*%
%LPD*%
G01*
G04 APERTURE LIST*
%ADD10C,0.076200*%
%ADD11C,0.127000*%
%ADD12C,0.254000*%
%ADD13C,0.150000*%
%ADD14C,0.120000*%
%ADD15C,0.100000*%
G04 APERTURE END LIST*
D10*
X179513867Y-101558916D02*
X179005867Y-101558916D01*
X179005867Y-101558916D02*
X179005867Y-101437964D01*
X179005867Y-101437964D02*
X179030057Y-101365392D01*
X179030057Y-101365392D02*
X179078438Y-101317011D01*
X179078438Y-101317011D02*
X179126819Y-101292821D01*
X179126819Y-101292821D02*
X179223581Y-101268630D01*
X179223581Y-101268630D02*
X179296153Y-101268630D01*
X179296153Y-101268630D02*
X179392915Y-101292821D01*
X179392915Y-101292821D02*
X179441296Y-101317011D01*
X179441296Y-101317011D02*
X179489677Y-101365392D01*
X179489677Y-101365392D02*
X179513867Y-101437964D01*
X179513867Y-101437964D02*
X179513867Y-101558916D01*
X179513867Y-100978345D02*
X179489677Y-101026726D01*
X179489677Y-101026726D02*
X179465486Y-101050916D01*
X179465486Y-101050916D02*
X179417105Y-101075107D01*
X179417105Y-101075107D02*
X179271962Y-101075107D01*
X179271962Y-101075107D02*
X179223581Y-101050916D01*
X179223581Y-101050916D02*
X179199391Y-101026726D01*
X179199391Y-101026726D02*
X179175200Y-100978345D01*
X179175200Y-100978345D02*
X179175200Y-100905773D01*
X179175200Y-100905773D02*
X179199391Y-100857392D01*
X179199391Y-100857392D02*
X179223581Y-100833202D01*
X179223581Y-100833202D02*
X179271962Y-100809011D01*
X179271962Y-100809011D02*
X179417105Y-100809011D01*
X179417105Y-100809011D02*
X179465486Y-100833202D01*
X179465486Y-100833202D02*
X179489677Y-100857392D01*
X179489677Y-100857392D02*
X179513867Y-100905773D01*
X179513867Y-100905773D02*
X179513867Y-100978345D01*
X179175200Y-100591297D02*
X179513867Y-100591297D01*
X179223581Y-100591297D02*
X179199391Y-100567107D01*
X179199391Y-100567107D02*
X179175200Y-100518726D01*
X179175200Y-100518726D02*
X179175200Y-100446154D01*
X179175200Y-100446154D02*
X179199391Y-100397773D01*
X179199391Y-100397773D02*
X179247772Y-100373583D01*
X179247772Y-100373583D02*
X179513867Y-100373583D01*
X179489677Y-99938154D02*
X179513867Y-99986535D01*
X179513867Y-99986535D02*
X179513867Y-100083297D01*
X179513867Y-100083297D02*
X179489677Y-100131678D01*
X179489677Y-100131678D02*
X179441296Y-100155869D01*
X179441296Y-100155869D02*
X179247772Y-100155869D01*
X179247772Y-100155869D02*
X179199391Y-100131678D01*
X179199391Y-100131678D02*
X179175200Y-100083297D01*
X179175200Y-100083297D02*
X179175200Y-99986535D01*
X179175200Y-99986535D02*
X179199391Y-99938154D01*
X179199391Y-99938154D02*
X179247772Y-99913964D01*
X179247772Y-99913964D02*
X179296153Y-99913964D01*
X179296153Y-99913964D02*
X179344534Y-100155869D01*
X179513867Y-99309201D02*
X179005867Y-99309201D01*
X179199391Y-99309201D02*
X179175200Y-99260820D01*
X179175200Y-99260820D02*
X179175200Y-99164058D01*
X179175200Y-99164058D02*
X179199391Y-99115677D01*
X179199391Y-99115677D02*
X179223581Y-99091487D01*
X179223581Y-99091487D02*
X179271962Y-99067296D01*
X179271962Y-99067296D02*
X179417105Y-99067296D01*
X179417105Y-99067296D02*
X179465486Y-99091487D01*
X179465486Y-99091487D02*
X179489677Y-99115677D01*
X179489677Y-99115677D02*
X179513867Y-99164058D01*
X179513867Y-99164058D02*
X179513867Y-99260820D01*
X179513867Y-99260820D02*
X179489677Y-99309201D01*
X179175200Y-98897963D02*
X179513867Y-98777011D01*
X179175200Y-98656058D02*
X179513867Y-98777011D01*
X179513867Y-98777011D02*
X179634819Y-98825392D01*
X179634819Y-98825392D02*
X179659010Y-98849582D01*
X179659010Y-98849582D02*
X179683200Y-98897963D01*
X179005867Y-98148058D02*
X179513867Y-97978724D01*
X179513867Y-97978724D02*
X179005867Y-97809391D01*
X179513867Y-97640057D02*
X179175200Y-97640057D01*
X179005867Y-97640057D02*
X179030057Y-97664248D01*
X179030057Y-97664248D02*
X179054248Y-97640057D01*
X179054248Y-97640057D02*
X179030057Y-97615867D01*
X179030057Y-97615867D02*
X179005867Y-97640057D01*
X179005867Y-97640057D02*
X179054248Y-97640057D01*
X179489677Y-97180438D02*
X179513867Y-97228819D01*
X179513867Y-97228819D02*
X179513867Y-97325581D01*
X179513867Y-97325581D02*
X179489677Y-97373962D01*
X179489677Y-97373962D02*
X179465486Y-97398152D01*
X179465486Y-97398152D02*
X179417105Y-97422343D01*
X179417105Y-97422343D02*
X179271962Y-97422343D01*
X179271962Y-97422343D02*
X179223581Y-97398152D01*
X179223581Y-97398152D02*
X179199391Y-97373962D01*
X179199391Y-97373962D02*
X179175200Y-97325581D01*
X179175200Y-97325581D02*
X179175200Y-97228819D01*
X179175200Y-97228819D02*
X179199391Y-97180438D01*
X179175200Y-97035295D02*
X179175200Y-96841771D01*
X179005867Y-96962723D02*
X179441296Y-96962723D01*
X179441296Y-96962723D02*
X179489677Y-96938533D01*
X179489677Y-96938533D02*
X179513867Y-96890152D01*
X179513867Y-96890152D02*
X179513867Y-96841771D01*
X179513867Y-96599866D02*
X179489677Y-96648247D01*
X179489677Y-96648247D02*
X179465486Y-96672437D01*
X179465486Y-96672437D02*
X179417105Y-96696628D01*
X179417105Y-96696628D02*
X179271962Y-96696628D01*
X179271962Y-96696628D02*
X179223581Y-96672437D01*
X179223581Y-96672437D02*
X179199391Y-96648247D01*
X179199391Y-96648247D02*
X179175200Y-96599866D01*
X179175200Y-96599866D02*
X179175200Y-96527294D01*
X179175200Y-96527294D02*
X179199391Y-96478913D01*
X179199391Y-96478913D02*
X179223581Y-96454723D01*
X179223581Y-96454723D02*
X179271962Y-96430532D01*
X179271962Y-96430532D02*
X179417105Y-96430532D01*
X179417105Y-96430532D02*
X179465486Y-96454723D01*
X179465486Y-96454723D02*
X179489677Y-96478913D01*
X179489677Y-96478913D02*
X179513867Y-96527294D01*
X179513867Y-96527294D02*
X179513867Y-96599866D01*
X179175200Y-96212818D02*
X179513867Y-96212818D01*
X179223581Y-96212818D02*
X179199391Y-96188628D01*
X179199391Y-96188628D02*
X179175200Y-96140247D01*
X179175200Y-96140247D02*
X179175200Y-96067675D01*
X179175200Y-96067675D02*
X179199391Y-96019294D01*
X179199391Y-96019294D02*
X179247772Y-95995104D01*
X179247772Y-95995104D02*
X179513867Y-95995104D01*
X179513867Y-95753199D02*
X179175200Y-95753199D01*
X179005867Y-95753199D02*
X179030057Y-95777390D01*
X179030057Y-95777390D02*
X179054248Y-95753199D01*
X179054248Y-95753199D02*
X179030057Y-95729009D01*
X179030057Y-95729009D02*
X179005867Y-95753199D01*
X179005867Y-95753199D02*
X179054248Y-95753199D01*
X179005867Y-95559675D02*
X179513867Y-95221008D01*
X179005867Y-95221008D02*
X179513867Y-95559675D01*
D11*
X177333056Y-99259686D02*
X177333056Y-98679114D01*
X178349056Y-98969400D02*
X177333056Y-98969400D01*
X178349056Y-97905019D02*
X177816866Y-97905019D01*
X177816866Y-97905019D02*
X177720104Y-97953400D01*
X177720104Y-97953400D02*
X177671723Y-98050162D01*
X177671723Y-98050162D02*
X177671723Y-98243686D01*
X177671723Y-98243686D02*
X177720104Y-98340448D01*
X178300676Y-97905019D02*
X178349056Y-98001781D01*
X178349056Y-98001781D02*
X178349056Y-98243686D01*
X178349056Y-98243686D02*
X178300676Y-98340448D01*
X178300676Y-98340448D02*
X178203914Y-98388829D01*
X178203914Y-98388829D02*
X178107152Y-98388829D01*
X178107152Y-98388829D02*
X178010390Y-98340448D01*
X178010390Y-98340448D02*
X177962009Y-98243686D01*
X177962009Y-98243686D02*
X177962009Y-98001781D01*
X177962009Y-98001781D02*
X177913628Y-97905019D01*
X177671723Y-97421210D02*
X178349056Y-97421210D01*
X177768485Y-97421210D02*
X177720104Y-97372829D01*
X177720104Y-97372829D02*
X177671723Y-97276067D01*
X177671723Y-97276067D02*
X177671723Y-97130924D01*
X177671723Y-97130924D02*
X177720104Y-97034162D01*
X177720104Y-97034162D02*
X177816866Y-96985781D01*
X177816866Y-96985781D02*
X178349056Y-96985781D01*
X177671723Y-96066543D02*
X178494199Y-96066543D01*
X178494199Y-96066543D02*
X178590961Y-96114924D01*
X178590961Y-96114924D02*
X178639342Y-96163305D01*
X178639342Y-96163305D02*
X178687723Y-96260067D01*
X178687723Y-96260067D02*
X178687723Y-96405210D01*
X178687723Y-96405210D02*
X178639342Y-96501972D01*
X178300676Y-96066543D02*
X178349056Y-96163305D01*
X178349056Y-96163305D02*
X178349056Y-96356829D01*
X178349056Y-96356829D02*
X178300676Y-96453591D01*
X178300676Y-96453591D02*
X178252295Y-96501972D01*
X178252295Y-96501972D02*
X178155533Y-96550353D01*
X178155533Y-96550353D02*
X177865247Y-96550353D01*
X177865247Y-96550353D02*
X177768485Y-96501972D01*
X177768485Y-96501972D02*
X177720104Y-96453591D01*
X177720104Y-96453591D02*
X177671723Y-96356829D01*
X177671723Y-96356829D02*
X177671723Y-96163305D01*
X177671723Y-96163305D02*
X177720104Y-96066543D01*
X178349056Y-95147305D02*
X177816866Y-95147305D01*
X177816866Y-95147305D02*
X177720104Y-95195686D01*
X177720104Y-95195686D02*
X177671723Y-95292448D01*
X177671723Y-95292448D02*
X177671723Y-95485972D01*
X177671723Y-95485972D02*
X177720104Y-95582734D01*
X178300676Y-95147305D02*
X178349056Y-95244067D01*
X178349056Y-95244067D02*
X178349056Y-95485972D01*
X178349056Y-95485972D02*
X178300676Y-95582734D01*
X178300676Y-95582734D02*
X178203914Y-95631115D01*
X178203914Y-95631115D02*
X178107152Y-95631115D01*
X178107152Y-95631115D02*
X178010390Y-95582734D01*
X178010390Y-95582734D02*
X177962009Y-95485972D01*
X177962009Y-95485972D02*
X177962009Y-95244067D01*
X177962009Y-95244067D02*
X177913628Y-95147305D01*
D12*
X178400892Y-104260990D02*
X178461368Y-104079561D01*
X178461368Y-104079561D02*
X178461368Y-103777180D01*
X178461368Y-103777180D02*
X178400892Y-103656228D01*
X178400892Y-103656228D02*
X178340415Y-103595752D01*
X178340415Y-103595752D02*
X178219463Y-103535275D01*
X178219463Y-103535275D02*
X178098511Y-103535275D01*
X178098511Y-103535275D02*
X177977558Y-103595752D01*
X177977558Y-103595752D02*
X177917082Y-103656228D01*
X177917082Y-103656228D02*
X177856606Y-103777180D01*
X177856606Y-103777180D02*
X177796130Y-104019085D01*
X177796130Y-104019085D02*
X177735653Y-104140037D01*
X177735653Y-104140037D02*
X177675177Y-104200514D01*
X177675177Y-104200514D02*
X177554225Y-104260990D01*
X177554225Y-104260990D02*
X177433272Y-104260990D01*
X177433272Y-104260990D02*
X177312320Y-104200514D01*
X177312320Y-104200514D02*
X177251844Y-104140037D01*
X177251844Y-104140037D02*
X177191368Y-104019085D01*
X177191368Y-104019085D02*
X177191368Y-103716704D01*
X177191368Y-103716704D02*
X177251844Y-103535275D01*
X178461368Y-102990990D02*
X177191368Y-102990990D01*
X178461368Y-102265275D02*
X177735653Y-102809561D01*
X177191368Y-102265275D02*
X177917082Y-102990990D01*
X177191368Y-101720990D02*
X178219463Y-101720990D01*
X178219463Y-101720990D02*
X178340415Y-101660513D01*
X178340415Y-101660513D02*
X178400892Y-101600037D01*
X178400892Y-101600037D02*
X178461368Y-101479085D01*
X178461368Y-101479085D02*
X178461368Y-101237180D01*
X178461368Y-101237180D02*
X178400892Y-101116228D01*
X178400892Y-101116228D02*
X178340415Y-101055751D01*
X178340415Y-101055751D02*
X178219463Y-100995275D01*
X178219463Y-100995275D02*
X177191368Y-100995275D01*
X178098511Y-100450990D02*
X178098511Y-99846228D01*
X178461368Y-100571942D02*
X177191368Y-100148609D01*
X177191368Y-100148609D02*
X178461368Y-99725275D01*
D13*
X183369104Y-73716666D02*
X183369104Y-73240476D01*
X183654819Y-73811904D02*
X182654819Y-73478571D01*
X182654819Y-73478571D02*
X183654819Y-73145238D01*
X183131009Y-72811904D02*
X183131009Y-72478571D01*
X183654819Y-72335714D02*
X183654819Y-72811904D01*
X183654819Y-72811904D02*
X182654819Y-72811904D01*
X182654819Y-72811904D02*
X182654819Y-72335714D01*
X183654819Y-71383333D02*
X183654819Y-71954761D01*
X183654819Y-71669047D02*
X182654819Y-71669047D01*
X182654819Y-71669047D02*
X182797676Y-71764285D01*
X182797676Y-71764285D02*
X182892914Y-71859523D01*
X182892914Y-71859523D02*
X182940533Y-71954761D01*
X148954819Y-108889523D02*
X149669104Y-108889523D01*
X149669104Y-108889523D02*
X149811961Y-108937142D01*
X149811961Y-108937142D02*
X149907200Y-109032380D01*
X149907200Y-109032380D02*
X149954819Y-109175237D01*
X149954819Y-109175237D02*
X149954819Y-109270475D01*
X149050057Y-108460951D02*
X149002438Y-108413332D01*
X149002438Y-108413332D02*
X148954819Y-108318094D01*
X148954819Y-108318094D02*
X148954819Y-108079999D01*
X148954819Y-108079999D02*
X149002438Y-107984761D01*
X149002438Y-107984761D02*
X149050057Y-107937142D01*
X149050057Y-107937142D02*
X149145295Y-107889523D01*
X149145295Y-107889523D02*
X149240533Y-107889523D01*
X149240533Y-107889523D02*
X149383390Y-107937142D01*
X149383390Y-107937142D02*
X149954819Y-108508570D01*
X149954819Y-108508570D02*
X149954819Y-107889523D01*
X149954819Y-106937142D02*
X149954819Y-107508570D01*
X149954819Y-107222856D02*
X148954819Y-107222856D01*
X148954819Y-107222856D02*
X149097676Y-107318094D01*
X149097676Y-107318094D02*
X149192914Y-107413332D01*
X149192914Y-107413332D02*
X149240533Y-107508570D01*
X174788095Y-79354819D02*
X174788095Y-80164342D01*
X174788095Y-80164342D02*
X174835714Y-80259580D01*
X174835714Y-80259580D02*
X174883333Y-80307200D01*
X174883333Y-80307200D02*
X174978571Y-80354819D01*
X174978571Y-80354819D02*
X175169047Y-80354819D01*
X175169047Y-80354819D02*
X175264285Y-80307200D01*
X175264285Y-80307200D02*
X175311904Y-80259580D01*
X175311904Y-80259580D02*
X175359523Y-80164342D01*
X175359523Y-80164342D02*
X175359523Y-79354819D01*
X175740476Y-79354819D02*
X176359523Y-79354819D01*
X176359523Y-79354819D02*
X176026190Y-79735771D01*
X176026190Y-79735771D02*
X176169047Y-79735771D01*
X176169047Y-79735771D02*
X176264285Y-79783390D01*
X176264285Y-79783390D02*
X176311904Y-79831009D01*
X176311904Y-79831009D02*
X176359523Y-79926247D01*
X176359523Y-79926247D02*
X176359523Y-80164342D01*
X176359523Y-80164342D02*
X176311904Y-80259580D01*
X176311904Y-80259580D02*
X176264285Y-80307200D01*
X176264285Y-80307200D02*
X176169047Y-80354819D01*
X176169047Y-80354819D02*
X175883333Y-80354819D01*
X175883333Y-80354819D02*
X175788095Y-80307200D01*
X175788095Y-80307200D02*
X175740476Y-80259580D01*
X143044819Y-123499523D02*
X143759104Y-123499523D01*
X143759104Y-123499523D02*
X143901961Y-123547142D01*
X143901961Y-123547142D02*
X143997200Y-123642380D01*
X143997200Y-123642380D02*
X144044819Y-123785237D01*
X144044819Y-123785237D02*
X144044819Y-123880475D01*
X144044819Y-122499523D02*
X144044819Y-123070951D01*
X144044819Y-122785237D02*
X143044819Y-122785237D01*
X143044819Y-122785237D02*
X143187676Y-122880475D01*
X143187676Y-122880475D02*
X143282914Y-122975713D01*
X143282914Y-122975713D02*
X143330533Y-123070951D01*
X143044819Y-121642380D02*
X143044819Y-121832856D01*
X143044819Y-121832856D02*
X143092438Y-121928094D01*
X143092438Y-121928094D02*
X143140057Y-121975713D01*
X143140057Y-121975713D02*
X143282914Y-122070951D01*
X143282914Y-122070951D02*
X143473390Y-122118570D01*
X143473390Y-122118570D02*
X143854342Y-122118570D01*
X143854342Y-122118570D02*
X143949580Y-122070951D01*
X143949580Y-122070951D02*
X143997200Y-122023332D01*
X143997200Y-122023332D02*
X144044819Y-121928094D01*
X144044819Y-121928094D02*
X144044819Y-121737618D01*
X144044819Y-121737618D02*
X143997200Y-121642380D01*
X143997200Y-121642380D02*
X143949580Y-121594761D01*
X143949580Y-121594761D02*
X143854342Y-121547142D01*
X143854342Y-121547142D02*
X143616247Y-121547142D01*
X143616247Y-121547142D02*
X143521009Y-121594761D01*
X143521009Y-121594761D02*
X143473390Y-121642380D01*
X143473390Y-121642380D02*
X143425771Y-121737618D01*
X143425771Y-121737618D02*
X143425771Y-121928094D01*
X143425771Y-121928094D02*
X143473390Y-122023332D01*
X143473390Y-122023332D02*
X143521009Y-122070951D01*
X143521009Y-122070951D02*
X143616247Y-122118570D01*
X183307142Y-75879580D02*
X183259523Y-75927200D01*
X183259523Y-75927200D02*
X183116666Y-75974819D01*
X183116666Y-75974819D02*
X183021428Y-75974819D01*
X183021428Y-75974819D02*
X182878571Y-75927200D01*
X182878571Y-75927200D02*
X182783333Y-75831961D01*
X182783333Y-75831961D02*
X182735714Y-75736723D01*
X182735714Y-75736723D02*
X182688095Y-75546247D01*
X182688095Y-75546247D02*
X182688095Y-75403390D01*
X182688095Y-75403390D02*
X182735714Y-75212914D01*
X182735714Y-75212914D02*
X182783333Y-75117676D01*
X182783333Y-75117676D02*
X182878571Y-75022438D01*
X182878571Y-75022438D02*
X183021428Y-74974819D01*
X183021428Y-74974819D02*
X183116666Y-74974819D01*
X183116666Y-74974819D02*
X183259523Y-75022438D01*
X183259523Y-75022438D02*
X183307142Y-75070057D01*
X184259523Y-75974819D02*
X183688095Y-75974819D01*
X183973809Y-75974819D02*
X183973809Y-74974819D01*
X183973809Y-74974819D02*
X183878571Y-75117676D01*
X183878571Y-75117676D02*
X183783333Y-75212914D01*
X183783333Y-75212914D02*
X183688095Y-75260533D01*
X184878571Y-74974819D02*
X184973809Y-74974819D01*
X184973809Y-74974819D02*
X185069047Y-75022438D01*
X185069047Y-75022438D02*
X185116666Y-75070057D01*
X185116666Y-75070057D02*
X185164285Y-75165295D01*
X185164285Y-75165295D02*
X185211904Y-75355771D01*
X185211904Y-75355771D02*
X185211904Y-75593866D01*
X185211904Y-75593866D02*
X185164285Y-75784342D01*
X185164285Y-75784342D02*
X185116666Y-75879580D01*
X185116666Y-75879580D02*
X185069047Y-75927200D01*
X185069047Y-75927200D02*
X184973809Y-75974819D01*
X184973809Y-75974819D02*
X184878571Y-75974819D01*
X184878571Y-75974819D02*
X184783333Y-75927200D01*
X184783333Y-75927200D02*
X184735714Y-75879580D01*
X184735714Y-75879580D02*
X184688095Y-75784342D01*
X184688095Y-75784342D02*
X184640476Y-75593866D01*
X184640476Y-75593866D02*
X184640476Y-75355771D01*
X184640476Y-75355771D02*
X184688095Y-75165295D01*
X184688095Y-75165295D02*
X184735714Y-75070057D01*
X184735714Y-75070057D02*
X184783333Y-75022438D01*
X184783333Y-75022438D02*
X184878571Y-74974819D01*
X181428095Y-113266819D02*
X181999523Y-113266819D01*
X181713809Y-114266819D02*
X181713809Y-113266819D01*
X182332857Y-114266819D02*
X182332857Y-113266819D01*
X182332857Y-113266819D02*
X182713809Y-113266819D01*
X182713809Y-113266819D02*
X182809047Y-113314438D01*
X182809047Y-113314438D02*
X182856666Y-113362057D01*
X182856666Y-113362057D02*
X182904285Y-113457295D01*
X182904285Y-113457295D02*
X182904285Y-113600152D01*
X182904285Y-113600152D02*
X182856666Y-113695390D01*
X182856666Y-113695390D02*
X182809047Y-113743009D01*
X182809047Y-113743009D02*
X182713809Y-113790628D01*
X182713809Y-113790628D02*
X182332857Y-113790628D01*
X183809047Y-113266819D02*
X183332857Y-113266819D01*
X183332857Y-113266819D02*
X183285238Y-113743009D01*
X183285238Y-113743009D02*
X183332857Y-113695390D01*
X183332857Y-113695390D02*
X183428095Y-113647771D01*
X183428095Y-113647771D02*
X183666190Y-113647771D01*
X183666190Y-113647771D02*
X183761428Y-113695390D01*
X183761428Y-113695390D02*
X183809047Y-113743009D01*
X183809047Y-113743009D02*
X183856666Y-113838247D01*
X183856666Y-113838247D02*
X183856666Y-114076342D01*
X183856666Y-114076342D02*
X183809047Y-114171580D01*
X183809047Y-114171580D02*
X183761428Y-114219200D01*
X183761428Y-114219200D02*
X183666190Y-114266819D01*
X183666190Y-114266819D02*
X183428095Y-114266819D01*
X183428095Y-114266819D02*
X183332857Y-114219200D01*
X183332857Y-114219200D02*
X183285238Y-114171580D01*
X157769761Y-111645057D02*
X157674523Y-111597438D01*
X157674523Y-111597438D02*
X157579285Y-111502200D01*
X157579285Y-111502200D02*
X157436428Y-111359342D01*
X157436428Y-111359342D02*
X157341190Y-111311723D01*
X157341190Y-111311723D02*
X157245952Y-111311723D01*
X157293571Y-111549819D02*
X157198333Y-111502200D01*
X157198333Y-111502200D02*
X157103095Y-111406961D01*
X157103095Y-111406961D02*
X157055476Y-111216485D01*
X157055476Y-111216485D02*
X157055476Y-110883152D01*
X157055476Y-110883152D02*
X157103095Y-110692676D01*
X157103095Y-110692676D02*
X157198333Y-110597438D01*
X157198333Y-110597438D02*
X157293571Y-110549819D01*
X157293571Y-110549819D02*
X157484047Y-110549819D01*
X157484047Y-110549819D02*
X157579285Y-110597438D01*
X157579285Y-110597438D02*
X157674523Y-110692676D01*
X157674523Y-110692676D02*
X157722142Y-110883152D01*
X157722142Y-110883152D02*
X157722142Y-111216485D01*
X157722142Y-111216485D02*
X157674523Y-111406961D01*
X157674523Y-111406961D02*
X157579285Y-111502200D01*
X157579285Y-111502200D02*
X157484047Y-111549819D01*
X157484047Y-111549819D02*
X157293571Y-111549819D01*
X158055476Y-110549819D02*
X158674523Y-110549819D01*
X158674523Y-110549819D02*
X158341190Y-110930771D01*
X158341190Y-110930771D02*
X158484047Y-110930771D01*
X158484047Y-110930771D02*
X158579285Y-110978390D01*
X158579285Y-110978390D02*
X158626904Y-111026009D01*
X158626904Y-111026009D02*
X158674523Y-111121247D01*
X158674523Y-111121247D02*
X158674523Y-111359342D01*
X158674523Y-111359342D02*
X158626904Y-111454580D01*
X158626904Y-111454580D02*
X158579285Y-111502200D01*
X158579285Y-111502200D02*
X158484047Y-111549819D01*
X158484047Y-111549819D02*
X158198333Y-111549819D01*
X158198333Y-111549819D02*
X158103095Y-111502200D01*
X158103095Y-111502200D02*
X158055476Y-111454580D01*
X126633333Y-97434819D02*
X126300000Y-96958628D01*
X126061905Y-97434819D02*
X126061905Y-96434819D01*
X126061905Y-96434819D02*
X126442857Y-96434819D01*
X126442857Y-96434819D02*
X126538095Y-96482438D01*
X126538095Y-96482438D02*
X126585714Y-96530057D01*
X126585714Y-96530057D02*
X126633333Y-96625295D01*
X126633333Y-96625295D02*
X126633333Y-96768152D01*
X126633333Y-96768152D02*
X126585714Y-96863390D01*
X126585714Y-96863390D02*
X126538095Y-96911009D01*
X126538095Y-96911009D02*
X126442857Y-96958628D01*
X126442857Y-96958628D02*
X126061905Y-96958628D01*
X126966667Y-96434819D02*
X127633333Y-96434819D01*
X127633333Y-96434819D02*
X127204762Y-97434819D01*
X181428095Y-100666819D02*
X181999523Y-100666819D01*
X181713809Y-101666819D02*
X181713809Y-100666819D01*
X182332857Y-101666819D02*
X182332857Y-100666819D01*
X182332857Y-100666819D02*
X182713809Y-100666819D01*
X182713809Y-100666819D02*
X182809047Y-100714438D01*
X182809047Y-100714438D02*
X182856666Y-100762057D01*
X182856666Y-100762057D02*
X182904285Y-100857295D01*
X182904285Y-100857295D02*
X182904285Y-101000152D01*
X182904285Y-101000152D02*
X182856666Y-101095390D01*
X182856666Y-101095390D02*
X182809047Y-101143009D01*
X182809047Y-101143009D02*
X182713809Y-101190628D01*
X182713809Y-101190628D02*
X182332857Y-101190628D01*
X183856666Y-101666819D02*
X183285238Y-101666819D01*
X183570952Y-101666819D02*
X183570952Y-100666819D01*
X183570952Y-100666819D02*
X183475714Y-100809676D01*
X183475714Y-100809676D02*
X183380476Y-100904914D01*
X183380476Y-100904914D02*
X183285238Y-100952533D01*
X145776666Y-71104819D02*
X145776666Y-71819104D01*
X145776666Y-71819104D02*
X145729047Y-71961961D01*
X145729047Y-71961961D02*
X145633809Y-72057200D01*
X145633809Y-72057200D02*
X145490952Y-72104819D01*
X145490952Y-72104819D02*
X145395714Y-72104819D01*
X146395714Y-71533390D02*
X146300476Y-71485771D01*
X146300476Y-71485771D02*
X146252857Y-71438152D01*
X146252857Y-71438152D02*
X146205238Y-71342914D01*
X146205238Y-71342914D02*
X146205238Y-71295295D01*
X146205238Y-71295295D02*
X146252857Y-71200057D01*
X146252857Y-71200057D02*
X146300476Y-71152438D01*
X146300476Y-71152438D02*
X146395714Y-71104819D01*
X146395714Y-71104819D02*
X146586190Y-71104819D01*
X146586190Y-71104819D02*
X146681428Y-71152438D01*
X146681428Y-71152438D02*
X146729047Y-71200057D01*
X146729047Y-71200057D02*
X146776666Y-71295295D01*
X146776666Y-71295295D02*
X146776666Y-71342914D01*
X146776666Y-71342914D02*
X146729047Y-71438152D01*
X146729047Y-71438152D02*
X146681428Y-71485771D01*
X146681428Y-71485771D02*
X146586190Y-71533390D01*
X146586190Y-71533390D02*
X146395714Y-71533390D01*
X146395714Y-71533390D02*
X146300476Y-71581009D01*
X146300476Y-71581009D02*
X146252857Y-71628628D01*
X146252857Y-71628628D02*
X146205238Y-71723866D01*
X146205238Y-71723866D02*
X146205238Y-71914342D01*
X146205238Y-71914342D02*
X146252857Y-72009580D01*
X146252857Y-72009580D02*
X146300476Y-72057200D01*
X146300476Y-72057200D02*
X146395714Y-72104819D01*
X146395714Y-72104819D02*
X146586190Y-72104819D01*
X146586190Y-72104819D02*
X146681428Y-72057200D01*
X146681428Y-72057200D02*
X146729047Y-72009580D01*
X146729047Y-72009580D02*
X146776666Y-71914342D01*
X146776666Y-71914342D02*
X146776666Y-71723866D01*
X146776666Y-71723866D02*
X146729047Y-71628628D01*
X146729047Y-71628628D02*
X146681428Y-71581009D01*
X146681428Y-71581009D02*
X146586190Y-71533390D01*
X133699819Y-108568333D02*
X134414104Y-108568333D01*
X134414104Y-108568333D02*
X134556961Y-108615952D01*
X134556961Y-108615952D02*
X134652200Y-108711190D01*
X134652200Y-108711190D02*
X134699819Y-108854047D01*
X134699819Y-108854047D02*
X134699819Y-108949285D01*
X133699819Y-108187380D02*
X133699819Y-107568333D01*
X133699819Y-107568333D02*
X134080771Y-107901666D01*
X134080771Y-107901666D02*
X134080771Y-107758809D01*
X134080771Y-107758809D02*
X134128390Y-107663571D01*
X134128390Y-107663571D02*
X134176009Y-107615952D01*
X134176009Y-107615952D02*
X134271247Y-107568333D01*
X134271247Y-107568333D02*
X134509342Y-107568333D01*
X134509342Y-107568333D02*
X134604580Y-107615952D01*
X134604580Y-107615952D02*
X134652200Y-107663571D01*
X134652200Y-107663571D02*
X134699819Y-107758809D01*
X134699819Y-107758809D02*
X134699819Y-108044523D01*
X134699819Y-108044523D02*
X134652200Y-108139761D01*
X134652200Y-108139761D02*
X134604580Y-108187380D01*
X179974819Y-92699523D02*
X180689104Y-92699523D01*
X180689104Y-92699523D02*
X180831961Y-92747142D01*
X180831961Y-92747142D02*
X180927200Y-92842380D01*
X180927200Y-92842380D02*
X180974819Y-92985237D01*
X180974819Y-92985237D02*
X180974819Y-93080475D01*
X180070057Y-92270951D02*
X180022438Y-92223332D01*
X180022438Y-92223332D02*
X179974819Y-92128094D01*
X179974819Y-92128094D02*
X179974819Y-91889999D01*
X179974819Y-91889999D02*
X180022438Y-91794761D01*
X180022438Y-91794761D02*
X180070057Y-91747142D01*
X180070057Y-91747142D02*
X180165295Y-91699523D01*
X180165295Y-91699523D02*
X180260533Y-91699523D01*
X180260533Y-91699523D02*
X180403390Y-91747142D01*
X180403390Y-91747142D02*
X180974819Y-92318570D01*
X180974819Y-92318570D02*
X180974819Y-91699523D01*
X179974819Y-91080475D02*
X179974819Y-90985237D01*
X179974819Y-90985237D02*
X180022438Y-90889999D01*
X180022438Y-90889999D02*
X180070057Y-90842380D01*
X180070057Y-90842380D02*
X180165295Y-90794761D01*
X180165295Y-90794761D02*
X180355771Y-90747142D01*
X180355771Y-90747142D02*
X180593866Y-90747142D01*
X180593866Y-90747142D02*
X180784342Y-90794761D01*
X180784342Y-90794761D02*
X180879580Y-90842380D01*
X180879580Y-90842380D02*
X180927200Y-90889999D01*
X180927200Y-90889999D02*
X180974819Y-90985237D01*
X180974819Y-90985237D02*
X180974819Y-91080475D01*
X180974819Y-91080475D02*
X180927200Y-91175713D01*
X180927200Y-91175713D02*
X180879580Y-91223332D01*
X180879580Y-91223332D02*
X180784342Y-91270951D01*
X180784342Y-91270951D02*
X180593866Y-91318570D01*
X180593866Y-91318570D02*
X180355771Y-91318570D01*
X180355771Y-91318570D02*
X180165295Y-91270951D01*
X180165295Y-91270951D02*
X180070057Y-91223332D01*
X180070057Y-91223332D02*
X180022438Y-91175713D01*
X180022438Y-91175713D02*
X179974819Y-91080475D01*
X123861905Y-75654819D02*
X123861905Y-74654819D01*
X123861905Y-74654819D02*
X124100000Y-74654819D01*
X124100000Y-74654819D02*
X124242857Y-74702438D01*
X124242857Y-74702438D02*
X124338095Y-74797676D01*
X124338095Y-74797676D02*
X124385714Y-74892914D01*
X124385714Y-74892914D02*
X124433333Y-75083390D01*
X124433333Y-75083390D02*
X124433333Y-75226247D01*
X124433333Y-75226247D02*
X124385714Y-75416723D01*
X124385714Y-75416723D02*
X124338095Y-75511961D01*
X124338095Y-75511961D02*
X124242857Y-75607200D01*
X124242857Y-75607200D02*
X124100000Y-75654819D01*
X124100000Y-75654819D02*
X123861905Y-75654819D01*
X124814286Y-74750057D02*
X124861905Y-74702438D01*
X124861905Y-74702438D02*
X124957143Y-74654819D01*
X124957143Y-74654819D02*
X125195238Y-74654819D01*
X125195238Y-74654819D02*
X125290476Y-74702438D01*
X125290476Y-74702438D02*
X125338095Y-74750057D01*
X125338095Y-74750057D02*
X125385714Y-74845295D01*
X125385714Y-74845295D02*
X125385714Y-74940533D01*
X125385714Y-74940533D02*
X125338095Y-75083390D01*
X125338095Y-75083390D02*
X124766667Y-75654819D01*
X124766667Y-75654819D02*
X125385714Y-75654819D01*
X172564819Y-110417857D02*
X172088628Y-110751190D01*
X172564819Y-110989285D02*
X171564819Y-110989285D01*
X171564819Y-110989285D02*
X171564819Y-110608333D01*
X171564819Y-110608333D02*
X171612438Y-110513095D01*
X171612438Y-110513095D02*
X171660057Y-110465476D01*
X171660057Y-110465476D02*
X171755295Y-110417857D01*
X171755295Y-110417857D02*
X171898152Y-110417857D01*
X171898152Y-110417857D02*
X171993390Y-110465476D01*
X171993390Y-110465476D02*
X172041009Y-110513095D01*
X172041009Y-110513095D02*
X172088628Y-110608333D01*
X172088628Y-110608333D02*
X172088628Y-110989285D01*
X171660057Y-110036904D02*
X171612438Y-109989285D01*
X171612438Y-109989285D02*
X171564819Y-109894047D01*
X171564819Y-109894047D02*
X171564819Y-109655952D01*
X171564819Y-109655952D02*
X171612438Y-109560714D01*
X171612438Y-109560714D02*
X171660057Y-109513095D01*
X171660057Y-109513095D02*
X171755295Y-109465476D01*
X171755295Y-109465476D02*
X171850533Y-109465476D01*
X171850533Y-109465476D02*
X171993390Y-109513095D01*
X171993390Y-109513095D02*
X172564819Y-110084523D01*
X172564819Y-110084523D02*
X172564819Y-109465476D01*
X171564819Y-108608333D02*
X171564819Y-108798809D01*
X171564819Y-108798809D02*
X171612438Y-108894047D01*
X171612438Y-108894047D02*
X171660057Y-108941666D01*
X171660057Y-108941666D02*
X171802914Y-109036904D01*
X171802914Y-109036904D02*
X171993390Y-109084523D01*
X171993390Y-109084523D02*
X172374342Y-109084523D01*
X172374342Y-109084523D02*
X172469580Y-109036904D01*
X172469580Y-109036904D02*
X172517200Y-108989285D01*
X172517200Y-108989285D02*
X172564819Y-108894047D01*
X172564819Y-108894047D02*
X172564819Y-108703571D01*
X172564819Y-108703571D02*
X172517200Y-108608333D01*
X172517200Y-108608333D02*
X172469580Y-108560714D01*
X172469580Y-108560714D02*
X172374342Y-108513095D01*
X172374342Y-108513095D02*
X172136247Y-108513095D01*
X172136247Y-108513095D02*
X172041009Y-108560714D01*
X172041009Y-108560714D02*
X171993390Y-108608333D01*
X171993390Y-108608333D02*
X171945771Y-108703571D01*
X171945771Y-108703571D02*
X171945771Y-108894047D01*
X171945771Y-108894047D02*
X171993390Y-108989285D01*
X171993390Y-108989285D02*
X172041009Y-109036904D01*
X172041009Y-109036904D02*
X172136247Y-109084523D01*
X164636666Y-70714819D02*
X164636666Y-71429104D01*
X164636666Y-71429104D02*
X164589047Y-71571961D01*
X164589047Y-71571961D02*
X164493809Y-71667200D01*
X164493809Y-71667200D02*
X164350952Y-71714819D01*
X164350952Y-71714819D02*
X164255714Y-71714819D01*
X165112857Y-71714819D02*
X165112857Y-70714819D01*
X165112857Y-70714819D02*
X165493809Y-70714819D01*
X165493809Y-70714819D02*
X165589047Y-70762438D01*
X165589047Y-70762438D02*
X165636666Y-70810057D01*
X165636666Y-70810057D02*
X165684285Y-70905295D01*
X165684285Y-70905295D02*
X165684285Y-71048152D01*
X165684285Y-71048152D02*
X165636666Y-71143390D01*
X165636666Y-71143390D02*
X165589047Y-71191009D01*
X165589047Y-71191009D02*
X165493809Y-71238628D01*
X165493809Y-71238628D02*
X165112857Y-71238628D01*
X166636666Y-71714819D02*
X166065238Y-71714819D01*
X166350952Y-71714819D02*
X166350952Y-70714819D01*
X166350952Y-70714819D02*
X166255714Y-70857676D01*
X166255714Y-70857676D02*
X166160476Y-70952914D01*
X166160476Y-70952914D02*
X166065238Y-71000533D01*
X152127142Y-81669580D02*
X152079523Y-81717200D01*
X152079523Y-81717200D02*
X151936666Y-81764819D01*
X151936666Y-81764819D02*
X151841428Y-81764819D01*
X151841428Y-81764819D02*
X151698571Y-81717200D01*
X151698571Y-81717200D02*
X151603333Y-81621961D01*
X151603333Y-81621961D02*
X151555714Y-81526723D01*
X151555714Y-81526723D02*
X151508095Y-81336247D01*
X151508095Y-81336247D02*
X151508095Y-81193390D01*
X151508095Y-81193390D02*
X151555714Y-81002914D01*
X151555714Y-81002914D02*
X151603333Y-80907676D01*
X151603333Y-80907676D02*
X151698571Y-80812438D01*
X151698571Y-80812438D02*
X151841428Y-80764819D01*
X151841428Y-80764819D02*
X151936666Y-80764819D01*
X151936666Y-80764819D02*
X152079523Y-80812438D01*
X152079523Y-80812438D02*
X152127142Y-80860057D01*
X153079523Y-81764819D02*
X152508095Y-81764819D01*
X152793809Y-81764819D02*
X152793809Y-80764819D01*
X152793809Y-80764819D02*
X152698571Y-80907676D01*
X152698571Y-80907676D02*
X152603333Y-81002914D01*
X152603333Y-81002914D02*
X152508095Y-81050533D01*
X153936666Y-80764819D02*
X153746190Y-80764819D01*
X153746190Y-80764819D02*
X153650952Y-80812438D01*
X153650952Y-80812438D02*
X153603333Y-80860057D01*
X153603333Y-80860057D02*
X153508095Y-81002914D01*
X153508095Y-81002914D02*
X153460476Y-81193390D01*
X153460476Y-81193390D02*
X153460476Y-81574342D01*
X153460476Y-81574342D02*
X153508095Y-81669580D01*
X153508095Y-81669580D02*
X153555714Y-81717200D01*
X153555714Y-81717200D02*
X153650952Y-81764819D01*
X153650952Y-81764819D02*
X153841428Y-81764819D01*
X153841428Y-81764819D02*
X153936666Y-81717200D01*
X153936666Y-81717200D02*
X153984285Y-81669580D01*
X153984285Y-81669580D02*
X154031904Y-81574342D01*
X154031904Y-81574342D02*
X154031904Y-81336247D01*
X154031904Y-81336247D02*
X153984285Y-81241009D01*
X153984285Y-81241009D02*
X153936666Y-81193390D01*
X153936666Y-81193390D02*
X153841428Y-81145771D01*
X153841428Y-81145771D02*
X153650952Y-81145771D01*
X153650952Y-81145771D02*
X153555714Y-81193390D01*
X153555714Y-81193390D02*
X153508095Y-81241009D01*
X153508095Y-81241009D02*
X153460476Y-81336247D01*
X121933333Y-75214819D02*
X121600000Y-74738628D01*
X121361905Y-75214819D02*
X121361905Y-74214819D01*
X121361905Y-74214819D02*
X121742857Y-74214819D01*
X121742857Y-74214819D02*
X121838095Y-74262438D01*
X121838095Y-74262438D02*
X121885714Y-74310057D01*
X121885714Y-74310057D02*
X121933333Y-74405295D01*
X121933333Y-74405295D02*
X121933333Y-74548152D01*
X121933333Y-74548152D02*
X121885714Y-74643390D01*
X121885714Y-74643390D02*
X121838095Y-74691009D01*
X121838095Y-74691009D02*
X121742857Y-74738628D01*
X121742857Y-74738628D02*
X121361905Y-74738628D01*
X122885714Y-75214819D02*
X122314286Y-75214819D01*
X122600000Y-75214819D02*
X122600000Y-74214819D01*
X122600000Y-74214819D02*
X122504762Y-74357676D01*
X122504762Y-74357676D02*
X122409524Y-74452914D01*
X122409524Y-74452914D02*
X122314286Y-74500533D01*
X166109580Y-79592857D02*
X166157200Y-79640476D01*
X166157200Y-79640476D02*
X166204819Y-79783333D01*
X166204819Y-79783333D02*
X166204819Y-79878571D01*
X166204819Y-79878571D02*
X166157200Y-80021428D01*
X166157200Y-80021428D02*
X166061961Y-80116666D01*
X166061961Y-80116666D02*
X165966723Y-80164285D01*
X165966723Y-80164285D02*
X165776247Y-80211904D01*
X165776247Y-80211904D02*
X165633390Y-80211904D01*
X165633390Y-80211904D02*
X165442914Y-80164285D01*
X165442914Y-80164285D02*
X165347676Y-80116666D01*
X165347676Y-80116666D02*
X165252438Y-80021428D01*
X165252438Y-80021428D02*
X165204819Y-79878571D01*
X165204819Y-79878571D02*
X165204819Y-79783333D01*
X165204819Y-79783333D02*
X165252438Y-79640476D01*
X165252438Y-79640476D02*
X165300057Y-79592857D01*
X166204819Y-78640476D02*
X166204819Y-79211904D01*
X166204819Y-78926190D02*
X165204819Y-78926190D01*
X165204819Y-78926190D02*
X165347676Y-79021428D01*
X165347676Y-79021428D02*
X165442914Y-79116666D01*
X165442914Y-79116666D02*
X165490533Y-79211904D01*
X165538152Y-77783333D02*
X166204819Y-77783333D01*
X165157200Y-78021428D02*
X165871485Y-78259523D01*
X165871485Y-78259523D02*
X165871485Y-77640476D01*
X128937200Y-124803332D02*
X128984819Y-124660475D01*
X128984819Y-124660475D02*
X128984819Y-124422380D01*
X128984819Y-124422380D02*
X128937200Y-124327142D01*
X128937200Y-124327142D02*
X128889580Y-124279523D01*
X128889580Y-124279523D02*
X128794342Y-124231904D01*
X128794342Y-124231904D02*
X128699104Y-124231904D01*
X128699104Y-124231904D02*
X128603866Y-124279523D01*
X128603866Y-124279523D02*
X128556247Y-124327142D01*
X128556247Y-124327142D02*
X128508628Y-124422380D01*
X128508628Y-124422380D02*
X128461009Y-124612856D01*
X128461009Y-124612856D02*
X128413390Y-124708094D01*
X128413390Y-124708094D02*
X128365771Y-124755713D01*
X128365771Y-124755713D02*
X128270533Y-124803332D01*
X128270533Y-124803332D02*
X128175295Y-124803332D01*
X128175295Y-124803332D02*
X128080057Y-124755713D01*
X128080057Y-124755713D02*
X128032438Y-124708094D01*
X128032438Y-124708094D02*
X127984819Y-124612856D01*
X127984819Y-124612856D02*
X127984819Y-124374761D01*
X127984819Y-124374761D02*
X128032438Y-124231904D01*
X127984819Y-123898570D02*
X128984819Y-123660475D01*
X128984819Y-123660475D02*
X128270533Y-123469999D01*
X128270533Y-123469999D02*
X128984819Y-123279523D01*
X128984819Y-123279523D02*
X127984819Y-123041428D01*
X127984819Y-122755713D02*
X127984819Y-122136666D01*
X127984819Y-122136666D02*
X128365771Y-122469999D01*
X128365771Y-122469999D02*
X128365771Y-122327142D01*
X128365771Y-122327142D02*
X128413390Y-122231904D01*
X128413390Y-122231904D02*
X128461009Y-122184285D01*
X128461009Y-122184285D02*
X128556247Y-122136666D01*
X128556247Y-122136666D02*
X128794342Y-122136666D01*
X128794342Y-122136666D02*
X128889580Y-122184285D01*
X128889580Y-122184285D02*
X128937200Y-122231904D01*
X128937200Y-122231904D02*
X128984819Y-122327142D01*
X128984819Y-122327142D02*
X128984819Y-122612856D01*
X128984819Y-122612856D02*
X128937200Y-122708094D01*
X128937200Y-122708094D02*
X128889580Y-122755713D01*
X125324819Y-81488094D02*
X124324819Y-81488094D01*
X124324819Y-81488094D02*
X124324819Y-81249999D01*
X124324819Y-81249999D02*
X124372438Y-81107142D01*
X124372438Y-81107142D02*
X124467676Y-81011904D01*
X124467676Y-81011904D02*
X124562914Y-80964285D01*
X124562914Y-80964285D02*
X124753390Y-80916666D01*
X124753390Y-80916666D02*
X124896247Y-80916666D01*
X124896247Y-80916666D02*
X125086723Y-80964285D01*
X125086723Y-80964285D02*
X125181961Y-81011904D01*
X125181961Y-81011904D02*
X125277200Y-81107142D01*
X125277200Y-81107142D02*
X125324819Y-81249999D01*
X125324819Y-81249999D02*
X125324819Y-81488094D01*
X125324819Y-79964285D02*
X125324819Y-80535713D01*
X125324819Y-80249999D02*
X124324819Y-80249999D01*
X124324819Y-80249999D02*
X124467676Y-80345237D01*
X124467676Y-80345237D02*
X124562914Y-80440475D01*
X124562914Y-80440475D02*
X124610533Y-80535713D01*
X128937200Y-119643332D02*
X128984819Y-119500475D01*
X128984819Y-119500475D02*
X128984819Y-119262380D01*
X128984819Y-119262380D02*
X128937200Y-119167142D01*
X128937200Y-119167142D02*
X128889580Y-119119523D01*
X128889580Y-119119523D02*
X128794342Y-119071904D01*
X128794342Y-119071904D02*
X128699104Y-119071904D01*
X128699104Y-119071904D02*
X128603866Y-119119523D01*
X128603866Y-119119523D02*
X128556247Y-119167142D01*
X128556247Y-119167142D02*
X128508628Y-119262380D01*
X128508628Y-119262380D02*
X128461009Y-119452856D01*
X128461009Y-119452856D02*
X128413390Y-119548094D01*
X128413390Y-119548094D02*
X128365771Y-119595713D01*
X128365771Y-119595713D02*
X128270533Y-119643332D01*
X128270533Y-119643332D02*
X128175295Y-119643332D01*
X128175295Y-119643332D02*
X128080057Y-119595713D01*
X128080057Y-119595713D02*
X128032438Y-119548094D01*
X128032438Y-119548094D02*
X127984819Y-119452856D01*
X127984819Y-119452856D02*
X127984819Y-119214761D01*
X127984819Y-119214761D02*
X128032438Y-119071904D01*
X127984819Y-118738570D02*
X128984819Y-118500475D01*
X128984819Y-118500475D02*
X128270533Y-118309999D01*
X128270533Y-118309999D02*
X128984819Y-118119523D01*
X128984819Y-118119523D02*
X127984819Y-117881428D01*
X128080057Y-117548094D02*
X128032438Y-117500475D01*
X128032438Y-117500475D02*
X127984819Y-117405237D01*
X127984819Y-117405237D02*
X127984819Y-117167142D01*
X127984819Y-117167142D02*
X128032438Y-117071904D01*
X128032438Y-117071904D02*
X128080057Y-117024285D01*
X128080057Y-117024285D02*
X128175295Y-116976666D01*
X128175295Y-116976666D02*
X128270533Y-116976666D01*
X128270533Y-116976666D02*
X128413390Y-117024285D01*
X128413390Y-117024285D02*
X128984819Y-117595713D01*
X128984819Y-117595713D02*
X128984819Y-116976666D01*
X117573333Y-101704819D02*
X117240000Y-101228628D01*
X117001905Y-101704819D02*
X117001905Y-100704819D01*
X117001905Y-100704819D02*
X117382857Y-100704819D01*
X117382857Y-100704819D02*
X117478095Y-100752438D01*
X117478095Y-100752438D02*
X117525714Y-100800057D01*
X117525714Y-100800057D02*
X117573333Y-100895295D01*
X117573333Y-100895295D02*
X117573333Y-101038152D01*
X117573333Y-101038152D02*
X117525714Y-101133390D01*
X117525714Y-101133390D02*
X117478095Y-101181009D01*
X117478095Y-101181009D02*
X117382857Y-101228628D01*
X117382857Y-101228628D02*
X117001905Y-101228628D01*
X117954286Y-100800057D02*
X118001905Y-100752438D01*
X118001905Y-100752438D02*
X118097143Y-100704819D01*
X118097143Y-100704819D02*
X118335238Y-100704819D01*
X118335238Y-100704819D02*
X118430476Y-100752438D01*
X118430476Y-100752438D02*
X118478095Y-100800057D01*
X118478095Y-100800057D02*
X118525714Y-100895295D01*
X118525714Y-100895295D02*
X118525714Y-100990533D01*
X118525714Y-100990533D02*
X118478095Y-101133390D01*
X118478095Y-101133390D02*
X117906667Y-101704819D01*
X117906667Y-101704819D02*
X118525714Y-101704819D01*
X148197142Y-81659580D02*
X148149523Y-81707200D01*
X148149523Y-81707200D02*
X148006666Y-81754819D01*
X148006666Y-81754819D02*
X147911428Y-81754819D01*
X147911428Y-81754819D02*
X147768571Y-81707200D01*
X147768571Y-81707200D02*
X147673333Y-81611961D01*
X147673333Y-81611961D02*
X147625714Y-81516723D01*
X147625714Y-81516723D02*
X147578095Y-81326247D01*
X147578095Y-81326247D02*
X147578095Y-81183390D01*
X147578095Y-81183390D02*
X147625714Y-80992914D01*
X147625714Y-80992914D02*
X147673333Y-80897676D01*
X147673333Y-80897676D02*
X147768571Y-80802438D01*
X147768571Y-80802438D02*
X147911428Y-80754819D01*
X147911428Y-80754819D02*
X148006666Y-80754819D01*
X148006666Y-80754819D02*
X148149523Y-80802438D01*
X148149523Y-80802438D02*
X148197142Y-80850057D01*
X149149523Y-81754819D02*
X148578095Y-81754819D01*
X148863809Y-81754819D02*
X148863809Y-80754819D01*
X148863809Y-80754819D02*
X148768571Y-80897676D01*
X148768571Y-80897676D02*
X148673333Y-80992914D01*
X148673333Y-80992914D02*
X148578095Y-81040533D01*
X150054285Y-80754819D02*
X149578095Y-80754819D01*
X149578095Y-80754819D02*
X149530476Y-81231009D01*
X149530476Y-81231009D02*
X149578095Y-81183390D01*
X149578095Y-81183390D02*
X149673333Y-81135771D01*
X149673333Y-81135771D02*
X149911428Y-81135771D01*
X149911428Y-81135771D02*
X150006666Y-81183390D01*
X150006666Y-81183390D02*
X150054285Y-81231009D01*
X150054285Y-81231009D02*
X150101904Y-81326247D01*
X150101904Y-81326247D02*
X150101904Y-81564342D01*
X150101904Y-81564342D02*
X150054285Y-81659580D01*
X150054285Y-81659580D02*
X150006666Y-81707200D01*
X150006666Y-81707200D02*
X149911428Y-81754819D01*
X149911428Y-81754819D02*
X149673333Y-81754819D01*
X149673333Y-81754819D02*
X149578095Y-81707200D01*
X149578095Y-81707200D02*
X149530476Y-81659580D01*
X125754819Y-114106666D02*
X125278628Y-114439999D01*
X125754819Y-114678094D02*
X124754819Y-114678094D01*
X124754819Y-114678094D02*
X124754819Y-114297142D01*
X124754819Y-114297142D02*
X124802438Y-114201904D01*
X124802438Y-114201904D02*
X124850057Y-114154285D01*
X124850057Y-114154285D02*
X124945295Y-114106666D01*
X124945295Y-114106666D02*
X125088152Y-114106666D01*
X125088152Y-114106666D02*
X125183390Y-114154285D01*
X125183390Y-114154285D02*
X125231009Y-114201904D01*
X125231009Y-114201904D02*
X125278628Y-114297142D01*
X125278628Y-114297142D02*
X125278628Y-114678094D01*
X124754819Y-113201904D02*
X124754819Y-113678094D01*
X124754819Y-113678094D02*
X125231009Y-113725713D01*
X125231009Y-113725713D02*
X125183390Y-113678094D01*
X125183390Y-113678094D02*
X125135771Y-113582856D01*
X125135771Y-113582856D02*
X125135771Y-113344761D01*
X125135771Y-113344761D02*
X125183390Y-113249523D01*
X125183390Y-113249523D02*
X125231009Y-113201904D01*
X125231009Y-113201904D02*
X125326247Y-113154285D01*
X125326247Y-113154285D02*
X125564342Y-113154285D01*
X125564342Y-113154285D02*
X125659580Y-113201904D01*
X125659580Y-113201904D02*
X125707200Y-113249523D01*
X125707200Y-113249523D02*
X125754819Y-113344761D01*
X125754819Y-113344761D02*
X125754819Y-113582856D01*
X125754819Y-113582856D02*
X125707200Y-113678094D01*
X125707200Y-113678094D02*
X125659580Y-113725713D01*
X152604819Y-80642857D02*
X152128628Y-80976190D01*
X152604819Y-81214285D02*
X151604819Y-81214285D01*
X151604819Y-81214285D02*
X151604819Y-80833333D01*
X151604819Y-80833333D02*
X151652438Y-80738095D01*
X151652438Y-80738095D02*
X151700057Y-80690476D01*
X151700057Y-80690476D02*
X151795295Y-80642857D01*
X151795295Y-80642857D02*
X151938152Y-80642857D01*
X151938152Y-80642857D02*
X152033390Y-80690476D01*
X152033390Y-80690476D02*
X152081009Y-80738095D01*
X152081009Y-80738095D02*
X152128628Y-80833333D01*
X152128628Y-80833333D02*
X152128628Y-81214285D01*
X152604819Y-79690476D02*
X152604819Y-80261904D01*
X152604819Y-79976190D02*
X151604819Y-79976190D01*
X151604819Y-79976190D02*
X151747676Y-80071428D01*
X151747676Y-80071428D02*
X151842914Y-80166666D01*
X151842914Y-80166666D02*
X151890533Y-80261904D01*
X152604819Y-79214285D02*
X152604819Y-79023809D01*
X152604819Y-79023809D02*
X152557200Y-78928571D01*
X152557200Y-78928571D02*
X152509580Y-78880952D01*
X152509580Y-78880952D02*
X152366723Y-78785714D01*
X152366723Y-78785714D02*
X152176247Y-78738095D01*
X152176247Y-78738095D02*
X151795295Y-78738095D01*
X151795295Y-78738095D02*
X151700057Y-78785714D01*
X151700057Y-78785714D02*
X151652438Y-78833333D01*
X151652438Y-78833333D02*
X151604819Y-78928571D01*
X151604819Y-78928571D02*
X151604819Y-79119047D01*
X151604819Y-79119047D02*
X151652438Y-79214285D01*
X151652438Y-79214285D02*
X151700057Y-79261904D01*
X151700057Y-79261904D02*
X151795295Y-79309523D01*
X151795295Y-79309523D02*
X152033390Y-79309523D01*
X152033390Y-79309523D02*
X152128628Y-79261904D01*
X152128628Y-79261904D02*
X152176247Y-79214285D01*
X152176247Y-79214285D02*
X152223866Y-79119047D01*
X152223866Y-79119047D02*
X152223866Y-78928571D01*
X152223866Y-78928571D02*
X152176247Y-78833333D01*
X152176247Y-78833333D02*
X152128628Y-78785714D01*
X152128628Y-78785714D02*
X152033390Y-78738095D01*
X132704819Y-74372857D02*
X132228628Y-74706190D01*
X132704819Y-74944285D02*
X131704819Y-74944285D01*
X131704819Y-74944285D02*
X131704819Y-74563333D01*
X131704819Y-74563333D02*
X131752438Y-74468095D01*
X131752438Y-74468095D02*
X131800057Y-74420476D01*
X131800057Y-74420476D02*
X131895295Y-74372857D01*
X131895295Y-74372857D02*
X132038152Y-74372857D01*
X132038152Y-74372857D02*
X132133390Y-74420476D01*
X132133390Y-74420476D02*
X132181009Y-74468095D01*
X132181009Y-74468095D02*
X132228628Y-74563333D01*
X132228628Y-74563333D02*
X132228628Y-74944285D01*
X131800057Y-73991904D02*
X131752438Y-73944285D01*
X131752438Y-73944285D02*
X131704819Y-73849047D01*
X131704819Y-73849047D02*
X131704819Y-73610952D01*
X131704819Y-73610952D02*
X131752438Y-73515714D01*
X131752438Y-73515714D02*
X131800057Y-73468095D01*
X131800057Y-73468095D02*
X131895295Y-73420476D01*
X131895295Y-73420476D02*
X131990533Y-73420476D01*
X131990533Y-73420476D02*
X132133390Y-73468095D01*
X132133390Y-73468095D02*
X132704819Y-74039523D01*
X132704819Y-74039523D02*
X132704819Y-73420476D01*
X131704819Y-73087142D02*
X131704819Y-72468095D01*
X131704819Y-72468095D02*
X132085771Y-72801428D01*
X132085771Y-72801428D02*
X132085771Y-72658571D01*
X132085771Y-72658571D02*
X132133390Y-72563333D01*
X132133390Y-72563333D02*
X132181009Y-72515714D01*
X132181009Y-72515714D02*
X132276247Y-72468095D01*
X132276247Y-72468095D02*
X132514342Y-72468095D01*
X132514342Y-72468095D02*
X132609580Y-72515714D01*
X132609580Y-72515714D02*
X132657200Y-72563333D01*
X132657200Y-72563333D02*
X132704819Y-72658571D01*
X132704819Y-72658571D02*
X132704819Y-72944285D01*
X132704819Y-72944285D02*
X132657200Y-73039523D01*
X132657200Y-73039523D02*
X132609580Y-73087142D01*
X139210057Y-74615238D02*
X139162438Y-74710476D01*
X139162438Y-74710476D02*
X139067200Y-74805714D01*
X139067200Y-74805714D02*
X138924342Y-74948571D01*
X138924342Y-74948571D02*
X138876723Y-75043809D01*
X138876723Y-75043809D02*
X138876723Y-75139047D01*
X139114819Y-75091428D02*
X139067200Y-75186666D01*
X139067200Y-75186666D02*
X138971961Y-75281904D01*
X138971961Y-75281904D02*
X138781485Y-75329523D01*
X138781485Y-75329523D02*
X138448152Y-75329523D01*
X138448152Y-75329523D02*
X138257676Y-75281904D01*
X138257676Y-75281904D02*
X138162438Y-75186666D01*
X138162438Y-75186666D02*
X138114819Y-75091428D01*
X138114819Y-75091428D02*
X138114819Y-74900952D01*
X138114819Y-74900952D02*
X138162438Y-74805714D01*
X138162438Y-74805714D02*
X138257676Y-74710476D01*
X138257676Y-74710476D02*
X138448152Y-74662857D01*
X138448152Y-74662857D02*
X138781485Y-74662857D01*
X138781485Y-74662857D02*
X138971961Y-74710476D01*
X138971961Y-74710476D02*
X139067200Y-74805714D01*
X139067200Y-74805714D02*
X139114819Y-74900952D01*
X139114819Y-74900952D02*
X139114819Y-75091428D01*
X138114819Y-74329523D02*
X138114819Y-73662857D01*
X138114819Y-73662857D02*
X139114819Y-74091428D01*
X126074819Y-100638094D02*
X125074819Y-100638094D01*
X125074819Y-100638094D02*
X125074819Y-100399999D01*
X125074819Y-100399999D02*
X125122438Y-100257142D01*
X125122438Y-100257142D02*
X125217676Y-100161904D01*
X125217676Y-100161904D02*
X125312914Y-100114285D01*
X125312914Y-100114285D02*
X125503390Y-100066666D01*
X125503390Y-100066666D02*
X125646247Y-100066666D01*
X125646247Y-100066666D02*
X125836723Y-100114285D01*
X125836723Y-100114285D02*
X125931961Y-100161904D01*
X125931961Y-100161904D02*
X126027200Y-100257142D01*
X126027200Y-100257142D02*
X126074819Y-100399999D01*
X126074819Y-100399999D02*
X126074819Y-100638094D01*
X125074819Y-99733332D02*
X125074819Y-99114285D01*
X125074819Y-99114285D02*
X125455771Y-99447618D01*
X125455771Y-99447618D02*
X125455771Y-99304761D01*
X125455771Y-99304761D02*
X125503390Y-99209523D01*
X125503390Y-99209523D02*
X125551009Y-99161904D01*
X125551009Y-99161904D02*
X125646247Y-99114285D01*
X125646247Y-99114285D02*
X125884342Y-99114285D01*
X125884342Y-99114285D02*
X125979580Y-99161904D01*
X125979580Y-99161904D02*
X126027200Y-99209523D01*
X126027200Y-99209523D02*
X126074819Y-99304761D01*
X126074819Y-99304761D02*
X126074819Y-99590475D01*
X126074819Y-99590475D02*
X126027200Y-99685713D01*
X126027200Y-99685713D02*
X125979580Y-99733332D01*
X131064819Y-83712857D02*
X130588628Y-84046190D01*
X131064819Y-84284285D02*
X130064819Y-84284285D01*
X130064819Y-84284285D02*
X130064819Y-83903333D01*
X130064819Y-83903333D02*
X130112438Y-83808095D01*
X130112438Y-83808095D02*
X130160057Y-83760476D01*
X130160057Y-83760476D02*
X130255295Y-83712857D01*
X130255295Y-83712857D02*
X130398152Y-83712857D01*
X130398152Y-83712857D02*
X130493390Y-83760476D01*
X130493390Y-83760476D02*
X130541009Y-83808095D01*
X130541009Y-83808095D02*
X130588628Y-83903333D01*
X130588628Y-83903333D02*
X130588628Y-84284285D01*
X130160057Y-83331904D02*
X130112438Y-83284285D01*
X130112438Y-83284285D02*
X130064819Y-83189047D01*
X130064819Y-83189047D02*
X130064819Y-82950952D01*
X130064819Y-82950952D02*
X130112438Y-82855714D01*
X130112438Y-82855714D02*
X130160057Y-82808095D01*
X130160057Y-82808095D02*
X130255295Y-82760476D01*
X130255295Y-82760476D02*
X130350533Y-82760476D01*
X130350533Y-82760476D02*
X130493390Y-82808095D01*
X130493390Y-82808095D02*
X131064819Y-83379523D01*
X131064819Y-83379523D02*
X131064819Y-82760476D01*
X131064819Y-82284285D02*
X131064819Y-82093809D01*
X131064819Y-82093809D02*
X131017200Y-81998571D01*
X131017200Y-81998571D02*
X130969580Y-81950952D01*
X130969580Y-81950952D02*
X130826723Y-81855714D01*
X130826723Y-81855714D02*
X130636247Y-81808095D01*
X130636247Y-81808095D02*
X130255295Y-81808095D01*
X130255295Y-81808095D02*
X130160057Y-81855714D01*
X130160057Y-81855714D02*
X130112438Y-81903333D01*
X130112438Y-81903333D02*
X130064819Y-81998571D01*
X130064819Y-81998571D02*
X130064819Y-82189047D01*
X130064819Y-82189047D02*
X130112438Y-82284285D01*
X130112438Y-82284285D02*
X130160057Y-82331904D01*
X130160057Y-82331904D02*
X130255295Y-82379523D01*
X130255295Y-82379523D02*
X130493390Y-82379523D01*
X130493390Y-82379523D02*
X130588628Y-82331904D01*
X130588628Y-82331904D02*
X130636247Y-82284285D01*
X130636247Y-82284285D02*
X130683866Y-82189047D01*
X130683866Y-82189047D02*
X130683866Y-81998571D01*
X130683866Y-81998571D02*
X130636247Y-81903333D01*
X130636247Y-81903333D02*
X130588628Y-81855714D01*
X130588628Y-81855714D02*
X130493390Y-81808095D01*
X176224819Y-126924523D02*
X176939104Y-126924523D01*
X176939104Y-126924523D02*
X177081961Y-126972142D01*
X177081961Y-126972142D02*
X177177200Y-127067380D01*
X177177200Y-127067380D02*
X177224819Y-127210237D01*
X177224819Y-127210237D02*
X177224819Y-127305475D01*
X176320057Y-126495951D02*
X176272438Y-126448332D01*
X176272438Y-126448332D02*
X176224819Y-126353094D01*
X176224819Y-126353094D02*
X176224819Y-126114999D01*
X176224819Y-126114999D02*
X176272438Y-126019761D01*
X176272438Y-126019761D02*
X176320057Y-125972142D01*
X176320057Y-125972142D02*
X176415295Y-125924523D01*
X176415295Y-125924523D02*
X176510533Y-125924523D01*
X176510533Y-125924523D02*
X176653390Y-125972142D01*
X176653390Y-125972142D02*
X177224819Y-126543570D01*
X177224819Y-126543570D02*
X177224819Y-125924523D01*
X176224819Y-125591189D02*
X176224819Y-124972142D01*
X176224819Y-124972142D02*
X176605771Y-125305475D01*
X176605771Y-125305475D02*
X176605771Y-125162618D01*
X176605771Y-125162618D02*
X176653390Y-125067380D01*
X176653390Y-125067380D02*
X176701009Y-125019761D01*
X176701009Y-125019761D02*
X176796247Y-124972142D01*
X176796247Y-124972142D02*
X177034342Y-124972142D01*
X177034342Y-124972142D02*
X177129580Y-125019761D01*
X177129580Y-125019761D02*
X177177200Y-125067380D01*
X177177200Y-125067380D02*
X177224819Y-125162618D01*
X177224819Y-125162618D02*
X177224819Y-125448332D01*
X177224819Y-125448332D02*
X177177200Y-125543570D01*
X177177200Y-125543570D02*
X177129580Y-125591189D01*
X166024819Y-76032857D02*
X165548628Y-76366190D01*
X166024819Y-76604285D02*
X165024819Y-76604285D01*
X165024819Y-76604285D02*
X165024819Y-76223333D01*
X165024819Y-76223333D02*
X165072438Y-76128095D01*
X165072438Y-76128095D02*
X165120057Y-76080476D01*
X165120057Y-76080476D02*
X165215295Y-76032857D01*
X165215295Y-76032857D02*
X165358152Y-76032857D01*
X165358152Y-76032857D02*
X165453390Y-76080476D01*
X165453390Y-76080476D02*
X165501009Y-76128095D01*
X165501009Y-76128095D02*
X165548628Y-76223333D01*
X165548628Y-76223333D02*
X165548628Y-76604285D01*
X166024819Y-75080476D02*
X166024819Y-75651904D01*
X166024819Y-75366190D02*
X165024819Y-75366190D01*
X165024819Y-75366190D02*
X165167676Y-75461428D01*
X165167676Y-75461428D02*
X165262914Y-75556666D01*
X165262914Y-75556666D02*
X165310533Y-75651904D01*
X165024819Y-74747142D02*
X165024819Y-74128095D01*
X165024819Y-74128095D02*
X165405771Y-74461428D01*
X165405771Y-74461428D02*
X165405771Y-74318571D01*
X165405771Y-74318571D02*
X165453390Y-74223333D01*
X165453390Y-74223333D02*
X165501009Y-74175714D01*
X165501009Y-74175714D02*
X165596247Y-74128095D01*
X165596247Y-74128095D02*
X165834342Y-74128095D01*
X165834342Y-74128095D02*
X165929580Y-74175714D01*
X165929580Y-74175714D02*
X165977200Y-74223333D01*
X165977200Y-74223333D02*
X166024819Y-74318571D01*
X166024819Y-74318571D02*
X166024819Y-74604285D01*
X166024819Y-74604285D02*
X165977200Y-74699523D01*
X165977200Y-74699523D02*
X165929580Y-74747142D01*
X183307142Y-78004819D02*
X182973809Y-77528628D01*
X182735714Y-78004819D02*
X182735714Y-77004819D01*
X182735714Y-77004819D02*
X183116666Y-77004819D01*
X183116666Y-77004819D02*
X183211904Y-77052438D01*
X183211904Y-77052438D02*
X183259523Y-77100057D01*
X183259523Y-77100057D02*
X183307142Y-77195295D01*
X183307142Y-77195295D02*
X183307142Y-77338152D01*
X183307142Y-77338152D02*
X183259523Y-77433390D01*
X183259523Y-77433390D02*
X183211904Y-77481009D01*
X183211904Y-77481009D02*
X183116666Y-77528628D01*
X183116666Y-77528628D02*
X182735714Y-77528628D01*
X184259523Y-78004819D02*
X183688095Y-78004819D01*
X183973809Y-78004819D02*
X183973809Y-77004819D01*
X183973809Y-77004819D02*
X183878571Y-77147676D01*
X183878571Y-77147676D02*
X183783333Y-77242914D01*
X183783333Y-77242914D02*
X183688095Y-77290533D01*
X185211904Y-78004819D02*
X184640476Y-78004819D01*
X184926190Y-78004819D02*
X184926190Y-77004819D01*
X184926190Y-77004819D02*
X184830952Y-77147676D01*
X184830952Y-77147676D02*
X184735714Y-77242914D01*
X184735714Y-77242914D02*
X184640476Y-77290533D01*
X133994819Y-83722857D02*
X133518628Y-84056190D01*
X133994819Y-84294285D02*
X132994819Y-84294285D01*
X132994819Y-84294285D02*
X132994819Y-83913333D01*
X132994819Y-83913333D02*
X133042438Y-83818095D01*
X133042438Y-83818095D02*
X133090057Y-83770476D01*
X133090057Y-83770476D02*
X133185295Y-83722857D01*
X133185295Y-83722857D02*
X133328152Y-83722857D01*
X133328152Y-83722857D02*
X133423390Y-83770476D01*
X133423390Y-83770476D02*
X133471009Y-83818095D01*
X133471009Y-83818095D02*
X133518628Y-83913333D01*
X133518628Y-83913333D02*
X133518628Y-84294285D01*
X133090057Y-83341904D02*
X133042438Y-83294285D01*
X133042438Y-83294285D02*
X132994819Y-83199047D01*
X132994819Y-83199047D02*
X132994819Y-82960952D01*
X132994819Y-82960952D02*
X133042438Y-82865714D01*
X133042438Y-82865714D02*
X133090057Y-82818095D01*
X133090057Y-82818095D02*
X133185295Y-82770476D01*
X133185295Y-82770476D02*
X133280533Y-82770476D01*
X133280533Y-82770476D02*
X133423390Y-82818095D01*
X133423390Y-82818095D02*
X133994819Y-83389523D01*
X133994819Y-83389523D02*
X133994819Y-82770476D01*
X132994819Y-81865714D02*
X132994819Y-82341904D01*
X132994819Y-82341904D02*
X133471009Y-82389523D01*
X133471009Y-82389523D02*
X133423390Y-82341904D01*
X133423390Y-82341904D02*
X133375771Y-82246666D01*
X133375771Y-82246666D02*
X133375771Y-82008571D01*
X133375771Y-82008571D02*
X133423390Y-81913333D01*
X133423390Y-81913333D02*
X133471009Y-81865714D01*
X133471009Y-81865714D02*
X133566247Y-81818095D01*
X133566247Y-81818095D02*
X133804342Y-81818095D01*
X133804342Y-81818095D02*
X133899580Y-81865714D01*
X133899580Y-81865714D02*
X133947200Y-81913333D01*
X133947200Y-81913333D02*
X133994819Y-82008571D01*
X133994819Y-82008571D02*
X133994819Y-82246666D01*
X133994819Y-82246666D02*
X133947200Y-82341904D01*
X133947200Y-82341904D02*
X133899580Y-82389523D01*
X110920833Y-118499580D02*
X110873214Y-118547200D01*
X110873214Y-118547200D02*
X110730357Y-118594819D01*
X110730357Y-118594819D02*
X110635119Y-118594819D01*
X110635119Y-118594819D02*
X110492262Y-118547200D01*
X110492262Y-118547200D02*
X110397024Y-118451961D01*
X110397024Y-118451961D02*
X110349405Y-118356723D01*
X110349405Y-118356723D02*
X110301786Y-118166247D01*
X110301786Y-118166247D02*
X110301786Y-118023390D01*
X110301786Y-118023390D02*
X110349405Y-117832914D01*
X110349405Y-117832914D02*
X110397024Y-117737676D01*
X110397024Y-117737676D02*
X110492262Y-117642438D01*
X110492262Y-117642438D02*
X110635119Y-117594819D01*
X110635119Y-117594819D02*
X110730357Y-117594819D01*
X110730357Y-117594819D02*
X110873214Y-117642438D01*
X110873214Y-117642438D02*
X110920833Y-117690057D01*
X111777976Y-117594819D02*
X111587500Y-117594819D01*
X111587500Y-117594819D02*
X111492262Y-117642438D01*
X111492262Y-117642438D02*
X111444643Y-117690057D01*
X111444643Y-117690057D02*
X111349405Y-117832914D01*
X111349405Y-117832914D02*
X111301786Y-118023390D01*
X111301786Y-118023390D02*
X111301786Y-118404342D01*
X111301786Y-118404342D02*
X111349405Y-118499580D01*
X111349405Y-118499580D02*
X111397024Y-118547200D01*
X111397024Y-118547200D02*
X111492262Y-118594819D01*
X111492262Y-118594819D02*
X111682738Y-118594819D01*
X111682738Y-118594819D02*
X111777976Y-118547200D01*
X111777976Y-118547200D02*
X111825595Y-118499580D01*
X111825595Y-118499580D02*
X111873214Y-118404342D01*
X111873214Y-118404342D02*
X111873214Y-118166247D01*
X111873214Y-118166247D02*
X111825595Y-118071009D01*
X111825595Y-118071009D02*
X111777976Y-118023390D01*
X111777976Y-118023390D02*
X111682738Y-117975771D01*
X111682738Y-117975771D02*
X111492262Y-117975771D01*
X111492262Y-117975771D02*
X111397024Y-118023390D01*
X111397024Y-118023390D02*
X111349405Y-118071009D01*
X111349405Y-118071009D02*
X111301786Y-118166247D01*
X112909819Y-95583333D02*
X113624104Y-95583333D01*
X113624104Y-95583333D02*
X113766961Y-95630952D01*
X113766961Y-95630952D02*
X113862200Y-95726190D01*
X113862200Y-95726190D02*
X113909819Y-95869047D01*
X113909819Y-95869047D02*
X113909819Y-95964285D01*
X113005057Y-95154761D02*
X112957438Y-95107142D01*
X112957438Y-95107142D02*
X112909819Y-95011904D01*
X112909819Y-95011904D02*
X112909819Y-94773809D01*
X112909819Y-94773809D02*
X112957438Y-94678571D01*
X112957438Y-94678571D02*
X113005057Y-94630952D01*
X113005057Y-94630952D02*
X113100295Y-94583333D01*
X113100295Y-94583333D02*
X113195533Y-94583333D01*
X113195533Y-94583333D02*
X113338390Y-94630952D01*
X113338390Y-94630952D02*
X113909819Y-95202380D01*
X113909819Y-95202380D02*
X113909819Y-94583333D01*
X181428095Y-104866819D02*
X181999523Y-104866819D01*
X181713809Y-105866819D02*
X181713809Y-104866819D01*
X182332857Y-105866819D02*
X182332857Y-104866819D01*
X182332857Y-104866819D02*
X182713809Y-104866819D01*
X182713809Y-104866819D02*
X182809047Y-104914438D01*
X182809047Y-104914438D02*
X182856666Y-104962057D01*
X182856666Y-104962057D02*
X182904285Y-105057295D01*
X182904285Y-105057295D02*
X182904285Y-105200152D01*
X182904285Y-105200152D02*
X182856666Y-105295390D01*
X182856666Y-105295390D02*
X182809047Y-105343009D01*
X182809047Y-105343009D02*
X182713809Y-105390628D01*
X182713809Y-105390628D02*
X182332857Y-105390628D01*
X183285238Y-104962057D02*
X183332857Y-104914438D01*
X183332857Y-104914438D02*
X183428095Y-104866819D01*
X183428095Y-104866819D02*
X183666190Y-104866819D01*
X183666190Y-104866819D02*
X183761428Y-104914438D01*
X183761428Y-104914438D02*
X183809047Y-104962057D01*
X183809047Y-104962057D02*
X183856666Y-105057295D01*
X183856666Y-105057295D02*
X183856666Y-105152533D01*
X183856666Y-105152533D02*
X183809047Y-105295390D01*
X183809047Y-105295390D02*
X183237619Y-105866819D01*
X183237619Y-105866819D02*
X183856666Y-105866819D01*
X133484819Y-123489523D02*
X134199104Y-123489523D01*
X134199104Y-123489523D02*
X134341961Y-123537142D01*
X134341961Y-123537142D02*
X134437200Y-123632380D01*
X134437200Y-123632380D02*
X134484819Y-123775237D01*
X134484819Y-123775237D02*
X134484819Y-123870475D01*
X134484819Y-122489523D02*
X134484819Y-123060951D01*
X134484819Y-122775237D02*
X133484819Y-122775237D01*
X133484819Y-122775237D02*
X133627676Y-122870475D01*
X133627676Y-122870475D02*
X133722914Y-122965713D01*
X133722914Y-122965713D02*
X133770533Y-123060951D01*
X133484819Y-121870475D02*
X133484819Y-121775237D01*
X133484819Y-121775237D02*
X133532438Y-121679999D01*
X133532438Y-121679999D02*
X133580057Y-121632380D01*
X133580057Y-121632380D02*
X133675295Y-121584761D01*
X133675295Y-121584761D02*
X133865771Y-121537142D01*
X133865771Y-121537142D02*
X134103866Y-121537142D01*
X134103866Y-121537142D02*
X134294342Y-121584761D01*
X134294342Y-121584761D02*
X134389580Y-121632380D01*
X134389580Y-121632380D02*
X134437200Y-121679999D01*
X134437200Y-121679999D02*
X134484819Y-121775237D01*
X134484819Y-121775237D02*
X134484819Y-121870475D01*
X134484819Y-121870475D02*
X134437200Y-121965713D01*
X134437200Y-121965713D02*
X134389580Y-122013332D01*
X134389580Y-122013332D02*
X134294342Y-122060951D01*
X134294342Y-122060951D02*
X134103866Y-122108570D01*
X134103866Y-122108570D02*
X133865771Y-122108570D01*
X133865771Y-122108570D02*
X133675295Y-122060951D01*
X133675295Y-122060951D02*
X133580057Y-122013332D01*
X133580057Y-122013332D02*
X133532438Y-121965713D01*
X133532438Y-121965713D02*
X133484819Y-121870475D01*
X114034819Y-74069523D02*
X114749104Y-74069523D01*
X114749104Y-74069523D02*
X114891961Y-74117142D01*
X114891961Y-74117142D02*
X114987200Y-74212380D01*
X114987200Y-74212380D02*
X115034819Y-74355237D01*
X115034819Y-74355237D02*
X115034819Y-74450475D01*
X115034819Y-73069523D02*
X115034819Y-73640951D01*
X115034819Y-73355237D02*
X114034819Y-73355237D01*
X114034819Y-73355237D02*
X114177676Y-73450475D01*
X114177676Y-73450475D02*
X114272914Y-73545713D01*
X114272914Y-73545713D02*
X114320533Y-73640951D01*
X114368152Y-72212380D02*
X115034819Y-72212380D01*
X113987200Y-72450475D02*
X114701485Y-72688570D01*
X114701485Y-72688570D02*
X114701485Y-72069523D01*
X151233333Y-97839580D02*
X151185714Y-97887200D01*
X151185714Y-97887200D02*
X151042857Y-97934819D01*
X151042857Y-97934819D02*
X150947619Y-97934819D01*
X150947619Y-97934819D02*
X150804762Y-97887200D01*
X150804762Y-97887200D02*
X150709524Y-97791961D01*
X150709524Y-97791961D02*
X150661905Y-97696723D01*
X150661905Y-97696723D02*
X150614286Y-97506247D01*
X150614286Y-97506247D02*
X150614286Y-97363390D01*
X150614286Y-97363390D02*
X150661905Y-97172914D01*
X150661905Y-97172914D02*
X150709524Y-97077676D01*
X150709524Y-97077676D02*
X150804762Y-96982438D01*
X150804762Y-96982438D02*
X150947619Y-96934819D01*
X150947619Y-96934819D02*
X151042857Y-96934819D01*
X151042857Y-96934819D02*
X151185714Y-96982438D01*
X151185714Y-96982438D02*
X151233333Y-97030057D01*
X151566667Y-96934819D02*
X152233333Y-96934819D01*
X152233333Y-96934819D02*
X151804762Y-97934819D01*
X116754819Y-76808094D02*
X115754819Y-76808094D01*
X115754819Y-76808094D02*
X115754819Y-76569999D01*
X115754819Y-76569999D02*
X115802438Y-76427142D01*
X115802438Y-76427142D02*
X115897676Y-76331904D01*
X115897676Y-76331904D02*
X115992914Y-76284285D01*
X115992914Y-76284285D02*
X116183390Y-76236666D01*
X116183390Y-76236666D02*
X116326247Y-76236666D01*
X116326247Y-76236666D02*
X116516723Y-76284285D01*
X116516723Y-76284285D02*
X116611961Y-76331904D01*
X116611961Y-76331904D02*
X116707200Y-76427142D01*
X116707200Y-76427142D02*
X116754819Y-76569999D01*
X116754819Y-76569999D02*
X116754819Y-76808094D01*
X115754819Y-75331904D02*
X115754819Y-75808094D01*
X115754819Y-75808094D02*
X116231009Y-75855713D01*
X116231009Y-75855713D02*
X116183390Y-75808094D01*
X116183390Y-75808094D02*
X116135771Y-75712856D01*
X116135771Y-75712856D02*
X116135771Y-75474761D01*
X116135771Y-75474761D02*
X116183390Y-75379523D01*
X116183390Y-75379523D02*
X116231009Y-75331904D01*
X116231009Y-75331904D02*
X116326247Y-75284285D01*
X116326247Y-75284285D02*
X116564342Y-75284285D01*
X116564342Y-75284285D02*
X116659580Y-75331904D01*
X116659580Y-75331904D02*
X116707200Y-75379523D01*
X116707200Y-75379523D02*
X116754819Y-75474761D01*
X116754819Y-75474761D02*
X116754819Y-75712856D01*
X116754819Y-75712856D02*
X116707200Y-75808094D01*
X116707200Y-75808094D02*
X116659580Y-75855713D01*
X130004819Y-115283333D02*
X130719104Y-115283333D01*
X130719104Y-115283333D02*
X130861961Y-115330952D01*
X130861961Y-115330952D02*
X130957200Y-115426190D01*
X130957200Y-115426190D02*
X131004819Y-115569047D01*
X131004819Y-115569047D02*
X131004819Y-115664285D01*
X130338152Y-114378571D02*
X131004819Y-114378571D01*
X129957200Y-114616666D02*
X130671485Y-114854761D01*
X130671485Y-114854761D02*
X130671485Y-114235714D01*
X118353095Y-101139819D02*
X118353095Y-101949342D01*
X118353095Y-101949342D02*
X118400714Y-102044580D01*
X118400714Y-102044580D02*
X118448333Y-102092200D01*
X118448333Y-102092200D02*
X118543571Y-102139819D01*
X118543571Y-102139819D02*
X118734047Y-102139819D01*
X118734047Y-102139819D02*
X118829285Y-102092200D01*
X118829285Y-102092200D02*
X118876904Y-102044580D01*
X118876904Y-102044580D02*
X118924523Y-101949342D01*
X118924523Y-101949342D02*
X118924523Y-101139819D01*
X119924523Y-102139819D02*
X119353095Y-102139819D01*
X119638809Y-102139819D02*
X119638809Y-101139819D01*
X119638809Y-101139819D02*
X119543571Y-101282676D01*
X119543571Y-101282676D02*
X119448333Y-101377914D01*
X119448333Y-101377914D02*
X119353095Y-101425533D01*
X181428095Y-109066819D02*
X181999523Y-109066819D01*
X181713809Y-110066819D02*
X181713809Y-109066819D01*
X182332857Y-110066819D02*
X182332857Y-109066819D01*
X182332857Y-109066819D02*
X182713809Y-109066819D01*
X182713809Y-109066819D02*
X182809047Y-109114438D01*
X182809047Y-109114438D02*
X182856666Y-109162057D01*
X182856666Y-109162057D02*
X182904285Y-109257295D01*
X182904285Y-109257295D02*
X182904285Y-109400152D01*
X182904285Y-109400152D02*
X182856666Y-109495390D01*
X182856666Y-109495390D02*
X182809047Y-109543009D01*
X182809047Y-109543009D02*
X182713809Y-109590628D01*
X182713809Y-109590628D02*
X182332857Y-109590628D01*
X183237619Y-109066819D02*
X183856666Y-109066819D01*
X183856666Y-109066819D02*
X183523333Y-109447771D01*
X183523333Y-109447771D02*
X183666190Y-109447771D01*
X183666190Y-109447771D02*
X183761428Y-109495390D01*
X183761428Y-109495390D02*
X183809047Y-109543009D01*
X183809047Y-109543009D02*
X183856666Y-109638247D01*
X183856666Y-109638247D02*
X183856666Y-109876342D01*
X183856666Y-109876342D02*
X183809047Y-109971580D01*
X183809047Y-109971580D02*
X183761428Y-110019200D01*
X183761428Y-110019200D02*
X183666190Y-110066819D01*
X183666190Y-110066819D02*
X183380476Y-110066819D01*
X183380476Y-110066819D02*
X183285238Y-110019200D01*
X183285238Y-110019200D02*
X183237619Y-109971580D01*
X140004819Y-83702857D02*
X139528628Y-84036190D01*
X140004819Y-84274285D02*
X139004819Y-84274285D01*
X139004819Y-84274285D02*
X139004819Y-83893333D01*
X139004819Y-83893333D02*
X139052438Y-83798095D01*
X139052438Y-83798095D02*
X139100057Y-83750476D01*
X139100057Y-83750476D02*
X139195295Y-83702857D01*
X139195295Y-83702857D02*
X139338152Y-83702857D01*
X139338152Y-83702857D02*
X139433390Y-83750476D01*
X139433390Y-83750476D02*
X139481009Y-83798095D01*
X139481009Y-83798095D02*
X139528628Y-83893333D01*
X139528628Y-83893333D02*
X139528628Y-84274285D01*
X139100057Y-83321904D02*
X139052438Y-83274285D01*
X139052438Y-83274285D02*
X139004819Y-83179047D01*
X139004819Y-83179047D02*
X139004819Y-82940952D01*
X139004819Y-82940952D02*
X139052438Y-82845714D01*
X139052438Y-82845714D02*
X139100057Y-82798095D01*
X139100057Y-82798095D02*
X139195295Y-82750476D01*
X139195295Y-82750476D02*
X139290533Y-82750476D01*
X139290533Y-82750476D02*
X139433390Y-82798095D01*
X139433390Y-82798095D02*
X140004819Y-83369523D01*
X140004819Y-83369523D02*
X140004819Y-82750476D01*
X139004819Y-82131428D02*
X139004819Y-82036190D01*
X139004819Y-82036190D02*
X139052438Y-81940952D01*
X139052438Y-81940952D02*
X139100057Y-81893333D01*
X139100057Y-81893333D02*
X139195295Y-81845714D01*
X139195295Y-81845714D02*
X139385771Y-81798095D01*
X139385771Y-81798095D02*
X139623866Y-81798095D01*
X139623866Y-81798095D02*
X139814342Y-81845714D01*
X139814342Y-81845714D02*
X139909580Y-81893333D01*
X139909580Y-81893333D02*
X139957200Y-81940952D01*
X139957200Y-81940952D02*
X140004819Y-82036190D01*
X140004819Y-82036190D02*
X140004819Y-82131428D01*
X140004819Y-82131428D02*
X139957200Y-82226666D01*
X139957200Y-82226666D02*
X139909580Y-82274285D01*
X139909580Y-82274285D02*
X139814342Y-82321904D01*
X139814342Y-82321904D02*
X139623866Y-82369523D01*
X139623866Y-82369523D02*
X139385771Y-82369523D01*
X139385771Y-82369523D02*
X139195295Y-82321904D01*
X139195295Y-82321904D02*
X139100057Y-82274285D01*
X139100057Y-82274285D02*
X139052438Y-82226666D01*
X139052438Y-82226666D02*
X139004819Y-82131428D01*
X150536666Y-71134819D02*
X150536666Y-71849104D01*
X150536666Y-71849104D02*
X150489047Y-71991961D01*
X150489047Y-71991961D02*
X150393809Y-72087200D01*
X150393809Y-72087200D02*
X150250952Y-72134819D01*
X150250952Y-72134819D02*
X150155714Y-72134819D01*
X150917619Y-71134819D02*
X151584285Y-71134819D01*
X151584285Y-71134819D02*
X151155714Y-72134819D01*
X164964761Y-85660057D02*
X164869523Y-85612438D01*
X164869523Y-85612438D02*
X164774285Y-85517200D01*
X164774285Y-85517200D02*
X164631428Y-85374342D01*
X164631428Y-85374342D02*
X164536190Y-85326723D01*
X164536190Y-85326723D02*
X164440952Y-85326723D01*
X164488571Y-85564819D02*
X164393333Y-85517200D01*
X164393333Y-85517200D02*
X164298095Y-85421961D01*
X164298095Y-85421961D02*
X164250476Y-85231485D01*
X164250476Y-85231485D02*
X164250476Y-84898152D01*
X164250476Y-84898152D02*
X164298095Y-84707676D01*
X164298095Y-84707676D02*
X164393333Y-84612438D01*
X164393333Y-84612438D02*
X164488571Y-84564819D01*
X164488571Y-84564819D02*
X164679047Y-84564819D01*
X164679047Y-84564819D02*
X164774285Y-84612438D01*
X164774285Y-84612438D02*
X164869523Y-84707676D01*
X164869523Y-84707676D02*
X164917142Y-84898152D01*
X164917142Y-84898152D02*
X164917142Y-85231485D01*
X164917142Y-85231485D02*
X164869523Y-85421961D01*
X164869523Y-85421961D02*
X164774285Y-85517200D01*
X164774285Y-85517200D02*
X164679047Y-85564819D01*
X164679047Y-85564819D02*
X164488571Y-85564819D01*
X165393333Y-85564819D02*
X165583809Y-85564819D01*
X165583809Y-85564819D02*
X165679047Y-85517200D01*
X165679047Y-85517200D02*
X165726666Y-85469580D01*
X165726666Y-85469580D02*
X165821904Y-85326723D01*
X165821904Y-85326723D02*
X165869523Y-85136247D01*
X165869523Y-85136247D02*
X165869523Y-84755295D01*
X165869523Y-84755295D02*
X165821904Y-84660057D01*
X165821904Y-84660057D02*
X165774285Y-84612438D01*
X165774285Y-84612438D02*
X165679047Y-84564819D01*
X165679047Y-84564819D02*
X165488571Y-84564819D01*
X165488571Y-84564819D02*
X165393333Y-84612438D01*
X165393333Y-84612438D02*
X165345714Y-84660057D01*
X165345714Y-84660057D02*
X165298095Y-84755295D01*
X165298095Y-84755295D02*
X165298095Y-84993390D01*
X165298095Y-84993390D02*
X165345714Y-85088628D01*
X165345714Y-85088628D02*
X165393333Y-85136247D01*
X165393333Y-85136247D02*
X165488571Y-85183866D01*
X165488571Y-85183866D02*
X165679047Y-85183866D01*
X165679047Y-85183866D02*
X165774285Y-85136247D01*
X165774285Y-85136247D02*
X165821904Y-85088628D01*
X165821904Y-85088628D02*
X165869523Y-84993390D01*
X127770476Y-71064819D02*
X127770476Y-71779104D01*
X127770476Y-71779104D02*
X127722857Y-71921961D01*
X127722857Y-71921961D02*
X127627619Y-72017200D01*
X127627619Y-72017200D02*
X127484762Y-72064819D01*
X127484762Y-72064819D02*
X127389524Y-72064819D01*
X128770476Y-72064819D02*
X128199048Y-72064819D01*
X128484762Y-72064819D02*
X128484762Y-71064819D01*
X128484762Y-71064819D02*
X128389524Y-71207676D01*
X128389524Y-71207676D02*
X128294286Y-71302914D01*
X128294286Y-71302914D02*
X128199048Y-71350533D01*
X129722857Y-72064819D02*
X129151429Y-72064819D01*
X129437143Y-72064819D02*
X129437143Y-71064819D01*
X129437143Y-71064819D02*
X129341905Y-71207676D01*
X129341905Y-71207676D02*
X129246667Y-71302914D01*
X129246667Y-71302914D02*
X129151429Y-71350533D01*
X138274819Y-123509523D02*
X138989104Y-123509523D01*
X138989104Y-123509523D02*
X139131961Y-123557142D01*
X139131961Y-123557142D02*
X139227200Y-123652380D01*
X139227200Y-123652380D02*
X139274819Y-123795237D01*
X139274819Y-123795237D02*
X139274819Y-123890475D01*
X139274819Y-122509523D02*
X139274819Y-123080951D01*
X139274819Y-122795237D02*
X138274819Y-122795237D01*
X138274819Y-122795237D02*
X138417676Y-122890475D01*
X138417676Y-122890475D02*
X138512914Y-122985713D01*
X138512914Y-122985713D02*
X138560533Y-123080951D01*
X138274819Y-121604761D02*
X138274819Y-122080951D01*
X138274819Y-122080951D02*
X138751009Y-122128570D01*
X138751009Y-122128570D02*
X138703390Y-122080951D01*
X138703390Y-122080951D02*
X138655771Y-121985713D01*
X138655771Y-121985713D02*
X138655771Y-121747618D01*
X138655771Y-121747618D02*
X138703390Y-121652380D01*
X138703390Y-121652380D02*
X138751009Y-121604761D01*
X138751009Y-121604761D02*
X138846247Y-121557142D01*
X138846247Y-121557142D02*
X139084342Y-121557142D01*
X139084342Y-121557142D02*
X139179580Y-121604761D01*
X139179580Y-121604761D02*
X139227200Y-121652380D01*
X139227200Y-121652380D02*
X139274819Y-121747618D01*
X139274819Y-121747618D02*
X139274819Y-121985713D01*
X139274819Y-121985713D02*
X139227200Y-122080951D01*
X139227200Y-122080951D02*
X139179580Y-122128570D01*
X126673333Y-96254819D02*
X126340000Y-95778628D01*
X126101905Y-96254819D02*
X126101905Y-95254819D01*
X126101905Y-95254819D02*
X126482857Y-95254819D01*
X126482857Y-95254819D02*
X126578095Y-95302438D01*
X126578095Y-95302438D02*
X126625714Y-95350057D01*
X126625714Y-95350057D02*
X126673333Y-95445295D01*
X126673333Y-95445295D02*
X126673333Y-95588152D01*
X126673333Y-95588152D02*
X126625714Y-95683390D01*
X126625714Y-95683390D02*
X126578095Y-95731009D01*
X126578095Y-95731009D02*
X126482857Y-95778628D01*
X126482857Y-95778628D02*
X126101905Y-95778628D01*
X127006667Y-95254819D02*
X127625714Y-95254819D01*
X127625714Y-95254819D02*
X127292381Y-95635771D01*
X127292381Y-95635771D02*
X127435238Y-95635771D01*
X127435238Y-95635771D02*
X127530476Y-95683390D01*
X127530476Y-95683390D02*
X127578095Y-95731009D01*
X127578095Y-95731009D02*
X127625714Y-95826247D01*
X127625714Y-95826247D02*
X127625714Y-96064342D01*
X127625714Y-96064342D02*
X127578095Y-96159580D01*
X127578095Y-96159580D02*
X127530476Y-96207200D01*
X127530476Y-96207200D02*
X127435238Y-96254819D01*
X127435238Y-96254819D02*
X127149524Y-96254819D01*
X127149524Y-96254819D02*
X127054286Y-96207200D01*
X127054286Y-96207200D02*
X127006667Y-96159580D01*
X147638095Y-110574819D02*
X147638095Y-111384342D01*
X147638095Y-111384342D02*
X147685714Y-111479580D01*
X147685714Y-111479580D02*
X147733333Y-111527200D01*
X147733333Y-111527200D02*
X147828571Y-111574819D01*
X147828571Y-111574819D02*
X148019047Y-111574819D01*
X148019047Y-111574819D02*
X148114285Y-111527200D01*
X148114285Y-111527200D02*
X148161904Y-111479580D01*
X148161904Y-111479580D02*
X148209523Y-111384342D01*
X148209523Y-111384342D02*
X148209523Y-110574819D01*
X148590476Y-110574819D02*
X149257142Y-110574819D01*
X149257142Y-110574819D02*
X148828571Y-111574819D01*
X114053333Y-85399580D02*
X114005714Y-85447200D01*
X114005714Y-85447200D02*
X113862857Y-85494819D01*
X113862857Y-85494819D02*
X113767619Y-85494819D01*
X113767619Y-85494819D02*
X113624762Y-85447200D01*
X113624762Y-85447200D02*
X113529524Y-85351961D01*
X113529524Y-85351961D02*
X113481905Y-85256723D01*
X113481905Y-85256723D02*
X113434286Y-85066247D01*
X113434286Y-85066247D02*
X113434286Y-84923390D01*
X113434286Y-84923390D02*
X113481905Y-84732914D01*
X113481905Y-84732914D02*
X113529524Y-84637676D01*
X113529524Y-84637676D02*
X113624762Y-84542438D01*
X113624762Y-84542438D02*
X113767619Y-84494819D01*
X113767619Y-84494819D02*
X113862857Y-84494819D01*
X113862857Y-84494819D02*
X114005714Y-84542438D01*
X114005714Y-84542438D02*
X114053333Y-84590057D01*
X115005714Y-85494819D02*
X114434286Y-85494819D01*
X114720000Y-85494819D02*
X114720000Y-84494819D01*
X114720000Y-84494819D02*
X114624762Y-84637676D01*
X114624762Y-84637676D02*
X114529524Y-84732914D01*
X114529524Y-84732914D02*
X114434286Y-84780533D01*
X117493333Y-99529580D02*
X117445714Y-99577200D01*
X117445714Y-99577200D02*
X117302857Y-99624819D01*
X117302857Y-99624819D02*
X117207619Y-99624819D01*
X117207619Y-99624819D02*
X117064762Y-99577200D01*
X117064762Y-99577200D02*
X116969524Y-99481961D01*
X116969524Y-99481961D02*
X116921905Y-99386723D01*
X116921905Y-99386723D02*
X116874286Y-99196247D01*
X116874286Y-99196247D02*
X116874286Y-99053390D01*
X116874286Y-99053390D02*
X116921905Y-98862914D01*
X116921905Y-98862914D02*
X116969524Y-98767676D01*
X116969524Y-98767676D02*
X117064762Y-98672438D01*
X117064762Y-98672438D02*
X117207619Y-98624819D01*
X117207619Y-98624819D02*
X117302857Y-98624819D01*
X117302857Y-98624819D02*
X117445714Y-98672438D01*
X117445714Y-98672438D02*
X117493333Y-98720057D01*
X117826667Y-98624819D02*
X118445714Y-98624819D01*
X118445714Y-98624819D02*
X118112381Y-99005771D01*
X118112381Y-99005771D02*
X118255238Y-99005771D01*
X118255238Y-99005771D02*
X118350476Y-99053390D01*
X118350476Y-99053390D02*
X118398095Y-99101009D01*
X118398095Y-99101009D02*
X118445714Y-99196247D01*
X118445714Y-99196247D02*
X118445714Y-99434342D01*
X118445714Y-99434342D02*
X118398095Y-99529580D01*
X118398095Y-99529580D02*
X118350476Y-99577200D01*
X118350476Y-99577200D02*
X118255238Y-99624819D01*
X118255238Y-99624819D02*
X117969524Y-99624819D01*
X117969524Y-99624819D02*
X117874286Y-99577200D01*
X117874286Y-99577200D02*
X117826667Y-99529580D01*
X173664761Y-112525057D02*
X173569523Y-112477438D01*
X173569523Y-112477438D02*
X173474285Y-112382200D01*
X173474285Y-112382200D02*
X173331428Y-112239342D01*
X173331428Y-112239342D02*
X173236190Y-112191723D01*
X173236190Y-112191723D02*
X173140952Y-112191723D01*
X173188571Y-112429819D02*
X173093333Y-112382200D01*
X173093333Y-112382200D02*
X172998095Y-112286961D01*
X172998095Y-112286961D02*
X172950476Y-112096485D01*
X172950476Y-112096485D02*
X172950476Y-111763152D01*
X172950476Y-111763152D02*
X172998095Y-111572676D01*
X172998095Y-111572676D02*
X173093333Y-111477438D01*
X173093333Y-111477438D02*
X173188571Y-111429819D01*
X173188571Y-111429819D02*
X173379047Y-111429819D01*
X173379047Y-111429819D02*
X173474285Y-111477438D01*
X173474285Y-111477438D02*
X173569523Y-111572676D01*
X173569523Y-111572676D02*
X173617142Y-111763152D01*
X173617142Y-111763152D02*
X173617142Y-112096485D01*
X173617142Y-112096485D02*
X173569523Y-112286961D01*
X173569523Y-112286961D02*
X173474285Y-112382200D01*
X173474285Y-112382200D02*
X173379047Y-112429819D01*
X173379047Y-112429819D02*
X173188571Y-112429819D01*
X174569523Y-112429819D02*
X173998095Y-112429819D01*
X174283809Y-112429819D02*
X174283809Y-111429819D01*
X174283809Y-111429819D02*
X174188571Y-111572676D01*
X174188571Y-111572676D02*
X174093333Y-111667914D01*
X174093333Y-111667914D02*
X173998095Y-111715533D01*
X137014819Y-83742857D02*
X136538628Y-84076190D01*
X137014819Y-84314285D02*
X136014819Y-84314285D01*
X136014819Y-84314285D02*
X136014819Y-83933333D01*
X136014819Y-83933333D02*
X136062438Y-83838095D01*
X136062438Y-83838095D02*
X136110057Y-83790476D01*
X136110057Y-83790476D02*
X136205295Y-83742857D01*
X136205295Y-83742857D02*
X136348152Y-83742857D01*
X136348152Y-83742857D02*
X136443390Y-83790476D01*
X136443390Y-83790476D02*
X136491009Y-83838095D01*
X136491009Y-83838095D02*
X136538628Y-83933333D01*
X136538628Y-83933333D02*
X136538628Y-84314285D01*
X136110057Y-83361904D02*
X136062438Y-83314285D01*
X136062438Y-83314285D02*
X136014819Y-83219047D01*
X136014819Y-83219047D02*
X136014819Y-82980952D01*
X136014819Y-82980952D02*
X136062438Y-82885714D01*
X136062438Y-82885714D02*
X136110057Y-82838095D01*
X136110057Y-82838095D02*
X136205295Y-82790476D01*
X136205295Y-82790476D02*
X136300533Y-82790476D01*
X136300533Y-82790476D02*
X136443390Y-82838095D01*
X136443390Y-82838095D02*
X137014819Y-83409523D01*
X137014819Y-83409523D02*
X137014819Y-82790476D01*
X136348152Y-81933333D02*
X137014819Y-81933333D01*
X135967200Y-82171428D02*
X136681485Y-82409523D01*
X136681485Y-82409523D02*
X136681485Y-81790476D01*
X152634819Y-123529523D02*
X153349104Y-123529523D01*
X153349104Y-123529523D02*
X153491961Y-123577142D01*
X153491961Y-123577142D02*
X153587200Y-123672380D01*
X153587200Y-123672380D02*
X153634819Y-123815237D01*
X153634819Y-123815237D02*
X153634819Y-123910475D01*
X153634819Y-122529523D02*
X153634819Y-123100951D01*
X153634819Y-122815237D02*
X152634819Y-122815237D01*
X152634819Y-122815237D02*
X152777676Y-122910475D01*
X152777676Y-122910475D02*
X152872914Y-123005713D01*
X152872914Y-123005713D02*
X152920533Y-123100951D01*
X153063390Y-121958094D02*
X153015771Y-122053332D01*
X153015771Y-122053332D02*
X152968152Y-122100951D01*
X152968152Y-122100951D02*
X152872914Y-122148570D01*
X152872914Y-122148570D02*
X152825295Y-122148570D01*
X152825295Y-122148570D02*
X152730057Y-122100951D01*
X152730057Y-122100951D02*
X152682438Y-122053332D01*
X152682438Y-122053332D02*
X152634819Y-121958094D01*
X152634819Y-121958094D02*
X152634819Y-121767618D01*
X152634819Y-121767618D02*
X152682438Y-121672380D01*
X152682438Y-121672380D02*
X152730057Y-121624761D01*
X152730057Y-121624761D02*
X152825295Y-121577142D01*
X152825295Y-121577142D02*
X152872914Y-121577142D01*
X152872914Y-121577142D02*
X152968152Y-121624761D01*
X152968152Y-121624761D02*
X153015771Y-121672380D01*
X153015771Y-121672380D02*
X153063390Y-121767618D01*
X153063390Y-121767618D02*
X153063390Y-121958094D01*
X153063390Y-121958094D02*
X153111009Y-122053332D01*
X153111009Y-122053332D02*
X153158628Y-122100951D01*
X153158628Y-122100951D02*
X153253866Y-122148570D01*
X153253866Y-122148570D02*
X153444342Y-122148570D01*
X153444342Y-122148570D02*
X153539580Y-122100951D01*
X153539580Y-122100951D02*
X153587200Y-122053332D01*
X153587200Y-122053332D02*
X153634819Y-121958094D01*
X153634819Y-121958094D02*
X153634819Y-121767618D01*
X153634819Y-121767618D02*
X153587200Y-121672380D01*
X153587200Y-121672380D02*
X153539580Y-121624761D01*
X153539580Y-121624761D02*
X153444342Y-121577142D01*
X153444342Y-121577142D02*
X153253866Y-121577142D01*
X153253866Y-121577142D02*
X153158628Y-121624761D01*
X153158628Y-121624761D02*
X153111009Y-121672380D01*
X153111009Y-121672380D02*
X153063390Y-121767618D01*
X126683333Y-95064819D02*
X126350000Y-94588628D01*
X126111905Y-95064819D02*
X126111905Y-94064819D01*
X126111905Y-94064819D02*
X126492857Y-94064819D01*
X126492857Y-94064819D02*
X126588095Y-94112438D01*
X126588095Y-94112438D02*
X126635714Y-94160057D01*
X126635714Y-94160057D02*
X126683333Y-94255295D01*
X126683333Y-94255295D02*
X126683333Y-94398152D01*
X126683333Y-94398152D02*
X126635714Y-94493390D01*
X126635714Y-94493390D02*
X126588095Y-94541009D01*
X126588095Y-94541009D02*
X126492857Y-94588628D01*
X126492857Y-94588628D02*
X126111905Y-94588628D01*
X127540476Y-94398152D02*
X127540476Y-95064819D01*
X127302381Y-94017200D02*
X127064286Y-94731485D01*
X127064286Y-94731485D02*
X127683333Y-94731485D01*
X140926666Y-71094819D02*
X140926666Y-71809104D01*
X140926666Y-71809104D02*
X140879047Y-71951961D01*
X140879047Y-71951961D02*
X140783809Y-72047200D01*
X140783809Y-72047200D02*
X140640952Y-72094819D01*
X140640952Y-72094819D02*
X140545714Y-72094819D01*
X141450476Y-72094819D02*
X141640952Y-72094819D01*
X141640952Y-72094819D02*
X141736190Y-72047200D01*
X141736190Y-72047200D02*
X141783809Y-71999580D01*
X141783809Y-71999580D02*
X141879047Y-71856723D01*
X141879047Y-71856723D02*
X141926666Y-71666247D01*
X141926666Y-71666247D02*
X141926666Y-71285295D01*
X141926666Y-71285295D02*
X141879047Y-71190057D01*
X141879047Y-71190057D02*
X141831428Y-71142438D01*
X141831428Y-71142438D02*
X141736190Y-71094819D01*
X141736190Y-71094819D02*
X141545714Y-71094819D01*
X141545714Y-71094819D02*
X141450476Y-71142438D01*
X141450476Y-71142438D02*
X141402857Y-71190057D01*
X141402857Y-71190057D02*
X141355238Y-71285295D01*
X141355238Y-71285295D02*
X141355238Y-71523390D01*
X141355238Y-71523390D02*
X141402857Y-71618628D01*
X141402857Y-71618628D02*
X141450476Y-71666247D01*
X141450476Y-71666247D02*
X141545714Y-71713866D01*
X141545714Y-71713866D02*
X141736190Y-71713866D01*
X141736190Y-71713866D02*
X141831428Y-71666247D01*
X141831428Y-71666247D02*
X141879047Y-71618628D01*
X141879047Y-71618628D02*
X141926666Y-71523390D01*
X137760057Y-74585238D02*
X137712438Y-74680476D01*
X137712438Y-74680476D02*
X137617200Y-74775714D01*
X137617200Y-74775714D02*
X137474342Y-74918571D01*
X137474342Y-74918571D02*
X137426723Y-75013809D01*
X137426723Y-75013809D02*
X137426723Y-75109047D01*
X137664819Y-75061428D02*
X137617200Y-75156666D01*
X137617200Y-75156666D02*
X137521961Y-75251904D01*
X137521961Y-75251904D02*
X137331485Y-75299523D01*
X137331485Y-75299523D02*
X136998152Y-75299523D01*
X136998152Y-75299523D02*
X136807676Y-75251904D01*
X136807676Y-75251904D02*
X136712438Y-75156666D01*
X136712438Y-75156666D02*
X136664819Y-75061428D01*
X136664819Y-75061428D02*
X136664819Y-74870952D01*
X136664819Y-74870952D02*
X136712438Y-74775714D01*
X136712438Y-74775714D02*
X136807676Y-74680476D01*
X136807676Y-74680476D02*
X136998152Y-74632857D01*
X136998152Y-74632857D02*
X137331485Y-74632857D01*
X137331485Y-74632857D02*
X137521961Y-74680476D01*
X137521961Y-74680476D02*
X137617200Y-74775714D01*
X137617200Y-74775714D02*
X137664819Y-74870952D01*
X137664819Y-74870952D02*
X137664819Y-75061428D01*
X136664819Y-73775714D02*
X136664819Y-73966190D01*
X136664819Y-73966190D02*
X136712438Y-74061428D01*
X136712438Y-74061428D02*
X136760057Y-74109047D01*
X136760057Y-74109047D02*
X136902914Y-74204285D01*
X136902914Y-74204285D02*
X137093390Y-74251904D01*
X137093390Y-74251904D02*
X137474342Y-74251904D01*
X137474342Y-74251904D02*
X137569580Y-74204285D01*
X137569580Y-74204285D02*
X137617200Y-74156666D01*
X137617200Y-74156666D02*
X137664819Y-74061428D01*
X137664819Y-74061428D02*
X137664819Y-73870952D01*
X137664819Y-73870952D02*
X137617200Y-73775714D01*
X137617200Y-73775714D02*
X137569580Y-73728095D01*
X137569580Y-73728095D02*
X137474342Y-73680476D01*
X137474342Y-73680476D02*
X137236247Y-73680476D01*
X137236247Y-73680476D02*
X137141009Y-73728095D01*
X137141009Y-73728095D02*
X137093390Y-73775714D01*
X137093390Y-73775714D02*
X137045771Y-73870952D01*
X137045771Y-73870952D02*
X137045771Y-74061428D01*
X137045771Y-74061428D02*
X137093390Y-74156666D01*
X137093390Y-74156666D02*
X137141009Y-74204285D01*
X137141009Y-74204285D02*
X137236247Y-74251904D01*
X165634761Y-111700057D02*
X165539523Y-111652438D01*
X165539523Y-111652438D02*
X165444285Y-111557200D01*
X165444285Y-111557200D02*
X165301428Y-111414342D01*
X165301428Y-111414342D02*
X165206190Y-111366723D01*
X165206190Y-111366723D02*
X165110952Y-111366723D01*
X165158571Y-111604819D02*
X165063333Y-111557200D01*
X165063333Y-111557200D02*
X164968095Y-111461961D01*
X164968095Y-111461961D02*
X164920476Y-111271485D01*
X164920476Y-111271485D02*
X164920476Y-110938152D01*
X164920476Y-110938152D02*
X164968095Y-110747676D01*
X164968095Y-110747676D02*
X165063333Y-110652438D01*
X165063333Y-110652438D02*
X165158571Y-110604819D01*
X165158571Y-110604819D02*
X165349047Y-110604819D01*
X165349047Y-110604819D02*
X165444285Y-110652438D01*
X165444285Y-110652438D02*
X165539523Y-110747676D01*
X165539523Y-110747676D02*
X165587142Y-110938152D01*
X165587142Y-110938152D02*
X165587142Y-111271485D01*
X165587142Y-111271485D02*
X165539523Y-111461961D01*
X165539523Y-111461961D02*
X165444285Y-111557200D01*
X165444285Y-111557200D02*
X165349047Y-111604819D01*
X165349047Y-111604819D02*
X165158571Y-111604819D01*
X165968095Y-110700057D02*
X166015714Y-110652438D01*
X166015714Y-110652438D02*
X166110952Y-110604819D01*
X166110952Y-110604819D02*
X166349047Y-110604819D01*
X166349047Y-110604819D02*
X166444285Y-110652438D01*
X166444285Y-110652438D02*
X166491904Y-110700057D01*
X166491904Y-110700057D02*
X166539523Y-110795295D01*
X166539523Y-110795295D02*
X166539523Y-110890533D01*
X166539523Y-110890533D02*
X166491904Y-111033390D01*
X166491904Y-111033390D02*
X165920476Y-111604819D01*
X165920476Y-111604819D02*
X166539523Y-111604819D01*
X159204819Y-76042857D02*
X158728628Y-76376190D01*
X159204819Y-76614285D02*
X158204819Y-76614285D01*
X158204819Y-76614285D02*
X158204819Y-76233333D01*
X158204819Y-76233333D02*
X158252438Y-76138095D01*
X158252438Y-76138095D02*
X158300057Y-76090476D01*
X158300057Y-76090476D02*
X158395295Y-76042857D01*
X158395295Y-76042857D02*
X158538152Y-76042857D01*
X158538152Y-76042857D02*
X158633390Y-76090476D01*
X158633390Y-76090476D02*
X158681009Y-76138095D01*
X158681009Y-76138095D02*
X158728628Y-76233333D01*
X158728628Y-76233333D02*
X158728628Y-76614285D01*
X159204819Y-75090476D02*
X159204819Y-75661904D01*
X159204819Y-75376190D02*
X158204819Y-75376190D01*
X158204819Y-75376190D02*
X158347676Y-75471428D01*
X158347676Y-75471428D02*
X158442914Y-75566666D01*
X158442914Y-75566666D02*
X158490533Y-75661904D01*
X158204819Y-74233333D02*
X158204819Y-74423809D01*
X158204819Y-74423809D02*
X158252438Y-74519047D01*
X158252438Y-74519047D02*
X158300057Y-74566666D01*
X158300057Y-74566666D02*
X158442914Y-74661904D01*
X158442914Y-74661904D02*
X158633390Y-74709523D01*
X158633390Y-74709523D02*
X159014342Y-74709523D01*
X159014342Y-74709523D02*
X159109580Y-74661904D01*
X159109580Y-74661904D02*
X159157200Y-74614285D01*
X159157200Y-74614285D02*
X159204819Y-74519047D01*
X159204819Y-74519047D02*
X159204819Y-74328571D01*
X159204819Y-74328571D02*
X159157200Y-74233333D01*
X159157200Y-74233333D02*
X159109580Y-74185714D01*
X159109580Y-74185714D02*
X159014342Y-74138095D01*
X159014342Y-74138095D02*
X158776247Y-74138095D01*
X158776247Y-74138095D02*
X158681009Y-74185714D01*
X158681009Y-74185714D02*
X158633390Y-74233333D01*
X158633390Y-74233333D02*
X158585771Y-74328571D01*
X158585771Y-74328571D02*
X158585771Y-74519047D01*
X158585771Y-74519047D02*
X158633390Y-74614285D01*
X158633390Y-74614285D02*
X158681009Y-74661904D01*
X158681009Y-74661904D02*
X158776247Y-74709523D01*
X183307142Y-82004819D02*
X182973809Y-81528628D01*
X182735714Y-82004819D02*
X182735714Y-81004819D01*
X182735714Y-81004819D02*
X183116666Y-81004819D01*
X183116666Y-81004819D02*
X183211904Y-81052438D01*
X183211904Y-81052438D02*
X183259523Y-81100057D01*
X183259523Y-81100057D02*
X183307142Y-81195295D01*
X183307142Y-81195295D02*
X183307142Y-81338152D01*
X183307142Y-81338152D02*
X183259523Y-81433390D01*
X183259523Y-81433390D02*
X183211904Y-81481009D01*
X183211904Y-81481009D02*
X183116666Y-81528628D01*
X183116666Y-81528628D02*
X182735714Y-81528628D01*
X184259523Y-82004819D02*
X183688095Y-82004819D01*
X183973809Y-82004819D02*
X183973809Y-81004819D01*
X183973809Y-81004819D02*
X183878571Y-81147676D01*
X183878571Y-81147676D02*
X183783333Y-81242914D01*
X183783333Y-81242914D02*
X183688095Y-81290533D01*
X184640476Y-81100057D02*
X184688095Y-81052438D01*
X184688095Y-81052438D02*
X184783333Y-81004819D01*
X184783333Y-81004819D02*
X185021428Y-81004819D01*
X185021428Y-81004819D02*
X185116666Y-81052438D01*
X185116666Y-81052438D02*
X185164285Y-81100057D01*
X185164285Y-81100057D02*
X185211904Y-81195295D01*
X185211904Y-81195295D02*
X185211904Y-81290533D01*
X185211904Y-81290533D02*
X185164285Y-81433390D01*
X185164285Y-81433390D02*
X184592857Y-82004819D01*
X184592857Y-82004819D02*
X185211904Y-82004819D01*
X163824819Y-76032857D02*
X163348628Y-76366190D01*
X163824819Y-76604285D02*
X162824819Y-76604285D01*
X162824819Y-76604285D02*
X162824819Y-76223333D01*
X162824819Y-76223333D02*
X162872438Y-76128095D01*
X162872438Y-76128095D02*
X162920057Y-76080476D01*
X162920057Y-76080476D02*
X163015295Y-76032857D01*
X163015295Y-76032857D02*
X163158152Y-76032857D01*
X163158152Y-76032857D02*
X163253390Y-76080476D01*
X163253390Y-76080476D02*
X163301009Y-76128095D01*
X163301009Y-76128095D02*
X163348628Y-76223333D01*
X163348628Y-76223333D02*
X163348628Y-76604285D01*
X163824819Y-75080476D02*
X163824819Y-75651904D01*
X163824819Y-75366190D02*
X162824819Y-75366190D01*
X162824819Y-75366190D02*
X162967676Y-75461428D01*
X162967676Y-75461428D02*
X163062914Y-75556666D01*
X163062914Y-75556666D02*
X163110533Y-75651904D01*
X162824819Y-74747142D02*
X162824819Y-74080476D01*
X162824819Y-74080476D02*
X163824819Y-74509047D01*
X157084819Y-76042857D02*
X156608628Y-76376190D01*
X157084819Y-76614285D02*
X156084819Y-76614285D01*
X156084819Y-76614285D02*
X156084819Y-76233333D01*
X156084819Y-76233333D02*
X156132438Y-76138095D01*
X156132438Y-76138095D02*
X156180057Y-76090476D01*
X156180057Y-76090476D02*
X156275295Y-76042857D01*
X156275295Y-76042857D02*
X156418152Y-76042857D01*
X156418152Y-76042857D02*
X156513390Y-76090476D01*
X156513390Y-76090476D02*
X156561009Y-76138095D01*
X156561009Y-76138095D02*
X156608628Y-76233333D01*
X156608628Y-76233333D02*
X156608628Y-76614285D01*
X157084819Y-75090476D02*
X157084819Y-75661904D01*
X157084819Y-75376190D02*
X156084819Y-75376190D01*
X156084819Y-75376190D02*
X156227676Y-75471428D01*
X156227676Y-75471428D02*
X156322914Y-75566666D01*
X156322914Y-75566666D02*
X156370533Y-75661904D01*
X156084819Y-74185714D02*
X156084819Y-74661904D01*
X156084819Y-74661904D02*
X156561009Y-74709523D01*
X156561009Y-74709523D02*
X156513390Y-74661904D01*
X156513390Y-74661904D02*
X156465771Y-74566666D01*
X156465771Y-74566666D02*
X156465771Y-74328571D01*
X156465771Y-74328571D02*
X156513390Y-74233333D01*
X156513390Y-74233333D02*
X156561009Y-74185714D01*
X156561009Y-74185714D02*
X156656247Y-74138095D01*
X156656247Y-74138095D02*
X156894342Y-74138095D01*
X156894342Y-74138095D02*
X156989580Y-74185714D01*
X156989580Y-74185714D02*
X157037200Y-74233333D01*
X157037200Y-74233333D02*
X157084819Y-74328571D01*
X157084819Y-74328571D02*
X157084819Y-74566666D01*
X157084819Y-74566666D02*
X157037200Y-74661904D01*
X157037200Y-74661904D02*
X156989580Y-74709523D01*
X163028095Y-77079819D02*
X163028095Y-77889342D01*
X163028095Y-77889342D02*
X163075714Y-77984580D01*
X163075714Y-77984580D02*
X163123333Y-78032200D01*
X163123333Y-78032200D02*
X163218571Y-78079819D01*
X163218571Y-78079819D02*
X163409047Y-78079819D01*
X163409047Y-78079819D02*
X163504285Y-78032200D01*
X163504285Y-78032200D02*
X163551904Y-77984580D01*
X163551904Y-77984580D02*
X163599523Y-77889342D01*
X163599523Y-77889342D02*
X163599523Y-77079819D01*
X164551904Y-77079819D02*
X164075714Y-77079819D01*
X164075714Y-77079819D02*
X164028095Y-77556009D01*
X164028095Y-77556009D02*
X164075714Y-77508390D01*
X164075714Y-77508390D02*
X164170952Y-77460771D01*
X164170952Y-77460771D02*
X164409047Y-77460771D01*
X164409047Y-77460771D02*
X164504285Y-77508390D01*
X164504285Y-77508390D02*
X164551904Y-77556009D01*
X164551904Y-77556009D02*
X164599523Y-77651247D01*
X164599523Y-77651247D02*
X164599523Y-77889342D01*
X164599523Y-77889342D02*
X164551904Y-77984580D01*
X164551904Y-77984580D02*
X164504285Y-78032200D01*
X164504285Y-78032200D02*
X164409047Y-78079819D01*
X164409047Y-78079819D02*
X164170952Y-78079819D01*
X164170952Y-78079819D02*
X164075714Y-78032200D01*
X164075714Y-78032200D02*
X164028095Y-77984580D01*
X159326666Y-71054819D02*
X159326666Y-71769104D01*
X159326666Y-71769104D02*
X159279047Y-71911961D01*
X159279047Y-71911961D02*
X159183809Y-72007200D01*
X159183809Y-72007200D02*
X159040952Y-72054819D01*
X159040952Y-72054819D02*
X158945714Y-72054819D01*
X160279047Y-71054819D02*
X159802857Y-71054819D01*
X159802857Y-71054819D02*
X159755238Y-71531009D01*
X159755238Y-71531009D02*
X159802857Y-71483390D01*
X159802857Y-71483390D02*
X159898095Y-71435771D01*
X159898095Y-71435771D02*
X160136190Y-71435771D01*
X160136190Y-71435771D02*
X160231428Y-71483390D01*
X160231428Y-71483390D02*
X160279047Y-71531009D01*
X160279047Y-71531009D02*
X160326666Y-71626247D01*
X160326666Y-71626247D02*
X160326666Y-71864342D01*
X160326666Y-71864342D02*
X160279047Y-71959580D01*
X160279047Y-71959580D02*
X160231428Y-72007200D01*
X160231428Y-72007200D02*
X160136190Y-72054819D01*
X160136190Y-72054819D02*
X159898095Y-72054819D01*
X159898095Y-72054819D02*
X159802857Y-72007200D01*
X159802857Y-72007200D02*
X159755238Y-71959580D01*
X178064819Y-110417857D02*
X177588628Y-110751190D01*
X178064819Y-110989285D02*
X177064819Y-110989285D01*
X177064819Y-110989285D02*
X177064819Y-110608333D01*
X177064819Y-110608333D02*
X177112438Y-110513095D01*
X177112438Y-110513095D02*
X177160057Y-110465476D01*
X177160057Y-110465476D02*
X177255295Y-110417857D01*
X177255295Y-110417857D02*
X177398152Y-110417857D01*
X177398152Y-110417857D02*
X177493390Y-110465476D01*
X177493390Y-110465476D02*
X177541009Y-110513095D01*
X177541009Y-110513095D02*
X177588628Y-110608333D01*
X177588628Y-110608333D02*
X177588628Y-110989285D01*
X177160057Y-110036904D02*
X177112438Y-109989285D01*
X177112438Y-109989285D02*
X177064819Y-109894047D01*
X177064819Y-109894047D02*
X177064819Y-109655952D01*
X177064819Y-109655952D02*
X177112438Y-109560714D01*
X177112438Y-109560714D02*
X177160057Y-109513095D01*
X177160057Y-109513095D02*
X177255295Y-109465476D01*
X177255295Y-109465476D02*
X177350533Y-109465476D01*
X177350533Y-109465476D02*
X177493390Y-109513095D01*
X177493390Y-109513095D02*
X178064819Y-110084523D01*
X178064819Y-110084523D02*
X178064819Y-109465476D01*
X177493390Y-108894047D02*
X177445771Y-108989285D01*
X177445771Y-108989285D02*
X177398152Y-109036904D01*
X177398152Y-109036904D02*
X177302914Y-109084523D01*
X177302914Y-109084523D02*
X177255295Y-109084523D01*
X177255295Y-109084523D02*
X177160057Y-109036904D01*
X177160057Y-109036904D02*
X177112438Y-108989285D01*
X177112438Y-108989285D02*
X177064819Y-108894047D01*
X177064819Y-108894047D02*
X177064819Y-108703571D01*
X177064819Y-108703571D02*
X177112438Y-108608333D01*
X177112438Y-108608333D02*
X177160057Y-108560714D01*
X177160057Y-108560714D02*
X177255295Y-108513095D01*
X177255295Y-108513095D02*
X177302914Y-108513095D01*
X177302914Y-108513095D02*
X177398152Y-108560714D01*
X177398152Y-108560714D02*
X177445771Y-108608333D01*
X177445771Y-108608333D02*
X177493390Y-108703571D01*
X177493390Y-108703571D02*
X177493390Y-108894047D01*
X177493390Y-108894047D02*
X177541009Y-108989285D01*
X177541009Y-108989285D02*
X177588628Y-109036904D01*
X177588628Y-109036904D02*
X177683866Y-109084523D01*
X177683866Y-109084523D02*
X177874342Y-109084523D01*
X177874342Y-109084523D02*
X177969580Y-109036904D01*
X177969580Y-109036904D02*
X178017200Y-108989285D01*
X178017200Y-108989285D02*
X178064819Y-108894047D01*
X178064819Y-108894047D02*
X178064819Y-108703571D01*
X178064819Y-108703571D02*
X178017200Y-108608333D01*
X178017200Y-108608333D02*
X177969580Y-108560714D01*
X177969580Y-108560714D02*
X177874342Y-108513095D01*
X177874342Y-108513095D02*
X177683866Y-108513095D01*
X177683866Y-108513095D02*
X177588628Y-108560714D01*
X177588628Y-108560714D02*
X177541009Y-108608333D01*
X177541009Y-108608333D02*
X177493390Y-108703571D01*
X110746905Y-112314819D02*
X110746905Y-111314819D01*
X110746905Y-111314819D02*
X110985000Y-111314819D01*
X110985000Y-111314819D02*
X111127857Y-111362438D01*
X111127857Y-111362438D02*
X111223095Y-111457676D01*
X111223095Y-111457676D02*
X111270714Y-111552914D01*
X111270714Y-111552914D02*
X111318333Y-111743390D01*
X111318333Y-111743390D02*
X111318333Y-111886247D01*
X111318333Y-111886247D02*
X111270714Y-112076723D01*
X111270714Y-112076723D02*
X111223095Y-112171961D01*
X111223095Y-112171961D02*
X111127857Y-112267200D01*
X111127857Y-112267200D02*
X110985000Y-112314819D01*
X110985000Y-112314819D02*
X110746905Y-112314819D01*
X111889762Y-111743390D02*
X111794524Y-111695771D01*
X111794524Y-111695771D02*
X111746905Y-111648152D01*
X111746905Y-111648152D02*
X111699286Y-111552914D01*
X111699286Y-111552914D02*
X111699286Y-111505295D01*
X111699286Y-111505295D02*
X111746905Y-111410057D01*
X111746905Y-111410057D02*
X111794524Y-111362438D01*
X111794524Y-111362438D02*
X111889762Y-111314819D01*
X111889762Y-111314819D02*
X112080238Y-111314819D01*
X112080238Y-111314819D02*
X112175476Y-111362438D01*
X112175476Y-111362438D02*
X112223095Y-111410057D01*
X112223095Y-111410057D02*
X112270714Y-111505295D01*
X112270714Y-111505295D02*
X112270714Y-111552914D01*
X112270714Y-111552914D02*
X112223095Y-111648152D01*
X112223095Y-111648152D02*
X112175476Y-111695771D01*
X112175476Y-111695771D02*
X112080238Y-111743390D01*
X112080238Y-111743390D02*
X111889762Y-111743390D01*
X111889762Y-111743390D02*
X111794524Y-111791009D01*
X111794524Y-111791009D02*
X111746905Y-111838628D01*
X111746905Y-111838628D02*
X111699286Y-111933866D01*
X111699286Y-111933866D02*
X111699286Y-112124342D01*
X111699286Y-112124342D02*
X111746905Y-112219580D01*
X111746905Y-112219580D02*
X111794524Y-112267200D01*
X111794524Y-112267200D02*
X111889762Y-112314819D01*
X111889762Y-112314819D02*
X112080238Y-112314819D01*
X112080238Y-112314819D02*
X112175476Y-112267200D01*
X112175476Y-112267200D02*
X112223095Y-112219580D01*
X112223095Y-112219580D02*
X112270714Y-112124342D01*
X112270714Y-112124342D02*
X112270714Y-111933866D01*
X112270714Y-111933866D02*
X112223095Y-111838628D01*
X112223095Y-111838628D02*
X112175476Y-111791009D01*
X112175476Y-111791009D02*
X112080238Y-111743390D01*
X181428095Y-96516819D02*
X181999523Y-96516819D01*
X181713809Y-97516819D02*
X181713809Y-96516819D01*
X182332857Y-97516819D02*
X182332857Y-96516819D01*
X182332857Y-96516819D02*
X182713809Y-96516819D01*
X182713809Y-96516819D02*
X182809047Y-96564438D01*
X182809047Y-96564438D02*
X182856666Y-96612057D01*
X182856666Y-96612057D02*
X182904285Y-96707295D01*
X182904285Y-96707295D02*
X182904285Y-96850152D01*
X182904285Y-96850152D02*
X182856666Y-96945390D01*
X182856666Y-96945390D02*
X182809047Y-96993009D01*
X182809047Y-96993009D02*
X182713809Y-97040628D01*
X182713809Y-97040628D02*
X182332857Y-97040628D01*
X183761428Y-96850152D02*
X183761428Y-97516819D01*
X183523333Y-96469200D02*
X183285238Y-97183485D01*
X183285238Y-97183485D02*
X183904285Y-97183485D01*
X183269642Y-79879580D02*
X183222023Y-79927200D01*
X183222023Y-79927200D02*
X183079166Y-79974819D01*
X183079166Y-79974819D02*
X182983928Y-79974819D01*
X182983928Y-79974819D02*
X182841071Y-79927200D01*
X182841071Y-79927200D02*
X182745833Y-79831961D01*
X182745833Y-79831961D02*
X182698214Y-79736723D01*
X182698214Y-79736723D02*
X182650595Y-79546247D01*
X182650595Y-79546247D02*
X182650595Y-79403390D01*
X182650595Y-79403390D02*
X182698214Y-79212914D01*
X182698214Y-79212914D02*
X182745833Y-79117676D01*
X182745833Y-79117676D02*
X182841071Y-79022438D01*
X182841071Y-79022438D02*
X182983928Y-78974819D01*
X182983928Y-78974819D02*
X183079166Y-78974819D01*
X183079166Y-78974819D02*
X183222023Y-79022438D01*
X183222023Y-79022438D02*
X183269642Y-79070057D01*
X184222023Y-79974819D02*
X183650595Y-79974819D01*
X183936309Y-79974819D02*
X183936309Y-78974819D01*
X183936309Y-78974819D02*
X183841071Y-79117676D01*
X183841071Y-79117676D02*
X183745833Y-79212914D01*
X183745833Y-79212914D02*
X183650595Y-79260533D01*
X184602976Y-79070057D02*
X184650595Y-79022438D01*
X184650595Y-79022438D02*
X184745833Y-78974819D01*
X184745833Y-78974819D02*
X184983928Y-78974819D01*
X184983928Y-78974819D02*
X185079166Y-79022438D01*
X185079166Y-79022438D02*
X185126785Y-79070057D01*
X185126785Y-79070057D02*
X185174404Y-79165295D01*
X185174404Y-79165295D02*
X185174404Y-79260533D01*
X185174404Y-79260533D02*
X185126785Y-79403390D01*
X185126785Y-79403390D02*
X184555357Y-79974819D01*
X184555357Y-79974819D02*
X185174404Y-79974819D01*
X147854819Y-123509523D02*
X148569104Y-123509523D01*
X148569104Y-123509523D02*
X148711961Y-123557142D01*
X148711961Y-123557142D02*
X148807200Y-123652380D01*
X148807200Y-123652380D02*
X148854819Y-123795237D01*
X148854819Y-123795237D02*
X148854819Y-123890475D01*
X148854819Y-122509523D02*
X148854819Y-123080951D01*
X148854819Y-122795237D02*
X147854819Y-122795237D01*
X147854819Y-122795237D02*
X147997676Y-122890475D01*
X147997676Y-122890475D02*
X148092914Y-122985713D01*
X148092914Y-122985713D02*
X148140533Y-123080951D01*
X147854819Y-122176189D02*
X147854819Y-121509523D01*
X147854819Y-121509523D02*
X148854819Y-121938094D01*
X124140476Y-71104819D02*
X124140476Y-71819104D01*
X124140476Y-71819104D02*
X124092857Y-71961961D01*
X124092857Y-71961961D02*
X123997619Y-72057200D01*
X123997619Y-72057200D02*
X123854762Y-72104819D01*
X123854762Y-72104819D02*
X123759524Y-72104819D01*
X125140476Y-72104819D02*
X124569048Y-72104819D01*
X124854762Y-72104819D02*
X124854762Y-71104819D01*
X124854762Y-71104819D02*
X124759524Y-71247676D01*
X124759524Y-71247676D02*
X124664286Y-71342914D01*
X124664286Y-71342914D02*
X124569048Y-71390533D01*
X125521429Y-71200057D02*
X125569048Y-71152438D01*
X125569048Y-71152438D02*
X125664286Y-71104819D01*
X125664286Y-71104819D02*
X125902381Y-71104819D01*
X125902381Y-71104819D02*
X125997619Y-71152438D01*
X125997619Y-71152438D02*
X126045238Y-71200057D01*
X126045238Y-71200057D02*
X126092857Y-71295295D01*
X126092857Y-71295295D02*
X126092857Y-71390533D01*
X126092857Y-71390533D02*
X126045238Y-71533390D01*
X126045238Y-71533390D02*
X125473810Y-72104819D01*
X125473810Y-72104819D02*
X126092857Y-72104819D01*
X152604819Y-76812857D02*
X152128628Y-77146190D01*
X152604819Y-77384285D02*
X151604819Y-77384285D01*
X151604819Y-77384285D02*
X151604819Y-77003333D01*
X151604819Y-77003333D02*
X151652438Y-76908095D01*
X151652438Y-76908095D02*
X151700057Y-76860476D01*
X151700057Y-76860476D02*
X151795295Y-76812857D01*
X151795295Y-76812857D02*
X151938152Y-76812857D01*
X151938152Y-76812857D02*
X152033390Y-76860476D01*
X152033390Y-76860476D02*
X152081009Y-76908095D01*
X152081009Y-76908095D02*
X152128628Y-77003333D01*
X152128628Y-77003333D02*
X152128628Y-77384285D01*
X152604819Y-75860476D02*
X152604819Y-76431904D01*
X152604819Y-76146190D02*
X151604819Y-76146190D01*
X151604819Y-76146190D02*
X151747676Y-76241428D01*
X151747676Y-76241428D02*
X151842914Y-76336666D01*
X151842914Y-76336666D02*
X151890533Y-76431904D01*
X152033390Y-75289047D02*
X151985771Y-75384285D01*
X151985771Y-75384285D02*
X151938152Y-75431904D01*
X151938152Y-75431904D02*
X151842914Y-75479523D01*
X151842914Y-75479523D02*
X151795295Y-75479523D01*
X151795295Y-75479523D02*
X151700057Y-75431904D01*
X151700057Y-75431904D02*
X151652438Y-75384285D01*
X151652438Y-75384285D02*
X151604819Y-75289047D01*
X151604819Y-75289047D02*
X151604819Y-75098571D01*
X151604819Y-75098571D02*
X151652438Y-75003333D01*
X151652438Y-75003333D02*
X151700057Y-74955714D01*
X151700057Y-74955714D02*
X151795295Y-74908095D01*
X151795295Y-74908095D02*
X151842914Y-74908095D01*
X151842914Y-74908095D02*
X151938152Y-74955714D01*
X151938152Y-74955714D02*
X151985771Y-75003333D01*
X151985771Y-75003333D02*
X152033390Y-75098571D01*
X152033390Y-75098571D02*
X152033390Y-75289047D01*
X152033390Y-75289047D02*
X152081009Y-75384285D01*
X152081009Y-75384285D02*
X152128628Y-75431904D01*
X152128628Y-75431904D02*
X152223866Y-75479523D01*
X152223866Y-75479523D02*
X152414342Y-75479523D01*
X152414342Y-75479523D02*
X152509580Y-75431904D01*
X152509580Y-75431904D02*
X152557200Y-75384285D01*
X152557200Y-75384285D02*
X152604819Y-75289047D01*
X152604819Y-75289047D02*
X152604819Y-75098571D01*
X152604819Y-75098571D02*
X152557200Y-75003333D01*
X152557200Y-75003333D02*
X152509580Y-74955714D01*
X152509580Y-74955714D02*
X152414342Y-74908095D01*
X152414342Y-74908095D02*
X152223866Y-74908095D01*
X152223866Y-74908095D02*
X152128628Y-74955714D01*
X152128628Y-74955714D02*
X152081009Y-75003333D01*
X152081009Y-75003333D02*
X152033390Y-75098571D01*
X152558628Y-98636190D02*
X153034819Y-98636190D01*
X152034819Y-98969523D02*
X152558628Y-98636190D01*
X152558628Y-98636190D02*
X152034819Y-98302857D01*
X152130057Y-98017142D02*
X152082438Y-97969523D01*
X152082438Y-97969523D02*
X152034819Y-97874285D01*
X152034819Y-97874285D02*
X152034819Y-97636190D01*
X152034819Y-97636190D02*
X152082438Y-97540952D01*
X152082438Y-97540952D02*
X152130057Y-97493333D01*
X152130057Y-97493333D02*
X152225295Y-97445714D01*
X152225295Y-97445714D02*
X152320533Y-97445714D01*
X152320533Y-97445714D02*
X152463390Y-97493333D01*
X152463390Y-97493333D02*
X153034819Y-98064761D01*
X153034819Y-98064761D02*
X153034819Y-97445714D01*
X158353095Y-76604819D02*
X158353095Y-77414342D01*
X158353095Y-77414342D02*
X158400714Y-77509580D01*
X158400714Y-77509580D02*
X158448333Y-77557200D01*
X158448333Y-77557200D02*
X158543571Y-77604819D01*
X158543571Y-77604819D02*
X158734047Y-77604819D01*
X158734047Y-77604819D02*
X158829285Y-77557200D01*
X158829285Y-77557200D02*
X158876904Y-77509580D01*
X158876904Y-77509580D02*
X158924523Y-77414342D01*
X158924523Y-77414342D02*
X158924523Y-76604819D01*
X159829285Y-76938152D02*
X159829285Y-77604819D01*
X159591190Y-76557200D02*
X159353095Y-77271485D01*
X159353095Y-77271485D02*
X159972142Y-77271485D01*
X127249580Y-88066666D02*
X127297200Y-88114285D01*
X127297200Y-88114285D02*
X127344819Y-88257142D01*
X127344819Y-88257142D02*
X127344819Y-88352380D01*
X127344819Y-88352380D02*
X127297200Y-88495237D01*
X127297200Y-88495237D02*
X127201961Y-88590475D01*
X127201961Y-88590475D02*
X127106723Y-88638094D01*
X127106723Y-88638094D02*
X126916247Y-88685713D01*
X126916247Y-88685713D02*
X126773390Y-88685713D01*
X126773390Y-88685713D02*
X126582914Y-88638094D01*
X126582914Y-88638094D02*
X126487676Y-88590475D01*
X126487676Y-88590475D02*
X126392438Y-88495237D01*
X126392438Y-88495237D02*
X126344819Y-88352380D01*
X126344819Y-88352380D02*
X126344819Y-88257142D01*
X126344819Y-88257142D02*
X126392438Y-88114285D01*
X126392438Y-88114285D02*
X126440057Y-88066666D01*
X126344819Y-87161904D02*
X126344819Y-87638094D01*
X126344819Y-87638094D02*
X126821009Y-87685713D01*
X126821009Y-87685713D02*
X126773390Y-87638094D01*
X126773390Y-87638094D02*
X126725771Y-87542856D01*
X126725771Y-87542856D02*
X126725771Y-87304761D01*
X126725771Y-87304761D02*
X126773390Y-87209523D01*
X126773390Y-87209523D02*
X126821009Y-87161904D01*
X126821009Y-87161904D02*
X126916247Y-87114285D01*
X126916247Y-87114285D02*
X127154342Y-87114285D01*
X127154342Y-87114285D02*
X127249580Y-87161904D01*
X127249580Y-87161904D02*
X127297200Y-87209523D01*
X127297200Y-87209523D02*
X127344819Y-87304761D01*
X127344819Y-87304761D02*
X127344819Y-87542856D01*
X127344819Y-87542856D02*
X127297200Y-87638094D01*
X127297200Y-87638094D02*
X127249580Y-87685713D01*
X173453333Y-68999104D02*
X173929523Y-68999104D01*
X173358095Y-69284819D02*
X173691428Y-68284819D01*
X173691428Y-68284819D02*
X174024761Y-69284819D01*
X174358095Y-68761009D02*
X174691428Y-68761009D01*
X174834285Y-69284819D02*
X174358095Y-69284819D01*
X174358095Y-69284819D02*
X174358095Y-68284819D01*
X174358095Y-68284819D02*
X174834285Y-68284819D01*
X175215238Y-68380057D02*
X175262857Y-68332438D01*
X175262857Y-68332438D02*
X175358095Y-68284819D01*
X175358095Y-68284819D02*
X175596190Y-68284819D01*
X175596190Y-68284819D02*
X175691428Y-68332438D01*
X175691428Y-68332438D02*
X175739047Y-68380057D01*
X175739047Y-68380057D02*
X175786666Y-68475295D01*
X175786666Y-68475295D02*
X175786666Y-68570533D01*
X175786666Y-68570533D02*
X175739047Y-68713390D01*
X175739047Y-68713390D02*
X175167619Y-69284819D01*
X175167619Y-69284819D02*
X175786666Y-69284819D01*
X157364819Y-123549523D02*
X158079104Y-123549523D01*
X158079104Y-123549523D02*
X158221961Y-123597142D01*
X158221961Y-123597142D02*
X158317200Y-123692380D01*
X158317200Y-123692380D02*
X158364819Y-123835237D01*
X158364819Y-123835237D02*
X158364819Y-123930475D01*
X158364819Y-122549523D02*
X158364819Y-123120951D01*
X158364819Y-122835237D02*
X157364819Y-122835237D01*
X157364819Y-122835237D02*
X157507676Y-122930475D01*
X157507676Y-122930475D02*
X157602914Y-123025713D01*
X157602914Y-123025713D02*
X157650533Y-123120951D01*
X158364819Y-122073332D02*
X158364819Y-121882856D01*
X158364819Y-121882856D02*
X158317200Y-121787618D01*
X158317200Y-121787618D02*
X158269580Y-121739999D01*
X158269580Y-121739999D02*
X158126723Y-121644761D01*
X158126723Y-121644761D02*
X157936247Y-121597142D01*
X157936247Y-121597142D02*
X157555295Y-121597142D01*
X157555295Y-121597142D02*
X157460057Y-121644761D01*
X157460057Y-121644761D02*
X157412438Y-121692380D01*
X157412438Y-121692380D02*
X157364819Y-121787618D01*
X157364819Y-121787618D02*
X157364819Y-121978094D01*
X157364819Y-121978094D02*
X157412438Y-122073332D01*
X157412438Y-122073332D02*
X157460057Y-122120951D01*
X157460057Y-122120951D02*
X157555295Y-122168570D01*
X157555295Y-122168570D02*
X157793390Y-122168570D01*
X157793390Y-122168570D02*
X157888628Y-122120951D01*
X157888628Y-122120951D02*
X157936247Y-122073332D01*
X157936247Y-122073332D02*
X157983866Y-121978094D01*
X157983866Y-121978094D02*
X157983866Y-121787618D01*
X157983866Y-121787618D02*
X157936247Y-121692380D01*
X157936247Y-121692380D02*
X157888628Y-121644761D01*
X157888628Y-121644761D02*
X157793390Y-121597142D01*
X136246666Y-71094819D02*
X136246666Y-71809104D01*
X136246666Y-71809104D02*
X136199047Y-71951961D01*
X136199047Y-71951961D02*
X136103809Y-72047200D01*
X136103809Y-72047200D02*
X135960952Y-72094819D01*
X135960952Y-72094819D02*
X135865714Y-72094819D01*
X137246666Y-72094819D02*
X136675238Y-72094819D01*
X136960952Y-72094819D02*
X136960952Y-71094819D01*
X136960952Y-71094819D02*
X136865714Y-71237676D01*
X136865714Y-71237676D02*
X136770476Y-71332914D01*
X136770476Y-71332914D02*
X136675238Y-71380533D01*
X110918333Y-113119580D02*
X110870714Y-113167200D01*
X110870714Y-113167200D02*
X110727857Y-113214819D01*
X110727857Y-113214819D02*
X110632619Y-113214819D01*
X110632619Y-113214819D02*
X110489762Y-113167200D01*
X110489762Y-113167200D02*
X110394524Y-113071961D01*
X110394524Y-113071961D02*
X110346905Y-112976723D01*
X110346905Y-112976723D02*
X110299286Y-112786247D01*
X110299286Y-112786247D02*
X110299286Y-112643390D01*
X110299286Y-112643390D02*
X110346905Y-112452914D01*
X110346905Y-112452914D02*
X110394524Y-112357676D01*
X110394524Y-112357676D02*
X110489762Y-112262438D01*
X110489762Y-112262438D02*
X110632619Y-112214819D01*
X110632619Y-112214819D02*
X110727857Y-112214819D01*
X110727857Y-112214819D02*
X110870714Y-112262438D01*
X110870714Y-112262438D02*
X110918333Y-112310057D01*
X111775476Y-112548152D02*
X111775476Y-113214819D01*
X111537381Y-112167200D02*
X111299286Y-112881485D01*
X111299286Y-112881485D02*
X111918333Y-112881485D01*
X171719580Y-91802857D02*
X171767200Y-91850476D01*
X171767200Y-91850476D02*
X171814819Y-91993333D01*
X171814819Y-91993333D02*
X171814819Y-92088571D01*
X171814819Y-92088571D02*
X171767200Y-92231428D01*
X171767200Y-92231428D02*
X171671961Y-92326666D01*
X171671961Y-92326666D02*
X171576723Y-92374285D01*
X171576723Y-92374285D02*
X171386247Y-92421904D01*
X171386247Y-92421904D02*
X171243390Y-92421904D01*
X171243390Y-92421904D02*
X171052914Y-92374285D01*
X171052914Y-92374285D02*
X170957676Y-92326666D01*
X170957676Y-92326666D02*
X170862438Y-92231428D01*
X170862438Y-92231428D02*
X170814819Y-92088571D01*
X170814819Y-92088571D02*
X170814819Y-91993333D01*
X170814819Y-91993333D02*
X170862438Y-91850476D01*
X170862438Y-91850476D02*
X170910057Y-91802857D01*
X171814819Y-90850476D02*
X171814819Y-91421904D01*
X171814819Y-91136190D02*
X170814819Y-91136190D01*
X170814819Y-91136190D02*
X170957676Y-91231428D01*
X170957676Y-91231428D02*
X171052914Y-91326666D01*
X171052914Y-91326666D02*
X171100533Y-91421904D01*
X171814819Y-89898095D02*
X171814819Y-90469523D01*
X171814819Y-90183809D02*
X170814819Y-90183809D01*
X170814819Y-90183809D02*
X170957676Y-90279047D01*
X170957676Y-90279047D02*
X171052914Y-90374285D01*
X171052914Y-90374285D02*
X171100533Y-90469523D01*
X125874819Y-86338094D02*
X124874819Y-86338094D01*
X124874819Y-86338094D02*
X124874819Y-86099999D01*
X124874819Y-86099999D02*
X124922438Y-85957142D01*
X124922438Y-85957142D02*
X125017676Y-85861904D01*
X125017676Y-85861904D02*
X125112914Y-85814285D01*
X125112914Y-85814285D02*
X125303390Y-85766666D01*
X125303390Y-85766666D02*
X125446247Y-85766666D01*
X125446247Y-85766666D02*
X125636723Y-85814285D01*
X125636723Y-85814285D02*
X125731961Y-85861904D01*
X125731961Y-85861904D02*
X125827200Y-85957142D01*
X125827200Y-85957142D02*
X125874819Y-86099999D01*
X125874819Y-86099999D02*
X125874819Y-86338094D01*
X125208152Y-84909523D02*
X125874819Y-84909523D01*
X124827200Y-85147618D02*
X125541485Y-85385713D01*
X125541485Y-85385713D02*
X125541485Y-84766666D01*
X130654819Y-94661904D02*
X131464342Y-94661904D01*
X131464342Y-94661904D02*
X131559580Y-94614285D01*
X131559580Y-94614285D02*
X131607200Y-94566666D01*
X131607200Y-94566666D02*
X131654819Y-94471428D01*
X131654819Y-94471428D02*
X131654819Y-94280952D01*
X131654819Y-94280952D02*
X131607200Y-94185714D01*
X131607200Y-94185714D02*
X131559580Y-94138095D01*
X131559580Y-94138095D02*
X131464342Y-94090476D01*
X131464342Y-94090476D02*
X130654819Y-94090476D01*
X130750057Y-93661904D02*
X130702438Y-93614285D01*
X130702438Y-93614285D02*
X130654819Y-93519047D01*
X130654819Y-93519047D02*
X130654819Y-93280952D01*
X130654819Y-93280952D02*
X130702438Y-93185714D01*
X130702438Y-93185714D02*
X130750057Y-93138095D01*
X130750057Y-93138095D02*
X130845295Y-93090476D01*
X130845295Y-93090476D02*
X130940533Y-93090476D01*
X130940533Y-93090476D02*
X131083390Y-93138095D01*
X131083390Y-93138095D02*
X131654819Y-93709523D01*
X131654819Y-93709523D02*
X131654819Y-93090476D01*
X110442142Y-101844819D02*
X110108809Y-101368628D01*
X109870714Y-101844819D02*
X109870714Y-100844819D01*
X109870714Y-100844819D02*
X110251666Y-100844819D01*
X110251666Y-100844819D02*
X110346904Y-100892438D01*
X110346904Y-100892438D02*
X110394523Y-100940057D01*
X110394523Y-100940057D02*
X110442142Y-101035295D01*
X110442142Y-101035295D02*
X110442142Y-101178152D01*
X110442142Y-101178152D02*
X110394523Y-101273390D01*
X110394523Y-101273390D02*
X110346904Y-101321009D01*
X110346904Y-101321009D02*
X110251666Y-101368628D01*
X110251666Y-101368628D02*
X109870714Y-101368628D01*
X110823095Y-100940057D02*
X110870714Y-100892438D01*
X110870714Y-100892438D02*
X110965952Y-100844819D01*
X110965952Y-100844819D02*
X111204047Y-100844819D01*
X111204047Y-100844819D02*
X111299285Y-100892438D01*
X111299285Y-100892438D02*
X111346904Y-100940057D01*
X111346904Y-100940057D02*
X111394523Y-101035295D01*
X111394523Y-101035295D02*
X111394523Y-101130533D01*
X111394523Y-101130533D02*
X111346904Y-101273390D01*
X111346904Y-101273390D02*
X110775476Y-101844819D01*
X110775476Y-101844819D02*
X111394523Y-101844819D01*
X111775476Y-100940057D02*
X111823095Y-100892438D01*
X111823095Y-100892438D02*
X111918333Y-100844819D01*
X111918333Y-100844819D02*
X112156428Y-100844819D01*
X112156428Y-100844819D02*
X112251666Y-100892438D01*
X112251666Y-100892438D02*
X112299285Y-100940057D01*
X112299285Y-100940057D02*
X112346904Y-101035295D01*
X112346904Y-101035295D02*
X112346904Y-101130533D01*
X112346904Y-101130533D02*
X112299285Y-101273390D01*
X112299285Y-101273390D02*
X111727857Y-101844819D01*
X111727857Y-101844819D02*
X112346904Y-101844819D01*
X125004819Y-99566666D02*
X124528628Y-99899999D01*
X125004819Y-100138094D02*
X124004819Y-100138094D01*
X124004819Y-100138094D02*
X124004819Y-99757142D01*
X124004819Y-99757142D02*
X124052438Y-99661904D01*
X124052438Y-99661904D02*
X124100057Y-99614285D01*
X124100057Y-99614285D02*
X124195295Y-99566666D01*
X124195295Y-99566666D02*
X124338152Y-99566666D01*
X124338152Y-99566666D02*
X124433390Y-99614285D01*
X124433390Y-99614285D02*
X124481009Y-99661904D01*
X124481009Y-99661904D02*
X124528628Y-99757142D01*
X124528628Y-99757142D02*
X124528628Y-100138094D01*
X124004819Y-98709523D02*
X124004819Y-98899999D01*
X124004819Y-98899999D02*
X124052438Y-98995237D01*
X124052438Y-98995237D02*
X124100057Y-99042856D01*
X124100057Y-99042856D02*
X124242914Y-99138094D01*
X124242914Y-99138094D02*
X124433390Y-99185713D01*
X124433390Y-99185713D02*
X124814342Y-99185713D01*
X124814342Y-99185713D02*
X124909580Y-99138094D01*
X124909580Y-99138094D02*
X124957200Y-99090475D01*
X124957200Y-99090475D02*
X125004819Y-98995237D01*
X125004819Y-98995237D02*
X125004819Y-98804761D01*
X125004819Y-98804761D02*
X124957200Y-98709523D01*
X124957200Y-98709523D02*
X124909580Y-98661904D01*
X124909580Y-98661904D02*
X124814342Y-98614285D01*
X124814342Y-98614285D02*
X124576247Y-98614285D01*
X124576247Y-98614285D02*
X124481009Y-98661904D01*
X124481009Y-98661904D02*
X124433390Y-98709523D01*
X124433390Y-98709523D02*
X124385771Y-98804761D01*
X124385771Y-98804761D02*
X124385771Y-98995237D01*
X124385771Y-98995237D02*
X124433390Y-99090475D01*
X124433390Y-99090475D02*
X124481009Y-99138094D01*
X124481009Y-99138094D02*
X124576247Y-99185713D01*
X111118333Y-110939580D02*
X111070714Y-110987200D01*
X111070714Y-110987200D02*
X110927857Y-111034819D01*
X110927857Y-111034819D02*
X110832619Y-111034819D01*
X110832619Y-111034819D02*
X110689762Y-110987200D01*
X110689762Y-110987200D02*
X110594524Y-110891961D01*
X110594524Y-110891961D02*
X110546905Y-110796723D01*
X110546905Y-110796723D02*
X110499286Y-110606247D01*
X110499286Y-110606247D02*
X110499286Y-110463390D01*
X110499286Y-110463390D02*
X110546905Y-110272914D01*
X110546905Y-110272914D02*
X110594524Y-110177676D01*
X110594524Y-110177676D02*
X110689762Y-110082438D01*
X110689762Y-110082438D02*
X110832619Y-110034819D01*
X110832619Y-110034819D02*
X110927857Y-110034819D01*
X110927857Y-110034819D02*
X111070714Y-110082438D01*
X111070714Y-110082438D02*
X111118333Y-110130057D01*
X111499286Y-110130057D02*
X111546905Y-110082438D01*
X111546905Y-110082438D02*
X111642143Y-110034819D01*
X111642143Y-110034819D02*
X111880238Y-110034819D01*
X111880238Y-110034819D02*
X111975476Y-110082438D01*
X111975476Y-110082438D02*
X112023095Y-110130057D01*
X112023095Y-110130057D02*
X112070714Y-110225295D01*
X112070714Y-110225295D02*
X112070714Y-110320533D01*
X112070714Y-110320533D02*
X112023095Y-110463390D01*
X112023095Y-110463390D02*
X111451667Y-111034819D01*
X111451667Y-111034819D02*
X112070714Y-111034819D01*
X146648095Y-73854819D02*
X146648095Y-74664342D01*
X146648095Y-74664342D02*
X146695714Y-74759580D01*
X146695714Y-74759580D02*
X146743333Y-74807200D01*
X146743333Y-74807200D02*
X146838571Y-74854819D01*
X146838571Y-74854819D02*
X147029047Y-74854819D01*
X147029047Y-74854819D02*
X147124285Y-74807200D01*
X147124285Y-74807200D02*
X147171904Y-74759580D01*
X147171904Y-74759580D02*
X147219523Y-74664342D01*
X147219523Y-74664342D02*
X147219523Y-73854819D01*
X148124285Y-73854819D02*
X147933809Y-73854819D01*
X147933809Y-73854819D02*
X147838571Y-73902438D01*
X147838571Y-73902438D02*
X147790952Y-73950057D01*
X147790952Y-73950057D02*
X147695714Y-74092914D01*
X147695714Y-74092914D02*
X147648095Y-74283390D01*
X147648095Y-74283390D02*
X147648095Y-74664342D01*
X147648095Y-74664342D02*
X147695714Y-74759580D01*
X147695714Y-74759580D02*
X147743333Y-74807200D01*
X147743333Y-74807200D02*
X147838571Y-74854819D01*
X147838571Y-74854819D02*
X148029047Y-74854819D01*
X148029047Y-74854819D02*
X148124285Y-74807200D01*
X148124285Y-74807200D02*
X148171904Y-74759580D01*
X148171904Y-74759580D02*
X148219523Y-74664342D01*
X148219523Y-74664342D02*
X148219523Y-74426247D01*
X148219523Y-74426247D02*
X148171904Y-74331009D01*
X148171904Y-74331009D02*
X148124285Y-74283390D01*
X148124285Y-74283390D02*
X148029047Y-74235771D01*
X148029047Y-74235771D02*
X147838571Y-74235771D01*
X147838571Y-74235771D02*
X147743333Y-74283390D01*
X147743333Y-74283390D02*
X147695714Y-74331009D01*
X147695714Y-74331009D02*
X147648095Y-74426247D01*
X162956666Y-65044819D02*
X162956666Y-65759104D01*
X162956666Y-65759104D02*
X162909047Y-65901961D01*
X162909047Y-65901961D02*
X162813809Y-65997200D01*
X162813809Y-65997200D02*
X162670952Y-66044819D01*
X162670952Y-66044819D02*
X162575714Y-66044819D01*
X163432857Y-66044819D02*
X163432857Y-65044819D01*
X163432857Y-65044819D02*
X163813809Y-65044819D01*
X163813809Y-65044819D02*
X163909047Y-65092438D01*
X163909047Y-65092438D02*
X163956666Y-65140057D01*
X163956666Y-65140057D02*
X164004285Y-65235295D01*
X164004285Y-65235295D02*
X164004285Y-65378152D01*
X164004285Y-65378152D02*
X163956666Y-65473390D01*
X163956666Y-65473390D02*
X163909047Y-65521009D01*
X163909047Y-65521009D02*
X163813809Y-65568628D01*
X163813809Y-65568628D02*
X163432857Y-65568628D01*
X164385238Y-65140057D02*
X164432857Y-65092438D01*
X164432857Y-65092438D02*
X164528095Y-65044819D01*
X164528095Y-65044819D02*
X164766190Y-65044819D01*
X164766190Y-65044819D02*
X164861428Y-65092438D01*
X164861428Y-65092438D02*
X164909047Y-65140057D01*
X164909047Y-65140057D02*
X164956666Y-65235295D01*
X164956666Y-65235295D02*
X164956666Y-65330533D01*
X164956666Y-65330533D02*
X164909047Y-65473390D01*
X164909047Y-65473390D02*
X164337619Y-66044819D01*
X164337619Y-66044819D02*
X164956666Y-66044819D01*
X118417200Y-122243332D02*
X118464819Y-122100475D01*
X118464819Y-122100475D02*
X118464819Y-121862380D01*
X118464819Y-121862380D02*
X118417200Y-121767142D01*
X118417200Y-121767142D02*
X118369580Y-121719523D01*
X118369580Y-121719523D02*
X118274342Y-121671904D01*
X118274342Y-121671904D02*
X118179104Y-121671904D01*
X118179104Y-121671904D02*
X118083866Y-121719523D01*
X118083866Y-121719523D02*
X118036247Y-121767142D01*
X118036247Y-121767142D02*
X117988628Y-121862380D01*
X117988628Y-121862380D02*
X117941009Y-122052856D01*
X117941009Y-122052856D02*
X117893390Y-122148094D01*
X117893390Y-122148094D02*
X117845771Y-122195713D01*
X117845771Y-122195713D02*
X117750533Y-122243332D01*
X117750533Y-122243332D02*
X117655295Y-122243332D01*
X117655295Y-122243332D02*
X117560057Y-122195713D01*
X117560057Y-122195713D02*
X117512438Y-122148094D01*
X117512438Y-122148094D02*
X117464819Y-122052856D01*
X117464819Y-122052856D02*
X117464819Y-121814761D01*
X117464819Y-121814761D02*
X117512438Y-121671904D01*
X117464819Y-121338570D02*
X118464819Y-121100475D01*
X118464819Y-121100475D02*
X117750533Y-120909999D01*
X117750533Y-120909999D02*
X118464819Y-120719523D01*
X118464819Y-120719523D02*
X117464819Y-120481428D01*
X118464819Y-119576666D02*
X118464819Y-120148094D01*
X118464819Y-119862380D02*
X117464819Y-119862380D01*
X117464819Y-119862380D02*
X117607676Y-119957618D01*
X117607676Y-119957618D02*
X117702914Y-120052856D01*
X117702914Y-120052856D02*
X117750533Y-120148094D01*
X131528628Y-108966190D02*
X132004819Y-108966190D01*
X131004819Y-109299523D02*
X131528628Y-108966190D01*
X131528628Y-108966190D02*
X131004819Y-108632857D01*
X132004819Y-107775714D02*
X132004819Y-108347142D01*
X132004819Y-108061428D02*
X131004819Y-108061428D01*
X131004819Y-108061428D02*
X131147676Y-108156666D01*
X131147676Y-108156666D02*
X131242914Y-108251904D01*
X131242914Y-108251904D02*
X131290533Y-108347142D01*
X119619047Y-98351009D02*
X119761904Y-98398628D01*
X119761904Y-98398628D02*
X119809523Y-98446247D01*
X119809523Y-98446247D02*
X119857142Y-98541485D01*
X119857142Y-98541485D02*
X119857142Y-98684342D01*
X119857142Y-98684342D02*
X119809523Y-98779580D01*
X119809523Y-98779580D02*
X119761904Y-98827200D01*
X119761904Y-98827200D02*
X119666666Y-98874819D01*
X119666666Y-98874819D02*
X119285714Y-98874819D01*
X119285714Y-98874819D02*
X119285714Y-97874819D01*
X119285714Y-97874819D02*
X119619047Y-97874819D01*
X119619047Y-97874819D02*
X119714285Y-97922438D01*
X119714285Y-97922438D02*
X119761904Y-97970057D01*
X119761904Y-97970057D02*
X119809523Y-98065295D01*
X119809523Y-98065295D02*
X119809523Y-98160533D01*
X119809523Y-98160533D02*
X119761904Y-98255771D01*
X119761904Y-98255771D02*
X119714285Y-98303390D01*
X119714285Y-98303390D02*
X119619047Y-98351009D01*
X119619047Y-98351009D02*
X119285714Y-98351009D01*
X120190476Y-97874819D02*
X120857142Y-97874819D01*
X120857142Y-97874819D02*
X120190476Y-98874819D01*
X120190476Y-98874819D02*
X120857142Y-98874819D01*
X121761904Y-98874819D02*
X121190476Y-98874819D01*
X121476190Y-98874819D02*
X121476190Y-97874819D01*
X121476190Y-97874819D02*
X121380952Y-98017676D01*
X121380952Y-98017676D02*
X121285714Y-98112914D01*
X121285714Y-98112914D02*
X121190476Y-98160533D01*
X129674819Y-74392857D02*
X129198628Y-74726190D01*
X129674819Y-74964285D02*
X128674819Y-74964285D01*
X128674819Y-74964285D02*
X128674819Y-74583333D01*
X128674819Y-74583333D02*
X128722438Y-74488095D01*
X128722438Y-74488095D02*
X128770057Y-74440476D01*
X128770057Y-74440476D02*
X128865295Y-74392857D01*
X128865295Y-74392857D02*
X129008152Y-74392857D01*
X129008152Y-74392857D02*
X129103390Y-74440476D01*
X129103390Y-74440476D02*
X129151009Y-74488095D01*
X129151009Y-74488095D02*
X129198628Y-74583333D01*
X129198628Y-74583333D02*
X129198628Y-74964285D01*
X128770057Y-74011904D02*
X128722438Y-73964285D01*
X128722438Y-73964285D02*
X128674819Y-73869047D01*
X128674819Y-73869047D02*
X128674819Y-73630952D01*
X128674819Y-73630952D02*
X128722438Y-73535714D01*
X128722438Y-73535714D02*
X128770057Y-73488095D01*
X128770057Y-73488095D02*
X128865295Y-73440476D01*
X128865295Y-73440476D02*
X128960533Y-73440476D01*
X128960533Y-73440476D02*
X129103390Y-73488095D01*
X129103390Y-73488095D02*
X129674819Y-74059523D01*
X129674819Y-74059523D02*
X129674819Y-73440476D01*
X128674819Y-73107142D02*
X128674819Y-72440476D01*
X128674819Y-72440476D02*
X129674819Y-72869047D01*
X164236666Y-67714819D02*
X164236666Y-68429104D01*
X164236666Y-68429104D02*
X164189047Y-68571961D01*
X164189047Y-68571961D02*
X164093809Y-68667200D01*
X164093809Y-68667200D02*
X163950952Y-68714819D01*
X163950952Y-68714819D02*
X163855714Y-68714819D01*
X164712857Y-68714819D02*
X164712857Y-67714819D01*
X164712857Y-67714819D02*
X165093809Y-67714819D01*
X165093809Y-67714819D02*
X165189047Y-67762438D01*
X165189047Y-67762438D02*
X165236666Y-67810057D01*
X165236666Y-67810057D02*
X165284285Y-67905295D01*
X165284285Y-67905295D02*
X165284285Y-68048152D01*
X165284285Y-68048152D02*
X165236666Y-68143390D01*
X165236666Y-68143390D02*
X165189047Y-68191009D01*
X165189047Y-68191009D02*
X165093809Y-68238628D01*
X165093809Y-68238628D02*
X164712857Y-68238628D01*
X165617619Y-67714819D02*
X166236666Y-67714819D01*
X166236666Y-67714819D02*
X165903333Y-68095771D01*
X165903333Y-68095771D02*
X166046190Y-68095771D01*
X166046190Y-68095771D02*
X166141428Y-68143390D01*
X166141428Y-68143390D02*
X166189047Y-68191009D01*
X166189047Y-68191009D02*
X166236666Y-68286247D01*
X166236666Y-68286247D02*
X166236666Y-68524342D01*
X166236666Y-68524342D02*
X166189047Y-68619580D01*
X166189047Y-68619580D02*
X166141428Y-68667200D01*
X166141428Y-68667200D02*
X166046190Y-68714819D01*
X166046190Y-68714819D02*
X165760476Y-68714819D01*
X165760476Y-68714819D02*
X165665238Y-68667200D01*
X165665238Y-68667200D02*
X165617619Y-68619580D01*
X151233333Y-95839580D02*
X151185714Y-95887200D01*
X151185714Y-95887200D02*
X151042857Y-95934819D01*
X151042857Y-95934819D02*
X150947619Y-95934819D01*
X150947619Y-95934819D02*
X150804762Y-95887200D01*
X150804762Y-95887200D02*
X150709524Y-95791961D01*
X150709524Y-95791961D02*
X150661905Y-95696723D01*
X150661905Y-95696723D02*
X150614286Y-95506247D01*
X150614286Y-95506247D02*
X150614286Y-95363390D01*
X150614286Y-95363390D02*
X150661905Y-95172914D01*
X150661905Y-95172914D02*
X150709524Y-95077676D01*
X150709524Y-95077676D02*
X150804762Y-94982438D01*
X150804762Y-94982438D02*
X150947619Y-94934819D01*
X150947619Y-94934819D02*
X151042857Y-94934819D01*
X151042857Y-94934819D02*
X151185714Y-94982438D01*
X151185714Y-94982438D02*
X151233333Y-95030057D01*
X151804762Y-95363390D02*
X151709524Y-95315771D01*
X151709524Y-95315771D02*
X151661905Y-95268152D01*
X151661905Y-95268152D02*
X151614286Y-95172914D01*
X151614286Y-95172914D02*
X151614286Y-95125295D01*
X151614286Y-95125295D02*
X151661905Y-95030057D01*
X151661905Y-95030057D02*
X151709524Y-94982438D01*
X151709524Y-94982438D02*
X151804762Y-94934819D01*
X151804762Y-94934819D02*
X151995238Y-94934819D01*
X151995238Y-94934819D02*
X152090476Y-94982438D01*
X152090476Y-94982438D02*
X152138095Y-95030057D01*
X152138095Y-95030057D02*
X152185714Y-95125295D01*
X152185714Y-95125295D02*
X152185714Y-95172914D01*
X152185714Y-95172914D02*
X152138095Y-95268152D01*
X152138095Y-95268152D02*
X152090476Y-95315771D01*
X152090476Y-95315771D02*
X151995238Y-95363390D01*
X151995238Y-95363390D02*
X151804762Y-95363390D01*
X151804762Y-95363390D02*
X151709524Y-95411009D01*
X151709524Y-95411009D02*
X151661905Y-95458628D01*
X151661905Y-95458628D02*
X151614286Y-95553866D01*
X151614286Y-95553866D02*
X151614286Y-95744342D01*
X151614286Y-95744342D02*
X151661905Y-95839580D01*
X151661905Y-95839580D02*
X151709524Y-95887200D01*
X151709524Y-95887200D02*
X151804762Y-95934819D01*
X151804762Y-95934819D02*
X151995238Y-95934819D01*
X151995238Y-95934819D02*
X152090476Y-95887200D01*
X152090476Y-95887200D02*
X152138095Y-95839580D01*
X152138095Y-95839580D02*
X152185714Y-95744342D01*
X152185714Y-95744342D02*
X152185714Y-95553866D01*
X152185714Y-95553866D02*
X152138095Y-95458628D01*
X152138095Y-95458628D02*
X152090476Y-95411009D01*
X152090476Y-95411009D02*
X151995238Y-95363390D01*
X122511905Y-83414819D02*
X122511905Y-82414819D01*
X122511905Y-82414819D02*
X122750000Y-82414819D01*
X122750000Y-82414819D02*
X122892857Y-82462438D01*
X122892857Y-82462438D02*
X122988095Y-82557676D01*
X122988095Y-82557676D02*
X123035714Y-82652914D01*
X123035714Y-82652914D02*
X123083333Y-82843390D01*
X123083333Y-82843390D02*
X123083333Y-82986247D01*
X123083333Y-82986247D02*
X123035714Y-83176723D01*
X123035714Y-83176723D02*
X122988095Y-83271961D01*
X122988095Y-83271961D02*
X122892857Y-83367200D01*
X122892857Y-83367200D02*
X122750000Y-83414819D01*
X122750000Y-83414819D02*
X122511905Y-83414819D01*
X123940476Y-82414819D02*
X123750000Y-82414819D01*
X123750000Y-82414819D02*
X123654762Y-82462438D01*
X123654762Y-82462438D02*
X123607143Y-82510057D01*
X123607143Y-82510057D02*
X123511905Y-82652914D01*
X123511905Y-82652914D02*
X123464286Y-82843390D01*
X123464286Y-82843390D02*
X123464286Y-83224342D01*
X123464286Y-83224342D02*
X123511905Y-83319580D01*
X123511905Y-83319580D02*
X123559524Y-83367200D01*
X123559524Y-83367200D02*
X123654762Y-83414819D01*
X123654762Y-83414819D02*
X123845238Y-83414819D01*
X123845238Y-83414819D02*
X123940476Y-83367200D01*
X123940476Y-83367200D02*
X123988095Y-83319580D01*
X123988095Y-83319580D02*
X124035714Y-83224342D01*
X124035714Y-83224342D02*
X124035714Y-82986247D01*
X124035714Y-82986247D02*
X123988095Y-82891009D01*
X123988095Y-82891009D02*
X123940476Y-82843390D01*
X123940476Y-82843390D02*
X123845238Y-82795771D01*
X123845238Y-82795771D02*
X123654762Y-82795771D01*
X123654762Y-82795771D02*
X123559524Y-82843390D01*
X123559524Y-82843390D02*
X123511905Y-82891009D01*
X123511905Y-82891009D02*
X123464286Y-82986247D01*
X151957142Y-87104819D02*
X151623809Y-86628628D01*
X151385714Y-87104819D02*
X151385714Y-86104819D01*
X151385714Y-86104819D02*
X151766666Y-86104819D01*
X151766666Y-86104819D02*
X151861904Y-86152438D01*
X151861904Y-86152438D02*
X151909523Y-86200057D01*
X151909523Y-86200057D02*
X151957142Y-86295295D01*
X151957142Y-86295295D02*
X151957142Y-86438152D01*
X151957142Y-86438152D02*
X151909523Y-86533390D01*
X151909523Y-86533390D02*
X151861904Y-86581009D01*
X151861904Y-86581009D02*
X151766666Y-86628628D01*
X151766666Y-86628628D02*
X151385714Y-86628628D01*
X152909523Y-87104819D02*
X152338095Y-87104819D01*
X152623809Y-87104819D02*
X152623809Y-86104819D01*
X152623809Y-86104819D02*
X152528571Y-86247676D01*
X152528571Y-86247676D02*
X152433333Y-86342914D01*
X152433333Y-86342914D02*
X152338095Y-86390533D01*
X153528571Y-86104819D02*
X153623809Y-86104819D01*
X153623809Y-86104819D02*
X153719047Y-86152438D01*
X153719047Y-86152438D02*
X153766666Y-86200057D01*
X153766666Y-86200057D02*
X153814285Y-86295295D01*
X153814285Y-86295295D02*
X153861904Y-86485771D01*
X153861904Y-86485771D02*
X153861904Y-86723866D01*
X153861904Y-86723866D02*
X153814285Y-86914342D01*
X153814285Y-86914342D02*
X153766666Y-87009580D01*
X153766666Y-87009580D02*
X153719047Y-87057200D01*
X153719047Y-87057200D02*
X153623809Y-87104819D01*
X153623809Y-87104819D02*
X153528571Y-87104819D01*
X153528571Y-87104819D02*
X153433333Y-87057200D01*
X153433333Y-87057200D02*
X153385714Y-87009580D01*
X153385714Y-87009580D02*
X153338095Y-86914342D01*
X153338095Y-86914342D02*
X153290476Y-86723866D01*
X153290476Y-86723866D02*
X153290476Y-86485771D01*
X153290476Y-86485771D02*
X153338095Y-86295295D01*
X153338095Y-86295295D02*
X153385714Y-86200057D01*
X153385714Y-86200057D02*
X153433333Y-86152438D01*
X153433333Y-86152438D02*
X153528571Y-86104819D01*
X136370057Y-74635238D02*
X136322438Y-74730476D01*
X136322438Y-74730476D02*
X136227200Y-74825714D01*
X136227200Y-74825714D02*
X136084342Y-74968571D01*
X136084342Y-74968571D02*
X136036723Y-75063809D01*
X136036723Y-75063809D02*
X136036723Y-75159047D01*
X136274819Y-75111428D02*
X136227200Y-75206666D01*
X136227200Y-75206666D02*
X136131961Y-75301904D01*
X136131961Y-75301904D02*
X135941485Y-75349523D01*
X135941485Y-75349523D02*
X135608152Y-75349523D01*
X135608152Y-75349523D02*
X135417676Y-75301904D01*
X135417676Y-75301904D02*
X135322438Y-75206666D01*
X135322438Y-75206666D02*
X135274819Y-75111428D01*
X135274819Y-75111428D02*
X135274819Y-74920952D01*
X135274819Y-74920952D02*
X135322438Y-74825714D01*
X135322438Y-74825714D02*
X135417676Y-74730476D01*
X135417676Y-74730476D02*
X135608152Y-74682857D01*
X135608152Y-74682857D02*
X135941485Y-74682857D01*
X135941485Y-74682857D02*
X136131961Y-74730476D01*
X136131961Y-74730476D02*
X136227200Y-74825714D01*
X136227200Y-74825714D02*
X136274819Y-74920952D01*
X136274819Y-74920952D02*
X136274819Y-75111428D01*
X135274819Y-73778095D02*
X135274819Y-74254285D01*
X135274819Y-74254285D02*
X135751009Y-74301904D01*
X135751009Y-74301904D02*
X135703390Y-74254285D01*
X135703390Y-74254285D02*
X135655771Y-74159047D01*
X135655771Y-74159047D02*
X135655771Y-73920952D01*
X135655771Y-73920952D02*
X135703390Y-73825714D01*
X135703390Y-73825714D02*
X135751009Y-73778095D01*
X135751009Y-73778095D02*
X135846247Y-73730476D01*
X135846247Y-73730476D02*
X136084342Y-73730476D01*
X136084342Y-73730476D02*
X136179580Y-73778095D01*
X136179580Y-73778095D02*
X136227200Y-73825714D01*
X136227200Y-73825714D02*
X136274819Y-73920952D01*
X136274819Y-73920952D02*
X136274819Y-74159047D01*
X136274819Y-74159047D02*
X136227200Y-74254285D01*
X136227200Y-74254285D02*
X136179580Y-74301904D01*
X130504819Y-99566666D02*
X130028628Y-99899999D01*
X130504819Y-100138094D02*
X129504819Y-100138094D01*
X129504819Y-100138094D02*
X129504819Y-99757142D01*
X129504819Y-99757142D02*
X129552438Y-99661904D01*
X129552438Y-99661904D02*
X129600057Y-99614285D01*
X129600057Y-99614285D02*
X129695295Y-99566666D01*
X129695295Y-99566666D02*
X129838152Y-99566666D01*
X129838152Y-99566666D02*
X129933390Y-99614285D01*
X129933390Y-99614285D02*
X129981009Y-99661904D01*
X129981009Y-99661904D02*
X130028628Y-99757142D01*
X130028628Y-99757142D02*
X130028628Y-100138094D01*
X129933390Y-98995237D02*
X129885771Y-99090475D01*
X129885771Y-99090475D02*
X129838152Y-99138094D01*
X129838152Y-99138094D02*
X129742914Y-99185713D01*
X129742914Y-99185713D02*
X129695295Y-99185713D01*
X129695295Y-99185713D02*
X129600057Y-99138094D01*
X129600057Y-99138094D02*
X129552438Y-99090475D01*
X129552438Y-99090475D02*
X129504819Y-98995237D01*
X129504819Y-98995237D02*
X129504819Y-98804761D01*
X129504819Y-98804761D02*
X129552438Y-98709523D01*
X129552438Y-98709523D02*
X129600057Y-98661904D01*
X129600057Y-98661904D02*
X129695295Y-98614285D01*
X129695295Y-98614285D02*
X129742914Y-98614285D01*
X129742914Y-98614285D02*
X129838152Y-98661904D01*
X129838152Y-98661904D02*
X129885771Y-98709523D01*
X129885771Y-98709523D02*
X129933390Y-98804761D01*
X129933390Y-98804761D02*
X129933390Y-98995237D01*
X129933390Y-98995237D02*
X129981009Y-99090475D01*
X129981009Y-99090475D02*
X130028628Y-99138094D01*
X130028628Y-99138094D02*
X130123866Y-99185713D01*
X130123866Y-99185713D02*
X130314342Y-99185713D01*
X130314342Y-99185713D02*
X130409580Y-99138094D01*
X130409580Y-99138094D02*
X130457200Y-99090475D01*
X130457200Y-99090475D02*
X130504819Y-98995237D01*
X130504819Y-98995237D02*
X130504819Y-98804761D01*
X130504819Y-98804761D02*
X130457200Y-98709523D01*
X130457200Y-98709523D02*
X130409580Y-98661904D01*
X130409580Y-98661904D02*
X130314342Y-98614285D01*
X130314342Y-98614285D02*
X130123866Y-98614285D01*
X130123866Y-98614285D02*
X130028628Y-98661904D01*
X130028628Y-98661904D02*
X129981009Y-98709523D01*
X129981009Y-98709523D02*
X129933390Y-98804761D01*
X169754761Y-93360057D02*
X169659523Y-93312438D01*
X169659523Y-93312438D02*
X169564285Y-93217200D01*
X169564285Y-93217200D02*
X169421428Y-93074342D01*
X169421428Y-93074342D02*
X169326190Y-93026723D01*
X169326190Y-93026723D02*
X169230952Y-93026723D01*
X169278571Y-93264819D02*
X169183333Y-93217200D01*
X169183333Y-93217200D02*
X169088095Y-93121961D01*
X169088095Y-93121961D02*
X169040476Y-92931485D01*
X169040476Y-92931485D02*
X169040476Y-92598152D01*
X169040476Y-92598152D02*
X169088095Y-92407676D01*
X169088095Y-92407676D02*
X169183333Y-92312438D01*
X169183333Y-92312438D02*
X169278571Y-92264819D01*
X169278571Y-92264819D02*
X169469047Y-92264819D01*
X169469047Y-92264819D02*
X169564285Y-92312438D01*
X169564285Y-92312438D02*
X169659523Y-92407676D01*
X169659523Y-92407676D02*
X169707142Y-92598152D01*
X169707142Y-92598152D02*
X169707142Y-92931485D01*
X169707142Y-92931485D02*
X169659523Y-93121961D01*
X169659523Y-93121961D02*
X169564285Y-93217200D01*
X169564285Y-93217200D02*
X169469047Y-93264819D01*
X169469047Y-93264819D02*
X169278571Y-93264819D01*
X170564285Y-92598152D02*
X170564285Y-93264819D01*
X170326190Y-92217200D02*
X170088095Y-92931485D01*
X170088095Y-92931485D02*
X170707142Y-92931485D01*
X161424819Y-76032857D02*
X160948628Y-76366190D01*
X161424819Y-76604285D02*
X160424819Y-76604285D01*
X160424819Y-76604285D02*
X160424819Y-76223333D01*
X160424819Y-76223333D02*
X160472438Y-76128095D01*
X160472438Y-76128095D02*
X160520057Y-76080476D01*
X160520057Y-76080476D02*
X160615295Y-76032857D01*
X160615295Y-76032857D02*
X160758152Y-76032857D01*
X160758152Y-76032857D02*
X160853390Y-76080476D01*
X160853390Y-76080476D02*
X160901009Y-76128095D01*
X160901009Y-76128095D02*
X160948628Y-76223333D01*
X160948628Y-76223333D02*
X160948628Y-76604285D01*
X161424819Y-75080476D02*
X161424819Y-75651904D01*
X161424819Y-75366190D02*
X160424819Y-75366190D01*
X160424819Y-75366190D02*
X160567676Y-75461428D01*
X160567676Y-75461428D02*
X160662914Y-75556666D01*
X160662914Y-75556666D02*
X160710533Y-75651904D01*
X160758152Y-74223333D02*
X161424819Y-74223333D01*
X160377200Y-74461428D02*
X161091485Y-74699523D01*
X161091485Y-74699523D02*
X161091485Y-74080476D01*
X129279580Y-99604166D02*
X129327200Y-99651785D01*
X129327200Y-99651785D02*
X129374819Y-99794642D01*
X129374819Y-99794642D02*
X129374819Y-99889880D01*
X129374819Y-99889880D02*
X129327200Y-100032737D01*
X129327200Y-100032737D02*
X129231961Y-100127975D01*
X129231961Y-100127975D02*
X129136723Y-100175594D01*
X129136723Y-100175594D02*
X128946247Y-100223213D01*
X128946247Y-100223213D02*
X128803390Y-100223213D01*
X128803390Y-100223213D02*
X128612914Y-100175594D01*
X128612914Y-100175594D02*
X128517676Y-100127975D01*
X128517676Y-100127975D02*
X128422438Y-100032737D01*
X128422438Y-100032737D02*
X128374819Y-99889880D01*
X128374819Y-99889880D02*
X128374819Y-99794642D01*
X128374819Y-99794642D02*
X128422438Y-99651785D01*
X128422438Y-99651785D02*
X128470057Y-99604166D01*
X129374819Y-99127975D02*
X129374819Y-98937499D01*
X129374819Y-98937499D02*
X129327200Y-98842261D01*
X129327200Y-98842261D02*
X129279580Y-98794642D01*
X129279580Y-98794642D02*
X129136723Y-98699404D01*
X129136723Y-98699404D02*
X128946247Y-98651785D01*
X128946247Y-98651785D02*
X128565295Y-98651785D01*
X128565295Y-98651785D02*
X128470057Y-98699404D01*
X128470057Y-98699404D02*
X128422438Y-98747023D01*
X128422438Y-98747023D02*
X128374819Y-98842261D01*
X128374819Y-98842261D02*
X128374819Y-99032737D01*
X128374819Y-99032737D02*
X128422438Y-99127975D01*
X128422438Y-99127975D02*
X128470057Y-99175594D01*
X128470057Y-99175594D02*
X128565295Y-99223213D01*
X128565295Y-99223213D02*
X128803390Y-99223213D01*
X128803390Y-99223213D02*
X128898628Y-99175594D01*
X128898628Y-99175594D02*
X128946247Y-99127975D01*
X128946247Y-99127975D02*
X128993866Y-99032737D01*
X128993866Y-99032737D02*
X128993866Y-98842261D01*
X128993866Y-98842261D02*
X128946247Y-98747023D01*
X128946247Y-98747023D02*
X128898628Y-98699404D01*
X128898628Y-98699404D02*
X128803390Y-98651785D01*
X154716666Y-71034819D02*
X154716666Y-71749104D01*
X154716666Y-71749104D02*
X154669047Y-71891961D01*
X154669047Y-71891961D02*
X154573809Y-71987200D01*
X154573809Y-71987200D02*
X154430952Y-72034819D01*
X154430952Y-72034819D02*
X154335714Y-72034819D01*
X155621428Y-71034819D02*
X155430952Y-71034819D01*
X155430952Y-71034819D02*
X155335714Y-71082438D01*
X155335714Y-71082438D02*
X155288095Y-71130057D01*
X155288095Y-71130057D02*
X155192857Y-71272914D01*
X155192857Y-71272914D02*
X155145238Y-71463390D01*
X155145238Y-71463390D02*
X155145238Y-71844342D01*
X155145238Y-71844342D02*
X155192857Y-71939580D01*
X155192857Y-71939580D02*
X155240476Y-71987200D01*
X155240476Y-71987200D02*
X155335714Y-72034819D01*
X155335714Y-72034819D02*
X155526190Y-72034819D01*
X155526190Y-72034819D02*
X155621428Y-71987200D01*
X155621428Y-71987200D02*
X155669047Y-71939580D01*
X155669047Y-71939580D02*
X155716666Y-71844342D01*
X155716666Y-71844342D02*
X155716666Y-71606247D01*
X155716666Y-71606247D02*
X155669047Y-71511009D01*
X155669047Y-71511009D02*
X155621428Y-71463390D01*
X155621428Y-71463390D02*
X155526190Y-71415771D01*
X155526190Y-71415771D02*
X155335714Y-71415771D01*
X155335714Y-71415771D02*
X155240476Y-71463390D01*
X155240476Y-71463390D02*
X155192857Y-71511009D01*
X155192857Y-71511009D02*
X155145238Y-71606247D01*
X119710476Y-71044819D02*
X119710476Y-71759104D01*
X119710476Y-71759104D02*
X119662857Y-71901961D01*
X119662857Y-71901961D02*
X119567619Y-71997200D01*
X119567619Y-71997200D02*
X119424762Y-72044819D01*
X119424762Y-72044819D02*
X119329524Y-72044819D01*
X120710476Y-72044819D02*
X120139048Y-72044819D01*
X120424762Y-72044819D02*
X120424762Y-71044819D01*
X120424762Y-71044819D02*
X120329524Y-71187676D01*
X120329524Y-71187676D02*
X120234286Y-71282914D01*
X120234286Y-71282914D02*
X120139048Y-71330533D01*
X121043810Y-71044819D02*
X121662857Y-71044819D01*
X121662857Y-71044819D02*
X121329524Y-71425771D01*
X121329524Y-71425771D02*
X121472381Y-71425771D01*
X121472381Y-71425771D02*
X121567619Y-71473390D01*
X121567619Y-71473390D02*
X121615238Y-71521009D01*
X121615238Y-71521009D02*
X121662857Y-71616247D01*
X121662857Y-71616247D02*
X121662857Y-71854342D01*
X121662857Y-71854342D02*
X121615238Y-71949580D01*
X121615238Y-71949580D02*
X121567619Y-71997200D01*
X121567619Y-71997200D02*
X121472381Y-72044819D01*
X121472381Y-72044819D02*
X121186667Y-72044819D01*
X121186667Y-72044819D02*
X121091429Y-71997200D01*
X121091429Y-71997200D02*
X121043810Y-71949580D01*
X152443333Y-89114819D02*
X152110000Y-88638628D01*
X151871905Y-89114819D02*
X151871905Y-88114819D01*
X151871905Y-88114819D02*
X152252857Y-88114819D01*
X152252857Y-88114819D02*
X152348095Y-88162438D01*
X152348095Y-88162438D02*
X152395714Y-88210057D01*
X152395714Y-88210057D02*
X152443333Y-88305295D01*
X152443333Y-88305295D02*
X152443333Y-88448152D01*
X152443333Y-88448152D02*
X152395714Y-88543390D01*
X152395714Y-88543390D02*
X152348095Y-88591009D01*
X152348095Y-88591009D02*
X152252857Y-88638628D01*
X152252857Y-88638628D02*
X151871905Y-88638628D01*
X152919524Y-89114819D02*
X153110000Y-89114819D01*
X153110000Y-89114819D02*
X153205238Y-89067200D01*
X153205238Y-89067200D02*
X153252857Y-89019580D01*
X153252857Y-89019580D02*
X153348095Y-88876723D01*
X153348095Y-88876723D02*
X153395714Y-88686247D01*
X153395714Y-88686247D02*
X153395714Y-88305295D01*
X153395714Y-88305295D02*
X153348095Y-88210057D01*
X153348095Y-88210057D02*
X153300476Y-88162438D01*
X153300476Y-88162438D02*
X153205238Y-88114819D01*
X153205238Y-88114819D02*
X153014762Y-88114819D01*
X153014762Y-88114819D02*
X152919524Y-88162438D01*
X152919524Y-88162438D02*
X152871905Y-88210057D01*
X152871905Y-88210057D02*
X152824286Y-88305295D01*
X152824286Y-88305295D02*
X152824286Y-88543390D01*
X152824286Y-88543390D02*
X152871905Y-88638628D01*
X152871905Y-88638628D02*
X152919524Y-88686247D01*
X152919524Y-88686247D02*
X153014762Y-88733866D01*
X153014762Y-88733866D02*
X153205238Y-88733866D01*
X153205238Y-88733866D02*
X153300476Y-88686247D01*
X153300476Y-88686247D02*
X153348095Y-88638628D01*
X153348095Y-88638628D02*
X153395714Y-88543390D01*
X158059642Y-82889580D02*
X158012023Y-82937200D01*
X158012023Y-82937200D02*
X157869166Y-82984819D01*
X157869166Y-82984819D02*
X157773928Y-82984819D01*
X157773928Y-82984819D02*
X157631071Y-82937200D01*
X157631071Y-82937200D02*
X157535833Y-82841961D01*
X157535833Y-82841961D02*
X157488214Y-82746723D01*
X157488214Y-82746723D02*
X157440595Y-82556247D01*
X157440595Y-82556247D02*
X157440595Y-82413390D01*
X157440595Y-82413390D02*
X157488214Y-82222914D01*
X157488214Y-82222914D02*
X157535833Y-82127676D01*
X157535833Y-82127676D02*
X157631071Y-82032438D01*
X157631071Y-82032438D02*
X157773928Y-81984819D01*
X157773928Y-81984819D02*
X157869166Y-81984819D01*
X157869166Y-81984819D02*
X158012023Y-82032438D01*
X158012023Y-82032438D02*
X158059642Y-82080057D01*
X159012023Y-82984819D02*
X158440595Y-82984819D01*
X158726309Y-82984819D02*
X158726309Y-81984819D01*
X158726309Y-81984819D02*
X158631071Y-82127676D01*
X158631071Y-82127676D02*
X158535833Y-82222914D01*
X158535833Y-82222914D02*
X158440595Y-82270533D01*
X159345357Y-81984819D02*
X159964404Y-81984819D01*
X159964404Y-81984819D02*
X159631071Y-82365771D01*
X159631071Y-82365771D02*
X159773928Y-82365771D01*
X159773928Y-82365771D02*
X159869166Y-82413390D01*
X159869166Y-82413390D02*
X159916785Y-82461009D01*
X159916785Y-82461009D02*
X159964404Y-82556247D01*
X159964404Y-82556247D02*
X159964404Y-82794342D01*
X159964404Y-82794342D02*
X159916785Y-82889580D01*
X159916785Y-82889580D02*
X159869166Y-82937200D01*
X159869166Y-82937200D02*
X159773928Y-82984819D01*
X159773928Y-82984819D02*
X159488214Y-82984819D01*
X159488214Y-82984819D02*
X159392976Y-82937200D01*
X159392976Y-82937200D02*
X159345357Y-82889580D01*
X183713333Y-84024819D02*
X183237143Y-84024819D01*
X183237143Y-84024819D02*
X183237143Y-83024819D01*
X184570476Y-84024819D02*
X183999048Y-84024819D01*
X184284762Y-84024819D02*
X184284762Y-83024819D01*
X184284762Y-83024819D02*
X184189524Y-83167676D01*
X184189524Y-83167676D02*
X184094286Y-83262914D01*
X184094286Y-83262914D02*
X183999048Y-83310533D01*
X110442142Y-103844819D02*
X110108809Y-103368628D01*
X109870714Y-103844819D02*
X109870714Y-102844819D01*
X109870714Y-102844819D02*
X110251666Y-102844819D01*
X110251666Y-102844819D02*
X110346904Y-102892438D01*
X110346904Y-102892438D02*
X110394523Y-102940057D01*
X110394523Y-102940057D02*
X110442142Y-103035295D01*
X110442142Y-103035295D02*
X110442142Y-103178152D01*
X110442142Y-103178152D02*
X110394523Y-103273390D01*
X110394523Y-103273390D02*
X110346904Y-103321009D01*
X110346904Y-103321009D02*
X110251666Y-103368628D01*
X110251666Y-103368628D02*
X109870714Y-103368628D01*
X110823095Y-102940057D02*
X110870714Y-102892438D01*
X110870714Y-102892438D02*
X110965952Y-102844819D01*
X110965952Y-102844819D02*
X111204047Y-102844819D01*
X111204047Y-102844819D02*
X111299285Y-102892438D01*
X111299285Y-102892438D02*
X111346904Y-102940057D01*
X111346904Y-102940057D02*
X111394523Y-103035295D01*
X111394523Y-103035295D02*
X111394523Y-103130533D01*
X111394523Y-103130533D02*
X111346904Y-103273390D01*
X111346904Y-103273390D02*
X110775476Y-103844819D01*
X110775476Y-103844819D02*
X111394523Y-103844819D01*
X112346904Y-103844819D02*
X111775476Y-103844819D01*
X112061190Y-103844819D02*
X112061190Y-102844819D01*
X112061190Y-102844819D02*
X111965952Y-102987676D01*
X111965952Y-102987676D02*
X111870714Y-103082914D01*
X111870714Y-103082914D02*
X111775476Y-103130533D01*
X110746905Y-109714819D02*
X110746905Y-108714819D01*
X110746905Y-108714819D02*
X110985000Y-108714819D01*
X110985000Y-108714819D02*
X111127857Y-108762438D01*
X111127857Y-108762438D02*
X111223095Y-108857676D01*
X111223095Y-108857676D02*
X111270714Y-108952914D01*
X111270714Y-108952914D02*
X111318333Y-109143390D01*
X111318333Y-109143390D02*
X111318333Y-109286247D01*
X111318333Y-109286247D02*
X111270714Y-109476723D01*
X111270714Y-109476723D02*
X111223095Y-109571961D01*
X111223095Y-109571961D02*
X111127857Y-109667200D01*
X111127857Y-109667200D02*
X110985000Y-109714819D01*
X110985000Y-109714819D02*
X110746905Y-109714819D01*
X111651667Y-108714819D02*
X112318333Y-108714819D01*
X112318333Y-108714819D02*
X111889762Y-109714819D01*
D14*
%TO.C,AE1*%
X178600000Y-71190000D02*
X179240000Y-71190000D01*
X180760000Y-71190000D02*
X180760000Y-70560000D01*
X181350000Y-73910000D02*
X178650000Y-73910000D01*
X181400000Y-71190000D02*
X180760000Y-71190000D01*
%TO.C,J21*%
X150500000Y-105480000D02*
X158240000Y-105480000D01*
X150500000Y-108080000D02*
X150500000Y-105480000D01*
X150500000Y-110680000D02*
X150500000Y-109350000D01*
X151830000Y-110680000D02*
X150500000Y-110680000D01*
X153100000Y-108080000D02*
X150500000Y-108080000D01*
X153100000Y-110680000D02*
X153100000Y-108080000D01*
X153100000Y-110680000D02*
X158240000Y-110680000D01*
X158240000Y-110680000D02*
X158240000Y-105480000D01*
%TO.C,U3*%
X170690000Y-74740000D02*
X180390000Y-74740000D01*
X170700000Y-85060000D02*
X180400000Y-85060000D01*
X170110000Y-74890000D02*
X169870000Y-74560000D01*
X170350000Y-74560000D01*
X170110000Y-74890000D01*
G36*
X170110000Y-74890000D02*
G01*
X169870000Y-74560000D01*
X170350000Y-74560000D01*
X170110000Y-74890000D01*
G37*
%TO.C,J16*%
X138780000Y-119580000D02*
X138780000Y-125800000D01*
X138780000Y-125800000D02*
X142500000Y-125800000D01*
X138980000Y-119780000D02*
X138980000Y-125600000D01*
X138980000Y-125600000D02*
X140740000Y-125600000D01*
X140740000Y-119780000D02*
X138980000Y-119780000D01*
X140740000Y-119780000D02*
X140740000Y-119580000D01*
X140740000Y-125600000D02*
X140740000Y-125800000D01*
X141440000Y-119580000D02*
X141440000Y-119780000D01*
X141440000Y-119780000D02*
X140740000Y-119780000D01*
X141440000Y-119780000D02*
X142300000Y-119780000D01*
X141440000Y-125600000D02*
X140740000Y-125600000D01*
X141440000Y-125600000D02*
X141440000Y-125800000D01*
X142300000Y-119780000D02*
X142300000Y-125600000D01*
X142300000Y-125600000D02*
X141440000Y-125600000D01*
X142500000Y-119580000D02*
X138780000Y-119580000D01*
X142500000Y-125800000D02*
X142500000Y-119580000D01*
X142800000Y-119280000D02*
X141550000Y-119280000D01*
X142800000Y-120530000D02*
X142800000Y-119280000D01*
%TO.C,C10*%
X183688748Y-76465000D02*
X184211252Y-76465000D01*
X183688748Y-77935000D02*
X184211252Y-77935000D01*
%TO.C,TP5*%
X183890000Y-115810000D02*
G75*
G02*
X181490000Y-115810000I-1200000J0D01*
G01*
X181490000Y-115810000D02*
G75*
G02*
X183890000Y-115810000I1200000J0D01*
G01*
%TO.C,Q3*%
X157865000Y-111935000D02*
X155915000Y-111935000D01*
X157865000Y-111935000D02*
X159815000Y-111935000D01*
X157865000Y-117055000D02*
X155915000Y-117055000D01*
X157865000Y-117055000D02*
X159815000Y-117055000D01*
X155165000Y-112030000D02*
X154925000Y-111700000D01*
X155405000Y-111700000D01*
X155165000Y-112030000D01*
G36*
X155165000Y-112030000D02*
G01*
X154925000Y-111700000D01*
X155405000Y-111700000D01*
X155165000Y-112030000D01*
G37*
%TO.C,R7*%
X129172936Y-93865000D02*
X129627064Y-93865000D01*
X129172936Y-95335000D02*
X129627064Y-95335000D01*
%TO.C,TP1*%
X183890000Y-103210000D02*
G75*
G02*
X181490000Y-103210000I-1200000J0D01*
G01*
X181490000Y-103210000D02*
G75*
G02*
X183890000Y-103210000I1200000J0D01*
G01*
%TO.C,J8*%
X144180000Y-69380000D02*
X144180000Y-70630000D01*
X144180000Y-70630000D02*
X145430000Y-70630000D01*
X144480000Y-64110000D02*
X144480000Y-70330000D01*
X144480000Y-70330000D02*
X148200000Y-70330000D01*
X144680000Y-64310000D02*
X145540000Y-64310000D01*
X144680000Y-70130000D02*
X144680000Y-64310000D01*
X145540000Y-64310000D02*
X145540000Y-64110000D01*
X145540000Y-64310000D02*
X146240000Y-64310000D01*
X145540000Y-70130000D02*
X144680000Y-70130000D01*
X145540000Y-70130000D02*
X146240000Y-70130000D01*
X145540000Y-70330000D02*
X145540000Y-70130000D01*
X146240000Y-64310000D02*
X146240000Y-64110000D01*
X146240000Y-70130000D02*
X146240000Y-70330000D01*
X146240000Y-70130000D02*
X148000000Y-70130000D01*
X148000000Y-64310000D02*
X146240000Y-64310000D01*
X148000000Y-70130000D02*
X148000000Y-64310000D01*
X148200000Y-64110000D02*
X144480000Y-64110000D01*
X148200000Y-70330000D02*
X148200000Y-64110000D01*
%TO.C,J3*%
X135245000Y-105635000D02*
X142985000Y-105635000D01*
X135245000Y-108235000D02*
X135245000Y-105635000D01*
X135245000Y-110835000D02*
X135245000Y-109505000D01*
X136575000Y-110835000D02*
X135245000Y-110835000D01*
X137845000Y-108235000D02*
X135245000Y-108235000D01*
X137845000Y-110835000D02*
X137845000Y-108235000D01*
X137845000Y-110835000D02*
X142985000Y-110835000D01*
X142985000Y-110835000D02*
X142985000Y-105635000D01*
%TO.C,J20*%
X181310000Y-94800000D02*
X181310000Y-96050000D01*
X181310000Y-96050000D02*
X182560000Y-96050000D01*
X181610000Y-88030000D02*
X181610000Y-95750000D01*
X181610000Y-95750000D02*
X185330000Y-95750000D01*
X181810000Y-88230000D02*
X182670000Y-88230000D01*
X181810000Y-95550000D02*
X181810000Y-88230000D01*
X182670000Y-88230000D02*
X182670000Y-88030000D01*
X182670000Y-88230000D02*
X183370000Y-88230000D01*
X182670000Y-95550000D02*
X181810000Y-95550000D01*
X182670000Y-95550000D02*
X183370000Y-95550000D01*
X182670000Y-95750000D02*
X182670000Y-95550000D01*
X183370000Y-88230000D02*
X183370000Y-88030000D01*
X183370000Y-95550000D02*
X183370000Y-95750000D01*
X183370000Y-95550000D02*
X185130000Y-95550000D01*
X185130000Y-88230000D02*
X183370000Y-88230000D01*
X185130000Y-95550000D02*
X185130000Y-88230000D01*
X185330000Y-88030000D02*
X181610000Y-88030000D01*
X185330000Y-95750000D02*
X185330000Y-88030000D01*
%TO.C,D2*%
X122315000Y-75885000D02*
X122315000Y-78155000D01*
X122315000Y-78155000D02*
X126200000Y-78155000D01*
X126200000Y-75885000D02*
X122315000Y-75885000D01*
%TO.C,R26*%
X173025000Y-110002064D02*
X173025000Y-109547936D01*
X174495000Y-110002064D02*
X174495000Y-109547936D01*
%TO.C,JP1*%
X166810000Y-71570000D02*
X166810000Y-70970000D01*
X167510000Y-70270000D02*
X168910000Y-70270000D01*
X168910000Y-72270000D02*
X167510000Y-72270000D01*
X169610000Y-70970000D02*
X169610000Y-71570000D01*
X166810000Y-70970000D02*
G75*
G02*
X167510000Y-70270000I699999J1D01*
G01*
X167510000Y-72270000D02*
G75*
G02*
X166810000Y-71570000I-1J699999D01*
G01*
X168910000Y-70270000D02*
G75*
G02*
X169610000Y-70970000I0J-700000D01*
G01*
X169610000Y-71570000D02*
G75*
G02*
X168910000Y-72270000I-700000J0D01*
G01*
%TO.C,C16*%
X152508748Y-82255000D02*
X153031252Y-82255000D01*
X152508748Y-83725000D02*
X153031252Y-83725000D01*
%TO.C,R1*%
X125227064Y-74065000D02*
X124772936Y-74065000D01*
X125227064Y-75535000D02*
X124772936Y-75535000D01*
%TO.C,C14*%
X166905000Y-80351252D02*
X166905000Y-79828748D01*
X168375000Y-80351252D02*
X168375000Y-79828748D01*
%TO.C,SW3*%
X124630000Y-121820000D02*
X124630000Y-125120000D01*
X124630000Y-125120000D02*
X124930000Y-125120000D01*
X124930000Y-121820000D02*
X124630000Y-121820000D01*
X127130000Y-121820000D02*
X127430000Y-121820000D01*
X127430000Y-121820000D02*
X127430000Y-125120000D01*
X127430000Y-125120000D02*
X127130000Y-125120000D01*
%TO.C,D1*%
X118350000Y-77240000D02*
X118350000Y-82750000D01*
X121650000Y-77240000D02*
X118350000Y-77240000D01*
X121650000Y-77240000D02*
X121650000Y-82750000D01*
%TO.C,SW2*%
X124630000Y-116660000D02*
X124630000Y-119960000D01*
X124630000Y-119960000D02*
X124930000Y-119960000D01*
X124930000Y-116660000D02*
X124630000Y-116660000D01*
X127130000Y-116660000D02*
X127430000Y-116660000D01*
X127430000Y-116660000D02*
X127430000Y-119960000D01*
X127430000Y-119960000D02*
X127130000Y-119960000D01*
%TO.C,R2*%
X120362936Y-100475000D02*
X120817064Y-100475000D01*
X120362936Y-101945000D02*
X120817064Y-101945000D01*
%TO.C,C15*%
X148578748Y-82245000D02*
X149101252Y-82245000D01*
X148578748Y-83715000D02*
X149101252Y-83715000D01*
%TO.C,R5*%
X122915000Y-113712936D02*
X122915000Y-114167064D01*
X124385000Y-113712936D02*
X124385000Y-114167064D01*
%TO.C,R19*%
X153065000Y-80227064D02*
X153065000Y-79772936D01*
X154535000Y-80227064D02*
X154535000Y-79772936D01*
%TO.C,R23*%
X132955000Y-73377064D02*
X132955000Y-72922936D01*
X134425000Y-73377064D02*
X134425000Y-72922936D01*
%TO.C,Q7*%
X136190000Y-76500000D02*
X136190000Y-77900000D01*
X138510000Y-76490000D02*
X138510000Y-77900000D01*
X138790000Y-76360000D02*
X138460000Y-76120000D01*
X138790000Y-75880000D01*
X138790000Y-76360000D01*
G36*
X138790000Y-76360000D02*
G01*
X138460000Y-76120000D01*
X138790000Y-75880000D01*
X138790000Y-76360000D01*
G37*
%TO.C,D3*%
X122665000Y-97615000D02*
X122665000Y-101500000D01*
X124935000Y-97615000D02*
X122665000Y-97615000D01*
X124935000Y-101500000D02*
X124935000Y-97615000D01*
%TO.C,R29*%
X128465000Y-81372936D02*
X128465000Y-81827064D01*
X129935000Y-81372936D02*
X129935000Y-81827064D01*
%TO.C,J23*%
X160470000Y-124440000D02*
X160470000Y-127100000D01*
X160470000Y-127100000D02*
X175830000Y-127100000D01*
X161420000Y-121502929D02*
X161420000Y-121957071D01*
X161420000Y-124042929D02*
X161420000Y-124440000D01*
X161420000Y-133100000D02*
X161420000Y-127100000D01*
X162180000Y-121502929D02*
X162180000Y-121957071D01*
X162180000Y-124042929D02*
X162180000Y-124440000D01*
X162180000Y-127100000D02*
X162180000Y-133100000D01*
X162180000Y-133100000D02*
X161420000Y-133100000D01*
X163070000Y-124440000D02*
X163070000Y-127100000D01*
X163960000Y-121502929D02*
X163960000Y-121957071D01*
X163960000Y-124042929D02*
X163960000Y-124440000D01*
X163960000Y-133100000D02*
X163960000Y-127100000D01*
X164720000Y-121502929D02*
X164720000Y-121957071D01*
X164720000Y-124042929D02*
X164720000Y-124440000D01*
X164720000Y-127100000D02*
X164720000Y-133100000D01*
X164720000Y-133100000D02*
X163960000Y-133100000D01*
X165610000Y-124440000D02*
X165610000Y-127100000D01*
X166500000Y-121502929D02*
X166500000Y-121957071D01*
X166500000Y-124042929D02*
X166500000Y-124440000D01*
X166500000Y-133100000D02*
X166500000Y-127100000D01*
X167260000Y-121502929D02*
X167260000Y-121957071D01*
X167260000Y-124042929D02*
X167260000Y-124440000D01*
X167260000Y-127100000D02*
X167260000Y-133100000D01*
X167260000Y-133100000D02*
X166500000Y-133100000D01*
X168150000Y-124440000D02*
X168150000Y-127100000D01*
X169040000Y-121502929D02*
X169040000Y-121957071D01*
X169040000Y-124042929D02*
X169040000Y-124440000D01*
X169040000Y-133100000D02*
X169040000Y-127100000D01*
X169800000Y-121502929D02*
X169800000Y-121957071D01*
X169800000Y-124042929D02*
X169800000Y-124440000D01*
X169800000Y-127100000D02*
X169800000Y-133100000D01*
X169800000Y-133100000D02*
X169040000Y-133100000D01*
X170690000Y-124440000D02*
X170690000Y-127100000D01*
X171580000Y-121502929D02*
X171580000Y-121957071D01*
X171580000Y-124042929D02*
X171580000Y-124440000D01*
X171580000Y-133100000D02*
X171580000Y-127100000D01*
X172340000Y-121502929D02*
X172340000Y-121957071D01*
X172340000Y-124042929D02*
X172340000Y-124440000D01*
X172340000Y-127100000D02*
X172340000Y-133100000D01*
X172340000Y-133100000D02*
X171580000Y-133100000D01*
X173230000Y-124440000D02*
X173230000Y-127100000D01*
X174120000Y-121570000D02*
X174120000Y-121957071D01*
X174120000Y-124042929D02*
X174120000Y-124440000D01*
X174120000Y-133100000D02*
X174120000Y-127100000D01*
X174220000Y-127100000D02*
X174220000Y-133100000D01*
X174340000Y-127100000D02*
X174340000Y-133100000D01*
X174460000Y-127100000D02*
X174460000Y-133100000D01*
X174500000Y-119190000D02*
X175770000Y-119190000D01*
X174580000Y-127100000D02*
X174580000Y-133100000D01*
X174700000Y-127100000D02*
X174700000Y-133100000D01*
X174820000Y-127100000D02*
X174820000Y-133100000D01*
X174880000Y-121570000D02*
X174880000Y-121957071D01*
X174880000Y-124042929D02*
X174880000Y-124440000D01*
X174880000Y-127100000D02*
X174880000Y-133100000D01*
X174880000Y-133100000D02*
X174120000Y-133100000D01*
X175770000Y-119190000D02*
X175770000Y-120460000D01*
X175830000Y-124440000D02*
X160470000Y-124440000D01*
X175830000Y-127100000D02*
X175830000Y-124440000D01*
%TO.C,R13*%
X166485000Y-75617064D02*
X166485000Y-75162936D01*
X167955000Y-75617064D02*
X167955000Y-75162936D01*
%TO.C,R11*%
X183722936Y-78465000D02*
X184177064Y-78465000D01*
X183722936Y-79935000D02*
X184177064Y-79935000D01*
%TO.C,R25*%
X131265000Y-81372936D02*
X131265000Y-81827064D01*
X132735000Y-81372936D02*
X132735000Y-81827064D01*
%TO.C,C6*%
X111348752Y-115725000D02*
X110826248Y-115725000D01*
X111348752Y-117195000D02*
X110826248Y-117195000D01*
%TO.C,J2*%
X107555000Y-91440000D02*
X107815000Y-91440000D01*
X107815000Y-99060000D02*
X107555000Y-99060000D01*
X110095000Y-91440000D02*
X111865000Y-91440000D01*
X111865000Y-91440000D02*
X111865000Y-91820000D01*
X111865000Y-99060000D02*
X110095000Y-99060000D01*
X111865000Y-99060000D02*
X111865000Y-98680000D01*
%TO.C,TP2*%
X183890000Y-107410000D02*
G75*
G02*
X181490000Y-107410000I-1200000J0D01*
G01*
X181490000Y-107410000D02*
G75*
G02*
X183890000Y-107410000I1200000J0D01*
G01*
%TO.C,J10*%
X129220000Y-119570000D02*
X129220000Y-125790000D01*
X129220000Y-125790000D02*
X132940000Y-125790000D01*
X129420000Y-119770000D02*
X129420000Y-125590000D01*
X129420000Y-125590000D02*
X131180000Y-125590000D01*
X131180000Y-119770000D02*
X129420000Y-119770000D01*
X131180000Y-119770000D02*
X131180000Y-119570000D01*
X131180000Y-125590000D02*
X131180000Y-125790000D01*
X131880000Y-119570000D02*
X131880000Y-119770000D01*
X131880000Y-119770000D02*
X131180000Y-119770000D01*
X131880000Y-119770000D02*
X132740000Y-119770000D01*
X131880000Y-125590000D02*
X131180000Y-125590000D01*
X131880000Y-125590000D02*
X131880000Y-125790000D01*
X132740000Y-119770000D02*
X132740000Y-125590000D01*
X132740000Y-125590000D02*
X131880000Y-125590000D01*
X132940000Y-119570000D02*
X129220000Y-119570000D01*
X132940000Y-125790000D02*
X132940000Y-119570000D01*
X133240000Y-119270000D02*
X131990000Y-119270000D01*
X133240000Y-120520000D02*
X133240000Y-119270000D01*
%TO.C,J14*%
X108590000Y-71190000D02*
X108590000Y-83310000D01*
X108590000Y-83310000D02*
X113310000Y-83310000D01*
X109200000Y-71800000D02*
X109200000Y-82700000D01*
X109200000Y-74150000D02*
X109700000Y-74150000D01*
X109200000Y-74250000D02*
X109700000Y-74250000D01*
X109200000Y-76150000D02*
X109700000Y-76150000D01*
X109200000Y-76250000D02*
X109700000Y-76250000D01*
X109200000Y-78150000D02*
X109700000Y-78150000D01*
X109200000Y-78250000D02*
X109700000Y-78250000D01*
X109200000Y-80150000D02*
X109700000Y-80150000D01*
X109200000Y-80250000D02*
X109700000Y-80250000D01*
X109200000Y-82700000D02*
X112700000Y-82700000D01*
X109700000Y-74150000D02*
X109700000Y-74350000D01*
X109700000Y-74350000D02*
X109200000Y-74350000D01*
X109700000Y-76150000D02*
X109700000Y-76350000D01*
X109700000Y-76350000D02*
X109200000Y-76350000D01*
X109700000Y-78150000D02*
X109700000Y-78350000D01*
X109700000Y-78350000D02*
X109200000Y-78350000D01*
X109700000Y-80150000D02*
X109700000Y-80350000D01*
X109700000Y-80350000D02*
X109200000Y-80350000D01*
X110700000Y-71190000D02*
X110700000Y-71800000D01*
X110700000Y-83310000D02*
X110700000Y-82700000D01*
X112000000Y-71190000D02*
X112000000Y-71800000D01*
X112000000Y-83310000D02*
X112000000Y-82700000D01*
X112700000Y-71800000D02*
X109200000Y-71800000D01*
X112700000Y-73750000D02*
X112700000Y-71800000D01*
X112700000Y-80750000D02*
X113310000Y-80750000D01*
X112700000Y-82700000D02*
X112700000Y-80750000D01*
X113310000Y-71190000D02*
X108590000Y-71190000D01*
X113310000Y-72950000D02*
X113510000Y-72950000D01*
X113310000Y-73750000D02*
X112700000Y-73750000D01*
X113310000Y-83310000D02*
X113310000Y-71190000D01*
X113410000Y-72950000D02*
X113410000Y-72650000D01*
X113510000Y-72650000D02*
X113310000Y-72650000D01*
X113510000Y-72950000D02*
X113510000Y-72650000D01*
X113610000Y-70890000D02*
X112360000Y-70890000D01*
X113610000Y-72140000D02*
X113610000Y-70890000D01*
%TO.C,C7*%
X151661252Y-95065000D02*
X151138748Y-95065000D01*
X151661252Y-96535000D02*
X151138748Y-96535000D01*
%TO.C,D5*%
X114650000Y-84260000D02*
X114650000Y-78750000D01*
X114650000Y-84260000D02*
X117950000Y-84260000D01*
X117950000Y-84260000D02*
X117950000Y-78750000D01*
%TO.C,J4*%
X131550000Y-117080000D02*
X131550000Y-115750000D01*
X132880000Y-117080000D02*
X131550000Y-117080000D01*
X134150000Y-114420000D02*
X141830000Y-114420000D01*
X134150000Y-117080000D02*
X134150000Y-114420000D01*
X134150000Y-117080000D02*
X141830000Y-117080000D01*
X141830000Y-117080000D02*
X141830000Y-114420000D01*
%TO.C,U1*%
X118210000Y-104155000D02*
X116260000Y-104155000D01*
X118210000Y-104155000D02*
X120160000Y-104155000D01*
X118210000Y-114275000D02*
X116260000Y-114275000D01*
X118210000Y-114275000D02*
X120160000Y-114275000D01*
X115510000Y-104210000D02*
X115270000Y-103880000D01*
X115750000Y-103880000D01*
X115510000Y-104210000D01*
G36*
X115510000Y-104210000D02*
G01*
X115270000Y-103880000D01*
X115750000Y-103880000D01*
X115510000Y-104210000D01*
G37*
%TO.C,TP3*%
X183890000Y-111610000D02*
G75*
G02*
X181490000Y-111610000I-1200000J0D01*
G01*
X181490000Y-111610000D02*
G75*
G02*
X183890000Y-111610000I1200000J0D01*
G01*
%TO.C,R20*%
X137265000Y-81372936D02*
X137265000Y-81827064D01*
X138735000Y-81372936D02*
X138735000Y-81827064D01*
%TO.C,J7*%
X148810000Y-69380000D02*
X148810000Y-70630000D01*
X148810000Y-70630000D02*
X150060000Y-70630000D01*
X149110000Y-64110000D02*
X149110000Y-70330000D01*
X149110000Y-70330000D02*
X152830000Y-70330000D01*
X149310000Y-64310000D02*
X150170000Y-64310000D01*
X149310000Y-70130000D02*
X149310000Y-64310000D01*
X150170000Y-64310000D02*
X150170000Y-64110000D01*
X150170000Y-64310000D02*
X150870000Y-64310000D01*
X150170000Y-70130000D02*
X149310000Y-70130000D01*
X150170000Y-70130000D02*
X150870000Y-70130000D01*
X150170000Y-70330000D02*
X150170000Y-70130000D01*
X150870000Y-64310000D02*
X150870000Y-64110000D01*
X150870000Y-70130000D02*
X150870000Y-70330000D01*
X150870000Y-70130000D02*
X152630000Y-70130000D01*
X152630000Y-64310000D02*
X150870000Y-64310000D01*
X152630000Y-70130000D02*
X152630000Y-64310000D01*
X152830000Y-64110000D02*
X149110000Y-64110000D01*
X152830000Y-70330000D02*
X152830000Y-64110000D01*
%TO.C,Q9*%
X163550000Y-86190000D02*
X167310000Y-86190000D01*
X163550000Y-93010000D02*
X167310000Y-93010000D01*
X167310000Y-86190000D02*
X167310000Y-87450000D01*
X167310000Y-93010000D02*
X167310000Y-91750000D01*
X162270000Y-86290000D02*
X162030000Y-85960000D01*
X162510000Y-85960000D01*
X162270000Y-86290000D01*
G36*
X162270000Y-86290000D02*
G01*
X162030000Y-85960000D01*
X162510000Y-85960000D01*
X162270000Y-86290000D01*
G37*
%TO.C,J11*%
X128600000Y-69350000D02*
X128600000Y-70600000D01*
X128600000Y-70600000D02*
X129850000Y-70600000D01*
X128900000Y-64080000D02*
X128900000Y-70300000D01*
X128900000Y-70300000D02*
X132620000Y-70300000D01*
X129100000Y-64280000D02*
X129960000Y-64280000D01*
X129100000Y-70100000D02*
X129100000Y-64280000D01*
X129960000Y-64280000D02*
X129960000Y-64080000D01*
X129960000Y-64280000D02*
X130660000Y-64280000D01*
X129960000Y-70100000D02*
X129100000Y-70100000D01*
X129960000Y-70100000D02*
X130660000Y-70100000D01*
X129960000Y-70300000D02*
X129960000Y-70100000D01*
X130660000Y-64280000D02*
X130660000Y-64080000D01*
X130660000Y-70100000D02*
X130660000Y-70300000D01*
X130660000Y-70100000D02*
X132420000Y-70100000D01*
X132420000Y-64280000D02*
X130660000Y-64280000D01*
X132420000Y-70100000D02*
X132420000Y-64280000D01*
X132620000Y-64080000D02*
X128900000Y-64080000D01*
X132620000Y-70300000D02*
X132620000Y-64080000D01*
%TO.C,J15*%
X134010000Y-119590000D02*
X134010000Y-125810000D01*
X134010000Y-125810000D02*
X137730000Y-125810000D01*
X134210000Y-119790000D02*
X134210000Y-125610000D01*
X134210000Y-125610000D02*
X135970000Y-125610000D01*
X135970000Y-119790000D02*
X134210000Y-119790000D01*
X135970000Y-119790000D02*
X135970000Y-119590000D01*
X135970000Y-125610000D02*
X135970000Y-125810000D01*
X136670000Y-119590000D02*
X136670000Y-119790000D01*
X136670000Y-119790000D02*
X135970000Y-119790000D01*
X136670000Y-119790000D02*
X137530000Y-119790000D01*
X136670000Y-125610000D02*
X135970000Y-125610000D01*
X136670000Y-125610000D02*
X136670000Y-125810000D01*
X137530000Y-119790000D02*
X137530000Y-125610000D01*
X137530000Y-125610000D02*
X136670000Y-125610000D01*
X137730000Y-119590000D02*
X134010000Y-119590000D01*
X137730000Y-125810000D02*
X137730000Y-119590000D01*
X138030000Y-119290000D02*
X136780000Y-119290000D01*
X138030000Y-120540000D02*
X138030000Y-119290000D01*
%TO.C,R3*%
X129172936Y-91665000D02*
X129627064Y-91665000D01*
X129172936Y-93135000D02*
X129627064Y-93135000D01*
D13*
%TO.C,U7*%
X145650000Y-112045000D02*
X145650000Y-112250000D01*
X145650000Y-112045000D02*
X151150000Y-112045000D01*
X145650000Y-117555000D02*
X145650000Y-117350000D01*
X145650000Y-117555000D02*
X151150000Y-117555000D01*
X151150000Y-112045000D02*
X151150000Y-112250000D01*
X151150000Y-117555000D02*
X151150000Y-117350000D01*
D14*
X145100000Y-112300000D02*
X144860000Y-111970000D01*
X145340000Y-111970000D01*
X145100000Y-112300000D01*
G36*
X145100000Y-112300000D02*
G01*
X144860000Y-111970000D01*
X145340000Y-111970000D01*
X145100000Y-112300000D01*
G37*
%TO.C,C1*%
X109065000Y-84990000D02*
X109065000Y-86190000D01*
X109065000Y-89510000D02*
X109065000Y-88310000D01*
X112520563Y-84990000D02*
X109065000Y-84990000D01*
X112520563Y-89510000D02*
X109065000Y-89510000D01*
X113585000Y-86054437D02*
X112520563Y-84990000D01*
X113585000Y-86054437D02*
X113585000Y-86190000D01*
X113585000Y-88445563D02*
X112520563Y-89510000D01*
X113585000Y-88445563D02*
X113585000Y-88310000D01*
X114075000Y-89060000D02*
X114075000Y-88560000D01*
X114325000Y-88810000D02*
X113825000Y-88810000D01*
%TO.C,C3*%
X120328748Y-98475000D02*
X120851252Y-98475000D01*
X120328748Y-99945000D02*
X120851252Y-99945000D01*
%TO.C,Q1*%
X173560000Y-112015000D02*
X171610000Y-112015000D01*
X173560000Y-112015000D02*
X175510000Y-112015000D01*
X173560000Y-117135000D02*
X171610000Y-117135000D01*
X173560000Y-117135000D02*
X175510000Y-117135000D01*
X170860000Y-112110000D02*
X170620000Y-111780000D01*
X171100000Y-111780000D01*
X170860000Y-112110000D01*
G36*
X170860000Y-112110000D02*
G01*
X170620000Y-111780000D01*
X171100000Y-111780000D01*
X170860000Y-112110000D01*
G37*
%TO.C,R24*%
X134265000Y-81372936D02*
X134265000Y-81827064D01*
X135735000Y-81372936D02*
X135735000Y-81827064D01*
%TO.C,J18*%
X148370000Y-119610000D02*
X148370000Y-125830000D01*
X148370000Y-125830000D02*
X152090000Y-125830000D01*
X148570000Y-119810000D02*
X148570000Y-125630000D01*
X148570000Y-125630000D02*
X150330000Y-125630000D01*
X150330000Y-119810000D02*
X148570000Y-119810000D01*
X150330000Y-119810000D02*
X150330000Y-119610000D01*
X150330000Y-125630000D02*
X150330000Y-125830000D01*
X151030000Y-119610000D02*
X151030000Y-119810000D01*
X151030000Y-119810000D02*
X150330000Y-119810000D01*
X151030000Y-119810000D02*
X151890000Y-119810000D01*
X151030000Y-125630000D02*
X150330000Y-125630000D01*
X151030000Y-125630000D02*
X151030000Y-125830000D01*
X151890000Y-119810000D02*
X151890000Y-125630000D01*
X151890000Y-125630000D02*
X151030000Y-125630000D01*
X152090000Y-119610000D02*
X148370000Y-119610000D01*
X152090000Y-125830000D02*
X152090000Y-119610000D01*
X152390000Y-119310000D02*
X151140000Y-119310000D01*
X152390000Y-120560000D02*
X152390000Y-119310000D01*
%TO.C,R4*%
X129627064Y-89465000D02*
X129172936Y-89465000D01*
X129627064Y-90935000D02*
X129172936Y-90935000D01*
%TO.C,J9*%
X139550000Y-69360000D02*
X139550000Y-70610000D01*
X139550000Y-70610000D02*
X140800000Y-70610000D01*
X139850000Y-64090000D02*
X139850000Y-70310000D01*
X139850000Y-70310000D02*
X143570000Y-70310000D01*
X140050000Y-64290000D02*
X140910000Y-64290000D01*
X140050000Y-70110000D02*
X140050000Y-64290000D01*
X140910000Y-64290000D02*
X140910000Y-64090000D01*
X140910000Y-64290000D02*
X141610000Y-64290000D01*
X140910000Y-70110000D02*
X140050000Y-70110000D01*
X140910000Y-70110000D02*
X141610000Y-70110000D01*
X140910000Y-70310000D02*
X140910000Y-70110000D01*
X141610000Y-64290000D02*
X141610000Y-64090000D01*
X141610000Y-70110000D02*
X141610000Y-70310000D01*
X141610000Y-70110000D02*
X143370000Y-70110000D01*
X143370000Y-64290000D02*
X141610000Y-64290000D01*
X143370000Y-70110000D02*
X143370000Y-64290000D01*
X143570000Y-64090000D02*
X139850000Y-64090000D01*
X143570000Y-70310000D02*
X143570000Y-64090000D01*
%TO.C,Q6*%
X133190000Y-76500000D02*
X133190000Y-77900000D01*
X135510000Y-76490000D02*
X135510000Y-77900000D01*
X135790000Y-76360000D02*
X135460000Y-76120000D01*
X135790000Y-75880000D01*
X135790000Y-76360000D01*
G36*
X135790000Y-76360000D02*
G01*
X135460000Y-76120000D01*
X135790000Y-75880000D01*
X135790000Y-76360000D01*
G37*
%TO.C,Q2*%
X165730000Y-111990000D02*
X163780000Y-111990000D01*
X165730000Y-111990000D02*
X167680000Y-111990000D01*
X165730000Y-117110000D02*
X163780000Y-117110000D01*
X165730000Y-117110000D02*
X167680000Y-117110000D01*
X163030000Y-112085000D02*
X162790000Y-111755000D01*
X163270000Y-111755000D01*
X163030000Y-112085000D01*
G36*
X163030000Y-112085000D02*
G01*
X162790000Y-111755000D01*
X163270000Y-111755000D01*
X163030000Y-112085000D01*
G37*
%TO.C,R16*%
X159665000Y-75627064D02*
X159665000Y-75172936D01*
X161135000Y-75627064D02*
X161135000Y-75172936D01*
%TO.C,R12*%
X183722936Y-82465000D02*
X184177064Y-82465000D01*
X183722936Y-83935000D02*
X184177064Y-83935000D01*
%TO.C,R17*%
X164285000Y-75617064D02*
X164285000Y-75162936D01*
X165755000Y-75617064D02*
X165755000Y-75162936D01*
%TO.C,R15*%
X157545000Y-75627064D02*
X157545000Y-75172936D01*
X159015000Y-75627064D02*
X159015000Y-75172936D01*
%TO.C,U5*%
X161640000Y-79315000D02*
X161640000Y-79090000D01*
X161640000Y-83150000D02*
X161640000Y-82625000D01*
X161640000Y-83150000D02*
X162165000Y-83150000D01*
X162165000Y-78850000D02*
X161940000Y-78850000D01*
X165940000Y-78850000D02*
X165415000Y-78850000D01*
X165940000Y-78850000D02*
X165940000Y-79375000D01*
X165940000Y-83150000D02*
X165415000Y-83150000D01*
X165940000Y-83150000D02*
X165940000Y-82625000D01*
X161640000Y-78850000D02*
X161400000Y-78520000D01*
X161880000Y-78520000D01*
X161640000Y-78850000D01*
G36*
X161640000Y-78850000D02*
G01*
X161400000Y-78520000D01*
X161880000Y-78520000D01*
X161640000Y-78850000D01*
G37*
%TO.C,J5*%
X158030000Y-69380000D02*
X158030000Y-70630000D01*
X158030000Y-70630000D02*
X159280000Y-70630000D01*
X158330000Y-64110000D02*
X158330000Y-70330000D01*
X158330000Y-70330000D02*
X162050000Y-70330000D01*
X158530000Y-64310000D02*
X159390000Y-64310000D01*
X158530000Y-70130000D02*
X158530000Y-64310000D01*
X159390000Y-64310000D02*
X159390000Y-64110000D01*
X159390000Y-64310000D02*
X160090000Y-64310000D01*
X159390000Y-70130000D02*
X158530000Y-70130000D01*
X159390000Y-70130000D02*
X160090000Y-70130000D01*
X159390000Y-70330000D02*
X159390000Y-70130000D01*
X160090000Y-64310000D02*
X160090000Y-64110000D01*
X160090000Y-70130000D02*
X160090000Y-70330000D01*
X160090000Y-70130000D02*
X161850000Y-70130000D01*
X161850000Y-64310000D02*
X160090000Y-64310000D01*
X161850000Y-70130000D02*
X161850000Y-64310000D01*
X162050000Y-64110000D02*
X158330000Y-64110000D01*
X162050000Y-70330000D02*
X162050000Y-64110000D01*
%TO.C,R28*%
X175225000Y-109547936D02*
X175225000Y-110002064D01*
X176695000Y-109547936D02*
X176695000Y-110002064D01*
%TO.C,D8*%
X109885000Y-111175000D02*
X113770000Y-111175000D01*
X113770000Y-108905000D02*
X109885000Y-108905000D01*
X113770000Y-111175000D02*
X113770000Y-108905000D01*
%TO.C,TP4*%
X183890000Y-99060000D02*
G75*
G02*
X181490000Y-99060000I-1200000J0D01*
G01*
X181490000Y-99060000D02*
G75*
G02*
X183890000Y-99060000I1200000J0D01*
G01*
%TO.C,C12*%
X183651248Y-80465000D02*
X184173752Y-80465000D01*
X183651248Y-81935000D02*
X184173752Y-81935000D01*
%TO.C,J17*%
X143590000Y-119590000D02*
X143590000Y-125810000D01*
X143590000Y-125810000D02*
X147310000Y-125810000D01*
X143790000Y-119790000D02*
X143790000Y-125610000D01*
X143790000Y-125610000D02*
X145550000Y-125610000D01*
X145550000Y-119790000D02*
X143790000Y-119790000D01*
X145550000Y-119790000D02*
X145550000Y-119590000D01*
X145550000Y-125610000D02*
X145550000Y-125810000D01*
X146250000Y-119590000D02*
X146250000Y-119790000D01*
X146250000Y-119790000D02*
X145550000Y-119790000D01*
X146250000Y-119790000D02*
X147110000Y-119790000D01*
X146250000Y-125610000D02*
X145550000Y-125610000D01*
X146250000Y-125610000D02*
X146250000Y-125810000D01*
X147110000Y-119790000D02*
X147110000Y-125610000D01*
X147110000Y-125610000D02*
X146250000Y-125610000D01*
X147310000Y-119590000D02*
X143590000Y-119590000D01*
X147310000Y-125810000D02*
X147310000Y-119590000D01*
X147610000Y-119290000D02*
X146360000Y-119290000D01*
X147610000Y-120540000D02*
X147610000Y-119290000D01*
%TO.C,J12*%
X123990000Y-69330000D02*
X123990000Y-70580000D01*
X123990000Y-70580000D02*
X125240000Y-70580000D01*
X124290000Y-64060000D02*
X124290000Y-70280000D01*
X124290000Y-70280000D02*
X128010000Y-70280000D01*
X124490000Y-64260000D02*
X125350000Y-64260000D01*
X124490000Y-70080000D02*
X124490000Y-64260000D01*
X125350000Y-64260000D02*
X125350000Y-64060000D01*
X125350000Y-64260000D02*
X126050000Y-64260000D01*
X125350000Y-70080000D02*
X124490000Y-70080000D01*
X125350000Y-70080000D02*
X126050000Y-70080000D01*
X125350000Y-70280000D02*
X125350000Y-70080000D01*
X126050000Y-64260000D02*
X126050000Y-64060000D01*
X126050000Y-70080000D02*
X126050000Y-70280000D01*
X126050000Y-70080000D02*
X127810000Y-70080000D01*
X127810000Y-64260000D02*
X126050000Y-64260000D01*
X127810000Y-70080000D02*
X127810000Y-64260000D01*
X128010000Y-64060000D02*
X124290000Y-64060000D01*
X128010000Y-70280000D02*
X128010000Y-64060000D01*
%TO.C,R18*%
X153065000Y-76397064D02*
X153065000Y-75942936D01*
X154535000Y-76397064D02*
X154535000Y-75942936D01*
%TO.C,Y2*%
X153580000Y-92260000D02*
X153580000Y-104860000D01*
X153580000Y-104860000D02*
X158680000Y-104860000D01*
X158680000Y-104860000D02*
X158680000Y-92260000D01*
D15*
%TO.C,U4*%
X157765000Y-79790000D02*
X157765000Y-79350000D01*
X157765000Y-81350000D02*
X157765000Y-80710000D01*
X157765000Y-81350000D02*
X157915000Y-81350000D01*
X160190000Y-81325000D02*
X160340000Y-81325000D01*
X160315000Y-79150000D02*
X160465000Y-79150000D01*
X160465000Y-79790000D02*
X160465000Y-79150000D01*
X160465000Y-81350000D02*
X160465000Y-80710000D01*
X157765000Y-79150000D02*
X157405000Y-79150000D01*
X157765000Y-78790000D01*
X157765000Y-79150000D01*
G36*
X157765000Y-79150000D02*
G01*
X157405000Y-79150000D01*
X157765000Y-78790000D01*
X157765000Y-79150000D01*
G37*
D14*
%TO.C,C5*%
X129101248Y-87265000D02*
X129623752Y-87265000D01*
X129101248Y-88735000D02*
X129623752Y-88735000D01*
%TO.C,AE2*%
X172790000Y-72650000D02*
X172790000Y-71410000D01*
X175280000Y-70160000D02*
X174040000Y-70160000D01*
X175280000Y-73900000D02*
X174040000Y-73900000D01*
X176530000Y-72650000D02*
X176530000Y-71410000D01*
%TO.C,J19*%
X153100000Y-119630000D02*
X153100000Y-125850000D01*
X153100000Y-125850000D02*
X156820000Y-125850000D01*
X153300000Y-119830000D02*
X153300000Y-125650000D01*
X153300000Y-125650000D02*
X155060000Y-125650000D01*
X155060000Y-119830000D02*
X153300000Y-119830000D01*
X155060000Y-119830000D02*
X155060000Y-119630000D01*
X155060000Y-125650000D02*
X155060000Y-125850000D01*
X155760000Y-119630000D02*
X155760000Y-119830000D01*
X155760000Y-119830000D02*
X155060000Y-119830000D01*
X155760000Y-119830000D02*
X156620000Y-119830000D01*
X155760000Y-125650000D02*
X155060000Y-125650000D01*
X155760000Y-125650000D02*
X155760000Y-125850000D01*
X156620000Y-119830000D02*
X156620000Y-125650000D01*
X156620000Y-125650000D02*
X155760000Y-125650000D01*
X156820000Y-119630000D02*
X153100000Y-119630000D01*
X156820000Y-125850000D02*
X156820000Y-119630000D01*
X157120000Y-119330000D02*
X155870000Y-119330000D01*
X157120000Y-120580000D02*
X157120000Y-119330000D01*
%TO.C,J1*%
X133240000Y-69390000D02*
X133240000Y-70640000D01*
X133240000Y-70640000D02*
X134490000Y-70640000D01*
X133540000Y-64120000D02*
X133540000Y-70340000D01*
X133540000Y-70340000D02*
X137260000Y-70340000D01*
X133740000Y-64320000D02*
X134600000Y-64320000D01*
X133740000Y-70140000D02*
X133740000Y-64320000D01*
X134600000Y-64320000D02*
X134600000Y-64120000D01*
X134600000Y-64320000D02*
X135300000Y-64320000D01*
X134600000Y-70140000D02*
X133740000Y-70140000D01*
X134600000Y-70140000D02*
X135300000Y-70140000D01*
X134600000Y-70340000D02*
X134600000Y-70140000D01*
X135300000Y-64320000D02*
X135300000Y-64120000D01*
X135300000Y-70140000D02*
X135300000Y-70340000D01*
X135300000Y-70140000D02*
X137060000Y-70140000D01*
X137060000Y-64320000D02*
X135300000Y-64320000D01*
X137060000Y-70140000D02*
X137060000Y-64320000D01*
X137260000Y-64120000D02*
X133540000Y-64120000D01*
X137260000Y-70340000D02*
X137260000Y-64120000D01*
%TO.C,C4*%
X110823748Y-113705000D02*
X111346252Y-113705000D01*
X110823748Y-115175000D02*
X111346252Y-115175000D01*
%TO.C,C11*%
X172305000Y-91421252D02*
X172305000Y-90898748D01*
X173775000Y-91421252D02*
X173775000Y-90898748D01*
%TO.C,D4*%
X126897500Y-86700000D02*
X131307500Y-86700000D01*
X131307500Y-84480000D02*
X126897500Y-84480000D01*
X131307500Y-86700000D02*
X131307500Y-84480000D01*
D13*
%TO.C,U2*%
X133475000Y-86725000D02*
X133475000Y-87400000D01*
X133475000Y-86725000D02*
X134150000Y-86725000D01*
X133475000Y-101075000D02*
X133475000Y-100400000D01*
X133475000Y-101075000D02*
X134090000Y-101075000D01*
X147825000Y-86725000D02*
X147150000Y-86725000D01*
X147825000Y-86725000D02*
X147825000Y-87400000D01*
X147825000Y-101075000D02*
X147150000Y-101075000D01*
X147825000Y-101075000D02*
X147825000Y-100400000D01*
D14*
X134108886Y-101834636D02*
X133638886Y-102174636D01*
X133638886Y-101494636D01*
X134108886Y-101834636D01*
G36*
X134108886Y-101834636D02*
G01*
X133638886Y-102174636D01*
X133638886Y-101494636D01*
X134108886Y-101834636D01*
G37*
%TO.C,R22*%
X110857936Y-102305000D02*
X111312064Y-102305000D01*
X110857936Y-103775000D02*
X111312064Y-103775000D01*
%TO.C,R6*%
X125465000Y-99627064D02*
X125465000Y-99172936D01*
X126935000Y-99627064D02*
X126935000Y-99172936D01*
%TO.C,C2*%
X110823748Y-111645000D02*
X111346252Y-111645000D01*
X110823748Y-113115000D02*
X111346252Y-113115000D01*
%TO.C,U6*%
X147410000Y-75240000D02*
X145460000Y-75240000D01*
X147410000Y-75240000D02*
X149360000Y-75240000D01*
X147410000Y-80360000D02*
X145460000Y-80360000D01*
X147410000Y-80360000D02*
X149360000Y-80360000D01*
X144710000Y-75335000D02*
X144470000Y-75005000D01*
X144950000Y-75005000D01*
X144710000Y-75335000D01*
G36*
X144710000Y-75335000D02*
G01*
X144470000Y-75005000D01*
X144950000Y-75005000D01*
X144710000Y-75335000D01*
G37*
%TO.C,JP2*%
X165510000Y-65900000D02*
X165510000Y-65300000D01*
X166160000Y-64600000D02*
X168960000Y-64600000D01*
X168760000Y-64400000D02*
X168460000Y-64100000D01*
X168760000Y-64400000D02*
X169060000Y-64100000D01*
X168960000Y-66600000D02*
X166160000Y-66600000D01*
X169060000Y-64100000D02*
X168460000Y-64100000D01*
X169610000Y-65300000D02*
X169610000Y-65900000D01*
X165510000Y-65300000D02*
G75*
G02*
X166210000Y-64600000I700000J0D01*
G01*
X166210000Y-66600000D02*
G75*
G02*
X165510000Y-65900000I0J700000D01*
G01*
X168910000Y-64600000D02*
G75*
G02*
X169610000Y-65300000I1J-699999D01*
G01*
X169610000Y-65900000D02*
G75*
G02*
X168910000Y-66600000I-699999J-1D01*
G01*
%TO.C,SW1*%
X118760000Y-117850000D02*
X122460000Y-117850000D01*
X118760000Y-123970000D02*
X118760000Y-117850000D01*
X122460000Y-117850000D02*
X122460000Y-123970000D01*
X122460000Y-123970000D02*
X118760000Y-123970000D01*
%TO.C,Y1*%
X125450000Y-101790000D02*
X125450000Y-114390000D01*
X130550000Y-101790000D02*
X125450000Y-101790000D01*
X130550000Y-114390000D02*
X130550000Y-101790000D01*
%TO.C,BZ1*%
X126900000Y-89750001D02*
G75*
G02*
X126900000Y-92750000I-6400000J-1499999D01*
G01*
X126730000Y-91250000D02*
G75*
G02*
X114270000Y-91250000I-6230000J0D01*
G01*
X114270000Y-91250000D02*
G75*
G02*
X126730000Y-91250000I6230000J0D01*
G01*
%TO.C,R27*%
X129975000Y-73397064D02*
X129975000Y-72942936D01*
X131445000Y-73397064D02*
X131445000Y-72942936D01*
%TO.C,JP3*%
X166810000Y-68570000D02*
X166810000Y-67970000D01*
X167510000Y-67270000D02*
X168910000Y-67270000D01*
X168910000Y-69270000D02*
X167510000Y-69270000D01*
X169610000Y-67970000D02*
X169610000Y-68570000D01*
X166810000Y-67970000D02*
G75*
G02*
X167510000Y-67270000I700000J0D01*
G01*
X167510000Y-69270000D02*
G75*
G02*
X166810000Y-68570000I0J700000D01*
G01*
X168910000Y-67270000D02*
G75*
G02*
X169610000Y-67970000I1J-699999D01*
G01*
X169610000Y-68570000D02*
G75*
G02*
X168910000Y-69270000I-699999J-1D01*
G01*
%TO.C,C8*%
X151661252Y-93065000D02*
X151138748Y-93065000D01*
X151661252Y-94535000D02*
X151138748Y-94535000D01*
%TO.C,D6*%
X122315000Y-79685000D02*
X122315000Y-81955000D01*
X122315000Y-81955000D02*
X126200000Y-81955000D01*
X126200000Y-79685000D02*
X122315000Y-79685000D01*
%TO.C,R10*%
X152372936Y-87565000D02*
X152827064Y-87565000D01*
X152372936Y-89035000D02*
X152827064Y-89035000D01*
%TO.C,Q5*%
X130190000Y-76500000D02*
X130190000Y-77900000D01*
X132510000Y-76490000D02*
X132510000Y-77900000D01*
X132790000Y-76360000D02*
X132460000Y-76120000D01*
X132790000Y-75880000D01*
X132790000Y-76360000D01*
G36*
X132790000Y-76360000D02*
G01*
X132460000Y-76120000D01*
X132790000Y-75880000D01*
X132790000Y-76360000D01*
G37*
%TO.C,R8*%
X127665000Y-99172936D02*
X127665000Y-99627064D01*
X129135000Y-99172936D02*
X129135000Y-99627064D01*
%TO.C,Q4*%
X165025000Y-94260000D02*
X165025000Y-96070000D01*
X165025000Y-104660000D02*
X165025000Y-102850000D01*
X166525000Y-94260000D02*
X165025000Y-94260000D01*
X166525000Y-104660000D02*
X165025000Y-104660000D01*
X162462500Y-96070000D02*
X162222500Y-95740000D01*
X162702500Y-95740000D01*
X162462500Y-96070000D01*
G36*
X162462500Y-96070000D02*
G01*
X162222500Y-95740000D01*
X162702500Y-95740000D01*
X162462500Y-96070000D01*
G37*
%TO.C,R14*%
X161885000Y-75617064D02*
X161885000Y-75162936D01*
X163355000Y-75617064D02*
X163355000Y-75162936D01*
%TO.C,C9*%
X129865000Y-99698752D02*
X129865000Y-99176248D01*
X131335000Y-99698752D02*
X131335000Y-99176248D01*
%TO.C,J6*%
X153420000Y-69370000D02*
X153420000Y-70620000D01*
X153420000Y-70620000D02*
X154670000Y-70620000D01*
X153720000Y-64100000D02*
X153720000Y-70320000D01*
X153720000Y-70320000D02*
X157440000Y-70320000D01*
X153920000Y-64300000D02*
X154780000Y-64300000D01*
X153920000Y-70120000D02*
X153920000Y-64300000D01*
X154780000Y-64300000D02*
X154780000Y-64100000D01*
X154780000Y-64300000D02*
X155480000Y-64300000D01*
X154780000Y-70120000D02*
X153920000Y-70120000D01*
X154780000Y-70120000D02*
X155480000Y-70120000D01*
X154780000Y-70320000D02*
X154780000Y-70120000D01*
X155480000Y-64300000D02*
X155480000Y-64100000D01*
X155480000Y-70120000D02*
X155480000Y-70320000D01*
X155480000Y-70120000D02*
X157240000Y-70120000D01*
X157240000Y-64300000D02*
X155480000Y-64300000D01*
X157240000Y-70120000D02*
X157240000Y-64300000D01*
X157440000Y-64100000D02*
X153720000Y-64100000D01*
X157440000Y-70320000D02*
X157440000Y-64100000D01*
%TO.C,J13*%
X119370000Y-69320000D02*
X119370000Y-70570000D01*
X119370000Y-70570000D02*
X120620000Y-70570000D01*
X119670000Y-64050000D02*
X119670000Y-70270000D01*
X119670000Y-70270000D02*
X123390000Y-70270000D01*
X119870000Y-64250000D02*
X120730000Y-64250000D01*
X119870000Y-70070000D02*
X119870000Y-64250000D01*
X120730000Y-64250000D02*
X120730000Y-64050000D01*
X120730000Y-64250000D02*
X121430000Y-64250000D01*
X120730000Y-70070000D02*
X119870000Y-70070000D01*
X120730000Y-70070000D02*
X121430000Y-70070000D01*
X120730000Y-70270000D02*
X120730000Y-70070000D01*
X121430000Y-64250000D02*
X121430000Y-64050000D01*
X121430000Y-70070000D02*
X121430000Y-70270000D01*
X121430000Y-70070000D02*
X123190000Y-70070000D01*
X123190000Y-64250000D02*
X121430000Y-64250000D01*
X123190000Y-70070000D02*
X123190000Y-64250000D01*
X123390000Y-64050000D02*
X119670000Y-64050000D01*
X123390000Y-70270000D02*
X123390000Y-64050000D01*
%TO.C,R9*%
X152382936Y-89575000D02*
X152837064Y-89575000D01*
X152382936Y-91045000D02*
X152837064Y-91045000D01*
%TO.C,C13*%
X158441248Y-83475000D02*
X158963752Y-83475000D01*
X158441248Y-84945000D02*
X158963752Y-84945000D01*
%TO.C,L1*%
X183469758Y-84560000D02*
X184290242Y-84560000D01*
X183469758Y-85680000D02*
X184290242Y-85680000D01*
%TO.C,R21*%
X110857936Y-104305000D02*
X111312064Y-104305000D01*
X110857936Y-105775000D02*
X111312064Y-105775000D01*
%TO.C,D7*%
X109885000Y-108575000D02*
X113770000Y-108575000D01*
X113770000Y-106305000D02*
X109885000Y-106305000D01*
X113770000Y-108575000D02*
X113770000Y-106305000D01*
%TD*%
M02*
