%TF.GenerationSoftware,KiCad,Pcbnew,8.0.4-8.0.4-0~ubuntu24.04.1*%
%TF.CreationDate,2024-09-01T12:54:33+03:00*%
%TF.ProjectId,control_body,636f6e74-726f-46c5-9f62-6f64792e6b69,rev?*%
%TF.SameCoordinates,Original*%
%TF.FileFunction,Soldermask,Top*%
%TF.FilePolarity,Negative*%
%FSLAX46Y46*%
G04 Gerber Fmt 4.6, Leading zero omitted, Abs format (unit mm)*
G04 Created by KiCad (PCBNEW 8.0.4-8.0.4-0~ubuntu24.04.1) date 2024-09-01 12:54:33*
%MOMM*%
%LPD*%
G01*
G04 APERTURE LIST*
G04 Aperture macros list*
%AMRoundRect*
0 Rectangle with rounded corners*
0 $1 Rounding radius*
0 $2 $3 $4 $5 $6 $7 $8 $9 X,Y pos of 4 corners*
0 Add a 4 corners polygon primitive as box body*
4,1,4,$2,$3,$4,$5,$6,$7,$8,$9,$2,$3,0*
0 Add four circle primitives for the rounded corners*
1,1,$1+$1,$2,$3*
1,1,$1+$1,$4,$5*
1,1,$1+$1,$6,$7*
1,1,$1+$1,$8,$9*
0 Add four rect primitives between the rounded corners*
20,1,$1+$1,$2,$3,$4,$5,0*
20,1,$1+$1,$4,$5,$6,$7,0*
20,1,$1+$1,$6,$7,$8,$9,0*
20,1,$1+$1,$8,$9,$2,$3,0*%
%AMFreePoly0*
4,1,19,0.500000,-0.750000,0.000000,-0.750000,0.000000,-0.744911,-0.071157,-0.744911,-0.207708,-0.704816,-0.327430,-0.627875,-0.420627,-0.520320,-0.479746,-0.390866,-0.500000,-0.250000,-0.500000,0.250000,-0.479746,0.390866,-0.420627,0.520320,-0.327430,0.627875,-0.207708,0.704816,-0.071157,0.744911,0.000000,0.744911,0.000000,0.750000,0.500000,0.750000,0.500000,-0.750000,0.500000,-0.750000,
$1*%
%AMFreePoly1*
4,1,19,0.000000,0.744911,0.071157,0.744911,0.207708,0.704816,0.327430,0.627875,0.420627,0.520320,0.479746,0.390866,0.500000,0.250000,0.500000,-0.250000,0.479746,-0.390866,0.420627,-0.520320,0.327430,-0.627875,0.207708,-0.704816,0.071157,-0.744911,0.000000,-0.744911,0.000000,-0.750000,-0.500000,-0.750000,-0.500000,0.750000,0.000000,0.750000,0.000000,0.744911,0.000000,0.744911,
$1*%
%AMFreePoly2*
4,1,19,0.550000,-0.750000,0.000000,-0.750000,0.000000,-0.744911,-0.071157,-0.744911,-0.207708,-0.704816,-0.327430,-0.627875,-0.420627,-0.520320,-0.479746,-0.390866,-0.500000,-0.250000,-0.500000,0.250000,-0.479746,0.390866,-0.420627,0.520320,-0.327430,0.627875,-0.207708,0.704816,-0.071157,0.744911,0.000000,0.744911,0.000000,0.750000,0.550000,0.750000,0.550000,-0.750000,0.550000,-0.750000,
$1*%
%AMFreePoly3*
4,1,19,0.000000,0.744911,0.071157,0.744911,0.207708,0.704816,0.327430,0.627875,0.420627,0.520320,0.479746,0.390866,0.500000,0.250000,0.500000,-0.250000,0.479746,-0.390866,0.420627,-0.520320,0.327430,-0.627875,0.207708,-0.704816,0.071157,-0.744911,0.000000,-0.744911,0.000000,-0.750000,-0.550000,-0.750000,-0.550000,0.750000,0.000000,0.750000,0.000000,0.744911,0.000000,0.744911,
$1*%
G04 Aperture macros list end*
%ADD10R,1.350000X0.400000*%
%ADD11O,1.550000X0.890000*%
%ADD12R,1.550000X1.200000*%
%ADD13O,0.950000X1.250000*%
%ADD14R,1.550000X1.500000*%
%ADD15RoundRect,0.250000X-0.250000X0.275000X-0.250000X-0.275000X0.250000X-0.275000X0.250000X0.275000X0*%
%ADD16RoundRect,0.250000X-0.275000X0.850000X-0.275000X-0.850000X0.275000X-0.850000X0.275000X0.850000X0*%
%ADD17R,1.700000X1.700000*%
%ADD18O,1.700000X1.700000*%
%ADD19R,2.000000X0.700000*%
%ADD20RoundRect,0.250000X-0.685000X0.335000X-0.685000X-0.335000X0.685000X-0.335000X0.685000X0.335000X0*%
%ADD21O,1.870000X1.170000*%
%ADD22RoundRect,0.250000X-0.337500X-0.475000X0.337500X-0.475000X0.337500X0.475000X-0.337500X0.475000X0*%
%ADD23C,2.000000*%
%ADD24RoundRect,0.150000X-0.725000X-0.150000X0.725000X-0.150000X0.725000X0.150000X-0.725000X0.150000X0*%
%ADD25RoundRect,0.250000X-0.350000X-0.450000X0.350000X-0.450000X0.350000X0.450000X-0.350000X0.450000X0*%
%ADD26RoundRect,0.250000X0.685000X-0.335000X0.685000X0.335000X-0.685000X0.335000X-0.685000X-0.335000X0*%
%ADD27RoundRect,0.250000X-0.375000X-0.625000X0.375000X-0.625000X0.375000X0.625000X-0.375000X0.625000X0*%
%ADD28RoundRect,0.250000X0.450000X-0.350000X0.450000X0.350000X-0.450000X0.350000X-0.450000X-0.350000X0*%
%ADD29FreePoly0,0.000000*%
%ADD30FreePoly1,0.000000*%
%ADD31RoundRect,0.250000X0.350000X0.450000X-0.350000X0.450000X-0.350000X-0.450000X0.350000X-0.450000X0*%
%ADD32RoundRect,0.250000X0.475000X-0.337500X0.475000X0.337500X-0.475000X0.337500X-0.475000X-0.337500X0*%
%ADD33R,1.700000X0.900000*%
%ADD34RoundRect,0.250000X-0.650000X1.000000X-0.650000X-1.000000X0.650000X-1.000000X0.650000X1.000000X0*%
%ADD35RoundRect,0.250000X-0.450000X0.350000X-0.450000X-0.350000X0.450000X-0.350000X0.450000X0.350000X0*%
%ADD36C,0.700000*%
%ADD37C,4.400000*%
%ADD38RoundRect,0.100000X-0.100000X0.225000X-0.100000X-0.225000X0.100000X-0.225000X0.100000X0.225000X0*%
%ADD39RoundRect,0.250000X-0.625000X0.375000X-0.625000X-0.375000X0.625000X-0.375000X0.625000X0.375000X0*%
%ADD40RoundRect,0.250000X0.337500X0.475000X-0.337500X0.475000X-0.337500X-0.475000X0.337500X-0.475000X0*%
%ADD41RoundRect,0.250000X-0.625000X0.350000X-0.625000X-0.350000X0.625000X-0.350000X0.625000X0.350000X0*%
%ADD42O,1.750000X1.200000*%
%ADD43RoundRect,0.250000X0.650000X-1.000000X0.650000X1.000000X-0.650000X1.000000X-0.650000X-1.000000X0*%
%ADD44RoundRect,0.150000X-0.825000X-0.150000X0.825000X-0.150000X0.825000X0.150000X-0.825000X0.150000X0*%
%ADD45RoundRect,0.375000X-0.625000X-0.375000X0.625000X-0.375000X0.625000X0.375000X-0.625000X0.375000X0*%
%ADD46RoundRect,0.500000X-0.500000X-1.400000X0.500000X-1.400000X0.500000X1.400000X-0.500000X1.400000X0*%
%ADD47R,1.700000X0.650000*%
%ADD48RoundRect,0.250000X1.050000X0.550000X-1.050000X0.550000X-1.050000X-0.550000X1.050000X-0.550000X0*%
%ADD49RoundRect,0.075000X-0.350000X-0.075000X0.350000X-0.075000X0.350000X0.075000X-0.350000X0.075000X0*%
%ADD50RoundRect,0.075000X0.075000X-0.350000X0.075000X0.350000X-0.075000X0.350000X-0.075000X-0.350000X0*%
%ADD51RoundRect,0.250000X0.375000X0.625000X-0.375000X0.625000X-0.375000X-0.625000X0.375000X-0.625000X0*%
%ADD52R,2.000000X4.500000*%
%ADD53R,0.350000X0.500000*%
%ADD54C,1.240000*%
%ADD55RoundRect,0.250000X0.400000X0.600000X-0.400000X0.600000X-0.400000X-0.600000X0.400000X-0.600000X0*%
%ADD56R,0.550000X1.500000*%
%ADD57R,1.500000X0.550000*%
%ADD58FreePoly2,180.000000*%
%ADD59R,1.000000X1.500000*%
%ADD60FreePoly3,180.000000*%
%ADD61R,1.500000X1.500000*%
%ADD62R,2.000000X2.000000*%
%ADD63FreePoly0,180.000000*%
%ADD64FreePoly1,180.000000*%
%ADD65RoundRect,0.250000X-2.050000X-0.300000X2.050000X-0.300000X2.050000X0.300000X-2.050000X0.300000X0*%
%ADD66RoundRect,0.250002X-4.449998X-5.149998X4.449998X-5.149998X4.449998X5.149998X-4.449998X5.149998X0*%
%ADD67RoundRect,0.250000X-0.275000X-0.350000X0.275000X-0.350000X0.275000X0.350000X-0.275000X0.350000X0*%
G04 APERTURE END LIST*
%TO.C,AE1*%
G36*
X180940000Y-71560000D02*
G01*
X179060000Y-71560000D01*
X179060000Y-73650000D01*
X180940000Y-73650000D01*
X180940000Y-71560000D01*
G37*
%TD*%
D10*
%TO.C,J2*%
X111555000Y-93950000D03*
X111555000Y-94600000D03*
X111555000Y-95250000D03*
X111555000Y-95900000D03*
X111555000Y-96550000D03*
D11*
X108855000Y-91750000D03*
D12*
X108855000Y-92350000D03*
D13*
X111555000Y-92750000D03*
D14*
X108855000Y-94250000D03*
X108855000Y-96250000D03*
D13*
X111555000Y-97750000D03*
D12*
X108855000Y-98150000D03*
D11*
X108855000Y-98750000D03*
%TD*%
D15*
%TO.C,AE1*%
X180000000Y-71025000D03*
D16*
X181475000Y-72550000D03*
X178525000Y-72550000D03*
%TD*%
D17*
%TO.C,J21*%
X151830000Y-109350000D03*
D18*
X151830000Y-106810000D03*
X154370000Y-109350000D03*
X154370000Y-106810000D03*
X156910000Y-109350000D03*
X156910000Y-106810000D03*
%TD*%
D19*
%TO.C,U3*%
X170700000Y-75500000D03*
X170700000Y-76600000D03*
X170700000Y-77700000D03*
X170700000Y-78800000D03*
X170700000Y-79900000D03*
X170700000Y-81000000D03*
X170700000Y-82100000D03*
X170700000Y-83200000D03*
X170700000Y-84300000D03*
X180400000Y-84300000D03*
X180400000Y-83200000D03*
X180400000Y-82100000D03*
X180400000Y-81000000D03*
X180400000Y-79900000D03*
X180400000Y-78800000D03*
X180400000Y-77700000D03*
X180400000Y-76600000D03*
X180400000Y-75500000D03*
%TD*%
D20*
%TO.C,J16*%
X141090000Y-121190000D03*
D21*
X141090000Y-122690000D03*
X141090000Y-124190000D03*
%TD*%
D22*
%TO.C,C10*%
X182912500Y-77200000D03*
X184987500Y-77200000D03*
%TD*%
D23*
%TO.C,TP5*%
X182690000Y-115810000D03*
%TD*%
D24*
%TO.C,Q3*%
X155290000Y-112590000D03*
X155290000Y-113860000D03*
X155290000Y-115130000D03*
X155290000Y-116400000D03*
X160440000Y-116400000D03*
X160440000Y-115130000D03*
X160440000Y-113860000D03*
X160440000Y-112590000D03*
%TD*%
D25*
%TO.C,R7*%
X128400000Y-94600000D03*
X130400000Y-94600000D03*
%TD*%
D23*
%TO.C,TP1*%
X182690000Y-103210000D03*
%TD*%
D26*
%TO.C,J8*%
X145890000Y-68720000D03*
D21*
X145890000Y-67220000D03*
X145890000Y-65720000D03*
%TD*%
D17*
%TO.C,J3*%
X136575000Y-109505000D03*
D18*
X136575000Y-106965000D03*
X139115000Y-109505000D03*
X139115000Y-106965000D03*
X141655000Y-109505000D03*
X141655000Y-106965000D03*
%TD*%
D26*
%TO.C,J20*%
X183020000Y-94140000D03*
D21*
X183020000Y-92640000D03*
X183020000Y-91140000D03*
X183020000Y-89640000D03*
%TD*%
D27*
%TO.C,D2*%
X123200000Y-77020000D03*
X126000000Y-77020000D03*
%TD*%
D28*
%TO.C,R26*%
X173760000Y-110775000D03*
X173760000Y-108775000D03*
%TD*%
D29*
%TO.C,JP1*%
X167560000Y-71270000D03*
D30*
X168860000Y-71270000D03*
%TD*%
D22*
%TO.C,C16*%
X151732500Y-82990000D03*
X153807500Y-82990000D03*
%TD*%
D31*
%TO.C,R1*%
X126000000Y-74800000D03*
X124000000Y-74800000D03*
%TD*%
D32*
%TO.C,C14*%
X167640000Y-81127500D03*
X167640000Y-79052500D03*
%TD*%
D33*
%TO.C,SW3*%
X126030000Y-121770000D03*
X126030000Y-125170000D03*
%TD*%
D34*
%TO.C,D1*%
X120000000Y-78750000D03*
X120000000Y-82750000D03*
%TD*%
D33*
%TO.C,SW2*%
X126030000Y-116610000D03*
X126030000Y-120010000D03*
%TD*%
D25*
%TO.C,R2*%
X119590000Y-101210000D03*
X121590000Y-101210000D03*
%TD*%
D22*
%TO.C,C15*%
X147802500Y-82980000D03*
X149877500Y-82980000D03*
%TD*%
D35*
%TO.C,R5*%
X123650000Y-112940000D03*
X123650000Y-114940000D03*
%TD*%
D28*
%TO.C,R19*%
X153800000Y-81000000D03*
X153800000Y-79000000D03*
%TD*%
D36*
%TO.C,H1*%
X181350000Y-67000000D03*
X181833274Y-65833274D03*
X181833274Y-68166726D03*
X183000000Y-65350000D03*
D37*
X183000000Y-67000000D03*
D36*
X183000000Y-68650000D03*
X184166726Y-65833274D03*
X184166726Y-68166726D03*
X184650000Y-67000000D03*
%TD*%
D28*
%TO.C,R23*%
X133690000Y-74150000D03*
X133690000Y-72150000D03*
%TD*%
D38*
%TO.C,Q7*%
X138000000Y-76250000D03*
X137350000Y-76250000D03*
X136700000Y-76250000D03*
X136700000Y-78150000D03*
X137350000Y-78150000D03*
X138000000Y-78150000D03*
%TD*%
D39*
%TO.C,D3*%
X123800000Y-98500000D03*
X123800000Y-101300000D03*
%TD*%
D35*
%TO.C,R29*%
X129200000Y-80600000D03*
X129200000Y-82600000D03*
%TD*%
D17*
%TO.C,J23*%
X174500000Y-120460000D03*
D18*
X174500000Y-123000000D03*
X171960000Y-120460000D03*
X171960000Y-123000000D03*
X169420000Y-120460000D03*
X169420000Y-123000000D03*
X166880000Y-120460000D03*
X166880000Y-123000000D03*
X164340000Y-120460000D03*
X164340000Y-123000000D03*
X161800000Y-120460000D03*
X161800000Y-123000000D03*
%TD*%
D28*
%TO.C,R13*%
X167220000Y-76390000D03*
X167220000Y-74390000D03*
%TD*%
D25*
%TO.C,R11*%
X182950000Y-79200000D03*
X184950000Y-79200000D03*
%TD*%
D35*
%TO.C,R25*%
X132000000Y-80600000D03*
X132000000Y-82600000D03*
%TD*%
D40*
%TO.C,C6*%
X112125000Y-116460000D03*
X110050000Y-116460000D03*
%TD*%
D23*
%TO.C,TP2*%
X182690000Y-107410000D03*
%TD*%
D20*
%TO.C,J10*%
X131530000Y-121180000D03*
D21*
X131530000Y-122680000D03*
X131530000Y-124180000D03*
%TD*%
D41*
%TO.C,J14*%
X111500000Y-73250000D03*
D42*
X111500000Y-75250000D03*
X111500000Y-77250000D03*
X111500000Y-79250000D03*
X111500000Y-81250000D03*
%TD*%
D40*
%TO.C,C7*%
X152437500Y-95800000D03*
X150362500Y-95800000D03*
%TD*%
D43*
%TO.C,D5*%
X116300000Y-82750000D03*
X116300000Y-78750000D03*
%TD*%
D36*
%TO.C,H3*%
X110250000Y-123000000D03*
X110733274Y-121833274D03*
X110733274Y-124166726D03*
X111900000Y-121350000D03*
D37*
X111900000Y-123000000D03*
D36*
X111900000Y-124650000D03*
X113066726Y-121833274D03*
X113066726Y-124166726D03*
X113550000Y-123000000D03*
%TD*%
D17*
%TO.C,J4*%
X132880000Y-115750000D03*
D18*
X135420000Y-115750000D03*
X137960000Y-115750000D03*
X140500000Y-115750000D03*
%TD*%
D44*
%TO.C,U1*%
X115735000Y-104770000D03*
X115735000Y-106040000D03*
X115735000Y-107310000D03*
X115735000Y-108580000D03*
X115735000Y-109850000D03*
X115735000Y-111120000D03*
X115735000Y-112390000D03*
X115735000Y-113660000D03*
X120685000Y-113660000D03*
X120685000Y-112390000D03*
X120685000Y-111120000D03*
X120685000Y-109850000D03*
X120685000Y-108580000D03*
X120685000Y-107310000D03*
X120685000Y-106040000D03*
X120685000Y-104770000D03*
%TD*%
D23*
%TO.C,TP3*%
X182690000Y-111610000D03*
%TD*%
D35*
%TO.C,R20*%
X138000000Y-80600000D03*
X138000000Y-82600000D03*
%TD*%
D26*
%TO.C,J7*%
X150520000Y-68720000D03*
D21*
X150520000Y-67220000D03*
X150520000Y-65720000D03*
%TD*%
D45*
%TO.C,Q9*%
X162250000Y-87300000D03*
X162250000Y-89600000D03*
D46*
X168550000Y-89600000D03*
D45*
X162250000Y-91900000D03*
%TD*%
D26*
%TO.C,J11*%
X130310000Y-68690000D03*
D21*
X130310000Y-67190000D03*
X130310000Y-65690000D03*
%TD*%
D20*
%TO.C,J15*%
X136320000Y-121200000D03*
D21*
X136320000Y-122700000D03*
X136320000Y-124200000D03*
%TD*%
D25*
%TO.C,R3*%
X128400000Y-92400000D03*
X130400000Y-92400000D03*
%TD*%
D47*
%TO.C,U7*%
X144750000Y-112895000D03*
X144750000Y-114165000D03*
X144750000Y-115435000D03*
X144750000Y-116705000D03*
X152050000Y-116705000D03*
X152050000Y-115435000D03*
X152050000Y-114165000D03*
X152050000Y-112895000D03*
%TD*%
D48*
%TO.C,C1*%
X113125000Y-87250000D03*
X109525000Y-87250000D03*
%TD*%
D22*
%TO.C,C3*%
X119552500Y-99210000D03*
X121627500Y-99210000D03*
%TD*%
D24*
%TO.C,Q1*%
X170985000Y-112670000D03*
X170985000Y-113940000D03*
X170985000Y-115210000D03*
X170985000Y-116480000D03*
X176135000Y-116480000D03*
X176135000Y-115210000D03*
X176135000Y-113940000D03*
X176135000Y-112670000D03*
%TD*%
D35*
%TO.C,R24*%
X135000000Y-80600000D03*
X135000000Y-82600000D03*
%TD*%
D20*
%TO.C,J18*%
X150680000Y-121220000D03*
D21*
X150680000Y-122720000D03*
X150680000Y-124220000D03*
%TD*%
D31*
%TO.C,R4*%
X130400000Y-90200000D03*
X128400000Y-90200000D03*
%TD*%
D26*
%TO.C,J9*%
X141260000Y-68700000D03*
D21*
X141260000Y-67200000D03*
X141260000Y-65700000D03*
%TD*%
D38*
%TO.C,Q6*%
X135000000Y-76250000D03*
X134350000Y-76250000D03*
X133700000Y-76250000D03*
X133700000Y-78150000D03*
X134350000Y-78150000D03*
X135000000Y-78150000D03*
%TD*%
D24*
%TO.C,Q2*%
X163155000Y-112645000D03*
X163155000Y-113915000D03*
X163155000Y-115185000D03*
X163155000Y-116455000D03*
X168305000Y-116455000D03*
X168305000Y-115185000D03*
X168305000Y-113915000D03*
X168305000Y-112645000D03*
%TD*%
D28*
%TO.C,R16*%
X160400000Y-76400000D03*
X160400000Y-74400000D03*
%TD*%
D25*
%TO.C,R12*%
X182950000Y-83200000D03*
X184950000Y-83200000D03*
%TD*%
D28*
%TO.C,R17*%
X165020000Y-76390000D03*
X165020000Y-74390000D03*
%TD*%
%TO.C,R15*%
X158280000Y-76400000D03*
X158280000Y-74400000D03*
%TD*%
D49*
%TO.C,U5*%
X161840000Y-79750000D03*
X161840000Y-80250000D03*
X161840000Y-80750000D03*
X161840000Y-81250000D03*
X161840000Y-81750000D03*
X161840000Y-82250000D03*
D50*
X162540000Y-82950000D03*
X163040000Y-82950000D03*
X163540000Y-82950000D03*
X164040000Y-82950000D03*
X164540000Y-82950000D03*
X165040000Y-82950000D03*
D49*
X165740000Y-82250000D03*
X165740000Y-81750000D03*
X165740000Y-81250000D03*
X165740000Y-80750000D03*
X165740000Y-80250000D03*
X165740000Y-79750000D03*
D50*
X165040000Y-79050000D03*
X164540000Y-79050000D03*
X164040000Y-79050000D03*
X163540000Y-79050000D03*
X163040000Y-79050000D03*
X162540000Y-79050000D03*
%TD*%
D26*
%TO.C,J5*%
X159740000Y-68720000D03*
D21*
X159740000Y-67220000D03*
X159740000Y-65720000D03*
%TD*%
D35*
%TO.C,R28*%
X175960000Y-108775000D03*
X175960000Y-110775000D03*
%TD*%
D51*
%TO.C,D8*%
X112885000Y-110040000D03*
X110085000Y-110040000D03*
%TD*%
D23*
%TO.C,TP4*%
X182690000Y-99060000D03*
%TD*%
D22*
%TO.C,C12*%
X182875000Y-81200000D03*
X184950000Y-81200000D03*
%TD*%
D20*
%TO.C,J17*%
X145900000Y-121200000D03*
D21*
X145900000Y-122700000D03*
X145900000Y-124200000D03*
%TD*%
D26*
%TO.C,J12*%
X125700000Y-68670000D03*
D21*
X125700000Y-67170000D03*
X125700000Y-65670000D03*
%TD*%
D28*
%TO.C,R18*%
X153800000Y-77170000D03*
X153800000Y-75170000D03*
%TD*%
D52*
%TO.C,Y2*%
X156130000Y-102410000D03*
X156130000Y-93910000D03*
%TD*%
D53*
%TO.C,U4*%
X158140000Y-79450000D03*
X158790000Y-79450000D03*
X159440000Y-79450000D03*
X160090000Y-79450000D03*
X160090000Y-81050000D03*
X159440000Y-81050000D03*
X158790000Y-81050000D03*
X158140000Y-81050000D03*
%TD*%
D22*
%TO.C,C5*%
X128325000Y-88000000D03*
X130400000Y-88000000D03*
%TD*%
D54*
%TO.C,AE2*%
X174660000Y-72030000D03*
X173390000Y-70760000D03*
X173390000Y-73300000D03*
X175930000Y-70760000D03*
X175930000Y-73300000D03*
%TD*%
D20*
%TO.C,J19*%
X155410000Y-121240000D03*
D21*
X155410000Y-122740000D03*
X155410000Y-124240000D03*
%TD*%
D26*
%TO.C,J1*%
X134950000Y-68730000D03*
D21*
X134950000Y-67230000D03*
X134950000Y-65730000D03*
%TD*%
D36*
%TO.C,H4*%
X181350000Y-123000000D03*
X181833274Y-121833274D03*
X181833274Y-124166726D03*
X183000000Y-121350000D03*
D37*
X183000000Y-123000000D03*
D36*
X183000000Y-124650000D03*
X184166726Y-121833274D03*
X184166726Y-124166726D03*
X184650000Y-123000000D03*
%TD*%
D22*
%TO.C,C4*%
X110047500Y-114440000D03*
X112122500Y-114440000D03*
%TD*%
D32*
%TO.C,C11*%
X173040000Y-92197500D03*
X173040000Y-90122500D03*
%TD*%
D55*
%TO.C,D4*%
X130397500Y-85590000D03*
X126897500Y-85590000D03*
%TD*%
D56*
%TO.C,U2*%
X134650000Y-101600000D03*
X135450000Y-101600000D03*
X136250000Y-101600000D03*
X137050000Y-101600000D03*
X137850000Y-101600000D03*
X138650000Y-101600000D03*
X139450000Y-101600000D03*
X140250000Y-101600000D03*
X141050000Y-101600000D03*
X141850000Y-101600000D03*
X142650000Y-101600000D03*
X143450000Y-101600000D03*
X144250000Y-101600000D03*
X145050000Y-101600000D03*
X145850000Y-101600000D03*
X146650000Y-101600000D03*
D57*
X148350000Y-99900000D03*
X148350000Y-99100000D03*
X148350000Y-98300000D03*
X148350000Y-97500000D03*
X148350000Y-96700000D03*
X148350000Y-95900000D03*
X148350000Y-95100000D03*
X148350000Y-94300000D03*
X148350000Y-93500000D03*
X148350000Y-92700000D03*
X148350000Y-91900000D03*
X148350000Y-91100000D03*
X148350000Y-90300000D03*
X148350000Y-89500000D03*
X148350000Y-88700000D03*
X148350000Y-87900000D03*
D56*
X146650000Y-86200000D03*
X145850000Y-86200000D03*
X145050000Y-86200000D03*
X144250000Y-86200000D03*
X143450000Y-86200000D03*
X142650000Y-86200000D03*
X141850000Y-86200000D03*
X141050000Y-86200000D03*
X140250000Y-86200000D03*
X139450000Y-86200000D03*
X138650000Y-86200000D03*
X137850000Y-86200000D03*
X137050000Y-86200000D03*
X136250000Y-86200000D03*
X135450000Y-86200000D03*
X134650000Y-86200000D03*
D57*
X132950000Y-87900000D03*
X132950000Y-88700000D03*
X132950000Y-89500000D03*
X132950000Y-90300000D03*
X132950000Y-91100000D03*
X132950000Y-91900000D03*
X132950000Y-92700000D03*
X132950000Y-93500000D03*
X132950000Y-94300000D03*
X132950000Y-95100000D03*
X132950000Y-95900000D03*
X132950000Y-96700000D03*
X132950000Y-97500000D03*
X132950000Y-98300000D03*
X132950000Y-99100000D03*
X132950000Y-99900000D03*
%TD*%
D25*
%TO.C,R22*%
X110085000Y-103040000D03*
X112085000Y-103040000D03*
%TD*%
D28*
%TO.C,R6*%
X126200000Y-100400000D03*
X126200000Y-98400000D03*
%TD*%
D22*
%TO.C,C2*%
X110047500Y-112380000D03*
X112122500Y-112380000D03*
%TD*%
D44*
%TO.C,U6*%
X144935000Y-75895000D03*
X144935000Y-77165000D03*
X144935000Y-78435000D03*
X144935000Y-79705000D03*
X149885000Y-79705000D03*
X149885000Y-78435000D03*
X149885000Y-77165000D03*
X149885000Y-75895000D03*
%TD*%
D58*
%TO.C,JP2*%
X168860000Y-65600000D03*
D59*
X167560000Y-65600000D03*
D60*
X166260000Y-65600000D03*
%TD*%
D61*
%TO.C,SW1*%
X120610000Y-124810000D03*
X120610000Y-117010000D03*
%TD*%
D52*
%TO.C,Y1*%
X128000000Y-104240000D03*
X128000000Y-112740000D03*
%TD*%
D62*
%TO.C,BZ1*%
X123000000Y-91250000D03*
D23*
X118000000Y-91250000D03*
%TD*%
D28*
%TO.C,R27*%
X130710000Y-74170000D03*
X130710000Y-72170000D03*
%TD*%
D63*
%TO.C,JP3*%
X168860000Y-68270000D03*
D64*
X167560000Y-68270000D03*
%TD*%
D40*
%TO.C,C8*%
X152437500Y-93800000D03*
X150362500Y-93800000D03*
%TD*%
D27*
%TO.C,D6*%
X123200000Y-80820000D03*
X126000000Y-80820000D03*
%TD*%
D36*
%TO.C,H2*%
X110350000Y-67000000D03*
X110833274Y-65833274D03*
X110833274Y-68166726D03*
X112000000Y-65350000D03*
D37*
X112000000Y-67000000D03*
D36*
X112000000Y-68650000D03*
X113166726Y-65833274D03*
X113166726Y-68166726D03*
X113650000Y-67000000D03*
%TD*%
D25*
%TO.C,R10*%
X151600000Y-88300000D03*
X153600000Y-88300000D03*
%TD*%
D38*
%TO.C,Q5*%
X132000000Y-76250000D03*
X131350000Y-76250000D03*
X130700000Y-76250000D03*
X130700000Y-78150000D03*
X131350000Y-78150000D03*
X132000000Y-78150000D03*
%TD*%
D35*
%TO.C,R8*%
X128400000Y-98400000D03*
X128400000Y-100400000D03*
%TD*%
D65*
%TO.C,Q4*%
X162200000Y-96920000D03*
D66*
X171350000Y-99460000D03*
D65*
X162200000Y-102000000D03*
%TD*%
D28*
%TO.C,R14*%
X162620000Y-76390000D03*
X162620000Y-74390000D03*
%TD*%
D32*
%TO.C,C9*%
X130600000Y-100475000D03*
X130600000Y-98400000D03*
%TD*%
D26*
%TO.C,J6*%
X155130000Y-68710000D03*
D21*
X155130000Y-67210000D03*
X155130000Y-65710000D03*
%TD*%
D26*
%TO.C,J13*%
X121080000Y-68660000D03*
D21*
X121080000Y-67160000D03*
X121080000Y-65660000D03*
%TD*%
D25*
%TO.C,R9*%
X151610000Y-90310000D03*
X153610000Y-90310000D03*
%TD*%
D22*
%TO.C,C13*%
X157665000Y-84210000D03*
X159740000Y-84210000D03*
%TD*%
D67*
%TO.C,L1*%
X182730000Y-85120000D03*
X185030000Y-85120000D03*
%TD*%
D25*
%TO.C,R21*%
X110085000Y-105040000D03*
X112085000Y-105040000D03*
%TD*%
D51*
%TO.C,D7*%
X112885000Y-107440000D03*
X110085000Y-107440000D03*
%TD*%
M02*
