%TF.GenerationSoftware,KiCad,Pcbnew,8.0.4-8.0.4-0~ubuntu24.04.1*%
%TF.CreationDate,2024-09-01T12:54:27+03:00*%
%TF.ProjectId,control_body,636f6e74-726f-46c5-9f62-6f64792e6b69,rev?*%
%TF.SameCoordinates,Original*%
%TF.FileFunction,Legend,Top*%
%TF.FilePolarity,Positive*%
%FSLAX46Y46*%
G04 Gerber Fmt 4.6, Leading zero omitted, Abs format (unit mm)*
G04 Created by KiCad (PCBNEW 8.0.4-8.0.4-0~ubuntu24.04.1) date 2024-09-01 12:54:27*
%MOMM*%
%LPD*%
G01*
G04 APERTURE LIST*
%ADD10C,0.254000*%
%ADD11C,0.127000*%
%ADD12C,0.076200*%
%ADD13C,0.150000*%
%ADD14C,0.120000*%
%ADD15C,0.100000*%
G04 APERTURE END LIST*
D10*
X178400892Y-104260990D02*
X178461368Y-104079561D01*
X178461368Y-104079561D02*
X178461368Y-103777180D01*
X178461368Y-103777180D02*
X178400892Y-103656228D01*
X178400892Y-103656228D02*
X178340415Y-103595752D01*
X178340415Y-103595752D02*
X178219463Y-103535275D01*
X178219463Y-103535275D02*
X178098511Y-103535275D01*
X178098511Y-103535275D02*
X177977558Y-103595752D01*
X177977558Y-103595752D02*
X177917082Y-103656228D01*
X177917082Y-103656228D02*
X177856606Y-103777180D01*
X177856606Y-103777180D02*
X177796130Y-104019085D01*
X177796130Y-104019085D02*
X177735653Y-104140037D01*
X177735653Y-104140037D02*
X177675177Y-104200514D01*
X177675177Y-104200514D02*
X177554225Y-104260990D01*
X177554225Y-104260990D02*
X177433272Y-104260990D01*
X177433272Y-104260990D02*
X177312320Y-104200514D01*
X177312320Y-104200514D02*
X177251844Y-104140037D01*
X177251844Y-104140037D02*
X177191368Y-104019085D01*
X177191368Y-104019085D02*
X177191368Y-103716704D01*
X177191368Y-103716704D02*
X177251844Y-103535275D01*
X178461368Y-102990990D02*
X177191368Y-102990990D01*
X178461368Y-102265275D02*
X177735653Y-102809561D01*
X177191368Y-102265275D02*
X177917082Y-102990990D01*
X177191368Y-101720990D02*
X178219463Y-101720990D01*
X178219463Y-101720990D02*
X178340415Y-101660513D01*
X178340415Y-101660513D02*
X178400892Y-101600037D01*
X178400892Y-101600037D02*
X178461368Y-101479085D01*
X178461368Y-101479085D02*
X178461368Y-101237180D01*
X178461368Y-101237180D02*
X178400892Y-101116228D01*
X178400892Y-101116228D02*
X178340415Y-101055751D01*
X178340415Y-101055751D02*
X178219463Y-100995275D01*
X178219463Y-100995275D02*
X177191368Y-100995275D01*
X178098511Y-100450990D02*
X178098511Y-99846228D01*
X178461368Y-100571942D02*
X177191368Y-100148609D01*
X177191368Y-100148609D02*
X178461368Y-99725275D01*
D11*
X177333056Y-99259686D02*
X177333056Y-98679114D01*
X178349056Y-98969400D02*
X177333056Y-98969400D01*
X178349056Y-97905019D02*
X177816866Y-97905019D01*
X177816866Y-97905019D02*
X177720104Y-97953400D01*
X177720104Y-97953400D02*
X177671723Y-98050162D01*
X177671723Y-98050162D02*
X177671723Y-98243686D01*
X177671723Y-98243686D02*
X177720104Y-98340448D01*
X178300676Y-97905019D02*
X178349056Y-98001781D01*
X178349056Y-98001781D02*
X178349056Y-98243686D01*
X178349056Y-98243686D02*
X178300676Y-98340448D01*
X178300676Y-98340448D02*
X178203914Y-98388829D01*
X178203914Y-98388829D02*
X178107152Y-98388829D01*
X178107152Y-98388829D02*
X178010390Y-98340448D01*
X178010390Y-98340448D02*
X177962009Y-98243686D01*
X177962009Y-98243686D02*
X177962009Y-98001781D01*
X177962009Y-98001781D02*
X177913628Y-97905019D01*
X177671723Y-97421210D02*
X178349056Y-97421210D01*
X177768485Y-97421210D02*
X177720104Y-97372829D01*
X177720104Y-97372829D02*
X177671723Y-97276067D01*
X177671723Y-97276067D02*
X177671723Y-97130924D01*
X177671723Y-97130924D02*
X177720104Y-97034162D01*
X177720104Y-97034162D02*
X177816866Y-96985781D01*
X177816866Y-96985781D02*
X178349056Y-96985781D01*
X177671723Y-96066543D02*
X178494199Y-96066543D01*
X178494199Y-96066543D02*
X178590961Y-96114924D01*
X178590961Y-96114924D02*
X178639342Y-96163305D01*
X178639342Y-96163305D02*
X178687723Y-96260067D01*
X178687723Y-96260067D02*
X178687723Y-96405210D01*
X178687723Y-96405210D02*
X178639342Y-96501972D01*
X178300676Y-96066543D02*
X178349056Y-96163305D01*
X178349056Y-96163305D02*
X178349056Y-96356829D01*
X178349056Y-96356829D02*
X178300676Y-96453591D01*
X178300676Y-96453591D02*
X178252295Y-96501972D01*
X178252295Y-96501972D02*
X178155533Y-96550353D01*
X178155533Y-96550353D02*
X177865247Y-96550353D01*
X177865247Y-96550353D02*
X177768485Y-96501972D01*
X177768485Y-96501972D02*
X177720104Y-96453591D01*
X177720104Y-96453591D02*
X177671723Y-96356829D01*
X177671723Y-96356829D02*
X177671723Y-96163305D01*
X177671723Y-96163305D02*
X177720104Y-96066543D01*
X178349056Y-95147305D02*
X177816866Y-95147305D01*
X177816866Y-95147305D02*
X177720104Y-95195686D01*
X177720104Y-95195686D02*
X177671723Y-95292448D01*
X177671723Y-95292448D02*
X177671723Y-95485972D01*
X177671723Y-95485972D02*
X177720104Y-95582734D01*
X178300676Y-95147305D02*
X178349056Y-95244067D01*
X178349056Y-95244067D02*
X178349056Y-95485972D01*
X178349056Y-95485972D02*
X178300676Y-95582734D01*
X178300676Y-95582734D02*
X178203914Y-95631115D01*
X178203914Y-95631115D02*
X178107152Y-95631115D01*
X178107152Y-95631115D02*
X178010390Y-95582734D01*
X178010390Y-95582734D02*
X177962009Y-95485972D01*
X177962009Y-95485972D02*
X177962009Y-95244067D01*
X177962009Y-95244067D02*
X177913628Y-95147305D01*
D12*
X179513867Y-101558916D02*
X179005867Y-101558916D01*
X179005867Y-101558916D02*
X179005867Y-101437964D01*
X179005867Y-101437964D02*
X179030057Y-101365392D01*
X179030057Y-101365392D02*
X179078438Y-101317011D01*
X179078438Y-101317011D02*
X179126819Y-101292821D01*
X179126819Y-101292821D02*
X179223581Y-101268630D01*
X179223581Y-101268630D02*
X179296153Y-101268630D01*
X179296153Y-101268630D02*
X179392915Y-101292821D01*
X179392915Y-101292821D02*
X179441296Y-101317011D01*
X179441296Y-101317011D02*
X179489677Y-101365392D01*
X179489677Y-101365392D02*
X179513867Y-101437964D01*
X179513867Y-101437964D02*
X179513867Y-101558916D01*
X179513867Y-100978345D02*
X179489677Y-101026726D01*
X179489677Y-101026726D02*
X179465486Y-101050916D01*
X179465486Y-101050916D02*
X179417105Y-101075107D01*
X179417105Y-101075107D02*
X179271962Y-101075107D01*
X179271962Y-101075107D02*
X179223581Y-101050916D01*
X179223581Y-101050916D02*
X179199391Y-101026726D01*
X179199391Y-101026726D02*
X179175200Y-100978345D01*
X179175200Y-100978345D02*
X179175200Y-100905773D01*
X179175200Y-100905773D02*
X179199391Y-100857392D01*
X179199391Y-100857392D02*
X179223581Y-100833202D01*
X179223581Y-100833202D02*
X179271962Y-100809011D01*
X179271962Y-100809011D02*
X179417105Y-100809011D01*
X179417105Y-100809011D02*
X179465486Y-100833202D01*
X179465486Y-100833202D02*
X179489677Y-100857392D01*
X179489677Y-100857392D02*
X179513867Y-100905773D01*
X179513867Y-100905773D02*
X179513867Y-100978345D01*
X179175200Y-100591297D02*
X179513867Y-100591297D01*
X179223581Y-100591297D02*
X179199391Y-100567107D01*
X179199391Y-100567107D02*
X179175200Y-100518726D01*
X179175200Y-100518726D02*
X179175200Y-100446154D01*
X179175200Y-100446154D02*
X179199391Y-100397773D01*
X179199391Y-100397773D02*
X179247772Y-100373583D01*
X179247772Y-100373583D02*
X179513867Y-100373583D01*
X179489677Y-99938154D02*
X179513867Y-99986535D01*
X179513867Y-99986535D02*
X179513867Y-100083297D01*
X179513867Y-100083297D02*
X179489677Y-100131678D01*
X179489677Y-100131678D02*
X179441296Y-100155869D01*
X179441296Y-100155869D02*
X179247772Y-100155869D01*
X179247772Y-100155869D02*
X179199391Y-100131678D01*
X179199391Y-100131678D02*
X179175200Y-100083297D01*
X179175200Y-100083297D02*
X179175200Y-99986535D01*
X179175200Y-99986535D02*
X179199391Y-99938154D01*
X179199391Y-99938154D02*
X179247772Y-99913964D01*
X179247772Y-99913964D02*
X179296153Y-99913964D01*
X179296153Y-99913964D02*
X179344534Y-100155869D01*
X179513867Y-99309201D02*
X179005867Y-99309201D01*
X179199391Y-99309201D02*
X179175200Y-99260820D01*
X179175200Y-99260820D02*
X179175200Y-99164058D01*
X179175200Y-99164058D02*
X179199391Y-99115677D01*
X179199391Y-99115677D02*
X179223581Y-99091487D01*
X179223581Y-99091487D02*
X179271962Y-99067296D01*
X179271962Y-99067296D02*
X179417105Y-99067296D01*
X179417105Y-99067296D02*
X179465486Y-99091487D01*
X179465486Y-99091487D02*
X179489677Y-99115677D01*
X179489677Y-99115677D02*
X179513867Y-99164058D01*
X179513867Y-99164058D02*
X179513867Y-99260820D01*
X179513867Y-99260820D02*
X179489677Y-99309201D01*
X179175200Y-98897963D02*
X179513867Y-98777011D01*
X179175200Y-98656058D02*
X179513867Y-98777011D01*
X179513867Y-98777011D02*
X179634819Y-98825392D01*
X179634819Y-98825392D02*
X179659010Y-98849582D01*
X179659010Y-98849582D02*
X179683200Y-98897963D01*
X179005867Y-98148058D02*
X179513867Y-97978724D01*
X179513867Y-97978724D02*
X179005867Y-97809391D01*
X179513867Y-97640057D02*
X179175200Y-97640057D01*
X179005867Y-97640057D02*
X179030057Y-97664248D01*
X179030057Y-97664248D02*
X179054248Y-97640057D01*
X179054248Y-97640057D02*
X179030057Y-97615867D01*
X179030057Y-97615867D02*
X179005867Y-97640057D01*
X179005867Y-97640057D02*
X179054248Y-97640057D01*
X179489677Y-97180438D02*
X179513867Y-97228819D01*
X179513867Y-97228819D02*
X179513867Y-97325581D01*
X179513867Y-97325581D02*
X179489677Y-97373962D01*
X179489677Y-97373962D02*
X179465486Y-97398152D01*
X179465486Y-97398152D02*
X179417105Y-97422343D01*
X179417105Y-97422343D02*
X179271962Y-97422343D01*
X179271962Y-97422343D02*
X179223581Y-97398152D01*
X179223581Y-97398152D02*
X179199391Y-97373962D01*
X179199391Y-97373962D02*
X179175200Y-97325581D01*
X179175200Y-97325581D02*
X179175200Y-97228819D01*
X179175200Y-97228819D02*
X179199391Y-97180438D01*
X179175200Y-97035295D02*
X179175200Y-96841771D01*
X179005867Y-96962723D02*
X179441296Y-96962723D01*
X179441296Y-96962723D02*
X179489677Y-96938533D01*
X179489677Y-96938533D02*
X179513867Y-96890152D01*
X179513867Y-96890152D02*
X179513867Y-96841771D01*
X179513867Y-96599866D02*
X179489677Y-96648247D01*
X179489677Y-96648247D02*
X179465486Y-96672437D01*
X179465486Y-96672437D02*
X179417105Y-96696628D01*
X179417105Y-96696628D02*
X179271962Y-96696628D01*
X179271962Y-96696628D02*
X179223581Y-96672437D01*
X179223581Y-96672437D02*
X179199391Y-96648247D01*
X179199391Y-96648247D02*
X179175200Y-96599866D01*
X179175200Y-96599866D02*
X179175200Y-96527294D01*
X179175200Y-96527294D02*
X179199391Y-96478913D01*
X179199391Y-96478913D02*
X179223581Y-96454723D01*
X179223581Y-96454723D02*
X179271962Y-96430532D01*
X179271962Y-96430532D02*
X179417105Y-96430532D01*
X179417105Y-96430532D02*
X179465486Y-96454723D01*
X179465486Y-96454723D02*
X179489677Y-96478913D01*
X179489677Y-96478913D02*
X179513867Y-96527294D01*
X179513867Y-96527294D02*
X179513867Y-96599866D01*
X179175200Y-96212818D02*
X179513867Y-96212818D01*
X179223581Y-96212818D02*
X179199391Y-96188628D01*
X179199391Y-96188628D02*
X179175200Y-96140247D01*
X179175200Y-96140247D02*
X179175200Y-96067675D01*
X179175200Y-96067675D02*
X179199391Y-96019294D01*
X179199391Y-96019294D02*
X179247772Y-95995104D01*
X179247772Y-95995104D02*
X179513867Y-95995104D01*
X179513867Y-95753199D02*
X179175200Y-95753199D01*
X179005867Y-95753199D02*
X179030057Y-95777390D01*
X179030057Y-95777390D02*
X179054248Y-95753199D01*
X179054248Y-95753199D02*
X179030057Y-95729009D01*
X179030057Y-95729009D02*
X179005867Y-95753199D01*
X179005867Y-95753199D02*
X179054248Y-95753199D01*
X179005867Y-95559675D02*
X179513867Y-95221008D01*
X179005867Y-95221008D02*
X179513867Y-95559675D01*
D13*
X113109819Y-95583333D02*
X113824104Y-95583333D01*
X113824104Y-95583333D02*
X113966961Y-95630952D01*
X113966961Y-95630952D02*
X114062200Y-95726190D01*
X114062200Y-95726190D02*
X114109819Y-95869047D01*
X114109819Y-95869047D02*
X114109819Y-95964285D01*
X113205057Y-95154761D02*
X113157438Y-95107142D01*
X113157438Y-95107142D02*
X113109819Y-95011904D01*
X113109819Y-95011904D02*
X113109819Y-94773809D01*
X113109819Y-94773809D02*
X113157438Y-94678571D01*
X113157438Y-94678571D02*
X113205057Y-94630952D01*
X113205057Y-94630952D02*
X113300295Y-94583333D01*
X113300295Y-94583333D02*
X113395533Y-94583333D01*
X113395533Y-94583333D02*
X113538390Y-94630952D01*
X113538390Y-94630952D02*
X114109819Y-95202380D01*
X114109819Y-95202380D02*
X114109819Y-94583333D01*
X183369104Y-73716666D02*
X183369104Y-73240476D01*
X183654819Y-73811904D02*
X182654819Y-73478571D01*
X182654819Y-73478571D02*
X183654819Y-73145238D01*
X183131009Y-72811904D02*
X183131009Y-72478571D01*
X183654819Y-72335714D02*
X183654819Y-72811904D01*
X183654819Y-72811904D02*
X182654819Y-72811904D01*
X182654819Y-72811904D02*
X182654819Y-72335714D01*
X183654819Y-71383333D02*
X183654819Y-71954761D01*
X183654819Y-71669047D02*
X182654819Y-71669047D01*
X182654819Y-71669047D02*
X182797676Y-71764285D01*
X182797676Y-71764285D02*
X182892914Y-71859523D01*
X182892914Y-71859523D02*
X182940533Y-71954761D01*
X148954819Y-108889523D02*
X149669104Y-108889523D01*
X149669104Y-108889523D02*
X149811961Y-108937142D01*
X149811961Y-108937142D02*
X149907200Y-109032380D01*
X149907200Y-109032380D02*
X149954819Y-109175237D01*
X149954819Y-109175237D02*
X149954819Y-109270475D01*
X149050057Y-108460951D02*
X149002438Y-108413332D01*
X149002438Y-108413332D02*
X148954819Y-108318094D01*
X148954819Y-108318094D02*
X148954819Y-108079999D01*
X148954819Y-108079999D02*
X149002438Y-107984761D01*
X149002438Y-107984761D02*
X149050057Y-107937142D01*
X149050057Y-107937142D02*
X149145295Y-107889523D01*
X149145295Y-107889523D02*
X149240533Y-107889523D01*
X149240533Y-107889523D02*
X149383390Y-107937142D01*
X149383390Y-107937142D02*
X149954819Y-108508570D01*
X149954819Y-108508570D02*
X149954819Y-107889523D01*
X149954819Y-106937142D02*
X149954819Y-107508570D01*
X149954819Y-107222856D02*
X148954819Y-107222856D01*
X148954819Y-107222856D02*
X149097676Y-107318094D01*
X149097676Y-107318094D02*
X149192914Y-107413332D01*
X149192914Y-107413332D02*
X149240533Y-107508570D01*
X177438095Y-85654819D02*
X177438095Y-86464342D01*
X177438095Y-86464342D02*
X177485714Y-86559580D01*
X177485714Y-86559580D02*
X177533333Y-86607200D01*
X177533333Y-86607200D02*
X177628571Y-86654819D01*
X177628571Y-86654819D02*
X177819047Y-86654819D01*
X177819047Y-86654819D02*
X177914285Y-86607200D01*
X177914285Y-86607200D02*
X177961904Y-86559580D01*
X177961904Y-86559580D02*
X178009523Y-86464342D01*
X178009523Y-86464342D02*
X178009523Y-85654819D01*
X178390476Y-85654819D02*
X179009523Y-85654819D01*
X179009523Y-85654819D02*
X178676190Y-86035771D01*
X178676190Y-86035771D02*
X178819047Y-86035771D01*
X178819047Y-86035771D02*
X178914285Y-86083390D01*
X178914285Y-86083390D02*
X178961904Y-86131009D01*
X178961904Y-86131009D02*
X179009523Y-86226247D01*
X179009523Y-86226247D02*
X179009523Y-86464342D01*
X179009523Y-86464342D02*
X178961904Y-86559580D01*
X178961904Y-86559580D02*
X178914285Y-86607200D01*
X178914285Y-86607200D02*
X178819047Y-86654819D01*
X178819047Y-86654819D02*
X178533333Y-86654819D01*
X178533333Y-86654819D02*
X178438095Y-86607200D01*
X178438095Y-86607200D02*
X178390476Y-86559580D01*
X140190476Y-118054819D02*
X140190476Y-118769104D01*
X140190476Y-118769104D02*
X140142857Y-118911961D01*
X140142857Y-118911961D02*
X140047619Y-119007200D01*
X140047619Y-119007200D02*
X139904762Y-119054819D01*
X139904762Y-119054819D02*
X139809524Y-119054819D01*
X141190476Y-119054819D02*
X140619048Y-119054819D01*
X140904762Y-119054819D02*
X140904762Y-118054819D01*
X140904762Y-118054819D02*
X140809524Y-118197676D01*
X140809524Y-118197676D02*
X140714286Y-118292914D01*
X140714286Y-118292914D02*
X140619048Y-118340533D01*
X142047619Y-118054819D02*
X141857143Y-118054819D01*
X141857143Y-118054819D02*
X141761905Y-118102438D01*
X141761905Y-118102438D02*
X141714286Y-118150057D01*
X141714286Y-118150057D02*
X141619048Y-118292914D01*
X141619048Y-118292914D02*
X141571429Y-118483390D01*
X141571429Y-118483390D02*
X141571429Y-118864342D01*
X141571429Y-118864342D02*
X141619048Y-118959580D01*
X141619048Y-118959580D02*
X141666667Y-119007200D01*
X141666667Y-119007200D02*
X141761905Y-119054819D01*
X141761905Y-119054819D02*
X141952381Y-119054819D01*
X141952381Y-119054819D02*
X142047619Y-119007200D01*
X142047619Y-119007200D02*
X142095238Y-118959580D01*
X142095238Y-118959580D02*
X142142857Y-118864342D01*
X142142857Y-118864342D02*
X142142857Y-118626247D01*
X142142857Y-118626247D02*
X142095238Y-118531009D01*
X142095238Y-118531009D02*
X142047619Y-118483390D01*
X142047619Y-118483390D02*
X141952381Y-118435771D01*
X141952381Y-118435771D02*
X141761905Y-118435771D01*
X141761905Y-118435771D02*
X141666667Y-118483390D01*
X141666667Y-118483390D02*
X141619048Y-118531009D01*
X141619048Y-118531009D02*
X141571429Y-118626247D01*
X183307142Y-75879580D02*
X183259523Y-75927200D01*
X183259523Y-75927200D02*
X183116666Y-75974819D01*
X183116666Y-75974819D02*
X183021428Y-75974819D01*
X183021428Y-75974819D02*
X182878571Y-75927200D01*
X182878571Y-75927200D02*
X182783333Y-75831961D01*
X182783333Y-75831961D02*
X182735714Y-75736723D01*
X182735714Y-75736723D02*
X182688095Y-75546247D01*
X182688095Y-75546247D02*
X182688095Y-75403390D01*
X182688095Y-75403390D02*
X182735714Y-75212914D01*
X182735714Y-75212914D02*
X182783333Y-75117676D01*
X182783333Y-75117676D02*
X182878571Y-75022438D01*
X182878571Y-75022438D02*
X183021428Y-74974819D01*
X183021428Y-74974819D02*
X183116666Y-74974819D01*
X183116666Y-74974819D02*
X183259523Y-75022438D01*
X183259523Y-75022438D02*
X183307142Y-75070057D01*
X184259523Y-75974819D02*
X183688095Y-75974819D01*
X183973809Y-75974819D02*
X183973809Y-74974819D01*
X183973809Y-74974819D02*
X183878571Y-75117676D01*
X183878571Y-75117676D02*
X183783333Y-75212914D01*
X183783333Y-75212914D02*
X183688095Y-75260533D01*
X184878571Y-74974819D02*
X184973809Y-74974819D01*
X184973809Y-74974819D02*
X185069047Y-75022438D01*
X185069047Y-75022438D02*
X185116666Y-75070057D01*
X185116666Y-75070057D02*
X185164285Y-75165295D01*
X185164285Y-75165295D02*
X185211904Y-75355771D01*
X185211904Y-75355771D02*
X185211904Y-75593866D01*
X185211904Y-75593866D02*
X185164285Y-75784342D01*
X185164285Y-75784342D02*
X185116666Y-75879580D01*
X185116666Y-75879580D02*
X185069047Y-75927200D01*
X185069047Y-75927200D02*
X184973809Y-75974819D01*
X184973809Y-75974819D02*
X184878571Y-75974819D01*
X184878571Y-75974819D02*
X184783333Y-75927200D01*
X184783333Y-75927200D02*
X184735714Y-75879580D01*
X184735714Y-75879580D02*
X184688095Y-75784342D01*
X184688095Y-75784342D02*
X184640476Y-75593866D01*
X184640476Y-75593866D02*
X184640476Y-75355771D01*
X184640476Y-75355771D02*
X184688095Y-75165295D01*
X184688095Y-75165295D02*
X184735714Y-75070057D01*
X184735714Y-75070057D02*
X184783333Y-75022438D01*
X184783333Y-75022438D02*
X184878571Y-74974819D01*
X181428095Y-113266819D02*
X181999523Y-113266819D01*
X181713809Y-114266819D02*
X181713809Y-113266819D01*
X182332857Y-114266819D02*
X182332857Y-113266819D01*
X182332857Y-113266819D02*
X182713809Y-113266819D01*
X182713809Y-113266819D02*
X182809047Y-113314438D01*
X182809047Y-113314438D02*
X182856666Y-113362057D01*
X182856666Y-113362057D02*
X182904285Y-113457295D01*
X182904285Y-113457295D02*
X182904285Y-113600152D01*
X182904285Y-113600152D02*
X182856666Y-113695390D01*
X182856666Y-113695390D02*
X182809047Y-113743009D01*
X182809047Y-113743009D02*
X182713809Y-113790628D01*
X182713809Y-113790628D02*
X182332857Y-113790628D01*
X183809047Y-113266819D02*
X183332857Y-113266819D01*
X183332857Y-113266819D02*
X183285238Y-113743009D01*
X183285238Y-113743009D02*
X183332857Y-113695390D01*
X183332857Y-113695390D02*
X183428095Y-113647771D01*
X183428095Y-113647771D02*
X183666190Y-113647771D01*
X183666190Y-113647771D02*
X183761428Y-113695390D01*
X183761428Y-113695390D02*
X183809047Y-113743009D01*
X183809047Y-113743009D02*
X183856666Y-113838247D01*
X183856666Y-113838247D02*
X183856666Y-114076342D01*
X183856666Y-114076342D02*
X183809047Y-114171580D01*
X183809047Y-114171580D02*
X183761428Y-114219200D01*
X183761428Y-114219200D02*
X183666190Y-114266819D01*
X183666190Y-114266819D02*
X183428095Y-114266819D01*
X183428095Y-114266819D02*
X183332857Y-114219200D01*
X183332857Y-114219200D02*
X183285238Y-114171580D01*
X159904761Y-111645057D02*
X159809523Y-111597438D01*
X159809523Y-111597438D02*
X159714285Y-111502200D01*
X159714285Y-111502200D02*
X159571428Y-111359342D01*
X159571428Y-111359342D02*
X159476190Y-111311723D01*
X159476190Y-111311723D02*
X159380952Y-111311723D01*
X159428571Y-111549819D02*
X159333333Y-111502200D01*
X159333333Y-111502200D02*
X159238095Y-111406961D01*
X159238095Y-111406961D02*
X159190476Y-111216485D01*
X159190476Y-111216485D02*
X159190476Y-110883152D01*
X159190476Y-110883152D02*
X159238095Y-110692676D01*
X159238095Y-110692676D02*
X159333333Y-110597438D01*
X159333333Y-110597438D02*
X159428571Y-110549819D01*
X159428571Y-110549819D02*
X159619047Y-110549819D01*
X159619047Y-110549819D02*
X159714285Y-110597438D01*
X159714285Y-110597438D02*
X159809523Y-110692676D01*
X159809523Y-110692676D02*
X159857142Y-110883152D01*
X159857142Y-110883152D02*
X159857142Y-111216485D01*
X159857142Y-111216485D02*
X159809523Y-111406961D01*
X159809523Y-111406961D02*
X159714285Y-111502200D01*
X159714285Y-111502200D02*
X159619047Y-111549819D01*
X159619047Y-111549819D02*
X159428571Y-111549819D01*
X160190476Y-110549819D02*
X160809523Y-110549819D01*
X160809523Y-110549819D02*
X160476190Y-110930771D01*
X160476190Y-110930771D02*
X160619047Y-110930771D01*
X160619047Y-110930771D02*
X160714285Y-110978390D01*
X160714285Y-110978390D02*
X160761904Y-111026009D01*
X160761904Y-111026009D02*
X160809523Y-111121247D01*
X160809523Y-111121247D02*
X160809523Y-111359342D01*
X160809523Y-111359342D02*
X160761904Y-111454580D01*
X160761904Y-111454580D02*
X160714285Y-111502200D01*
X160714285Y-111502200D02*
X160619047Y-111549819D01*
X160619047Y-111549819D02*
X160333333Y-111549819D01*
X160333333Y-111549819D02*
X160238095Y-111502200D01*
X160238095Y-111502200D02*
X160190476Y-111454580D01*
X126633333Y-97434819D02*
X126300000Y-96958628D01*
X126061905Y-97434819D02*
X126061905Y-96434819D01*
X126061905Y-96434819D02*
X126442857Y-96434819D01*
X126442857Y-96434819D02*
X126538095Y-96482438D01*
X126538095Y-96482438D02*
X126585714Y-96530057D01*
X126585714Y-96530057D02*
X126633333Y-96625295D01*
X126633333Y-96625295D02*
X126633333Y-96768152D01*
X126633333Y-96768152D02*
X126585714Y-96863390D01*
X126585714Y-96863390D02*
X126538095Y-96911009D01*
X126538095Y-96911009D02*
X126442857Y-96958628D01*
X126442857Y-96958628D02*
X126061905Y-96958628D01*
X126966667Y-96434819D02*
X127633333Y-96434819D01*
X127633333Y-96434819D02*
X127204762Y-97434819D01*
X181428095Y-100666819D02*
X181999523Y-100666819D01*
X181713809Y-101666819D02*
X181713809Y-100666819D01*
X182332857Y-101666819D02*
X182332857Y-100666819D01*
X182332857Y-100666819D02*
X182713809Y-100666819D01*
X182713809Y-100666819D02*
X182809047Y-100714438D01*
X182809047Y-100714438D02*
X182856666Y-100762057D01*
X182856666Y-100762057D02*
X182904285Y-100857295D01*
X182904285Y-100857295D02*
X182904285Y-101000152D01*
X182904285Y-101000152D02*
X182856666Y-101095390D01*
X182856666Y-101095390D02*
X182809047Y-101143009D01*
X182809047Y-101143009D02*
X182713809Y-101190628D01*
X182713809Y-101190628D02*
X182332857Y-101190628D01*
X183856666Y-101666819D02*
X183285238Y-101666819D01*
X183570952Y-101666819D02*
X183570952Y-100666819D01*
X183570952Y-100666819D02*
X183475714Y-100809676D01*
X183475714Y-100809676D02*
X183380476Y-100904914D01*
X183380476Y-100904914D02*
X183285238Y-100952533D01*
X144266666Y-71054819D02*
X144266666Y-71769104D01*
X144266666Y-71769104D02*
X144219047Y-71911961D01*
X144219047Y-71911961D02*
X144123809Y-72007200D01*
X144123809Y-72007200D02*
X143980952Y-72054819D01*
X143980952Y-72054819D02*
X143885714Y-72054819D01*
X144885714Y-71483390D02*
X144790476Y-71435771D01*
X144790476Y-71435771D02*
X144742857Y-71388152D01*
X144742857Y-71388152D02*
X144695238Y-71292914D01*
X144695238Y-71292914D02*
X144695238Y-71245295D01*
X144695238Y-71245295D02*
X144742857Y-71150057D01*
X144742857Y-71150057D02*
X144790476Y-71102438D01*
X144790476Y-71102438D02*
X144885714Y-71054819D01*
X144885714Y-71054819D02*
X145076190Y-71054819D01*
X145076190Y-71054819D02*
X145171428Y-71102438D01*
X145171428Y-71102438D02*
X145219047Y-71150057D01*
X145219047Y-71150057D02*
X145266666Y-71245295D01*
X145266666Y-71245295D02*
X145266666Y-71292914D01*
X145266666Y-71292914D02*
X145219047Y-71388152D01*
X145219047Y-71388152D02*
X145171428Y-71435771D01*
X145171428Y-71435771D02*
X145076190Y-71483390D01*
X145076190Y-71483390D02*
X144885714Y-71483390D01*
X144885714Y-71483390D02*
X144790476Y-71531009D01*
X144790476Y-71531009D02*
X144742857Y-71578628D01*
X144742857Y-71578628D02*
X144695238Y-71673866D01*
X144695238Y-71673866D02*
X144695238Y-71864342D01*
X144695238Y-71864342D02*
X144742857Y-71959580D01*
X144742857Y-71959580D02*
X144790476Y-72007200D01*
X144790476Y-72007200D02*
X144885714Y-72054819D01*
X144885714Y-72054819D02*
X145076190Y-72054819D01*
X145076190Y-72054819D02*
X145171428Y-72007200D01*
X145171428Y-72007200D02*
X145219047Y-71959580D01*
X145219047Y-71959580D02*
X145266666Y-71864342D01*
X145266666Y-71864342D02*
X145266666Y-71673866D01*
X145266666Y-71673866D02*
X145219047Y-71578628D01*
X145219047Y-71578628D02*
X145171428Y-71531009D01*
X145171428Y-71531009D02*
X145076190Y-71483390D01*
X133699819Y-108568333D02*
X134414104Y-108568333D01*
X134414104Y-108568333D02*
X134556961Y-108615952D01*
X134556961Y-108615952D02*
X134652200Y-108711190D01*
X134652200Y-108711190D02*
X134699819Y-108854047D01*
X134699819Y-108854047D02*
X134699819Y-108949285D01*
X133699819Y-108187380D02*
X133699819Y-107568333D01*
X133699819Y-107568333D02*
X134080771Y-107901666D01*
X134080771Y-107901666D02*
X134080771Y-107758809D01*
X134080771Y-107758809D02*
X134128390Y-107663571D01*
X134128390Y-107663571D02*
X134176009Y-107615952D01*
X134176009Y-107615952D02*
X134271247Y-107568333D01*
X134271247Y-107568333D02*
X134509342Y-107568333D01*
X134509342Y-107568333D02*
X134604580Y-107615952D01*
X134604580Y-107615952D02*
X134652200Y-107663571D01*
X134652200Y-107663571D02*
X134699819Y-107758809D01*
X134699819Y-107758809D02*
X134699819Y-108044523D01*
X134699819Y-108044523D02*
X134652200Y-108139761D01*
X134652200Y-108139761D02*
X134604580Y-108187380D01*
X179974819Y-92699523D02*
X180689104Y-92699523D01*
X180689104Y-92699523D02*
X180831961Y-92747142D01*
X180831961Y-92747142D02*
X180927200Y-92842380D01*
X180927200Y-92842380D02*
X180974819Y-92985237D01*
X180974819Y-92985237D02*
X180974819Y-93080475D01*
X180070057Y-92270951D02*
X180022438Y-92223332D01*
X180022438Y-92223332D02*
X179974819Y-92128094D01*
X179974819Y-92128094D02*
X179974819Y-91889999D01*
X179974819Y-91889999D02*
X180022438Y-91794761D01*
X180022438Y-91794761D02*
X180070057Y-91747142D01*
X180070057Y-91747142D02*
X180165295Y-91699523D01*
X180165295Y-91699523D02*
X180260533Y-91699523D01*
X180260533Y-91699523D02*
X180403390Y-91747142D01*
X180403390Y-91747142D02*
X180974819Y-92318570D01*
X180974819Y-92318570D02*
X180974819Y-91699523D01*
X179974819Y-91080475D02*
X179974819Y-90985237D01*
X179974819Y-90985237D02*
X180022438Y-90889999D01*
X180022438Y-90889999D02*
X180070057Y-90842380D01*
X180070057Y-90842380D02*
X180165295Y-90794761D01*
X180165295Y-90794761D02*
X180355771Y-90747142D01*
X180355771Y-90747142D02*
X180593866Y-90747142D01*
X180593866Y-90747142D02*
X180784342Y-90794761D01*
X180784342Y-90794761D02*
X180879580Y-90842380D01*
X180879580Y-90842380D02*
X180927200Y-90889999D01*
X180927200Y-90889999D02*
X180974819Y-90985237D01*
X180974819Y-90985237D02*
X180974819Y-91080475D01*
X180974819Y-91080475D02*
X180927200Y-91175713D01*
X180927200Y-91175713D02*
X180879580Y-91223332D01*
X180879580Y-91223332D02*
X180784342Y-91270951D01*
X180784342Y-91270951D02*
X180593866Y-91318570D01*
X180593866Y-91318570D02*
X180355771Y-91318570D01*
X180355771Y-91318570D02*
X180165295Y-91270951D01*
X180165295Y-91270951D02*
X180070057Y-91223332D01*
X180070057Y-91223332D02*
X180022438Y-91175713D01*
X180022438Y-91175713D02*
X179974819Y-91080475D01*
X127061905Y-77654819D02*
X127061905Y-76654819D01*
X127061905Y-76654819D02*
X127300000Y-76654819D01*
X127300000Y-76654819D02*
X127442857Y-76702438D01*
X127442857Y-76702438D02*
X127538095Y-76797676D01*
X127538095Y-76797676D02*
X127585714Y-76892914D01*
X127585714Y-76892914D02*
X127633333Y-77083390D01*
X127633333Y-77083390D02*
X127633333Y-77226247D01*
X127633333Y-77226247D02*
X127585714Y-77416723D01*
X127585714Y-77416723D02*
X127538095Y-77511961D01*
X127538095Y-77511961D02*
X127442857Y-77607200D01*
X127442857Y-77607200D02*
X127300000Y-77654819D01*
X127300000Y-77654819D02*
X127061905Y-77654819D01*
X128014286Y-76750057D02*
X128061905Y-76702438D01*
X128061905Y-76702438D02*
X128157143Y-76654819D01*
X128157143Y-76654819D02*
X128395238Y-76654819D01*
X128395238Y-76654819D02*
X128490476Y-76702438D01*
X128490476Y-76702438D02*
X128538095Y-76750057D01*
X128538095Y-76750057D02*
X128585714Y-76845295D01*
X128585714Y-76845295D02*
X128585714Y-76940533D01*
X128585714Y-76940533D02*
X128538095Y-77083390D01*
X128538095Y-77083390D02*
X127966667Y-77654819D01*
X127966667Y-77654819D02*
X128585714Y-77654819D01*
X174254819Y-107242857D02*
X173778628Y-107576190D01*
X174254819Y-107814285D02*
X173254819Y-107814285D01*
X173254819Y-107814285D02*
X173254819Y-107433333D01*
X173254819Y-107433333D02*
X173302438Y-107338095D01*
X173302438Y-107338095D02*
X173350057Y-107290476D01*
X173350057Y-107290476D02*
X173445295Y-107242857D01*
X173445295Y-107242857D02*
X173588152Y-107242857D01*
X173588152Y-107242857D02*
X173683390Y-107290476D01*
X173683390Y-107290476D02*
X173731009Y-107338095D01*
X173731009Y-107338095D02*
X173778628Y-107433333D01*
X173778628Y-107433333D02*
X173778628Y-107814285D01*
X173350057Y-106861904D02*
X173302438Y-106814285D01*
X173302438Y-106814285D02*
X173254819Y-106719047D01*
X173254819Y-106719047D02*
X173254819Y-106480952D01*
X173254819Y-106480952D02*
X173302438Y-106385714D01*
X173302438Y-106385714D02*
X173350057Y-106338095D01*
X173350057Y-106338095D02*
X173445295Y-106290476D01*
X173445295Y-106290476D02*
X173540533Y-106290476D01*
X173540533Y-106290476D02*
X173683390Y-106338095D01*
X173683390Y-106338095D02*
X174254819Y-106909523D01*
X174254819Y-106909523D02*
X174254819Y-106290476D01*
X173254819Y-105433333D02*
X173254819Y-105623809D01*
X173254819Y-105623809D02*
X173302438Y-105719047D01*
X173302438Y-105719047D02*
X173350057Y-105766666D01*
X173350057Y-105766666D02*
X173492914Y-105861904D01*
X173492914Y-105861904D02*
X173683390Y-105909523D01*
X173683390Y-105909523D02*
X174064342Y-105909523D01*
X174064342Y-105909523D02*
X174159580Y-105861904D01*
X174159580Y-105861904D02*
X174207200Y-105814285D01*
X174207200Y-105814285D02*
X174254819Y-105719047D01*
X174254819Y-105719047D02*
X174254819Y-105528571D01*
X174254819Y-105528571D02*
X174207200Y-105433333D01*
X174207200Y-105433333D02*
X174159580Y-105385714D01*
X174159580Y-105385714D02*
X174064342Y-105338095D01*
X174064342Y-105338095D02*
X173826247Y-105338095D01*
X173826247Y-105338095D02*
X173731009Y-105385714D01*
X173731009Y-105385714D02*
X173683390Y-105433333D01*
X173683390Y-105433333D02*
X173635771Y-105528571D01*
X173635771Y-105528571D02*
X173635771Y-105719047D01*
X173635771Y-105719047D02*
X173683390Y-105814285D01*
X173683390Y-105814285D02*
X173731009Y-105861904D01*
X173731009Y-105861904D02*
X173826247Y-105909523D01*
X170366666Y-70714819D02*
X170366666Y-71429104D01*
X170366666Y-71429104D02*
X170319047Y-71571961D01*
X170319047Y-71571961D02*
X170223809Y-71667200D01*
X170223809Y-71667200D02*
X170080952Y-71714819D01*
X170080952Y-71714819D02*
X169985714Y-71714819D01*
X170842857Y-71714819D02*
X170842857Y-70714819D01*
X170842857Y-70714819D02*
X171223809Y-70714819D01*
X171223809Y-70714819D02*
X171319047Y-70762438D01*
X171319047Y-70762438D02*
X171366666Y-70810057D01*
X171366666Y-70810057D02*
X171414285Y-70905295D01*
X171414285Y-70905295D02*
X171414285Y-71048152D01*
X171414285Y-71048152D02*
X171366666Y-71143390D01*
X171366666Y-71143390D02*
X171319047Y-71191009D01*
X171319047Y-71191009D02*
X171223809Y-71238628D01*
X171223809Y-71238628D02*
X170842857Y-71238628D01*
X172366666Y-71714819D02*
X171795238Y-71714819D01*
X172080952Y-71714819D02*
X172080952Y-70714819D01*
X172080952Y-70714819D02*
X171985714Y-70857676D01*
X171985714Y-70857676D02*
X171890476Y-70952914D01*
X171890476Y-70952914D02*
X171795238Y-71000533D01*
X152127142Y-85359580D02*
X152079523Y-85407200D01*
X152079523Y-85407200D02*
X151936666Y-85454819D01*
X151936666Y-85454819D02*
X151841428Y-85454819D01*
X151841428Y-85454819D02*
X151698571Y-85407200D01*
X151698571Y-85407200D02*
X151603333Y-85311961D01*
X151603333Y-85311961D02*
X151555714Y-85216723D01*
X151555714Y-85216723D02*
X151508095Y-85026247D01*
X151508095Y-85026247D02*
X151508095Y-84883390D01*
X151508095Y-84883390D02*
X151555714Y-84692914D01*
X151555714Y-84692914D02*
X151603333Y-84597676D01*
X151603333Y-84597676D02*
X151698571Y-84502438D01*
X151698571Y-84502438D02*
X151841428Y-84454819D01*
X151841428Y-84454819D02*
X151936666Y-84454819D01*
X151936666Y-84454819D02*
X152079523Y-84502438D01*
X152079523Y-84502438D02*
X152127142Y-84550057D01*
X153079523Y-85454819D02*
X152508095Y-85454819D01*
X152793809Y-85454819D02*
X152793809Y-84454819D01*
X152793809Y-84454819D02*
X152698571Y-84597676D01*
X152698571Y-84597676D02*
X152603333Y-84692914D01*
X152603333Y-84692914D02*
X152508095Y-84740533D01*
X153936666Y-84454819D02*
X153746190Y-84454819D01*
X153746190Y-84454819D02*
X153650952Y-84502438D01*
X153650952Y-84502438D02*
X153603333Y-84550057D01*
X153603333Y-84550057D02*
X153508095Y-84692914D01*
X153508095Y-84692914D02*
X153460476Y-84883390D01*
X153460476Y-84883390D02*
X153460476Y-85264342D01*
X153460476Y-85264342D02*
X153508095Y-85359580D01*
X153508095Y-85359580D02*
X153555714Y-85407200D01*
X153555714Y-85407200D02*
X153650952Y-85454819D01*
X153650952Y-85454819D02*
X153841428Y-85454819D01*
X153841428Y-85454819D02*
X153936666Y-85407200D01*
X153936666Y-85407200D02*
X153984285Y-85359580D01*
X153984285Y-85359580D02*
X154031904Y-85264342D01*
X154031904Y-85264342D02*
X154031904Y-85026247D01*
X154031904Y-85026247D02*
X153984285Y-84931009D01*
X153984285Y-84931009D02*
X153936666Y-84883390D01*
X153936666Y-84883390D02*
X153841428Y-84835771D01*
X153841428Y-84835771D02*
X153650952Y-84835771D01*
X153650952Y-84835771D02*
X153555714Y-84883390D01*
X153555714Y-84883390D02*
X153508095Y-84931009D01*
X153508095Y-84931009D02*
X153460476Y-85026247D01*
X121833333Y-75254819D02*
X121500000Y-74778628D01*
X121261905Y-75254819D02*
X121261905Y-74254819D01*
X121261905Y-74254819D02*
X121642857Y-74254819D01*
X121642857Y-74254819D02*
X121738095Y-74302438D01*
X121738095Y-74302438D02*
X121785714Y-74350057D01*
X121785714Y-74350057D02*
X121833333Y-74445295D01*
X121833333Y-74445295D02*
X121833333Y-74588152D01*
X121833333Y-74588152D02*
X121785714Y-74683390D01*
X121785714Y-74683390D02*
X121738095Y-74731009D01*
X121738095Y-74731009D02*
X121642857Y-74778628D01*
X121642857Y-74778628D02*
X121261905Y-74778628D01*
X122785714Y-75254819D02*
X122214286Y-75254819D01*
X122500000Y-75254819D02*
X122500000Y-74254819D01*
X122500000Y-74254819D02*
X122404762Y-74397676D01*
X122404762Y-74397676D02*
X122309524Y-74492914D01*
X122309524Y-74492914D02*
X122214286Y-74540533D01*
X167959580Y-84642857D02*
X168007200Y-84690476D01*
X168007200Y-84690476D02*
X168054819Y-84833333D01*
X168054819Y-84833333D02*
X168054819Y-84928571D01*
X168054819Y-84928571D02*
X168007200Y-85071428D01*
X168007200Y-85071428D02*
X167911961Y-85166666D01*
X167911961Y-85166666D02*
X167816723Y-85214285D01*
X167816723Y-85214285D02*
X167626247Y-85261904D01*
X167626247Y-85261904D02*
X167483390Y-85261904D01*
X167483390Y-85261904D02*
X167292914Y-85214285D01*
X167292914Y-85214285D02*
X167197676Y-85166666D01*
X167197676Y-85166666D02*
X167102438Y-85071428D01*
X167102438Y-85071428D02*
X167054819Y-84928571D01*
X167054819Y-84928571D02*
X167054819Y-84833333D01*
X167054819Y-84833333D02*
X167102438Y-84690476D01*
X167102438Y-84690476D02*
X167150057Y-84642857D01*
X168054819Y-83690476D02*
X168054819Y-84261904D01*
X168054819Y-83976190D02*
X167054819Y-83976190D01*
X167054819Y-83976190D02*
X167197676Y-84071428D01*
X167197676Y-84071428D02*
X167292914Y-84166666D01*
X167292914Y-84166666D02*
X167340533Y-84261904D01*
X167388152Y-82833333D02*
X168054819Y-82833333D01*
X167007200Y-83071428D02*
X167721485Y-83309523D01*
X167721485Y-83309523D02*
X167721485Y-82690476D01*
X128937200Y-124803332D02*
X128984819Y-124660475D01*
X128984819Y-124660475D02*
X128984819Y-124422380D01*
X128984819Y-124422380D02*
X128937200Y-124327142D01*
X128937200Y-124327142D02*
X128889580Y-124279523D01*
X128889580Y-124279523D02*
X128794342Y-124231904D01*
X128794342Y-124231904D02*
X128699104Y-124231904D01*
X128699104Y-124231904D02*
X128603866Y-124279523D01*
X128603866Y-124279523D02*
X128556247Y-124327142D01*
X128556247Y-124327142D02*
X128508628Y-124422380D01*
X128508628Y-124422380D02*
X128461009Y-124612856D01*
X128461009Y-124612856D02*
X128413390Y-124708094D01*
X128413390Y-124708094D02*
X128365771Y-124755713D01*
X128365771Y-124755713D02*
X128270533Y-124803332D01*
X128270533Y-124803332D02*
X128175295Y-124803332D01*
X128175295Y-124803332D02*
X128080057Y-124755713D01*
X128080057Y-124755713D02*
X128032438Y-124708094D01*
X128032438Y-124708094D02*
X127984819Y-124612856D01*
X127984819Y-124612856D02*
X127984819Y-124374761D01*
X127984819Y-124374761D02*
X128032438Y-124231904D01*
X127984819Y-123898570D02*
X128984819Y-123660475D01*
X128984819Y-123660475D02*
X128270533Y-123469999D01*
X128270533Y-123469999D02*
X128984819Y-123279523D01*
X128984819Y-123279523D02*
X127984819Y-123041428D01*
X127984819Y-122755713D02*
X127984819Y-122136666D01*
X127984819Y-122136666D02*
X128365771Y-122469999D01*
X128365771Y-122469999D02*
X128365771Y-122327142D01*
X128365771Y-122327142D02*
X128413390Y-122231904D01*
X128413390Y-122231904D02*
X128461009Y-122184285D01*
X128461009Y-122184285D02*
X128556247Y-122136666D01*
X128556247Y-122136666D02*
X128794342Y-122136666D01*
X128794342Y-122136666D02*
X128889580Y-122184285D01*
X128889580Y-122184285D02*
X128937200Y-122231904D01*
X128937200Y-122231904D02*
X128984819Y-122327142D01*
X128984819Y-122327142D02*
X128984819Y-122612856D01*
X128984819Y-122612856D02*
X128937200Y-122708094D01*
X128937200Y-122708094D02*
X128889580Y-122755713D01*
X120454819Y-76738094D02*
X119454819Y-76738094D01*
X119454819Y-76738094D02*
X119454819Y-76499999D01*
X119454819Y-76499999D02*
X119502438Y-76357142D01*
X119502438Y-76357142D02*
X119597676Y-76261904D01*
X119597676Y-76261904D02*
X119692914Y-76214285D01*
X119692914Y-76214285D02*
X119883390Y-76166666D01*
X119883390Y-76166666D02*
X120026247Y-76166666D01*
X120026247Y-76166666D02*
X120216723Y-76214285D01*
X120216723Y-76214285D02*
X120311961Y-76261904D01*
X120311961Y-76261904D02*
X120407200Y-76357142D01*
X120407200Y-76357142D02*
X120454819Y-76499999D01*
X120454819Y-76499999D02*
X120454819Y-76738094D01*
X120454819Y-75214285D02*
X120454819Y-75785713D01*
X120454819Y-75499999D02*
X119454819Y-75499999D01*
X119454819Y-75499999D02*
X119597676Y-75595237D01*
X119597676Y-75595237D02*
X119692914Y-75690475D01*
X119692914Y-75690475D02*
X119740533Y-75785713D01*
X128937200Y-119643332D02*
X128984819Y-119500475D01*
X128984819Y-119500475D02*
X128984819Y-119262380D01*
X128984819Y-119262380D02*
X128937200Y-119167142D01*
X128937200Y-119167142D02*
X128889580Y-119119523D01*
X128889580Y-119119523D02*
X128794342Y-119071904D01*
X128794342Y-119071904D02*
X128699104Y-119071904D01*
X128699104Y-119071904D02*
X128603866Y-119119523D01*
X128603866Y-119119523D02*
X128556247Y-119167142D01*
X128556247Y-119167142D02*
X128508628Y-119262380D01*
X128508628Y-119262380D02*
X128461009Y-119452856D01*
X128461009Y-119452856D02*
X128413390Y-119548094D01*
X128413390Y-119548094D02*
X128365771Y-119595713D01*
X128365771Y-119595713D02*
X128270533Y-119643332D01*
X128270533Y-119643332D02*
X128175295Y-119643332D01*
X128175295Y-119643332D02*
X128080057Y-119595713D01*
X128080057Y-119595713D02*
X128032438Y-119548094D01*
X128032438Y-119548094D02*
X127984819Y-119452856D01*
X127984819Y-119452856D02*
X127984819Y-119214761D01*
X127984819Y-119214761D02*
X128032438Y-119071904D01*
X127984819Y-118738570D02*
X128984819Y-118500475D01*
X128984819Y-118500475D02*
X128270533Y-118309999D01*
X128270533Y-118309999D02*
X128984819Y-118119523D01*
X128984819Y-118119523D02*
X127984819Y-117881428D01*
X128080057Y-117548094D02*
X128032438Y-117500475D01*
X128032438Y-117500475D02*
X127984819Y-117405237D01*
X127984819Y-117405237D02*
X127984819Y-117167142D01*
X127984819Y-117167142D02*
X128032438Y-117071904D01*
X128032438Y-117071904D02*
X128080057Y-117024285D01*
X128080057Y-117024285D02*
X128175295Y-116976666D01*
X128175295Y-116976666D02*
X128270533Y-116976666D01*
X128270533Y-116976666D02*
X128413390Y-117024285D01*
X128413390Y-117024285D02*
X128984819Y-117595713D01*
X128984819Y-117595713D02*
X128984819Y-116976666D01*
X117573333Y-101704819D02*
X117240000Y-101228628D01*
X117001905Y-101704819D02*
X117001905Y-100704819D01*
X117001905Y-100704819D02*
X117382857Y-100704819D01*
X117382857Y-100704819D02*
X117478095Y-100752438D01*
X117478095Y-100752438D02*
X117525714Y-100800057D01*
X117525714Y-100800057D02*
X117573333Y-100895295D01*
X117573333Y-100895295D02*
X117573333Y-101038152D01*
X117573333Y-101038152D02*
X117525714Y-101133390D01*
X117525714Y-101133390D02*
X117478095Y-101181009D01*
X117478095Y-101181009D02*
X117382857Y-101228628D01*
X117382857Y-101228628D02*
X117001905Y-101228628D01*
X117954286Y-100800057D02*
X118001905Y-100752438D01*
X118001905Y-100752438D02*
X118097143Y-100704819D01*
X118097143Y-100704819D02*
X118335238Y-100704819D01*
X118335238Y-100704819D02*
X118430476Y-100752438D01*
X118430476Y-100752438D02*
X118478095Y-100800057D01*
X118478095Y-100800057D02*
X118525714Y-100895295D01*
X118525714Y-100895295D02*
X118525714Y-100990533D01*
X118525714Y-100990533D02*
X118478095Y-101133390D01*
X118478095Y-101133390D02*
X117906667Y-101704819D01*
X117906667Y-101704819D02*
X118525714Y-101704819D01*
X148157142Y-85159580D02*
X148109523Y-85207200D01*
X148109523Y-85207200D02*
X147966666Y-85254819D01*
X147966666Y-85254819D02*
X147871428Y-85254819D01*
X147871428Y-85254819D02*
X147728571Y-85207200D01*
X147728571Y-85207200D02*
X147633333Y-85111961D01*
X147633333Y-85111961D02*
X147585714Y-85016723D01*
X147585714Y-85016723D02*
X147538095Y-84826247D01*
X147538095Y-84826247D02*
X147538095Y-84683390D01*
X147538095Y-84683390D02*
X147585714Y-84492914D01*
X147585714Y-84492914D02*
X147633333Y-84397676D01*
X147633333Y-84397676D02*
X147728571Y-84302438D01*
X147728571Y-84302438D02*
X147871428Y-84254819D01*
X147871428Y-84254819D02*
X147966666Y-84254819D01*
X147966666Y-84254819D02*
X148109523Y-84302438D01*
X148109523Y-84302438D02*
X148157142Y-84350057D01*
X149109523Y-85254819D02*
X148538095Y-85254819D01*
X148823809Y-85254819D02*
X148823809Y-84254819D01*
X148823809Y-84254819D02*
X148728571Y-84397676D01*
X148728571Y-84397676D02*
X148633333Y-84492914D01*
X148633333Y-84492914D02*
X148538095Y-84540533D01*
X150014285Y-84254819D02*
X149538095Y-84254819D01*
X149538095Y-84254819D02*
X149490476Y-84731009D01*
X149490476Y-84731009D02*
X149538095Y-84683390D01*
X149538095Y-84683390D02*
X149633333Y-84635771D01*
X149633333Y-84635771D02*
X149871428Y-84635771D01*
X149871428Y-84635771D02*
X149966666Y-84683390D01*
X149966666Y-84683390D02*
X150014285Y-84731009D01*
X150014285Y-84731009D02*
X150061904Y-84826247D01*
X150061904Y-84826247D02*
X150061904Y-85064342D01*
X150061904Y-85064342D02*
X150014285Y-85159580D01*
X150014285Y-85159580D02*
X149966666Y-85207200D01*
X149966666Y-85207200D02*
X149871428Y-85254819D01*
X149871428Y-85254819D02*
X149633333Y-85254819D01*
X149633333Y-85254819D02*
X149538095Y-85207200D01*
X149538095Y-85207200D02*
X149490476Y-85159580D01*
X124454819Y-111366666D02*
X123978628Y-111699999D01*
X124454819Y-111938094D02*
X123454819Y-111938094D01*
X123454819Y-111938094D02*
X123454819Y-111557142D01*
X123454819Y-111557142D02*
X123502438Y-111461904D01*
X123502438Y-111461904D02*
X123550057Y-111414285D01*
X123550057Y-111414285D02*
X123645295Y-111366666D01*
X123645295Y-111366666D02*
X123788152Y-111366666D01*
X123788152Y-111366666D02*
X123883390Y-111414285D01*
X123883390Y-111414285D02*
X123931009Y-111461904D01*
X123931009Y-111461904D02*
X123978628Y-111557142D01*
X123978628Y-111557142D02*
X123978628Y-111938094D01*
X123454819Y-110461904D02*
X123454819Y-110938094D01*
X123454819Y-110938094D02*
X123931009Y-110985713D01*
X123931009Y-110985713D02*
X123883390Y-110938094D01*
X123883390Y-110938094D02*
X123835771Y-110842856D01*
X123835771Y-110842856D02*
X123835771Y-110604761D01*
X123835771Y-110604761D02*
X123883390Y-110509523D01*
X123883390Y-110509523D02*
X123931009Y-110461904D01*
X123931009Y-110461904D02*
X124026247Y-110414285D01*
X124026247Y-110414285D02*
X124264342Y-110414285D01*
X124264342Y-110414285D02*
X124359580Y-110461904D01*
X124359580Y-110461904D02*
X124407200Y-110509523D01*
X124407200Y-110509523D02*
X124454819Y-110604761D01*
X124454819Y-110604761D02*
X124454819Y-110842856D01*
X124454819Y-110842856D02*
X124407200Y-110938094D01*
X124407200Y-110938094D02*
X124359580Y-110985713D01*
X152654819Y-80842857D02*
X152178628Y-81176190D01*
X152654819Y-81414285D02*
X151654819Y-81414285D01*
X151654819Y-81414285D02*
X151654819Y-81033333D01*
X151654819Y-81033333D02*
X151702438Y-80938095D01*
X151702438Y-80938095D02*
X151750057Y-80890476D01*
X151750057Y-80890476D02*
X151845295Y-80842857D01*
X151845295Y-80842857D02*
X151988152Y-80842857D01*
X151988152Y-80842857D02*
X152083390Y-80890476D01*
X152083390Y-80890476D02*
X152131009Y-80938095D01*
X152131009Y-80938095D02*
X152178628Y-81033333D01*
X152178628Y-81033333D02*
X152178628Y-81414285D01*
X152654819Y-79890476D02*
X152654819Y-80461904D01*
X152654819Y-80176190D02*
X151654819Y-80176190D01*
X151654819Y-80176190D02*
X151797676Y-80271428D01*
X151797676Y-80271428D02*
X151892914Y-80366666D01*
X151892914Y-80366666D02*
X151940533Y-80461904D01*
X152654819Y-79414285D02*
X152654819Y-79223809D01*
X152654819Y-79223809D02*
X152607200Y-79128571D01*
X152607200Y-79128571D02*
X152559580Y-79080952D01*
X152559580Y-79080952D02*
X152416723Y-78985714D01*
X152416723Y-78985714D02*
X152226247Y-78938095D01*
X152226247Y-78938095D02*
X151845295Y-78938095D01*
X151845295Y-78938095D02*
X151750057Y-78985714D01*
X151750057Y-78985714D02*
X151702438Y-79033333D01*
X151702438Y-79033333D02*
X151654819Y-79128571D01*
X151654819Y-79128571D02*
X151654819Y-79319047D01*
X151654819Y-79319047D02*
X151702438Y-79414285D01*
X151702438Y-79414285D02*
X151750057Y-79461904D01*
X151750057Y-79461904D02*
X151845295Y-79509523D01*
X151845295Y-79509523D02*
X152083390Y-79509523D01*
X152083390Y-79509523D02*
X152178628Y-79461904D01*
X152178628Y-79461904D02*
X152226247Y-79414285D01*
X152226247Y-79414285D02*
X152273866Y-79319047D01*
X152273866Y-79319047D02*
X152273866Y-79128571D01*
X152273866Y-79128571D02*
X152226247Y-79033333D01*
X152226247Y-79033333D02*
X152178628Y-78985714D01*
X152178628Y-78985714D02*
X152083390Y-78938095D01*
X132704819Y-74372857D02*
X132228628Y-74706190D01*
X132704819Y-74944285D02*
X131704819Y-74944285D01*
X131704819Y-74944285D02*
X131704819Y-74563333D01*
X131704819Y-74563333D02*
X131752438Y-74468095D01*
X131752438Y-74468095D02*
X131800057Y-74420476D01*
X131800057Y-74420476D02*
X131895295Y-74372857D01*
X131895295Y-74372857D02*
X132038152Y-74372857D01*
X132038152Y-74372857D02*
X132133390Y-74420476D01*
X132133390Y-74420476D02*
X132181009Y-74468095D01*
X132181009Y-74468095D02*
X132228628Y-74563333D01*
X132228628Y-74563333D02*
X132228628Y-74944285D01*
X131800057Y-73991904D02*
X131752438Y-73944285D01*
X131752438Y-73944285D02*
X131704819Y-73849047D01*
X131704819Y-73849047D02*
X131704819Y-73610952D01*
X131704819Y-73610952D02*
X131752438Y-73515714D01*
X131752438Y-73515714D02*
X131800057Y-73468095D01*
X131800057Y-73468095D02*
X131895295Y-73420476D01*
X131895295Y-73420476D02*
X131990533Y-73420476D01*
X131990533Y-73420476D02*
X132133390Y-73468095D01*
X132133390Y-73468095D02*
X132704819Y-74039523D01*
X132704819Y-74039523D02*
X132704819Y-73420476D01*
X131704819Y-73087142D02*
X131704819Y-72468095D01*
X131704819Y-72468095D02*
X132085771Y-72801428D01*
X132085771Y-72801428D02*
X132085771Y-72658571D01*
X132085771Y-72658571D02*
X132133390Y-72563333D01*
X132133390Y-72563333D02*
X132181009Y-72515714D01*
X132181009Y-72515714D02*
X132276247Y-72468095D01*
X132276247Y-72468095D02*
X132514342Y-72468095D01*
X132514342Y-72468095D02*
X132609580Y-72515714D01*
X132609580Y-72515714D02*
X132657200Y-72563333D01*
X132657200Y-72563333D02*
X132704819Y-72658571D01*
X132704819Y-72658571D02*
X132704819Y-72944285D01*
X132704819Y-72944285D02*
X132657200Y-73039523D01*
X132657200Y-73039523D02*
X132609580Y-73087142D01*
X139210057Y-74615238D02*
X139162438Y-74710476D01*
X139162438Y-74710476D02*
X139067200Y-74805714D01*
X139067200Y-74805714D02*
X138924342Y-74948571D01*
X138924342Y-74948571D02*
X138876723Y-75043809D01*
X138876723Y-75043809D02*
X138876723Y-75139047D01*
X139114819Y-75091428D02*
X139067200Y-75186666D01*
X139067200Y-75186666D02*
X138971961Y-75281904D01*
X138971961Y-75281904D02*
X138781485Y-75329523D01*
X138781485Y-75329523D02*
X138448152Y-75329523D01*
X138448152Y-75329523D02*
X138257676Y-75281904D01*
X138257676Y-75281904D02*
X138162438Y-75186666D01*
X138162438Y-75186666D02*
X138114819Y-75091428D01*
X138114819Y-75091428D02*
X138114819Y-74900952D01*
X138114819Y-74900952D02*
X138162438Y-74805714D01*
X138162438Y-74805714D02*
X138257676Y-74710476D01*
X138257676Y-74710476D02*
X138448152Y-74662857D01*
X138448152Y-74662857D02*
X138781485Y-74662857D01*
X138781485Y-74662857D02*
X138971961Y-74710476D01*
X138971961Y-74710476D02*
X139067200Y-74805714D01*
X139067200Y-74805714D02*
X139114819Y-74900952D01*
X139114819Y-74900952D02*
X139114819Y-75091428D01*
X138114819Y-74329523D02*
X138114819Y-73662857D01*
X138114819Y-73662857D02*
X139114819Y-74091428D01*
X124254819Y-104138094D02*
X123254819Y-104138094D01*
X123254819Y-104138094D02*
X123254819Y-103899999D01*
X123254819Y-103899999D02*
X123302438Y-103757142D01*
X123302438Y-103757142D02*
X123397676Y-103661904D01*
X123397676Y-103661904D02*
X123492914Y-103614285D01*
X123492914Y-103614285D02*
X123683390Y-103566666D01*
X123683390Y-103566666D02*
X123826247Y-103566666D01*
X123826247Y-103566666D02*
X124016723Y-103614285D01*
X124016723Y-103614285D02*
X124111961Y-103661904D01*
X124111961Y-103661904D02*
X124207200Y-103757142D01*
X124207200Y-103757142D02*
X124254819Y-103899999D01*
X124254819Y-103899999D02*
X124254819Y-104138094D01*
X123254819Y-103233332D02*
X123254819Y-102614285D01*
X123254819Y-102614285D02*
X123635771Y-102947618D01*
X123635771Y-102947618D02*
X123635771Y-102804761D01*
X123635771Y-102804761D02*
X123683390Y-102709523D01*
X123683390Y-102709523D02*
X123731009Y-102661904D01*
X123731009Y-102661904D02*
X123826247Y-102614285D01*
X123826247Y-102614285D02*
X124064342Y-102614285D01*
X124064342Y-102614285D02*
X124159580Y-102661904D01*
X124159580Y-102661904D02*
X124207200Y-102709523D01*
X124207200Y-102709523D02*
X124254819Y-102804761D01*
X124254819Y-102804761D02*
X124254819Y-103090475D01*
X124254819Y-103090475D02*
X124207200Y-103185713D01*
X124207200Y-103185713D02*
X124159580Y-103233332D01*
X131064819Y-83712857D02*
X130588628Y-84046190D01*
X131064819Y-84284285D02*
X130064819Y-84284285D01*
X130064819Y-84284285D02*
X130064819Y-83903333D01*
X130064819Y-83903333D02*
X130112438Y-83808095D01*
X130112438Y-83808095D02*
X130160057Y-83760476D01*
X130160057Y-83760476D02*
X130255295Y-83712857D01*
X130255295Y-83712857D02*
X130398152Y-83712857D01*
X130398152Y-83712857D02*
X130493390Y-83760476D01*
X130493390Y-83760476D02*
X130541009Y-83808095D01*
X130541009Y-83808095D02*
X130588628Y-83903333D01*
X130588628Y-83903333D02*
X130588628Y-84284285D01*
X130160057Y-83331904D02*
X130112438Y-83284285D01*
X130112438Y-83284285D02*
X130064819Y-83189047D01*
X130064819Y-83189047D02*
X130064819Y-82950952D01*
X130064819Y-82950952D02*
X130112438Y-82855714D01*
X130112438Y-82855714D02*
X130160057Y-82808095D01*
X130160057Y-82808095D02*
X130255295Y-82760476D01*
X130255295Y-82760476D02*
X130350533Y-82760476D01*
X130350533Y-82760476D02*
X130493390Y-82808095D01*
X130493390Y-82808095D02*
X131064819Y-83379523D01*
X131064819Y-83379523D02*
X131064819Y-82760476D01*
X131064819Y-82284285D02*
X131064819Y-82093809D01*
X131064819Y-82093809D02*
X131017200Y-81998571D01*
X131017200Y-81998571D02*
X130969580Y-81950952D01*
X130969580Y-81950952D02*
X130826723Y-81855714D01*
X130826723Y-81855714D02*
X130636247Y-81808095D01*
X130636247Y-81808095D02*
X130255295Y-81808095D01*
X130255295Y-81808095D02*
X130160057Y-81855714D01*
X130160057Y-81855714D02*
X130112438Y-81903333D01*
X130112438Y-81903333D02*
X130064819Y-81998571D01*
X130064819Y-81998571D02*
X130064819Y-82189047D01*
X130064819Y-82189047D02*
X130112438Y-82284285D01*
X130112438Y-82284285D02*
X130160057Y-82331904D01*
X130160057Y-82331904D02*
X130255295Y-82379523D01*
X130255295Y-82379523D02*
X130493390Y-82379523D01*
X130493390Y-82379523D02*
X130588628Y-82331904D01*
X130588628Y-82331904D02*
X130636247Y-82284285D01*
X130636247Y-82284285D02*
X130683866Y-82189047D01*
X130683866Y-82189047D02*
X130683866Y-81998571D01*
X130683866Y-81998571D02*
X130636247Y-81903333D01*
X130636247Y-81903333D02*
X130588628Y-81855714D01*
X130588628Y-81855714D02*
X130493390Y-81808095D01*
X176224819Y-126924523D02*
X176939104Y-126924523D01*
X176939104Y-126924523D02*
X177081961Y-126972142D01*
X177081961Y-126972142D02*
X177177200Y-127067380D01*
X177177200Y-127067380D02*
X177224819Y-127210237D01*
X177224819Y-127210237D02*
X177224819Y-127305475D01*
X176320057Y-126495951D02*
X176272438Y-126448332D01*
X176272438Y-126448332D02*
X176224819Y-126353094D01*
X176224819Y-126353094D02*
X176224819Y-126114999D01*
X176224819Y-126114999D02*
X176272438Y-126019761D01*
X176272438Y-126019761D02*
X176320057Y-125972142D01*
X176320057Y-125972142D02*
X176415295Y-125924523D01*
X176415295Y-125924523D02*
X176510533Y-125924523D01*
X176510533Y-125924523D02*
X176653390Y-125972142D01*
X176653390Y-125972142D02*
X177224819Y-126543570D01*
X177224819Y-126543570D02*
X177224819Y-125924523D01*
X176224819Y-125591189D02*
X176224819Y-124972142D01*
X176224819Y-124972142D02*
X176605771Y-125305475D01*
X176605771Y-125305475D02*
X176605771Y-125162618D01*
X176605771Y-125162618D02*
X176653390Y-125067380D01*
X176653390Y-125067380D02*
X176701009Y-125019761D01*
X176701009Y-125019761D02*
X176796247Y-124972142D01*
X176796247Y-124972142D02*
X177034342Y-124972142D01*
X177034342Y-124972142D02*
X177129580Y-125019761D01*
X177129580Y-125019761D02*
X177177200Y-125067380D01*
X177177200Y-125067380D02*
X177224819Y-125162618D01*
X177224819Y-125162618D02*
X177224819Y-125448332D01*
X177224819Y-125448332D02*
X177177200Y-125543570D01*
X177177200Y-125543570D02*
X177129580Y-125591189D01*
X169254819Y-76042857D02*
X168778628Y-76376190D01*
X169254819Y-76614285D02*
X168254819Y-76614285D01*
X168254819Y-76614285D02*
X168254819Y-76233333D01*
X168254819Y-76233333D02*
X168302438Y-76138095D01*
X168302438Y-76138095D02*
X168350057Y-76090476D01*
X168350057Y-76090476D02*
X168445295Y-76042857D01*
X168445295Y-76042857D02*
X168588152Y-76042857D01*
X168588152Y-76042857D02*
X168683390Y-76090476D01*
X168683390Y-76090476D02*
X168731009Y-76138095D01*
X168731009Y-76138095D02*
X168778628Y-76233333D01*
X168778628Y-76233333D02*
X168778628Y-76614285D01*
X169254819Y-75090476D02*
X169254819Y-75661904D01*
X169254819Y-75376190D02*
X168254819Y-75376190D01*
X168254819Y-75376190D02*
X168397676Y-75471428D01*
X168397676Y-75471428D02*
X168492914Y-75566666D01*
X168492914Y-75566666D02*
X168540533Y-75661904D01*
X168254819Y-74757142D02*
X168254819Y-74138095D01*
X168254819Y-74138095D02*
X168635771Y-74471428D01*
X168635771Y-74471428D02*
X168635771Y-74328571D01*
X168635771Y-74328571D02*
X168683390Y-74233333D01*
X168683390Y-74233333D02*
X168731009Y-74185714D01*
X168731009Y-74185714D02*
X168826247Y-74138095D01*
X168826247Y-74138095D02*
X169064342Y-74138095D01*
X169064342Y-74138095D02*
X169159580Y-74185714D01*
X169159580Y-74185714D02*
X169207200Y-74233333D01*
X169207200Y-74233333D02*
X169254819Y-74328571D01*
X169254819Y-74328571D02*
X169254819Y-74614285D01*
X169254819Y-74614285D02*
X169207200Y-74709523D01*
X169207200Y-74709523D02*
X169159580Y-74757142D01*
X187054819Y-79042857D02*
X186578628Y-79376190D01*
X187054819Y-79614285D02*
X186054819Y-79614285D01*
X186054819Y-79614285D02*
X186054819Y-79233333D01*
X186054819Y-79233333D02*
X186102438Y-79138095D01*
X186102438Y-79138095D02*
X186150057Y-79090476D01*
X186150057Y-79090476D02*
X186245295Y-79042857D01*
X186245295Y-79042857D02*
X186388152Y-79042857D01*
X186388152Y-79042857D02*
X186483390Y-79090476D01*
X186483390Y-79090476D02*
X186531009Y-79138095D01*
X186531009Y-79138095D02*
X186578628Y-79233333D01*
X186578628Y-79233333D02*
X186578628Y-79614285D01*
X187054819Y-78090476D02*
X187054819Y-78661904D01*
X187054819Y-78376190D02*
X186054819Y-78376190D01*
X186054819Y-78376190D02*
X186197676Y-78471428D01*
X186197676Y-78471428D02*
X186292914Y-78566666D01*
X186292914Y-78566666D02*
X186340533Y-78661904D01*
X187054819Y-77138095D02*
X187054819Y-77709523D01*
X187054819Y-77423809D02*
X186054819Y-77423809D01*
X186054819Y-77423809D02*
X186197676Y-77519047D01*
X186197676Y-77519047D02*
X186292914Y-77614285D01*
X186292914Y-77614285D02*
X186340533Y-77709523D01*
X133994819Y-83722857D02*
X133518628Y-84056190D01*
X133994819Y-84294285D02*
X132994819Y-84294285D01*
X132994819Y-84294285D02*
X132994819Y-83913333D01*
X132994819Y-83913333D02*
X133042438Y-83818095D01*
X133042438Y-83818095D02*
X133090057Y-83770476D01*
X133090057Y-83770476D02*
X133185295Y-83722857D01*
X133185295Y-83722857D02*
X133328152Y-83722857D01*
X133328152Y-83722857D02*
X133423390Y-83770476D01*
X133423390Y-83770476D02*
X133471009Y-83818095D01*
X133471009Y-83818095D02*
X133518628Y-83913333D01*
X133518628Y-83913333D02*
X133518628Y-84294285D01*
X133090057Y-83341904D02*
X133042438Y-83294285D01*
X133042438Y-83294285D02*
X132994819Y-83199047D01*
X132994819Y-83199047D02*
X132994819Y-82960952D01*
X132994819Y-82960952D02*
X133042438Y-82865714D01*
X133042438Y-82865714D02*
X133090057Y-82818095D01*
X133090057Y-82818095D02*
X133185295Y-82770476D01*
X133185295Y-82770476D02*
X133280533Y-82770476D01*
X133280533Y-82770476D02*
X133423390Y-82818095D01*
X133423390Y-82818095D02*
X133994819Y-83389523D01*
X133994819Y-83389523D02*
X133994819Y-82770476D01*
X132994819Y-81865714D02*
X132994819Y-82341904D01*
X132994819Y-82341904D02*
X133471009Y-82389523D01*
X133471009Y-82389523D02*
X133423390Y-82341904D01*
X133423390Y-82341904D02*
X133375771Y-82246666D01*
X133375771Y-82246666D02*
X133375771Y-82008571D01*
X133375771Y-82008571D02*
X133423390Y-81913333D01*
X133423390Y-81913333D02*
X133471009Y-81865714D01*
X133471009Y-81865714D02*
X133566247Y-81818095D01*
X133566247Y-81818095D02*
X133804342Y-81818095D01*
X133804342Y-81818095D02*
X133899580Y-81865714D01*
X133899580Y-81865714D02*
X133947200Y-81913333D01*
X133947200Y-81913333D02*
X133994819Y-82008571D01*
X133994819Y-82008571D02*
X133994819Y-82246666D01*
X133994819Y-82246666D02*
X133947200Y-82341904D01*
X133947200Y-82341904D02*
X133899580Y-82389523D01*
X114159580Y-116766666D02*
X114207200Y-116814285D01*
X114207200Y-116814285D02*
X114254819Y-116957142D01*
X114254819Y-116957142D02*
X114254819Y-117052380D01*
X114254819Y-117052380D02*
X114207200Y-117195237D01*
X114207200Y-117195237D02*
X114111961Y-117290475D01*
X114111961Y-117290475D02*
X114016723Y-117338094D01*
X114016723Y-117338094D02*
X113826247Y-117385713D01*
X113826247Y-117385713D02*
X113683390Y-117385713D01*
X113683390Y-117385713D02*
X113492914Y-117338094D01*
X113492914Y-117338094D02*
X113397676Y-117290475D01*
X113397676Y-117290475D02*
X113302438Y-117195237D01*
X113302438Y-117195237D02*
X113254819Y-117052380D01*
X113254819Y-117052380D02*
X113254819Y-116957142D01*
X113254819Y-116957142D02*
X113302438Y-116814285D01*
X113302438Y-116814285D02*
X113350057Y-116766666D01*
X113254819Y-115909523D02*
X113254819Y-116099999D01*
X113254819Y-116099999D02*
X113302438Y-116195237D01*
X113302438Y-116195237D02*
X113350057Y-116242856D01*
X113350057Y-116242856D02*
X113492914Y-116338094D01*
X113492914Y-116338094D02*
X113683390Y-116385713D01*
X113683390Y-116385713D02*
X114064342Y-116385713D01*
X114064342Y-116385713D02*
X114159580Y-116338094D01*
X114159580Y-116338094D02*
X114207200Y-116290475D01*
X114207200Y-116290475D02*
X114254819Y-116195237D01*
X114254819Y-116195237D02*
X114254819Y-116004761D01*
X114254819Y-116004761D02*
X114207200Y-115909523D01*
X114207200Y-115909523D02*
X114159580Y-115861904D01*
X114159580Y-115861904D02*
X114064342Y-115814285D01*
X114064342Y-115814285D02*
X113826247Y-115814285D01*
X113826247Y-115814285D02*
X113731009Y-115861904D01*
X113731009Y-115861904D02*
X113683390Y-115909523D01*
X113683390Y-115909523D02*
X113635771Y-116004761D01*
X113635771Y-116004761D02*
X113635771Y-116195237D01*
X113635771Y-116195237D02*
X113683390Y-116290475D01*
X113683390Y-116290475D02*
X113731009Y-116338094D01*
X113731009Y-116338094D02*
X113826247Y-116385713D01*
X181428095Y-104866819D02*
X181999523Y-104866819D01*
X181713809Y-105866819D02*
X181713809Y-104866819D01*
X182332857Y-105866819D02*
X182332857Y-104866819D01*
X182332857Y-104866819D02*
X182713809Y-104866819D01*
X182713809Y-104866819D02*
X182809047Y-104914438D01*
X182809047Y-104914438D02*
X182856666Y-104962057D01*
X182856666Y-104962057D02*
X182904285Y-105057295D01*
X182904285Y-105057295D02*
X182904285Y-105200152D01*
X182904285Y-105200152D02*
X182856666Y-105295390D01*
X182856666Y-105295390D02*
X182809047Y-105343009D01*
X182809047Y-105343009D02*
X182713809Y-105390628D01*
X182713809Y-105390628D02*
X182332857Y-105390628D01*
X183285238Y-104962057D02*
X183332857Y-104914438D01*
X183332857Y-104914438D02*
X183428095Y-104866819D01*
X183428095Y-104866819D02*
X183666190Y-104866819D01*
X183666190Y-104866819D02*
X183761428Y-104914438D01*
X183761428Y-104914438D02*
X183809047Y-104962057D01*
X183809047Y-104962057D02*
X183856666Y-105057295D01*
X183856666Y-105057295D02*
X183856666Y-105152533D01*
X183856666Y-105152533D02*
X183809047Y-105295390D01*
X183809047Y-105295390D02*
X183237619Y-105866819D01*
X183237619Y-105866819D02*
X183856666Y-105866819D01*
X130590476Y-118054819D02*
X130590476Y-118769104D01*
X130590476Y-118769104D02*
X130542857Y-118911961D01*
X130542857Y-118911961D02*
X130447619Y-119007200D01*
X130447619Y-119007200D02*
X130304762Y-119054819D01*
X130304762Y-119054819D02*
X130209524Y-119054819D01*
X131590476Y-119054819D02*
X131019048Y-119054819D01*
X131304762Y-119054819D02*
X131304762Y-118054819D01*
X131304762Y-118054819D02*
X131209524Y-118197676D01*
X131209524Y-118197676D02*
X131114286Y-118292914D01*
X131114286Y-118292914D02*
X131019048Y-118340533D01*
X132209524Y-118054819D02*
X132304762Y-118054819D01*
X132304762Y-118054819D02*
X132400000Y-118102438D01*
X132400000Y-118102438D02*
X132447619Y-118150057D01*
X132447619Y-118150057D02*
X132495238Y-118245295D01*
X132495238Y-118245295D02*
X132542857Y-118435771D01*
X132542857Y-118435771D02*
X132542857Y-118673866D01*
X132542857Y-118673866D02*
X132495238Y-118864342D01*
X132495238Y-118864342D02*
X132447619Y-118959580D01*
X132447619Y-118959580D02*
X132400000Y-119007200D01*
X132400000Y-119007200D02*
X132304762Y-119054819D01*
X132304762Y-119054819D02*
X132209524Y-119054819D01*
X132209524Y-119054819D02*
X132114286Y-119007200D01*
X132114286Y-119007200D02*
X132066667Y-118959580D01*
X132066667Y-118959580D02*
X132019048Y-118864342D01*
X132019048Y-118864342D02*
X131971429Y-118673866D01*
X131971429Y-118673866D02*
X131971429Y-118435771D01*
X131971429Y-118435771D02*
X132019048Y-118245295D01*
X132019048Y-118245295D02*
X132066667Y-118150057D01*
X132066667Y-118150057D02*
X132114286Y-118102438D01*
X132114286Y-118102438D02*
X132209524Y-118054819D01*
X114034819Y-74069523D02*
X114749104Y-74069523D01*
X114749104Y-74069523D02*
X114891961Y-74117142D01*
X114891961Y-74117142D02*
X114987200Y-74212380D01*
X114987200Y-74212380D02*
X115034819Y-74355237D01*
X115034819Y-74355237D02*
X115034819Y-74450475D01*
X115034819Y-73069523D02*
X115034819Y-73640951D01*
X115034819Y-73355237D02*
X114034819Y-73355237D01*
X114034819Y-73355237D02*
X114177676Y-73450475D01*
X114177676Y-73450475D02*
X114272914Y-73545713D01*
X114272914Y-73545713D02*
X114320533Y-73640951D01*
X114368152Y-72212380D02*
X115034819Y-72212380D01*
X113987200Y-72450475D02*
X114701485Y-72688570D01*
X114701485Y-72688570D02*
X114701485Y-72069523D01*
X151233333Y-97839580D02*
X151185714Y-97887200D01*
X151185714Y-97887200D02*
X151042857Y-97934819D01*
X151042857Y-97934819D02*
X150947619Y-97934819D01*
X150947619Y-97934819D02*
X150804762Y-97887200D01*
X150804762Y-97887200D02*
X150709524Y-97791961D01*
X150709524Y-97791961D02*
X150661905Y-97696723D01*
X150661905Y-97696723D02*
X150614286Y-97506247D01*
X150614286Y-97506247D02*
X150614286Y-97363390D01*
X150614286Y-97363390D02*
X150661905Y-97172914D01*
X150661905Y-97172914D02*
X150709524Y-97077676D01*
X150709524Y-97077676D02*
X150804762Y-96982438D01*
X150804762Y-96982438D02*
X150947619Y-96934819D01*
X150947619Y-96934819D02*
X151042857Y-96934819D01*
X151042857Y-96934819D02*
X151185714Y-96982438D01*
X151185714Y-96982438D02*
X151233333Y-97030057D01*
X151566667Y-96934819D02*
X152233333Y-96934819D01*
X152233333Y-96934819D02*
X151804762Y-97934819D01*
X116754819Y-76808094D02*
X115754819Y-76808094D01*
X115754819Y-76808094D02*
X115754819Y-76569999D01*
X115754819Y-76569999D02*
X115802438Y-76427142D01*
X115802438Y-76427142D02*
X115897676Y-76331904D01*
X115897676Y-76331904D02*
X115992914Y-76284285D01*
X115992914Y-76284285D02*
X116183390Y-76236666D01*
X116183390Y-76236666D02*
X116326247Y-76236666D01*
X116326247Y-76236666D02*
X116516723Y-76284285D01*
X116516723Y-76284285D02*
X116611961Y-76331904D01*
X116611961Y-76331904D02*
X116707200Y-76427142D01*
X116707200Y-76427142D02*
X116754819Y-76569999D01*
X116754819Y-76569999D02*
X116754819Y-76808094D01*
X115754819Y-75331904D02*
X115754819Y-75808094D01*
X115754819Y-75808094D02*
X116231009Y-75855713D01*
X116231009Y-75855713D02*
X116183390Y-75808094D01*
X116183390Y-75808094D02*
X116135771Y-75712856D01*
X116135771Y-75712856D02*
X116135771Y-75474761D01*
X116135771Y-75474761D02*
X116183390Y-75379523D01*
X116183390Y-75379523D02*
X116231009Y-75331904D01*
X116231009Y-75331904D02*
X116326247Y-75284285D01*
X116326247Y-75284285D02*
X116564342Y-75284285D01*
X116564342Y-75284285D02*
X116659580Y-75331904D01*
X116659580Y-75331904D02*
X116707200Y-75379523D01*
X116707200Y-75379523D02*
X116754819Y-75474761D01*
X116754819Y-75474761D02*
X116754819Y-75712856D01*
X116754819Y-75712856D02*
X116707200Y-75808094D01*
X116707200Y-75808094D02*
X116659580Y-75855713D01*
X132466666Y-112654819D02*
X132466666Y-113369104D01*
X132466666Y-113369104D02*
X132419047Y-113511961D01*
X132419047Y-113511961D02*
X132323809Y-113607200D01*
X132323809Y-113607200D02*
X132180952Y-113654819D01*
X132180952Y-113654819D02*
X132085714Y-113654819D01*
X133371428Y-112988152D02*
X133371428Y-113654819D01*
X133133333Y-112607200D02*
X132895238Y-113321485D01*
X132895238Y-113321485D02*
X133514285Y-113321485D01*
X115638095Y-102454819D02*
X115638095Y-103264342D01*
X115638095Y-103264342D02*
X115685714Y-103359580D01*
X115685714Y-103359580D02*
X115733333Y-103407200D01*
X115733333Y-103407200D02*
X115828571Y-103454819D01*
X115828571Y-103454819D02*
X116019047Y-103454819D01*
X116019047Y-103454819D02*
X116114285Y-103407200D01*
X116114285Y-103407200D02*
X116161904Y-103359580D01*
X116161904Y-103359580D02*
X116209523Y-103264342D01*
X116209523Y-103264342D02*
X116209523Y-102454819D01*
X117209523Y-103454819D02*
X116638095Y-103454819D01*
X116923809Y-103454819D02*
X116923809Y-102454819D01*
X116923809Y-102454819D02*
X116828571Y-102597676D01*
X116828571Y-102597676D02*
X116733333Y-102692914D01*
X116733333Y-102692914D02*
X116638095Y-102740533D01*
X181428095Y-109066819D02*
X181999523Y-109066819D01*
X181713809Y-110066819D02*
X181713809Y-109066819D01*
X182332857Y-110066819D02*
X182332857Y-109066819D01*
X182332857Y-109066819D02*
X182713809Y-109066819D01*
X182713809Y-109066819D02*
X182809047Y-109114438D01*
X182809047Y-109114438D02*
X182856666Y-109162057D01*
X182856666Y-109162057D02*
X182904285Y-109257295D01*
X182904285Y-109257295D02*
X182904285Y-109400152D01*
X182904285Y-109400152D02*
X182856666Y-109495390D01*
X182856666Y-109495390D02*
X182809047Y-109543009D01*
X182809047Y-109543009D02*
X182713809Y-109590628D01*
X182713809Y-109590628D02*
X182332857Y-109590628D01*
X183237619Y-109066819D02*
X183856666Y-109066819D01*
X183856666Y-109066819D02*
X183523333Y-109447771D01*
X183523333Y-109447771D02*
X183666190Y-109447771D01*
X183666190Y-109447771D02*
X183761428Y-109495390D01*
X183761428Y-109495390D02*
X183809047Y-109543009D01*
X183809047Y-109543009D02*
X183856666Y-109638247D01*
X183856666Y-109638247D02*
X183856666Y-109876342D01*
X183856666Y-109876342D02*
X183809047Y-109971580D01*
X183809047Y-109971580D02*
X183761428Y-110019200D01*
X183761428Y-110019200D02*
X183666190Y-110066819D01*
X183666190Y-110066819D02*
X183380476Y-110066819D01*
X183380476Y-110066819D02*
X183285238Y-110019200D01*
X183285238Y-110019200D02*
X183237619Y-109971580D01*
X140004819Y-83702857D02*
X139528628Y-84036190D01*
X140004819Y-84274285D02*
X139004819Y-84274285D01*
X139004819Y-84274285D02*
X139004819Y-83893333D01*
X139004819Y-83893333D02*
X139052438Y-83798095D01*
X139052438Y-83798095D02*
X139100057Y-83750476D01*
X139100057Y-83750476D02*
X139195295Y-83702857D01*
X139195295Y-83702857D02*
X139338152Y-83702857D01*
X139338152Y-83702857D02*
X139433390Y-83750476D01*
X139433390Y-83750476D02*
X139481009Y-83798095D01*
X139481009Y-83798095D02*
X139528628Y-83893333D01*
X139528628Y-83893333D02*
X139528628Y-84274285D01*
X139100057Y-83321904D02*
X139052438Y-83274285D01*
X139052438Y-83274285D02*
X139004819Y-83179047D01*
X139004819Y-83179047D02*
X139004819Y-82940952D01*
X139004819Y-82940952D02*
X139052438Y-82845714D01*
X139052438Y-82845714D02*
X139100057Y-82798095D01*
X139100057Y-82798095D02*
X139195295Y-82750476D01*
X139195295Y-82750476D02*
X139290533Y-82750476D01*
X139290533Y-82750476D02*
X139433390Y-82798095D01*
X139433390Y-82798095D02*
X140004819Y-83369523D01*
X140004819Y-83369523D02*
X140004819Y-82750476D01*
X139004819Y-82131428D02*
X139004819Y-82036190D01*
X139004819Y-82036190D02*
X139052438Y-81940952D01*
X139052438Y-81940952D02*
X139100057Y-81893333D01*
X139100057Y-81893333D02*
X139195295Y-81845714D01*
X139195295Y-81845714D02*
X139385771Y-81798095D01*
X139385771Y-81798095D02*
X139623866Y-81798095D01*
X139623866Y-81798095D02*
X139814342Y-81845714D01*
X139814342Y-81845714D02*
X139909580Y-81893333D01*
X139909580Y-81893333D02*
X139957200Y-81940952D01*
X139957200Y-81940952D02*
X140004819Y-82036190D01*
X140004819Y-82036190D02*
X140004819Y-82131428D01*
X140004819Y-82131428D02*
X139957200Y-82226666D01*
X139957200Y-82226666D02*
X139909580Y-82274285D01*
X139909580Y-82274285D02*
X139814342Y-82321904D01*
X139814342Y-82321904D02*
X139623866Y-82369523D01*
X139623866Y-82369523D02*
X139385771Y-82369523D01*
X139385771Y-82369523D02*
X139195295Y-82321904D01*
X139195295Y-82321904D02*
X139100057Y-82274285D01*
X139100057Y-82274285D02*
X139052438Y-82226666D01*
X139052438Y-82226666D02*
X139004819Y-82131428D01*
X149266666Y-71054819D02*
X149266666Y-71769104D01*
X149266666Y-71769104D02*
X149219047Y-71911961D01*
X149219047Y-71911961D02*
X149123809Y-72007200D01*
X149123809Y-72007200D02*
X148980952Y-72054819D01*
X148980952Y-72054819D02*
X148885714Y-72054819D01*
X149647619Y-71054819D02*
X150314285Y-71054819D01*
X150314285Y-71054819D02*
X149885714Y-72054819D01*
X160550057Y-89695238D02*
X160502438Y-89790476D01*
X160502438Y-89790476D02*
X160407200Y-89885714D01*
X160407200Y-89885714D02*
X160264342Y-90028571D01*
X160264342Y-90028571D02*
X160216723Y-90123809D01*
X160216723Y-90123809D02*
X160216723Y-90219047D01*
X160454819Y-90171428D02*
X160407200Y-90266666D01*
X160407200Y-90266666D02*
X160311961Y-90361904D01*
X160311961Y-90361904D02*
X160121485Y-90409523D01*
X160121485Y-90409523D02*
X159788152Y-90409523D01*
X159788152Y-90409523D02*
X159597676Y-90361904D01*
X159597676Y-90361904D02*
X159502438Y-90266666D01*
X159502438Y-90266666D02*
X159454819Y-90171428D01*
X159454819Y-90171428D02*
X159454819Y-89980952D01*
X159454819Y-89980952D02*
X159502438Y-89885714D01*
X159502438Y-89885714D02*
X159597676Y-89790476D01*
X159597676Y-89790476D02*
X159788152Y-89742857D01*
X159788152Y-89742857D02*
X160121485Y-89742857D01*
X160121485Y-89742857D02*
X160311961Y-89790476D01*
X160311961Y-89790476D02*
X160407200Y-89885714D01*
X160407200Y-89885714D02*
X160454819Y-89980952D01*
X160454819Y-89980952D02*
X160454819Y-90171428D01*
X160454819Y-89266666D02*
X160454819Y-89076190D01*
X160454819Y-89076190D02*
X160407200Y-88980952D01*
X160407200Y-88980952D02*
X160359580Y-88933333D01*
X160359580Y-88933333D02*
X160216723Y-88838095D01*
X160216723Y-88838095D02*
X160026247Y-88790476D01*
X160026247Y-88790476D02*
X159645295Y-88790476D01*
X159645295Y-88790476D02*
X159550057Y-88838095D01*
X159550057Y-88838095D02*
X159502438Y-88885714D01*
X159502438Y-88885714D02*
X159454819Y-88980952D01*
X159454819Y-88980952D02*
X159454819Y-89171428D01*
X159454819Y-89171428D02*
X159502438Y-89266666D01*
X159502438Y-89266666D02*
X159550057Y-89314285D01*
X159550057Y-89314285D02*
X159645295Y-89361904D01*
X159645295Y-89361904D02*
X159883390Y-89361904D01*
X159883390Y-89361904D02*
X159978628Y-89314285D01*
X159978628Y-89314285D02*
X160026247Y-89266666D01*
X160026247Y-89266666D02*
X160073866Y-89171428D01*
X160073866Y-89171428D02*
X160073866Y-88980952D01*
X160073866Y-88980952D02*
X160026247Y-88885714D01*
X160026247Y-88885714D02*
X159978628Y-88838095D01*
X159978628Y-88838095D02*
X159883390Y-88790476D01*
X127770476Y-71064819D02*
X127770476Y-71779104D01*
X127770476Y-71779104D02*
X127722857Y-71921961D01*
X127722857Y-71921961D02*
X127627619Y-72017200D01*
X127627619Y-72017200D02*
X127484762Y-72064819D01*
X127484762Y-72064819D02*
X127389524Y-72064819D01*
X128770476Y-72064819D02*
X128199048Y-72064819D01*
X128484762Y-72064819D02*
X128484762Y-71064819D01*
X128484762Y-71064819D02*
X128389524Y-71207676D01*
X128389524Y-71207676D02*
X128294286Y-71302914D01*
X128294286Y-71302914D02*
X128199048Y-71350533D01*
X129722857Y-72064819D02*
X129151429Y-72064819D01*
X129437143Y-72064819D02*
X129437143Y-71064819D01*
X129437143Y-71064819D02*
X129341905Y-71207676D01*
X129341905Y-71207676D02*
X129246667Y-71302914D01*
X129246667Y-71302914D02*
X129151429Y-71350533D01*
X135390476Y-118054819D02*
X135390476Y-118769104D01*
X135390476Y-118769104D02*
X135342857Y-118911961D01*
X135342857Y-118911961D02*
X135247619Y-119007200D01*
X135247619Y-119007200D02*
X135104762Y-119054819D01*
X135104762Y-119054819D02*
X135009524Y-119054819D01*
X136390476Y-119054819D02*
X135819048Y-119054819D01*
X136104762Y-119054819D02*
X136104762Y-118054819D01*
X136104762Y-118054819D02*
X136009524Y-118197676D01*
X136009524Y-118197676D02*
X135914286Y-118292914D01*
X135914286Y-118292914D02*
X135819048Y-118340533D01*
X137295238Y-118054819D02*
X136819048Y-118054819D01*
X136819048Y-118054819D02*
X136771429Y-118531009D01*
X136771429Y-118531009D02*
X136819048Y-118483390D01*
X136819048Y-118483390D02*
X136914286Y-118435771D01*
X136914286Y-118435771D02*
X137152381Y-118435771D01*
X137152381Y-118435771D02*
X137247619Y-118483390D01*
X137247619Y-118483390D02*
X137295238Y-118531009D01*
X137295238Y-118531009D02*
X137342857Y-118626247D01*
X137342857Y-118626247D02*
X137342857Y-118864342D01*
X137342857Y-118864342D02*
X137295238Y-118959580D01*
X137295238Y-118959580D02*
X137247619Y-119007200D01*
X137247619Y-119007200D02*
X137152381Y-119054819D01*
X137152381Y-119054819D02*
X136914286Y-119054819D01*
X136914286Y-119054819D02*
X136819048Y-119007200D01*
X136819048Y-119007200D02*
X136771429Y-118959580D01*
X126673333Y-96254819D02*
X126340000Y-95778628D01*
X126101905Y-96254819D02*
X126101905Y-95254819D01*
X126101905Y-95254819D02*
X126482857Y-95254819D01*
X126482857Y-95254819D02*
X126578095Y-95302438D01*
X126578095Y-95302438D02*
X126625714Y-95350057D01*
X126625714Y-95350057D02*
X126673333Y-95445295D01*
X126673333Y-95445295D02*
X126673333Y-95588152D01*
X126673333Y-95588152D02*
X126625714Y-95683390D01*
X126625714Y-95683390D02*
X126578095Y-95731009D01*
X126578095Y-95731009D02*
X126482857Y-95778628D01*
X126482857Y-95778628D02*
X126101905Y-95778628D01*
X127006667Y-95254819D02*
X127625714Y-95254819D01*
X127625714Y-95254819D02*
X127292381Y-95635771D01*
X127292381Y-95635771D02*
X127435238Y-95635771D01*
X127435238Y-95635771D02*
X127530476Y-95683390D01*
X127530476Y-95683390D02*
X127578095Y-95731009D01*
X127578095Y-95731009D02*
X127625714Y-95826247D01*
X127625714Y-95826247D02*
X127625714Y-96064342D01*
X127625714Y-96064342D02*
X127578095Y-96159580D01*
X127578095Y-96159580D02*
X127530476Y-96207200D01*
X127530476Y-96207200D02*
X127435238Y-96254819D01*
X127435238Y-96254819D02*
X127149524Y-96254819D01*
X127149524Y-96254819D02*
X127054286Y-96207200D01*
X127054286Y-96207200D02*
X127006667Y-96159580D01*
X147838095Y-110574819D02*
X147838095Y-111384342D01*
X147838095Y-111384342D02*
X147885714Y-111479580D01*
X147885714Y-111479580D02*
X147933333Y-111527200D01*
X147933333Y-111527200D02*
X148028571Y-111574819D01*
X148028571Y-111574819D02*
X148219047Y-111574819D01*
X148219047Y-111574819D02*
X148314285Y-111527200D01*
X148314285Y-111527200D02*
X148361904Y-111479580D01*
X148361904Y-111479580D02*
X148409523Y-111384342D01*
X148409523Y-111384342D02*
X148409523Y-110574819D01*
X148790476Y-110574819D02*
X149457142Y-110574819D01*
X149457142Y-110574819D02*
X149028571Y-111574819D01*
X114053333Y-85759580D02*
X114005714Y-85807200D01*
X114005714Y-85807200D02*
X113862857Y-85854819D01*
X113862857Y-85854819D02*
X113767619Y-85854819D01*
X113767619Y-85854819D02*
X113624762Y-85807200D01*
X113624762Y-85807200D02*
X113529524Y-85711961D01*
X113529524Y-85711961D02*
X113481905Y-85616723D01*
X113481905Y-85616723D02*
X113434286Y-85426247D01*
X113434286Y-85426247D02*
X113434286Y-85283390D01*
X113434286Y-85283390D02*
X113481905Y-85092914D01*
X113481905Y-85092914D02*
X113529524Y-84997676D01*
X113529524Y-84997676D02*
X113624762Y-84902438D01*
X113624762Y-84902438D02*
X113767619Y-84854819D01*
X113767619Y-84854819D02*
X113862857Y-84854819D01*
X113862857Y-84854819D02*
X114005714Y-84902438D01*
X114005714Y-84902438D02*
X114053333Y-84950057D01*
X115005714Y-85854819D02*
X114434286Y-85854819D01*
X114720000Y-85854819D02*
X114720000Y-84854819D01*
X114720000Y-84854819D02*
X114624762Y-84997676D01*
X114624762Y-84997676D02*
X114529524Y-85092914D01*
X114529524Y-85092914D02*
X114434286Y-85140533D01*
X117493333Y-99529580D02*
X117445714Y-99577200D01*
X117445714Y-99577200D02*
X117302857Y-99624819D01*
X117302857Y-99624819D02*
X117207619Y-99624819D01*
X117207619Y-99624819D02*
X117064762Y-99577200D01*
X117064762Y-99577200D02*
X116969524Y-99481961D01*
X116969524Y-99481961D02*
X116921905Y-99386723D01*
X116921905Y-99386723D02*
X116874286Y-99196247D01*
X116874286Y-99196247D02*
X116874286Y-99053390D01*
X116874286Y-99053390D02*
X116921905Y-98862914D01*
X116921905Y-98862914D02*
X116969524Y-98767676D01*
X116969524Y-98767676D02*
X117064762Y-98672438D01*
X117064762Y-98672438D02*
X117207619Y-98624819D01*
X117207619Y-98624819D02*
X117302857Y-98624819D01*
X117302857Y-98624819D02*
X117445714Y-98672438D01*
X117445714Y-98672438D02*
X117493333Y-98720057D01*
X117826667Y-98624819D02*
X118445714Y-98624819D01*
X118445714Y-98624819D02*
X118112381Y-99005771D01*
X118112381Y-99005771D02*
X118255238Y-99005771D01*
X118255238Y-99005771D02*
X118350476Y-99053390D01*
X118350476Y-99053390D02*
X118398095Y-99101009D01*
X118398095Y-99101009D02*
X118445714Y-99196247D01*
X118445714Y-99196247D02*
X118445714Y-99434342D01*
X118445714Y-99434342D02*
X118398095Y-99529580D01*
X118398095Y-99529580D02*
X118350476Y-99577200D01*
X118350476Y-99577200D02*
X118255238Y-99624819D01*
X118255238Y-99624819D02*
X117969524Y-99624819D01*
X117969524Y-99624819D02*
X117874286Y-99577200D01*
X117874286Y-99577200D02*
X117826667Y-99529580D01*
X171704761Y-111550057D02*
X171609523Y-111502438D01*
X171609523Y-111502438D02*
X171514285Y-111407200D01*
X171514285Y-111407200D02*
X171371428Y-111264342D01*
X171371428Y-111264342D02*
X171276190Y-111216723D01*
X171276190Y-111216723D02*
X171180952Y-111216723D01*
X171228571Y-111454819D02*
X171133333Y-111407200D01*
X171133333Y-111407200D02*
X171038095Y-111311961D01*
X171038095Y-111311961D02*
X170990476Y-111121485D01*
X170990476Y-111121485D02*
X170990476Y-110788152D01*
X170990476Y-110788152D02*
X171038095Y-110597676D01*
X171038095Y-110597676D02*
X171133333Y-110502438D01*
X171133333Y-110502438D02*
X171228571Y-110454819D01*
X171228571Y-110454819D02*
X171419047Y-110454819D01*
X171419047Y-110454819D02*
X171514285Y-110502438D01*
X171514285Y-110502438D02*
X171609523Y-110597676D01*
X171609523Y-110597676D02*
X171657142Y-110788152D01*
X171657142Y-110788152D02*
X171657142Y-111121485D01*
X171657142Y-111121485D02*
X171609523Y-111311961D01*
X171609523Y-111311961D02*
X171514285Y-111407200D01*
X171514285Y-111407200D02*
X171419047Y-111454819D01*
X171419047Y-111454819D02*
X171228571Y-111454819D01*
X172609523Y-111454819D02*
X172038095Y-111454819D01*
X172323809Y-111454819D02*
X172323809Y-110454819D01*
X172323809Y-110454819D02*
X172228571Y-110597676D01*
X172228571Y-110597676D02*
X172133333Y-110692914D01*
X172133333Y-110692914D02*
X172038095Y-110740533D01*
X137014819Y-83742857D02*
X136538628Y-84076190D01*
X137014819Y-84314285D02*
X136014819Y-84314285D01*
X136014819Y-84314285D02*
X136014819Y-83933333D01*
X136014819Y-83933333D02*
X136062438Y-83838095D01*
X136062438Y-83838095D02*
X136110057Y-83790476D01*
X136110057Y-83790476D02*
X136205295Y-83742857D01*
X136205295Y-83742857D02*
X136348152Y-83742857D01*
X136348152Y-83742857D02*
X136443390Y-83790476D01*
X136443390Y-83790476D02*
X136491009Y-83838095D01*
X136491009Y-83838095D02*
X136538628Y-83933333D01*
X136538628Y-83933333D02*
X136538628Y-84314285D01*
X136110057Y-83361904D02*
X136062438Y-83314285D01*
X136062438Y-83314285D02*
X136014819Y-83219047D01*
X136014819Y-83219047D02*
X136014819Y-82980952D01*
X136014819Y-82980952D02*
X136062438Y-82885714D01*
X136062438Y-82885714D02*
X136110057Y-82838095D01*
X136110057Y-82838095D02*
X136205295Y-82790476D01*
X136205295Y-82790476D02*
X136300533Y-82790476D01*
X136300533Y-82790476D02*
X136443390Y-82838095D01*
X136443390Y-82838095D02*
X137014819Y-83409523D01*
X137014819Y-83409523D02*
X137014819Y-82790476D01*
X136348152Y-81933333D02*
X137014819Y-81933333D01*
X135967200Y-82171428D02*
X136681485Y-82409523D01*
X136681485Y-82409523D02*
X136681485Y-81790476D01*
X149790476Y-118054819D02*
X149790476Y-118769104D01*
X149790476Y-118769104D02*
X149742857Y-118911961D01*
X149742857Y-118911961D02*
X149647619Y-119007200D01*
X149647619Y-119007200D02*
X149504762Y-119054819D01*
X149504762Y-119054819D02*
X149409524Y-119054819D01*
X150790476Y-119054819D02*
X150219048Y-119054819D01*
X150504762Y-119054819D02*
X150504762Y-118054819D01*
X150504762Y-118054819D02*
X150409524Y-118197676D01*
X150409524Y-118197676D02*
X150314286Y-118292914D01*
X150314286Y-118292914D02*
X150219048Y-118340533D01*
X151361905Y-118483390D02*
X151266667Y-118435771D01*
X151266667Y-118435771D02*
X151219048Y-118388152D01*
X151219048Y-118388152D02*
X151171429Y-118292914D01*
X151171429Y-118292914D02*
X151171429Y-118245295D01*
X151171429Y-118245295D02*
X151219048Y-118150057D01*
X151219048Y-118150057D02*
X151266667Y-118102438D01*
X151266667Y-118102438D02*
X151361905Y-118054819D01*
X151361905Y-118054819D02*
X151552381Y-118054819D01*
X151552381Y-118054819D02*
X151647619Y-118102438D01*
X151647619Y-118102438D02*
X151695238Y-118150057D01*
X151695238Y-118150057D02*
X151742857Y-118245295D01*
X151742857Y-118245295D02*
X151742857Y-118292914D01*
X151742857Y-118292914D02*
X151695238Y-118388152D01*
X151695238Y-118388152D02*
X151647619Y-118435771D01*
X151647619Y-118435771D02*
X151552381Y-118483390D01*
X151552381Y-118483390D02*
X151361905Y-118483390D01*
X151361905Y-118483390D02*
X151266667Y-118531009D01*
X151266667Y-118531009D02*
X151219048Y-118578628D01*
X151219048Y-118578628D02*
X151171429Y-118673866D01*
X151171429Y-118673866D02*
X151171429Y-118864342D01*
X151171429Y-118864342D02*
X151219048Y-118959580D01*
X151219048Y-118959580D02*
X151266667Y-119007200D01*
X151266667Y-119007200D02*
X151361905Y-119054819D01*
X151361905Y-119054819D02*
X151552381Y-119054819D01*
X151552381Y-119054819D02*
X151647619Y-119007200D01*
X151647619Y-119007200D02*
X151695238Y-118959580D01*
X151695238Y-118959580D02*
X151742857Y-118864342D01*
X151742857Y-118864342D02*
X151742857Y-118673866D01*
X151742857Y-118673866D02*
X151695238Y-118578628D01*
X151695238Y-118578628D02*
X151647619Y-118531009D01*
X151647619Y-118531009D02*
X151552381Y-118483390D01*
X126683333Y-95064819D02*
X126350000Y-94588628D01*
X126111905Y-95064819D02*
X126111905Y-94064819D01*
X126111905Y-94064819D02*
X126492857Y-94064819D01*
X126492857Y-94064819D02*
X126588095Y-94112438D01*
X126588095Y-94112438D02*
X126635714Y-94160057D01*
X126635714Y-94160057D02*
X126683333Y-94255295D01*
X126683333Y-94255295D02*
X126683333Y-94398152D01*
X126683333Y-94398152D02*
X126635714Y-94493390D01*
X126635714Y-94493390D02*
X126588095Y-94541009D01*
X126588095Y-94541009D02*
X126492857Y-94588628D01*
X126492857Y-94588628D02*
X126111905Y-94588628D01*
X127540476Y-94398152D02*
X127540476Y-95064819D01*
X127302381Y-94017200D02*
X127064286Y-94731485D01*
X127064286Y-94731485D02*
X127683333Y-94731485D01*
X139666666Y-71054819D02*
X139666666Y-71769104D01*
X139666666Y-71769104D02*
X139619047Y-71911961D01*
X139619047Y-71911961D02*
X139523809Y-72007200D01*
X139523809Y-72007200D02*
X139380952Y-72054819D01*
X139380952Y-72054819D02*
X139285714Y-72054819D01*
X140190476Y-72054819D02*
X140380952Y-72054819D01*
X140380952Y-72054819D02*
X140476190Y-72007200D01*
X140476190Y-72007200D02*
X140523809Y-71959580D01*
X140523809Y-71959580D02*
X140619047Y-71816723D01*
X140619047Y-71816723D02*
X140666666Y-71626247D01*
X140666666Y-71626247D02*
X140666666Y-71245295D01*
X140666666Y-71245295D02*
X140619047Y-71150057D01*
X140619047Y-71150057D02*
X140571428Y-71102438D01*
X140571428Y-71102438D02*
X140476190Y-71054819D01*
X140476190Y-71054819D02*
X140285714Y-71054819D01*
X140285714Y-71054819D02*
X140190476Y-71102438D01*
X140190476Y-71102438D02*
X140142857Y-71150057D01*
X140142857Y-71150057D02*
X140095238Y-71245295D01*
X140095238Y-71245295D02*
X140095238Y-71483390D01*
X140095238Y-71483390D02*
X140142857Y-71578628D01*
X140142857Y-71578628D02*
X140190476Y-71626247D01*
X140190476Y-71626247D02*
X140285714Y-71673866D01*
X140285714Y-71673866D02*
X140476190Y-71673866D01*
X140476190Y-71673866D02*
X140571428Y-71626247D01*
X140571428Y-71626247D02*
X140619047Y-71578628D01*
X140619047Y-71578628D02*
X140666666Y-71483390D01*
X137760057Y-74585238D02*
X137712438Y-74680476D01*
X137712438Y-74680476D02*
X137617200Y-74775714D01*
X137617200Y-74775714D02*
X137474342Y-74918571D01*
X137474342Y-74918571D02*
X137426723Y-75013809D01*
X137426723Y-75013809D02*
X137426723Y-75109047D01*
X137664819Y-75061428D02*
X137617200Y-75156666D01*
X137617200Y-75156666D02*
X137521961Y-75251904D01*
X137521961Y-75251904D02*
X137331485Y-75299523D01*
X137331485Y-75299523D02*
X136998152Y-75299523D01*
X136998152Y-75299523D02*
X136807676Y-75251904D01*
X136807676Y-75251904D02*
X136712438Y-75156666D01*
X136712438Y-75156666D02*
X136664819Y-75061428D01*
X136664819Y-75061428D02*
X136664819Y-74870952D01*
X136664819Y-74870952D02*
X136712438Y-74775714D01*
X136712438Y-74775714D02*
X136807676Y-74680476D01*
X136807676Y-74680476D02*
X136998152Y-74632857D01*
X136998152Y-74632857D02*
X137331485Y-74632857D01*
X137331485Y-74632857D02*
X137521961Y-74680476D01*
X137521961Y-74680476D02*
X137617200Y-74775714D01*
X137617200Y-74775714D02*
X137664819Y-74870952D01*
X137664819Y-74870952D02*
X137664819Y-75061428D01*
X136664819Y-73775714D02*
X136664819Y-73966190D01*
X136664819Y-73966190D02*
X136712438Y-74061428D01*
X136712438Y-74061428D02*
X136760057Y-74109047D01*
X136760057Y-74109047D02*
X136902914Y-74204285D01*
X136902914Y-74204285D02*
X137093390Y-74251904D01*
X137093390Y-74251904D02*
X137474342Y-74251904D01*
X137474342Y-74251904D02*
X137569580Y-74204285D01*
X137569580Y-74204285D02*
X137617200Y-74156666D01*
X137617200Y-74156666D02*
X137664819Y-74061428D01*
X137664819Y-74061428D02*
X137664819Y-73870952D01*
X137664819Y-73870952D02*
X137617200Y-73775714D01*
X137617200Y-73775714D02*
X137569580Y-73728095D01*
X137569580Y-73728095D02*
X137474342Y-73680476D01*
X137474342Y-73680476D02*
X137236247Y-73680476D01*
X137236247Y-73680476D02*
X137141009Y-73728095D01*
X137141009Y-73728095D02*
X137093390Y-73775714D01*
X137093390Y-73775714D02*
X137045771Y-73870952D01*
X137045771Y-73870952D02*
X137045771Y-74061428D01*
X137045771Y-74061428D02*
X137093390Y-74156666D01*
X137093390Y-74156666D02*
X137141009Y-74204285D01*
X137141009Y-74204285D02*
X137236247Y-74251904D01*
X165634761Y-111700057D02*
X165539523Y-111652438D01*
X165539523Y-111652438D02*
X165444285Y-111557200D01*
X165444285Y-111557200D02*
X165301428Y-111414342D01*
X165301428Y-111414342D02*
X165206190Y-111366723D01*
X165206190Y-111366723D02*
X165110952Y-111366723D01*
X165158571Y-111604819D02*
X165063333Y-111557200D01*
X165063333Y-111557200D02*
X164968095Y-111461961D01*
X164968095Y-111461961D02*
X164920476Y-111271485D01*
X164920476Y-111271485D02*
X164920476Y-110938152D01*
X164920476Y-110938152D02*
X164968095Y-110747676D01*
X164968095Y-110747676D02*
X165063333Y-110652438D01*
X165063333Y-110652438D02*
X165158571Y-110604819D01*
X165158571Y-110604819D02*
X165349047Y-110604819D01*
X165349047Y-110604819D02*
X165444285Y-110652438D01*
X165444285Y-110652438D02*
X165539523Y-110747676D01*
X165539523Y-110747676D02*
X165587142Y-110938152D01*
X165587142Y-110938152D02*
X165587142Y-111271485D01*
X165587142Y-111271485D02*
X165539523Y-111461961D01*
X165539523Y-111461961D02*
X165444285Y-111557200D01*
X165444285Y-111557200D02*
X165349047Y-111604819D01*
X165349047Y-111604819D02*
X165158571Y-111604819D01*
X165968095Y-110700057D02*
X166015714Y-110652438D01*
X166015714Y-110652438D02*
X166110952Y-110604819D01*
X166110952Y-110604819D02*
X166349047Y-110604819D01*
X166349047Y-110604819D02*
X166444285Y-110652438D01*
X166444285Y-110652438D02*
X166491904Y-110700057D01*
X166491904Y-110700057D02*
X166539523Y-110795295D01*
X166539523Y-110795295D02*
X166539523Y-110890533D01*
X166539523Y-110890533D02*
X166491904Y-111033390D01*
X166491904Y-111033390D02*
X165920476Y-111604819D01*
X165920476Y-111604819D02*
X166539523Y-111604819D01*
X161054819Y-72642857D02*
X160578628Y-72976190D01*
X161054819Y-73214285D02*
X160054819Y-73214285D01*
X160054819Y-73214285D02*
X160054819Y-72833333D01*
X160054819Y-72833333D02*
X160102438Y-72738095D01*
X160102438Y-72738095D02*
X160150057Y-72690476D01*
X160150057Y-72690476D02*
X160245295Y-72642857D01*
X160245295Y-72642857D02*
X160388152Y-72642857D01*
X160388152Y-72642857D02*
X160483390Y-72690476D01*
X160483390Y-72690476D02*
X160531009Y-72738095D01*
X160531009Y-72738095D02*
X160578628Y-72833333D01*
X160578628Y-72833333D02*
X160578628Y-73214285D01*
X161054819Y-71690476D02*
X161054819Y-72261904D01*
X161054819Y-71976190D02*
X160054819Y-71976190D01*
X160054819Y-71976190D02*
X160197676Y-72071428D01*
X160197676Y-72071428D02*
X160292914Y-72166666D01*
X160292914Y-72166666D02*
X160340533Y-72261904D01*
X160054819Y-70833333D02*
X160054819Y-71023809D01*
X160054819Y-71023809D02*
X160102438Y-71119047D01*
X160102438Y-71119047D02*
X160150057Y-71166666D01*
X160150057Y-71166666D02*
X160292914Y-71261904D01*
X160292914Y-71261904D02*
X160483390Y-71309523D01*
X160483390Y-71309523D02*
X160864342Y-71309523D01*
X160864342Y-71309523D02*
X160959580Y-71261904D01*
X160959580Y-71261904D02*
X161007200Y-71214285D01*
X161007200Y-71214285D02*
X161054819Y-71119047D01*
X161054819Y-71119047D02*
X161054819Y-70928571D01*
X161054819Y-70928571D02*
X161007200Y-70833333D01*
X161007200Y-70833333D02*
X160959580Y-70785714D01*
X160959580Y-70785714D02*
X160864342Y-70738095D01*
X160864342Y-70738095D02*
X160626247Y-70738095D01*
X160626247Y-70738095D02*
X160531009Y-70785714D01*
X160531009Y-70785714D02*
X160483390Y-70833333D01*
X160483390Y-70833333D02*
X160435771Y-70928571D01*
X160435771Y-70928571D02*
X160435771Y-71119047D01*
X160435771Y-71119047D02*
X160483390Y-71214285D01*
X160483390Y-71214285D02*
X160531009Y-71261904D01*
X160531009Y-71261904D02*
X160626247Y-71309523D01*
X187054819Y-85042857D02*
X186578628Y-85376190D01*
X187054819Y-85614285D02*
X186054819Y-85614285D01*
X186054819Y-85614285D02*
X186054819Y-85233333D01*
X186054819Y-85233333D02*
X186102438Y-85138095D01*
X186102438Y-85138095D02*
X186150057Y-85090476D01*
X186150057Y-85090476D02*
X186245295Y-85042857D01*
X186245295Y-85042857D02*
X186388152Y-85042857D01*
X186388152Y-85042857D02*
X186483390Y-85090476D01*
X186483390Y-85090476D02*
X186531009Y-85138095D01*
X186531009Y-85138095D02*
X186578628Y-85233333D01*
X186578628Y-85233333D02*
X186578628Y-85614285D01*
X187054819Y-84090476D02*
X187054819Y-84661904D01*
X187054819Y-84376190D02*
X186054819Y-84376190D01*
X186054819Y-84376190D02*
X186197676Y-84471428D01*
X186197676Y-84471428D02*
X186292914Y-84566666D01*
X186292914Y-84566666D02*
X186340533Y-84661904D01*
X186150057Y-83709523D02*
X186102438Y-83661904D01*
X186102438Y-83661904D02*
X186054819Y-83566666D01*
X186054819Y-83566666D02*
X186054819Y-83328571D01*
X186054819Y-83328571D02*
X186102438Y-83233333D01*
X186102438Y-83233333D02*
X186150057Y-83185714D01*
X186150057Y-83185714D02*
X186245295Y-83138095D01*
X186245295Y-83138095D02*
X186340533Y-83138095D01*
X186340533Y-83138095D02*
X186483390Y-83185714D01*
X186483390Y-83185714D02*
X187054819Y-83757142D01*
X187054819Y-83757142D02*
X187054819Y-83138095D01*
X165654819Y-72642857D02*
X165178628Y-72976190D01*
X165654819Y-73214285D02*
X164654819Y-73214285D01*
X164654819Y-73214285D02*
X164654819Y-72833333D01*
X164654819Y-72833333D02*
X164702438Y-72738095D01*
X164702438Y-72738095D02*
X164750057Y-72690476D01*
X164750057Y-72690476D02*
X164845295Y-72642857D01*
X164845295Y-72642857D02*
X164988152Y-72642857D01*
X164988152Y-72642857D02*
X165083390Y-72690476D01*
X165083390Y-72690476D02*
X165131009Y-72738095D01*
X165131009Y-72738095D02*
X165178628Y-72833333D01*
X165178628Y-72833333D02*
X165178628Y-73214285D01*
X165654819Y-71690476D02*
X165654819Y-72261904D01*
X165654819Y-71976190D02*
X164654819Y-71976190D01*
X164654819Y-71976190D02*
X164797676Y-72071428D01*
X164797676Y-72071428D02*
X164892914Y-72166666D01*
X164892914Y-72166666D02*
X164940533Y-72261904D01*
X164654819Y-71357142D02*
X164654819Y-70690476D01*
X164654819Y-70690476D02*
X165654819Y-71119047D01*
X157084819Y-76042857D02*
X156608628Y-76376190D01*
X157084819Y-76614285D02*
X156084819Y-76614285D01*
X156084819Y-76614285D02*
X156084819Y-76233333D01*
X156084819Y-76233333D02*
X156132438Y-76138095D01*
X156132438Y-76138095D02*
X156180057Y-76090476D01*
X156180057Y-76090476D02*
X156275295Y-76042857D01*
X156275295Y-76042857D02*
X156418152Y-76042857D01*
X156418152Y-76042857D02*
X156513390Y-76090476D01*
X156513390Y-76090476D02*
X156561009Y-76138095D01*
X156561009Y-76138095D02*
X156608628Y-76233333D01*
X156608628Y-76233333D02*
X156608628Y-76614285D01*
X157084819Y-75090476D02*
X157084819Y-75661904D01*
X157084819Y-75376190D02*
X156084819Y-75376190D01*
X156084819Y-75376190D02*
X156227676Y-75471428D01*
X156227676Y-75471428D02*
X156322914Y-75566666D01*
X156322914Y-75566666D02*
X156370533Y-75661904D01*
X156084819Y-74185714D02*
X156084819Y-74661904D01*
X156084819Y-74661904D02*
X156561009Y-74709523D01*
X156561009Y-74709523D02*
X156513390Y-74661904D01*
X156513390Y-74661904D02*
X156465771Y-74566666D01*
X156465771Y-74566666D02*
X156465771Y-74328571D01*
X156465771Y-74328571D02*
X156513390Y-74233333D01*
X156513390Y-74233333D02*
X156561009Y-74185714D01*
X156561009Y-74185714D02*
X156656247Y-74138095D01*
X156656247Y-74138095D02*
X156894342Y-74138095D01*
X156894342Y-74138095D02*
X156989580Y-74185714D01*
X156989580Y-74185714D02*
X157037200Y-74233333D01*
X157037200Y-74233333D02*
X157084819Y-74328571D01*
X157084819Y-74328571D02*
X157084819Y-74566666D01*
X157084819Y-74566666D02*
X157037200Y-74661904D01*
X157037200Y-74661904D02*
X156989580Y-74709523D01*
X161838095Y-84254819D02*
X161838095Y-85064342D01*
X161838095Y-85064342D02*
X161885714Y-85159580D01*
X161885714Y-85159580D02*
X161933333Y-85207200D01*
X161933333Y-85207200D02*
X162028571Y-85254819D01*
X162028571Y-85254819D02*
X162219047Y-85254819D01*
X162219047Y-85254819D02*
X162314285Y-85207200D01*
X162314285Y-85207200D02*
X162361904Y-85159580D01*
X162361904Y-85159580D02*
X162409523Y-85064342D01*
X162409523Y-85064342D02*
X162409523Y-84254819D01*
X163361904Y-84254819D02*
X162885714Y-84254819D01*
X162885714Y-84254819D02*
X162838095Y-84731009D01*
X162838095Y-84731009D02*
X162885714Y-84683390D01*
X162885714Y-84683390D02*
X162980952Y-84635771D01*
X162980952Y-84635771D02*
X163219047Y-84635771D01*
X163219047Y-84635771D02*
X163314285Y-84683390D01*
X163314285Y-84683390D02*
X163361904Y-84731009D01*
X163361904Y-84731009D02*
X163409523Y-84826247D01*
X163409523Y-84826247D02*
X163409523Y-85064342D01*
X163409523Y-85064342D02*
X163361904Y-85159580D01*
X163361904Y-85159580D02*
X163314285Y-85207200D01*
X163314285Y-85207200D02*
X163219047Y-85254819D01*
X163219047Y-85254819D02*
X162980952Y-85254819D01*
X162980952Y-85254819D02*
X162885714Y-85207200D01*
X162885714Y-85207200D02*
X162838095Y-85159580D01*
X158066666Y-71254819D02*
X158066666Y-71969104D01*
X158066666Y-71969104D02*
X158019047Y-72111961D01*
X158019047Y-72111961D02*
X157923809Y-72207200D01*
X157923809Y-72207200D02*
X157780952Y-72254819D01*
X157780952Y-72254819D02*
X157685714Y-72254819D01*
X159019047Y-71254819D02*
X158542857Y-71254819D01*
X158542857Y-71254819D02*
X158495238Y-71731009D01*
X158495238Y-71731009D02*
X158542857Y-71683390D01*
X158542857Y-71683390D02*
X158638095Y-71635771D01*
X158638095Y-71635771D02*
X158876190Y-71635771D01*
X158876190Y-71635771D02*
X158971428Y-71683390D01*
X158971428Y-71683390D02*
X159019047Y-71731009D01*
X159019047Y-71731009D02*
X159066666Y-71826247D01*
X159066666Y-71826247D02*
X159066666Y-72064342D01*
X159066666Y-72064342D02*
X159019047Y-72159580D01*
X159019047Y-72159580D02*
X158971428Y-72207200D01*
X158971428Y-72207200D02*
X158876190Y-72254819D01*
X158876190Y-72254819D02*
X158638095Y-72254819D01*
X158638095Y-72254819D02*
X158542857Y-72207200D01*
X158542857Y-72207200D02*
X158495238Y-72159580D01*
X176454819Y-107242857D02*
X175978628Y-107576190D01*
X176454819Y-107814285D02*
X175454819Y-107814285D01*
X175454819Y-107814285D02*
X175454819Y-107433333D01*
X175454819Y-107433333D02*
X175502438Y-107338095D01*
X175502438Y-107338095D02*
X175550057Y-107290476D01*
X175550057Y-107290476D02*
X175645295Y-107242857D01*
X175645295Y-107242857D02*
X175788152Y-107242857D01*
X175788152Y-107242857D02*
X175883390Y-107290476D01*
X175883390Y-107290476D02*
X175931009Y-107338095D01*
X175931009Y-107338095D02*
X175978628Y-107433333D01*
X175978628Y-107433333D02*
X175978628Y-107814285D01*
X175550057Y-106861904D02*
X175502438Y-106814285D01*
X175502438Y-106814285D02*
X175454819Y-106719047D01*
X175454819Y-106719047D02*
X175454819Y-106480952D01*
X175454819Y-106480952D02*
X175502438Y-106385714D01*
X175502438Y-106385714D02*
X175550057Y-106338095D01*
X175550057Y-106338095D02*
X175645295Y-106290476D01*
X175645295Y-106290476D02*
X175740533Y-106290476D01*
X175740533Y-106290476D02*
X175883390Y-106338095D01*
X175883390Y-106338095D02*
X176454819Y-106909523D01*
X176454819Y-106909523D02*
X176454819Y-106290476D01*
X175883390Y-105719047D02*
X175835771Y-105814285D01*
X175835771Y-105814285D02*
X175788152Y-105861904D01*
X175788152Y-105861904D02*
X175692914Y-105909523D01*
X175692914Y-105909523D02*
X175645295Y-105909523D01*
X175645295Y-105909523D02*
X175550057Y-105861904D01*
X175550057Y-105861904D02*
X175502438Y-105814285D01*
X175502438Y-105814285D02*
X175454819Y-105719047D01*
X175454819Y-105719047D02*
X175454819Y-105528571D01*
X175454819Y-105528571D02*
X175502438Y-105433333D01*
X175502438Y-105433333D02*
X175550057Y-105385714D01*
X175550057Y-105385714D02*
X175645295Y-105338095D01*
X175645295Y-105338095D02*
X175692914Y-105338095D01*
X175692914Y-105338095D02*
X175788152Y-105385714D01*
X175788152Y-105385714D02*
X175835771Y-105433333D01*
X175835771Y-105433333D02*
X175883390Y-105528571D01*
X175883390Y-105528571D02*
X175883390Y-105719047D01*
X175883390Y-105719047D02*
X175931009Y-105814285D01*
X175931009Y-105814285D02*
X175978628Y-105861904D01*
X175978628Y-105861904D02*
X176073866Y-105909523D01*
X176073866Y-105909523D02*
X176264342Y-105909523D01*
X176264342Y-105909523D02*
X176359580Y-105861904D01*
X176359580Y-105861904D02*
X176407200Y-105814285D01*
X176407200Y-105814285D02*
X176454819Y-105719047D01*
X176454819Y-105719047D02*
X176454819Y-105528571D01*
X176454819Y-105528571D02*
X176407200Y-105433333D01*
X176407200Y-105433333D02*
X176359580Y-105385714D01*
X176359580Y-105385714D02*
X176264342Y-105338095D01*
X176264342Y-105338095D02*
X176073866Y-105338095D01*
X176073866Y-105338095D02*
X175978628Y-105385714D01*
X175978628Y-105385714D02*
X175931009Y-105433333D01*
X175931009Y-105433333D02*
X175883390Y-105528571D01*
X109054819Y-110738094D02*
X108054819Y-110738094D01*
X108054819Y-110738094D02*
X108054819Y-110499999D01*
X108054819Y-110499999D02*
X108102438Y-110357142D01*
X108102438Y-110357142D02*
X108197676Y-110261904D01*
X108197676Y-110261904D02*
X108292914Y-110214285D01*
X108292914Y-110214285D02*
X108483390Y-110166666D01*
X108483390Y-110166666D02*
X108626247Y-110166666D01*
X108626247Y-110166666D02*
X108816723Y-110214285D01*
X108816723Y-110214285D02*
X108911961Y-110261904D01*
X108911961Y-110261904D02*
X109007200Y-110357142D01*
X109007200Y-110357142D02*
X109054819Y-110499999D01*
X109054819Y-110499999D02*
X109054819Y-110738094D01*
X108483390Y-109595237D02*
X108435771Y-109690475D01*
X108435771Y-109690475D02*
X108388152Y-109738094D01*
X108388152Y-109738094D02*
X108292914Y-109785713D01*
X108292914Y-109785713D02*
X108245295Y-109785713D01*
X108245295Y-109785713D02*
X108150057Y-109738094D01*
X108150057Y-109738094D02*
X108102438Y-109690475D01*
X108102438Y-109690475D02*
X108054819Y-109595237D01*
X108054819Y-109595237D02*
X108054819Y-109404761D01*
X108054819Y-109404761D02*
X108102438Y-109309523D01*
X108102438Y-109309523D02*
X108150057Y-109261904D01*
X108150057Y-109261904D02*
X108245295Y-109214285D01*
X108245295Y-109214285D02*
X108292914Y-109214285D01*
X108292914Y-109214285D02*
X108388152Y-109261904D01*
X108388152Y-109261904D02*
X108435771Y-109309523D01*
X108435771Y-109309523D02*
X108483390Y-109404761D01*
X108483390Y-109404761D02*
X108483390Y-109595237D01*
X108483390Y-109595237D02*
X108531009Y-109690475D01*
X108531009Y-109690475D02*
X108578628Y-109738094D01*
X108578628Y-109738094D02*
X108673866Y-109785713D01*
X108673866Y-109785713D02*
X108864342Y-109785713D01*
X108864342Y-109785713D02*
X108959580Y-109738094D01*
X108959580Y-109738094D02*
X109007200Y-109690475D01*
X109007200Y-109690475D02*
X109054819Y-109595237D01*
X109054819Y-109595237D02*
X109054819Y-109404761D01*
X109054819Y-109404761D02*
X109007200Y-109309523D01*
X109007200Y-109309523D02*
X108959580Y-109261904D01*
X108959580Y-109261904D02*
X108864342Y-109214285D01*
X108864342Y-109214285D02*
X108673866Y-109214285D01*
X108673866Y-109214285D02*
X108578628Y-109261904D01*
X108578628Y-109261904D02*
X108531009Y-109309523D01*
X108531009Y-109309523D02*
X108483390Y-109404761D01*
X181428095Y-96516819D02*
X181999523Y-96516819D01*
X181713809Y-97516819D02*
X181713809Y-96516819D01*
X182332857Y-97516819D02*
X182332857Y-96516819D01*
X182332857Y-96516819D02*
X182713809Y-96516819D01*
X182713809Y-96516819D02*
X182809047Y-96564438D01*
X182809047Y-96564438D02*
X182856666Y-96612057D01*
X182856666Y-96612057D02*
X182904285Y-96707295D01*
X182904285Y-96707295D02*
X182904285Y-96850152D01*
X182904285Y-96850152D02*
X182856666Y-96945390D01*
X182856666Y-96945390D02*
X182809047Y-96993009D01*
X182809047Y-96993009D02*
X182713809Y-97040628D01*
X182713809Y-97040628D02*
X182332857Y-97040628D01*
X183761428Y-96850152D02*
X183761428Y-97516819D01*
X183523333Y-96469200D02*
X183285238Y-97183485D01*
X183285238Y-97183485D02*
X183904285Y-97183485D01*
X186959580Y-82042857D02*
X187007200Y-82090476D01*
X187007200Y-82090476D02*
X187054819Y-82233333D01*
X187054819Y-82233333D02*
X187054819Y-82328571D01*
X187054819Y-82328571D02*
X187007200Y-82471428D01*
X187007200Y-82471428D02*
X186911961Y-82566666D01*
X186911961Y-82566666D02*
X186816723Y-82614285D01*
X186816723Y-82614285D02*
X186626247Y-82661904D01*
X186626247Y-82661904D02*
X186483390Y-82661904D01*
X186483390Y-82661904D02*
X186292914Y-82614285D01*
X186292914Y-82614285D02*
X186197676Y-82566666D01*
X186197676Y-82566666D02*
X186102438Y-82471428D01*
X186102438Y-82471428D02*
X186054819Y-82328571D01*
X186054819Y-82328571D02*
X186054819Y-82233333D01*
X186054819Y-82233333D02*
X186102438Y-82090476D01*
X186102438Y-82090476D02*
X186150057Y-82042857D01*
X187054819Y-81090476D02*
X187054819Y-81661904D01*
X187054819Y-81376190D02*
X186054819Y-81376190D01*
X186054819Y-81376190D02*
X186197676Y-81471428D01*
X186197676Y-81471428D02*
X186292914Y-81566666D01*
X186292914Y-81566666D02*
X186340533Y-81661904D01*
X186150057Y-80709523D02*
X186102438Y-80661904D01*
X186102438Y-80661904D02*
X186054819Y-80566666D01*
X186054819Y-80566666D02*
X186054819Y-80328571D01*
X186054819Y-80328571D02*
X186102438Y-80233333D01*
X186102438Y-80233333D02*
X186150057Y-80185714D01*
X186150057Y-80185714D02*
X186245295Y-80138095D01*
X186245295Y-80138095D02*
X186340533Y-80138095D01*
X186340533Y-80138095D02*
X186483390Y-80185714D01*
X186483390Y-80185714D02*
X187054819Y-80757142D01*
X187054819Y-80757142D02*
X187054819Y-80138095D01*
X144990476Y-117854819D02*
X144990476Y-118569104D01*
X144990476Y-118569104D02*
X144942857Y-118711961D01*
X144942857Y-118711961D02*
X144847619Y-118807200D01*
X144847619Y-118807200D02*
X144704762Y-118854819D01*
X144704762Y-118854819D02*
X144609524Y-118854819D01*
X145990476Y-118854819D02*
X145419048Y-118854819D01*
X145704762Y-118854819D02*
X145704762Y-117854819D01*
X145704762Y-117854819D02*
X145609524Y-117997676D01*
X145609524Y-117997676D02*
X145514286Y-118092914D01*
X145514286Y-118092914D02*
X145419048Y-118140533D01*
X146323810Y-117854819D02*
X146990476Y-117854819D01*
X146990476Y-117854819D02*
X146561905Y-118854819D01*
X124140476Y-71104819D02*
X124140476Y-71819104D01*
X124140476Y-71819104D02*
X124092857Y-71961961D01*
X124092857Y-71961961D02*
X123997619Y-72057200D01*
X123997619Y-72057200D02*
X123854762Y-72104819D01*
X123854762Y-72104819D02*
X123759524Y-72104819D01*
X125140476Y-72104819D02*
X124569048Y-72104819D01*
X124854762Y-72104819D02*
X124854762Y-71104819D01*
X124854762Y-71104819D02*
X124759524Y-71247676D01*
X124759524Y-71247676D02*
X124664286Y-71342914D01*
X124664286Y-71342914D02*
X124569048Y-71390533D01*
X125521429Y-71200057D02*
X125569048Y-71152438D01*
X125569048Y-71152438D02*
X125664286Y-71104819D01*
X125664286Y-71104819D02*
X125902381Y-71104819D01*
X125902381Y-71104819D02*
X125997619Y-71152438D01*
X125997619Y-71152438D02*
X126045238Y-71200057D01*
X126045238Y-71200057D02*
X126092857Y-71295295D01*
X126092857Y-71295295D02*
X126092857Y-71390533D01*
X126092857Y-71390533D02*
X126045238Y-71533390D01*
X126045238Y-71533390D02*
X125473810Y-72104819D01*
X125473810Y-72104819D02*
X126092857Y-72104819D01*
X152604819Y-76812857D02*
X152128628Y-77146190D01*
X152604819Y-77384285D02*
X151604819Y-77384285D01*
X151604819Y-77384285D02*
X151604819Y-77003333D01*
X151604819Y-77003333D02*
X151652438Y-76908095D01*
X151652438Y-76908095D02*
X151700057Y-76860476D01*
X151700057Y-76860476D02*
X151795295Y-76812857D01*
X151795295Y-76812857D02*
X151938152Y-76812857D01*
X151938152Y-76812857D02*
X152033390Y-76860476D01*
X152033390Y-76860476D02*
X152081009Y-76908095D01*
X152081009Y-76908095D02*
X152128628Y-77003333D01*
X152128628Y-77003333D02*
X152128628Y-77384285D01*
X152604819Y-75860476D02*
X152604819Y-76431904D01*
X152604819Y-76146190D02*
X151604819Y-76146190D01*
X151604819Y-76146190D02*
X151747676Y-76241428D01*
X151747676Y-76241428D02*
X151842914Y-76336666D01*
X151842914Y-76336666D02*
X151890533Y-76431904D01*
X152033390Y-75289047D02*
X151985771Y-75384285D01*
X151985771Y-75384285D02*
X151938152Y-75431904D01*
X151938152Y-75431904D02*
X151842914Y-75479523D01*
X151842914Y-75479523D02*
X151795295Y-75479523D01*
X151795295Y-75479523D02*
X151700057Y-75431904D01*
X151700057Y-75431904D02*
X151652438Y-75384285D01*
X151652438Y-75384285D02*
X151604819Y-75289047D01*
X151604819Y-75289047D02*
X151604819Y-75098571D01*
X151604819Y-75098571D02*
X151652438Y-75003333D01*
X151652438Y-75003333D02*
X151700057Y-74955714D01*
X151700057Y-74955714D02*
X151795295Y-74908095D01*
X151795295Y-74908095D02*
X151842914Y-74908095D01*
X151842914Y-74908095D02*
X151938152Y-74955714D01*
X151938152Y-74955714D02*
X151985771Y-75003333D01*
X151985771Y-75003333D02*
X152033390Y-75098571D01*
X152033390Y-75098571D02*
X152033390Y-75289047D01*
X152033390Y-75289047D02*
X152081009Y-75384285D01*
X152081009Y-75384285D02*
X152128628Y-75431904D01*
X152128628Y-75431904D02*
X152223866Y-75479523D01*
X152223866Y-75479523D02*
X152414342Y-75479523D01*
X152414342Y-75479523D02*
X152509580Y-75431904D01*
X152509580Y-75431904D02*
X152557200Y-75384285D01*
X152557200Y-75384285D02*
X152604819Y-75289047D01*
X152604819Y-75289047D02*
X152604819Y-75098571D01*
X152604819Y-75098571D02*
X152557200Y-75003333D01*
X152557200Y-75003333D02*
X152509580Y-74955714D01*
X152509580Y-74955714D02*
X152414342Y-74908095D01*
X152414342Y-74908095D02*
X152223866Y-74908095D01*
X152223866Y-74908095D02*
X152128628Y-74955714D01*
X152128628Y-74955714D02*
X152081009Y-75003333D01*
X152081009Y-75003333D02*
X152033390Y-75098571D01*
X152558628Y-98636190D02*
X153034819Y-98636190D01*
X152034819Y-98969523D02*
X152558628Y-98636190D01*
X152558628Y-98636190D02*
X152034819Y-98302857D01*
X152130057Y-98017142D02*
X152082438Y-97969523D01*
X152082438Y-97969523D02*
X152034819Y-97874285D01*
X152034819Y-97874285D02*
X152034819Y-97636190D01*
X152034819Y-97636190D02*
X152082438Y-97540952D01*
X152082438Y-97540952D02*
X152130057Y-97493333D01*
X152130057Y-97493333D02*
X152225295Y-97445714D01*
X152225295Y-97445714D02*
X152320533Y-97445714D01*
X152320533Y-97445714D02*
X152463390Y-97493333D01*
X152463390Y-97493333D02*
X153034819Y-98064761D01*
X153034819Y-98064761D02*
X153034819Y-97445714D01*
X156054819Y-80961904D02*
X156864342Y-80961904D01*
X156864342Y-80961904D02*
X156959580Y-80914285D01*
X156959580Y-80914285D02*
X157007200Y-80866666D01*
X157007200Y-80866666D02*
X157054819Y-80771428D01*
X157054819Y-80771428D02*
X157054819Y-80580952D01*
X157054819Y-80580952D02*
X157007200Y-80485714D01*
X157007200Y-80485714D02*
X156959580Y-80438095D01*
X156959580Y-80438095D02*
X156864342Y-80390476D01*
X156864342Y-80390476D02*
X156054819Y-80390476D01*
X156388152Y-79485714D02*
X157054819Y-79485714D01*
X156007200Y-79723809D02*
X156721485Y-79961904D01*
X156721485Y-79961904D02*
X156721485Y-79342857D01*
X127249580Y-88066666D02*
X127297200Y-88114285D01*
X127297200Y-88114285D02*
X127344819Y-88257142D01*
X127344819Y-88257142D02*
X127344819Y-88352380D01*
X127344819Y-88352380D02*
X127297200Y-88495237D01*
X127297200Y-88495237D02*
X127201961Y-88590475D01*
X127201961Y-88590475D02*
X127106723Y-88638094D01*
X127106723Y-88638094D02*
X126916247Y-88685713D01*
X126916247Y-88685713D02*
X126773390Y-88685713D01*
X126773390Y-88685713D02*
X126582914Y-88638094D01*
X126582914Y-88638094D02*
X126487676Y-88590475D01*
X126487676Y-88590475D02*
X126392438Y-88495237D01*
X126392438Y-88495237D02*
X126344819Y-88352380D01*
X126344819Y-88352380D02*
X126344819Y-88257142D01*
X126344819Y-88257142D02*
X126392438Y-88114285D01*
X126392438Y-88114285D02*
X126440057Y-88066666D01*
X126344819Y-87161904D02*
X126344819Y-87638094D01*
X126344819Y-87638094D02*
X126821009Y-87685713D01*
X126821009Y-87685713D02*
X126773390Y-87638094D01*
X126773390Y-87638094D02*
X126725771Y-87542856D01*
X126725771Y-87542856D02*
X126725771Y-87304761D01*
X126725771Y-87304761D02*
X126773390Y-87209523D01*
X126773390Y-87209523D02*
X126821009Y-87161904D01*
X126821009Y-87161904D02*
X126916247Y-87114285D01*
X126916247Y-87114285D02*
X127154342Y-87114285D01*
X127154342Y-87114285D02*
X127249580Y-87161904D01*
X127249580Y-87161904D02*
X127297200Y-87209523D01*
X127297200Y-87209523D02*
X127344819Y-87304761D01*
X127344819Y-87304761D02*
X127344819Y-87542856D01*
X127344819Y-87542856D02*
X127297200Y-87638094D01*
X127297200Y-87638094D02*
X127249580Y-87685713D01*
X174233333Y-68969104D02*
X174709523Y-68969104D01*
X174138095Y-69254819D02*
X174471428Y-68254819D01*
X174471428Y-68254819D02*
X174804761Y-69254819D01*
X175138095Y-68731009D02*
X175471428Y-68731009D01*
X175614285Y-69254819D02*
X175138095Y-69254819D01*
X175138095Y-69254819D02*
X175138095Y-68254819D01*
X175138095Y-68254819D02*
X175614285Y-68254819D01*
X175995238Y-68350057D02*
X176042857Y-68302438D01*
X176042857Y-68302438D02*
X176138095Y-68254819D01*
X176138095Y-68254819D02*
X176376190Y-68254819D01*
X176376190Y-68254819D02*
X176471428Y-68302438D01*
X176471428Y-68302438D02*
X176519047Y-68350057D01*
X176519047Y-68350057D02*
X176566666Y-68445295D01*
X176566666Y-68445295D02*
X176566666Y-68540533D01*
X176566666Y-68540533D02*
X176519047Y-68683390D01*
X176519047Y-68683390D02*
X175947619Y-69254819D01*
X175947619Y-69254819D02*
X176566666Y-69254819D01*
X154390476Y-118054819D02*
X154390476Y-118769104D01*
X154390476Y-118769104D02*
X154342857Y-118911961D01*
X154342857Y-118911961D02*
X154247619Y-119007200D01*
X154247619Y-119007200D02*
X154104762Y-119054819D01*
X154104762Y-119054819D02*
X154009524Y-119054819D01*
X155390476Y-119054819D02*
X154819048Y-119054819D01*
X155104762Y-119054819D02*
X155104762Y-118054819D01*
X155104762Y-118054819D02*
X155009524Y-118197676D01*
X155009524Y-118197676D02*
X154914286Y-118292914D01*
X154914286Y-118292914D02*
X154819048Y-118340533D01*
X155866667Y-119054819D02*
X156057143Y-119054819D01*
X156057143Y-119054819D02*
X156152381Y-119007200D01*
X156152381Y-119007200D02*
X156200000Y-118959580D01*
X156200000Y-118959580D02*
X156295238Y-118816723D01*
X156295238Y-118816723D02*
X156342857Y-118626247D01*
X156342857Y-118626247D02*
X156342857Y-118245295D01*
X156342857Y-118245295D02*
X156295238Y-118150057D01*
X156295238Y-118150057D02*
X156247619Y-118102438D01*
X156247619Y-118102438D02*
X156152381Y-118054819D01*
X156152381Y-118054819D02*
X155961905Y-118054819D01*
X155961905Y-118054819D02*
X155866667Y-118102438D01*
X155866667Y-118102438D02*
X155819048Y-118150057D01*
X155819048Y-118150057D02*
X155771429Y-118245295D01*
X155771429Y-118245295D02*
X155771429Y-118483390D01*
X155771429Y-118483390D02*
X155819048Y-118578628D01*
X155819048Y-118578628D02*
X155866667Y-118626247D01*
X155866667Y-118626247D02*
X155961905Y-118673866D01*
X155961905Y-118673866D02*
X156152381Y-118673866D01*
X156152381Y-118673866D02*
X156247619Y-118626247D01*
X156247619Y-118626247D02*
X156295238Y-118578628D01*
X156295238Y-118578628D02*
X156342857Y-118483390D01*
X136246666Y-71094819D02*
X136246666Y-71809104D01*
X136246666Y-71809104D02*
X136199047Y-71951961D01*
X136199047Y-71951961D02*
X136103809Y-72047200D01*
X136103809Y-72047200D02*
X135960952Y-72094819D01*
X135960952Y-72094819D02*
X135865714Y-72094819D01*
X137246666Y-72094819D02*
X136675238Y-72094819D01*
X136960952Y-72094819D02*
X136960952Y-71094819D01*
X136960952Y-71094819D02*
X136865714Y-71237676D01*
X136865714Y-71237676D02*
X136770476Y-71332914D01*
X136770476Y-71332914D02*
X136675238Y-71380533D01*
X114159580Y-114566666D02*
X114207200Y-114614285D01*
X114207200Y-114614285D02*
X114254819Y-114757142D01*
X114254819Y-114757142D02*
X114254819Y-114852380D01*
X114254819Y-114852380D02*
X114207200Y-114995237D01*
X114207200Y-114995237D02*
X114111961Y-115090475D01*
X114111961Y-115090475D02*
X114016723Y-115138094D01*
X114016723Y-115138094D02*
X113826247Y-115185713D01*
X113826247Y-115185713D02*
X113683390Y-115185713D01*
X113683390Y-115185713D02*
X113492914Y-115138094D01*
X113492914Y-115138094D02*
X113397676Y-115090475D01*
X113397676Y-115090475D02*
X113302438Y-114995237D01*
X113302438Y-114995237D02*
X113254819Y-114852380D01*
X113254819Y-114852380D02*
X113254819Y-114757142D01*
X113254819Y-114757142D02*
X113302438Y-114614285D01*
X113302438Y-114614285D02*
X113350057Y-114566666D01*
X113588152Y-113709523D02*
X114254819Y-113709523D01*
X113207200Y-113947618D02*
X113921485Y-114185713D01*
X113921485Y-114185713D02*
X113921485Y-113566666D01*
X173359580Y-88242857D02*
X173407200Y-88290476D01*
X173407200Y-88290476D02*
X173454819Y-88433333D01*
X173454819Y-88433333D02*
X173454819Y-88528571D01*
X173454819Y-88528571D02*
X173407200Y-88671428D01*
X173407200Y-88671428D02*
X173311961Y-88766666D01*
X173311961Y-88766666D02*
X173216723Y-88814285D01*
X173216723Y-88814285D02*
X173026247Y-88861904D01*
X173026247Y-88861904D02*
X172883390Y-88861904D01*
X172883390Y-88861904D02*
X172692914Y-88814285D01*
X172692914Y-88814285D02*
X172597676Y-88766666D01*
X172597676Y-88766666D02*
X172502438Y-88671428D01*
X172502438Y-88671428D02*
X172454819Y-88528571D01*
X172454819Y-88528571D02*
X172454819Y-88433333D01*
X172454819Y-88433333D02*
X172502438Y-88290476D01*
X172502438Y-88290476D02*
X172550057Y-88242857D01*
X173454819Y-87290476D02*
X173454819Y-87861904D01*
X173454819Y-87576190D02*
X172454819Y-87576190D01*
X172454819Y-87576190D02*
X172597676Y-87671428D01*
X172597676Y-87671428D02*
X172692914Y-87766666D01*
X172692914Y-87766666D02*
X172740533Y-87861904D01*
X173454819Y-86338095D02*
X173454819Y-86909523D01*
X173454819Y-86623809D02*
X172454819Y-86623809D01*
X172454819Y-86623809D02*
X172597676Y-86719047D01*
X172597676Y-86719047D02*
X172692914Y-86814285D01*
X172692914Y-86814285D02*
X172740533Y-86909523D01*
X125874819Y-86338094D02*
X124874819Y-86338094D01*
X124874819Y-86338094D02*
X124874819Y-86099999D01*
X124874819Y-86099999D02*
X124922438Y-85957142D01*
X124922438Y-85957142D02*
X125017676Y-85861904D01*
X125017676Y-85861904D02*
X125112914Y-85814285D01*
X125112914Y-85814285D02*
X125303390Y-85766666D01*
X125303390Y-85766666D02*
X125446247Y-85766666D01*
X125446247Y-85766666D02*
X125636723Y-85814285D01*
X125636723Y-85814285D02*
X125731961Y-85861904D01*
X125731961Y-85861904D02*
X125827200Y-85957142D01*
X125827200Y-85957142D02*
X125874819Y-86099999D01*
X125874819Y-86099999D02*
X125874819Y-86338094D01*
X125208152Y-84909523D02*
X125874819Y-84909523D01*
X124827200Y-85147618D02*
X125541485Y-85385713D01*
X125541485Y-85385713D02*
X125541485Y-84766666D01*
X146238095Y-103254819D02*
X146238095Y-104064342D01*
X146238095Y-104064342D02*
X146285714Y-104159580D01*
X146285714Y-104159580D02*
X146333333Y-104207200D01*
X146333333Y-104207200D02*
X146428571Y-104254819D01*
X146428571Y-104254819D02*
X146619047Y-104254819D01*
X146619047Y-104254819D02*
X146714285Y-104207200D01*
X146714285Y-104207200D02*
X146761904Y-104159580D01*
X146761904Y-104159580D02*
X146809523Y-104064342D01*
X146809523Y-104064342D02*
X146809523Y-103254819D01*
X147238095Y-103350057D02*
X147285714Y-103302438D01*
X147285714Y-103302438D02*
X147380952Y-103254819D01*
X147380952Y-103254819D02*
X147619047Y-103254819D01*
X147619047Y-103254819D02*
X147714285Y-103302438D01*
X147714285Y-103302438D02*
X147761904Y-103350057D01*
X147761904Y-103350057D02*
X147809523Y-103445295D01*
X147809523Y-103445295D02*
X147809523Y-103540533D01*
X147809523Y-103540533D02*
X147761904Y-103683390D01*
X147761904Y-103683390D02*
X147190476Y-104254819D01*
X147190476Y-104254819D02*
X147809523Y-104254819D01*
X110557142Y-101854819D02*
X110223809Y-101378628D01*
X109985714Y-101854819D02*
X109985714Y-100854819D01*
X109985714Y-100854819D02*
X110366666Y-100854819D01*
X110366666Y-100854819D02*
X110461904Y-100902438D01*
X110461904Y-100902438D02*
X110509523Y-100950057D01*
X110509523Y-100950057D02*
X110557142Y-101045295D01*
X110557142Y-101045295D02*
X110557142Y-101188152D01*
X110557142Y-101188152D02*
X110509523Y-101283390D01*
X110509523Y-101283390D02*
X110461904Y-101331009D01*
X110461904Y-101331009D02*
X110366666Y-101378628D01*
X110366666Y-101378628D02*
X109985714Y-101378628D01*
X110938095Y-100950057D02*
X110985714Y-100902438D01*
X110985714Y-100902438D02*
X111080952Y-100854819D01*
X111080952Y-100854819D02*
X111319047Y-100854819D01*
X111319047Y-100854819D02*
X111414285Y-100902438D01*
X111414285Y-100902438D02*
X111461904Y-100950057D01*
X111461904Y-100950057D02*
X111509523Y-101045295D01*
X111509523Y-101045295D02*
X111509523Y-101140533D01*
X111509523Y-101140533D02*
X111461904Y-101283390D01*
X111461904Y-101283390D02*
X110890476Y-101854819D01*
X110890476Y-101854819D02*
X111509523Y-101854819D01*
X111890476Y-100950057D02*
X111938095Y-100902438D01*
X111938095Y-100902438D02*
X112033333Y-100854819D01*
X112033333Y-100854819D02*
X112271428Y-100854819D01*
X112271428Y-100854819D02*
X112366666Y-100902438D01*
X112366666Y-100902438D02*
X112414285Y-100950057D01*
X112414285Y-100950057D02*
X112461904Y-101045295D01*
X112461904Y-101045295D02*
X112461904Y-101140533D01*
X112461904Y-101140533D02*
X112414285Y-101283390D01*
X112414285Y-101283390D02*
X111842857Y-101854819D01*
X111842857Y-101854819D02*
X112461904Y-101854819D01*
X126454819Y-102366666D02*
X125978628Y-102699999D01*
X126454819Y-102938094D02*
X125454819Y-102938094D01*
X125454819Y-102938094D02*
X125454819Y-102557142D01*
X125454819Y-102557142D02*
X125502438Y-102461904D01*
X125502438Y-102461904D02*
X125550057Y-102414285D01*
X125550057Y-102414285D02*
X125645295Y-102366666D01*
X125645295Y-102366666D02*
X125788152Y-102366666D01*
X125788152Y-102366666D02*
X125883390Y-102414285D01*
X125883390Y-102414285D02*
X125931009Y-102461904D01*
X125931009Y-102461904D02*
X125978628Y-102557142D01*
X125978628Y-102557142D02*
X125978628Y-102938094D01*
X125454819Y-101509523D02*
X125454819Y-101699999D01*
X125454819Y-101699999D02*
X125502438Y-101795237D01*
X125502438Y-101795237D02*
X125550057Y-101842856D01*
X125550057Y-101842856D02*
X125692914Y-101938094D01*
X125692914Y-101938094D02*
X125883390Y-101985713D01*
X125883390Y-101985713D02*
X126264342Y-101985713D01*
X126264342Y-101985713D02*
X126359580Y-101938094D01*
X126359580Y-101938094D02*
X126407200Y-101890475D01*
X126407200Y-101890475D02*
X126454819Y-101795237D01*
X126454819Y-101795237D02*
X126454819Y-101604761D01*
X126454819Y-101604761D02*
X126407200Y-101509523D01*
X126407200Y-101509523D02*
X126359580Y-101461904D01*
X126359580Y-101461904D02*
X126264342Y-101414285D01*
X126264342Y-101414285D02*
X126026247Y-101414285D01*
X126026247Y-101414285D02*
X125931009Y-101461904D01*
X125931009Y-101461904D02*
X125883390Y-101509523D01*
X125883390Y-101509523D02*
X125835771Y-101604761D01*
X125835771Y-101604761D02*
X125835771Y-101795237D01*
X125835771Y-101795237D02*
X125883390Y-101890475D01*
X125883390Y-101890475D02*
X125931009Y-101938094D01*
X125931009Y-101938094D02*
X126026247Y-101985713D01*
X114159580Y-112566666D02*
X114207200Y-112614285D01*
X114207200Y-112614285D02*
X114254819Y-112757142D01*
X114254819Y-112757142D02*
X114254819Y-112852380D01*
X114254819Y-112852380D02*
X114207200Y-112995237D01*
X114207200Y-112995237D02*
X114111961Y-113090475D01*
X114111961Y-113090475D02*
X114016723Y-113138094D01*
X114016723Y-113138094D02*
X113826247Y-113185713D01*
X113826247Y-113185713D02*
X113683390Y-113185713D01*
X113683390Y-113185713D02*
X113492914Y-113138094D01*
X113492914Y-113138094D02*
X113397676Y-113090475D01*
X113397676Y-113090475D02*
X113302438Y-112995237D01*
X113302438Y-112995237D02*
X113254819Y-112852380D01*
X113254819Y-112852380D02*
X113254819Y-112757142D01*
X113254819Y-112757142D02*
X113302438Y-112614285D01*
X113302438Y-112614285D02*
X113350057Y-112566666D01*
X113350057Y-112185713D02*
X113302438Y-112138094D01*
X113302438Y-112138094D02*
X113254819Y-112042856D01*
X113254819Y-112042856D02*
X113254819Y-111804761D01*
X113254819Y-111804761D02*
X113302438Y-111709523D01*
X113302438Y-111709523D02*
X113350057Y-111661904D01*
X113350057Y-111661904D02*
X113445295Y-111614285D01*
X113445295Y-111614285D02*
X113540533Y-111614285D01*
X113540533Y-111614285D02*
X113683390Y-111661904D01*
X113683390Y-111661904D02*
X114254819Y-112233332D01*
X114254819Y-112233332D02*
X114254819Y-111614285D01*
X146648095Y-73854819D02*
X146648095Y-74664342D01*
X146648095Y-74664342D02*
X146695714Y-74759580D01*
X146695714Y-74759580D02*
X146743333Y-74807200D01*
X146743333Y-74807200D02*
X146838571Y-74854819D01*
X146838571Y-74854819D02*
X147029047Y-74854819D01*
X147029047Y-74854819D02*
X147124285Y-74807200D01*
X147124285Y-74807200D02*
X147171904Y-74759580D01*
X147171904Y-74759580D02*
X147219523Y-74664342D01*
X147219523Y-74664342D02*
X147219523Y-73854819D01*
X148124285Y-73854819D02*
X147933809Y-73854819D01*
X147933809Y-73854819D02*
X147838571Y-73902438D01*
X147838571Y-73902438D02*
X147790952Y-73950057D01*
X147790952Y-73950057D02*
X147695714Y-74092914D01*
X147695714Y-74092914D02*
X147648095Y-74283390D01*
X147648095Y-74283390D02*
X147648095Y-74664342D01*
X147648095Y-74664342D02*
X147695714Y-74759580D01*
X147695714Y-74759580D02*
X147743333Y-74807200D01*
X147743333Y-74807200D02*
X147838571Y-74854819D01*
X147838571Y-74854819D02*
X148029047Y-74854819D01*
X148029047Y-74854819D02*
X148124285Y-74807200D01*
X148124285Y-74807200D02*
X148171904Y-74759580D01*
X148171904Y-74759580D02*
X148219523Y-74664342D01*
X148219523Y-74664342D02*
X148219523Y-74426247D01*
X148219523Y-74426247D02*
X148171904Y-74331009D01*
X148171904Y-74331009D02*
X148124285Y-74283390D01*
X148124285Y-74283390D02*
X148029047Y-74235771D01*
X148029047Y-74235771D02*
X147838571Y-74235771D01*
X147838571Y-74235771D02*
X147743333Y-74283390D01*
X147743333Y-74283390D02*
X147695714Y-74331009D01*
X147695714Y-74331009D02*
X147648095Y-74426247D01*
X170766666Y-65054819D02*
X170766666Y-65769104D01*
X170766666Y-65769104D02*
X170719047Y-65911961D01*
X170719047Y-65911961D02*
X170623809Y-66007200D01*
X170623809Y-66007200D02*
X170480952Y-66054819D01*
X170480952Y-66054819D02*
X170385714Y-66054819D01*
X171242857Y-66054819D02*
X171242857Y-65054819D01*
X171242857Y-65054819D02*
X171623809Y-65054819D01*
X171623809Y-65054819D02*
X171719047Y-65102438D01*
X171719047Y-65102438D02*
X171766666Y-65150057D01*
X171766666Y-65150057D02*
X171814285Y-65245295D01*
X171814285Y-65245295D02*
X171814285Y-65388152D01*
X171814285Y-65388152D02*
X171766666Y-65483390D01*
X171766666Y-65483390D02*
X171719047Y-65531009D01*
X171719047Y-65531009D02*
X171623809Y-65578628D01*
X171623809Y-65578628D02*
X171242857Y-65578628D01*
X172195238Y-65150057D02*
X172242857Y-65102438D01*
X172242857Y-65102438D02*
X172338095Y-65054819D01*
X172338095Y-65054819D02*
X172576190Y-65054819D01*
X172576190Y-65054819D02*
X172671428Y-65102438D01*
X172671428Y-65102438D02*
X172719047Y-65150057D01*
X172719047Y-65150057D02*
X172766666Y-65245295D01*
X172766666Y-65245295D02*
X172766666Y-65340533D01*
X172766666Y-65340533D02*
X172719047Y-65483390D01*
X172719047Y-65483390D02*
X172147619Y-66054819D01*
X172147619Y-66054819D02*
X172766666Y-66054819D01*
X118417200Y-122243332D02*
X118464819Y-122100475D01*
X118464819Y-122100475D02*
X118464819Y-121862380D01*
X118464819Y-121862380D02*
X118417200Y-121767142D01*
X118417200Y-121767142D02*
X118369580Y-121719523D01*
X118369580Y-121719523D02*
X118274342Y-121671904D01*
X118274342Y-121671904D02*
X118179104Y-121671904D01*
X118179104Y-121671904D02*
X118083866Y-121719523D01*
X118083866Y-121719523D02*
X118036247Y-121767142D01*
X118036247Y-121767142D02*
X117988628Y-121862380D01*
X117988628Y-121862380D02*
X117941009Y-122052856D01*
X117941009Y-122052856D02*
X117893390Y-122148094D01*
X117893390Y-122148094D02*
X117845771Y-122195713D01*
X117845771Y-122195713D02*
X117750533Y-122243332D01*
X117750533Y-122243332D02*
X117655295Y-122243332D01*
X117655295Y-122243332D02*
X117560057Y-122195713D01*
X117560057Y-122195713D02*
X117512438Y-122148094D01*
X117512438Y-122148094D02*
X117464819Y-122052856D01*
X117464819Y-122052856D02*
X117464819Y-121814761D01*
X117464819Y-121814761D02*
X117512438Y-121671904D01*
X117464819Y-121338570D02*
X118464819Y-121100475D01*
X118464819Y-121100475D02*
X117750533Y-120909999D01*
X117750533Y-120909999D02*
X118464819Y-120719523D01*
X118464819Y-120719523D02*
X117464819Y-120481428D01*
X118464819Y-119576666D02*
X118464819Y-120148094D01*
X118464819Y-119862380D02*
X117464819Y-119862380D01*
X117464819Y-119862380D02*
X117607676Y-119957618D01*
X117607676Y-119957618D02*
X117702914Y-120052856D01*
X117702914Y-120052856D02*
X117750533Y-120148094D01*
X131528628Y-108966190D02*
X132004819Y-108966190D01*
X131004819Y-109299523D02*
X131528628Y-108966190D01*
X131528628Y-108966190D02*
X131004819Y-108632857D01*
X132004819Y-107775714D02*
X132004819Y-108347142D01*
X132004819Y-108061428D02*
X131004819Y-108061428D01*
X131004819Y-108061428D02*
X131147676Y-108156666D01*
X131147676Y-108156666D02*
X131242914Y-108251904D01*
X131242914Y-108251904D02*
X131290533Y-108347142D01*
X114519047Y-96731009D02*
X114661904Y-96778628D01*
X114661904Y-96778628D02*
X114709523Y-96826247D01*
X114709523Y-96826247D02*
X114757142Y-96921485D01*
X114757142Y-96921485D02*
X114757142Y-97064342D01*
X114757142Y-97064342D02*
X114709523Y-97159580D01*
X114709523Y-97159580D02*
X114661904Y-97207200D01*
X114661904Y-97207200D02*
X114566666Y-97254819D01*
X114566666Y-97254819D02*
X114185714Y-97254819D01*
X114185714Y-97254819D02*
X114185714Y-96254819D01*
X114185714Y-96254819D02*
X114519047Y-96254819D01*
X114519047Y-96254819D02*
X114614285Y-96302438D01*
X114614285Y-96302438D02*
X114661904Y-96350057D01*
X114661904Y-96350057D02*
X114709523Y-96445295D01*
X114709523Y-96445295D02*
X114709523Y-96540533D01*
X114709523Y-96540533D02*
X114661904Y-96635771D01*
X114661904Y-96635771D02*
X114614285Y-96683390D01*
X114614285Y-96683390D02*
X114519047Y-96731009D01*
X114519047Y-96731009D02*
X114185714Y-96731009D01*
X115090476Y-96254819D02*
X115757142Y-96254819D01*
X115757142Y-96254819D02*
X115090476Y-97254819D01*
X115090476Y-97254819D02*
X115757142Y-97254819D01*
X116661904Y-97254819D02*
X116090476Y-97254819D01*
X116376190Y-97254819D02*
X116376190Y-96254819D01*
X116376190Y-96254819D02*
X116280952Y-96397676D01*
X116280952Y-96397676D02*
X116185714Y-96492914D01*
X116185714Y-96492914D02*
X116090476Y-96540533D01*
X129674819Y-74392857D02*
X129198628Y-74726190D01*
X129674819Y-74964285D02*
X128674819Y-74964285D01*
X128674819Y-74964285D02*
X128674819Y-74583333D01*
X128674819Y-74583333D02*
X128722438Y-74488095D01*
X128722438Y-74488095D02*
X128770057Y-74440476D01*
X128770057Y-74440476D02*
X128865295Y-74392857D01*
X128865295Y-74392857D02*
X129008152Y-74392857D01*
X129008152Y-74392857D02*
X129103390Y-74440476D01*
X129103390Y-74440476D02*
X129151009Y-74488095D01*
X129151009Y-74488095D02*
X129198628Y-74583333D01*
X129198628Y-74583333D02*
X129198628Y-74964285D01*
X128770057Y-74011904D02*
X128722438Y-73964285D01*
X128722438Y-73964285D02*
X128674819Y-73869047D01*
X128674819Y-73869047D02*
X128674819Y-73630952D01*
X128674819Y-73630952D02*
X128722438Y-73535714D01*
X128722438Y-73535714D02*
X128770057Y-73488095D01*
X128770057Y-73488095D02*
X128865295Y-73440476D01*
X128865295Y-73440476D02*
X128960533Y-73440476D01*
X128960533Y-73440476D02*
X129103390Y-73488095D01*
X129103390Y-73488095D02*
X129674819Y-74059523D01*
X129674819Y-74059523D02*
X129674819Y-73440476D01*
X128674819Y-73107142D02*
X128674819Y-72440476D01*
X128674819Y-72440476D02*
X129674819Y-72869047D01*
X170366666Y-67714819D02*
X170366666Y-68429104D01*
X170366666Y-68429104D02*
X170319047Y-68571961D01*
X170319047Y-68571961D02*
X170223809Y-68667200D01*
X170223809Y-68667200D02*
X170080952Y-68714819D01*
X170080952Y-68714819D02*
X169985714Y-68714819D01*
X170842857Y-68714819D02*
X170842857Y-67714819D01*
X170842857Y-67714819D02*
X171223809Y-67714819D01*
X171223809Y-67714819D02*
X171319047Y-67762438D01*
X171319047Y-67762438D02*
X171366666Y-67810057D01*
X171366666Y-67810057D02*
X171414285Y-67905295D01*
X171414285Y-67905295D02*
X171414285Y-68048152D01*
X171414285Y-68048152D02*
X171366666Y-68143390D01*
X171366666Y-68143390D02*
X171319047Y-68191009D01*
X171319047Y-68191009D02*
X171223809Y-68238628D01*
X171223809Y-68238628D02*
X170842857Y-68238628D01*
X171747619Y-67714819D02*
X172366666Y-67714819D01*
X172366666Y-67714819D02*
X172033333Y-68095771D01*
X172033333Y-68095771D02*
X172176190Y-68095771D01*
X172176190Y-68095771D02*
X172271428Y-68143390D01*
X172271428Y-68143390D02*
X172319047Y-68191009D01*
X172319047Y-68191009D02*
X172366666Y-68286247D01*
X172366666Y-68286247D02*
X172366666Y-68524342D01*
X172366666Y-68524342D02*
X172319047Y-68619580D01*
X172319047Y-68619580D02*
X172271428Y-68667200D01*
X172271428Y-68667200D02*
X172176190Y-68714819D01*
X172176190Y-68714819D02*
X171890476Y-68714819D01*
X171890476Y-68714819D02*
X171795238Y-68667200D01*
X171795238Y-68667200D02*
X171747619Y-68619580D01*
X151233333Y-95839580D02*
X151185714Y-95887200D01*
X151185714Y-95887200D02*
X151042857Y-95934819D01*
X151042857Y-95934819D02*
X150947619Y-95934819D01*
X150947619Y-95934819D02*
X150804762Y-95887200D01*
X150804762Y-95887200D02*
X150709524Y-95791961D01*
X150709524Y-95791961D02*
X150661905Y-95696723D01*
X150661905Y-95696723D02*
X150614286Y-95506247D01*
X150614286Y-95506247D02*
X150614286Y-95363390D01*
X150614286Y-95363390D02*
X150661905Y-95172914D01*
X150661905Y-95172914D02*
X150709524Y-95077676D01*
X150709524Y-95077676D02*
X150804762Y-94982438D01*
X150804762Y-94982438D02*
X150947619Y-94934819D01*
X150947619Y-94934819D02*
X151042857Y-94934819D01*
X151042857Y-94934819D02*
X151185714Y-94982438D01*
X151185714Y-94982438D02*
X151233333Y-95030057D01*
X151804762Y-95363390D02*
X151709524Y-95315771D01*
X151709524Y-95315771D02*
X151661905Y-95268152D01*
X151661905Y-95268152D02*
X151614286Y-95172914D01*
X151614286Y-95172914D02*
X151614286Y-95125295D01*
X151614286Y-95125295D02*
X151661905Y-95030057D01*
X151661905Y-95030057D02*
X151709524Y-94982438D01*
X151709524Y-94982438D02*
X151804762Y-94934819D01*
X151804762Y-94934819D02*
X151995238Y-94934819D01*
X151995238Y-94934819D02*
X152090476Y-94982438D01*
X152090476Y-94982438D02*
X152138095Y-95030057D01*
X152138095Y-95030057D02*
X152185714Y-95125295D01*
X152185714Y-95125295D02*
X152185714Y-95172914D01*
X152185714Y-95172914D02*
X152138095Y-95268152D01*
X152138095Y-95268152D02*
X152090476Y-95315771D01*
X152090476Y-95315771D02*
X151995238Y-95363390D01*
X151995238Y-95363390D02*
X151804762Y-95363390D01*
X151804762Y-95363390D02*
X151709524Y-95411009D01*
X151709524Y-95411009D02*
X151661905Y-95458628D01*
X151661905Y-95458628D02*
X151614286Y-95553866D01*
X151614286Y-95553866D02*
X151614286Y-95744342D01*
X151614286Y-95744342D02*
X151661905Y-95839580D01*
X151661905Y-95839580D02*
X151709524Y-95887200D01*
X151709524Y-95887200D02*
X151804762Y-95934819D01*
X151804762Y-95934819D02*
X151995238Y-95934819D01*
X151995238Y-95934819D02*
X152090476Y-95887200D01*
X152090476Y-95887200D02*
X152138095Y-95839580D01*
X152138095Y-95839580D02*
X152185714Y-95744342D01*
X152185714Y-95744342D02*
X152185714Y-95553866D01*
X152185714Y-95553866D02*
X152138095Y-95458628D01*
X152138095Y-95458628D02*
X152090476Y-95411009D01*
X152090476Y-95411009D02*
X151995238Y-95363390D01*
X123861905Y-83414819D02*
X123861905Y-82414819D01*
X123861905Y-82414819D02*
X124100000Y-82414819D01*
X124100000Y-82414819D02*
X124242857Y-82462438D01*
X124242857Y-82462438D02*
X124338095Y-82557676D01*
X124338095Y-82557676D02*
X124385714Y-82652914D01*
X124385714Y-82652914D02*
X124433333Y-82843390D01*
X124433333Y-82843390D02*
X124433333Y-82986247D01*
X124433333Y-82986247D02*
X124385714Y-83176723D01*
X124385714Y-83176723D02*
X124338095Y-83271961D01*
X124338095Y-83271961D02*
X124242857Y-83367200D01*
X124242857Y-83367200D02*
X124100000Y-83414819D01*
X124100000Y-83414819D02*
X123861905Y-83414819D01*
X125290476Y-82414819D02*
X125100000Y-82414819D01*
X125100000Y-82414819D02*
X125004762Y-82462438D01*
X125004762Y-82462438D02*
X124957143Y-82510057D01*
X124957143Y-82510057D02*
X124861905Y-82652914D01*
X124861905Y-82652914D02*
X124814286Y-82843390D01*
X124814286Y-82843390D02*
X124814286Y-83224342D01*
X124814286Y-83224342D02*
X124861905Y-83319580D01*
X124861905Y-83319580D02*
X124909524Y-83367200D01*
X124909524Y-83367200D02*
X125004762Y-83414819D01*
X125004762Y-83414819D02*
X125195238Y-83414819D01*
X125195238Y-83414819D02*
X125290476Y-83367200D01*
X125290476Y-83367200D02*
X125338095Y-83319580D01*
X125338095Y-83319580D02*
X125385714Y-83224342D01*
X125385714Y-83224342D02*
X125385714Y-82986247D01*
X125385714Y-82986247D02*
X125338095Y-82891009D01*
X125338095Y-82891009D02*
X125290476Y-82843390D01*
X125290476Y-82843390D02*
X125195238Y-82795771D01*
X125195238Y-82795771D02*
X125004762Y-82795771D01*
X125004762Y-82795771D02*
X124909524Y-82843390D01*
X124909524Y-82843390D02*
X124861905Y-82891009D01*
X124861905Y-82891009D02*
X124814286Y-82986247D01*
X151957142Y-87104819D02*
X151623809Y-86628628D01*
X151385714Y-87104819D02*
X151385714Y-86104819D01*
X151385714Y-86104819D02*
X151766666Y-86104819D01*
X151766666Y-86104819D02*
X151861904Y-86152438D01*
X151861904Y-86152438D02*
X151909523Y-86200057D01*
X151909523Y-86200057D02*
X151957142Y-86295295D01*
X151957142Y-86295295D02*
X151957142Y-86438152D01*
X151957142Y-86438152D02*
X151909523Y-86533390D01*
X151909523Y-86533390D02*
X151861904Y-86581009D01*
X151861904Y-86581009D02*
X151766666Y-86628628D01*
X151766666Y-86628628D02*
X151385714Y-86628628D01*
X152909523Y-87104819D02*
X152338095Y-87104819D01*
X152623809Y-87104819D02*
X152623809Y-86104819D01*
X152623809Y-86104819D02*
X152528571Y-86247676D01*
X152528571Y-86247676D02*
X152433333Y-86342914D01*
X152433333Y-86342914D02*
X152338095Y-86390533D01*
X153528571Y-86104819D02*
X153623809Y-86104819D01*
X153623809Y-86104819D02*
X153719047Y-86152438D01*
X153719047Y-86152438D02*
X153766666Y-86200057D01*
X153766666Y-86200057D02*
X153814285Y-86295295D01*
X153814285Y-86295295D02*
X153861904Y-86485771D01*
X153861904Y-86485771D02*
X153861904Y-86723866D01*
X153861904Y-86723866D02*
X153814285Y-86914342D01*
X153814285Y-86914342D02*
X153766666Y-87009580D01*
X153766666Y-87009580D02*
X153719047Y-87057200D01*
X153719047Y-87057200D02*
X153623809Y-87104819D01*
X153623809Y-87104819D02*
X153528571Y-87104819D01*
X153528571Y-87104819D02*
X153433333Y-87057200D01*
X153433333Y-87057200D02*
X153385714Y-87009580D01*
X153385714Y-87009580D02*
X153338095Y-86914342D01*
X153338095Y-86914342D02*
X153290476Y-86723866D01*
X153290476Y-86723866D02*
X153290476Y-86485771D01*
X153290476Y-86485771D02*
X153338095Y-86295295D01*
X153338095Y-86295295D02*
X153385714Y-86200057D01*
X153385714Y-86200057D02*
X153433333Y-86152438D01*
X153433333Y-86152438D02*
X153528571Y-86104819D01*
X136370057Y-74635238D02*
X136322438Y-74730476D01*
X136322438Y-74730476D02*
X136227200Y-74825714D01*
X136227200Y-74825714D02*
X136084342Y-74968571D01*
X136084342Y-74968571D02*
X136036723Y-75063809D01*
X136036723Y-75063809D02*
X136036723Y-75159047D01*
X136274819Y-75111428D02*
X136227200Y-75206666D01*
X136227200Y-75206666D02*
X136131961Y-75301904D01*
X136131961Y-75301904D02*
X135941485Y-75349523D01*
X135941485Y-75349523D02*
X135608152Y-75349523D01*
X135608152Y-75349523D02*
X135417676Y-75301904D01*
X135417676Y-75301904D02*
X135322438Y-75206666D01*
X135322438Y-75206666D02*
X135274819Y-75111428D01*
X135274819Y-75111428D02*
X135274819Y-74920952D01*
X135274819Y-74920952D02*
X135322438Y-74825714D01*
X135322438Y-74825714D02*
X135417676Y-74730476D01*
X135417676Y-74730476D02*
X135608152Y-74682857D01*
X135608152Y-74682857D02*
X135941485Y-74682857D01*
X135941485Y-74682857D02*
X136131961Y-74730476D01*
X136131961Y-74730476D02*
X136227200Y-74825714D01*
X136227200Y-74825714D02*
X136274819Y-74920952D01*
X136274819Y-74920952D02*
X136274819Y-75111428D01*
X135274819Y-73778095D02*
X135274819Y-74254285D01*
X135274819Y-74254285D02*
X135751009Y-74301904D01*
X135751009Y-74301904D02*
X135703390Y-74254285D01*
X135703390Y-74254285D02*
X135655771Y-74159047D01*
X135655771Y-74159047D02*
X135655771Y-73920952D01*
X135655771Y-73920952D02*
X135703390Y-73825714D01*
X135703390Y-73825714D02*
X135751009Y-73778095D01*
X135751009Y-73778095D02*
X135846247Y-73730476D01*
X135846247Y-73730476D02*
X136084342Y-73730476D01*
X136084342Y-73730476D02*
X136179580Y-73778095D01*
X136179580Y-73778095D02*
X136227200Y-73825714D01*
X136227200Y-73825714D02*
X136274819Y-73920952D01*
X136274819Y-73920952D02*
X136274819Y-74159047D01*
X136274819Y-74159047D02*
X136227200Y-74254285D01*
X136227200Y-74254285D02*
X136179580Y-74301904D01*
X129254819Y-96766666D02*
X128778628Y-97099999D01*
X129254819Y-97338094D02*
X128254819Y-97338094D01*
X128254819Y-97338094D02*
X128254819Y-96957142D01*
X128254819Y-96957142D02*
X128302438Y-96861904D01*
X128302438Y-96861904D02*
X128350057Y-96814285D01*
X128350057Y-96814285D02*
X128445295Y-96766666D01*
X128445295Y-96766666D02*
X128588152Y-96766666D01*
X128588152Y-96766666D02*
X128683390Y-96814285D01*
X128683390Y-96814285D02*
X128731009Y-96861904D01*
X128731009Y-96861904D02*
X128778628Y-96957142D01*
X128778628Y-96957142D02*
X128778628Y-97338094D01*
X128683390Y-96195237D02*
X128635771Y-96290475D01*
X128635771Y-96290475D02*
X128588152Y-96338094D01*
X128588152Y-96338094D02*
X128492914Y-96385713D01*
X128492914Y-96385713D02*
X128445295Y-96385713D01*
X128445295Y-96385713D02*
X128350057Y-96338094D01*
X128350057Y-96338094D02*
X128302438Y-96290475D01*
X128302438Y-96290475D02*
X128254819Y-96195237D01*
X128254819Y-96195237D02*
X128254819Y-96004761D01*
X128254819Y-96004761D02*
X128302438Y-95909523D01*
X128302438Y-95909523D02*
X128350057Y-95861904D01*
X128350057Y-95861904D02*
X128445295Y-95814285D01*
X128445295Y-95814285D02*
X128492914Y-95814285D01*
X128492914Y-95814285D02*
X128588152Y-95861904D01*
X128588152Y-95861904D02*
X128635771Y-95909523D01*
X128635771Y-95909523D02*
X128683390Y-96004761D01*
X128683390Y-96004761D02*
X128683390Y-96195237D01*
X128683390Y-96195237D02*
X128731009Y-96290475D01*
X128731009Y-96290475D02*
X128778628Y-96338094D01*
X128778628Y-96338094D02*
X128873866Y-96385713D01*
X128873866Y-96385713D02*
X129064342Y-96385713D01*
X129064342Y-96385713D02*
X129159580Y-96338094D01*
X129159580Y-96338094D02*
X129207200Y-96290475D01*
X129207200Y-96290475D02*
X129254819Y-96195237D01*
X129254819Y-96195237D02*
X129254819Y-96004761D01*
X129254819Y-96004761D02*
X129207200Y-95909523D01*
X129207200Y-95909523D02*
X129159580Y-95861904D01*
X129159580Y-95861904D02*
X129064342Y-95814285D01*
X129064342Y-95814285D02*
X128873866Y-95814285D01*
X128873866Y-95814285D02*
X128778628Y-95861904D01*
X128778628Y-95861904D02*
X128731009Y-95909523D01*
X128731009Y-95909523D02*
X128683390Y-96004761D01*
X163104761Y-104350057D02*
X163009523Y-104302438D01*
X163009523Y-104302438D02*
X162914285Y-104207200D01*
X162914285Y-104207200D02*
X162771428Y-104064342D01*
X162771428Y-104064342D02*
X162676190Y-104016723D01*
X162676190Y-104016723D02*
X162580952Y-104016723D01*
X162628571Y-104254819D02*
X162533333Y-104207200D01*
X162533333Y-104207200D02*
X162438095Y-104111961D01*
X162438095Y-104111961D02*
X162390476Y-103921485D01*
X162390476Y-103921485D02*
X162390476Y-103588152D01*
X162390476Y-103588152D02*
X162438095Y-103397676D01*
X162438095Y-103397676D02*
X162533333Y-103302438D01*
X162533333Y-103302438D02*
X162628571Y-103254819D01*
X162628571Y-103254819D02*
X162819047Y-103254819D01*
X162819047Y-103254819D02*
X162914285Y-103302438D01*
X162914285Y-103302438D02*
X163009523Y-103397676D01*
X163009523Y-103397676D02*
X163057142Y-103588152D01*
X163057142Y-103588152D02*
X163057142Y-103921485D01*
X163057142Y-103921485D02*
X163009523Y-104111961D01*
X163009523Y-104111961D02*
X162914285Y-104207200D01*
X162914285Y-104207200D02*
X162819047Y-104254819D01*
X162819047Y-104254819D02*
X162628571Y-104254819D01*
X163914285Y-103588152D02*
X163914285Y-104254819D01*
X163676190Y-103207200D02*
X163438095Y-103921485D01*
X163438095Y-103921485D02*
X164057142Y-103921485D01*
X163054819Y-72642857D02*
X162578628Y-72976190D01*
X163054819Y-73214285D02*
X162054819Y-73214285D01*
X162054819Y-73214285D02*
X162054819Y-72833333D01*
X162054819Y-72833333D02*
X162102438Y-72738095D01*
X162102438Y-72738095D02*
X162150057Y-72690476D01*
X162150057Y-72690476D02*
X162245295Y-72642857D01*
X162245295Y-72642857D02*
X162388152Y-72642857D01*
X162388152Y-72642857D02*
X162483390Y-72690476D01*
X162483390Y-72690476D02*
X162531009Y-72738095D01*
X162531009Y-72738095D02*
X162578628Y-72833333D01*
X162578628Y-72833333D02*
X162578628Y-73214285D01*
X163054819Y-71690476D02*
X163054819Y-72261904D01*
X163054819Y-71976190D02*
X162054819Y-71976190D01*
X162054819Y-71976190D02*
X162197676Y-72071428D01*
X162197676Y-72071428D02*
X162292914Y-72166666D01*
X162292914Y-72166666D02*
X162340533Y-72261904D01*
X162388152Y-70833333D02*
X163054819Y-70833333D01*
X162007200Y-71071428D02*
X162721485Y-71309523D01*
X162721485Y-71309523D02*
X162721485Y-70690476D01*
X131159580Y-96766666D02*
X131207200Y-96814285D01*
X131207200Y-96814285D02*
X131254819Y-96957142D01*
X131254819Y-96957142D02*
X131254819Y-97052380D01*
X131254819Y-97052380D02*
X131207200Y-97195237D01*
X131207200Y-97195237D02*
X131111961Y-97290475D01*
X131111961Y-97290475D02*
X131016723Y-97338094D01*
X131016723Y-97338094D02*
X130826247Y-97385713D01*
X130826247Y-97385713D02*
X130683390Y-97385713D01*
X130683390Y-97385713D02*
X130492914Y-97338094D01*
X130492914Y-97338094D02*
X130397676Y-97290475D01*
X130397676Y-97290475D02*
X130302438Y-97195237D01*
X130302438Y-97195237D02*
X130254819Y-97052380D01*
X130254819Y-97052380D02*
X130254819Y-96957142D01*
X130254819Y-96957142D02*
X130302438Y-96814285D01*
X130302438Y-96814285D02*
X130350057Y-96766666D01*
X131254819Y-96290475D02*
X131254819Y-96099999D01*
X131254819Y-96099999D02*
X131207200Y-96004761D01*
X131207200Y-96004761D02*
X131159580Y-95957142D01*
X131159580Y-95957142D02*
X131016723Y-95861904D01*
X131016723Y-95861904D02*
X130826247Y-95814285D01*
X130826247Y-95814285D02*
X130445295Y-95814285D01*
X130445295Y-95814285D02*
X130350057Y-95861904D01*
X130350057Y-95861904D02*
X130302438Y-95909523D01*
X130302438Y-95909523D02*
X130254819Y-96004761D01*
X130254819Y-96004761D02*
X130254819Y-96195237D01*
X130254819Y-96195237D02*
X130302438Y-96290475D01*
X130302438Y-96290475D02*
X130350057Y-96338094D01*
X130350057Y-96338094D02*
X130445295Y-96385713D01*
X130445295Y-96385713D02*
X130683390Y-96385713D01*
X130683390Y-96385713D02*
X130778628Y-96338094D01*
X130778628Y-96338094D02*
X130826247Y-96290475D01*
X130826247Y-96290475D02*
X130873866Y-96195237D01*
X130873866Y-96195237D02*
X130873866Y-96004761D01*
X130873866Y-96004761D02*
X130826247Y-95909523D01*
X130826247Y-95909523D02*
X130778628Y-95861904D01*
X130778628Y-95861904D02*
X130683390Y-95814285D01*
X153866666Y-71034819D02*
X153866666Y-71749104D01*
X153866666Y-71749104D02*
X153819047Y-71891961D01*
X153819047Y-71891961D02*
X153723809Y-71987200D01*
X153723809Y-71987200D02*
X153580952Y-72034819D01*
X153580952Y-72034819D02*
X153485714Y-72034819D01*
X154771428Y-71034819D02*
X154580952Y-71034819D01*
X154580952Y-71034819D02*
X154485714Y-71082438D01*
X154485714Y-71082438D02*
X154438095Y-71130057D01*
X154438095Y-71130057D02*
X154342857Y-71272914D01*
X154342857Y-71272914D02*
X154295238Y-71463390D01*
X154295238Y-71463390D02*
X154295238Y-71844342D01*
X154295238Y-71844342D02*
X154342857Y-71939580D01*
X154342857Y-71939580D02*
X154390476Y-71987200D01*
X154390476Y-71987200D02*
X154485714Y-72034819D01*
X154485714Y-72034819D02*
X154676190Y-72034819D01*
X154676190Y-72034819D02*
X154771428Y-71987200D01*
X154771428Y-71987200D02*
X154819047Y-71939580D01*
X154819047Y-71939580D02*
X154866666Y-71844342D01*
X154866666Y-71844342D02*
X154866666Y-71606247D01*
X154866666Y-71606247D02*
X154819047Y-71511009D01*
X154819047Y-71511009D02*
X154771428Y-71463390D01*
X154771428Y-71463390D02*
X154676190Y-71415771D01*
X154676190Y-71415771D02*
X154485714Y-71415771D01*
X154485714Y-71415771D02*
X154390476Y-71463390D01*
X154390476Y-71463390D02*
X154342857Y-71511009D01*
X154342857Y-71511009D02*
X154295238Y-71606247D01*
X119710476Y-71044819D02*
X119710476Y-71759104D01*
X119710476Y-71759104D02*
X119662857Y-71901961D01*
X119662857Y-71901961D02*
X119567619Y-71997200D01*
X119567619Y-71997200D02*
X119424762Y-72044819D01*
X119424762Y-72044819D02*
X119329524Y-72044819D01*
X120710476Y-72044819D02*
X120139048Y-72044819D01*
X120424762Y-72044819D02*
X120424762Y-71044819D01*
X120424762Y-71044819D02*
X120329524Y-71187676D01*
X120329524Y-71187676D02*
X120234286Y-71282914D01*
X120234286Y-71282914D02*
X120139048Y-71330533D01*
X121043810Y-71044819D02*
X121662857Y-71044819D01*
X121662857Y-71044819D02*
X121329524Y-71425771D01*
X121329524Y-71425771D02*
X121472381Y-71425771D01*
X121472381Y-71425771D02*
X121567619Y-71473390D01*
X121567619Y-71473390D02*
X121615238Y-71521009D01*
X121615238Y-71521009D02*
X121662857Y-71616247D01*
X121662857Y-71616247D02*
X121662857Y-71854342D01*
X121662857Y-71854342D02*
X121615238Y-71949580D01*
X121615238Y-71949580D02*
X121567619Y-71997200D01*
X121567619Y-71997200D02*
X121472381Y-72044819D01*
X121472381Y-72044819D02*
X121186667Y-72044819D01*
X121186667Y-72044819D02*
X121091429Y-71997200D01*
X121091429Y-71997200D02*
X121043810Y-71949580D01*
X152443333Y-89114819D02*
X152110000Y-88638628D01*
X151871905Y-89114819D02*
X151871905Y-88114819D01*
X151871905Y-88114819D02*
X152252857Y-88114819D01*
X152252857Y-88114819D02*
X152348095Y-88162438D01*
X152348095Y-88162438D02*
X152395714Y-88210057D01*
X152395714Y-88210057D02*
X152443333Y-88305295D01*
X152443333Y-88305295D02*
X152443333Y-88448152D01*
X152443333Y-88448152D02*
X152395714Y-88543390D01*
X152395714Y-88543390D02*
X152348095Y-88591009D01*
X152348095Y-88591009D02*
X152252857Y-88638628D01*
X152252857Y-88638628D02*
X151871905Y-88638628D01*
X152919524Y-89114819D02*
X153110000Y-89114819D01*
X153110000Y-89114819D02*
X153205238Y-89067200D01*
X153205238Y-89067200D02*
X153252857Y-89019580D01*
X153252857Y-89019580D02*
X153348095Y-88876723D01*
X153348095Y-88876723D02*
X153395714Y-88686247D01*
X153395714Y-88686247D02*
X153395714Y-88305295D01*
X153395714Y-88305295D02*
X153348095Y-88210057D01*
X153348095Y-88210057D02*
X153300476Y-88162438D01*
X153300476Y-88162438D02*
X153205238Y-88114819D01*
X153205238Y-88114819D02*
X153014762Y-88114819D01*
X153014762Y-88114819D02*
X152919524Y-88162438D01*
X152919524Y-88162438D02*
X152871905Y-88210057D01*
X152871905Y-88210057D02*
X152824286Y-88305295D01*
X152824286Y-88305295D02*
X152824286Y-88543390D01*
X152824286Y-88543390D02*
X152871905Y-88638628D01*
X152871905Y-88638628D02*
X152919524Y-88686247D01*
X152919524Y-88686247D02*
X153014762Y-88733866D01*
X153014762Y-88733866D02*
X153205238Y-88733866D01*
X153205238Y-88733866D02*
X153300476Y-88686247D01*
X153300476Y-88686247D02*
X153348095Y-88638628D01*
X153348095Y-88638628D02*
X153395714Y-88543390D01*
X158157142Y-86359580D02*
X158109523Y-86407200D01*
X158109523Y-86407200D02*
X157966666Y-86454819D01*
X157966666Y-86454819D02*
X157871428Y-86454819D01*
X157871428Y-86454819D02*
X157728571Y-86407200D01*
X157728571Y-86407200D02*
X157633333Y-86311961D01*
X157633333Y-86311961D02*
X157585714Y-86216723D01*
X157585714Y-86216723D02*
X157538095Y-86026247D01*
X157538095Y-86026247D02*
X157538095Y-85883390D01*
X157538095Y-85883390D02*
X157585714Y-85692914D01*
X157585714Y-85692914D02*
X157633333Y-85597676D01*
X157633333Y-85597676D02*
X157728571Y-85502438D01*
X157728571Y-85502438D02*
X157871428Y-85454819D01*
X157871428Y-85454819D02*
X157966666Y-85454819D01*
X157966666Y-85454819D02*
X158109523Y-85502438D01*
X158109523Y-85502438D02*
X158157142Y-85550057D01*
X159109523Y-86454819D02*
X158538095Y-86454819D01*
X158823809Y-86454819D02*
X158823809Y-85454819D01*
X158823809Y-85454819D02*
X158728571Y-85597676D01*
X158728571Y-85597676D02*
X158633333Y-85692914D01*
X158633333Y-85692914D02*
X158538095Y-85740533D01*
X159442857Y-85454819D02*
X160061904Y-85454819D01*
X160061904Y-85454819D02*
X159728571Y-85835771D01*
X159728571Y-85835771D02*
X159871428Y-85835771D01*
X159871428Y-85835771D02*
X159966666Y-85883390D01*
X159966666Y-85883390D02*
X160014285Y-85931009D01*
X160014285Y-85931009D02*
X160061904Y-86026247D01*
X160061904Y-86026247D02*
X160061904Y-86264342D01*
X160061904Y-86264342D02*
X160014285Y-86359580D01*
X160014285Y-86359580D02*
X159966666Y-86407200D01*
X159966666Y-86407200D02*
X159871428Y-86454819D01*
X159871428Y-86454819D02*
X159585714Y-86454819D01*
X159585714Y-86454819D02*
X159490476Y-86407200D01*
X159490476Y-86407200D02*
X159442857Y-86359580D01*
X183713333Y-87254819D02*
X183237143Y-87254819D01*
X183237143Y-87254819D02*
X183237143Y-86254819D01*
X184570476Y-87254819D02*
X183999048Y-87254819D01*
X184284762Y-87254819D02*
X184284762Y-86254819D01*
X184284762Y-86254819D02*
X184189524Y-86397676D01*
X184189524Y-86397676D02*
X184094286Y-86492914D01*
X184094286Y-86492914D02*
X183999048Y-86540533D01*
X114254819Y-105442857D02*
X113778628Y-105776190D01*
X114254819Y-106014285D02*
X113254819Y-106014285D01*
X113254819Y-106014285D02*
X113254819Y-105633333D01*
X113254819Y-105633333D02*
X113302438Y-105538095D01*
X113302438Y-105538095D02*
X113350057Y-105490476D01*
X113350057Y-105490476D02*
X113445295Y-105442857D01*
X113445295Y-105442857D02*
X113588152Y-105442857D01*
X113588152Y-105442857D02*
X113683390Y-105490476D01*
X113683390Y-105490476D02*
X113731009Y-105538095D01*
X113731009Y-105538095D02*
X113778628Y-105633333D01*
X113778628Y-105633333D02*
X113778628Y-106014285D01*
X113350057Y-105061904D02*
X113302438Y-105014285D01*
X113302438Y-105014285D02*
X113254819Y-104919047D01*
X113254819Y-104919047D02*
X113254819Y-104680952D01*
X113254819Y-104680952D02*
X113302438Y-104585714D01*
X113302438Y-104585714D02*
X113350057Y-104538095D01*
X113350057Y-104538095D02*
X113445295Y-104490476D01*
X113445295Y-104490476D02*
X113540533Y-104490476D01*
X113540533Y-104490476D02*
X113683390Y-104538095D01*
X113683390Y-104538095D02*
X114254819Y-105109523D01*
X114254819Y-105109523D02*
X114254819Y-104490476D01*
X114254819Y-103538095D02*
X114254819Y-104109523D01*
X114254819Y-103823809D02*
X113254819Y-103823809D01*
X113254819Y-103823809D02*
X113397676Y-103919047D01*
X113397676Y-103919047D02*
X113492914Y-104014285D01*
X113492914Y-104014285D02*
X113540533Y-104109523D01*
X109054819Y-108138094D02*
X108054819Y-108138094D01*
X108054819Y-108138094D02*
X108054819Y-107899999D01*
X108054819Y-107899999D02*
X108102438Y-107757142D01*
X108102438Y-107757142D02*
X108197676Y-107661904D01*
X108197676Y-107661904D02*
X108292914Y-107614285D01*
X108292914Y-107614285D02*
X108483390Y-107566666D01*
X108483390Y-107566666D02*
X108626247Y-107566666D01*
X108626247Y-107566666D02*
X108816723Y-107614285D01*
X108816723Y-107614285D02*
X108911961Y-107661904D01*
X108911961Y-107661904D02*
X109007200Y-107757142D01*
X109007200Y-107757142D02*
X109054819Y-107899999D01*
X109054819Y-107899999D02*
X109054819Y-108138094D01*
X108054819Y-107233332D02*
X108054819Y-106566666D01*
X108054819Y-106566666D02*
X109054819Y-106995237D01*
D14*
%TO.C,J2*%
X111815000Y-91490000D02*
X111815000Y-91910000D01*
X109835000Y-91490000D02*
X111815000Y-91490000D01*
X107465000Y-91490000D02*
X107865000Y-91490000D01*
X112045000Y-93490000D02*
X112495000Y-93490000D01*
X112495000Y-93940000D02*
X112495000Y-93490000D01*
X111815000Y-99010000D02*
X111815000Y-98590000D01*
X109835000Y-99010000D02*
X111815000Y-99010000D01*
X107865000Y-99010000D02*
X107465000Y-99010000D01*
%TO.C,AE1*%
X178600000Y-71190000D02*
X179240000Y-71190000D01*
X180760000Y-71190000D02*
X180760000Y-70560000D01*
X181350000Y-73910000D02*
X178650000Y-73910000D01*
X181400000Y-71190000D02*
X180760000Y-71190000D01*
%TO.C,J21*%
X150500000Y-105480000D02*
X158240000Y-105480000D01*
X150500000Y-108080000D02*
X150500000Y-105480000D01*
X150500000Y-110680000D02*
X150500000Y-109350000D01*
X151830000Y-110680000D02*
X150500000Y-110680000D01*
X153100000Y-108080000D02*
X150500000Y-108080000D01*
X153100000Y-110680000D02*
X153100000Y-108080000D01*
X153100000Y-110680000D02*
X158240000Y-110680000D01*
X158240000Y-110680000D02*
X158240000Y-105480000D01*
%TO.C,U3*%
X170690000Y-74740000D02*
X180390000Y-74740000D01*
X170700000Y-85060000D02*
X180400000Y-85060000D01*
X170110000Y-74890000D02*
X169870000Y-74560000D01*
X170350000Y-74560000D01*
X170110000Y-74890000D01*
G36*
X170110000Y-74890000D02*
G01*
X169870000Y-74560000D01*
X170350000Y-74560000D01*
X170110000Y-74890000D01*
G37*
%TO.C,J16*%
X138780000Y-119580000D02*
X138780000Y-125800000D01*
X138780000Y-125800000D02*
X142500000Y-125800000D01*
X138980000Y-119780000D02*
X138980000Y-125600000D01*
X138980000Y-125600000D02*
X140740000Y-125600000D01*
X140740000Y-119780000D02*
X138980000Y-119780000D01*
X140740000Y-119780000D02*
X140740000Y-119580000D01*
X140740000Y-125600000D02*
X140740000Y-125800000D01*
X141440000Y-119580000D02*
X141440000Y-119780000D01*
X141440000Y-119780000D02*
X140740000Y-119780000D01*
X141440000Y-119780000D02*
X142300000Y-119780000D01*
X141440000Y-125600000D02*
X140740000Y-125600000D01*
X141440000Y-125600000D02*
X141440000Y-125800000D01*
X142300000Y-119780000D02*
X142300000Y-125600000D01*
X142300000Y-125600000D02*
X141440000Y-125600000D01*
X142500000Y-119580000D02*
X138780000Y-119580000D01*
X142500000Y-125800000D02*
X142500000Y-119580000D01*
X142800000Y-119280000D02*
X141550000Y-119280000D01*
X142800000Y-120530000D02*
X142800000Y-119280000D01*
%TO.C,C10*%
X183688748Y-76465000D02*
X184211252Y-76465000D01*
X183688748Y-77935000D02*
X184211252Y-77935000D01*
%TO.C,TP5*%
X183890000Y-115810000D02*
G75*
G02*
X181490000Y-115810000I-1200000J0D01*
G01*
X181490000Y-115810000D02*
G75*
G02*
X183890000Y-115810000I1200000J0D01*
G01*
%TO.C,Q3*%
X157865000Y-111935000D02*
X155915000Y-111935000D01*
X157865000Y-111935000D02*
X159815000Y-111935000D01*
X157865000Y-117055000D02*
X155915000Y-117055000D01*
X157865000Y-117055000D02*
X159815000Y-117055000D01*
X155165000Y-112030000D02*
X154925000Y-111700000D01*
X155405000Y-111700000D01*
X155165000Y-112030000D01*
G36*
X155165000Y-112030000D02*
G01*
X154925000Y-111700000D01*
X155405000Y-111700000D01*
X155165000Y-112030000D01*
G37*
%TO.C,R7*%
X129172936Y-93865000D02*
X129627064Y-93865000D01*
X129172936Y-95335000D02*
X129627064Y-95335000D01*
%TO.C,TP1*%
X183890000Y-103210000D02*
G75*
G02*
X181490000Y-103210000I-1200000J0D01*
G01*
X181490000Y-103210000D02*
G75*
G02*
X183890000Y-103210000I1200000J0D01*
G01*
%TO.C,J8*%
X144180000Y-69380000D02*
X144180000Y-70630000D01*
X144180000Y-70630000D02*
X145430000Y-70630000D01*
X144480000Y-64110000D02*
X144480000Y-70330000D01*
X144480000Y-70330000D02*
X148200000Y-70330000D01*
X144680000Y-64310000D02*
X145540000Y-64310000D01*
X144680000Y-70130000D02*
X144680000Y-64310000D01*
X145540000Y-64310000D02*
X145540000Y-64110000D01*
X145540000Y-64310000D02*
X146240000Y-64310000D01*
X145540000Y-70130000D02*
X144680000Y-70130000D01*
X145540000Y-70130000D02*
X146240000Y-70130000D01*
X145540000Y-70330000D02*
X145540000Y-70130000D01*
X146240000Y-64310000D02*
X146240000Y-64110000D01*
X146240000Y-70130000D02*
X146240000Y-70330000D01*
X146240000Y-70130000D02*
X148000000Y-70130000D01*
X148000000Y-64310000D02*
X146240000Y-64310000D01*
X148000000Y-70130000D02*
X148000000Y-64310000D01*
X148200000Y-64110000D02*
X144480000Y-64110000D01*
X148200000Y-70330000D02*
X148200000Y-64110000D01*
%TO.C,J3*%
X135245000Y-105635000D02*
X142985000Y-105635000D01*
X135245000Y-108235000D02*
X135245000Y-105635000D01*
X135245000Y-110835000D02*
X135245000Y-109505000D01*
X136575000Y-110835000D02*
X135245000Y-110835000D01*
X137845000Y-108235000D02*
X135245000Y-108235000D01*
X137845000Y-110835000D02*
X137845000Y-108235000D01*
X137845000Y-110835000D02*
X142985000Y-110835000D01*
X142985000Y-110835000D02*
X142985000Y-105635000D01*
%TO.C,J20*%
X181310000Y-94800000D02*
X181310000Y-96050000D01*
X181310000Y-96050000D02*
X182560000Y-96050000D01*
X181610000Y-88030000D02*
X181610000Y-95750000D01*
X181610000Y-95750000D02*
X185330000Y-95750000D01*
X181810000Y-88230000D02*
X182670000Y-88230000D01*
X181810000Y-95550000D02*
X181810000Y-88230000D01*
X182670000Y-88230000D02*
X182670000Y-88030000D01*
X182670000Y-88230000D02*
X183370000Y-88230000D01*
X182670000Y-95550000D02*
X181810000Y-95550000D01*
X182670000Y-95550000D02*
X183370000Y-95550000D01*
X182670000Y-95750000D02*
X182670000Y-95550000D01*
X183370000Y-88230000D02*
X183370000Y-88030000D01*
X183370000Y-95550000D02*
X183370000Y-95750000D01*
X183370000Y-95550000D02*
X185130000Y-95550000D01*
X185130000Y-88230000D02*
X183370000Y-88230000D01*
X185130000Y-95550000D02*
X185130000Y-88230000D01*
X185330000Y-88030000D02*
X181610000Y-88030000D01*
X185330000Y-95750000D02*
X185330000Y-88030000D01*
%TO.C,D2*%
X122315000Y-75885000D02*
X122315000Y-78155000D01*
X122315000Y-78155000D02*
X126200000Y-78155000D01*
X126200000Y-75885000D02*
X122315000Y-75885000D01*
%TO.C,R26*%
X173025000Y-110002064D02*
X173025000Y-109547936D01*
X174495000Y-110002064D02*
X174495000Y-109547936D01*
%TO.C,JP1*%
X166810000Y-71570000D02*
X166810000Y-70970000D01*
X167510000Y-70270000D02*
X168910000Y-70270000D01*
X168910000Y-72270000D02*
X167510000Y-72270000D01*
X169610000Y-70970000D02*
X169610000Y-71570000D01*
X166810000Y-70970000D02*
G75*
G02*
X167510000Y-70270000I699999J1D01*
G01*
X167510000Y-72270000D02*
G75*
G02*
X166810000Y-71570000I-1J699999D01*
G01*
X168910000Y-70270000D02*
G75*
G02*
X169610000Y-70970000I0J-700000D01*
G01*
X169610000Y-71570000D02*
G75*
G02*
X168910000Y-72270000I-700000J0D01*
G01*
%TO.C,C16*%
X152508748Y-82255000D02*
X153031252Y-82255000D01*
X152508748Y-83725000D02*
X153031252Y-83725000D01*
%TO.C,R1*%
X125227064Y-74065000D02*
X124772936Y-74065000D01*
X125227064Y-75535000D02*
X124772936Y-75535000D01*
%TO.C,C14*%
X166905000Y-80351252D02*
X166905000Y-79828748D01*
X168375000Y-80351252D02*
X168375000Y-79828748D01*
%TO.C,SW3*%
X124630000Y-121820000D02*
X124630000Y-125120000D01*
X124630000Y-125120000D02*
X124930000Y-125120000D01*
X124930000Y-121820000D02*
X124630000Y-121820000D01*
X127130000Y-121820000D02*
X127430000Y-121820000D01*
X127430000Y-121820000D02*
X127430000Y-125120000D01*
X127430000Y-125120000D02*
X127130000Y-125120000D01*
%TO.C,D1*%
X118350000Y-77240000D02*
X118350000Y-82750000D01*
X121650000Y-77240000D02*
X118350000Y-77240000D01*
X121650000Y-77240000D02*
X121650000Y-82750000D01*
%TO.C,SW2*%
X124630000Y-116660000D02*
X124630000Y-119960000D01*
X124630000Y-119960000D02*
X124930000Y-119960000D01*
X124930000Y-116660000D02*
X124630000Y-116660000D01*
X127130000Y-116660000D02*
X127430000Y-116660000D01*
X127430000Y-116660000D02*
X127430000Y-119960000D01*
X127430000Y-119960000D02*
X127130000Y-119960000D01*
%TO.C,R2*%
X120362936Y-100475000D02*
X120817064Y-100475000D01*
X120362936Y-101945000D02*
X120817064Y-101945000D01*
%TO.C,C15*%
X148578748Y-82245000D02*
X149101252Y-82245000D01*
X148578748Y-83715000D02*
X149101252Y-83715000D01*
%TO.C,R5*%
X122915000Y-113712936D02*
X122915000Y-114167064D01*
X124385000Y-113712936D02*
X124385000Y-114167064D01*
%TO.C,R19*%
X153065000Y-80227064D02*
X153065000Y-79772936D01*
X154535000Y-80227064D02*
X154535000Y-79772936D01*
%TO.C,R23*%
X132955000Y-73377064D02*
X132955000Y-72922936D01*
X134425000Y-73377064D02*
X134425000Y-72922936D01*
%TO.C,Q7*%
X136190000Y-76500000D02*
X136190000Y-77900000D01*
X138510000Y-76490000D02*
X138510000Y-77900000D01*
X138790000Y-76360000D02*
X138460000Y-76120000D01*
X138790000Y-75880000D01*
X138790000Y-76360000D01*
G36*
X138790000Y-76360000D02*
G01*
X138460000Y-76120000D01*
X138790000Y-75880000D01*
X138790000Y-76360000D01*
G37*
%TO.C,D3*%
X122665000Y-97615000D02*
X122665000Y-101500000D01*
X124935000Y-97615000D02*
X122665000Y-97615000D01*
X124935000Y-101500000D02*
X124935000Y-97615000D01*
%TO.C,R29*%
X128465000Y-81372936D02*
X128465000Y-81827064D01*
X129935000Y-81372936D02*
X129935000Y-81827064D01*
%TO.C,J23*%
X160470000Y-124440000D02*
X160470000Y-127100000D01*
X160470000Y-127100000D02*
X175830000Y-127100000D01*
X161420000Y-121502929D02*
X161420000Y-121957071D01*
X161420000Y-124042929D02*
X161420000Y-124440000D01*
X161420000Y-133100000D02*
X161420000Y-127100000D01*
X162180000Y-121502929D02*
X162180000Y-121957071D01*
X162180000Y-124042929D02*
X162180000Y-124440000D01*
X162180000Y-127100000D02*
X162180000Y-133100000D01*
X162180000Y-133100000D02*
X161420000Y-133100000D01*
X163070000Y-124440000D02*
X163070000Y-127100000D01*
X163960000Y-121502929D02*
X163960000Y-121957071D01*
X163960000Y-124042929D02*
X163960000Y-124440000D01*
X163960000Y-133100000D02*
X163960000Y-127100000D01*
X164720000Y-121502929D02*
X164720000Y-121957071D01*
X164720000Y-124042929D02*
X164720000Y-124440000D01*
X164720000Y-127100000D02*
X164720000Y-133100000D01*
X164720000Y-133100000D02*
X163960000Y-133100000D01*
X165610000Y-124440000D02*
X165610000Y-127100000D01*
X166500000Y-121502929D02*
X166500000Y-121957071D01*
X166500000Y-124042929D02*
X166500000Y-124440000D01*
X166500000Y-133100000D02*
X166500000Y-127100000D01*
X167260000Y-121502929D02*
X167260000Y-121957071D01*
X167260000Y-124042929D02*
X167260000Y-124440000D01*
X167260000Y-127100000D02*
X167260000Y-133100000D01*
X167260000Y-133100000D02*
X166500000Y-133100000D01*
X168150000Y-124440000D02*
X168150000Y-127100000D01*
X169040000Y-121502929D02*
X169040000Y-121957071D01*
X169040000Y-124042929D02*
X169040000Y-124440000D01*
X169040000Y-133100000D02*
X169040000Y-127100000D01*
X169800000Y-121502929D02*
X169800000Y-121957071D01*
X169800000Y-124042929D02*
X169800000Y-124440000D01*
X169800000Y-127100000D02*
X169800000Y-133100000D01*
X169800000Y-133100000D02*
X169040000Y-133100000D01*
X170690000Y-124440000D02*
X170690000Y-127100000D01*
X171580000Y-121502929D02*
X171580000Y-121957071D01*
X171580000Y-124042929D02*
X171580000Y-124440000D01*
X171580000Y-133100000D02*
X171580000Y-127100000D01*
X172340000Y-121502929D02*
X172340000Y-121957071D01*
X172340000Y-124042929D02*
X172340000Y-124440000D01*
X172340000Y-127100000D02*
X172340000Y-133100000D01*
X172340000Y-133100000D02*
X171580000Y-133100000D01*
X173230000Y-124440000D02*
X173230000Y-127100000D01*
X174120000Y-121570000D02*
X174120000Y-121957071D01*
X174120000Y-124042929D02*
X174120000Y-124440000D01*
X174120000Y-133100000D02*
X174120000Y-127100000D01*
X174220000Y-127100000D02*
X174220000Y-133100000D01*
X174340000Y-127100000D02*
X174340000Y-133100000D01*
X174460000Y-127100000D02*
X174460000Y-133100000D01*
X174500000Y-119190000D02*
X175770000Y-119190000D01*
X174580000Y-127100000D02*
X174580000Y-133100000D01*
X174700000Y-127100000D02*
X174700000Y-133100000D01*
X174820000Y-127100000D02*
X174820000Y-133100000D01*
X174880000Y-121570000D02*
X174880000Y-121957071D01*
X174880000Y-124042929D02*
X174880000Y-124440000D01*
X174880000Y-127100000D02*
X174880000Y-133100000D01*
X174880000Y-133100000D02*
X174120000Y-133100000D01*
X175770000Y-119190000D02*
X175770000Y-120460000D01*
X175830000Y-124440000D02*
X160470000Y-124440000D01*
X175830000Y-127100000D02*
X175830000Y-124440000D01*
%TO.C,R13*%
X166485000Y-75617064D02*
X166485000Y-75162936D01*
X167955000Y-75617064D02*
X167955000Y-75162936D01*
%TO.C,R11*%
X183722936Y-78465000D02*
X184177064Y-78465000D01*
X183722936Y-79935000D02*
X184177064Y-79935000D01*
%TO.C,R25*%
X131265000Y-81372936D02*
X131265000Y-81827064D01*
X132735000Y-81372936D02*
X132735000Y-81827064D01*
%TO.C,C6*%
X111348752Y-115725000D02*
X110826248Y-115725000D01*
X111348752Y-117195000D02*
X110826248Y-117195000D01*
%TO.C,TP2*%
X183890000Y-107410000D02*
G75*
G02*
X181490000Y-107410000I-1200000J0D01*
G01*
X181490000Y-107410000D02*
G75*
G02*
X183890000Y-107410000I1200000J0D01*
G01*
%TO.C,J10*%
X129220000Y-119570000D02*
X129220000Y-125790000D01*
X129220000Y-125790000D02*
X132940000Y-125790000D01*
X129420000Y-119770000D02*
X129420000Y-125590000D01*
X129420000Y-125590000D02*
X131180000Y-125590000D01*
X131180000Y-119770000D02*
X129420000Y-119770000D01*
X131180000Y-119770000D02*
X131180000Y-119570000D01*
X131180000Y-125590000D02*
X131180000Y-125790000D01*
X131880000Y-119570000D02*
X131880000Y-119770000D01*
X131880000Y-119770000D02*
X131180000Y-119770000D01*
X131880000Y-119770000D02*
X132740000Y-119770000D01*
X131880000Y-125590000D02*
X131180000Y-125590000D01*
X131880000Y-125590000D02*
X131880000Y-125790000D01*
X132740000Y-119770000D02*
X132740000Y-125590000D01*
X132740000Y-125590000D02*
X131880000Y-125590000D01*
X132940000Y-119570000D02*
X129220000Y-119570000D01*
X132940000Y-125790000D02*
X132940000Y-119570000D01*
X133240000Y-119270000D02*
X131990000Y-119270000D01*
X133240000Y-120520000D02*
X133240000Y-119270000D01*
%TO.C,J14*%
X108590000Y-71190000D02*
X108590000Y-83310000D01*
X108590000Y-83310000D02*
X113310000Y-83310000D01*
X109200000Y-71800000D02*
X109200000Y-82700000D01*
X109200000Y-74150000D02*
X109700000Y-74150000D01*
X109200000Y-74250000D02*
X109700000Y-74250000D01*
X109200000Y-76150000D02*
X109700000Y-76150000D01*
X109200000Y-76250000D02*
X109700000Y-76250000D01*
X109200000Y-78150000D02*
X109700000Y-78150000D01*
X109200000Y-78250000D02*
X109700000Y-78250000D01*
X109200000Y-80150000D02*
X109700000Y-80150000D01*
X109200000Y-80250000D02*
X109700000Y-80250000D01*
X109200000Y-82700000D02*
X112700000Y-82700000D01*
X109700000Y-74150000D02*
X109700000Y-74350000D01*
X109700000Y-74350000D02*
X109200000Y-74350000D01*
X109700000Y-76150000D02*
X109700000Y-76350000D01*
X109700000Y-76350000D02*
X109200000Y-76350000D01*
X109700000Y-78150000D02*
X109700000Y-78350000D01*
X109700000Y-78350000D02*
X109200000Y-78350000D01*
X109700000Y-80150000D02*
X109700000Y-80350000D01*
X109700000Y-80350000D02*
X109200000Y-80350000D01*
X110700000Y-71190000D02*
X110700000Y-71800000D01*
X110700000Y-83310000D02*
X110700000Y-82700000D01*
X112000000Y-71190000D02*
X112000000Y-71800000D01*
X112000000Y-83310000D02*
X112000000Y-82700000D01*
X112700000Y-71800000D02*
X109200000Y-71800000D01*
X112700000Y-73750000D02*
X112700000Y-71800000D01*
X112700000Y-80750000D02*
X113310000Y-80750000D01*
X112700000Y-82700000D02*
X112700000Y-80750000D01*
X113310000Y-71190000D02*
X108590000Y-71190000D01*
X113310000Y-72950000D02*
X113510000Y-72950000D01*
X113310000Y-73750000D02*
X112700000Y-73750000D01*
X113310000Y-83310000D02*
X113310000Y-71190000D01*
X113410000Y-72950000D02*
X113410000Y-72650000D01*
X113510000Y-72650000D02*
X113310000Y-72650000D01*
X113510000Y-72950000D02*
X113510000Y-72650000D01*
X113610000Y-70890000D02*
X112360000Y-70890000D01*
X113610000Y-72140000D02*
X113610000Y-70890000D01*
%TO.C,C7*%
X151661252Y-95065000D02*
X151138748Y-95065000D01*
X151661252Y-96535000D02*
X151138748Y-96535000D01*
%TO.C,D5*%
X114650000Y-84260000D02*
X114650000Y-78750000D01*
X114650000Y-84260000D02*
X117950000Y-84260000D01*
X117950000Y-84260000D02*
X117950000Y-78750000D01*
%TO.C,J4*%
X131550000Y-117080000D02*
X131550000Y-115750000D01*
X132880000Y-117080000D02*
X131550000Y-117080000D01*
X134150000Y-114420000D02*
X141830000Y-114420000D01*
X134150000Y-117080000D02*
X134150000Y-114420000D01*
X134150000Y-117080000D02*
X141830000Y-117080000D01*
X141830000Y-117080000D02*
X141830000Y-114420000D01*
%TO.C,U1*%
X118210000Y-104155000D02*
X116260000Y-104155000D01*
X118210000Y-104155000D02*
X120160000Y-104155000D01*
X118210000Y-114275000D02*
X116260000Y-114275000D01*
X118210000Y-114275000D02*
X120160000Y-114275000D01*
X115510000Y-104210000D02*
X115270000Y-103880000D01*
X115750000Y-103880000D01*
X115510000Y-104210000D01*
G36*
X115510000Y-104210000D02*
G01*
X115270000Y-103880000D01*
X115750000Y-103880000D01*
X115510000Y-104210000D01*
G37*
%TO.C,TP3*%
X183890000Y-111610000D02*
G75*
G02*
X181490000Y-111610000I-1200000J0D01*
G01*
X181490000Y-111610000D02*
G75*
G02*
X183890000Y-111610000I1200000J0D01*
G01*
%TO.C,R20*%
X137265000Y-81372936D02*
X137265000Y-81827064D01*
X138735000Y-81372936D02*
X138735000Y-81827064D01*
%TO.C,J7*%
X148810000Y-69380000D02*
X148810000Y-70630000D01*
X148810000Y-70630000D02*
X150060000Y-70630000D01*
X149110000Y-64110000D02*
X149110000Y-70330000D01*
X149110000Y-70330000D02*
X152830000Y-70330000D01*
X149310000Y-64310000D02*
X150170000Y-64310000D01*
X149310000Y-70130000D02*
X149310000Y-64310000D01*
X150170000Y-64310000D02*
X150170000Y-64110000D01*
X150170000Y-64310000D02*
X150870000Y-64310000D01*
X150170000Y-70130000D02*
X149310000Y-70130000D01*
X150170000Y-70130000D02*
X150870000Y-70130000D01*
X150170000Y-70330000D02*
X150170000Y-70130000D01*
X150870000Y-64310000D02*
X150870000Y-64110000D01*
X150870000Y-70130000D02*
X150870000Y-70330000D01*
X150870000Y-70130000D02*
X152630000Y-70130000D01*
X152630000Y-64310000D02*
X150870000Y-64310000D01*
X152630000Y-70130000D02*
X152630000Y-64310000D01*
X152830000Y-64110000D02*
X149110000Y-64110000D01*
X152830000Y-70330000D02*
X152830000Y-64110000D01*
%TO.C,Q9*%
X163550000Y-86190000D02*
X167310000Y-86190000D01*
X163550000Y-93010000D02*
X167310000Y-93010000D01*
X167310000Y-86190000D02*
X167310000Y-87450000D01*
X167310000Y-93010000D02*
X167310000Y-91750000D01*
X162270000Y-86290000D02*
X162030000Y-85960000D01*
X162510000Y-85960000D01*
X162270000Y-86290000D01*
G36*
X162270000Y-86290000D02*
G01*
X162030000Y-85960000D01*
X162510000Y-85960000D01*
X162270000Y-86290000D01*
G37*
%TO.C,J11*%
X128600000Y-69350000D02*
X128600000Y-70600000D01*
X128600000Y-70600000D02*
X129850000Y-70600000D01*
X128900000Y-64080000D02*
X128900000Y-70300000D01*
X128900000Y-70300000D02*
X132620000Y-70300000D01*
X129100000Y-64280000D02*
X129960000Y-64280000D01*
X129100000Y-70100000D02*
X129100000Y-64280000D01*
X129960000Y-64280000D02*
X129960000Y-64080000D01*
X129960000Y-64280000D02*
X130660000Y-64280000D01*
X129960000Y-70100000D02*
X129100000Y-70100000D01*
X129960000Y-70100000D02*
X130660000Y-70100000D01*
X129960000Y-70300000D02*
X129960000Y-70100000D01*
X130660000Y-64280000D02*
X130660000Y-64080000D01*
X130660000Y-70100000D02*
X130660000Y-70300000D01*
X130660000Y-70100000D02*
X132420000Y-70100000D01*
X132420000Y-64280000D02*
X130660000Y-64280000D01*
X132420000Y-70100000D02*
X132420000Y-64280000D01*
X132620000Y-64080000D02*
X128900000Y-64080000D01*
X132620000Y-70300000D02*
X132620000Y-64080000D01*
%TO.C,J15*%
X134010000Y-119590000D02*
X134010000Y-125810000D01*
X134010000Y-125810000D02*
X137730000Y-125810000D01*
X134210000Y-119790000D02*
X134210000Y-125610000D01*
X134210000Y-125610000D02*
X135970000Y-125610000D01*
X135970000Y-119790000D02*
X134210000Y-119790000D01*
X135970000Y-119790000D02*
X135970000Y-119590000D01*
X135970000Y-125610000D02*
X135970000Y-125810000D01*
X136670000Y-119590000D02*
X136670000Y-119790000D01*
X136670000Y-119790000D02*
X135970000Y-119790000D01*
X136670000Y-119790000D02*
X137530000Y-119790000D01*
X136670000Y-125610000D02*
X135970000Y-125610000D01*
X136670000Y-125610000D02*
X136670000Y-125810000D01*
X137530000Y-119790000D02*
X137530000Y-125610000D01*
X137530000Y-125610000D02*
X136670000Y-125610000D01*
X137730000Y-119590000D02*
X134010000Y-119590000D01*
X137730000Y-125810000D02*
X137730000Y-119590000D01*
X138030000Y-119290000D02*
X136780000Y-119290000D01*
X138030000Y-120540000D02*
X138030000Y-119290000D01*
%TO.C,R3*%
X129172936Y-91665000D02*
X129627064Y-91665000D01*
X129172936Y-93135000D02*
X129627064Y-93135000D01*
D13*
%TO.C,U7*%
X145650000Y-112045000D02*
X145650000Y-112250000D01*
X145650000Y-112045000D02*
X151150000Y-112045000D01*
X145650000Y-117555000D02*
X145650000Y-117350000D01*
X145650000Y-117555000D02*
X151150000Y-117555000D01*
X151150000Y-112045000D02*
X151150000Y-112250000D01*
X151150000Y-117555000D02*
X151150000Y-117350000D01*
D14*
X145100000Y-112300000D02*
X144860000Y-111970000D01*
X145340000Y-111970000D01*
X145100000Y-112300000D01*
G36*
X145100000Y-112300000D02*
G01*
X144860000Y-111970000D01*
X145340000Y-111970000D01*
X145100000Y-112300000D01*
G37*
%TO.C,C1*%
X109065000Y-84990000D02*
X109065000Y-86190000D01*
X109065000Y-89510000D02*
X109065000Y-88310000D01*
X112520563Y-84990000D02*
X109065000Y-84990000D01*
X112520563Y-89510000D02*
X109065000Y-89510000D01*
X113585000Y-86054437D02*
X112520563Y-84990000D01*
X113585000Y-86054437D02*
X113585000Y-86190000D01*
X113585000Y-88445563D02*
X112520563Y-89510000D01*
X113585000Y-88445563D02*
X113585000Y-88310000D01*
X114075000Y-89060000D02*
X114075000Y-88560000D01*
X114325000Y-88810000D02*
X113825000Y-88810000D01*
%TO.C,C3*%
X120328748Y-98475000D02*
X120851252Y-98475000D01*
X120328748Y-99945000D02*
X120851252Y-99945000D01*
%TO.C,Q1*%
X173560000Y-112015000D02*
X171610000Y-112015000D01*
X173560000Y-112015000D02*
X175510000Y-112015000D01*
X173560000Y-117135000D02*
X171610000Y-117135000D01*
X173560000Y-117135000D02*
X175510000Y-117135000D01*
X170860000Y-112110000D02*
X170620000Y-111780000D01*
X171100000Y-111780000D01*
X170860000Y-112110000D01*
G36*
X170860000Y-112110000D02*
G01*
X170620000Y-111780000D01*
X171100000Y-111780000D01*
X170860000Y-112110000D01*
G37*
%TO.C,R24*%
X134265000Y-81372936D02*
X134265000Y-81827064D01*
X135735000Y-81372936D02*
X135735000Y-81827064D01*
%TO.C,J18*%
X148370000Y-119610000D02*
X148370000Y-125830000D01*
X148370000Y-125830000D02*
X152090000Y-125830000D01*
X148570000Y-119810000D02*
X148570000Y-125630000D01*
X148570000Y-125630000D02*
X150330000Y-125630000D01*
X150330000Y-119810000D02*
X148570000Y-119810000D01*
X150330000Y-119810000D02*
X150330000Y-119610000D01*
X150330000Y-125630000D02*
X150330000Y-125830000D01*
X151030000Y-119610000D02*
X151030000Y-119810000D01*
X151030000Y-119810000D02*
X150330000Y-119810000D01*
X151030000Y-119810000D02*
X151890000Y-119810000D01*
X151030000Y-125630000D02*
X150330000Y-125630000D01*
X151030000Y-125630000D02*
X151030000Y-125830000D01*
X151890000Y-119810000D02*
X151890000Y-125630000D01*
X151890000Y-125630000D02*
X151030000Y-125630000D01*
X152090000Y-119610000D02*
X148370000Y-119610000D01*
X152090000Y-125830000D02*
X152090000Y-119610000D01*
X152390000Y-119310000D02*
X151140000Y-119310000D01*
X152390000Y-120560000D02*
X152390000Y-119310000D01*
%TO.C,R4*%
X129627064Y-89465000D02*
X129172936Y-89465000D01*
X129627064Y-90935000D02*
X129172936Y-90935000D01*
%TO.C,J9*%
X139550000Y-69360000D02*
X139550000Y-70610000D01*
X139550000Y-70610000D02*
X140800000Y-70610000D01*
X139850000Y-64090000D02*
X139850000Y-70310000D01*
X139850000Y-70310000D02*
X143570000Y-70310000D01*
X140050000Y-64290000D02*
X140910000Y-64290000D01*
X140050000Y-70110000D02*
X140050000Y-64290000D01*
X140910000Y-64290000D02*
X140910000Y-64090000D01*
X140910000Y-64290000D02*
X141610000Y-64290000D01*
X140910000Y-70110000D02*
X140050000Y-70110000D01*
X140910000Y-70110000D02*
X141610000Y-70110000D01*
X140910000Y-70310000D02*
X140910000Y-70110000D01*
X141610000Y-64290000D02*
X141610000Y-64090000D01*
X141610000Y-70110000D02*
X141610000Y-70310000D01*
X141610000Y-70110000D02*
X143370000Y-70110000D01*
X143370000Y-64290000D02*
X141610000Y-64290000D01*
X143370000Y-70110000D02*
X143370000Y-64290000D01*
X143570000Y-64090000D02*
X139850000Y-64090000D01*
X143570000Y-70310000D02*
X143570000Y-64090000D01*
%TO.C,Q6*%
X133190000Y-76500000D02*
X133190000Y-77900000D01*
X135510000Y-76490000D02*
X135510000Y-77900000D01*
X135790000Y-76360000D02*
X135460000Y-76120000D01*
X135790000Y-75880000D01*
X135790000Y-76360000D01*
G36*
X135790000Y-76360000D02*
G01*
X135460000Y-76120000D01*
X135790000Y-75880000D01*
X135790000Y-76360000D01*
G37*
%TO.C,Q2*%
X165730000Y-111990000D02*
X163780000Y-111990000D01*
X165730000Y-111990000D02*
X167680000Y-111990000D01*
X165730000Y-117110000D02*
X163780000Y-117110000D01*
X165730000Y-117110000D02*
X167680000Y-117110000D01*
X163030000Y-112085000D02*
X162790000Y-111755000D01*
X163270000Y-111755000D01*
X163030000Y-112085000D01*
G36*
X163030000Y-112085000D02*
G01*
X162790000Y-111755000D01*
X163270000Y-111755000D01*
X163030000Y-112085000D01*
G37*
%TO.C,R16*%
X159665000Y-75627064D02*
X159665000Y-75172936D01*
X161135000Y-75627064D02*
X161135000Y-75172936D01*
%TO.C,R12*%
X183722936Y-82465000D02*
X184177064Y-82465000D01*
X183722936Y-83935000D02*
X184177064Y-83935000D01*
%TO.C,R17*%
X164285000Y-75617064D02*
X164285000Y-75162936D01*
X165755000Y-75617064D02*
X165755000Y-75162936D01*
%TO.C,R15*%
X157545000Y-75627064D02*
X157545000Y-75172936D01*
X159015000Y-75627064D02*
X159015000Y-75172936D01*
%TO.C,U5*%
X161640000Y-79315000D02*
X161640000Y-79090000D01*
X161640000Y-83150000D02*
X161640000Y-82625000D01*
X161640000Y-83150000D02*
X162165000Y-83150000D01*
X162165000Y-78850000D02*
X161940000Y-78850000D01*
X165940000Y-78850000D02*
X165415000Y-78850000D01*
X165940000Y-78850000D02*
X165940000Y-79375000D01*
X165940000Y-83150000D02*
X165415000Y-83150000D01*
X165940000Y-83150000D02*
X165940000Y-82625000D01*
X161640000Y-78850000D02*
X161400000Y-78520000D01*
X161880000Y-78520000D01*
X161640000Y-78850000D01*
G36*
X161640000Y-78850000D02*
G01*
X161400000Y-78520000D01*
X161880000Y-78520000D01*
X161640000Y-78850000D01*
G37*
%TO.C,J5*%
X158030000Y-69380000D02*
X158030000Y-70630000D01*
X158030000Y-70630000D02*
X159280000Y-70630000D01*
X158330000Y-64110000D02*
X158330000Y-70330000D01*
X158330000Y-70330000D02*
X162050000Y-70330000D01*
X158530000Y-64310000D02*
X159390000Y-64310000D01*
X158530000Y-70130000D02*
X158530000Y-64310000D01*
X159390000Y-64310000D02*
X159390000Y-64110000D01*
X159390000Y-64310000D02*
X160090000Y-64310000D01*
X159390000Y-70130000D02*
X158530000Y-70130000D01*
X159390000Y-70130000D02*
X160090000Y-70130000D01*
X159390000Y-70330000D02*
X159390000Y-70130000D01*
X160090000Y-64310000D02*
X160090000Y-64110000D01*
X160090000Y-70130000D02*
X160090000Y-70330000D01*
X160090000Y-70130000D02*
X161850000Y-70130000D01*
X161850000Y-64310000D02*
X160090000Y-64310000D01*
X161850000Y-70130000D02*
X161850000Y-64310000D01*
X162050000Y-64110000D02*
X158330000Y-64110000D01*
X162050000Y-70330000D02*
X162050000Y-64110000D01*
%TO.C,R28*%
X175225000Y-109547936D02*
X175225000Y-110002064D01*
X176695000Y-109547936D02*
X176695000Y-110002064D01*
%TO.C,D8*%
X109885000Y-111175000D02*
X113770000Y-111175000D01*
X113770000Y-108905000D02*
X109885000Y-108905000D01*
X113770000Y-111175000D02*
X113770000Y-108905000D01*
%TO.C,TP4*%
X183890000Y-99060000D02*
G75*
G02*
X181490000Y-99060000I-1200000J0D01*
G01*
X181490000Y-99060000D02*
G75*
G02*
X183890000Y-99060000I1200000J0D01*
G01*
%TO.C,C12*%
X183651248Y-80465000D02*
X184173752Y-80465000D01*
X183651248Y-81935000D02*
X184173752Y-81935000D01*
%TO.C,J17*%
X143590000Y-119590000D02*
X143590000Y-125810000D01*
X143590000Y-125810000D02*
X147310000Y-125810000D01*
X143790000Y-119790000D02*
X143790000Y-125610000D01*
X143790000Y-125610000D02*
X145550000Y-125610000D01*
X145550000Y-119790000D02*
X143790000Y-119790000D01*
X145550000Y-119790000D02*
X145550000Y-119590000D01*
X145550000Y-125610000D02*
X145550000Y-125810000D01*
X146250000Y-119590000D02*
X146250000Y-119790000D01*
X146250000Y-119790000D02*
X145550000Y-119790000D01*
X146250000Y-119790000D02*
X147110000Y-119790000D01*
X146250000Y-125610000D02*
X145550000Y-125610000D01*
X146250000Y-125610000D02*
X146250000Y-125810000D01*
X147110000Y-119790000D02*
X147110000Y-125610000D01*
X147110000Y-125610000D02*
X146250000Y-125610000D01*
X147310000Y-119590000D02*
X143590000Y-119590000D01*
X147310000Y-125810000D02*
X147310000Y-119590000D01*
X147610000Y-119290000D02*
X146360000Y-119290000D01*
X147610000Y-120540000D02*
X147610000Y-119290000D01*
%TO.C,J12*%
X123990000Y-69330000D02*
X123990000Y-70580000D01*
X123990000Y-70580000D02*
X125240000Y-70580000D01*
X124290000Y-64060000D02*
X124290000Y-70280000D01*
X124290000Y-70280000D02*
X128010000Y-70280000D01*
X124490000Y-64260000D02*
X125350000Y-64260000D01*
X124490000Y-70080000D02*
X124490000Y-64260000D01*
X125350000Y-64260000D02*
X125350000Y-64060000D01*
X125350000Y-64260000D02*
X126050000Y-64260000D01*
X125350000Y-70080000D02*
X124490000Y-70080000D01*
X125350000Y-70080000D02*
X126050000Y-70080000D01*
X125350000Y-70280000D02*
X125350000Y-70080000D01*
X126050000Y-64260000D02*
X126050000Y-64060000D01*
X126050000Y-70080000D02*
X126050000Y-70280000D01*
X126050000Y-70080000D02*
X127810000Y-70080000D01*
X127810000Y-64260000D02*
X126050000Y-64260000D01*
X127810000Y-70080000D02*
X127810000Y-64260000D01*
X128010000Y-64060000D02*
X124290000Y-64060000D01*
X128010000Y-70280000D02*
X128010000Y-64060000D01*
%TO.C,R18*%
X153065000Y-76397064D02*
X153065000Y-75942936D01*
X154535000Y-76397064D02*
X154535000Y-75942936D01*
%TO.C,Y2*%
X153580000Y-92260000D02*
X153580000Y-104860000D01*
X153580000Y-104860000D02*
X158680000Y-104860000D01*
X158680000Y-104860000D02*
X158680000Y-92260000D01*
D15*
%TO.C,U4*%
X157765000Y-79790000D02*
X157765000Y-79350000D01*
X157765000Y-81350000D02*
X157765000Y-80710000D01*
X157765000Y-81350000D02*
X157915000Y-81350000D01*
X160190000Y-81325000D02*
X160340000Y-81325000D01*
X160315000Y-79150000D02*
X160465000Y-79150000D01*
X160465000Y-79790000D02*
X160465000Y-79150000D01*
X160465000Y-81350000D02*
X160465000Y-80710000D01*
X157765000Y-79150000D02*
X157405000Y-79150000D01*
X157765000Y-78790000D01*
X157765000Y-79150000D01*
G36*
X157765000Y-79150000D02*
G01*
X157405000Y-79150000D01*
X157765000Y-78790000D01*
X157765000Y-79150000D01*
G37*
D14*
%TO.C,C5*%
X129101248Y-87265000D02*
X129623752Y-87265000D01*
X129101248Y-88735000D02*
X129623752Y-88735000D01*
%TO.C,AE2*%
X172790000Y-72650000D02*
X172790000Y-71410000D01*
X175280000Y-70160000D02*
X174040000Y-70160000D01*
X175280000Y-73900000D02*
X174040000Y-73900000D01*
X176530000Y-72650000D02*
X176530000Y-71410000D01*
%TO.C,J19*%
X153100000Y-119630000D02*
X153100000Y-125850000D01*
X153100000Y-125850000D02*
X156820000Y-125850000D01*
X153300000Y-119830000D02*
X153300000Y-125650000D01*
X153300000Y-125650000D02*
X155060000Y-125650000D01*
X155060000Y-119830000D02*
X153300000Y-119830000D01*
X155060000Y-119830000D02*
X155060000Y-119630000D01*
X155060000Y-125650000D02*
X155060000Y-125850000D01*
X155760000Y-119630000D02*
X155760000Y-119830000D01*
X155760000Y-119830000D02*
X155060000Y-119830000D01*
X155760000Y-119830000D02*
X156620000Y-119830000D01*
X155760000Y-125650000D02*
X155060000Y-125650000D01*
X155760000Y-125650000D02*
X155760000Y-125850000D01*
X156620000Y-119830000D02*
X156620000Y-125650000D01*
X156620000Y-125650000D02*
X155760000Y-125650000D01*
X156820000Y-119630000D02*
X153100000Y-119630000D01*
X156820000Y-125850000D02*
X156820000Y-119630000D01*
X157120000Y-119330000D02*
X155870000Y-119330000D01*
X157120000Y-120580000D02*
X157120000Y-119330000D01*
%TO.C,J1*%
X133240000Y-69390000D02*
X133240000Y-70640000D01*
X133240000Y-70640000D02*
X134490000Y-70640000D01*
X133540000Y-64120000D02*
X133540000Y-70340000D01*
X133540000Y-70340000D02*
X137260000Y-70340000D01*
X133740000Y-64320000D02*
X134600000Y-64320000D01*
X133740000Y-70140000D02*
X133740000Y-64320000D01*
X134600000Y-64320000D02*
X134600000Y-64120000D01*
X134600000Y-64320000D02*
X135300000Y-64320000D01*
X134600000Y-70140000D02*
X133740000Y-70140000D01*
X134600000Y-70140000D02*
X135300000Y-70140000D01*
X134600000Y-70340000D02*
X134600000Y-70140000D01*
X135300000Y-64320000D02*
X135300000Y-64120000D01*
X135300000Y-70140000D02*
X135300000Y-70340000D01*
X135300000Y-70140000D02*
X137060000Y-70140000D01*
X137060000Y-64320000D02*
X135300000Y-64320000D01*
X137060000Y-70140000D02*
X137060000Y-64320000D01*
X137260000Y-64120000D02*
X133540000Y-64120000D01*
X137260000Y-70340000D02*
X137260000Y-64120000D01*
%TO.C,C4*%
X110823748Y-113705000D02*
X111346252Y-113705000D01*
X110823748Y-115175000D02*
X111346252Y-115175000D01*
%TO.C,C11*%
X172305000Y-91421252D02*
X172305000Y-90898748D01*
X173775000Y-91421252D02*
X173775000Y-90898748D01*
%TO.C,D4*%
X126897500Y-86700000D02*
X131307500Y-86700000D01*
X131307500Y-84480000D02*
X126897500Y-84480000D01*
X131307500Y-86700000D02*
X131307500Y-84480000D01*
D13*
%TO.C,U2*%
X133475000Y-86725000D02*
X133475000Y-87400000D01*
X133475000Y-86725000D02*
X134150000Y-86725000D01*
X133475000Y-101075000D02*
X133475000Y-100400000D01*
X133475000Y-101075000D02*
X134090000Y-101075000D01*
X147825000Y-86725000D02*
X147150000Y-86725000D01*
X147825000Y-86725000D02*
X147825000Y-87400000D01*
X147825000Y-101075000D02*
X147150000Y-101075000D01*
X147825000Y-101075000D02*
X147825000Y-100400000D01*
D14*
X134108886Y-101834636D02*
X133638886Y-102174636D01*
X133638886Y-101494636D01*
X134108886Y-101834636D01*
G36*
X134108886Y-101834636D02*
G01*
X133638886Y-102174636D01*
X133638886Y-101494636D01*
X134108886Y-101834636D01*
G37*
%TO.C,R22*%
X110857936Y-102305000D02*
X111312064Y-102305000D01*
X110857936Y-103775000D02*
X111312064Y-103775000D01*
%TO.C,R6*%
X125465000Y-99627064D02*
X125465000Y-99172936D01*
X126935000Y-99627064D02*
X126935000Y-99172936D01*
%TO.C,C2*%
X110823748Y-111645000D02*
X111346252Y-111645000D01*
X110823748Y-113115000D02*
X111346252Y-113115000D01*
%TO.C,U6*%
X147410000Y-75240000D02*
X145460000Y-75240000D01*
X147410000Y-75240000D02*
X149360000Y-75240000D01*
X147410000Y-80360000D02*
X145460000Y-80360000D01*
X147410000Y-80360000D02*
X149360000Y-80360000D01*
X144710000Y-75335000D02*
X144470000Y-75005000D01*
X144950000Y-75005000D01*
X144710000Y-75335000D01*
G36*
X144710000Y-75335000D02*
G01*
X144470000Y-75005000D01*
X144950000Y-75005000D01*
X144710000Y-75335000D01*
G37*
%TO.C,JP2*%
X165510000Y-65900000D02*
X165510000Y-65300000D01*
X166160000Y-64600000D02*
X168960000Y-64600000D01*
X168760000Y-64400000D02*
X168460000Y-64100000D01*
X168760000Y-64400000D02*
X169060000Y-64100000D01*
X168960000Y-66600000D02*
X166160000Y-66600000D01*
X169060000Y-64100000D02*
X168460000Y-64100000D01*
X169610000Y-65300000D02*
X169610000Y-65900000D01*
X165510000Y-65300000D02*
G75*
G02*
X166210000Y-64600000I700000J0D01*
G01*
X166210000Y-66600000D02*
G75*
G02*
X165510000Y-65900000I0J700000D01*
G01*
X168910000Y-64600000D02*
G75*
G02*
X169610000Y-65300000I1J-699999D01*
G01*
X169610000Y-65900000D02*
G75*
G02*
X168910000Y-66600000I-699999J-1D01*
G01*
%TO.C,SW1*%
X118760000Y-117850000D02*
X122460000Y-117850000D01*
X118760000Y-123970000D02*
X118760000Y-117850000D01*
X122460000Y-117850000D02*
X122460000Y-123970000D01*
X122460000Y-123970000D02*
X118760000Y-123970000D01*
%TO.C,Y1*%
X125450000Y-101790000D02*
X125450000Y-114390000D01*
X130550000Y-101790000D02*
X125450000Y-101790000D01*
X130550000Y-114390000D02*
X130550000Y-101790000D01*
%TO.C,BZ1*%
X126900000Y-89750001D02*
G75*
G02*
X126900000Y-92750000I-6400000J-1499999D01*
G01*
X126730000Y-91250000D02*
G75*
G02*
X114270000Y-91250000I-6230000J0D01*
G01*
X114270000Y-91250000D02*
G75*
G02*
X126730000Y-91250000I6230000J0D01*
G01*
%TO.C,R27*%
X129975000Y-73397064D02*
X129975000Y-72942936D01*
X131445000Y-73397064D02*
X131445000Y-72942936D01*
%TO.C,JP3*%
X166810000Y-68570000D02*
X166810000Y-67970000D01*
X167510000Y-67270000D02*
X168910000Y-67270000D01*
X168910000Y-69270000D02*
X167510000Y-69270000D01*
X169610000Y-67970000D02*
X169610000Y-68570000D01*
X166810000Y-67970000D02*
G75*
G02*
X167510000Y-67270000I700000J0D01*
G01*
X167510000Y-69270000D02*
G75*
G02*
X166810000Y-68570000I0J700000D01*
G01*
X168910000Y-67270000D02*
G75*
G02*
X169610000Y-67970000I1J-699999D01*
G01*
X169610000Y-68570000D02*
G75*
G02*
X168910000Y-69270000I-699999J-1D01*
G01*
%TO.C,C8*%
X151661252Y-93065000D02*
X151138748Y-93065000D01*
X151661252Y-94535000D02*
X151138748Y-94535000D01*
%TO.C,D6*%
X122315000Y-79685000D02*
X122315000Y-81955000D01*
X122315000Y-81955000D02*
X126200000Y-81955000D01*
X126200000Y-79685000D02*
X122315000Y-79685000D01*
%TO.C,R10*%
X152372936Y-87565000D02*
X152827064Y-87565000D01*
X152372936Y-89035000D02*
X152827064Y-89035000D01*
%TO.C,Q5*%
X130190000Y-76500000D02*
X130190000Y-77900000D01*
X132510000Y-76490000D02*
X132510000Y-77900000D01*
X132790000Y-76360000D02*
X132460000Y-76120000D01*
X132790000Y-75880000D01*
X132790000Y-76360000D01*
G36*
X132790000Y-76360000D02*
G01*
X132460000Y-76120000D01*
X132790000Y-75880000D01*
X132790000Y-76360000D01*
G37*
%TO.C,R8*%
X127665000Y-99172936D02*
X127665000Y-99627064D01*
X129135000Y-99172936D02*
X129135000Y-99627064D01*
%TO.C,Q4*%
X165025000Y-94260000D02*
X165025000Y-96070000D01*
X165025000Y-104660000D02*
X165025000Y-102850000D01*
X166525000Y-94260000D02*
X165025000Y-94260000D01*
X166525000Y-104660000D02*
X165025000Y-104660000D01*
X162462500Y-96070000D02*
X162222500Y-95740000D01*
X162702500Y-95740000D01*
X162462500Y-96070000D01*
G36*
X162462500Y-96070000D02*
G01*
X162222500Y-95740000D01*
X162702500Y-95740000D01*
X162462500Y-96070000D01*
G37*
%TO.C,R14*%
X161885000Y-75617064D02*
X161885000Y-75162936D01*
X163355000Y-75617064D02*
X163355000Y-75162936D01*
%TO.C,C9*%
X129865000Y-99698752D02*
X129865000Y-99176248D01*
X131335000Y-99698752D02*
X131335000Y-99176248D01*
%TO.C,J6*%
X153420000Y-69370000D02*
X153420000Y-70620000D01*
X153420000Y-70620000D02*
X154670000Y-70620000D01*
X153720000Y-64100000D02*
X153720000Y-70320000D01*
X153720000Y-70320000D02*
X157440000Y-70320000D01*
X153920000Y-64300000D02*
X154780000Y-64300000D01*
X153920000Y-70120000D02*
X153920000Y-64300000D01*
X154780000Y-64300000D02*
X154780000Y-64100000D01*
X154780000Y-64300000D02*
X155480000Y-64300000D01*
X154780000Y-70120000D02*
X153920000Y-70120000D01*
X154780000Y-70120000D02*
X155480000Y-70120000D01*
X154780000Y-70320000D02*
X154780000Y-70120000D01*
X155480000Y-64300000D02*
X155480000Y-64100000D01*
X155480000Y-70120000D02*
X155480000Y-70320000D01*
X155480000Y-70120000D02*
X157240000Y-70120000D01*
X157240000Y-64300000D02*
X155480000Y-64300000D01*
X157240000Y-70120000D02*
X157240000Y-64300000D01*
X157440000Y-64100000D02*
X153720000Y-64100000D01*
X157440000Y-70320000D02*
X157440000Y-64100000D01*
%TO.C,J13*%
X119370000Y-69320000D02*
X119370000Y-70570000D01*
X119370000Y-70570000D02*
X120620000Y-70570000D01*
X119670000Y-64050000D02*
X119670000Y-70270000D01*
X119670000Y-70270000D02*
X123390000Y-70270000D01*
X119870000Y-64250000D02*
X120730000Y-64250000D01*
X119870000Y-70070000D02*
X119870000Y-64250000D01*
X120730000Y-64250000D02*
X120730000Y-64050000D01*
X120730000Y-64250000D02*
X121430000Y-64250000D01*
X120730000Y-70070000D02*
X119870000Y-70070000D01*
X120730000Y-70070000D02*
X121430000Y-70070000D01*
X120730000Y-70270000D02*
X120730000Y-70070000D01*
X121430000Y-64250000D02*
X121430000Y-64050000D01*
X121430000Y-70070000D02*
X121430000Y-70270000D01*
X121430000Y-70070000D02*
X123190000Y-70070000D01*
X123190000Y-64250000D02*
X121430000Y-64250000D01*
X123190000Y-70070000D02*
X123190000Y-64250000D01*
X123390000Y-64050000D02*
X119670000Y-64050000D01*
X123390000Y-70270000D02*
X123390000Y-64050000D01*
%TO.C,R9*%
X152382936Y-89575000D02*
X152837064Y-89575000D01*
X152382936Y-91045000D02*
X152837064Y-91045000D01*
%TO.C,C13*%
X158441248Y-83475000D02*
X158963752Y-83475000D01*
X158441248Y-84945000D02*
X158963752Y-84945000D01*
%TO.C,L1*%
X183469758Y-84560000D02*
X184290242Y-84560000D01*
X183469758Y-85680000D02*
X184290242Y-85680000D01*
%TO.C,R21*%
X110857936Y-104305000D02*
X111312064Y-104305000D01*
X110857936Y-105775000D02*
X111312064Y-105775000D01*
%TO.C,D7*%
X109885000Y-108575000D02*
X113770000Y-108575000D01*
X113770000Y-106305000D02*
X109885000Y-106305000D01*
X113770000Y-108575000D02*
X113770000Y-106305000D01*
%TD*%
M02*
