%TF.GenerationSoftware,KiCad,Pcbnew,8.0.3-8.0.3-0~ubuntu22.04.1*%
%TF.CreationDate,2024-08-07T12:57:56+03:00*%
%TF.ProjectId,control_body,636f6e74-726f-46c5-9f62-6f64792e6b69,rev?*%
%TF.SameCoordinates,Original*%
%TF.FileFunction,Drillmap*%
%TF.FilePolarity,Positive*%
%FSLAX45Y45*%
G04 Gerber Fmt 4.5, Leading zero omitted, Abs format (unit mm)*
G04 Created by KiCad (PCBNEW 8.0.3-8.0.3-0~ubuntu22.04.1) date 2024-08-07 12:57:56*
%MOMM*%
%LPD*%
G01*
G04 APERTURE LIST*
%ADD10C,0.050000*%
%ADD11C,0.200000*%
G04 APERTURE END LIST*
D10*
X11000000Y-6250000D02*
X18500000Y-6250000D01*
X11000000Y-12750000D02*
G75*
G02*
X10750000Y-12500000I0J250000D01*
G01*
X10750000Y-6500000D02*
G75*
G02*
X11000000Y-6250000I250000J0D01*
G01*
X10750000Y-12500000D02*
X10750000Y-6500000D01*
X18500000Y-6250000D02*
G75*
G02*
X18750000Y-6500000I0J-250000D01*
G01*
X18500000Y-12750000D02*
X11000000Y-12750000D01*
X18750000Y-12500000D02*
G75*
G02*
X18500000Y-12750000I-250000J0D01*
G01*
X18750000Y-6500000D02*
X18750000Y-12500000D01*
D11*
X11008277Y-13063984D02*
X11008277Y-12863984D01*
X11008277Y-12863984D02*
X11055896Y-12863984D01*
X11055896Y-12863984D02*
X11084467Y-12873508D01*
X11084467Y-12873508D02*
X11103515Y-12892555D01*
X11103515Y-12892555D02*
X11113039Y-12911603D01*
X11113039Y-12911603D02*
X11122563Y-12949698D01*
X11122563Y-12949698D02*
X11122563Y-12978269D01*
X11122563Y-12978269D02*
X11113039Y-13016365D01*
X11113039Y-13016365D02*
X11103515Y-13035412D01*
X11103515Y-13035412D02*
X11084467Y-13054460D01*
X11084467Y-13054460D02*
X11055896Y-13063984D01*
X11055896Y-13063984D02*
X11008277Y-13063984D01*
X11208277Y-13063984D02*
X11208277Y-12930650D01*
X11208277Y-12968746D02*
X11217801Y-12949698D01*
X11217801Y-12949698D02*
X11227324Y-12940174D01*
X11227324Y-12940174D02*
X11246372Y-12930650D01*
X11246372Y-12930650D02*
X11265420Y-12930650D01*
X11332086Y-13063984D02*
X11332086Y-12930650D01*
X11332086Y-12863984D02*
X11322562Y-12873508D01*
X11322562Y-12873508D02*
X11332086Y-12883031D01*
X11332086Y-12883031D02*
X11341610Y-12873508D01*
X11341610Y-12873508D02*
X11332086Y-12863984D01*
X11332086Y-12863984D02*
X11332086Y-12883031D01*
X11455896Y-13063984D02*
X11436848Y-13054460D01*
X11436848Y-13054460D02*
X11427324Y-13035412D01*
X11427324Y-13035412D02*
X11427324Y-12863984D01*
X11560658Y-13063984D02*
X11541610Y-13054460D01*
X11541610Y-13054460D02*
X11532086Y-13035412D01*
X11532086Y-13035412D02*
X11532086Y-12863984D01*
X11789229Y-13063984D02*
X11789229Y-12863984D01*
X11789229Y-12863984D02*
X11855896Y-13006841D01*
X11855896Y-13006841D02*
X11922562Y-12863984D01*
X11922562Y-12863984D02*
X11922562Y-13063984D01*
X12103515Y-13063984D02*
X12103515Y-12959222D01*
X12103515Y-12959222D02*
X12093991Y-12940174D01*
X12093991Y-12940174D02*
X12074943Y-12930650D01*
X12074943Y-12930650D02*
X12036848Y-12930650D01*
X12036848Y-12930650D02*
X12017801Y-12940174D01*
X12103515Y-13054460D02*
X12084467Y-13063984D01*
X12084467Y-13063984D02*
X12036848Y-13063984D01*
X12036848Y-13063984D02*
X12017801Y-13054460D01*
X12017801Y-13054460D02*
X12008277Y-13035412D01*
X12008277Y-13035412D02*
X12008277Y-13016365D01*
X12008277Y-13016365D02*
X12017801Y-12997317D01*
X12017801Y-12997317D02*
X12036848Y-12987793D01*
X12036848Y-12987793D02*
X12084467Y-12987793D01*
X12084467Y-12987793D02*
X12103515Y-12978269D01*
X12198753Y-12930650D02*
X12198753Y-13130650D01*
X12198753Y-12940174D02*
X12217801Y-12930650D01*
X12217801Y-12930650D02*
X12255896Y-12930650D01*
X12255896Y-12930650D02*
X12274943Y-12940174D01*
X12274943Y-12940174D02*
X12284467Y-12949698D01*
X12284467Y-12949698D02*
X12293991Y-12968746D01*
X12293991Y-12968746D02*
X12293991Y-13025888D01*
X12293991Y-13025888D02*
X12284467Y-13044936D01*
X12284467Y-13044936D02*
X12274943Y-13054460D01*
X12274943Y-13054460D02*
X12255896Y-13063984D01*
X12255896Y-13063984D02*
X12217801Y-13063984D01*
X12217801Y-13063984D02*
X12198753Y-13054460D01*
X12379705Y-13044936D02*
X12389229Y-13054460D01*
X12389229Y-13054460D02*
X12379705Y-13063984D01*
X12379705Y-13063984D02*
X12370182Y-13054460D01*
X12370182Y-13054460D02*
X12379705Y-13044936D01*
X12379705Y-13044936D02*
X12379705Y-13063984D01*
X12379705Y-12940174D02*
X12389229Y-12949698D01*
X12389229Y-12949698D02*
X12379705Y-12959222D01*
X12379705Y-12959222D02*
X12370182Y-12949698D01*
X12370182Y-12949698D02*
X12379705Y-12940174D01*
X12379705Y-12940174D02*
X12379705Y-12959222D01*
M02*
