%TF.GenerationSoftware,KiCad,Pcbnew,8.0.3-8.0.3-0~ubuntu22.04.1*%
%TF.CreationDate,2024-08-07T12:57:56+03:00*%
%TF.ProjectId,control_body,636f6e74-726f-46c5-9f62-6f64792e6b69,rev?*%
%TF.SameCoordinates,Original*%
%TF.FileFunction,Drillmap*%
%TF.FilePolarity,Positive*%
%FSLAX45Y45*%
G04 Gerber Fmt 4.5, Leading zero omitted, Abs format (unit mm)*
G04 Created by KiCad (PCBNEW 8.0.3-8.0.3-0~ubuntu22.04.1) date 2024-08-07 12:57:56*
%MOMM*%
%LPD*%
G01*
G04 APERTURE LIST*
%ADD10C,0.050000*%
%ADD11C,0.200000*%
%ADD12C,0.100000*%
%ADD13C,0.220000*%
G04 APERTURE END LIST*
D10*
X11000000Y-6250000D02*
X18500000Y-6250000D01*
X11000000Y-12750000D02*
G75*
G02*
X10750000Y-12500000I0J250000D01*
G01*
X10750000Y-6500000D02*
G75*
G02*
X11000000Y-6250000I250000J0D01*
G01*
X10750000Y-12500000D02*
X10750000Y-6500000D01*
X18500000Y-6250000D02*
G75*
G02*
X18750000Y-6500000I0J-250000D01*
G01*
X18500000Y-12750000D02*
X11000000Y-12750000D01*
X18750000Y-12500000D02*
G75*
G02*
X18500000Y-12750000I-250000J0D01*
G01*
X18750000Y-6500000D02*
X18750000Y-12500000D01*
D11*
D12*
X10821000Y-10030000D02*
X10851000Y-10060000D01*
X10851000Y-10030000D02*
X10821000Y-10060000D01*
X10821000Y-10117000D02*
X10851000Y-10147000D01*
X10851000Y-10117000D02*
X10821000Y-10147000D01*
X10911000Y-10029000D02*
X10941000Y-10059000D01*
X10941000Y-10029000D02*
X10911000Y-10059000D01*
X10912000Y-10116000D02*
X10942000Y-10146000D01*
X10942000Y-10116000D02*
X10912000Y-10146000D01*
X11426000Y-9836000D02*
X11456000Y-9866000D01*
X11456000Y-9836000D02*
X11426000Y-9866000D01*
X11426000Y-9919000D02*
X11456000Y-9949000D01*
X11456000Y-9919000D02*
X11426000Y-9949000D01*
X11426000Y-10000000D02*
X11456000Y-10030000D01*
X11456000Y-10000000D02*
X11426000Y-10030000D01*
X11427000Y-9754000D02*
X11457000Y-9784000D01*
X11457000Y-9754000D02*
X11427000Y-9784000D01*
X11437000Y-11632000D02*
X11467000Y-11662000D01*
X11467000Y-11632000D02*
X11437000Y-11662000D01*
X11509000Y-9837000D02*
X11539000Y-9867000D01*
X11539000Y-9837000D02*
X11509000Y-9867000D01*
X11511000Y-9919000D02*
X11541000Y-9949000D01*
X11541000Y-9919000D02*
X11511000Y-9949000D01*
X11512000Y-9754000D02*
X11542000Y-9784000D01*
X11542000Y-9754000D02*
X11512000Y-9784000D01*
X11513000Y-10000000D02*
X11543000Y-10030000D01*
X11543000Y-10000000D02*
X11513000Y-10030000D01*
X11592000Y-9755000D02*
X11622000Y-9785000D01*
X11622000Y-9755000D02*
X11592000Y-9785000D01*
X11592000Y-9836000D02*
X11622000Y-9866000D01*
X11622000Y-9836000D02*
X11592000Y-9866000D01*
X11592000Y-9920000D02*
X11622000Y-9950000D01*
X11622000Y-9920000D02*
X11592000Y-9950000D01*
X11595000Y-10000000D02*
X11625000Y-10030000D01*
X11625000Y-10000000D02*
X11595000Y-10030000D01*
X11710000Y-10843000D02*
X11740000Y-10873000D01*
X11740000Y-10843000D02*
X11710000Y-10873000D01*
X11713000Y-10589000D02*
X11743000Y-10619000D01*
X11743000Y-10589000D02*
X11713000Y-10619000D01*
X11713000Y-10716000D02*
X11743000Y-10746000D01*
X11743000Y-10716000D02*
X11713000Y-10746000D01*
X11830000Y-11224000D02*
X11860000Y-11254000D01*
X11860000Y-11224000D02*
X11830000Y-11254000D01*
X11844000Y-9481000D02*
X11874000Y-9511000D01*
X11874000Y-9481000D02*
X11844000Y-9511000D01*
X11845000Y-9563000D02*
X11875000Y-9593000D01*
X11875000Y-9563000D02*
X11845000Y-9593000D01*
X11933000Y-9566000D02*
X11963000Y-9596000D01*
X11963000Y-9566000D02*
X11933000Y-9596000D01*
X11934000Y-9476000D02*
X11964000Y-9506000D01*
X11964000Y-9476000D02*
X11934000Y-9506000D01*
X12296000Y-10520000D02*
X12326000Y-10550000D01*
X12326000Y-10520000D02*
X12296000Y-10550000D01*
X12311000Y-8872000D02*
X12341000Y-8902000D01*
X12341000Y-8872000D02*
X12311000Y-8902000D01*
X12312000Y-8699000D02*
X12342000Y-8729000D01*
X12342000Y-8699000D02*
X12312000Y-8729000D01*
X12312000Y-8788000D02*
X12342000Y-8818000D01*
X12342000Y-8788000D02*
X12312000Y-8818000D01*
X12342000Y-9436000D02*
X12372000Y-9466000D01*
X12372000Y-9436000D02*
X12342000Y-9466000D01*
X12344000Y-9522000D02*
X12374000Y-9552000D01*
X12374000Y-9522000D02*
X12344000Y-9552000D01*
X12344000Y-9609000D02*
X12374000Y-9639000D01*
X12374000Y-9609000D02*
X12344000Y-9639000D01*
X12409000Y-8872000D02*
X12439000Y-8902000D01*
X12439000Y-8872000D02*
X12409000Y-8902000D01*
X12410000Y-8697000D02*
X12440000Y-8727000D01*
X12440000Y-8697000D02*
X12410000Y-8727000D01*
X12410000Y-8787000D02*
X12440000Y-8817000D01*
X12440000Y-8787000D02*
X12410000Y-8817000D01*
X12418000Y-11746000D02*
X12448000Y-11776000D01*
X12448000Y-11746000D02*
X12418000Y-11776000D01*
X12435000Y-9608000D02*
X12465000Y-9638000D01*
X12465000Y-9608000D02*
X12435000Y-9638000D01*
X12437000Y-9438000D02*
X12467000Y-9468000D01*
X12467000Y-9438000D02*
X12437000Y-9468000D01*
X12437000Y-9520000D02*
X12467000Y-9550000D01*
X12467000Y-9520000D02*
X12437000Y-9550000D01*
X12571000Y-11315000D02*
X12601000Y-11345000D01*
X12601000Y-11315000D02*
X12571000Y-11345000D01*
X12631000Y-9340000D02*
X12661000Y-9370000D01*
X12661000Y-9340000D02*
X12631000Y-9370000D01*
X12653000Y-8959000D02*
X12683000Y-8989000D01*
X12683000Y-8959000D02*
X12653000Y-8989000D01*
X12653000Y-9061000D02*
X12683000Y-9091000D01*
X12683000Y-9061000D02*
X12653000Y-9091000D01*
X12655000Y-8855000D02*
X12685000Y-8885000D01*
X12685000Y-8855000D02*
X12655000Y-8885000D01*
X12656000Y-8735000D02*
X12686000Y-8765000D01*
X12686000Y-8735000D02*
X12656000Y-8765000D01*
X12786000Y-10871000D02*
X12816000Y-10901000D01*
X12816000Y-10871000D02*
X12786000Y-10901000D01*
X12858000Y-9574000D02*
X12888000Y-9604000D01*
X12888000Y-9574000D02*
X12858000Y-9604000D01*
X12935000Y-9648000D02*
X12965000Y-9678000D01*
X12965000Y-9648000D02*
X12935000Y-9678000D01*
X12975000Y-10186000D02*
X13005000Y-10216000D01*
X13005000Y-10186000D02*
X12975000Y-10216000D01*
X13034000Y-10186000D02*
X13064000Y-10216000D01*
X13064000Y-10186000D02*
X13034000Y-10216000D01*
X13055000Y-7677000D02*
X13085000Y-7707000D01*
X13085000Y-7677000D02*
X13055000Y-7707000D01*
X13096000Y-10186000D02*
X13126000Y-10216000D01*
X13126000Y-10186000D02*
X13096000Y-10216000D01*
X13110000Y-9574000D02*
X13140000Y-9604000D01*
X13140000Y-9574000D02*
X13110000Y-9604000D01*
X13159000Y-9095000D02*
X13189000Y-9125000D01*
X13189000Y-9095000D02*
X13159000Y-9125000D01*
X13163000Y-10280000D02*
X13193000Y-10310000D01*
X13193000Y-10280000D02*
X13163000Y-10310000D01*
X13202000Y-7505000D02*
X13232000Y-7535000D01*
X13232000Y-7505000D02*
X13202000Y-7535000D01*
X13220000Y-10342000D02*
X13250000Y-10372000D01*
X13250000Y-10342000D02*
X13220000Y-10372000D01*
X13268000Y-7594000D02*
X13298000Y-7624000D01*
X13298000Y-7594000D02*
X13268000Y-7624000D01*
X13280000Y-10408000D02*
X13310000Y-10438000D01*
X13310000Y-10408000D02*
X13280000Y-10438000D01*
X13287000Y-7912000D02*
X13317000Y-7942000D01*
X13317000Y-7912000D02*
X13287000Y-7942000D01*
X13351000Y-8166000D02*
X13381000Y-8196000D01*
X13381000Y-8166000D02*
X13351000Y-8196000D01*
X13355000Y-7711000D02*
X13385000Y-7741000D01*
X13385000Y-7711000D02*
X13355000Y-7741000D01*
X13447000Y-10589000D02*
X13477000Y-10619000D01*
X13477000Y-10589000D02*
X13447000Y-10619000D01*
X13567000Y-7609000D02*
X13597000Y-7639000D01*
X13597000Y-7609000D02*
X13567000Y-7639000D01*
X13608000Y-7897000D02*
X13638000Y-7927000D01*
X13638000Y-7897000D02*
X13608000Y-7927000D01*
X13609000Y-8331000D02*
X13639000Y-8361000D01*
X13639000Y-8331000D02*
X13609000Y-8361000D01*
X13610000Y-10471000D02*
X13640000Y-10501000D01*
X13640000Y-10471000D02*
X13610000Y-10501000D01*
X13686000Y-7924000D02*
X13716000Y-7954000D01*
X13716000Y-7924000D02*
X13686000Y-7954000D01*
X13691000Y-8471000D02*
X13721000Y-8501000D01*
X13721000Y-8471000D02*
X13691000Y-8501000D01*
X13770000Y-8362000D02*
X13800000Y-8392000D01*
X13800000Y-8362000D02*
X13770000Y-8392000D01*
X13792000Y-10342000D02*
X13822000Y-10372000D01*
X13822000Y-10342000D02*
X13792000Y-10372000D01*
X13806000Y-7706000D02*
X13836000Y-7736000D01*
X13836000Y-7706000D02*
X13806000Y-7736000D01*
X13843000Y-7201000D02*
X13873000Y-7231000D01*
X13873000Y-7201000D02*
X13843000Y-7231000D01*
X13844000Y-7307000D02*
X13874000Y-7337000D01*
X13874000Y-7307000D02*
X13844000Y-7337000D01*
X13847000Y-7494000D02*
X13877000Y-7524000D01*
X13877000Y-7494000D02*
X13847000Y-7524000D01*
X13856000Y-10280000D02*
X13886000Y-10310000D01*
X13886000Y-10280000D02*
X13856000Y-10310000D01*
X13858000Y-10411000D02*
X13888000Y-10441000D01*
X13888000Y-10411000D02*
X13858000Y-10441000D01*
X13870000Y-7906000D02*
X13900000Y-7936000D01*
X13900000Y-7906000D02*
X13870000Y-7936000D01*
X13873000Y-8145000D02*
X13903000Y-8175000D01*
X13903000Y-8145000D02*
X13873000Y-8175000D01*
X13974000Y-11756000D02*
X14004000Y-11786000D01*
X14004000Y-11756000D02*
X13974000Y-11786000D01*
X13999000Y-11251000D02*
X14029000Y-11281000D01*
X14029000Y-11251000D02*
X13999000Y-11281000D01*
X13999000Y-11307000D02*
X14029000Y-11337000D01*
X14029000Y-11307000D02*
X13999000Y-11337000D01*
X14003000Y-11189000D02*
X14033000Y-11219000D01*
X14033000Y-11189000D02*
X14003000Y-11219000D01*
X14029000Y-8741000D02*
X14059000Y-8771000D01*
X14059000Y-8741000D02*
X14029000Y-8771000D01*
X14061000Y-11312000D02*
X14091000Y-11342000D01*
X14091000Y-11312000D02*
X14061000Y-11342000D01*
X14063000Y-11249000D02*
X14093000Y-11279000D01*
X14093000Y-11249000D02*
X14063000Y-11279000D01*
X14072000Y-11182000D02*
X14102000Y-11212000D01*
X14102000Y-11182000D02*
X14072000Y-11212000D01*
X14151000Y-10411000D02*
X14181000Y-10441000D01*
X14181000Y-10411000D02*
X14151000Y-10441000D01*
X14254000Y-10539000D02*
X14284000Y-10569000D01*
X14284000Y-10539000D02*
X14254000Y-10569000D01*
X14339000Y-11870000D02*
X14369000Y-11900000D01*
X14369000Y-11870000D02*
X14339000Y-11900000D01*
X14370000Y-8949000D02*
X14400000Y-8979000D01*
X14400000Y-8949000D02*
X14370000Y-8979000D01*
X14400000Y-11867000D02*
X14430000Y-11897000D01*
X14430000Y-11867000D02*
X14400000Y-11897000D01*
X14467000Y-8872000D02*
X14497000Y-8902000D01*
X14497000Y-8872000D02*
X14467000Y-8902000D01*
X14480000Y-11869000D02*
X14510000Y-11899000D01*
X14510000Y-11869000D02*
X14480000Y-11899000D01*
X14544000Y-11870000D02*
X14574000Y-11900000D01*
X14574000Y-11870000D02*
X14544000Y-11900000D01*
X14568000Y-8870000D02*
X14598000Y-8900000D01*
X14598000Y-8870000D02*
X14568000Y-8900000D01*
X14582000Y-7210000D02*
X14612000Y-7240000D01*
X14612000Y-7210000D02*
X14582000Y-7240000D01*
X14631000Y-11403000D02*
X14661000Y-11433000D01*
X14661000Y-11403000D02*
X14631000Y-11433000D01*
X14633000Y-9575000D02*
X14663000Y-9605000D01*
X14663000Y-9575000D02*
X14633000Y-9605000D01*
X14642000Y-7771000D02*
X14672000Y-7801000D01*
X14672000Y-7771000D02*
X14642000Y-7801000D01*
X14652000Y-9690000D02*
X14682000Y-9720000D01*
X14682000Y-9690000D02*
X14652000Y-9720000D01*
X14673000Y-7990000D02*
X14703000Y-8020000D01*
X14703000Y-7990000D02*
X14673000Y-8020000D01*
X14673000Y-11110000D02*
X14703000Y-11140000D01*
X14703000Y-11110000D02*
X14673000Y-11140000D01*
X14719000Y-7946000D02*
X14749000Y-7976000D01*
X14749000Y-7946000D02*
X14719000Y-7976000D01*
X14722000Y-7210000D02*
X14752000Y-7240000D01*
X14752000Y-7210000D02*
X14722000Y-7240000D01*
X14763000Y-7910000D02*
X14793000Y-7940000D01*
X14793000Y-7910000D02*
X14763000Y-7940000D01*
X14852000Y-7211000D02*
X14882000Y-7241000D01*
X14882000Y-7211000D02*
X14852000Y-7241000D01*
X14970000Y-7213000D02*
X15000000Y-7243000D01*
X15000000Y-7213000D02*
X14970000Y-7243000D01*
X15054000Y-10247000D02*
X15084000Y-10277000D01*
X15084000Y-10247000D02*
X15054000Y-10277000D01*
X15062000Y-9235000D02*
X15092000Y-9265000D01*
X15092000Y-9235000D02*
X15062000Y-9265000D01*
X15068000Y-7210000D02*
X15098000Y-7240000D01*
X15098000Y-7210000D02*
X15068000Y-7240000D01*
X15087000Y-8065000D02*
X15117000Y-8095000D01*
X15117000Y-8065000D02*
X15087000Y-8095000D01*
X15088000Y-8126000D02*
X15118000Y-8156000D01*
X15118000Y-8126000D02*
X15088000Y-8156000D01*
X15190000Y-7213000D02*
X15220000Y-7243000D01*
X15220000Y-7213000D02*
X15190000Y-7243000D01*
X15198000Y-10263000D02*
X15228000Y-10293000D01*
X15228000Y-10263000D02*
X15198000Y-10293000D01*
X15228000Y-11184000D02*
X15258000Y-11214000D01*
X15258000Y-11184000D02*
X15228000Y-11214000D01*
X15242000Y-9846000D02*
X15272000Y-9876000D01*
X15272000Y-9846000D02*
X15242000Y-9876000D01*
X15359000Y-11714000D02*
X15389000Y-11744000D01*
X15389000Y-11714000D02*
X15359000Y-11744000D01*
X15464000Y-9776000D02*
X15494000Y-9806000D01*
X15494000Y-9776000D02*
X15464000Y-9806000D01*
X15467000Y-9693000D02*
X15497000Y-9723000D01*
X15497000Y-9693000D02*
X15467000Y-9723000D01*
X15555000Y-9779000D02*
X15585000Y-9809000D01*
X15585000Y-9779000D02*
X15555000Y-9809000D01*
X15556000Y-9693000D02*
X15586000Y-9723000D01*
X15586000Y-9693000D02*
X15556000Y-9723000D01*
X15616000Y-8068000D02*
X15646000Y-8098000D01*
X15646000Y-8068000D02*
X15616000Y-8098000D01*
X15617000Y-7427000D02*
X15647000Y-7457000D01*
X15647000Y-7427000D02*
X15617000Y-7457000D01*
X15617000Y-7852000D02*
X15647000Y-7882000D01*
X15647000Y-7852000D02*
X15617000Y-7882000D01*
X15652000Y-9695000D02*
X15682000Y-9725000D01*
X15682000Y-9695000D02*
X15652000Y-9725000D01*
X15653000Y-9780000D02*
X15683000Y-9810000D01*
X15683000Y-9780000D02*
X15653000Y-9810000D01*
X15694000Y-11646000D02*
X15724000Y-11676000D01*
X15724000Y-11646000D02*
X15694000Y-11676000D01*
X15749000Y-9781000D02*
X15779000Y-9811000D01*
X15779000Y-9781000D02*
X15749000Y-9811000D01*
X15751000Y-9699000D02*
X15781000Y-9729000D01*
X15781000Y-9699000D02*
X15751000Y-9729000D01*
X15753000Y-9126000D02*
X15783000Y-9156000D01*
X15783000Y-9126000D02*
X15753000Y-9156000D01*
X15762000Y-7890000D02*
X15792000Y-7920000D01*
X15792000Y-7890000D02*
X15762000Y-7920000D01*
X15766000Y-11648000D02*
X15796000Y-11678000D01*
X15796000Y-11648000D02*
X15766000Y-11678000D01*
X15776000Y-11370000D02*
X15806000Y-11400000D01*
X15806000Y-11370000D02*
X15776000Y-11400000D01*
X15820000Y-9066000D02*
X15850000Y-9096000D01*
X15850000Y-9066000D02*
X15820000Y-9096000D01*
X15830000Y-11647000D02*
X15860000Y-11677000D01*
X15860000Y-11647000D02*
X15830000Y-11677000D01*
X15863000Y-8209000D02*
X15893000Y-8239000D01*
X15893000Y-8209000D02*
X15863000Y-8239000D01*
X15948000Y-8715000D02*
X15978000Y-8745000D01*
X15978000Y-8715000D02*
X15948000Y-8745000D01*
X15992000Y-10631000D02*
X16022000Y-10661000D01*
X16022000Y-10631000D02*
X15992000Y-10661000D01*
X15994000Y-7789000D02*
X16024000Y-7819000D01*
X16024000Y-7789000D02*
X15994000Y-7819000D01*
X15994000Y-8208000D02*
X16024000Y-8238000D01*
X16024000Y-8208000D02*
X15994000Y-8238000D01*
X16003000Y-9461000D02*
X16033000Y-9491000D01*
X16033000Y-9461000D02*
X16003000Y-9491000D01*
X16003000Y-9528000D02*
X16033000Y-9558000D01*
X16033000Y-9528000D02*
X16003000Y-9558000D01*
X16054000Y-10905000D02*
X16084000Y-10935000D01*
X16084000Y-10905000D02*
X16054000Y-10935000D01*
X16067000Y-9524000D02*
X16097000Y-9554000D01*
X16097000Y-9524000D02*
X16067000Y-9554000D01*
X16070000Y-9458000D02*
X16100000Y-9488000D01*
X16100000Y-9458000D02*
X16070000Y-9488000D01*
X16087000Y-8312000D02*
X16117000Y-8342000D01*
X16117000Y-8312000D02*
X16087000Y-8342000D01*
X16128000Y-8409000D02*
X16158000Y-8439000D01*
X16158000Y-8409000D02*
X16128000Y-8439000D01*
X16133000Y-9461000D02*
X16163000Y-9491000D01*
X16163000Y-9461000D02*
X16133000Y-9491000D01*
X16133000Y-9528000D02*
X16163000Y-9558000D01*
X16163000Y-9528000D02*
X16133000Y-9558000D01*
X16141000Y-7859000D02*
X16171000Y-7889000D01*
X16171000Y-7859000D02*
X16141000Y-7889000D01*
X16142000Y-7312000D02*
X16172000Y-7342000D01*
X16172000Y-7312000D02*
X16142000Y-7342000D01*
X16174000Y-11565000D02*
X16204000Y-11595000D01*
X16204000Y-11565000D02*
X16174000Y-11595000D01*
X16244000Y-7241000D02*
X16274000Y-7271000D01*
X16274000Y-7241000D02*
X16244000Y-7271000D01*
X16245000Y-7148000D02*
X16275000Y-7178000D01*
X16275000Y-7148000D02*
X16245000Y-7178000D01*
X16248000Y-7057000D02*
X16278000Y-7087000D01*
X16278000Y-7057000D02*
X16248000Y-7087000D01*
X16336000Y-7147000D02*
X16366000Y-7177000D01*
X16366000Y-7147000D02*
X16336000Y-7177000D01*
X16337000Y-7056000D02*
X16367000Y-7086000D01*
X16367000Y-7056000D02*
X16337000Y-7086000D01*
X16337000Y-7241000D02*
X16367000Y-7271000D01*
X16367000Y-7241000D02*
X16337000Y-7271000D01*
X16376000Y-9907000D02*
X16406000Y-9937000D01*
X16406000Y-9907000D02*
X16376000Y-9937000D01*
X16407000Y-8409000D02*
X16437000Y-8439000D01*
X16437000Y-8409000D02*
X16407000Y-8439000D01*
X16419000Y-7240000D02*
X16449000Y-7270000D01*
X16449000Y-7240000D02*
X16419000Y-7270000D01*
X16421000Y-7056000D02*
X16451000Y-7086000D01*
X16451000Y-7056000D02*
X16421000Y-7086000D01*
X16421000Y-7146000D02*
X16451000Y-7176000D01*
X16451000Y-7146000D02*
X16421000Y-7176000D01*
X16444000Y-11253000D02*
X16474000Y-11283000D01*
X16474000Y-11253000D02*
X16444000Y-11283000D01*
X16445000Y-11055000D02*
X16475000Y-11085000D01*
X16475000Y-11055000D02*
X16445000Y-11085000D01*
X16445000Y-11146000D02*
X16475000Y-11176000D01*
X16475000Y-11146000D02*
X16445000Y-11176000D01*
X16447000Y-10773000D02*
X16477000Y-10803000D01*
X16477000Y-10773000D02*
X16447000Y-10803000D01*
X16551000Y-9677000D02*
X16581000Y-9707000D01*
X16581000Y-9677000D02*
X16551000Y-9707000D01*
X16621000Y-11377000D02*
X16651000Y-11407000D01*
X16651000Y-11377000D02*
X16621000Y-11407000D01*
X16627000Y-8342000D02*
X16657000Y-8372000D01*
X16657000Y-8342000D02*
X16627000Y-8372000D01*
X16637000Y-11660000D02*
X16667000Y-11690000D01*
X16667000Y-11660000D02*
X16637000Y-11690000D01*
X16639000Y-11521000D02*
X16669000Y-11551000D01*
X16669000Y-11521000D02*
X16639000Y-11551000D01*
X16640000Y-11597000D02*
X16670000Y-11627000D01*
X16670000Y-11597000D02*
X16640000Y-11627000D01*
X16685000Y-8242000D02*
X16715000Y-8272000D01*
X16715000Y-8242000D02*
X16685000Y-8272000D01*
X16805000Y-7258000D02*
X16835000Y-7288000D01*
X16835000Y-7258000D02*
X16805000Y-7288000D01*
X16879000Y-8342000D02*
X16909000Y-8372000D01*
X16909000Y-8342000D02*
X16879000Y-8372000D01*
X17022000Y-7258000D02*
X17052000Y-7288000D01*
X17052000Y-7258000D02*
X17022000Y-7288000D01*
X17057000Y-9037000D02*
X17087000Y-9067000D01*
X17087000Y-9037000D02*
X17057000Y-9067000D01*
X17120000Y-10650000D02*
X17150000Y-10680000D01*
X17150000Y-10650000D02*
X17120000Y-10680000D01*
X17266000Y-11210000D02*
X17296000Y-11240000D01*
X17296000Y-11210000D02*
X17266000Y-11240000D01*
X17268000Y-11273000D02*
X17298000Y-11303000D01*
X17298000Y-11273000D02*
X17268000Y-11303000D01*
X17286000Y-11482000D02*
X17316000Y-11512000D01*
X17316000Y-11482000D02*
X17286000Y-11512000D01*
X17287000Y-11539000D02*
X17317000Y-11569000D01*
X17317000Y-11539000D02*
X17287000Y-11569000D01*
X17347000Y-11477000D02*
X17377000Y-11507000D01*
X17377000Y-11477000D02*
X17347000Y-11507000D01*
X17347000Y-11538000D02*
X17377000Y-11568000D01*
X17377000Y-11538000D02*
X17347000Y-11568000D01*
X17407000Y-8631000D02*
X17437000Y-8661000D01*
X17437000Y-8631000D02*
X17407000Y-8661000D01*
X17414000Y-8704000D02*
X17444000Y-8734000D01*
X17444000Y-8704000D02*
X17414000Y-8734000D01*
X17476000Y-8629000D02*
X17506000Y-8659000D01*
X17506000Y-8629000D02*
X17476000Y-8659000D01*
X17476000Y-8702000D02*
X17506000Y-8732000D01*
X17506000Y-8702000D02*
X17476000Y-8732000D01*
X17542000Y-8628000D02*
X17572000Y-8658000D01*
X17572000Y-8628000D02*
X17542000Y-8658000D01*
X17544000Y-8698000D02*
X17574000Y-8728000D01*
X17574000Y-8698000D02*
X17544000Y-8728000D01*
X17581000Y-10657000D02*
X17611000Y-10687000D01*
X17611000Y-10657000D02*
X17581000Y-10687000D01*
X17616000Y-8697000D02*
X17646000Y-8727000D01*
X17646000Y-8697000D02*
X17616000Y-8727000D01*
X17619000Y-8627000D02*
X17649000Y-8657000D01*
X17649000Y-8627000D02*
X17619000Y-8657000D01*
X17745000Y-11753000D02*
X17775000Y-11783000D01*
X17775000Y-11753000D02*
X17745000Y-11783000D01*
X17898000Y-11566000D02*
X17928000Y-11596000D01*
X17928000Y-11566000D02*
X17898000Y-11596000D01*
X18253000Y-10516000D02*
X18283000Y-10546000D01*
X18283000Y-10516000D02*
X18253000Y-10546000D01*
X18463000Y-9681000D02*
X18493000Y-9711000D01*
X18493000Y-9681000D02*
X18463000Y-9711000D01*
X11124000Y-7081000D02*
G75*
G02*
X11084000Y-7081000I-20000J0D01*
G01*
X11084000Y-7081000D02*
G75*
G02*
X11124000Y-7081000I20000J0D01*
G01*
X18059000Y-11073000D02*
G75*
G02*
X18019000Y-11073000I-20000J0D01*
G01*
X18019000Y-11073000D02*
G75*
G02*
X18059000Y-11073000I20000J0D01*
G01*
X18059000Y-11943000D02*
G75*
G02*
X18019000Y-11943000I-20000J0D01*
G01*
X18019000Y-11943000D02*
G75*
G02*
X18059000Y-11943000I20000J0D01*
G01*
X11025000Y-12280000D02*
X11025000Y-12320000D01*
X11005000Y-12300000D02*
X11045000Y-12300000D01*
X11035000Y-6680000D02*
X11035000Y-6720000D01*
X11015000Y-6700000D02*
X11055000Y-6700000D01*
X11073327Y-12163327D02*
X11073327Y-12203327D01*
X11053327Y-12183327D02*
X11093327Y-12183327D01*
X11073327Y-12396673D02*
X11073327Y-12436673D01*
X11053327Y-12416673D02*
X11093327Y-12416673D01*
X11083327Y-6563327D02*
X11083327Y-6603327D01*
X11063327Y-6583327D02*
X11103327Y-6583327D01*
X11083327Y-6796673D02*
X11083327Y-6836673D01*
X11063327Y-6816673D02*
X11103327Y-6816673D01*
X11190000Y-12115000D02*
X11190000Y-12155000D01*
X11170000Y-12135000D02*
X11210000Y-12135000D01*
X11190000Y-12445000D02*
X11190000Y-12485000D01*
X11170000Y-12465000D02*
X11210000Y-12465000D01*
X11200000Y-6515000D02*
X11200000Y-6555000D01*
X11180000Y-6535000D02*
X11220000Y-6535000D01*
X11200000Y-6845000D02*
X11200000Y-6885000D01*
X11180000Y-6865000D02*
X11220000Y-6865000D01*
X11306673Y-12163327D02*
X11306673Y-12203327D01*
X11286673Y-12183327D02*
X11326673Y-12183327D01*
X11306673Y-12396673D02*
X11306673Y-12436673D01*
X11286673Y-12416673D02*
X11326673Y-12416673D01*
X11316673Y-6563327D02*
X11316673Y-6603327D01*
X11296673Y-6583327D02*
X11336673Y-6583327D01*
X11316673Y-6796673D02*
X11316673Y-6836673D01*
X11296673Y-6816673D02*
X11336673Y-6816673D01*
X11355000Y-12280000D02*
X11355000Y-12320000D01*
X11335000Y-12300000D02*
X11375000Y-12300000D01*
X11365000Y-6680000D02*
X11365000Y-6720000D01*
X11345000Y-6700000D02*
X11385000Y-6700000D01*
X18135000Y-6680000D02*
X18135000Y-6720000D01*
X18115000Y-6700000D02*
X18155000Y-6700000D01*
X18135000Y-12280000D02*
X18135000Y-12320000D01*
X18115000Y-12300000D02*
X18155000Y-12300000D01*
X18183327Y-6563327D02*
X18183327Y-6603327D01*
X18163327Y-6583327D02*
X18203327Y-6583327D01*
X18183327Y-6796673D02*
X18183327Y-6836673D01*
X18163327Y-6816673D02*
X18203327Y-6816673D01*
X18183327Y-12163327D02*
X18183327Y-12203327D01*
X18163327Y-12183327D02*
X18203327Y-12183327D01*
X18183327Y-12396673D02*
X18183327Y-12436673D01*
X18163327Y-12416673D02*
X18203327Y-12416673D01*
X18300000Y-6515000D02*
X18300000Y-6555000D01*
X18280000Y-6535000D02*
X18320000Y-6535000D01*
X18300000Y-6845000D02*
X18300000Y-6885000D01*
X18280000Y-6865000D02*
X18320000Y-6865000D01*
X18300000Y-12115000D02*
X18300000Y-12155000D01*
X18280000Y-12135000D02*
X18320000Y-12135000D01*
X18300000Y-12445000D02*
X18300000Y-12485000D01*
X18280000Y-12465000D02*
X18320000Y-12465000D01*
X18416673Y-6563327D02*
X18416673Y-6603327D01*
X18396673Y-6583327D02*
X18436673Y-6583327D01*
X18416673Y-6796673D02*
X18416673Y-6836673D01*
X18396673Y-6816673D02*
X18436673Y-6816673D01*
X18416673Y-12163327D02*
X18416673Y-12203327D01*
X18396673Y-12183327D02*
X18436673Y-12183327D01*
X18416673Y-12396673D02*
X18416673Y-12436673D01*
X18396673Y-12416673D02*
X18436673Y-12416673D01*
X18465000Y-6680000D02*
X18465000Y-6720000D01*
X18445000Y-6700000D02*
X18485000Y-6700000D01*
X18465000Y-12280000D02*
X18465000Y-12320000D01*
X18445000Y-12300000D02*
X18485000Y-12300000D01*
X16981678Y-11773678D02*
X16981678Y-11738322D01*
X16946322Y-11738322D01*
X16946322Y-11773678D01*
X16981678Y-11773678D01*
X11150000Y-7362500D02*
X11187500Y-7325000D01*
X11150000Y-7287500D01*
X11112500Y-7325000D01*
X11150000Y-7362500D01*
X11150000Y-7562500D02*
X11187500Y-7525000D01*
X11150000Y-7487500D01*
X11112500Y-7525000D01*
X11150000Y-7562500D01*
X11150000Y-7762500D02*
X11187500Y-7725000D01*
X11150000Y-7687500D01*
X11112500Y-7725000D01*
X11150000Y-7762500D01*
X11150000Y-7962500D02*
X11187500Y-7925000D01*
X11150000Y-7887500D01*
X11112500Y-7925000D01*
X11150000Y-7962500D01*
X11150000Y-8162500D02*
X11187500Y-8125000D01*
X11150000Y-8087500D01*
X11112500Y-8125000D01*
X11150000Y-8162500D01*
X17297000Y-7034000D02*
X17381000Y-7118000D01*
X17381000Y-7034000D02*
X17297000Y-7118000D01*
X17381000Y-7076000D02*
G75*
G02*
X17297000Y-7076000I-42000J0D01*
G01*
X17297000Y-7076000D02*
G75*
G02*
X17381000Y-7076000I42000J0D01*
G01*
X17297000Y-7288000D02*
X17381000Y-7372000D01*
X17381000Y-7288000D02*
X17297000Y-7372000D01*
X17381000Y-7330000D02*
G75*
G02*
X17297000Y-7330000I-42000J0D01*
G01*
X17297000Y-7330000D02*
G75*
G02*
X17381000Y-7330000I42000J0D01*
G01*
X17424000Y-7161000D02*
X17508000Y-7245000D01*
X17508000Y-7161000D02*
X17424000Y-7245000D01*
X17508000Y-7203000D02*
G75*
G02*
X17424000Y-7203000I-42000J0D01*
G01*
X17424000Y-7203000D02*
G75*
G02*
X17508000Y-7203000I42000J0D01*
G01*
X17551000Y-7034000D02*
X17635000Y-7118000D01*
X17635000Y-7034000D02*
X17551000Y-7118000D01*
X17635000Y-7076000D02*
G75*
G02*
X17551000Y-7076000I-42000J0D01*
G01*
X17551000Y-7076000D02*
G75*
G02*
X17635000Y-7076000I42000J0D01*
G01*
X17551000Y-7288000D02*
X17635000Y-7372000D01*
X17635000Y-7288000D02*
X17551000Y-7372000D01*
X17635000Y-7330000D02*
G75*
G02*
X17551000Y-7330000I-42000J0D01*
G01*
X17551000Y-7330000D02*
G75*
G02*
X17635000Y-7330000I42000J0D01*
G01*
X12064500Y-6522500D02*
X12151500Y-6609500D01*
X12151500Y-6522500D02*
X12064500Y-6609500D01*
X12108000Y-6522500D02*
X12108000Y-6609500D01*
X12064500Y-6566000D02*
X12151500Y-6566000D01*
X12064500Y-6672500D02*
X12151500Y-6759500D01*
X12151500Y-6672500D02*
X12064500Y-6759500D01*
X12108000Y-6672500D02*
X12108000Y-6759500D01*
X12064500Y-6716000D02*
X12151500Y-6716000D01*
X12064500Y-6822500D02*
X12151500Y-6909500D01*
X12151500Y-6822500D02*
X12064500Y-6909500D01*
X12108000Y-6822500D02*
X12108000Y-6909500D01*
X12064500Y-6866000D02*
X12151500Y-6866000D01*
X12526500Y-6523500D02*
X12613500Y-6610500D01*
X12613500Y-6523500D02*
X12526500Y-6610500D01*
X12570000Y-6523500D02*
X12570000Y-6610500D01*
X12526500Y-6567000D02*
X12613500Y-6567000D01*
X12526500Y-6673500D02*
X12613500Y-6760500D01*
X12613500Y-6673500D02*
X12526500Y-6760500D01*
X12570000Y-6673500D02*
X12570000Y-6760500D01*
X12526500Y-6717000D02*
X12613500Y-6717000D01*
X12526500Y-6823500D02*
X12613500Y-6910500D01*
X12613500Y-6823500D02*
X12526500Y-6910500D01*
X12570000Y-6823500D02*
X12570000Y-6910500D01*
X12526500Y-6867000D02*
X12613500Y-6867000D01*
X12987500Y-6525500D02*
X13074500Y-6612500D01*
X13074500Y-6525500D02*
X12987500Y-6612500D01*
X13031000Y-6525500D02*
X13031000Y-6612500D01*
X12987500Y-6569000D02*
X13074500Y-6569000D01*
X12987500Y-6675500D02*
X13074500Y-6762500D01*
X13074500Y-6675500D02*
X12987500Y-6762500D01*
X13031000Y-6675500D02*
X13031000Y-6762500D01*
X12987500Y-6719000D02*
X13074500Y-6719000D01*
X12987500Y-6825500D02*
X13074500Y-6912500D01*
X13074500Y-6825500D02*
X12987500Y-6912500D01*
X13031000Y-6825500D02*
X13031000Y-6912500D01*
X12987500Y-6869000D02*
X13074500Y-6869000D01*
X13109500Y-12074500D02*
X13196500Y-12161500D01*
X13196500Y-12074500D02*
X13109500Y-12161500D01*
X13153000Y-12074500D02*
X13153000Y-12161500D01*
X13109500Y-12118000D02*
X13196500Y-12118000D01*
X13109500Y-12224500D02*
X13196500Y-12311500D01*
X13196500Y-12224500D02*
X13109500Y-12311500D01*
X13153000Y-12224500D02*
X13153000Y-12311500D01*
X13109500Y-12268000D02*
X13196500Y-12268000D01*
X13109500Y-12374500D02*
X13196500Y-12461500D01*
X13196500Y-12374500D02*
X13109500Y-12461500D01*
X13153000Y-12374500D02*
X13153000Y-12461500D01*
X13109500Y-12418000D02*
X13196500Y-12418000D01*
X13451500Y-6529500D02*
X13538500Y-6616500D01*
X13538500Y-6529500D02*
X13451500Y-6616500D01*
X13495000Y-6529500D02*
X13495000Y-6616500D01*
X13451500Y-6573000D02*
X13538500Y-6573000D01*
X13451500Y-6679500D02*
X13538500Y-6766500D01*
X13538500Y-6679500D02*
X13451500Y-6766500D01*
X13495000Y-6679500D02*
X13495000Y-6766500D01*
X13451500Y-6723000D02*
X13538500Y-6723000D01*
X13451500Y-6829500D02*
X13538500Y-6916500D01*
X13538500Y-6829500D02*
X13451500Y-6916500D01*
X13495000Y-6829500D02*
X13495000Y-6916500D01*
X13451500Y-6873000D02*
X13538500Y-6873000D01*
X13588500Y-12076500D02*
X13675500Y-12163500D01*
X13675500Y-12076500D02*
X13588500Y-12163500D01*
X13632000Y-12076500D02*
X13632000Y-12163500D01*
X13588500Y-12120000D02*
X13675500Y-12120000D01*
X13588500Y-12226500D02*
X13675500Y-12313500D01*
X13675500Y-12226500D02*
X13588500Y-12313500D01*
X13632000Y-12226500D02*
X13632000Y-12313500D01*
X13588500Y-12270000D02*
X13675500Y-12270000D01*
X13588500Y-12376500D02*
X13675500Y-12463500D01*
X13675500Y-12376500D02*
X13588500Y-12463500D01*
X13632000Y-12376500D02*
X13632000Y-12463500D01*
X13588500Y-12420000D02*
X13675500Y-12420000D01*
X14065500Y-12075500D02*
X14152500Y-12162500D01*
X14152500Y-12075500D02*
X14065500Y-12162500D01*
X14109000Y-12075500D02*
X14109000Y-12162500D01*
X14065500Y-12119000D02*
X14152500Y-12119000D01*
X14065500Y-12225500D02*
X14152500Y-12312500D01*
X14152500Y-12225500D02*
X14065500Y-12312500D01*
X14109000Y-12225500D02*
X14109000Y-12312500D01*
X14065500Y-12269000D02*
X14152500Y-12269000D01*
X14065500Y-12375500D02*
X14152500Y-12462500D01*
X14152500Y-12375500D02*
X14065500Y-12462500D01*
X14109000Y-12375500D02*
X14109000Y-12462500D01*
X14065500Y-12419000D02*
X14152500Y-12419000D01*
X14082500Y-6526500D02*
X14169500Y-6613500D01*
X14169500Y-6526500D02*
X14082500Y-6613500D01*
X14126000Y-6526500D02*
X14126000Y-6613500D01*
X14082500Y-6570000D02*
X14169500Y-6570000D01*
X14082500Y-6676500D02*
X14169500Y-6763500D01*
X14169500Y-6676500D02*
X14082500Y-6763500D01*
X14126000Y-6676500D02*
X14126000Y-6763500D01*
X14082500Y-6720000D02*
X14169500Y-6720000D01*
X14082500Y-6826500D02*
X14169500Y-6913500D01*
X14169500Y-6826500D02*
X14082500Y-6913500D01*
X14126000Y-6826500D02*
X14126000Y-6913500D01*
X14082500Y-6870000D02*
X14169500Y-6870000D01*
X14545500Y-6528500D02*
X14632500Y-6615500D01*
X14632500Y-6528500D02*
X14545500Y-6615500D01*
X14589000Y-6528500D02*
X14589000Y-6615500D01*
X14545500Y-6572000D02*
X14632500Y-6572000D01*
X14545500Y-6678500D02*
X14632500Y-6765500D01*
X14632500Y-6678500D02*
X14545500Y-6765500D01*
X14589000Y-6678500D02*
X14589000Y-6765500D01*
X14545500Y-6722000D02*
X14632500Y-6722000D01*
X14545500Y-6828500D02*
X14632500Y-6915500D01*
X14632500Y-6828500D02*
X14545500Y-6915500D01*
X14589000Y-6828500D02*
X14589000Y-6915500D01*
X14545500Y-6872000D02*
X14632500Y-6872000D01*
X14546500Y-12076500D02*
X14633500Y-12163500D01*
X14633500Y-12076500D02*
X14546500Y-12163500D01*
X14590000Y-12076500D02*
X14590000Y-12163500D01*
X14546500Y-12120000D02*
X14633500Y-12120000D01*
X14546500Y-12226500D02*
X14633500Y-12313500D01*
X14633500Y-12226500D02*
X14546500Y-12313500D01*
X14590000Y-12226500D02*
X14590000Y-12313500D01*
X14546500Y-12270000D02*
X14633500Y-12270000D01*
X14546500Y-12376500D02*
X14633500Y-12463500D01*
X14633500Y-12376500D02*
X14546500Y-12463500D01*
X14590000Y-12376500D02*
X14590000Y-12463500D01*
X14546500Y-12420000D02*
X14633500Y-12420000D01*
X15008500Y-6528500D02*
X15095500Y-6615500D01*
X15095500Y-6528500D02*
X15008500Y-6615500D01*
X15052000Y-6528500D02*
X15052000Y-6615500D01*
X15008500Y-6572000D02*
X15095500Y-6572000D01*
X15008500Y-6678500D02*
X15095500Y-6765500D01*
X15095500Y-6678500D02*
X15008500Y-6765500D01*
X15052000Y-6678500D02*
X15052000Y-6765500D01*
X15008500Y-6722000D02*
X15095500Y-6722000D01*
X15008500Y-6828500D02*
X15095500Y-6915500D01*
X15095500Y-6828500D02*
X15008500Y-6915500D01*
X15052000Y-6828500D02*
X15052000Y-6915500D01*
X15008500Y-6872000D02*
X15095500Y-6872000D01*
X15024500Y-12078500D02*
X15111500Y-12165500D01*
X15111500Y-12078500D02*
X15024500Y-12165500D01*
X15068000Y-12078500D02*
X15068000Y-12165500D01*
X15024500Y-12122000D02*
X15111500Y-12122000D01*
X15024500Y-12228500D02*
X15111500Y-12315500D01*
X15111500Y-12228500D02*
X15024500Y-12315500D01*
X15068000Y-12228500D02*
X15068000Y-12315500D01*
X15024500Y-12272000D02*
X15111500Y-12272000D01*
X15024500Y-12378500D02*
X15111500Y-12465500D01*
X15111500Y-12378500D02*
X15024500Y-12465500D01*
X15068000Y-12378500D02*
X15068000Y-12465500D01*
X15024500Y-12422000D02*
X15111500Y-12422000D01*
X15469500Y-6527500D02*
X15556500Y-6614500D01*
X15556500Y-6527500D02*
X15469500Y-6614500D01*
X15513000Y-6527500D02*
X15513000Y-6614500D01*
X15469500Y-6571000D02*
X15556500Y-6571000D01*
X15469500Y-6677500D02*
X15556500Y-6764500D01*
X15556500Y-6677500D02*
X15469500Y-6764500D01*
X15513000Y-6677500D02*
X15513000Y-6764500D01*
X15469500Y-6721000D02*
X15556500Y-6721000D01*
X15469500Y-6827500D02*
X15556500Y-6914500D01*
X15556500Y-6827500D02*
X15469500Y-6914500D01*
X15513000Y-6827500D02*
X15513000Y-6914500D01*
X15469500Y-6871000D02*
X15556500Y-6871000D01*
X15497500Y-12080500D02*
X15584500Y-12167500D01*
X15584500Y-12080500D02*
X15497500Y-12167500D01*
X15541000Y-12080500D02*
X15541000Y-12167500D01*
X15497500Y-12124000D02*
X15584500Y-12124000D01*
X15497500Y-12230500D02*
X15584500Y-12317500D01*
X15584500Y-12230500D02*
X15497500Y-12317500D01*
X15541000Y-12230500D02*
X15541000Y-12317500D01*
X15497500Y-12274000D02*
X15584500Y-12274000D01*
X15497500Y-12380500D02*
X15584500Y-12467500D01*
X15584500Y-12380500D02*
X15497500Y-12467500D01*
X15541000Y-12380500D02*
X15541000Y-12467500D01*
X15497500Y-12424000D02*
X15584500Y-12424000D01*
X15930500Y-6528500D02*
X16017500Y-6615500D01*
X16017500Y-6528500D02*
X15930500Y-6615500D01*
X15974000Y-6528500D02*
X15974000Y-6615500D01*
X15930500Y-6572000D02*
X16017500Y-6572000D01*
X15930500Y-6678500D02*
X16017500Y-6765500D01*
X16017500Y-6678500D02*
X15930500Y-6765500D01*
X15974000Y-6678500D02*
X15974000Y-6765500D01*
X15930500Y-6722000D02*
X16017500Y-6722000D01*
X15930500Y-6828500D02*
X16017500Y-6915500D01*
X16017500Y-6828500D02*
X15930500Y-6915500D01*
X15974000Y-6828500D02*
X15974000Y-6915500D01*
X15930500Y-6872000D02*
X16017500Y-6872000D01*
X18258500Y-8920500D02*
X18345500Y-9007500D01*
X18345500Y-8920500D02*
X18258500Y-9007500D01*
X18302000Y-8920500D02*
X18302000Y-9007500D01*
X18258500Y-8964000D02*
X18345500Y-8964000D01*
X18258500Y-9070500D02*
X18345500Y-9157500D01*
X18345500Y-9070500D02*
X18258500Y-9157500D01*
X18302000Y-9070500D02*
X18302000Y-9157500D01*
X18258500Y-9114000D02*
X18345500Y-9114000D01*
X18258500Y-9220500D02*
X18345500Y-9307500D01*
X18345500Y-9220500D02*
X18258500Y-9307500D01*
X18302000Y-9220500D02*
X18302000Y-9307500D01*
X18258500Y-9264000D02*
X18345500Y-9264000D01*
X18258500Y-9370500D02*
X18345500Y-9457500D01*
X18345500Y-9370500D02*
X18258500Y-9457500D01*
X18302000Y-9370500D02*
X18302000Y-9457500D01*
X18258500Y-9414000D02*
X18345500Y-9414000D01*
X11750000Y-9075000D02*
X11850000Y-9175000D01*
X11850000Y-9075000D02*
X11750000Y-9175000D01*
X11835356Y-9160356D02*
X11835356Y-9089644D01*
X11764644Y-9089644D01*
X11764644Y-9160356D01*
X11835356Y-9160356D01*
X12250000Y-9075000D02*
X12350000Y-9175000D01*
X12350000Y-9075000D02*
X12250000Y-9175000D01*
X12335356Y-9160356D02*
X12335356Y-9089644D01*
X12264644Y-9089644D01*
X12264644Y-9160356D01*
X12335356Y-9160356D01*
X13238000Y-11525000D02*
X13338000Y-11625000D01*
X13338000Y-11525000D02*
X13238000Y-11625000D01*
X13323356Y-11610356D02*
X13323356Y-11539644D01*
X13252644Y-11539644D01*
X13252644Y-11610356D01*
X13323356Y-11610356D01*
X13492000Y-11525000D02*
X13592000Y-11625000D01*
X13592000Y-11525000D02*
X13492000Y-11625000D01*
X13577356Y-11610356D02*
X13577356Y-11539644D01*
X13506644Y-11539644D01*
X13506644Y-11610356D01*
X13577356Y-11610356D01*
X13607500Y-10646500D02*
X13707500Y-10746500D01*
X13707500Y-10646500D02*
X13607500Y-10746500D01*
X13692856Y-10731856D02*
X13692856Y-10661144D01*
X13622144Y-10661144D01*
X13622144Y-10731856D01*
X13692856Y-10731856D01*
X13607500Y-10900500D02*
X13707500Y-11000500D01*
X13707500Y-10900500D02*
X13607500Y-11000500D01*
X13692856Y-10985856D02*
X13692856Y-10915144D01*
X13622144Y-10915144D01*
X13622144Y-10985856D01*
X13692856Y-10985856D01*
X13746000Y-11525000D02*
X13846000Y-11625000D01*
X13846000Y-11525000D02*
X13746000Y-11625000D01*
X13831356Y-11610356D02*
X13831356Y-11539644D01*
X13760644Y-11539644D01*
X13760644Y-11610356D01*
X13831356Y-11610356D01*
X13861500Y-10646500D02*
X13961500Y-10746500D01*
X13961500Y-10646500D02*
X13861500Y-10746500D01*
X13946856Y-10731856D02*
X13946856Y-10661144D01*
X13876144Y-10661144D01*
X13876144Y-10731856D01*
X13946856Y-10731856D01*
X13861500Y-10900500D02*
X13961500Y-11000500D01*
X13961500Y-10900500D02*
X13861500Y-11000500D01*
X13946856Y-10985856D02*
X13946856Y-10915144D01*
X13876144Y-10915144D01*
X13876144Y-10985856D01*
X13946856Y-10985856D01*
X14000000Y-11525000D02*
X14100000Y-11625000D01*
X14100000Y-11525000D02*
X14000000Y-11625000D01*
X14085356Y-11610356D02*
X14085356Y-11539644D01*
X14014644Y-11539644D01*
X14014644Y-11610356D01*
X14085356Y-11610356D01*
X14115500Y-10646500D02*
X14215500Y-10746500D01*
X14215500Y-10646500D02*
X14115500Y-10746500D01*
X14200856Y-10731856D02*
X14200856Y-10661144D01*
X14130144Y-10661144D01*
X14130144Y-10731856D01*
X14200856Y-10731856D01*
X14115500Y-10900500D02*
X14215500Y-11000500D01*
X14215500Y-10900500D02*
X14115500Y-11000500D01*
X14200856Y-10985856D02*
X14200856Y-10915144D01*
X14130144Y-10915144D01*
X14130144Y-10985856D01*
X14200856Y-10985856D01*
X15133000Y-10631000D02*
X15233000Y-10731000D01*
X15233000Y-10631000D02*
X15133000Y-10731000D01*
X15218356Y-10716356D02*
X15218356Y-10645644D01*
X15147644Y-10645644D01*
X15147644Y-10716356D01*
X15218356Y-10716356D01*
X15133000Y-10885000D02*
X15233000Y-10985000D01*
X15233000Y-10885000D02*
X15133000Y-10985000D01*
X15218356Y-10970356D02*
X15218356Y-10899644D01*
X15147644Y-10899644D01*
X15147644Y-10970356D01*
X15218356Y-10970356D01*
X15387000Y-10631000D02*
X15487000Y-10731000D01*
X15487000Y-10631000D02*
X15387000Y-10731000D01*
X15472356Y-10716356D02*
X15472356Y-10645644D01*
X15401644Y-10645644D01*
X15401644Y-10716356D01*
X15472356Y-10716356D01*
X15387000Y-10885000D02*
X15487000Y-10985000D01*
X15487000Y-10885000D02*
X15387000Y-10985000D01*
X15472356Y-10970356D02*
X15472356Y-10899644D01*
X15401644Y-10899644D01*
X15401644Y-10970356D01*
X15472356Y-10970356D01*
X15641000Y-10631000D02*
X15741000Y-10731000D01*
X15741000Y-10631000D02*
X15641000Y-10731000D01*
X15726356Y-10716356D02*
X15726356Y-10645644D01*
X15655644Y-10645644D01*
X15655644Y-10716356D01*
X15726356Y-10716356D01*
X15641000Y-10885000D02*
X15741000Y-10985000D01*
X15741000Y-10885000D02*
X15641000Y-10985000D01*
X15726356Y-10970356D02*
X15726356Y-10899644D01*
X15655644Y-10899644D01*
X15655644Y-10970356D01*
X15726356Y-10970356D01*
X16130000Y-11996000D02*
X16230000Y-12096000D01*
X16230000Y-11996000D02*
X16130000Y-12096000D01*
X16215356Y-12081356D02*
X16215356Y-12010644D01*
X16144644Y-12010644D01*
X16144644Y-12081356D01*
X16215356Y-12081356D01*
X16130000Y-12250000D02*
X16230000Y-12350000D01*
X16230000Y-12250000D02*
X16130000Y-12350000D01*
X16215356Y-12335356D02*
X16215356Y-12264644D01*
X16144644Y-12264644D01*
X16144644Y-12335356D01*
X16215356Y-12335356D01*
X16384000Y-11996000D02*
X16484000Y-12096000D01*
X16484000Y-11996000D02*
X16384000Y-12096000D01*
X16469356Y-12081356D02*
X16469356Y-12010644D01*
X16398644Y-12010644D01*
X16398644Y-12081356D01*
X16469356Y-12081356D01*
X16384000Y-12250000D02*
X16484000Y-12350000D01*
X16484000Y-12250000D02*
X16384000Y-12350000D01*
X16469356Y-12335356D02*
X16469356Y-12264644D01*
X16398644Y-12264644D01*
X16398644Y-12335356D01*
X16469356Y-12335356D01*
X16638000Y-11996000D02*
X16738000Y-12096000D01*
X16738000Y-11996000D02*
X16638000Y-12096000D01*
X16723356Y-12081356D02*
X16723356Y-12010644D01*
X16652644Y-12010644D01*
X16652644Y-12081356D01*
X16723356Y-12081356D01*
X16638000Y-12250000D02*
X16738000Y-12350000D01*
X16738000Y-12250000D02*
X16638000Y-12350000D01*
X16723356Y-12335356D02*
X16723356Y-12264644D01*
X16652644Y-12264644D01*
X16652644Y-12335356D01*
X16723356Y-12335356D01*
X16892000Y-11996000D02*
X16992000Y-12096000D01*
X16992000Y-11996000D02*
X16892000Y-12096000D01*
X16977356Y-12081356D02*
X16977356Y-12010644D01*
X16906644Y-12010644D01*
X16906644Y-12081356D01*
X16977356Y-12081356D01*
X16892000Y-12250000D02*
X16992000Y-12350000D01*
X16992000Y-12250000D02*
X16892000Y-12350000D01*
X16977356Y-12335356D02*
X16977356Y-12264644D01*
X16906644Y-12264644D01*
X16906644Y-12335356D01*
X16977356Y-12335356D01*
X17146000Y-11996000D02*
X17246000Y-12096000D01*
X17246000Y-11996000D02*
X17146000Y-12096000D01*
X17231356Y-12081356D02*
X17231356Y-12010644D01*
X17160644Y-12010644D01*
X17160644Y-12081356D01*
X17231356Y-12081356D01*
X17146000Y-12250000D02*
X17246000Y-12350000D01*
X17246000Y-12250000D02*
X17146000Y-12350000D01*
X17231356Y-12335356D02*
X17231356Y-12264644D01*
X17160644Y-12264644D01*
X17160644Y-12335356D01*
X17231356Y-12335356D01*
X17400000Y-11996000D02*
X17500000Y-12096000D01*
X17500000Y-11996000D02*
X17400000Y-12096000D01*
X17485356Y-12081356D02*
X17485356Y-12010644D01*
X17414644Y-12010644D01*
X17414644Y-12081356D01*
X17485356Y-12081356D01*
X17400000Y-12250000D02*
X17500000Y-12350000D01*
X17500000Y-12250000D02*
X17400000Y-12350000D01*
X17485356Y-12335356D02*
X17485356Y-12264644D01*
X17414644Y-12264644D01*
X17414644Y-12335356D01*
X17485356Y-12335356D01*
D13*
X11080000Y-12190000D02*
X11300000Y-12410000D01*
X11300000Y-12190000D02*
X11080000Y-12410000D01*
X11190000Y-12410000D02*
X11300000Y-12300000D01*
X11190000Y-12190000D01*
X11080000Y-12300000D01*
X11190000Y-12410000D01*
X11090000Y-6590000D02*
X11310000Y-6810000D01*
X11310000Y-6590000D02*
X11090000Y-6810000D01*
X11200000Y-6810000D02*
X11310000Y-6700000D01*
X11200000Y-6590000D01*
X11090000Y-6700000D01*
X11200000Y-6810000D01*
X18190000Y-6590000D02*
X18410000Y-6810000D01*
X18410000Y-6590000D02*
X18190000Y-6810000D01*
X18300000Y-6810000D02*
X18410000Y-6700000D01*
X18300000Y-6590000D01*
X18190000Y-6700000D01*
X18300000Y-6810000D01*
X18190000Y-12190000D02*
X18410000Y-12410000D01*
X18410000Y-12190000D02*
X18190000Y-12410000D01*
X18300000Y-12410000D02*
X18410000Y-12300000D01*
X18300000Y-12190000D01*
X18190000Y-12300000D01*
X18300000Y-12410000D01*
D11*
X11008277Y-13063984D02*
X11008277Y-12863984D01*
X11008277Y-12863984D02*
X11055896Y-12863984D01*
X11055896Y-12863984D02*
X11084467Y-12873508D01*
X11084467Y-12873508D02*
X11103515Y-12892555D01*
X11103515Y-12892555D02*
X11113039Y-12911603D01*
X11113039Y-12911603D02*
X11122563Y-12949698D01*
X11122563Y-12949698D02*
X11122563Y-12978269D01*
X11122563Y-12978269D02*
X11113039Y-13016365D01*
X11113039Y-13016365D02*
X11103515Y-13035412D01*
X11103515Y-13035412D02*
X11084467Y-13054460D01*
X11084467Y-13054460D02*
X11055896Y-13063984D01*
X11055896Y-13063984D02*
X11008277Y-13063984D01*
X11208277Y-13063984D02*
X11208277Y-12930650D01*
X11208277Y-12968746D02*
X11217801Y-12949698D01*
X11217801Y-12949698D02*
X11227324Y-12940174D01*
X11227324Y-12940174D02*
X11246372Y-12930650D01*
X11246372Y-12930650D02*
X11265420Y-12930650D01*
X11332086Y-13063984D02*
X11332086Y-12930650D01*
X11332086Y-12863984D02*
X11322562Y-12873508D01*
X11322562Y-12873508D02*
X11332086Y-12883031D01*
X11332086Y-12883031D02*
X11341610Y-12873508D01*
X11341610Y-12873508D02*
X11332086Y-12863984D01*
X11332086Y-12863984D02*
X11332086Y-12883031D01*
X11455896Y-13063984D02*
X11436848Y-13054460D01*
X11436848Y-13054460D02*
X11427324Y-13035412D01*
X11427324Y-13035412D02*
X11427324Y-12863984D01*
X11560658Y-13063984D02*
X11541610Y-13054460D01*
X11541610Y-13054460D02*
X11532086Y-13035412D01*
X11532086Y-13035412D02*
X11532086Y-12863984D01*
X11789229Y-13063984D02*
X11789229Y-12863984D01*
X11789229Y-12863984D02*
X11855896Y-13006841D01*
X11855896Y-13006841D02*
X11922562Y-12863984D01*
X11922562Y-12863984D02*
X11922562Y-13063984D01*
X12103515Y-13063984D02*
X12103515Y-12959222D01*
X12103515Y-12959222D02*
X12093991Y-12940174D01*
X12093991Y-12940174D02*
X12074943Y-12930650D01*
X12074943Y-12930650D02*
X12036848Y-12930650D01*
X12036848Y-12930650D02*
X12017801Y-12940174D01*
X12103515Y-13054460D02*
X12084467Y-13063984D01*
X12084467Y-13063984D02*
X12036848Y-13063984D01*
X12036848Y-13063984D02*
X12017801Y-13054460D01*
X12017801Y-13054460D02*
X12008277Y-13035412D01*
X12008277Y-13035412D02*
X12008277Y-13016365D01*
X12008277Y-13016365D02*
X12017801Y-12997317D01*
X12017801Y-12997317D02*
X12036848Y-12987793D01*
X12036848Y-12987793D02*
X12084467Y-12987793D01*
X12084467Y-12987793D02*
X12103515Y-12978269D01*
X12198753Y-12930650D02*
X12198753Y-13130650D01*
X12198753Y-12940174D02*
X12217801Y-12930650D01*
X12217801Y-12930650D02*
X12255896Y-12930650D01*
X12255896Y-12930650D02*
X12274943Y-12940174D01*
X12274943Y-12940174D02*
X12284467Y-12949698D01*
X12284467Y-12949698D02*
X12293991Y-12968746D01*
X12293991Y-12968746D02*
X12293991Y-13025888D01*
X12293991Y-13025888D02*
X12284467Y-13044936D01*
X12284467Y-13044936D02*
X12274943Y-13054460D01*
X12274943Y-13054460D02*
X12255896Y-13063984D01*
X12255896Y-13063984D02*
X12217801Y-13063984D01*
X12217801Y-13063984D02*
X12198753Y-13054460D01*
X12379705Y-13044936D02*
X12389229Y-13054460D01*
X12389229Y-13054460D02*
X12379705Y-13063984D01*
X12379705Y-13063984D02*
X12370182Y-13054460D01*
X12370182Y-13054460D02*
X12379705Y-13044936D01*
X12379705Y-13044936D02*
X12379705Y-13063984D01*
X12379705Y-12940174D02*
X12389229Y-12949698D01*
X12389229Y-12949698D02*
X12379705Y-12959222D01*
X12379705Y-12959222D02*
X12370182Y-12949698D01*
X12370182Y-12949698D02*
X12379705Y-12940174D01*
X12379705Y-12940174D02*
X12379705Y-12959222D01*
D12*
X10717500Y-13377500D02*
X10747500Y-13407500D01*
X10747500Y-13377500D02*
X10717500Y-13407500D01*
D11*
X11046372Y-13283984D02*
X11065420Y-13283984D01*
X11065420Y-13283984D02*
X11084467Y-13293508D01*
X11084467Y-13293508D02*
X11093991Y-13303031D01*
X11093991Y-13303031D02*
X11103515Y-13322079D01*
X11103515Y-13322079D02*
X11113039Y-13360174D01*
X11113039Y-13360174D02*
X11113039Y-13407793D01*
X11113039Y-13407793D02*
X11103515Y-13445888D01*
X11103515Y-13445888D02*
X11093991Y-13464936D01*
X11093991Y-13464936D02*
X11084467Y-13474460D01*
X11084467Y-13474460D02*
X11065420Y-13483984D01*
X11065420Y-13483984D02*
X11046372Y-13483984D01*
X11046372Y-13483984D02*
X11027324Y-13474460D01*
X11027324Y-13474460D02*
X11017801Y-13464936D01*
X11017801Y-13464936D02*
X11008277Y-13445888D01*
X11008277Y-13445888D02*
X10998753Y-13407793D01*
X10998753Y-13407793D02*
X10998753Y-13360174D01*
X10998753Y-13360174D02*
X11008277Y-13322079D01*
X11008277Y-13322079D02*
X11017801Y-13303031D01*
X11017801Y-13303031D02*
X11027324Y-13293508D01*
X11027324Y-13293508D02*
X11046372Y-13283984D01*
X11198753Y-13464936D02*
X11208277Y-13474460D01*
X11208277Y-13474460D02*
X11198753Y-13483984D01*
X11198753Y-13483984D02*
X11189229Y-13474460D01*
X11189229Y-13474460D02*
X11198753Y-13464936D01*
X11198753Y-13464936D02*
X11198753Y-13483984D01*
X11274943Y-13283984D02*
X11398753Y-13283984D01*
X11398753Y-13283984D02*
X11332086Y-13360174D01*
X11332086Y-13360174D02*
X11360658Y-13360174D01*
X11360658Y-13360174D02*
X11379705Y-13369698D01*
X11379705Y-13369698D02*
X11389229Y-13379222D01*
X11389229Y-13379222D02*
X11398753Y-13398269D01*
X11398753Y-13398269D02*
X11398753Y-13445888D01*
X11398753Y-13445888D02*
X11389229Y-13464936D01*
X11389229Y-13464936D02*
X11379705Y-13474460D01*
X11379705Y-13474460D02*
X11360658Y-13483984D01*
X11360658Y-13483984D02*
X11303515Y-13483984D01*
X11303515Y-13483984D02*
X11284467Y-13474460D01*
X11284467Y-13474460D02*
X11274943Y-13464936D01*
X11522562Y-13283984D02*
X11541610Y-13283984D01*
X11541610Y-13283984D02*
X11560658Y-13293508D01*
X11560658Y-13293508D02*
X11570182Y-13303031D01*
X11570182Y-13303031D02*
X11579705Y-13322079D01*
X11579705Y-13322079D02*
X11589229Y-13360174D01*
X11589229Y-13360174D02*
X11589229Y-13407793D01*
X11589229Y-13407793D02*
X11579705Y-13445888D01*
X11579705Y-13445888D02*
X11570182Y-13464936D01*
X11570182Y-13464936D02*
X11560658Y-13474460D01*
X11560658Y-13474460D02*
X11541610Y-13483984D01*
X11541610Y-13483984D02*
X11522562Y-13483984D01*
X11522562Y-13483984D02*
X11503515Y-13474460D01*
X11503515Y-13474460D02*
X11493991Y-13464936D01*
X11493991Y-13464936D02*
X11484467Y-13445888D01*
X11484467Y-13445888D02*
X11474943Y-13407793D01*
X11474943Y-13407793D02*
X11474943Y-13360174D01*
X11474943Y-13360174D02*
X11484467Y-13322079D01*
X11484467Y-13322079D02*
X11493991Y-13303031D01*
X11493991Y-13303031D02*
X11503515Y-13293508D01*
X11503515Y-13293508D02*
X11522562Y-13283984D01*
X11713039Y-13283984D02*
X11732086Y-13283984D01*
X11732086Y-13283984D02*
X11751134Y-13293508D01*
X11751134Y-13293508D02*
X11760658Y-13303031D01*
X11760658Y-13303031D02*
X11770182Y-13322079D01*
X11770182Y-13322079D02*
X11779705Y-13360174D01*
X11779705Y-13360174D02*
X11779705Y-13407793D01*
X11779705Y-13407793D02*
X11770182Y-13445888D01*
X11770182Y-13445888D02*
X11760658Y-13464936D01*
X11760658Y-13464936D02*
X11751134Y-13474460D01*
X11751134Y-13474460D02*
X11732086Y-13483984D01*
X11732086Y-13483984D02*
X11713039Y-13483984D01*
X11713039Y-13483984D02*
X11693991Y-13474460D01*
X11693991Y-13474460D02*
X11684467Y-13464936D01*
X11684467Y-13464936D02*
X11674943Y-13445888D01*
X11674943Y-13445888D02*
X11665420Y-13407793D01*
X11665420Y-13407793D02*
X11665420Y-13360174D01*
X11665420Y-13360174D02*
X11674943Y-13322079D01*
X11674943Y-13322079D02*
X11684467Y-13303031D01*
X11684467Y-13303031D02*
X11693991Y-13293508D01*
X11693991Y-13293508D02*
X11713039Y-13283984D01*
X11865420Y-13483984D02*
X11865420Y-13350650D01*
X11865420Y-13369698D02*
X11874943Y-13360174D01*
X11874943Y-13360174D02*
X11893991Y-13350650D01*
X11893991Y-13350650D02*
X11922563Y-13350650D01*
X11922563Y-13350650D02*
X11941610Y-13360174D01*
X11941610Y-13360174D02*
X11951134Y-13379222D01*
X11951134Y-13379222D02*
X11951134Y-13483984D01*
X11951134Y-13379222D02*
X11960658Y-13360174D01*
X11960658Y-13360174D02*
X11979705Y-13350650D01*
X11979705Y-13350650D02*
X12008277Y-13350650D01*
X12008277Y-13350650D02*
X12027324Y-13360174D01*
X12027324Y-13360174D02*
X12036848Y-13379222D01*
X12036848Y-13379222D02*
X12036848Y-13483984D01*
X12132086Y-13483984D02*
X12132086Y-13350650D01*
X12132086Y-13369698D02*
X12141610Y-13360174D01*
X12141610Y-13360174D02*
X12160658Y-13350650D01*
X12160658Y-13350650D02*
X12189229Y-13350650D01*
X12189229Y-13350650D02*
X12208277Y-13360174D01*
X12208277Y-13360174D02*
X12217801Y-13379222D01*
X12217801Y-13379222D02*
X12217801Y-13483984D01*
X12217801Y-13379222D02*
X12227324Y-13360174D01*
X12227324Y-13360174D02*
X12246372Y-13350650D01*
X12246372Y-13350650D02*
X12274943Y-13350650D01*
X12274943Y-13350650D02*
X12293991Y-13360174D01*
X12293991Y-13360174D02*
X12303515Y-13379222D01*
X12303515Y-13379222D02*
X12303515Y-13483984D01*
X12693991Y-13274460D02*
X12522563Y-13531603D01*
X12951134Y-13283984D02*
X12970182Y-13283984D01*
X12970182Y-13283984D02*
X12989229Y-13293508D01*
X12989229Y-13293508D02*
X12998753Y-13303031D01*
X12998753Y-13303031D02*
X13008277Y-13322079D01*
X13008277Y-13322079D02*
X13017801Y-13360174D01*
X13017801Y-13360174D02*
X13017801Y-13407793D01*
X13017801Y-13407793D02*
X13008277Y-13445888D01*
X13008277Y-13445888D02*
X12998753Y-13464936D01*
X12998753Y-13464936D02*
X12989229Y-13474460D01*
X12989229Y-13474460D02*
X12970182Y-13483984D01*
X12970182Y-13483984D02*
X12951134Y-13483984D01*
X12951134Y-13483984D02*
X12932086Y-13474460D01*
X12932086Y-13474460D02*
X12922563Y-13464936D01*
X12922563Y-13464936D02*
X12913039Y-13445888D01*
X12913039Y-13445888D02*
X12903515Y-13407793D01*
X12903515Y-13407793D02*
X12903515Y-13360174D01*
X12903515Y-13360174D02*
X12913039Y-13322079D01*
X12913039Y-13322079D02*
X12922563Y-13303031D01*
X12922563Y-13303031D02*
X12932086Y-13293508D01*
X12932086Y-13293508D02*
X12951134Y-13283984D01*
X13103515Y-13464936D02*
X13113039Y-13474460D01*
X13113039Y-13474460D02*
X13103515Y-13483984D01*
X13103515Y-13483984D02*
X13093991Y-13474460D01*
X13093991Y-13474460D02*
X13103515Y-13464936D01*
X13103515Y-13464936D02*
X13103515Y-13483984D01*
X13236848Y-13283984D02*
X13255896Y-13283984D01*
X13255896Y-13283984D02*
X13274944Y-13293508D01*
X13274944Y-13293508D02*
X13284467Y-13303031D01*
X13284467Y-13303031D02*
X13293991Y-13322079D01*
X13293991Y-13322079D02*
X13303515Y-13360174D01*
X13303515Y-13360174D02*
X13303515Y-13407793D01*
X13303515Y-13407793D02*
X13293991Y-13445888D01*
X13293991Y-13445888D02*
X13284467Y-13464936D01*
X13284467Y-13464936D02*
X13274944Y-13474460D01*
X13274944Y-13474460D02*
X13255896Y-13483984D01*
X13255896Y-13483984D02*
X13236848Y-13483984D01*
X13236848Y-13483984D02*
X13217801Y-13474460D01*
X13217801Y-13474460D02*
X13208277Y-13464936D01*
X13208277Y-13464936D02*
X13198753Y-13445888D01*
X13198753Y-13445888D02*
X13189229Y-13407793D01*
X13189229Y-13407793D02*
X13189229Y-13360174D01*
X13189229Y-13360174D02*
X13198753Y-13322079D01*
X13198753Y-13322079D02*
X13208277Y-13303031D01*
X13208277Y-13303031D02*
X13217801Y-13293508D01*
X13217801Y-13293508D02*
X13236848Y-13283984D01*
X13493991Y-13483984D02*
X13379706Y-13483984D01*
X13436848Y-13483984D02*
X13436848Y-13283984D01*
X13436848Y-13283984D02*
X13417801Y-13312555D01*
X13417801Y-13312555D02*
X13398753Y-13331603D01*
X13398753Y-13331603D02*
X13379706Y-13341127D01*
X13684467Y-13483984D02*
X13570182Y-13483984D01*
X13627325Y-13483984D02*
X13627325Y-13283984D01*
X13627325Y-13283984D02*
X13608277Y-13312555D01*
X13608277Y-13312555D02*
X13589229Y-13331603D01*
X13589229Y-13331603D02*
X13570182Y-13341127D01*
X13798753Y-13369698D02*
X13779706Y-13360174D01*
X13779706Y-13360174D02*
X13770182Y-13350650D01*
X13770182Y-13350650D02*
X13760658Y-13331603D01*
X13760658Y-13331603D02*
X13760658Y-13322079D01*
X13760658Y-13322079D02*
X13770182Y-13303031D01*
X13770182Y-13303031D02*
X13779706Y-13293508D01*
X13779706Y-13293508D02*
X13798753Y-13283984D01*
X13798753Y-13283984D02*
X13836848Y-13283984D01*
X13836848Y-13283984D02*
X13855896Y-13293508D01*
X13855896Y-13293508D02*
X13865420Y-13303031D01*
X13865420Y-13303031D02*
X13874944Y-13322079D01*
X13874944Y-13322079D02*
X13874944Y-13331603D01*
X13874944Y-13331603D02*
X13865420Y-13350650D01*
X13865420Y-13350650D02*
X13855896Y-13360174D01*
X13855896Y-13360174D02*
X13836848Y-13369698D01*
X13836848Y-13369698D02*
X13798753Y-13369698D01*
X13798753Y-13369698D02*
X13779706Y-13379222D01*
X13779706Y-13379222D02*
X13770182Y-13388746D01*
X13770182Y-13388746D02*
X13760658Y-13407793D01*
X13760658Y-13407793D02*
X13760658Y-13445888D01*
X13760658Y-13445888D02*
X13770182Y-13464936D01*
X13770182Y-13464936D02*
X13779706Y-13474460D01*
X13779706Y-13474460D02*
X13798753Y-13483984D01*
X13798753Y-13483984D02*
X13836848Y-13483984D01*
X13836848Y-13483984D02*
X13855896Y-13474460D01*
X13855896Y-13474460D02*
X13865420Y-13464936D01*
X13865420Y-13464936D02*
X13874944Y-13445888D01*
X13874944Y-13445888D02*
X13874944Y-13407793D01*
X13874944Y-13407793D02*
X13865420Y-13388746D01*
X13865420Y-13388746D02*
X13855896Y-13379222D01*
X13855896Y-13379222D02*
X13836848Y-13369698D01*
X13951134Y-13283984D02*
X13951134Y-13322079D01*
X14027325Y-13283984D02*
X14027325Y-13322079D01*
X14322563Y-13560174D02*
X14313039Y-13550650D01*
X14313039Y-13550650D02*
X14293991Y-13522079D01*
X14293991Y-13522079D02*
X14284468Y-13503031D01*
X14284468Y-13503031D02*
X14274944Y-13474460D01*
X14274944Y-13474460D02*
X14265420Y-13426841D01*
X14265420Y-13426841D02*
X14265420Y-13388746D01*
X14265420Y-13388746D02*
X14274944Y-13341127D01*
X14274944Y-13341127D02*
X14284468Y-13312555D01*
X14284468Y-13312555D02*
X14293991Y-13293508D01*
X14293991Y-13293508D02*
X14313039Y-13264936D01*
X14313039Y-13264936D02*
X14322563Y-13255412D01*
X14503515Y-13483984D02*
X14389229Y-13483984D01*
X14446372Y-13483984D02*
X14446372Y-13283984D01*
X14446372Y-13283984D02*
X14427325Y-13312555D01*
X14427325Y-13312555D02*
X14408277Y-13331603D01*
X14408277Y-13331603D02*
X14389229Y-13341127D01*
X14598753Y-13483984D02*
X14636848Y-13483984D01*
X14636848Y-13483984D02*
X14655896Y-13474460D01*
X14655896Y-13474460D02*
X14665420Y-13464936D01*
X14665420Y-13464936D02*
X14684468Y-13436365D01*
X14684468Y-13436365D02*
X14693991Y-13398269D01*
X14693991Y-13398269D02*
X14693991Y-13322079D01*
X14693991Y-13322079D02*
X14684468Y-13303031D01*
X14684468Y-13303031D02*
X14674944Y-13293508D01*
X14674944Y-13293508D02*
X14655896Y-13283984D01*
X14655896Y-13283984D02*
X14617801Y-13283984D01*
X14617801Y-13283984D02*
X14598753Y-13293508D01*
X14598753Y-13293508D02*
X14589229Y-13303031D01*
X14589229Y-13303031D02*
X14579706Y-13322079D01*
X14579706Y-13322079D02*
X14579706Y-13369698D01*
X14579706Y-13369698D02*
X14589229Y-13388746D01*
X14589229Y-13388746D02*
X14598753Y-13398269D01*
X14598753Y-13398269D02*
X14617801Y-13407793D01*
X14617801Y-13407793D02*
X14655896Y-13407793D01*
X14655896Y-13407793D02*
X14674944Y-13398269D01*
X14674944Y-13398269D02*
X14684468Y-13388746D01*
X14684468Y-13388746D02*
X14693991Y-13369698D01*
X14789229Y-13483984D02*
X14827325Y-13483984D01*
X14827325Y-13483984D02*
X14846372Y-13474460D01*
X14846372Y-13474460D02*
X14855896Y-13464936D01*
X14855896Y-13464936D02*
X14874944Y-13436365D01*
X14874944Y-13436365D02*
X14884468Y-13398269D01*
X14884468Y-13398269D02*
X14884468Y-13322079D01*
X14884468Y-13322079D02*
X14874944Y-13303031D01*
X14874944Y-13303031D02*
X14865420Y-13293508D01*
X14865420Y-13293508D02*
X14846372Y-13283984D01*
X14846372Y-13283984D02*
X14808277Y-13283984D01*
X14808277Y-13283984D02*
X14789229Y-13293508D01*
X14789229Y-13293508D02*
X14779706Y-13303031D01*
X14779706Y-13303031D02*
X14770182Y-13322079D01*
X14770182Y-13322079D02*
X14770182Y-13369698D01*
X14770182Y-13369698D02*
X14779706Y-13388746D01*
X14779706Y-13388746D02*
X14789229Y-13398269D01*
X14789229Y-13398269D02*
X14808277Y-13407793D01*
X14808277Y-13407793D02*
X14846372Y-13407793D01*
X14846372Y-13407793D02*
X14865420Y-13398269D01*
X14865420Y-13398269D02*
X14874944Y-13388746D01*
X14874944Y-13388746D02*
X14884468Y-13369698D01*
X15122563Y-13483984D02*
X15122563Y-13283984D01*
X15208277Y-13483984D02*
X15208277Y-13379222D01*
X15208277Y-13379222D02*
X15198753Y-13360174D01*
X15198753Y-13360174D02*
X15179706Y-13350650D01*
X15179706Y-13350650D02*
X15151134Y-13350650D01*
X15151134Y-13350650D02*
X15132087Y-13360174D01*
X15132087Y-13360174D02*
X15122563Y-13369698D01*
X15332087Y-13483984D02*
X15313039Y-13474460D01*
X15313039Y-13474460D02*
X15303515Y-13464936D01*
X15303515Y-13464936D02*
X15293991Y-13445888D01*
X15293991Y-13445888D02*
X15293991Y-13388746D01*
X15293991Y-13388746D02*
X15303515Y-13369698D01*
X15303515Y-13369698D02*
X15313039Y-13360174D01*
X15313039Y-13360174D02*
X15332087Y-13350650D01*
X15332087Y-13350650D02*
X15360658Y-13350650D01*
X15360658Y-13350650D02*
X15379706Y-13360174D01*
X15379706Y-13360174D02*
X15389230Y-13369698D01*
X15389230Y-13369698D02*
X15398753Y-13388746D01*
X15398753Y-13388746D02*
X15398753Y-13445888D01*
X15398753Y-13445888D02*
X15389230Y-13464936D01*
X15389230Y-13464936D02*
X15379706Y-13474460D01*
X15379706Y-13474460D02*
X15360658Y-13483984D01*
X15360658Y-13483984D02*
X15332087Y-13483984D01*
X15513039Y-13483984D02*
X15493991Y-13474460D01*
X15493991Y-13474460D02*
X15484468Y-13455412D01*
X15484468Y-13455412D02*
X15484468Y-13283984D01*
X15665420Y-13474460D02*
X15646372Y-13483984D01*
X15646372Y-13483984D02*
X15608277Y-13483984D01*
X15608277Y-13483984D02*
X15589230Y-13474460D01*
X15589230Y-13474460D02*
X15579706Y-13455412D01*
X15579706Y-13455412D02*
X15579706Y-13379222D01*
X15579706Y-13379222D02*
X15589230Y-13360174D01*
X15589230Y-13360174D02*
X15608277Y-13350650D01*
X15608277Y-13350650D02*
X15646372Y-13350650D01*
X15646372Y-13350650D02*
X15665420Y-13360174D01*
X15665420Y-13360174D02*
X15674944Y-13379222D01*
X15674944Y-13379222D02*
X15674944Y-13398269D01*
X15674944Y-13398269D02*
X15579706Y-13417317D01*
X15751134Y-13474460D02*
X15770182Y-13483984D01*
X15770182Y-13483984D02*
X15808277Y-13483984D01*
X15808277Y-13483984D02*
X15827325Y-13474460D01*
X15827325Y-13474460D02*
X15836849Y-13455412D01*
X15836849Y-13455412D02*
X15836849Y-13445888D01*
X15836849Y-13445888D02*
X15827325Y-13426841D01*
X15827325Y-13426841D02*
X15808277Y-13417317D01*
X15808277Y-13417317D02*
X15779706Y-13417317D01*
X15779706Y-13417317D02*
X15760658Y-13407793D01*
X15760658Y-13407793D02*
X15751134Y-13388746D01*
X15751134Y-13388746D02*
X15751134Y-13379222D01*
X15751134Y-13379222D02*
X15760658Y-13360174D01*
X15760658Y-13360174D02*
X15779706Y-13350650D01*
X15779706Y-13350650D02*
X15808277Y-13350650D01*
X15808277Y-13350650D02*
X15827325Y-13360174D01*
X15903515Y-13560174D02*
X15913039Y-13550650D01*
X15913039Y-13550650D02*
X15932087Y-13522079D01*
X15932087Y-13522079D02*
X15941611Y-13503031D01*
X15941611Y-13503031D02*
X15951134Y-13474460D01*
X15951134Y-13474460D02*
X15960658Y-13426841D01*
X15960658Y-13426841D02*
X15960658Y-13388746D01*
X15960658Y-13388746D02*
X15951134Y-13341127D01*
X15951134Y-13341127D02*
X15941611Y-13312555D01*
X15941611Y-13312555D02*
X15932087Y-13293508D01*
X15932087Y-13293508D02*
X15913039Y-13264936D01*
X15913039Y-13264936D02*
X15903515Y-13255412D01*
D12*
X10747500Y-13656500D02*
G75*
G02*
X10707500Y-13656500I-20000J0D01*
G01*
X10707500Y-13656500D02*
G75*
G02*
X10747500Y-13656500I20000J0D01*
G01*
D11*
X11046372Y-13547984D02*
X11065420Y-13547984D01*
X11065420Y-13547984D02*
X11084467Y-13557508D01*
X11084467Y-13557508D02*
X11093991Y-13567031D01*
X11093991Y-13567031D02*
X11103515Y-13586079D01*
X11103515Y-13586079D02*
X11113039Y-13624174D01*
X11113039Y-13624174D02*
X11113039Y-13671793D01*
X11113039Y-13671793D02*
X11103515Y-13709888D01*
X11103515Y-13709888D02*
X11093991Y-13728936D01*
X11093991Y-13728936D02*
X11084467Y-13738460D01*
X11084467Y-13738460D02*
X11065420Y-13747984D01*
X11065420Y-13747984D02*
X11046372Y-13747984D01*
X11046372Y-13747984D02*
X11027324Y-13738460D01*
X11027324Y-13738460D02*
X11017801Y-13728936D01*
X11017801Y-13728936D02*
X11008277Y-13709888D01*
X11008277Y-13709888D02*
X10998753Y-13671793D01*
X10998753Y-13671793D02*
X10998753Y-13624174D01*
X10998753Y-13624174D02*
X11008277Y-13586079D01*
X11008277Y-13586079D02*
X11017801Y-13567031D01*
X11017801Y-13567031D02*
X11027324Y-13557508D01*
X11027324Y-13557508D02*
X11046372Y-13547984D01*
X11198753Y-13728936D02*
X11208277Y-13738460D01*
X11208277Y-13738460D02*
X11198753Y-13747984D01*
X11198753Y-13747984D02*
X11189229Y-13738460D01*
X11189229Y-13738460D02*
X11198753Y-13728936D01*
X11198753Y-13728936D02*
X11198753Y-13747984D01*
X11379705Y-13614650D02*
X11379705Y-13747984D01*
X11332086Y-13538460D02*
X11284467Y-13681317D01*
X11284467Y-13681317D02*
X11408277Y-13681317D01*
X11522562Y-13547984D02*
X11541610Y-13547984D01*
X11541610Y-13547984D02*
X11560658Y-13557508D01*
X11560658Y-13557508D02*
X11570182Y-13567031D01*
X11570182Y-13567031D02*
X11579705Y-13586079D01*
X11579705Y-13586079D02*
X11589229Y-13624174D01*
X11589229Y-13624174D02*
X11589229Y-13671793D01*
X11589229Y-13671793D02*
X11579705Y-13709888D01*
X11579705Y-13709888D02*
X11570182Y-13728936D01*
X11570182Y-13728936D02*
X11560658Y-13738460D01*
X11560658Y-13738460D02*
X11541610Y-13747984D01*
X11541610Y-13747984D02*
X11522562Y-13747984D01*
X11522562Y-13747984D02*
X11503515Y-13738460D01*
X11503515Y-13738460D02*
X11493991Y-13728936D01*
X11493991Y-13728936D02*
X11484467Y-13709888D01*
X11484467Y-13709888D02*
X11474943Y-13671793D01*
X11474943Y-13671793D02*
X11474943Y-13624174D01*
X11474943Y-13624174D02*
X11484467Y-13586079D01*
X11484467Y-13586079D02*
X11493991Y-13567031D01*
X11493991Y-13567031D02*
X11503515Y-13557508D01*
X11503515Y-13557508D02*
X11522562Y-13547984D01*
X11713039Y-13547984D02*
X11732086Y-13547984D01*
X11732086Y-13547984D02*
X11751134Y-13557508D01*
X11751134Y-13557508D02*
X11760658Y-13567031D01*
X11760658Y-13567031D02*
X11770182Y-13586079D01*
X11770182Y-13586079D02*
X11779705Y-13624174D01*
X11779705Y-13624174D02*
X11779705Y-13671793D01*
X11779705Y-13671793D02*
X11770182Y-13709888D01*
X11770182Y-13709888D02*
X11760658Y-13728936D01*
X11760658Y-13728936D02*
X11751134Y-13738460D01*
X11751134Y-13738460D02*
X11732086Y-13747984D01*
X11732086Y-13747984D02*
X11713039Y-13747984D01*
X11713039Y-13747984D02*
X11693991Y-13738460D01*
X11693991Y-13738460D02*
X11684467Y-13728936D01*
X11684467Y-13728936D02*
X11674943Y-13709888D01*
X11674943Y-13709888D02*
X11665420Y-13671793D01*
X11665420Y-13671793D02*
X11665420Y-13624174D01*
X11665420Y-13624174D02*
X11674943Y-13586079D01*
X11674943Y-13586079D02*
X11684467Y-13567031D01*
X11684467Y-13567031D02*
X11693991Y-13557508D01*
X11693991Y-13557508D02*
X11713039Y-13547984D01*
X11865420Y-13747984D02*
X11865420Y-13614650D01*
X11865420Y-13633698D02*
X11874943Y-13624174D01*
X11874943Y-13624174D02*
X11893991Y-13614650D01*
X11893991Y-13614650D02*
X11922563Y-13614650D01*
X11922563Y-13614650D02*
X11941610Y-13624174D01*
X11941610Y-13624174D02*
X11951134Y-13643222D01*
X11951134Y-13643222D02*
X11951134Y-13747984D01*
X11951134Y-13643222D02*
X11960658Y-13624174D01*
X11960658Y-13624174D02*
X11979705Y-13614650D01*
X11979705Y-13614650D02*
X12008277Y-13614650D01*
X12008277Y-13614650D02*
X12027324Y-13624174D01*
X12027324Y-13624174D02*
X12036848Y-13643222D01*
X12036848Y-13643222D02*
X12036848Y-13747984D01*
X12132086Y-13747984D02*
X12132086Y-13614650D01*
X12132086Y-13633698D02*
X12141610Y-13624174D01*
X12141610Y-13624174D02*
X12160658Y-13614650D01*
X12160658Y-13614650D02*
X12189229Y-13614650D01*
X12189229Y-13614650D02*
X12208277Y-13624174D01*
X12208277Y-13624174D02*
X12217801Y-13643222D01*
X12217801Y-13643222D02*
X12217801Y-13747984D01*
X12217801Y-13643222D02*
X12227324Y-13624174D01*
X12227324Y-13624174D02*
X12246372Y-13614650D01*
X12246372Y-13614650D02*
X12274943Y-13614650D01*
X12274943Y-13614650D02*
X12293991Y-13624174D01*
X12293991Y-13624174D02*
X12303515Y-13643222D01*
X12303515Y-13643222D02*
X12303515Y-13747984D01*
X12693991Y-13538460D02*
X12522563Y-13795603D01*
X12951134Y-13547984D02*
X12970182Y-13547984D01*
X12970182Y-13547984D02*
X12989229Y-13557508D01*
X12989229Y-13557508D02*
X12998753Y-13567031D01*
X12998753Y-13567031D02*
X13008277Y-13586079D01*
X13008277Y-13586079D02*
X13017801Y-13624174D01*
X13017801Y-13624174D02*
X13017801Y-13671793D01*
X13017801Y-13671793D02*
X13008277Y-13709888D01*
X13008277Y-13709888D02*
X12998753Y-13728936D01*
X12998753Y-13728936D02*
X12989229Y-13738460D01*
X12989229Y-13738460D02*
X12970182Y-13747984D01*
X12970182Y-13747984D02*
X12951134Y-13747984D01*
X12951134Y-13747984D02*
X12932086Y-13738460D01*
X12932086Y-13738460D02*
X12922563Y-13728936D01*
X12922563Y-13728936D02*
X12913039Y-13709888D01*
X12913039Y-13709888D02*
X12903515Y-13671793D01*
X12903515Y-13671793D02*
X12903515Y-13624174D01*
X12903515Y-13624174D02*
X12913039Y-13586079D01*
X12913039Y-13586079D02*
X12922563Y-13567031D01*
X12922563Y-13567031D02*
X12932086Y-13557508D01*
X12932086Y-13557508D02*
X12951134Y-13547984D01*
X13103515Y-13728936D02*
X13113039Y-13738460D01*
X13113039Y-13738460D02*
X13103515Y-13747984D01*
X13103515Y-13747984D02*
X13093991Y-13738460D01*
X13093991Y-13738460D02*
X13103515Y-13728936D01*
X13103515Y-13728936D02*
X13103515Y-13747984D01*
X13236848Y-13547984D02*
X13255896Y-13547984D01*
X13255896Y-13547984D02*
X13274944Y-13557508D01*
X13274944Y-13557508D02*
X13284467Y-13567031D01*
X13284467Y-13567031D02*
X13293991Y-13586079D01*
X13293991Y-13586079D02*
X13303515Y-13624174D01*
X13303515Y-13624174D02*
X13303515Y-13671793D01*
X13303515Y-13671793D02*
X13293991Y-13709888D01*
X13293991Y-13709888D02*
X13284467Y-13728936D01*
X13284467Y-13728936D02*
X13274944Y-13738460D01*
X13274944Y-13738460D02*
X13255896Y-13747984D01*
X13255896Y-13747984D02*
X13236848Y-13747984D01*
X13236848Y-13747984D02*
X13217801Y-13738460D01*
X13217801Y-13738460D02*
X13208277Y-13728936D01*
X13208277Y-13728936D02*
X13198753Y-13709888D01*
X13198753Y-13709888D02*
X13189229Y-13671793D01*
X13189229Y-13671793D02*
X13189229Y-13624174D01*
X13189229Y-13624174D02*
X13198753Y-13586079D01*
X13198753Y-13586079D02*
X13208277Y-13567031D01*
X13208277Y-13567031D02*
X13217801Y-13557508D01*
X13217801Y-13557508D02*
X13236848Y-13547984D01*
X13493991Y-13747984D02*
X13379706Y-13747984D01*
X13436848Y-13747984D02*
X13436848Y-13547984D01*
X13436848Y-13547984D02*
X13417801Y-13576555D01*
X13417801Y-13576555D02*
X13398753Y-13595603D01*
X13398753Y-13595603D02*
X13379706Y-13605127D01*
X13674944Y-13547984D02*
X13579706Y-13547984D01*
X13579706Y-13547984D02*
X13570182Y-13643222D01*
X13570182Y-13643222D02*
X13579706Y-13633698D01*
X13579706Y-13633698D02*
X13598753Y-13624174D01*
X13598753Y-13624174D02*
X13646372Y-13624174D01*
X13646372Y-13624174D02*
X13665420Y-13633698D01*
X13665420Y-13633698D02*
X13674944Y-13643222D01*
X13674944Y-13643222D02*
X13684467Y-13662269D01*
X13684467Y-13662269D02*
X13684467Y-13709888D01*
X13684467Y-13709888D02*
X13674944Y-13728936D01*
X13674944Y-13728936D02*
X13665420Y-13738460D01*
X13665420Y-13738460D02*
X13646372Y-13747984D01*
X13646372Y-13747984D02*
X13598753Y-13747984D01*
X13598753Y-13747984D02*
X13579706Y-13738460D01*
X13579706Y-13738460D02*
X13570182Y-13728936D01*
X13751134Y-13547984D02*
X13884467Y-13547984D01*
X13884467Y-13547984D02*
X13798753Y-13747984D01*
X13951134Y-13547984D02*
X13951134Y-13586079D01*
X14027325Y-13547984D02*
X14027325Y-13586079D01*
X14322563Y-13824174D02*
X14313039Y-13814650D01*
X14313039Y-13814650D02*
X14293991Y-13786079D01*
X14293991Y-13786079D02*
X14284468Y-13767031D01*
X14284468Y-13767031D02*
X14274944Y-13738460D01*
X14274944Y-13738460D02*
X14265420Y-13690841D01*
X14265420Y-13690841D02*
X14265420Y-13652746D01*
X14265420Y-13652746D02*
X14274944Y-13605127D01*
X14274944Y-13605127D02*
X14284468Y-13576555D01*
X14284468Y-13576555D02*
X14293991Y-13557508D01*
X14293991Y-13557508D02*
X14313039Y-13528936D01*
X14313039Y-13528936D02*
X14322563Y-13519412D01*
X14379706Y-13547984D02*
X14503515Y-13547984D01*
X14503515Y-13547984D02*
X14436848Y-13624174D01*
X14436848Y-13624174D02*
X14465420Y-13624174D01*
X14465420Y-13624174D02*
X14484468Y-13633698D01*
X14484468Y-13633698D02*
X14493991Y-13643222D01*
X14493991Y-13643222D02*
X14503515Y-13662269D01*
X14503515Y-13662269D02*
X14503515Y-13709888D01*
X14503515Y-13709888D02*
X14493991Y-13728936D01*
X14493991Y-13728936D02*
X14484468Y-13738460D01*
X14484468Y-13738460D02*
X14465420Y-13747984D01*
X14465420Y-13747984D02*
X14408277Y-13747984D01*
X14408277Y-13747984D02*
X14389229Y-13738460D01*
X14389229Y-13738460D02*
X14379706Y-13728936D01*
X14741610Y-13747984D02*
X14741610Y-13547984D01*
X14827325Y-13747984D02*
X14827325Y-13643222D01*
X14827325Y-13643222D02*
X14817801Y-13624174D01*
X14817801Y-13624174D02*
X14798753Y-13614650D01*
X14798753Y-13614650D02*
X14770182Y-13614650D01*
X14770182Y-13614650D02*
X14751134Y-13624174D01*
X14751134Y-13624174D02*
X14741610Y-13633698D01*
X14951134Y-13747984D02*
X14932087Y-13738460D01*
X14932087Y-13738460D02*
X14922563Y-13728936D01*
X14922563Y-13728936D02*
X14913039Y-13709888D01*
X14913039Y-13709888D02*
X14913039Y-13652746D01*
X14913039Y-13652746D02*
X14922563Y-13633698D01*
X14922563Y-13633698D02*
X14932087Y-13624174D01*
X14932087Y-13624174D02*
X14951134Y-13614650D01*
X14951134Y-13614650D02*
X14979706Y-13614650D01*
X14979706Y-13614650D02*
X14998753Y-13624174D01*
X14998753Y-13624174D02*
X15008277Y-13633698D01*
X15008277Y-13633698D02*
X15017801Y-13652746D01*
X15017801Y-13652746D02*
X15017801Y-13709888D01*
X15017801Y-13709888D02*
X15008277Y-13728936D01*
X15008277Y-13728936D02*
X14998753Y-13738460D01*
X14998753Y-13738460D02*
X14979706Y-13747984D01*
X14979706Y-13747984D02*
X14951134Y-13747984D01*
X15132087Y-13747984D02*
X15113039Y-13738460D01*
X15113039Y-13738460D02*
X15103515Y-13719412D01*
X15103515Y-13719412D02*
X15103515Y-13547984D01*
X15284468Y-13738460D02*
X15265420Y-13747984D01*
X15265420Y-13747984D02*
X15227325Y-13747984D01*
X15227325Y-13747984D02*
X15208277Y-13738460D01*
X15208277Y-13738460D02*
X15198753Y-13719412D01*
X15198753Y-13719412D02*
X15198753Y-13643222D01*
X15198753Y-13643222D02*
X15208277Y-13624174D01*
X15208277Y-13624174D02*
X15227325Y-13614650D01*
X15227325Y-13614650D02*
X15265420Y-13614650D01*
X15265420Y-13614650D02*
X15284468Y-13624174D01*
X15284468Y-13624174D02*
X15293991Y-13643222D01*
X15293991Y-13643222D02*
X15293991Y-13662269D01*
X15293991Y-13662269D02*
X15198753Y-13681317D01*
X15370182Y-13738460D02*
X15389230Y-13747984D01*
X15389230Y-13747984D02*
X15427325Y-13747984D01*
X15427325Y-13747984D02*
X15446372Y-13738460D01*
X15446372Y-13738460D02*
X15455896Y-13719412D01*
X15455896Y-13719412D02*
X15455896Y-13709888D01*
X15455896Y-13709888D02*
X15446372Y-13690841D01*
X15446372Y-13690841D02*
X15427325Y-13681317D01*
X15427325Y-13681317D02*
X15398753Y-13681317D01*
X15398753Y-13681317D02*
X15379706Y-13671793D01*
X15379706Y-13671793D02*
X15370182Y-13652746D01*
X15370182Y-13652746D02*
X15370182Y-13643222D01*
X15370182Y-13643222D02*
X15379706Y-13624174D01*
X15379706Y-13624174D02*
X15398753Y-13614650D01*
X15398753Y-13614650D02*
X15427325Y-13614650D01*
X15427325Y-13614650D02*
X15446372Y-13624174D01*
X15522563Y-13824174D02*
X15532087Y-13814650D01*
X15532087Y-13814650D02*
X15551134Y-13786079D01*
X15551134Y-13786079D02*
X15560658Y-13767031D01*
X15560658Y-13767031D02*
X15570182Y-13738460D01*
X15570182Y-13738460D02*
X15579706Y-13690841D01*
X15579706Y-13690841D02*
X15579706Y-13652746D01*
X15579706Y-13652746D02*
X15570182Y-13605127D01*
X15570182Y-13605127D02*
X15560658Y-13576555D01*
X15560658Y-13576555D02*
X15551134Y-13557508D01*
X15551134Y-13557508D02*
X15532087Y-13528936D01*
X15532087Y-13528936D02*
X15522563Y-13519412D01*
D12*
X10727500Y-13900500D02*
X10727500Y-13940500D01*
X10707500Y-13920500D02*
X10747500Y-13920500D01*
D11*
X11046372Y-13811984D02*
X11065420Y-13811984D01*
X11065420Y-13811984D02*
X11084467Y-13821508D01*
X11084467Y-13821508D02*
X11093991Y-13831031D01*
X11093991Y-13831031D02*
X11103515Y-13850079D01*
X11103515Y-13850079D02*
X11113039Y-13888174D01*
X11113039Y-13888174D02*
X11113039Y-13935793D01*
X11113039Y-13935793D02*
X11103515Y-13973888D01*
X11103515Y-13973888D02*
X11093991Y-13992936D01*
X11093991Y-13992936D02*
X11084467Y-14002460D01*
X11084467Y-14002460D02*
X11065420Y-14011984D01*
X11065420Y-14011984D02*
X11046372Y-14011984D01*
X11046372Y-14011984D02*
X11027324Y-14002460D01*
X11027324Y-14002460D02*
X11017801Y-13992936D01*
X11017801Y-13992936D02*
X11008277Y-13973888D01*
X11008277Y-13973888D02*
X10998753Y-13935793D01*
X10998753Y-13935793D02*
X10998753Y-13888174D01*
X10998753Y-13888174D02*
X11008277Y-13850079D01*
X11008277Y-13850079D02*
X11017801Y-13831031D01*
X11017801Y-13831031D02*
X11027324Y-13821508D01*
X11027324Y-13821508D02*
X11046372Y-13811984D01*
X11198753Y-13992936D02*
X11208277Y-14002460D01*
X11208277Y-14002460D02*
X11198753Y-14011984D01*
X11198753Y-14011984D02*
X11189229Y-14002460D01*
X11189229Y-14002460D02*
X11198753Y-13992936D01*
X11198753Y-13992936D02*
X11198753Y-14011984D01*
X11379705Y-13878650D02*
X11379705Y-14011984D01*
X11332086Y-13802460D02*
X11284467Y-13945317D01*
X11284467Y-13945317D02*
X11408277Y-13945317D01*
X11522562Y-13811984D02*
X11541610Y-13811984D01*
X11541610Y-13811984D02*
X11560658Y-13821508D01*
X11560658Y-13821508D02*
X11570182Y-13831031D01*
X11570182Y-13831031D02*
X11579705Y-13850079D01*
X11579705Y-13850079D02*
X11589229Y-13888174D01*
X11589229Y-13888174D02*
X11589229Y-13935793D01*
X11589229Y-13935793D02*
X11579705Y-13973888D01*
X11579705Y-13973888D02*
X11570182Y-13992936D01*
X11570182Y-13992936D02*
X11560658Y-14002460D01*
X11560658Y-14002460D02*
X11541610Y-14011984D01*
X11541610Y-14011984D02*
X11522562Y-14011984D01*
X11522562Y-14011984D02*
X11503515Y-14002460D01*
X11503515Y-14002460D02*
X11493991Y-13992936D01*
X11493991Y-13992936D02*
X11484467Y-13973888D01*
X11484467Y-13973888D02*
X11474943Y-13935793D01*
X11474943Y-13935793D02*
X11474943Y-13888174D01*
X11474943Y-13888174D02*
X11484467Y-13850079D01*
X11484467Y-13850079D02*
X11493991Y-13831031D01*
X11493991Y-13831031D02*
X11503515Y-13821508D01*
X11503515Y-13821508D02*
X11522562Y-13811984D01*
X11713039Y-13811984D02*
X11732086Y-13811984D01*
X11732086Y-13811984D02*
X11751134Y-13821508D01*
X11751134Y-13821508D02*
X11760658Y-13831031D01*
X11760658Y-13831031D02*
X11770182Y-13850079D01*
X11770182Y-13850079D02*
X11779705Y-13888174D01*
X11779705Y-13888174D02*
X11779705Y-13935793D01*
X11779705Y-13935793D02*
X11770182Y-13973888D01*
X11770182Y-13973888D02*
X11760658Y-13992936D01*
X11760658Y-13992936D02*
X11751134Y-14002460D01*
X11751134Y-14002460D02*
X11732086Y-14011984D01*
X11732086Y-14011984D02*
X11713039Y-14011984D01*
X11713039Y-14011984D02*
X11693991Y-14002460D01*
X11693991Y-14002460D02*
X11684467Y-13992936D01*
X11684467Y-13992936D02*
X11674943Y-13973888D01*
X11674943Y-13973888D02*
X11665420Y-13935793D01*
X11665420Y-13935793D02*
X11665420Y-13888174D01*
X11665420Y-13888174D02*
X11674943Y-13850079D01*
X11674943Y-13850079D02*
X11684467Y-13831031D01*
X11684467Y-13831031D02*
X11693991Y-13821508D01*
X11693991Y-13821508D02*
X11713039Y-13811984D01*
X11865420Y-14011984D02*
X11865420Y-13878650D01*
X11865420Y-13897698D02*
X11874943Y-13888174D01*
X11874943Y-13888174D02*
X11893991Y-13878650D01*
X11893991Y-13878650D02*
X11922563Y-13878650D01*
X11922563Y-13878650D02*
X11941610Y-13888174D01*
X11941610Y-13888174D02*
X11951134Y-13907222D01*
X11951134Y-13907222D02*
X11951134Y-14011984D01*
X11951134Y-13907222D02*
X11960658Y-13888174D01*
X11960658Y-13888174D02*
X11979705Y-13878650D01*
X11979705Y-13878650D02*
X12008277Y-13878650D01*
X12008277Y-13878650D02*
X12027324Y-13888174D01*
X12027324Y-13888174D02*
X12036848Y-13907222D01*
X12036848Y-13907222D02*
X12036848Y-14011984D01*
X12132086Y-14011984D02*
X12132086Y-13878650D01*
X12132086Y-13897698D02*
X12141610Y-13888174D01*
X12141610Y-13888174D02*
X12160658Y-13878650D01*
X12160658Y-13878650D02*
X12189229Y-13878650D01*
X12189229Y-13878650D02*
X12208277Y-13888174D01*
X12208277Y-13888174D02*
X12217801Y-13907222D01*
X12217801Y-13907222D02*
X12217801Y-14011984D01*
X12217801Y-13907222D02*
X12227324Y-13888174D01*
X12227324Y-13888174D02*
X12246372Y-13878650D01*
X12246372Y-13878650D02*
X12274943Y-13878650D01*
X12274943Y-13878650D02*
X12293991Y-13888174D01*
X12293991Y-13888174D02*
X12303515Y-13907222D01*
X12303515Y-13907222D02*
X12303515Y-14011984D01*
X12693991Y-13802460D02*
X12522563Y-14059603D01*
X12951134Y-13811984D02*
X12970182Y-13811984D01*
X12970182Y-13811984D02*
X12989229Y-13821508D01*
X12989229Y-13821508D02*
X12998753Y-13831031D01*
X12998753Y-13831031D02*
X13008277Y-13850079D01*
X13008277Y-13850079D02*
X13017801Y-13888174D01*
X13017801Y-13888174D02*
X13017801Y-13935793D01*
X13017801Y-13935793D02*
X13008277Y-13973888D01*
X13008277Y-13973888D02*
X12998753Y-13992936D01*
X12998753Y-13992936D02*
X12989229Y-14002460D01*
X12989229Y-14002460D02*
X12970182Y-14011984D01*
X12970182Y-14011984D02*
X12951134Y-14011984D01*
X12951134Y-14011984D02*
X12932086Y-14002460D01*
X12932086Y-14002460D02*
X12922563Y-13992936D01*
X12922563Y-13992936D02*
X12913039Y-13973888D01*
X12913039Y-13973888D02*
X12903515Y-13935793D01*
X12903515Y-13935793D02*
X12903515Y-13888174D01*
X12903515Y-13888174D02*
X12913039Y-13850079D01*
X12913039Y-13850079D02*
X12922563Y-13831031D01*
X12922563Y-13831031D02*
X12932086Y-13821508D01*
X12932086Y-13821508D02*
X12951134Y-13811984D01*
X13103515Y-13992936D02*
X13113039Y-14002460D01*
X13113039Y-14002460D02*
X13103515Y-14011984D01*
X13103515Y-14011984D02*
X13093991Y-14002460D01*
X13093991Y-14002460D02*
X13103515Y-13992936D01*
X13103515Y-13992936D02*
X13103515Y-14011984D01*
X13236848Y-13811984D02*
X13255896Y-13811984D01*
X13255896Y-13811984D02*
X13274944Y-13821508D01*
X13274944Y-13821508D02*
X13284467Y-13831031D01*
X13284467Y-13831031D02*
X13293991Y-13850079D01*
X13293991Y-13850079D02*
X13303515Y-13888174D01*
X13303515Y-13888174D02*
X13303515Y-13935793D01*
X13303515Y-13935793D02*
X13293991Y-13973888D01*
X13293991Y-13973888D02*
X13284467Y-13992936D01*
X13284467Y-13992936D02*
X13274944Y-14002460D01*
X13274944Y-14002460D02*
X13255896Y-14011984D01*
X13255896Y-14011984D02*
X13236848Y-14011984D01*
X13236848Y-14011984D02*
X13217801Y-14002460D01*
X13217801Y-14002460D02*
X13208277Y-13992936D01*
X13208277Y-13992936D02*
X13198753Y-13973888D01*
X13198753Y-13973888D02*
X13189229Y-13935793D01*
X13189229Y-13935793D02*
X13189229Y-13888174D01*
X13189229Y-13888174D02*
X13198753Y-13850079D01*
X13198753Y-13850079D02*
X13208277Y-13831031D01*
X13208277Y-13831031D02*
X13217801Y-13821508D01*
X13217801Y-13821508D02*
X13236848Y-13811984D01*
X13493991Y-14011984D02*
X13379706Y-14011984D01*
X13436848Y-14011984D02*
X13436848Y-13811984D01*
X13436848Y-13811984D02*
X13417801Y-13840555D01*
X13417801Y-13840555D02*
X13398753Y-13859603D01*
X13398753Y-13859603D02*
X13379706Y-13869127D01*
X13674944Y-13811984D02*
X13579706Y-13811984D01*
X13579706Y-13811984D02*
X13570182Y-13907222D01*
X13570182Y-13907222D02*
X13579706Y-13897698D01*
X13579706Y-13897698D02*
X13598753Y-13888174D01*
X13598753Y-13888174D02*
X13646372Y-13888174D01*
X13646372Y-13888174D02*
X13665420Y-13897698D01*
X13665420Y-13897698D02*
X13674944Y-13907222D01*
X13674944Y-13907222D02*
X13684467Y-13926269D01*
X13684467Y-13926269D02*
X13684467Y-13973888D01*
X13684467Y-13973888D02*
X13674944Y-13992936D01*
X13674944Y-13992936D02*
X13665420Y-14002460D01*
X13665420Y-14002460D02*
X13646372Y-14011984D01*
X13646372Y-14011984D02*
X13598753Y-14011984D01*
X13598753Y-14011984D02*
X13579706Y-14002460D01*
X13579706Y-14002460D02*
X13570182Y-13992936D01*
X13751134Y-13811984D02*
X13884467Y-13811984D01*
X13884467Y-13811984D02*
X13798753Y-14011984D01*
X13951134Y-13811984D02*
X13951134Y-13850079D01*
X14027325Y-13811984D02*
X14027325Y-13850079D01*
X14322563Y-14088174D02*
X14313039Y-14078650D01*
X14313039Y-14078650D02*
X14293991Y-14050079D01*
X14293991Y-14050079D02*
X14284468Y-14031031D01*
X14284468Y-14031031D02*
X14274944Y-14002460D01*
X14274944Y-14002460D02*
X14265420Y-13954841D01*
X14265420Y-13954841D02*
X14265420Y-13916746D01*
X14265420Y-13916746D02*
X14274944Y-13869127D01*
X14274944Y-13869127D02*
X14284468Y-13840555D01*
X14284468Y-13840555D02*
X14293991Y-13821508D01*
X14293991Y-13821508D02*
X14313039Y-13792936D01*
X14313039Y-13792936D02*
X14322563Y-13783412D01*
X14379706Y-13811984D02*
X14503515Y-13811984D01*
X14503515Y-13811984D02*
X14436848Y-13888174D01*
X14436848Y-13888174D02*
X14465420Y-13888174D01*
X14465420Y-13888174D02*
X14484468Y-13897698D01*
X14484468Y-13897698D02*
X14493991Y-13907222D01*
X14493991Y-13907222D02*
X14503515Y-13926269D01*
X14503515Y-13926269D02*
X14503515Y-13973888D01*
X14503515Y-13973888D02*
X14493991Y-13992936D01*
X14493991Y-13992936D02*
X14484468Y-14002460D01*
X14484468Y-14002460D02*
X14465420Y-14011984D01*
X14465420Y-14011984D02*
X14408277Y-14011984D01*
X14408277Y-14011984D02*
X14389229Y-14002460D01*
X14389229Y-14002460D02*
X14379706Y-13992936D01*
X14579706Y-13831031D02*
X14589229Y-13821508D01*
X14589229Y-13821508D02*
X14608277Y-13811984D01*
X14608277Y-13811984D02*
X14655896Y-13811984D01*
X14655896Y-13811984D02*
X14674944Y-13821508D01*
X14674944Y-13821508D02*
X14684468Y-13831031D01*
X14684468Y-13831031D02*
X14693991Y-13850079D01*
X14693991Y-13850079D02*
X14693991Y-13869127D01*
X14693991Y-13869127D02*
X14684468Y-13897698D01*
X14684468Y-13897698D02*
X14570182Y-14011984D01*
X14570182Y-14011984D02*
X14693991Y-14011984D01*
X14932087Y-14011984D02*
X14932087Y-13811984D01*
X15017801Y-14011984D02*
X15017801Y-13907222D01*
X15017801Y-13907222D02*
X15008277Y-13888174D01*
X15008277Y-13888174D02*
X14989230Y-13878650D01*
X14989230Y-13878650D02*
X14960658Y-13878650D01*
X14960658Y-13878650D02*
X14941610Y-13888174D01*
X14941610Y-13888174D02*
X14932087Y-13897698D01*
X15141610Y-14011984D02*
X15122563Y-14002460D01*
X15122563Y-14002460D02*
X15113039Y-13992936D01*
X15113039Y-13992936D02*
X15103515Y-13973888D01*
X15103515Y-13973888D02*
X15103515Y-13916746D01*
X15103515Y-13916746D02*
X15113039Y-13897698D01*
X15113039Y-13897698D02*
X15122563Y-13888174D01*
X15122563Y-13888174D02*
X15141610Y-13878650D01*
X15141610Y-13878650D02*
X15170182Y-13878650D01*
X15170182Y-13878650D02*
X15189230Y-13888174D01*
X15189230Y-13888174D02*
X15198753Y-13897698D01*
X15198753Y-13897698D02*
X15208277Y-13916746D01*
X15208277Y-13916746D02*
X15208277Y-13973888D01*
X15208277Y-13973888D02*
X15198753Y-13992936D01*
X15198753Y-13992936D02*
X15189230Y-14002460D01*
X15189230Y-14002460D02*
X15170182Y-14011984D01*
X15170182Y-14011984D02*
X15141610Y-14011984D01*
X15322563Y-14011984D02*
X15303515Y-14002460D01*
X15303515Y-14002460D02*
X15293991Y-13983412D01*
X15293991Y-13983412D02*
X15293991Y-13811984D01*
X15474944Y-14002460D02*
X15455896Y-14011984D01*
X15455896Y-14011984D02*
X15417801Y-14011984D01*
X15417801Y-14011984D02*
X15398753Y-14002460D01*
X15398753Y-14002460D02*
X15389230Y-13983412D01*
X15389230Y-13983412D02*
X15389230Y-13907222D01*
X15389230Y-13907222D02*
X15398753Y-13888174D01*
X15398753Y-13888174D02*
X15417801Y-13878650D01*
X15417801Y-13878650D02*
X15455896Y-13878650D01*
X15455896Y-13878650D02*
X15474944Y-13888174D01*
X15474944Y-13888174D02*
X15484468Y-13907222D01*
X15484468Y-13907222D02*
X15484468Y-13926269D01*
X15484468Y-13926269D02*
X15389230Y-13945317D01*
X15560658Y-14002460D02*
X15579706Y-14011984D01*
X15579706Y-14011984D02*
X15617801Y-14011984D01*
X15617801Y-14011984D02*
X15636849Y-14002460D01*
X15636849Y-14002460D02*
X15646372Y-13983412D01*
X15646372Y-13983412D02*
X15646372Y-13973888D01*
X15646372Y-13973888D02*
X15636849Y-13954841D01*
X15636849Y-13954841D02*
X15617801Y-13945317D01*
X15617801Y-13945317D02*
X15589230Y-13945317D01*
X15589230Y-13945317D02*
X15570182Y-13935793D01*
X15570182Y-13935793D02*
X15560658Y-13916746D01*
X15560658Y-13916746D02*
X15560658Y-13907222D01*
X15560658Y-13907222D02*
X15570182Y-13888174D01*
X15570182Y-13888174D02*
X15589230Y-13878650D01*
X15589230Y-13878650D02*
X15617801Y-13878650D01*
X15617801Y-13878650D02*
X15636849Y-13888174D01*
X15713039Y-14088174D02*
X15722563Y-14078650D01*
X15722563Y-14078650D02*
X15741611Y-14050079D01*
X15741611Y-14050079D02*
X15751134Y-14031031D01*
X15751134Y-14031031D02*
X15760658Y-14002460D01*
X15760658Y-14002460D02*
X15770182Y-13954841D01*
X15770182Y-13954841D02*
X15770182Y-13916746D01*
X15770182Y-13916746D02*
X15760658Y-13869127D01*
X15760658Y-13869127D02*
X15751134Y-13840555D01*
X15751134Y-13840555D02*
X15741611Y-13821508D01*
X15741611Y-13821508D02*
X15722563Y-13792936D01*
X15722563Y-13792936D02*
X15713039Y-13783412D01*
D12*
X10740178Y-14202178D02*
X10740178Y-14166822D01*
X10704822Y-14166822D01*
X10704822Y-14202178D01*
X10740178Y-14202178D01*
D11*
X11046372Y-14075984D02*
X11065420Y-14075984D01*
X11065420Y-14075984D02*
X11084467Y-14085508D01*
X11084467Y-14085508D02*
X11093991Y-14095031D01*
X11093991Y-14095031D02*
X11103515Y-14114079D01*
X11103515Y-14114079D02*
X11113039Y-14152174D01*
X11113039Y-14152174D02*
X11113039Y-14199793D01*
X11113039Y-14199793D02*
X11103515Y-14237888D01*
X11103515Y-14237888D02*
X11093991Y-14256936D01*
X11093991Y-14256936D02*
X11084467Y-14266460D01*
X11084467Y-14266460D02*
X11065420Y-14275984D01*
X11065420Y-14275984D02*
X11046372Y-14275984D01*
X11046372Y-14275984D02*
X11027324Y-14266460D01*
X11027324Y-14266460D02*
X11017801Y-14256936D01*
X11017801Y-14256936D02*
X11008277Y-14237888D01*
X11008277Y-14237888D02*
X10998753Y-14199793D01*
X10998753Y-14199793D02*
X10998753Y-14152174D01*
X10998753Y-14152174D02*
X11008277Y-14114079D01*
X11008277Y-14114079D02*
X11017801Y-14095031D01*
X11017801Y-14095031D02*
X11027324Y-14085508D01*
X11027324Y-14085508D02*
X11046372Y-14075984D01*
X11198753Y-14256936D02*
X11208277Y-14266460D01*
X11208277Y-14266460D02*
X11198753Y-14275984D01*
X11198753Y-14275984D02*
X11189229Y-14266460D01*
X11189229Y-14266460D02*
X11198753Y-14256936D01*
X11198753Y-14256936D02*
X11198753Y-14275984D01*
X11389229Y-14075984D02*
X11293991Y-14075984D01*
X11293991Y-14075984D02*
X11284467Y-14171222D01*
X11284467Y-14171222D02*
X11293991Y-14161698D01*
X11293991Y-14161698D02*
X11313039Y-14152174D01*
X11313039Y-14152174D02*
X11360658Y-14152174D01*
X11360658Y-14152174D02*
X11379705Y-14161698D01*
X11379705Y-14161698D02*
X11389229Y-14171222D01*
X11389229Y-14171222D02*
X11398753Y-14190269D01*
X11398753Y-14190269D02*
X11398753Y-14237888D01*
X11398753Y-14237888D02*
X11389229Y-14256936D01*
X11389229Y-14256936D02*
X11379705Y-14266460D01*
X11379705Y-14266460D02*
X11360658Y-14275984D01*
X11360658Y-14275984D02*
X11313039Y-14275984D01*
X11313039Y-14275984D02*
X11293991Y-14266460D01*
X11293991Y-14266460D02*
X11284467Y-14256936D01*
X11522562Y-14075984D02*
X11541610Y-14075984D01*
X11541610Y-14075984D02*
X11560658Y-14085508D01*
X11560658Y-14085508D02*
X11570182Y-14095031D01*
X11570182Y-14095031D02*
X11579705Y-14114079D01*
X11579705Y-14114079D02*
X11589229Y-14152174D01*
X11589229Y-14152174D02*
X11589229Y-14199793D01*
X11589229Y-14199793D02*
X11579705Y-14237888D01*
X11579705Y-14237888D02*
X11570182Y-14256936D01*
X11570182Y-14256936D02*
X11560658Y-14266460D01*
X11560658Y-14266460D02*
X11541610Y-14275984D01*
X11541610Y-14275984D02*
X11522562Y-14275984D01*
X11522562Y-14275984D02*
X11503515Y-14266460D01*
X11503515Y-14266460D02*
X11493991Y-14256936D01*
X11493991Y-14256936D02*
X11484467Y-14237888D01*
X11484467Y-14237888D02*
X11474943Y-14199793D01*
X11474943Y-14199793D02*
X11474943Y-14152174D01*
X11474943Y-14152174D02*
X11484467Y-14114079D01*
X11484467Y-14114079D02*
X11493991Y-14095031D01*
X11493991Y-14095031D02*
X11503515Y-14085508D01*
X11503515Y-14085508D02*
X11522562Y-14075984D01*
X11713039Y-14075984D02*
X11732086Y-14075984D01*
X11732086Y-14075984D02*
X11751134Y-14085508D01*
X11751134Y-14085508D02*
X11760658Y-14095031D01*
X11760658Y-14095031D02*
X11770182Y-14114079D01*
X11770182Y-14114079D02*
X11779705Y-14152174D01*
X11779705Y-14152174D02*
X11779705Y-14199793D01*
X11779705Y-14199793D02*
X11770182Y-14237888D01*
X11770182Y-14237888D02*
X11760658Y-14256936D01*
X11760658Y-14256936D02*
X11751134Y-14266460D01*
X11751134Y-14266460D02*
X11732086Y-14275984D01*
X11732086Y-14275984D02*
X11713039Y-14275984D01*
X11713039Y-14275984D02*
X11693991Y-14266460D01*
X11693991Y-14266460D02*
X11684467Y-14256936D01*
X11684467Y-14256936D02*
X11674943Y-14237888D01*
X11674943Y-14237888D02*
X11665420Y-14199793D01*
X11665420Y-14199793D02*
X11665420Y-14152174D01*
X11665420Y-14152174D02*
X11674943Y-14114079D01*
X11674943Y-14114079D02*
X11684467Y-14095031D01*
X11684467Y-14095031D02*
X11693991Y-14085508D01*
X11693991Y-14085508D02*
X11713039Y-14075984D01*
X11865420Y-14275984D02*
X11865420Y-14142650D01*
X11865420Y-14161698D02*
X11874943Y-14152174D01*
X11874943Y-14152174D02*
X11893991Y-14142650D01*
X11893991Y-14142650D02*
X11922563Y-14142650D01*
X11922563Y-14142650D02*
X11941610Y-14152174D01*
X11941610Y-14152174D02*
X11951134Y-14171222D01*
X11951134Y-14171222D02*
X11951134Y-14275984D01*
X11951134Y-14171222D02*
X11960658Y-14152174D01*
X11960658Y-14152174D02*
X11979705Y-14142650D01*
X11979705Y-14142650D02*
X12008277Y-14142650D01*
X12008277Y-14142650D02*
X12027324Y-14152174D01*
X12027324Y-14152174D02*
X12036848Y-14171222D01*
X12036848Y-14171222D02*
X12036848Y-14275984D01*
X12132086Y-14275984D02*
X12132086Y-14142650D01*
X12132086Y-14161698D02*
X12141610Y-14152174D01*
X12141610Y-14152174D02*
X12160658Y-14142650D01*
X12160658Y-14142650D02*
X12189229Y-14142650D01*
X12189229Y-14142650D02*
X12208277Y-14152174D01*
X12208277Y-14152174D02*
X12217801Y-14171222D01*
X12217801Y-14171222D02*
X12217801Y-14275984D01*
X12217801Y-14171222D02*
X12227324Y-14152174D01*
X12227324Y-14152174D02*
X12246372Y-14142650D01*
X12246372Y-14142650D02*
X12274943Y-14142650D01*
X12274943Y-14142650D02*
X12293991Y-14152174D01*
X12293991Y-14152174D02*
X12303515Y-14171222D01*
X12303515Y-14171222D02*
X12303515Y-14275984D01*
X12693991Y-14066460D02*
X12522563Y-14323603D01*
X12951134Y-14075984D02*
X12970182Y-14075984D01*
X12970182Y-14075984D02*
X12989229Y-14085508D01*
X12989229Y-14085508D02*
X12998753Y-14095031D01*
X12998753Y-14095031D02*
X13008277Y-14114079D01*
X13008277Y-14114079D02*
X13017801Y-14152174D01*
X13017801Y-14152174D02*
X13017801Y-14199793D01*
X13017801Y-14199793D02*
X13008277Y-14237888D01*
X13008277Y-14237888D02*
X12998753Y-14256936D01*
X12998753Y-14256936D02*
X12989229Y-14266460D01*
X12989229Y-14266460D02*
X12970182Y-14275984D01*
X12970182Y-14275984D02*
X12951134Y-14275984D01*
X12951134Y-14275984D02*
X12932086Y-14266460D01*
X12932086Y-14266460D02*
X12922563Y-14256936D01*
X12922563Y-14256936D02*
X12913039Y-14237888D01*
X12913039Y-14237888D02*
X12903515Y-14199793D01*
X12903515Y-14199793D02*
X12903515Y-14152174D01*
X12903515Y-14152174D02*
X12913039Y-14114079D01*
X12913039Y-14114079D02*
X12922563Y-14095031D01*
X12922563Y-14095031D02*
X12932086Y-14085508D01*
X12932086Y-14085508D02*
X12951134Y-14075984D01*
X13103515Y-14256936D02*
X13113039Y-14266460D01*
X13113039Y-14266460D02*
X13103515Y-14275984D01*
X13103515Y-14275984D02*
X13093991Y-14266460D01*
X13093991Y-14266460D02*
X13103515Y-14256936D01*
X13103515Y-14256936D02*
X13103515Y-14275984D01*
X13236848Y-14075984D02*
X13255896Y-14075984D01*
X13255896Y-14075984D02*
X13274944Y-14085508D01*
X13274944Y-14085508D02*
X13284467Y-14095031D01*
X13284467Y-14095031D02*
X13293991Y-14114079D01*
X13293991Y-14114079D02*
X13303515Y-14152174D01*
X13303515Y-14152174D02*
X13303515Y-14199793D01*
X13303515Y-14199793D02*
X13293991Y-14237888D01*
X13293991Y-14237888D02*
X13284467Y-14256936D01*
X13284467Y-14256936D02*
X13274944Y-14266460D01*
X13274944Y-14266460D02*
X13255896Y-14275984D01*
X13255896Y-14275984D02*
X13236848Y-14275984D01*
X13236848Y-14275984D02*
X13217801Y-14266460D01*
X13217801Y-14266460D02*
X13208277Y-14256936D01*
X13208277Y-14256936D02*
X13198753Y-14237888D01*
X13198753Y-14237888D02*
X13189229Y-14199793D01*
X13189229Y-14199793D02*
X13189229Y-14152174D01*
X13189229Y-14152174D02*
X13198753Y-14114079D01*
X13198753Y-14114079D02*
X13208277Y-14095031D01*
X13208277Y-14095031D02*
X13217801Y-14085508D01*
X13217801Y-14085508D02*
X13236848Y-14075984D01*
X13493991Y-14275984D02*
X13379706Y-14275984D01*
X13436848Y-14275984D02*
X13436848Y-14075984D01*
X13436848Y-14075984D02*
X13417801Y-14104555D01*
X13417801Y-14104555D02*
X13398753Y-14123603D01*
X13398753Y-14123603D02*
X13379706Y-14133127D01*
X13589229Y-14275984D02*
X13627325Y-14275984D01*
X13627325Y-14275984D02*
X13646372Y-14266460D01*
X13646372Y-14266460D02*
X13655896Y-14256936D01*
X13655896Y-14256936D02*
X13674944Y-14228365D01*
X13674944Y-14228365D02*
X13684467Y-14190269D01*
X13684467Y-14190269D02*
X13684467Y-14114079D01*
X13684467Y-14114079D02*
X13674944Y-14095031D01*
X13674944Y-14095031D02*
X13665420Y-14085508D01*
X13665420Y-14085508D02*
X13646372Y-14075984D01*
X13646372Y-14075984D02*
X13608277Y-14075984D01*
X13608277Y-14075984D02*
X13589229Y-14085508D01*
X13589229Y-14085508D02*
X13579706Y-14095031D01*
X13579706Y-14095031D02*
X13570182Y-14114079D01*
X13570182Y-14114079D02*
X13570182Y-14161698D01*
X13570182Y-14161698D02*
X13579706Y-14180746D01*
X13579706Y-14180746D02*
X13589229Y-14190269D01*
X13589229Y-14190269D02*
X13608277Y-14199793D01*
X13608277Y-14199793D02*
X13646372Y-14199793D01*
X13646372Y-14199793D02*
X13665420Y-14190269D01*
X13665420Y-14190269D02*
X13674944Y-14180746D01*
X13674944Y-14180746D02*
X13684467Y-14161698D01*
X13751134Y-14075984D02*
X13884467Y-14075984D01*
X13884467Y-14075984D02*
X13798753Y-14275984D01*
X13951134Y-14075984D02*
X13951134Y-14114079D01*
X14027325Y-14075984D02*
X14027325Y-14114079D01*
X14322563Y-14352174D02*
X14313039Y-14342650D01*
X14313039Y-14342650D02*
X14293991Y-14314079D01*
X14293991Y-14314079D02*
X14284468Y-14295031D01*
X14284468Y-14295031D02*
X14274944Y-14266460D01*
X14274944Y-14266460D02*
X14265420Y-14218841D01*
X14265420Y-14218841D02*
X14265420Y-14180746D01*
X14265420Y-14180746D02*
X14274944Y-14133127D01*
X14274944Y-14133127D02*
X14284468Y-14104555D01*
X14284468Y-14104555D02*
X14293991Y-14085508D01*
X14293991Y-14085508D02*
X14313039Y-14056936D01*
X14313039Y-14056936D02*
X14322563Y-14047412D01*
X14503515Y-14275984D02*
X14389229Y-14275984D01*
X14446372Y-14275984D02*
X14446372Y-14075984D01*
X14446372Y-14075984D02*
X14427325Y-14104555D01*
X14427325Y-14104555D02*
X14408277Y-14123603D01*
X14408277Y-14123603D02*
X14389229Y-14133127D01*
X14741610Y-14275984D02*
X14741610Y-14075984D01*
X14827325Y-14275984D02*
X14827325Y-14171222D01*
X14827325Y-14171222D02*
X14817801Y-14152174D01*
X14817801Y-14152174D02*
X14798753Y-14142650D01*
X14798753Y-14142650D02*
X14770182Y-14142650D01*
X14770182Y-14142650D02*
X14751134Y-14152174D01*
X14751134Y-14152174D02*
X14741610Y-14161698D01*
X14951134Y-14275984D02*
X14932087Y-14266460D01*
X14932087Y-14266460D02*
X14922563Y-14256936D01*
X14922563Y-14256936D02*
X14913039Y-14237888D01*
X14913039Y-14237888D02*
X14913039Y-14180746D01*
X14913039Y-14180746D02*
X14922563Y-14161698D01*
X14922563Y-14161698D02*
X14932087Y-14152174D01*
X14932087Y-14152174D02*
X14951134Y-14142650D01*
X14951134Y-14142650D02*
X14979706Y-14142650D01*
X14979706Y-14142650D02*
X14998753Y-14152174D01*
X14998753Y-14152174D02*
X15008277Y-14161698D01*
X15008277Y-14161698D02*
X15017801Y-14180746D01*
X15017801Y-14180746D02*
X15017801Y-14237888D01*
X15017801Y-14237888D02*
X15008277Y-14256936D01*
X15008277Y-14256936D02*
X14998753Y-14266460D01*
X14998753Y-14266460D02*
X14979706Y-14275984D01*
X14979706Y-14275984D02*
X14951134Y-14275984D01*
X15132087Y-14275984D02*
X15113039Y-14266460D01*
X15113039Y-14266460D02*
X15103515Y-14247412D01*
X15103515Y-14247412D02*
X15103515Y-14075984D01*
X15284468Y-14266460D02*
X15265420Y-14275984D01*
X15265420Y-14275984D02*
X15227325Y-14275984D01*
X15227325Y-14275984D02*
X15208277Y-14266460D01*
X15208277Y-14266460D02*
X15198753Y-14247412D01*
X15198753Y-14247412D02*
X15198753Y-14171222D01*
X15198753Y-14171222D02*
X15208277Y-14152174D01*
X15208277Y-14152174D02*
X15227325Y-14142650D01*
X15227325Y-14142650D02*
X15265420Y-14142650D01*
X15265420Y-14142650D02*
X15284468Y-14152174D01*
X15284468Y-14152174D02*
X15293991Y-14171222D01*
X15293991Y-14171222D02*
X15293991Y-14190269D01*
X15293991Y-14190269D02*
X15198753Y-14209317D01*
X15360658Y-14352174D02*
X15370182Y-14342650D01*
X15370182Y-14342650D02*
X15389230Y-14314079D01*
X15389230Y-14314079D02*
X15398753Y-14295031D01*
X15398753Y-14295031D02*
X15408277Y-14266460D01*
X15408277Y-14266460D02*
X15417801Y-14218841D01*
X15417801Y-14218841D02*
X15417801Y-14180746D01*
X15417801Y-14180746D02*
X15408277Y-14133127D01*
X15408277Y-14133127D02*
X15398753Y-14104555D01*
X15398753Y-14104555D02*
X15389230Y-14085508D01*
X15389230Y-14085508D02*
X15370182Y-14056936D01*
X15370182Y-14056936D02*
X15360658Y-14047412D01*
D12*
X10710000Y-14486000D02*
X10747500Y-14448500D01*
X10710000Y-14411000D01*
X10672500Y-14448500D01*
X10710000Y-14486000D01*
D11*
X11046372Y-14339984D02*
X11065420Y-14339984D01*
X11065420Y-14339984D02*
X11084467Y-14349508D01*
X11084467Y-14349508D02*
X11093991Y-14359031D01*
X11093991Y-14359031D02*
X11103515Y-14378079D01*
X11103515Y-14378079D02*
X11113039Y-14416174D01*
X11113039Y-14416174D02*
X11113039Y-14463793D01*
X11113039Y-14463793D02*
X11103515Y-14501888D01*
X11103515Y-14501888D02*
X11093991Y-14520936D01*
X11093991Y-14520936D02*
X11084467Y-14530460D01*
X11084467Y-14530460D02*
X11065420Y-14539984D01*
X11065420Y-14539984D02*
X11046372Y-14539984D01*
X11046372Y-14539984D02*
X11027324Y-14530460D01*
X11027324Y-14530460D02*
X11017801Y-14520936D01*
X11017801Y-14520936D02*
X11008277Y-14501888D01*
X11008277Y-14501888D02*
X10998753Y-14463793D01*
X10998753Y-14463793D02*
X10998753Y-14416174D01*
X10998753Y-14416174D02*
X11008277Y-14378079D01*
X11008277Y-14378079D02*
X11017801Y-14359031D01*
X11017801Y-14359031D02*
X11027324Y-14349508D01*
X11027324Y-14349508D02*
X11046372Y-14339984D01*
X11198753Y-14520936D02*
X11208277Y-14530460D01*
X11208277Y-14530460D02*
X11198753Y-14539984D01*
X11198753Y-14539984D02*
X11189229Y-14530460D01*
X11189229Y-14530460D02*
X11198753Y-14520936D01*
X11198753Y-14520936D02*
X11198753Y-14539984D01*
X11274943Y-14339984D02*
X11408277Y-14339984D01*
X11408277Y-14339984D02*
X11322562Y-14539984D01*
X11579705Y-14339984D02*
X11484467Y-14339984D01*
X11484467Y-14339984D02*
X11474943Y-14435222D01*
X11474943Y-14435222D02*
X11484467Y-14425698D01*
X11484467Y-14425698D02*
X11503515Y-14416174D01*
X11503515Y-14416174D02*
X11551134Y-14416174D01*
X11551134Y-14416174D02*
X11570182Y-14425698D01*
X11570182Y-14425698D02*
X11579705Y-14435222D01*
X11579705Y-14435222D02*
X11589229Y-14454269D01*
X11589229Y-14454269D02*
X11589229Y-14501888D01*
X11589229Y-14501888D02*
X11579705Y-14520936D01*
X11579705Y-14520936D02*
X11570182Y-14530460D01*
X11570182Y-14530460D02*
X11551134Y-14539984D01*
X11551134Y-14539984D02*
X11503515Y-14539984D01*
X11503515Y-14539984D02*
X11484467Y-14530460D01*
X11484467Y-14530460D02*
X11474943Y-14520936D01*
X11713039Y-14339984D02*
X11732086Y-14339984D01*
X11732086Y-14339984D02*
X11751134Y-14349508D01*
X11751134Y-14349508D02*
X11760658Y-14359031D01*
X11760658Y-14359031D02*
X11770182Y-14378079D01*
X11770182Y-14378079D02*
X11779705Y-14416174D01*
X11779705Y-14416174D02*
X11779705Y-14463793D01*
X11779705Y-14463793D02*
X11770182Y-14501888D01*
X11770182Y-14501888D02*
X11760658Y-14520936D01*
X11760658Y-14520936D02*
X11751134Y-14530460D01*
X11751134Y-14530460D02*
X11732086Y-14539984D01*
X11732086Y-14539984D02*
X11713039Y-14539984D01*
X11713039Y-14539984D02*
X11693991Y-14530460D01*
X11693991Y-14530460D02*
X11684467Y-14520936D01*
X11684467Y-14520936D02*
X11674943Y-14501888D01*
X11674943Y-14501888D02*
X11665420Y-14463793D01*
X11665420Y-14463793D02*
X11665420Y-14416174D01*
X11665420Y-14416174D02*
X11674943Y-14378079D01*
X11674943Y-14378079D02*
X11684467Y-14359031D01*
X11684467Y-14359031D02*
X11693991Y-14349508D01*
X11693991Y-14349508D02*
X11713039Y-14339984D01*
X11865420Y-14539984D02*
X11865420Y-14406650D01*
X11865420Y-14425698D02*
X11874943Y-14416174D01*
X11874943Y-14416174D02*
X11893991Y-14406650D01*
X11893991Y-14406650D02*
X11922563Y-14406650D01*
X11922563Y-14406650D02*
X11941610Y-14416174D01*
X11941610Y-14416174D02*
X11951134Y-14435222D01*
X11951134Y-14435222D02*
X11951134Y-14539984D01*
X11951134Y-14435222D02*
X11960658Y-14416174D01*
X11960658Y-14416174D02*
X11979705Y-14406650D01*
X11979705Y-14406650D02*
X12008277Y-14406650D01*
X12008277Y-14406650D02*
X12027324Y-14416174D01*
X12027324Y-14416174D02*
X12036848Y-14435222D01*
X12036848Y-14435222D02*
X12036848Y-14539984D01*
X12132086Y-14539984D02*
X12132086Y-14406650D01*
X12132086Y-14425698D02*
X12141610Y-14416174D01*
X12141610Y-14416174D02*
X12160658Y-14406650D01*
X12160658Y-14406650D02*
X12189229Y-14406650D01*
X12189229Y-14406650D02*
X12208277Y-14416174D01*
X12208277Y-14416174D02*
X12217801Y-14435222D01*
X12217801Y-14435222D02*
X12217801Y-14539984D01*
X12217801Y-14435222D02*
X12227324Y-14416174D01*
X12227324Y-14416174D02*
X12246372Y-14406650D01*
X12246372Y-14406650D02*
X12274943Y-14406650D01*
X12274943Y-14406650D02*
X12293991Y-14416174D01*
X12293991Y-14416174D02*
X12303515Y-14435222D01*
X12303515Y-14435222D02*
X12303515Y-14539984D01*
X12693991Y-14330460D02*
X12522563Y-14587603D01*
X12951134Y-14339984D02*
X12970182Y-14339984D01*
X12970182Y-14339984D02*
X12989229Y-14349508D01*
X12989229Y-14349508D02*
X12998753Y-14359031D01*
X12998753Y-14359031D02*
X13008277Y-14378079D01*
X13008277Y-14378079D02*
X13017801Y-14416174D01*
X13017801Y-14416174D02*
X13017801Y-14463793D01*
X13017801Y-14463793D02*
X13008277Y-14501888D01*
X13008277Y-14501888D02*
X12998753Y-14520936D01*
X12998753Y-14520936D02*
X12989229Y-14530460D01*
X12989229Y-14530460D02*
X12970182Y-14539984D01*
X12970182Y-14539984D02*
X12951134Y-14539984D01*
X12951134Y-14539984D02*
X12932086Y-14530460D01*
X12932086Y-14530460D02*
X12922563Y-14520936D01*
X12922563Y-14520936D02*
X12913039Y-14501888D01*
X12913039Y-14501888D02*
X12903515Y-14463793D01*
X12903515Y-14463793D02*
X12903515Y-14416174D01*
X12903515Y-14416174D02*
X12913039Y-14378079D01*
X12913039Y-14378079D02*
X12922563Y-14359031D01*
X12922563Y-14359031D02*
X12932086Y-14349508D01*
X12932086Y-14349508D02*
X12951134Y-14339984D01*
X13103515Y-14520936D02*
X13113039Y-14530460D01*
X13113039Y-14530460D02*
X13103515Y-14539984D01*
X13103515Y-14539984D02*
X13093991Y-14530460D01*
X13093991Y-14530460D02*
X13103515Y-14520936D01*
X13103515Y-14520936D02*
X13103515Y-14539984D01*
X13236848Y-14339984D02*
X13255896Y-14339984D01*
X13255896Y-14339984D02*
X13274944Y-14349508D01*
X13274944Y-14349508D02*
X13284467Y-14359031D01*
X13284467Y-14359031D02*
X13293991Y-14378079D01*
X13293991Y-14378079D02*
X13303515Y-14416174D01*
X13303515Y-14416174D02*
X13303515Y-14463793D01*
X13303515Y-14463793D02*
X13293991Y-14501888D01*
X13293991Y-14501888D02*
X13284467Y-14520936D01*
X13284467Y-14520936D02*
X13274944Y-14530460D01*
X13274944Y-14530460D02*
X13255896Y-14539984D01*
X13255896Y-14539984D02*
X13236848Y-14539984D01*
X13236848Y-14539984D02*
X13217801Y-14530460D01*
X13217801Y-14530460D02*
X13208277Y-14520936D01*
X13208277Y-14520936D02*
X13198753Y-14501888D01*
X13198753Y-14501888D02*
X13189229Y-14463793D01*
X13189229Y-14463793D02*
X13189229Y-14416174D01*
X13189229Y-14416174D02*
X13198753Y-14378079D01*
X13198753Y-14378079D02*
X13208277Y-14359031D01*
X13208277Y-14359031D02*
X13217801Y-14349508D01*
X13217801Y-14349508D02*
X13236848Y-14339984D01*
X13379706Y-14359031D02*
X13389229Y-14349508D01*
X13389229Y-14349508D02*
X13408277Y-14339984D01*
X13408277Y-14339984D02*
X13455896Y-14339984D01*
X13455896Y-14339984D02*
X13474944Y-14349508D01*
X13474944Y-14349508D02*
X13484467Y-14359031D01*
X13484467Y-14359031D02*
X13493991Y-14378079D01*
X13493991Y-14378079D02*
X13493991Y-14397127D01*
X13493991Y-14397127D02*
X13484467Y-14425698D01*
X13484467Y-14425698D02*
X13370182Y-14539984D01*
X13370182Y-14539984D02*
X13493991Y-14539984D01*
X13589229Y-14539984D02*
X13627325Y-14539984D01*
X13627325Y-14539984D02*
X13646372Y-14530460D01*
X13646372Y-14530460D02*
X13655896Y-14520936D01*
X13655896Y-14520936D02*
X13674944Y-14492365D01*
X13674944Y-14492365D02*
X13684467Y-14454269D01*
X13684467Y-14454269D02*
X13684467Y-14378079D01*
X13684467Y-14378079D02*
X13674944Y-14359031D01*
X13674944Y-14359031D02*
X13665420Y-14349508D01*
X13665420Y-14349508D02*
X13646372Y-14339984D01*
X13646372Y-14339984D02*
X13608277Y-14339984D01*
X13608277Y-14339984D02*
X13589229Y-14349508D01*
X13589229Y-14349508D02*
X13579706Y-14359031D01*
X13579706Y-14359031D02*
X13570182Y-14378079D01*
X13570182Y-14378079D02*
X13570182Y-14425698D01*
X13570182Y-14425698D02*
X13579706Y-14444746D01*
X13579706Y-14444746D02*
X13589229Y-14454269D01*
X13589229Y-14454269D02*
X13608277Y-14463793D01*
X13608277Y-14463793D02*
X13646372Y-14463793D01*
X13646372Y-14463793D02*
X13665420Y-14454269D01*
X13665420Y-14454269D02*
X13674944Y-14444746D01*
X13674944Y-14444746D02*
X13684467Y-14425698D01*
X13865420Y-14339984D02*
X13770182Y-14339984D01*
X13770182Y-14339984D02*
X13760658Y-14435222D01*
X13760658Y-14435222D02*
X13770182Y-14425698D01*
X13770182Y-14425698D02*
X13789229Y-14416174D01*
X13789229Y-14416174D02*
X13836848Y-14416174D01*
X13836848Y-14416174D02*
X13855896Y-14425698D01*
X13855896Y-14425698D02*
X13865420Y-14435222D01*
X13865420Y-14435222D02*
X13874944Y-14454269D01*
X13874944Y-14454269D02*
X13874944Y-14501888D01*
X13874944Y-14501888D02*
X13865420Y-14520936D01*
X13865420Y-14520936D02*
X13855896Y-14530460D01*
X13855896Y-14530460D02*
X13836848Y-14539984D01*
X13836848Y-14539984D02*
X13789229Y-14539984D01*
X13789229Y-14539984D02*
X13770182Y-14530460D01*
X13770182Y-14530460D02*
X13760658Y-14520936D01*
X13951134Y-14339984D02*
X13951134Y-14378079D01*
X14027325Y-14339984D02*
X14027325Y-14378079D01*
X14322563Y-14616174D02*
X14313039Y-14606650D01*
X14313039Y-14606650D02*
X14293991Y-14578079D01*
X14293991Y-14578079D02*
X14284468Y-14559031D01*
X14284468Y-14559031D02*
X14274944Y-14530460D01*
X14274944Y-14530460D02*
X14265420Y-14482841D01*
X14265420Y-14482841D02*
X14265420Y-14444746D01*
X14265420Y-14444746D02*
X14274944Y-14397127D01*
X14274944Y-14397127D02*
X14284468Y-14368555D01*
X14284468Y-14368555D02*
X14293991Y-14349508D01*
X14293991Y-14349508D02*
X14313039Y-14320936D01*
X14313039Y-14320936D02*
X14322563Y-14311412D01*
X14493991Y-14339984D02*
X14398753Y-14339984D01*
X14398753Y-14339984D02*
X14389229Y-14435222D01*
X14389229Y-14435222D02*
X14398753Y-14425698D01*
X14398753Y-14425698D02*
X14417801Y-14416174D01*
X14417801Y-14416174D02*
X14465420Y-14416174D01*
X14465420Y-14416174D02*
X14484468Y-14425698D01*
X14484468Y-14425698D02*
X14493991Y-14435222D01*
X14493991Y-14435222D02*
X14503515Y-14454269D01*
X14503515Y-14454269D02*
X14503515Y-14501888D01*
X14503515Y-14501888D02*
X14493991Y-14520936D01*
X14493991Y-14520936D02*
X14484468Y-14530460D01*
X14484468Y-14530460D02*
X14465420Y-14539984D01*
X14465420Y-14539984D02*
X14417801Y-14539984D01*
X14417801Y-14539984D02*
X14398753Y-14530460D01*
X14398753Y-14530460D02*
X14389229Y-14520936D01*
X14741610Y-14539984D02*
X14741610Y-14339984D01*
X14827325Y-14539984D02*
X14827325Y-14435222D01*
X14827325Y-14435222D02*
X14817801Y-14416174D01*
X14817801Y-14416174D02*
X14798753Y-14406650D01*
X14798753Y-14406650D02*
X14770182Y-14406650D01*
X14770182Y-14406650D02*
X14751134Y-14416174D01*
X14751134Y-14416174D02*
X14741610Y-14425698D01*
X14951134Y-14539984D02*
X14932087Y-14530460D01*
X14932087Y-14530460D02*
X14922563Y-14520936D01*
X14922563Y-14520936D02*
X14913039Y-14501888D01*
X14913039Y-14501888D02*
X14913039Y-14444746D01*
X14913039Y-14444746D02*
X14922563Y-14425698D01*
X14922563Y-14425698D02*
X14932087Y-14416174D01*
X14932087Y-14416174D02*
X14951134Y-14406650D01*
X14951134Y-14406650D02*
X14979706Y-14406650D01*
X14979706Y-14406650D02*
X14998753Y-14416174D01*
X14998753Y-14416174D02*
X15008277Y-14425698D01*
X15008277Y-14425698D02*
X15017801Y-14444746D01*
X15017801Y-14444746D02*
X15017801Y-14501888D01*
X15017801Y-14501888D02*
X15008277Y-14520936D01*
X15008277Y-14520936D02*
X14998753Y-14530460D01*
X14998753Y-14530460D02*
X14979706Y-14539984D01*
X14979706Y-14539984D02*
X14951134Y-14539984D01*
X15132087Y-14539984D02*
X15113039Y-14530460D01*
X15113039Y-14530460D02*
X15103515Y-14511412D01*
X15103515Y-14511412D02*
X15103515Y-14339984D01*
X15284468Y-14530460D02*
X15265420Y-14539984D01*
X15265420Y-14539984D02*
X15227325Y-14539984D01*
X15227325Y-14539984D02*
X15208277Y-14530460D01*
X15208277Y-14530460D02*
X15198753Y-14511412D01*
X15198753Y-14511412D02*
X15198753Y-14435222D01*
X15198753Y-14435222D02*
X15208277Y-14416174D01*
X15208277Y-14416174D02*
X15227325Y-14406650D01*
X15227325Y-14406650D02*
X15265420Y-14406650D01*
X15265420Y-14406650D02*
X15284468Y-14416174D01*
X15284468Y-14416174D02*
X15293991Y-14435222D01*
X15293991Y-14435222D02*
X15293991Y-14454269D01*
X15293991Y-14454269D02*
X15198753Y-14473317D01*
X15370182Y-14530460D02*
X15389230Y-14539984D01*
X15389230Y-14539984D02*
X15427325Y-14539984D01*
X15427325Y-14539984D02*
X15446372Y-14530460D01*
X15446372Y-14530460D02*
X15455896Y-14511412D01*
X15455896Y-14511412D02*
X15455896Y-14501888D01*
X15455896Y-14501888D02*
X15446372Y-14482841D01*
X15446372Y-14482841D02*
X15427325Y-14473317D01*
X15427325Y-14473317D02*
X15398753Y-14473317D01*
X15398753Y-14473317D02*
X15379706Y-14463793D01*
X15379706Y-14463793D02*
X15370182Y-14444746D01*
X15370182Y-14444746D02*
X15370182Y-14435222D01*
X15370182Y-14435222D02*
X15379706Y-14416174D01*
X15379706Y-14416174D02*
X15398753Y-14406650D01*
X15398753Y-14406650D02*
X15427325Y-14406650D01*
X15427325Y-14406650D02*
X15446372Y-14416174D01*
X15522563Y-14616174D02*
X15532087Y-14606650D01*
X15532087Y-14606650D02*
X15551134Y-14578079D01*
X15551134Y-14578079D02*
X15560658Y-14559031D01*
X15560658Y-14559031D02*
X15570182Y-14530460D01*
X15570182Y-14530460D02*
X15579706Y-14482841D01*
X15579706Y-14482841D02*
X15579706Y-14444746D01*
X15579706Y-14444746D02*
X15570182Y-14397127D01*
X15570182Y-14397127D02*
X15560658Y-14368555D01*
X15560658Y-14368555D02*
X15551134Y-14349508D01*
X15551134Y-14349508D02*
X15532087Y-14320936D01*
X15532087Y-14320936D02*
X15522563Y-14311412D01*
D12*
X10663500Y-14670500D02*
X10747500Y-14754500D01*
X10747500Y-14670500D02*
X10663500Y-14754500D01*
X10747500Y-14712500D02*
G75*
G02*
X10663500Y-14712500I-42000J0D01*
G01*
X10663500Y-14712500D02*
G75*
G02*
X10747500Y-14712500I42000J0D01*
G01*
D11*
X11046372Y-14603984D02*
X11065420Y-14603984D01*
X11065420Y-14603984D02*
X11084467Y-14613508D01*
X11084467Y-14613508D02*
X11093991Y-14623031D01*
X11093991Y-14623031D02*
X11103515Y-14642079D01*
X11103515Y-14642079D02*
X11113039Y-14680174D01*
X11113039Y-14680174D02*
X11113039Y-14727793D01*
X11113039Y-14727793D02*
X11103515Y-14765888D01*
X11103515Y-14765888D02*
X11093991Y-14784936D01*
X11093991Y-14784936D02*
X11084467Y-14794460D01*
X11084467Y-14794460D02*
X11065420Y-14803984D01*
X11065420Y-14803984D02*
X11046372Y-14803984D01*
X11046372Y-14803984D02*
X11027324Y-14794460D01*
X11027324Y-14794460D02*
X11017801Y-14784936D01*
X11017801Y-14784936D02*
X11008277Y-14765888D01*
X11008277Y-14765888D02*
X10998753Y-14727793D01*
X10998753Y-14727793D02*
X10998753Y-14680174D01*
X10998753Y-14680174D02*
X11008277Y-14642079D01*
X11008277Y-14642079D02*
X11017801Y-14623031D01*
X11017801Y-14623031D02*
X11027324Y-14613508D01*
X11027324Y-14613508D02*
X11046372Y-14603984D01*
X11198753Y-14784936D02*
X11208277Y-14794460D01*
X11208277Y-14794460D02*
X11198753Y-14803984D01*
X11198753Y-14803984D02*
X11189229Y-14794460D01*
X11189229Y-14794460D02*
X11198753Y-14784936D01*
X11198753Y-14784936D02*
X11198753Y-14803984D01*
X11322562Y-14689698D02*
X11303515Y-14680174D01*
X11303515Y-14680174D02*
X11293991Y-14670650D01*
X11293991Y-14670650D02*
X11284467Y-14651603D01*
X11284467Y-14651603D02*
X11284467Y-14642079D01*
X11284467Y-14642079D02*
X11293991Y-14623031D01*
X11293991Y-14623031D02*
X11303515Y-14613508D01*
X11303515Y-14613508D02*
X11322562Y-14603984D01*
X11322562Y-14603984D02*
X11360658Y-14603984D01*
X11360658Y-14603984D02*
X11379705Y-14613508D01*
X11379705Y-14613508D02*
X11389229Y-14623031D01*
X11389229Y-14623031D02*
X11398753Y-14642079D01*
X11398753Y-14642079D02*
X11398753Y-14651603D01*
X11398753Y-14651603D02*
X11389229Y-14670650D01*
X11389229Y-14670650D02*
X11379705Y-14680174D01*
X11379705Y-14680174D02*
X11360658Y-14689698D01*
X11360658Y-14689698D02*
X11322562Y-14689698D01*
X11322562Y-14689698D02*
X11303515Y-14699222D01*
X11303515Y-14699222D02*
X11293991Y-14708746D01*
X11293991Y-14708746D02*
X11284467Y-14727793D01*
X11284467Y-14727793D02*
X11284467Y-14765888D01*
X11284467Y-14765888D02*
X11293991Y-14784936D01*
X11293991Y-14784936D02*
X11303515Y-14794460D01*
X11303515Y-14794460D02*
X11322562Y-14803984D01*
X11322562Y-14803984D02*
X11360658Y-14803984D01*
X11360658Y-14803984D02*
X11379705Y-14794460D01*
X11379705Y-14794460D02*
X11389229Y-14784936D01*
X11389229Y-14784936D02*
X11398753Y-14765888D01*
X11398753Y-14765888D02*
X11398753Y-14727793D01*
X11398753Y-14727793D02*
X11389229Y-14708746D01*
X11389229Y-14708746D02*
X11379705Y-14699222D01*
X11379705Y-14699222D02*
X11360658Y-14689698D01*
X11570182Y-14670650D02*
X11570182Y-14803984D01*
X11522562Y-14594460D02*
X11474943Y-14737317D01*
X11474943Y-14737317D02*
X11598753Y-14737317D01*
X11713039Y-14603984D02*
X11732086Y-14603984D01*
X11732086Y-14603984D02*
X11751134Y-14613508D01*
X11751134Y-14613508D02*
X11760658Y-14623031D01*
X11760658Y-14623031D02*
X11770182Y-14642079D01*
X11770182Y-14642079D02*
X11779705Y-14680174D01*
X11779705Y-14680174D02*
X11779705Y-14727793D01*
X11779705Y-14727793D02*
X11770182Y-14765888D01*
X11770182Y-14765888D02*
X11760658Y-14784936D01*
X11760658Y-14784936D02*
X11751134Y-14794460D01*
X11751134Y-14794460D02*
X11732086Y-14803984D01*
X11732086Y-14803984D02*
X11713039Y-14803984D01*
X11713039Y-14803984D02*
X11693991Y-14794460D01*
X11693991Y-14794460D02*
X11684467Y-14784936D01*
X11684467Y-14784936D02*
X11674943Y-14765888D01*
X11674943Y-14765888D02*
X11665420Y-14727793D01*
X11665420Y-14727793D02*
X11665420Y-14680174D01*
X11665420Y-14680174D02*
X11674943Y-14642079D01*
X11674943Y-14642079D02*
X11684467Y-14623031D01*
X11684467Y-14623031D02*
X11693991Y-14613508D01*
X11693991Y-14613508D02*
X11713039Y-14603984D01*
X11865420Y-14803984D02*
X11865420Y-14670650D01*
X11865420Y-14689698D02*
X11874943Y-14680174D01*
X11874943Y-14680174D02*
X11893991Y-14670650D01*
X11893991Y-14670650D02*
X11922563Y-14670650D01*
X11922563Y-14670650D02*
X11941610Y-14680174D01*
X11941610Y-14680174D02*
X11951134Y-14699222D01*
X11951134Y-14699222D02*
X11951134Y-14803984D01*
X11951134Y-14699222D02*
X11960658Y-14680174D01*
X11960658Y-14680174D02*
X11979705Y-14670650D01*
X11979705Y-14670650D02*
X12008277Y-14670650D01*
X12008277Y-14670650D02*
X12027324Y-14680174D01*
X12027324Y-14680174D02*
X12036848Y-14699222D01*
X12036848Y-14699222D02*
X12036848Y-14803984D01*
X12132086Y-14803984D02*
X12132086Y-14670650D01*
X12132086Y-14689698D02*
X12141610Y-14680174D01*
X12141610Y-14680174D02*
X12160658Y-14670650D01*
X12160658Y-14670650D02*
X12189229Y-14670650D01*
X12189229Y-14670650D02*
X12208277Y-14680174D01*
X12208277Y-14680174D02*
X12217801Y-14699222D01*
X12217801Y-14699222D02*
X12217801Y-14803984D01*
X12217801Y-14699222D02*
X12227324Y-14680174D01*
X12227324Y-14680174D02*
X12246372Y-14670650D01*
X12246372Y-14670650D02*
X12274943Y-14670650D01*
X12274943Y-14670650D02*
X12293991Y-14680174D01*
X12293991Y-14680174D02*
X12303515Y-14699222D01*
X12303515Y-14699222D02*
X12303515Y-14803984D01*
X12693991Y-14594460D02*
X12522563Y-14851603D01*
X12951134Y-14603984D02*
X12970182Y-14603984D01*
X12970182Y-14603984D02*
X12989229Y-14613508D01*
X12989229Y-14613508D02*
X12998753Y-14623031D01*
X12998753Y-14623031D02*
X13008277Y-14642079D01*
X13008277Y-14642079D02*
X13017801Y-14680174D01*
X13017801Y-14680174D02*
X13017801Y-14727793D01*
X13017801Y-14727793D02*
X13008277Y-14765888D01*
X13008277Y-14765888D02*
X12998753Y-14784936D01*
X12998753Y-14784936D02*
X12989229Y-14794460D01*
X12989229Y-14794460D02*
X12970182Y-14803984D01*
X12970182Y-14803984D02*
X12951134Y-14803984D01*
X12951134Y-14803984D02*
X12932086Y-14794460D01*
X12932086Y-14794460D02*
X12922563Y-14784936D01*
X12922563Y-14784936D02*
X12913039Y-14765888D01*
X12913039Y-14765888D02*
X12903515Y-14727793D01*
X12903515Y-14727793D02*
X12903515Y-14680174D01*
X12903515Y-14680174D02*
X12913039Y-14642079D01*
X12913039Y-14642079D02*
X12922563Y-14623031D01*
X12922563Y-14623031D02*
X12932086Y-14613508D01*
X12932086Y-14613508D02*
X12951134Y-14603984D01*
X13103515Y-14784936D02*
X13113039Y-14794460D01*
X13113039Y-14794460D02*
X13103515Y-14803984D01*
X13103515Y-14803984D02*
X13093991Y-14794460D01*
X13093991Y-14794460D02*
X13103515Y-14784936D01*
X13103515Y-14784936D02*
X13103515Y-14803984D01*
X13236848Y-14603984D02*
X13255896Y-14603984D01*
X13255896Y-14603984D02*
X13274944Y-14613508D01*
X13274944Y-14613508D02*
X13284467Y-14623031D01*
X13284467Y-14623031D02*
X13293991Y-14642079D01*
X13293991Y-14642079D02*
X13303515Y-14680174D01*
X13303515Y-14680174D02*
X13303515Y-14727793D01*
X13303515Y-14727793D02*
X13293991Y-14765888D01*
X13293991Y-14765888D02*
X13284467Y-14784936D01*
X13284467Y-14784936D02*
X13274944Y-14794460D01*
X13274944Y-14794460D02*
X13255896Y-14803984D01*
X13255896Y-14803984D02*
X13236848Y-14803984D01*
X13236848Y-14803984D02*
X13217801Y-14794460D01*
X13217801Y-14794460D02*
X13208277Y-14784936D01*
X13208277Y-14784936D02*
X13198753Y-14765888D01*
X13198753Y-14765888D02*
X13189229Y-14727793D01*
X13189229Y-14727793D02*
X13189229Y-14680174D01*
X13189229Y-14680174D02*
X13198753Y-14642079D01*
X13198753Y-14642079D02*
X13208277Y-14623031D01*
X13208277Y-14623031D02*
X13217801Y-14613508D01*
X13217801Y-14613508D02*
X13236848Y-14603984D01*
X13370182Y-14603984D02*
X13493991Y-14603984D01*
X13493991Y-14603984D02*
X13427325Y-14680174D01*
X13427325Y-14680174D02*
X13455896Y-14680174D01*
X13455896Y-14680174D02*
X13474944Y-14689698D01*
X13474944Y-14689698D02*
X13484467Y-14699222D01*
X13484467Y-14699222D02*
X13493991Y-14718269D01*
X13493991Y-14718269D02*
X13493991Y-14765888D01*
X13493991Y-14765888D02*
X13484467Y-14784936D01*
X13484467Y-14784936D02*
X13474944Y-14794460D01*
X13474944Y-14794460D02*
X13455896Y-14803984D01*
X13455896Y-14803984D02*
X13398753Y-14803984D01*
X13398753Y-14803984D02*
X13379706Y-14794460D01*
X13379706Y-14794460D02*
X13370182Y-14784936D01*
X13560658Y-14603984D02*
X13684467Y-14603984D01*
X13684467Y-14603984D02*
X13617801Y-14680174D01*
X13617801Y-14680174D02*
X13646372Y-14680174D01*
X13646372Y-14680174D02*
X13665420Y-14689698D01*
X13665420Y-14689698D02*
X13674944Y-14699222D01*
X13674944Y-14699222D02*
X13684467Y-14718269D01*
X13684467Y-14718269D02*
X13684467Y-14765888D01*
X13684467Y-14765888D02*
X13674944Y-14784936D01*
X13674944Y-14784936D02*
X13665420Y-14794460D01*
X13665420Y-14794460D02*
X13646372Y-14803984D01*
X13646372Y-14803984D02*
X13589229Y-14803984D01*
X13589229Y-14803984D02*
X13570182Y-14794460D01*
X13570182Y-14794460D02*
X13560658Y-14784936D01*
X13874944Y-14803984D02*
X13760658Y-14803984D01*
X13817801Y-14803984D02*
X13817801Y-14603984D01*
X13817801Y-14603984D02*
X13798753Y-14632555D01*
X13798753Y-14632555D02*
X13779706Y-14651603D01*
X13779706Y-14651603D02*
X13760658Y-14661127D01*
X13951134Y-14603984D02*
X13951134Y-14642079D01*
X14027325Y-14603984D02*
X14027325Y-14642079D01*
X14322563Y-14880174D02*
X14313039Y-14870650D01*
X14313039Y-14870650D02*
X14293991Y-14842079D01*
X14293991Y-14842079D02*
X14284468Y-14823031D01*
X14284468Y-14823031D02*
X14274944Y-14794460D01*
X14274944Y-14794460D02*
X14265420Y-14746841D01*
X14265420Y-14746841D02*
X14265420Y-14708746D01*
X14265420Y-14708746D02*
X14274944Y-14661127D01*
X14274944Y-14661127D02*
X14284468Y-14632555D01*
X14284468Y-14632555D02*
X14293991Y-14613508D01*
X14293991Y-14613508D02*
X14313039Y-14584936D01*
X14313039Y-14584936D02*
X14322563Y-14575412D01*
X14493991Y-14603984D02*
X14398753Y-14603984D01*
X14398753Y-14603984D02*
X14389229Y-14699222D01*
X14389229Y-14699222D02*
X14398753Y-14689698D01*
X14398753Y-14689698D02*
X14417801Y-14680174D01*
X14417801Y-14680174D02*
X14465420Y-14680174D01*
X14465420Y-14680174D02*
X14484468Y-14689698D01*
X14484468Y-14689698D02*
X14493991Y-14699222D01*
X14493991Y-14699222D02*
X14503515Y-14718269D01*
X14503515Y-14718269D02*
X14503515Y-14765888D01*
X14503515Y-14765888D02*
X14493991Y-14784936D01*
X14493991Y-14784936D02*
X14484468Y-14794460D01*
X14484468Y-14794460D02*
X14465420Y-14803984D01*
X14465420Y-14803984D02*
X14417801Y-14803984D01*
X14417801Y-14803984D02*
X14398753Y-14794460D01*
X14398753Y-14794460D02*
X14389229Y-14784936D01*
X14741610Y-14803984D02*
X14741610Y-14603984D01*
X14827325Y-14803984D02*
X14827325Y-14699222D01*
X14827325Y-14699222D02*
X14817801Y-14680174D01*
X14817801Y-14680174D02*
X14798753Y-14670650D01*
X14798753Y-14670650D02*
X14770182Y-14670650D01*
X14770182Y-14670650D02*
X14751134Y-14680174D01*
X14751134Y-14680174D02*
X14741610Y-14689698D01*
X14951134Y-14803984D02*
X14932087Y-14794460D01*
X14932087Y-14794460D02*
X14922563Y-14784936D01*
X14922563Y-14784936D02*
X14913039Y-14765888D01*
X14913039Y-14765888D02*
X14913039Y-14708746D01*
X14913039Y-14708746D02*
X14922563Y-14689698D01*
X14922563Y-14689698D02*
X14932087Y-14680174D01*
X14932087Y-14680174D02*
X14951134Y-14670650D01*
X14951134Y-14670650D02*
X14979706Y-14670650D01*
X14979706Y-14670650D02*
X14998753Y-14680174D01*
X14998753Y-14680174D02*
X15008277Y-14689698D01*
X15008277Y-14689698D02*
X15017801Y-14708746D01*
X15017801Y-14708746D02*
X15017801Y-14765888D01*
X15017801Y-14765888D02*
X15008277Y-14784936D01*
X15008277Y-14784936D02*
X14998753Y-14794460D01*
X14998753Y-14794460D02*
X14979706Y-14803984D01*
X14979706Y-14803984D02*
X14951134Y-14803984D01*
X15132087Y-14803984D02*
X15113039Y-14794460D01*
X15113039Y-14794460D02*
X15103515Y-14775412D01*
X15103515Y-14775412D02*
X15103515Y-14603984D01*
X15284468Y-14794460D02*
X15265420Y-14803984D01*
X15265420Y-14803984D02*
X15227325Y-14803984D01*
X15227325Y-14803984D02*
X15208277Y-14794460D01*
X15208277Y-14794460D02*
X15198753Y-14775412D01*
X15198753Y-14775412D02*
X15198753Y-14699222D01*
X15198753Y-14699222D02*
X15208277Y-14680174D01*
X15208277Y-14680174D02*
X15227325Y-14670650D01*
X15227325Y-14670650D02*
X15265420Y-14670650D01*
X15265420Y-14670650D02*
X15284468Y-14680174D01*
X15284468Y-14680174D02*
X15293991Y-14699222D01*
X15293991Y-14699222D02*
X15293991Y-14718269D01*
X15293991Y-14718269D02*
X15198753Y-14737317D01*
X15370182Y-14794460D02*
X15389230Y-14803984D01*
X15389230Y-14803984D02*
X15427325Y-14803984D01*
X15427325Y-14803984D02*
X15446372Y-14794460D01*
X15446372Y-14794460D02*
X15455896Y-14775412D01*
X15455896Y-14775412D02*
X15455896Y-14765888D01*
X15455896Y-14765888D02*
X15446372Y-14746841D01*
X15446372Y-14746841D02*
X15427325Y-14737317D01*
X15427325Y-14737317D02*
X15398753Y-14737317D01*
X15398753Y-14737317D02*
X15379706Y-14727793D01*
X15379706Y-14727793D02*
X15370182Y-14708746D01*
X15370182Y-14708746D02*
X15370182Y-14699222D01*
X15370182Y-14699222D02*
X15379706Y-14680174D01*
X15379706Y-14680174D02*
X15398753Y-14670650D01*
X15398753Y-14670650D02*
X15427325Y-14670650D01*
X15427325Y-14670650D02*
X15446372Y-14680174D01*
X15522563Y-14880174D02*
X15532087Y-14870650D01*
X15532087Y-14870650D02*
X15551134Y-14842079D01*
X15551134Y-14842079D02*
X15560658Y-14823031D01*
X15560658Y-14823031D02*
X15570182Y-14794460D01*
X15570182Y-14794460D02*
X15579706Y-14746841D01*
X15579706Y-14746841D02*
X15579706Y-14708746D01*
X15579706Y-14708746D02*
X15570182Y-14661127D01*
X15570182Y-14661127D02*
X15560658Y-14632555D01*
X15560658Y-14632555D02*
X15551134Y-14613508D01*
X15551134Y-14613508D02*
X15532087Y-14584936D01*
X15532087Y-14584936D02*
X15522563Y-14575412D01*
D12*
X10660500Y-14933000D02*
X10747500Y-15020000D01*
X10747500Y-14933000D02*
X10660500Y-15020000D01*
X10704000Y-14933000D02*
X10704000Y-15020000D01*
X10660500Y-14976500D02*
X10747500Y-14976500D01*
D11*
X11046372Y-14867984D02*
X11065420Y-14867984D01*
X11065420Y-14867984D02*
X11084467Y-14877508D01*
X11084467Y-14877508D02*
X11093991Y-14887031D01*
X11093991Y-14887031D02*
X11103515Y-14906079D01*
X11103515Y-14906079D02*
X11113039Y-14944174D01*
X11113039Y-14944174D02*
X11113039Y-14991793D01*
X11113039Y-14991793D02*
X11103515Y-15029888D01*
X11103515Y-15029888D02*
X11093991Y-15048936D01*
X11093991Y-15048936D02*
X11084467Y-15058460D01*
X11084467Y-15058460D02*
X11065420Y-15067984D01*
X11065420Y-15067984D02*
X11046372Y-15067984D01*
X11046372Y-15067984D02*
X11027324Y-15058460D01*
X11027324Y-15058460D02*
X11017801Y-15048936D01*
X11017801Y-15048936D02*
X11008277Y-15029888D01*
X11008277Y-15029888D02*
X10998753Y-14991793D01*
X10998753Y-14991793D02*
X10998753Y-14944174D01*
X10998753Y-14944174D02*
X11008277Y-14906079D01*
X11008277Y-14906079D02*
X11017801Y-14887031D01*
X11017801Y-14887031D02*
X11027324Y-14877508D01*
X11027324Y-14877508D02*
X11046372Y-14867984D01*
X11198753Y-15048936D02*
X11208277Y-15058460D01*
X11208277Y-15058460D02*
X11198753Y-15067984D01*
X11198753Y-15067984D02*
X11189229Y-15058460D01*
X11189229Y-15058460D02*
X11198753Y-15048936D01*
X11198753Y-15048936D02*
X11198753Y-15067984D01*
X11322562Y-14953698D02*
X11303515Y-14944174D01*
X11303515Y-14944174D02*
X11293991Y-14934650D01*
X11293991Y-14934650D02*
X11284467Y-14915603D01*
X11284467Y-14915603D02*
X11284467Y-14906079D01*
X11284467Y-14906079D02*
X11293991Y-14887031D01*
X11293991Y-14887031D02*
X11303515Y-14877508D01*
X11303515Y-14877508D02*
X11322562Y-14867984D01*
X11322562Y-14867984D02*
X11360658Y-14867984D01*
X11360658Y-14867984D02*
X11379705Y-14877508D01*
X11379705Y-14877508D02*
X11389229Y-14887031D01*
X11389229Y-14887031D02*
X11398753Y-14906079D01*
X11398753Y-14906079D02*
X11398753Y-14915603D01*
X11398753Y-14915603D02*
X11389229Y-14934650D01*
X11389229Y-14934650D02*
X11379705Y-14944174D01*
X11379705Y-14944174D02*
X11360658Y-14953698D01*
X11360658Y-14953698D02*
X11322562Y-14953698D01*
X11322562Y-14953698D02*
X11303515Y-14963222D01*
X11303515Y-14963222D02*
X11293991Y-14972746D01*
X11293991Y-14972746D02*
X11284467Y-14991793D01*
X11284467Y-14991793D02*
X11284467Y-15029888D01*
X11284467Y-15029888D02*
X11293991Y-15048936D01*
X11293991Y-15048936D02*
X11303515Y-15058460D01*
X11303515Y-15058460D02*
X11322562Y-15067984D01*
X11322562Y-15067984D02*
X11360658Y-15067984D01*
X11360658Y-15067984D02*
X11379705Y-15058460D01*
X11379705Y-15058460D02*
X11389229Y-15048936D01*
X11389229Y-15048936D02*
X11398753Y-15029888D01*
X11398753Y-15029888D02*
X11398753Y-14991793D01*
X11398753Y-14991793D02*
X11389229Y-14972746D01*
X11389229Y-14972746D02*
X11379705Y-14963222D01*
X11379705Y-14963222D02*
X11360658Y-14953698D01*
X11465420Y-14867984D02*
X11598753Y-14867984D01*
X11598753Y-14867984D02*
X11513039Y-15067984D01*
X11713039Y-14867984D02*
X11732086Y-14867984D01*
X11732086Y-14867984D02*
X11751134Y-14877508D01*
X11751134Y-14877508D02*
X11760658Y-14887031D01*
X11760658Y-14887031D02*
X11770182Y-14906079D01*
X11770182Y-14906079D02*
X11779705Y-14944174D01*
X11779705Y-14944174D02*
X11779705Y-14991793D01*
X11779705Y-14991793D02*
X11770182Y-15029888D01*
X11770182Y-15029888D02*
X11760658Y-15048936D01*
X11760658Y-15048936D02*
X11751134Y-15058460D01*
X11751134Y-15058460D02*
X11732086Y-15067984D01*
X11732086Y-15067984D02*
X11713039Y-15067984D01*
X11713039Y-15067984D02*
X11693991Y-15058460D01*
X11693991Y-15058460D02*
X11684467Y-15048936D01*
X11684467Y-15048936D02*
X11674943Y-15029888D01*
X11674943Y-15029888D02*
X11665420Y-14991793D01*
X11665420Y-14991793D02*
X11665420Y-14944174D01*
X11665420Y-14944174D02*
X11674943Y-14906079D01*
X11674943Y-14906079D02*
X11684467Y-14887031D01*
X11684467Y-14887031D02*
X11693991Y-14877508D01*
X11693991Y-14877508D02*
X11713039Y-14867984D01*
X11865420Y-15067984D02*
X11865420Y-14934650D01*
X11865420Y-14953698D02*
X11874943Y-14944174D01*
X11874943Y-14944174D02*
X11893991Y-14934650D01*
X11893991Y-14934650D02*
X11922563Y-14934650D01*
X11922563Y-14934650D02*
X11941610Y-14944174D01*
X11941610Y-14944174D02*
X11951134Y-14963222D01*
X11951134Y-14963222D02*
X11951134Y-15067984D01*
X11951134Y-14963222D02*
X11960658Y-14944174D01*
X11960658Y-14944174D02*
X11979705Y-14934650D01*
X11979705Y-14934650D02*
X12008277Y-14934650D01*
X12008277Y-14934650D02*
X12027324Y-14944174D01*
X12027324Y-14944174D02*
X12036848Y-14963222D01*
X12036848Y-14963222D02*
X12036848Y-15067984D01*
X12132086Y-15067984D02*
X12132086Y-14934650D01*
X12132086Y-14953698D02*
X12141610Y-14944174D01*
X12141610Y-14944174D02*
X12160658Y-14934650D01*
X12160658Y-14934650D02*
X12189229Y-14934650D01*
X12189229Y-14934650D02*
X12208277Y-14944174D01*
X12208277Y-14944174D02*
X12217801Y-14963222D01*
X12217801Y-14963222D02*
X12217801Y-15067984D01*
X12217801Y-14963222D02*
X12227324Y-14944174D01*
X12227324Y-14944174D02*
X12246372Y-14934650D01*
X12246372Y-14934650D02*
X12274943Y-14934650D01*
X12274943Y-14934650D02*
X12293991Y-14944174D01*
X12293991Y-14944174D02*
X12303515Y-14963222D01*
X12303515Y-14963222D02*
X12303515Y-15067984D01*
X12693991Y-14858460D02*
X12522563Y-15115603D01*
X12951134Y-14867984D02*
X12970182Y-14867984D01*
X12970182Y-14867984D02*
X12989229Y-14877508D01*
X12989229Y-14877508D02*
X12998753Y-14887031D01*
X12998753Y-14887031D02*
X13008277Y-14906079D01*
X13008277Y-14906079D02*
X13017801Y-14944174D01*
X13017801Y-14944174D02*
X13017801Y-14991793D01*
X13017801Y-14991793D02*
X13008277Y-15029888D01*
X13008277Y-15029888D02*
X12998753Y-15048936D01*
X12998753Y-15048936D02*
X12989229Y-15058460D01*
X12989229Y-15058460D02*
X12970182Y-15067984D01*
X12970182Y-15067984D02*
X12951134Y-15067984D01*
X12951134Y-15067984D02*
X12932086Y-15058460D01*
X12932086Y-15058460D02*
X12922563Y-15048936D01*
X12922563Y-15048936D02*
X12913039Y-15029888D01*
X12913039Y-15029888D02*
X12903515Y-14991793D01*
X12903515Y-14991793D02*
X12903515Y-14944174D01*
X12903515Y-14944174D02*
X12913039Y-14906079D01*
X12913039Y-14906079D02*
X12922563Y-14887031D01*
X12922563Y-14887031D02*
X12932086Y-14877508D01*
X12932086Y-14877508D02*
X12951134Y-14867984D01*
X13103515Y-15048936D02*
X13113039Y-15058460D01*
X13113039Y-15058460D02*
X13103515Y-15067984D01*
X13103515Y-15067984D02*
X13093991Y-15058460D01*
X13093991Y-15058460D02*
X13103515Y-15048936D01*
X13103515Y-15048936D02*
X13103515Y-15067984D01*
X13236848Y-14867984D02*
X13255896Y-14867984D01*
X13255896Y-14867984D02*
X13274944Y-14877508D01*
X13274944Y-14877508D02*
X13284467Y-14887031D01*
X13284467Y-14887031D02*
X13293991Y-14906079D01*
X13293991Y-14906079D02*
X13303515Y-14944174D01*
X13303515Y-14944174D02*
X13303515Y-14991793D01*
X13303515Y-14991793D02*
X13293991Y-15029888D01*
X13293991Y-15029888D02*
X13284467Y-15048936D01*
X13284467Y-15048936D02*
X13274944Y-15058460D01*
X13274944Y-15058460D02*
X13255896Y-15067984D01*
X13255896Y-15067984D02*
X13236848Y-15067984D01*
X13236848Y-15067984D02*
X13217801Y-15058460D01*
X13217801Y-15058460D02*
X13208277Y-15048936D01*
X13208277Y-15048936D02*
X13198753Y-15029888D01*
X13198753Y-15029888D02*
X13189229Y-14991793D01*
X13189229Y-14991793D02*
X13189229Y-14944174D01*
X13189229Y-14944174D02*
X13198753Y-14906079D01*
X13198753Y-14906079D02*
X13208277Y-14887031D01*
X13208277Y-14887031D02*
X13217801Y-14877508D01*
X13217801Y-14877508D02*
X13236848Y-14867984D01*
X13370182Y-14867984D02*
X13493991Y-14867984D01*
X13493991Y-14867984D02*
X13427325Y-14944174D01*
X13427325Y-14944174D02*
X13455896Y-14944174D01*
X13455896Y-14944174D02*
X13474944Y-14953698D01*
X13474944Y-14953698D02*
X13484467Y-14963222D01*
X13484467Y-14963222D02*
X13493991Y-14982269D01*
X13493991Y-14982269D02*
X13493991Y-15029888D01*
X13493991Y-15029888D02*
X13484467Y-15048936D01*
X13484467Y-15048936D02*
X13474944Y-15058460D01*
X13474944Y-15058460D02*
X13455896Y-15067984D01*
X13455896Y-15067984D02*
X13398753Y-15067984D01*
X13398753Y-15067984D02*
X13379706Y-15058460D01*
X13379706Y-15058460D02*
X13370182Y-15048936D01*
X13665420Y-14934650D02*
X13665420Y-15067984D01*
X13617801Y-14858460D02*
X13570182Y-15001317D01*
X13570182Y-15001317D02*
X13693991Y-15001317D01*
X13751134Y-14867984D02*
X13874944Y-14867984D01*
X13874944Y-14867984D02*
X13808277Y-14944174D01*
X13808277Y-14944174D02*
X13836848Y-14944174D01*
X13836848Y-14944174D02*
X13855896Y-14953698D01*
X13855896Y-14953698D02*
X13865420Y-14963222D01*
X13865420Y-14963222D02*
X13874944Y-14982269D01*
X13874944Y-14982269D02*
X13874944Y-15029888D01*
X13874944Y-15029888D02*
X13865420Y-15048936D01*
X13865420Y-15048936D02*
X13855896Y-15058460D01*
X13855896Y-15058460D02*
X13836848Y-15067984D01*
X13836848Y-15067984D02*
X13779706Y-15067984D01*
X13779706Y-15067984D02*
X13760658Y-15058460D01*
X13760658Y-15058460D02*
X13751134Y-15048936D01*
X13951134Y-14867984D02*
X13951134Y-14906079D01*
X14027325Y-14867984D02*
X14027325Y-14906079D01*
X14322563Y-15144174D02*
X14313039Y-15134650D01*
X14313039Y-15134650D02*
X14293991Y-15106079D01*
X14293991Y-15106079D02*
X14284468Y-15087031D01*
X14284468Y-15087031D02*
X14274944Y-15058460D01*
X14274944Y-15058460D02*
X14265420Y-15010841D01*
X14265420Y-15010841D02*
X14265420Y-14972746D01*
X14265420Y-14972746D02*
X14274944Y-14925127D01*
X14274944Y-14925127D02*
X14284468Y-14896555D01*
X14284468Y-14896555D02*
X14293991Y-14877508D01*
X14293991Y-14877508D02*
X14313039Y-14848936D01*
X14313039Y-14848936D02*
X14322563Y-14839412D01*
X14484468Y-14934650D02*
X14484468Y-15067984D01*
X14436848Y-14858460D02*
X14389229Y-15001317D01*
X14389229Y-15001317D02*
X14513039Y-15001317D01*
X14598753Y-15067984D02*
X14636848Y-15067984D01*
X14636848Y-15067984D02*
X14655896Y-15058460D01*
X14655896Y-15058460D02*
X14665420Y-15048936D01*
X14665420Y-15048936D02*
X14684468Y-15020365D01*
X14684468Y-15020365D02*
X14693991Y-14982269D01*
X14693991Y-14982269D02*
X14693991Y-14906079D01*
X14693991Y-14906079D02*
X14684468Y-14887031D01*
X14684468Y-14887031D02*
X14674944Y-14877508D01*
X14674944Y-14877508D02*
X14655896Y-14867984D01*
X14655896Y-14867984D02*
X14617801Y-14867984D01*
X14617801Y-14867984D02*
X14598753Y-14877508D01*
X14598753Y-14877508D02*
X14589229Y-14887031D01*
X14589229Y-14887031D02*
X14579706Y-14906079D01*
X14579706Y-14906079D02*
X14579706Y-14953698D01*
X14579706Y-14953698D02*
X14589229Y-14972746D01*
X14589229Y-14972746D02*
X14598753Y-14982269D01*
X14598753Y-14982269D02*
X14617801Y-14991793D01*
X14617801Y-14991793D02*
X14655896Y-14991793D01*
X14655896Y-14991793D02*
X14674944Y-14982269D01*
X14674944Y-14982269D02*
X14684468Y-14972746D01*
X14684468Y-14972746D02*
X14693991Y-14953698D01*
X14932087Y-15067984D02*
X14932087Y-14867984D01*
X15017801Y-15067984D02*
X15017801Y-14963222D01*
X15017801Y-14963222D02*
X15008277Y-14944174D01*
X15008277Y-14944174D02*
X14989230Y-14934650D01*
X14989230Y-14934650D02*
X14960658Y-14934650D01*
X14960658Y-14934650D02*
X14941610Y-14944174D01*
X14941610Y-14944174D02*
X14932087Y-14953698D01*
X15141610Y-15067984D02*
X15122563Y-15058460D01*
X15122563Y-15058460D02*
X15113039Y-15048936D01*
X15113039Y-15048936D02*
X15103515Y-15029888D01*
X15103515Y-15029888D02*
X15103515Y-14972746D01*
X15103515Y-14972746D02*
X15113039Y-14953698D01*
X15113039Y-14953698D02*
X15122563Y-14944174D01*
X15122563Y-14944174D02*
X15141610Y-14934650D01*
X15141610Y-14934650D02*
X15170182Y-14934650D01*
X15170182Y-14934650D02*
X15189230Y-14944174D01*
X15189230Y-14944174D02*
X15198753Y-14953698D01*
X15198753Y-14953698D02*
X15208277Y-14972746D01*
X15208277Y-14972746D02*
X15208277Y-15029888D01*
X15208277Y-15029888D02*
X15198753Y-15048936D01*
X15198753Y-15048936D02*
X15189230Y-15058460D01*
X15189230Y-15058460D02*
X15170182Y-15067984D01*
X15170182Y-15067984D02*
X15141610Y-15067984D01*
X15322563Y-15067984D02*
X15303515Y-15058460D01*
X15303515Y-15058460D02*
X15293991Y-15039412D01*
X15293991Y-15039412D02*
X15293991Y-14867984D01*
X15474944Y-15058460D02*
X15455896Y-15067984D01*
X15455896Y-15067984D02*
X15417801Y-15067984D01*
X15417801Y-15067984D02*
X15398753Y-15058460D01*
X15398753Y-15058460D02*
X15389230Y-15039412D01*
X15389230Y-15039412D02*
X15389230Y-14963222D01*
X15389230Y-14963222D02*
X15398753Y-14944174D01*
X15398753Y-14944174D02*
X15417801Y-14934650D01*
X15417801Y-14934650D02*
X15455896Y-14934650D01*
X15455896Y-14934650D02*
X15474944Y-14944174D01*
X15474944Y-14944174D02*
X15484468Y-14963222D01*
X15484468Y-14963222D02*
X15484468Y-14982269D01*
X15484468Y-14982269D02*
X15389230Y-15001317D01*
X15560658Y-15058460D02*
X15579706Y-15067984D01*
X15579706Y-15067984D02*
X15617801Y-15067984D01*
X15617801Y-15067984D02*
X15636849Y-15058460D01*
X15636849Y-15058460D02*
X15646372Y-15039412D01*
X15646372Y-15039412D02*
X15646372Y-15029888D01*
X15646372Y-15029888D02*
X15636849Y-15010841D01*
X15636849Y-15010841D02*
X15617801Y-15001317D01*
X15617801Y-15001317D02*
X15589230Y-15001317D01*
X15589230Y-15001317D02*
X15570182Y-14991793D01*
X15570182Y-14991793D02*
X15560658Y-14972746D01*
X15560658Y-14972746D02*
X15560658Y-14963222D01*
X15560658Y-14963222D02*
X15570182Y-14944174D01*
X15570182Y-14944174D02*
X15589230Y-14934650D01*
X15589230Y-14934650D02*
X15617801Y-14934650D01*
X15617801Y-14934650D02*
X15636849Y-14944174D01*
X15713039Y-15144174D02*
X15722563Y-15134650D01*
X15722563Y-15134650D02*
X15741611Y-15106079D01*
X15741611Y-15106079D02*
X15751134Y-15087031D01*
X15751134Y-15087031D02*
X15760658Y-15058460D01*
X15760658Y-15058460D02*
X15770182Y-15010841D01*
X15770182Y-15010841D02*
X15770182Y-14972746D01*
X15770182Y-14972746D02*
X15760658Y-14925127D01*
X15760658Y-14925127D02*
X15751134Y-14896555D01*
X15751134Y-14896555D02*
X15741611Y-14877508D01*
X15741611Y-14877508D02*
X15722563Y-14848936D01*
X15722563Y-14848936D02*
X15713039Y-14839412D01*
D12*
X10647500Y-15190500D02*
X10747500Y-15290500D01*
X10747500Y-15190500D02*
X10647500Y-15290500D01*
X10732856Y-15275856D02*
X10732856Y-15205144D01*
X10662144Y-15205144D01*
X10662144Y-15275856D01*
X10732856Y-15275856D01*
D11*
X11113039Y-15331984D02*
X10998753Y-15331984D01*
X11055896Y-15331984D02*
X11055896Y-15131984D01*
X11055896Y-15131984D02*
X11036848Y-15160555D01*
X11036848Y-15160555D02*
X11017801Y-15179603D01*
X11017801Y-15179603D02*
X10998753Y-15189127D01*
X11198753Y-15312936D02*
X11208277Y-15322460D01*
X11208277Y-15322460D02*
X11198753Y-15331984D01*
X11198753Y-15331984D02*
X11189229Y-15322460D01*
X11189229Y-15322460D02*
X11198753Y-15312936D01*
X11198753Y-15312936D02*
X11198753Y-15331984D01*
X11332086Y-15131984D02*
X11351134Y-15131984D01*
X11351134Y-15131984D02*
X11370182Y-15141508D01*
X11370182Y-15141508D02*
X11379705Y-15151031D01*
X11379705Y-15151031D02*
X11389229Y-15170079D01*
X11389229Y-15170079D02*
X11398753Y-15208174D01*
X11398753Y-15208174D02*
X11398753Y-15255793D01*
X11398753Y-15255793D02*
X11389229Y-15293888D01*
X11389229Y-15293888D02*
X11379705Y-15312936D01*
X11379705Y-15312936D02*
X11370182Y-15322460D01*
X11370182Y-15322460D02*
X11351134Y-15331984D01*
X11351134Y-15331984D02*
X11332086Y-15331984D01*
X11332086Y-15331984D02*
X11313039Y-15322460D01*
X11313039Y-15322460D02*
X11303515Y-15312936D01*
X11303515Y-15312936D02*
X11293991Y-15293888D01*
X11293991Y-15293888D02*
X11284467Y-15255793D01*
X11284467Y-15255793D02*
X11284467Y-15208174D01*
X11284467Y-15208174D02*
X11293991Y-15170079D01*
X11293991Y-15170079D02*
X11303515Y-15151031D01*
X11303515Y-15151031D02*
X11313039Y-15141508D01*
X11313039Y-15141508D02*
X11332086Y-15131984D01*
X11522562Y-15131984D02*
X11541610Y-15131984D01*
X11541610Y-15131984D02*
X11560658Y-15141508D01*
X11560658Y-15141508D02*
X11570182Y-15151031D01*
X11570182Y-15151031D02*
X11579705Y-15170079D01*
X11579705Y-15170079D02*
X11589229Y-15208174D01*
X11589229Y-15208174D02*
X11589229Y-15255793D01*
X11589229Y-15255793D02*
X11579705Y-15293888D01*
X11579705Y-15293888D02*
X11570182Y-15312936D01*
X11570182Y-15312936D02*
X11560658Y-15322460D01*
X11560658Y-15322460D02*
X11541610Y-15331984D01*
X11541610Y-15331984D02*
X11522562Y-15331984D01*
X11522562Y-15331984D02*
X11503515Y-15322460D01*
X11503515Y-15322460D02*
X11493991Y-15312936D01*
X11493991Y-15312936D02*
X11484467Y-15293888D01*
X11484467Y-15293888D02*
X11474943Y-15255793D01*
X11474943Y-15255793D02*
X11474943Y-15208174D01*
X11474943Y-15208174D02*
X11484467Y-15170079D01*
X11484467Y-15170079D02*
X11493991Y-15151031D01*
X11493991Y-15151031D02*
X11503515Y-15141508D01*
X11503515Y-15141508D02*
X11522562Y-15131984D01*
X11713039Y-15131984D02*
X11732086Y-15131984D01*
X11732086Y-15131984D02*
X11751134Y-15141508D01*
X11751134Y-15141508D02*
X11760658Y-15151031D01*
X11760658Y-15151031D02*
X11770182Y-15170079D01*
X11770182Y-15170079D02*
X11779705Y-15208174D01*
X11779705Y-15208174D02*
X11779705Y-15255793D01*
X11779705Y-15255793D02*
X11770182Y-15293888D01*
X11770182Y-15293888D02*
X11760658Y-15312936D01*
X11760658Y-15312936D02*
X11751134Y-15322460D01*
X11751134Y-15322460D02*
X11732086Y-15331984D01*
X11732086Y-15331984D02*
X11713039Y-15331984D01*
X11713039Y-15331984D02*
X11693991Y-15322460D01*
X11693991Y-15322460D02*
X11684467Y-15312936D01*
X11684467Y-15312936D02*
X11674943Y-15293888D01*
X11674943Y-15293888D02*
X11665420Y-15255793D01*
X11665420Y-15255793D02*
X11665420Y-15208174D01*
X11665420Y-15208174D02*
X11674943Y-15170079D01*
X11674943Y-15170079D02*
X11684467Y-15151031D01*
X11684467Y-15151031D02*
X11693991Y-15141508D01*
X11693991Y-15141508D02*
X11713039Y-15131984D01*
X11865420Y-15331984D02*
X11865420Y-15198650D01*
X11865420Y-15217698D02*
X11874943Y-15208174D01*
X11874943Y-15208174D02*
X11893991Y-15198650D01*
X11893991Y-15198650D02*
X11922563Y-15198650D01*
X11922563Y-15198650D02*
X11941610Y-15208174D01*
X11941610Y-15208174D02*
X11951134Y-15227222D01*
X11951134Y-15227222D02*
X11951134Y-15331984D01*
X11951134Y-15227222D02*
X11960658Y-15208174D01*
X11960658Y-15208174D02*
X11979705Y-15198650D01*
X11979705Y-15198650D02*
X12008277Y-15198650D01*
X12008277Y-15198650D02*
X12027324Y-15208174D01*
X12027324Y-15208174D02*
X12036848Y-15227222D01*
X12036848Y-15227222D02*
X12036848Y-15331984D01*
X12132086Y-15331984D02*
X12132086Y-15198650D01*
X12132086Y-15217698D02*
X12141610Y-15208174D01*
X12141610Y-15208174D02*
X12160658Y-15198650D01*
X12160658Y-15198650D02*
X12189229Y-15198650D01*
X12189229Y-15198650D02*
X12208277Y-15208174D01*
X12208277Y-15208174D02*
X12217801Y-15227222D01*
X12217801Y-15227222D02*
X12217801Y-15331984D01*
X12217801Y-15227222D02*
X12227324Y-15208174D01*
X12227324Y-15208174D02*
X12246372Y-15198650D01*
X12246372Y-15198650D02*
X12274943Y-15198650D01*
X12274943Y-15198650D02*
X12293991Y-15208174D01*
X12293991Y-15208174D02*
X12303515Y-15227222D01*
X12303515Y-15227222D02*
X12303515Y-15331984D01*
X12693991Y-15122460D02*
X12522563Y-15379603D01*
X12951134Y-15131984D02*
X12970182Y-15131984D01*
X12970182Y-15131984D02*
X12989229Y-15141508D01*
X12989229Y-15141508D02*
X12998753Y-15151031D01*
X12998753Y-15151031D02*
X13008277Y-15170079D01*
X13008277Y-15170079D02*
X13017801Y-15208174D01*
X13017801Y-15208174D02*
X13017801Y-15255793D01*
X13017801Y-15255793D02*
X13008277Y-15293888D01*
X13008277Y-15293888D02*
X12998753Y-15312936D01*
X12998753Y-15312936D02*
X12989229Y-15322460D01*
X12989229Y-15322460D02*
X12970182Y-15331984D01*
X12970182Y-15331984D02*
X12951134Y-15331984D01*
X12951134Y-15331984D02*
X12932086Y-15322460D01*
X12932086Y-15322460D02*
X12922563Y-15312936D01*
X12922563Y-15312936D02*
X12913039Y-15293888D01*
X12913039Y-15293888D02*
X12903515Y-15255793D01*
X12903515Y-15255793D02*
X12903515Y-15208174D01*
X12903515Y-15208174D02*
X12913039Y-15170079D01*
X12913039Y-15170079D02*
X12922563Y-15151031D01*
X12922563Y-15151031D02*
X12932086Y-15141508D01*
X12932086Y-15141508D02*
X12951134Y-15131984D01*
X13103515Y-15312936D02*
X13113039Y-15322460D01*
X13113039Y-15322460D02*
X13103515Y-15331984D01*
X13103515Y-15331984D02*
X13093991Y-15322460D01*
X13093991Y-15322460D02*
X13103515Y-15312936D01*
X13103515Y-15312936D02*
X13103515Y-15331984D01*
X13236848Y-15131984D02*
X13255896Y-15131984D01*
X13255896Y-15131984D02*
X13274944Y-15141508D01*
X13274944Y-15141508D02*
X13284467Y-15151031D01*
X13284467Y-15151031D02*
X13293991Y-15170079D01*
X13293991Y-15170079D02*
X13303515Y-15208174D01*
X13303515Y-15208174D02*
X13303515Y-15255793D01*
X13303515Y-15255793D02*
X13293991Y-15293888D01*
X13293991Y-15293888D02*
X13284467Y-15312936D01*
X13284467Y-15312936D02*
X13274944Y-15322460D01*
X13274944Y-15322460D02*
X13255896Y-15331984D01*
X13255896Y-15331984D02*
X13236848Y-15331984D01*
X13236848Y-15331984D02*
X13217801Y-15322460D01*
X13217801Y-15322460D02*
X13208277Y-15312936D01*
X13208277Y-15312936D02*
X13198753Y-15293888D01*
X13198753Y-15293888D02*
X13189229Y-15255793D01*
X13189229Y-15255793D02*
X13189229Y-15208174D01*
X13189229Y-15208174D02*
X13198753Y-15170079D01*
X13198753Y-15170079D02*
X13208277Y-15151031D01*
X13208277Y-15151031D02*
X13217801Y-15141508D01*
X13217801Y-15141508D02*
X13236848Y-15131984D01*
X13370182Y-15131984D02*
X13493991Y-15131984D01*
X13493991Y-15131984D02*
X13427325Y-15208174D01*
X13427325Y-15208174D02*
X13455896Y-15208174D01*
X13455896Y-15208174D02*
X13474944Y-15217698D01*
X13474944Y-15217698D02*
X13484467Y-15227222D01*
X13484467Y-15227222D02*
X13493991Y-15246269D01*
X13493991Y-15246269D02*
X13493991Y-15293888D01*
X13493991Y-15293888D02*
X13484467Y-15312936D01*
X13484467Y-15312936D02*
X13474944Y-15322460D01*
X13474944Y-15322460D02*
X13455896Y-15331984D01*
X13455896Y-15331984D02*
X13398753Y-15331984D01*
X13398753Y-15331984D02*
X13379706Y-15322460D01*
X13379706Y-15322460D02*
X13370182Y-15312936D01*
X13589229Y-15331984D02*
X13627325Y-15331984D01*
X13627325Y-15331984D02*
X13646372Y-15322460D01*
X13646372Y-15322460D02*
X13655896Y-15312936D01*
X13655896Y-15312936D02*
X13674944Y-15284365D01*
X13674944Y-15284365D02*
X13684467Y-15246269D01*
X13684467Y-15246269D02*
X13684467Y-15170079D01*
X13684467Y-15170079D02*
X13674944Y-15151031D01*
X13674944Y-15151031D02*
X13665420Y-15141508D01*
X13665420Y-15141508D02*
X13646372Y-15131984D01*
X13646372Y-15131984D02*
X13608277Y-15131984D01*
X13608277Y-15131984D02*
X13589229Y-15141508D01*
X13589229Y-15141508D02*
X13579706Y-15151031D01*
X13579706Y-15151031D02*
X13570182Y-15170079D01*
X13570182Y-15170079D02*
X13570182Y-15217698D01*
X13570182Y-15217698D02*
X13579706Y-15236746D01*
X13579706Y-15236746D02*
X13589229Y-15246269D01*
X13589229Y-15246269D02*
X13608277Y-15255793D01*
X13608277Y-15255793D02*
X13646372Y-15255793D01*
X13646372Y-15255793D02*
X13665420Y-15246269D01*
X13665420Y-15246269D02*
X13674944Y-15236746D01*
X13674944Y-15236746D02*
X13684467Y-15217698D01*
X13855896Y-15198650D02*
X13855896Y-15331984D01*
X13808277Y-15122460D02*
X13760658Y-15265317D01*
X13760658Y-15265317D02*
X13884467Y-15265317D01*
X13951134Y-15131984D02*
X13951134Y-15170079D01*
X14027325Y-15131984D02*
X14027325Y-15170079D01*
X14322563Y-15408174D02*
X14313039Y-15398650D01*
X14313039Y-15398650D02*
X14293991Y-15370079D01*
X14293991Y-15370079D02*
X14284468Y-15351031D01*
X14284468Y-15351031D02*
X14274944Y-15322460D01*
X14274944Y-15322460D02*
X14265420Y-15274841D01*
X14265420Y-15274841D02*
X14265420Y-15236746D01*
X14265420Y-15236746D02*
X14274944Y-15189127D01*
X14274944Y-15189127D02*
X14284468Y-15160555D01*
X14284468Y-15160555D02*
X14293991Y-15141508D01*
X14293991Y-15141508D02*
X14313039Y-15112936D01*
X14313039Y-15112936D02*
X14322563Y-15103412D01*
X14379706Y-15131984D02*
X14503515Y-15131984D01*
X14503515Y-15131984D02*
X14436848Y-15208174D01*
X14436848Y-15208174D02*
X14465420Y-15208174D01*
X14465420Y-15208174D02*
X14484468Y-15217698D01*
X14484468Y-15217698D02*
X14493991Y-15227222D01*
X14493991Y-15227222D02*
X14503515Y-15246269D01*
X14503515Y-15246269D02*
X14503515Y-15293888D01*
X14503515Y-15293888D02*
X14493991Y-15312936D01*
X14493991Y-15312936D02*
X14484468Y-15322460D01*
X14484468Y-15322460D02*
X14465420Y-15331984D01*
X14465420Y-15331984D02*
X14408277Y-15331984D01*
X14408277Y-15331984D02*
X14389229Y-15322460D01*
X14389229Y-15322460D02*
X14379706Y-15312936D01*
X14627325Y-15131984D02*
X14646372Y-15131984D01*
X14646372Y-15131984D02*
X14665420Y-15141508D01*
X14665420Y-15141508D02*
X14674944Y-15151031D01*
X14674944Y-15151031D02*
X14684468Y-15170079D01*
X14684468Y-15170079D02*
X14693991Y-15208174D01*
X14693991Y-15208174D02*
X14693991Y-15255793D01*
X14693991Y-15255793D02*
X14684468Y-15293888D01*
X14684468Y-15293888D02*
X14674944Y-15312936D01*
X14674944Y-15312936D02*
X14665420Y-15322460D01*
X14665420Y-15322460D02*
X14646372Y-15331984D01*
X14646372Y-15331984D02*
X14627325Y-15331984D01*
X14627325Y-15331984D02*
X14608277Y-15322460D01*
X14608277Y-15322460D02*
X14598753Y-15312936D01*
X14598753Y-15312936D02*
X14589229Y-15293888D01*
X14589229Y-15293888D02*
X14579706Y-15255793D01*
X14579706Y-15255793D02*
X14579706Y-15208174D01*
X14579706Y-15208174D02*
X14589229Y-15170079D01*
X14589229Y-15170079D02*
X14598753Y-15151031D01*
X14598753Y-15151031D02*
X14608277Y-15141508D01*
X14608277Y-15141508D02*
X14627325Y-15131984D01*
X14932087Y-15331984D02*
X14932087Y-15131984D01*
X15017801Y-15331984D02*
X15017801Y-15227222D01*
X15017801Y-15227222D02*
X15008277Y-15208174D01*
X15008277Y-15208174D02*
X14989230Y-15198650D01*
X14989230Y-15198650D02*
X14960658Y-15198650D01*
X14960658Y-15198650D02*
X14941610Y-15208174D01*
X14941610Y-15208174D02*
X14932087Y-15217698D01*
X15141610Y-15331984D02*
X15122563Y-15322460D01*
X15122563Y-15322460D02*
X15113039Y-15312936D01*
X15113039Y-15312936D02*
X15103515Y-15293888D01*
X15103515Y-15293888D02*
X15103515Y-15236746D01*
X15103515Y-15236746D02*
X15113039Y-15217698D01*
X15113039Y-15217698D02*
X15122563Y-15208174D01*
X15122563Y-15208174D02*
X15141610Y-15198650D01*
X15141610Y-15198650D02*
X15170182Y-15198650D01*
X15170182Y-15198650D02*
X15189230Y-15208174D01*
X15189230Y-15208174D02*
X15198753Y-15217698D01*
X15198753Y-15217698D02*
X15208277Y-15236746D01*
X15208277Y-15236746D02*
X15208277Y-15293888D01*
X15208277Y-15293888D02*
X15198753Y-15312936D01*
X15198753Y-15312936D02*
X15189230Y-15322460D01*
X15189230Y-15322460D02*
X15170182Y-15331984D01*
X15170182Y-15331984D02*
X15141610Y-15331984D01*
X15322563Y-15331984D02*
X15303515Y-15322460D01*
X15303515Y-15322460D02*
X15293991Y-15303412D01*
X15293991Y-15303412D02*
X15293991Y-15131984D01*
X15474944Y-15322460D02*
X15455896Y-15331984D01*
X15455896Y-15331984D02*
X15417801Y-15331984D01*
X15417801Y-15331984D02*
X15398753Y-15322460D01*
X15398753Y-15322460D02*
X15389230Y-15303412D01*
X15389230Y-15303412D02*
X15389230Y-15227222D01*
X15389230Y-15227222D02*
X15398753Y-15208174D01*
X15398753Y-15208174D02*
X15417801Y-15198650D01*
X15417801Y-15198650D02*
X15455896Y-15198650D01*
X15455896Y-15198650D02*
X15474944Y-15208174D01*
X15474944Y-15208174D02*
X15484468Y-15227222D01*
X15484468Y-15227222D02*
X15484468Y-15246269D01*
X15484468Y-15246269D02*
X15389230Y-15265317D01*
X15560658Y-15322460D02*
X15579706Y-15331984D01*
X15579706Y-15331984D02*
X15617801Y-15331984D01*
X15617801Y-15331984D02*
X15636849Y-15322460D01*
X15636849Y-15322460D02*
X15646372Y-15303412D01*
X15646372Y-15303412D02*
X15646372Y-15293888D01*
X15646372Y-15293888D02*
X15636849Y-15274841D01*
X15636849Y-15274841D02*
X15617801Y-15265317D01*
X15617801Y-15265317D02*
X15589230Y-15265317D01*
X15589230Y-15265317D02*
X15570182Y-15255793D01*
X15570182Y-15255793D02*
X15560658Y-15236746D01*
X15560658Y-15236746D02*
X15560658Y-15227222D01*
X15560658Y-15227222D02*
X15570182Y-15208174D01*
X15570182Y-15208174D02*
X15589230Y-15198650D01*
X15589230Y-15198650D02*
X15617801Y-15198650D01*
X15617801Y-15198650D02*
X15636849Y-15208174D01*
X15713039Y-15408174D02*
X15722563Y-15398650D01*
X15722563Y-15398650D02*
X15741611Y-15370079D01*
X15741611Y-15370079D02*
X15751134Y-15351031D01*
X15751134Y-15351031D02*
X15760658Y-15322460D01*
X15760658Y-15322460D02*
X15770182Y-15274841D01*
X15770182Y-15274841D02*
X15770182Y-15236746D01*
X15770182Y-15236746D02*
X15760658Y-15189127D01*
X15760658Y-15189127D02*
X15751134Y-15160555D01*
X15751134Y-15160555D02*
X15741611Y-15141508D01*
X15741611Y-15141508D02*
X15722563Y-15112936D01*
X15722563Y-15112936D02*
X15713039Y-15103412D01*
X10547500Y-15404500D02*
X10747500Y-15604500D01*
X10747500Y-15404500D02*
X10547500Y-15604500D01*
X10647500Y-15604500D02*
X10747500Y-15504500D01*
X10647500Y-15404500D01*
X10547500Y-15504500D01*
X10647500Y-15604500D01*
X10998753Y-15415031D02*
X11008277Y-15405508D01*
X11008277Y-15405508D02*
X11027324Y-15395984D01*
X11027324Y-15395984D02*
X11074944Y-15395984D01*
X11074944Y-15395984D02*
X11093991Y-15405508D01*
X11093991Y-15405508D02*
X11103515Y-15415031D01*
X11103515Y-15415031D02*
X11113039Y-15434079D01*
X11113039Y-15434079D02*
X11113039Y-15453127D01*
X11113039Y-15453127D02*
X11103515Y-15481698D01*
X11103515Y-15481698D02*
X10989229Y-15595984D01*
X10989229Y-15595984D02*
X11113039Y-15595984D01*
X11198753Y-15576936D02*
X11208277Y-15586460D01*
X11208277Y-15586460D02*
X11198753Y-15595984D01*
X11198753Y-15595984D02*
X11189229Y-15586460D01*
X11189229Y-15586460D02*
X11198753Y-15576936D01*
X11198753Y-15576936D02*
X11198753Y-15595984D01*
X11284467Y-15415031D02*
X11293991Y-15405508D01*
X11293991Y-15405508D02*
X11313039Y-15395984D01*
X11313039Y-15395984D02*
X11360658Y-15395984D01*
X11360658Y-15395984D02*
X11379705Y-15405508D01*
X11379705Y-15405508D02*
X11389229Y-15415031D01*
X11389229Y-15415031D02*
X11398753Y-15434079D01*
X11398753Y-15434079D02*
X11398753Y-15453127D01*
X11398753Y-15453127D02*
X11389229Y-15481698D01*
X11389229Y-15481698D02*
X11274943Y-15595984D01*
X11274943Y-15595984D02*
X11398753Y-15595984D01*
X11522562Y-15395984D02*
X11541610Y-15395984D01*
X11541610Y-15395984D02*
X11560658Y-15405508D01*
X11560658Y-15405508D02*
X11570182Y-15415031D01*
X11570182Y-15415031D02*
X11579705Y-15434079D01*
X11579705Y-15434079D02*
X11589229Y-15472174D01*
X11589229Y-15472174D02*
X11589229Y-15519793D01*
X11589229Y-15519793D02*
X11579705Y-15557888D01*
X11579705Y-15557888D02*
X11570182Y-15576936D01*
X11570182Y-15576936D02*
X11560658Y-15586460D01*
X11560658Y-15586460D02*
X11541610Y-15595984D01*
X11541610Y-15595984D02*
X11522562Y-15595984D01*
X11522562Y-15595984D02*
X11503515Y-15586460D01*
X11503515Y-15586460D02*
X11493991Y-15576936D01*
X11493991Y-15576936D02*
X11484467Y-15557888D01*
X11484467Y-15557888D02*
X11474943Y-15519793D01*
X11474943Y-15519793D02*
X11474943Y-15472174D01*
X11474943Y-15472174D02*
X11484467Y-15434079D01*
X11484467Y-15434079D02*
X11493991Y-15415031D01*
X11493991Y-15415031D02*
X11503515Y-15405508D01*
X11503515Y-15405508D02*
X11522562Y-15395984D01*
X11713039Y-15395984D02*
X11732086Y-15395984D01*
X11732086Y-15395984D02*
X11751134Y-15405508D01*
X11751134Y-15405508D02*
X11760658Y-15415031D01*
X11760658Y-15415031D02*
X11770182Y-15434079D01*
X11770182Y-15434079D02*
X11779705Y-15472174D01*
X11779705Y-15472174D02*
X11779705Y-15519793D01*
X11779705Y-15519793D02*
X11770182Y-15557888D01*
X11770182Y-15557888D02*
X11760658Y-15576936D01*
X11760658Y-15576936D02*
X11751134Y-15586460D01*
X11751134Y-15586460D02*
X11732086Y-15595984D01*
X11732086Y-15595984D02*
X11713039Y-15595984D01*
X11713039Y-15595984D02*
X11693991Y-15586460D01*
X11693991Y-15586460D02*
X11684467Y-15576936D01*
X11684467Y-15576936D02*
X11674943Y-15557888D01*
X11674943Y-15557888D02*
X11665420Y-15519793D01*
X11665420Y-15519793D02*
X11665420Y-15472174D01*
X11665420Y-15472174D02*
X11674943Y-15434079D01*
X11674943Y-15434079D02*
X11684467Y-15415031D01*
X11684467Y-15415031D02*
X11693991Y-15405508D01*
X11693991Y-15405508D02*
X11713039Y-15395984D01*
X11865420Y-15595984D02*
X11865420Y-15462650D01*
X11865420Y-15481698D02*
X11874943Y-15472174D01*
X11874943Y-15472174D02*
X11893991Y-15462650D01*
X11893991Y-15462650D02*
X11922563Y-15462650D01*
X11922563Y-15462650D02*
X11941610Y-15472174D01*
X11941610Y-15472174D02*
X11951134Y-15491222D01*
X11951134Y-15491222D02*
X11951134Y-15595984D01*
X11951134Y-15491222D02*
X11960658Y-15472174D01*
X11960658Y-15472174D02*
X11979705Y-15462650D01*
X11979705Y-15462650D02*
X12008277Y-15462650D01*
X12008277Y-15462650D02*
X12027324Y-15472174D01*
X12027324Y-15472174D02*
X12036848Y-15491222D01*
X12036848Y-15491222D02*
X12036848Y-15595984D01*
X12132086Y-15595984D02*
X12132086Y-15462650D01*
X12132086Y-15481698D02*
X12141610Y-15472174D01*
X12141610Y-15472174D02*
X12160658Y-15462650D01*
X12160658Y-15462650D02*
X12189229Y-15462650D01*
X12189229Y-15462650D02*
X12208277Y-15472174D01*
X12208277Y-15472174D02*
X12217801Y-15491222D01*
X12217801Y-15491222D02*
X12217801Y-15595984D01*
X12217801Y-15491222D02*
X12227324Y-15472174D01*
X12227324Y-15472174D02*
X12246372Y-15462650D01*
X12246372Y-15462650D02*
X12274943Y-15462650D01*
X12274943Y-15462650D02*
X12293991Y-15472174D01*
X12293991Y-15472174D02*
X12303515Y-15491222D01*
X12303515Y-15491222D02*
X12303515Y-15595984D01*
X12693991Y-15386460D02*
X12522563Y-15643603D01*
X12951134Y-15395984D02*
X12970182Y-15395984D01*
X12970182Y-15395984D02*
X12989229Y-15405508D01*
X12989229Y-15405508D02*
X12998753Y-15415031D01*
X12998753Y-15415031D02*
X13008277Y-15434079D01*
X13008277Y-15434079D02*
X13017801Y-15472174D01*
X13017801Y-15472174D02*
X13017801Y-15519793D01*
X13017801Y-15519793D02*
X13008277Y-15557888D01*
X13008277Y-15557888D02*
X12998753Y-15576936D01*
X12998753Y-15576936D02*
X12989229Y-15586460D01*
X12989229Y-15586460D02*
X12970182Y-15595984D01*
X12970182Y-15595984D02*
X12951134Y-15595984D01*
X12951134Y-15595984D02*
X12932086Y-15586460D01*
X12932086Y-15586460D02*
X12922563Y-15576936D01*
X12922563Y-15576936D02*
X12913039Y-15557888D01*
X12913039Y-15557888D02*
X12903515Y-15519793D01*
X12903515Y-15519793D02*
X12903515Y-15472174D01*
X12903515Y-15472174D02*
X12913039Y-15434079D01*
X12913039Y-15434079D02*
X12922563Y-15415031D01*
X12922563Y-15415031D02*
X12932086Y-15405508D01*
X12932086Y-15405508D02*
X12951134Y-15395984D01*
X13103515Y-15576936D02*
X13113039Y-15586460D01*
X13113039Y-15586460D02*
X13103515Y-15595984D01*
X13103515Y-15595984D02*
X13093991Y-15586460D01*
X13093991Y-15586460D02*
X13103515Y-15576936D01*
X13103515Y-15576936D02*
X13103515Y-15595984D01*
X13236848Y-15395984D02*
X13255896Y-15395984D01*
X13255896Y-15395984D02*
X13274944Y-15405508D01*
X13274944Y-15405508D02*
X13284467Y-15415031D01*
X13284467Y-15415031D02*
X13293991Y-15434079D01*
X13293991Y-15434079D02*
X13303515Y-15472174D01*
X13303515Y-15472174D02*
X13303515Y-15519793D01*
X13303515Y-15519793D02*
X13293991Y-15557888D01*
X13293991Y-15557888D02*
X13284467Y-15576936D01*
X13284467Y-15576936D02*
X13274944Y-15586460D01*
X13274944Y-15586460D02*
X13255896Y-15595984D01*
X13255896Y-15595984D02*
X13236848Y-15595984D01*
X13236848Y-15595984D02*
X13217801Y-15586460D01*
X13217801Y-15586460D02*
X13208277Y-15576936D01*
X13208277Y-15576936D02*
X13198753Y-15557888D01*
X13198753Y-15557888D02*
X13189229Y-15519793D01*
X13189229Y-15519793D02*
X13189229Y-15472174D01*
X13189229Y-15472174D02*
X13198753Y-15434079D01*
X13198753Y-15434079D02*
X13208277Y-15415031D01*
X13208277Y-15415031D02*
X13217801Y-15405508D01*
X13217801Y-15405508D02*
X13236848Y-15395984D01*
X13417801Y-15481698D02*
X13398753Y-15472174D01*
X13398753Y-15472174D02*
X13389229Y-15462650D01*
X13389229Y-15462650D02*
X13379706Y-15443603D01*
X13379706Y-15443603D02*
X13379706Y-15434079D01*
X13379706Y-15434079D02*
X13389229Y-15415031D01*
X13389229Y-15415031D02*
X13398753Y-15405508D01*
X13398753Y-15405508D02*
X13417801Y-15395984D01*
X13417801Y-15395984D02*
X13455896Y-15395984D01*
X13455896Y-15395984D02*
X13474944Y-15405508D01*
X13474944Y-15405508D02*
X13484467Y-15415031D01*
X13484467Y-15415031D02*
X13493991Y-15434079D01*
X13493991Y-15434079D02*
X13493991Y-15443603D01*
X13493991Y-15443603D02*
X13484467Y-15462650D01*
X13484467Y-15462650D02*
X13474944Y-15472174D01*
X13474944Y-15472174D02*
X13455896Y-15481698D01*
X13455896Y-15481698D02*
X13417801Y-15481698D01*
X13417801Y-15481698D02*
X13398753Y-15491222D01*
X13398753Y-15491222D02*
X13389229Y-15500746D01*
X13389229Y-15500746D02*
X13379706Y-15519793D01*
X13379706Y-15519793D02*
X13379706Y-15557888D01*
X13379706Y-15557888D02*
X13389229Y-15576936D01*
X13389229Y-15576936D02*
X13398753Y-15586460D01*
X13398753Y-15586460D02*
X13417801Y-15595984D01*
X13417801Y-15595984D02*
X13455896Y-15595984D01*
X13455896Y-15595984D02*
X13474944Y-15586460D01*
X13474944Y-15586460D02*
X13484467Y-15576936D01*
X13484467Y-15576936D02*
X13493991Y-15557888D01*
X13493991Y-15557888D02*
X13493991Y-15519793D01*
X13493991Y-15519793D02*
X13484467Y-15500746D01*
X13484467Y-15500746D02*
X13474944Y-15491222D01*
X13474944Y-15491222D02*
X13455896Y-15481698D01*
X13665420Y-15395984D02*
X13627325Y-15395984D01*
X13627325Y-15395984D02*
X13608277Y-15405508D01*
X13608277Y-15405508D02*
X13598753Y-15415031D01*
X13598753Y-15415031D02*
X13579706Y-15443603D01*
X13579706Y-15443603D02*
X13570182Y-15481698D01*
X13570182Y-15481698D02*
X13570182Y-15557888D01*
X13570182Y-15557888D02*
X13579706Y-15576936D01*
X13579706Y-15576936D02*
X13589229Y-15586460D01*
X13589229Y-15586460D02*
X13608277Y-15595984D01*
X13608277Y-15595984D02*
X13646372Y-15595984D01*
X13646372Y-15595984D02*
X13665420Y-15586460D01*
X13665420Y-15586460D02*
X13674944Y-15576936D01*
X13674944Y-15576936D02*
X13684467Y-15557888D01*
X13684467Y-15557888D02*
X13684467Y-15510269D01*
X13684467Y-15510269D02*
X13674944Y-15491222D01*
X13674944Y-15491222D02*
X13665420Y-15481698D01*
X13665420Y-15481698D02*
X13646372Y-15472174D01*
X13646372Y-15472174D02*
X13608277Y-15472174D01*
X13608277Y-15472174D02*
X13589229Y-15481698D01*
X13589229Y-15481698D02*
X13579706Y-15491222D01*
X13579706Y-15491222D02*
X13570182Y-15510269D01*
X13855896Y-15395984D02*
X13817801Y-15395984D01*
X13817801Y-15395984D02*
X13798753Y-15405508D01*
X13798753Y-15405508D02*
X13789229Y-15415031D01*
X13789229Y-15415031D02*
X13770182Y-15443603D01*
X13770182Y-15443603D02*
X13760658Y-15481698D01*
X13760658Y-15481698D02*
X13760658Y-15557888D01*
X13760658Y-15557888D02*
X13770182Y-15576936D01*
X13770182Y-15576936D02*
X13779706Y-15586460D01*
X13779706Y-15586460D02*
X13798753Y-15595984D01*
X13798753Y-15595984D02*
X13836848Y-15595984D01*
X13836848Y-15595984D02*
X13855896Y-15586460D01*
X13855896Y-15586460D02*
X13865420Y-15576936D01*
X13865420Y-15576936D02*
X13874944Y-15557888D01*
X13874944Y-15557888D02*
X13874944Y-15510269D01*
X13874944Y-15510269D02*
X13865420Y-15491222D01*
X13865420Y-15491222D02*
X13855896Y-15481698D01*
X13855896Y-15481698D02*
X13836848Y-15472174D01*
X13836848Y-15472174D02*
X13798753Y-15472174D01*
X13798753Y-15472174D02*
X13779706Y-15481698D01*
X13779706Y-15481698D02*
X13770182Y-15491222D01*
X13770182Y-15491222D02*
X13760658Y-15510269D01*
X13951134Y-15395984D02*
X13951134Y-15434079D01*
X14027325Y-15395984D02*
X14027325Y-15434079D01*
X14322563Y-15672174D02*
X14313039Y-15662650D01*
X14313039Y-15662650D02*
X14293991Y-15634079D01*
X14293991Y-15634079D02*
X14284468Y-15615031D01*
X14284468Y-15615031D02*
X14274944Y-15586460D01*
X14274944Y-15586460D02*
X14265420Y-15538841D01*
X14265420Y-15538841D02*
X14265420Y-15500746D01*
X14265420Y-15500746D02*
X14274944Y-15453127D01*
X14274944Y-15453127D02*
X14284468Y-15424555D01*
X14284468Y-15424555D02*
X14293991Y-15405508D01*
X14293991Y-15405508D02*
X14313039Y-15376936D01*
X14313039Y-15376936D02*
X14322563Y-15367412D01*
X14484468Y-15462650D02*
X14484468Y-15595984D01*
X14436848Y-15386460D02*
X14389229Y-15529317D01*
X14389229Y-15529317D02*
X14513039Y-15529317D01*
X14741610Y-15595984D02*
X14741610Y-15395984D01*
X14827325Y-15595984D02*
X14827325Y-15491222D01*
X14827325Y-15491222D02*
X14817801Y-15472174D01*
X14817801Y-15472174D02*
X14798753Y-15462650D01*
X14798753Y-15462650D02*
X14770182Y-15462650D01*
X14770182Y-15462650D02*
X14751134Y-15472174D01*
X14751134Y-15472174D02*
X14741610Y-15481698D01*
X14951134Y-15595984D02*
X14932087Y-15586460D01*
X14932087Y-15586460D02*
X14922563Y-15576936D01*
X14922563Y-15576936D02*
X14913039Y-15557888D01*
X14913039Y-15557888D02*
X14913039Y-15500746D01*
X14913039Y-15500746D02*
X14922563Y-15481698D01*
X14922563Y-15481698D02*
X14932087Y-15472174D01*
X14932087Y-15472174D02*
X14951134Y-15462650D01*
X14951134Y-15462650D02*
X14979706Y-15462650D01*
X14979706Y-15462650D02*
X14998753Y-15472174D01*
X14998753Y-15472174D02*
X15008277Y-15481698D01*
X15008277Y-15481698D02*
X15017801Y-15500746D01*
X15017801Y-15500746D02*
X15017801Y-15557888D01*
X15017801Y-15557888D02*
X15008277Y-15576936D01*
X15008277Y-15576936D02*
X14998753Y-15586460D01*
X14998753Y-15586460D02*
X14979706Y-15595984D01*
X14979706Y-15595984D02*
X14951134Y-15595984D01*
X15132087Y-15595984D02*
X15113039Y-15586460D01*
X15113039Y-15586460D02*
X15103515Y-15567412D01*
X15103515Y-15567412D02*
X15103515Y-15395984D01*
X15284468Y-15586460D02*
X15265420Y-15595984D01*
X15265420Y-15595984D02*
X15227325Y-15595984D01*
X15227325Y-15595984D02*
X15208277Y-15586460D01*
X15208277Y-15586460D02*
X15198753Y-15567412D01*
X15198753Y-15567412D02*
X15198753Y-15491222D01*
X15198753Y-15491222D02*
X15208277Y-15472174D01*
X15208277Y-15472174D02*
X15227325Y-15462650D01*
X15227325Y-15462650D02*
X15265420Y-15462650D01*
X15265420Y-15462650D02*
X15284468Y-15472174D01*
X15284468Y-15472174D02*
X15293991Y-15491222D01*
X15293991Y-15491222D02*
X15293991Y-15510269D01*
X15293991Y-15510269D02*
X15198753Y-15529317D01*
X15370182Y-15586460D02*
X15389230Y-15595984D01*
X15389230Y-15595984D02*
X15427325Y-15595984D01*
X15427325Y-15595984D02*
X15446372Y-15586460D01*
X15446372Y-15586460D02*
X15455896Y-15567412D01*
X15455896Y-15567412D02*
X15455896Y-15557888D01*
X15455896Y-15557888D02*
X15446372Y-15538841D01*
X15446372Y-15538841D02*
X15427325Y-15529317D01*
X15427325Y-15529317D02*
X15398753Y-15529317D01*
X15398753Y-15529317D02*
X15379706Y-15519793D01*
X15379706Y-15519793D02*
X15370182Y-15500746D01*
X15370182Y-15500746D02*
X15370182Y-15491222D01*
X15370182Y-15491222D02*
X15379706Y-15472174D01*
X15379706Y-15472174D02*
X15398753Y-15462650D01*
X15398753Y-15462650D02*
X15427325Y-15462650D01*
X15427325Y-15462650D02*
X15446372Y-15472174D01*
X15522563Y-15672174D02*
X15532087Y-15662650D01*
X15532087Y-15662650D02*
X15551134Y-15634079D01*
X15551134Y-15634079D02*
X15560658Y-15615031D01*
X15560658Y-15615031D02*
X15570182Y-15586460D01*
X15570182Y-15586460D02*
X15579706Y-15538841D01*
X15579706Y-15538841D02*
X15579706Y-15500746D01*
X15579706Y-15500746D02*
X15570182Y-15453127D01*
X15570182Y-15453127D02*
X15560658Y-15424555D01*
X15560658Y-15424555D02*
X15551134Y-15405508D01*
X15551134Y-15405508D02*
X15532087Y-15376936D01*
X15532087Y-15376936D02*
X15522563Y-15367412D01*
M02*
