%TF.GenerationSoftware,KiCad,Pcbnew,8.0.3-8.0.3-0~ubuntu22.04.1*%
%TF.CreationDate,2024-08-07T13:08:44+03:00*%
%TF.ProjectId,power_distribution_body,706f7765-725f-4646-9973-747269627574,rev?*%
%TF.SameCoordinates,Original*%
%TF.FileFunction,Legend,Bot*%
%TF.FilePolarity,Positive*%
%FSLAX46Y46*%
G04 Gerber Fmt 4.6, Leading zero omitted, Abs format (unit mm)*
G04 Created by KiCad (PCBNEW 8.0.3-8.0.3-0~ubuntu22.04.1) date 2024-08-07 13:08:44*
%MOMM*%
%LPD*%
G01*
G04 APERTURE LIST*
%ADD10C,0.080000*%
G04 APERTURE END LIST*
D10*
X95830226Y-122754649D02*
X96068321Y-122754649D01*
X96068321Y-122754649D02*
X96092130Y-122992744D01*
X96092130Y-122992744D02*
X96068321Y-122968935D01*
X96068321Y-122968935D02*
X96020702Y-122945125D01*
X96020702Y-122945125D02*
X95901654Y-122945125D01*
X95901654Y-122945125D02*
X95854035Y-122968935D01*
X95854035Y-122968935D02*
X95830226Y-122992744D01*
X95830226Y-122992744D02*
X95806416Y-123040363D01*
X95806416Y-123040363D02*
X95806416Y-123159411D01*
X95806416Y-123159411D02*
X95830226Y-123207030D01*
X95830226Y-123207030D02*
X95854035Y-123230840D01*
X95854035Y-123230840D02*
X95901654Y-123254649D01*
X95901654Y-123254649D02*
X96020702Y-123254649D01*
X96020702Y-123254649D02*
X96068321Y-123230840D01*
X96068321Y-123230840D02*
X96092130Y-123207030D01*
X95663559Y-122754649D02*
X95496893Y-123254649D01*
X95496893Y-123254649D02*
X95330226Y-122754649D01*
X105473583Y-132201540D02*
X105425964Y-132225350D01*
X105425964Y-132225350D02*
X105354535Y-132225350D01*
X105354535Y-132225350D02*
X105283107Y-132201540D01*
X105283107Y-132201540D02*
X105235488Y-132153921D01*
X105235488Y-132153921D02*
X105211678Y-132106302D01*
X105211678Y-132106302D02*
X105187869Y-132011064D01*
X105187869Y-132011064D02*
X105187869Y-131939636D01*
X105187869Y-131939636D02*
X105211678Y-131844398D01*
X105211678Y-131844398D02*
X105235488Y-131796779D01*
X105235488Y-131796779D02*
X105283107Y-131749160D01*
X105283107Y-131749160D02*
X105354535Y-131725350D01*
X105354535Y-131725350D02*
X105402154Y-131725350D01*
X105402154Y-131725350D02*
X105473583Y-131749160D01*
X105473583Y-131749160D02*
X105497392Y-131772969D01*
X105497392Y-131772969D02*
X105497392Y-131939636D01*
X105497392Y-131939636D02*
X105402154Y-131939636D01*
X105711678Y-131725350D02*
X105711678Y-132225350D01*
X105711678Y-132225350D02*
X105997392Y-131725350D01*
X105997392Y-131725350D02*
X105997392Y-132225350D01*
X106235488Y-131725350D02*
X106235488Y-132225350D01*
X106235488Y-132225350D02*
X106354536Y-132225350D01*
X106354536Y-132225350D02*
X106425964Y-132201540D01*
X106425964Y-132201540D02*
X106473583Y-132153921D01*
X106473583Y-132153921D02*
X106497393Y-132106302D01*
X106497393Y-132106302D02*
X106521202Y-132011064D01*
X106521202Y-132011064D02*
X106521202Y-131939636D01*
X106521202Y-131939636D02*
X106497393Y-131844398D01*
X106497393Y-131844398D02*
X106473583Y-131796779D01*
X106473583Y-131796779D02*
X106425964Y-131749160D01*
X106425964Y-131749160D02*
X106354536Y-131725350D01*
X106354536Y-131725350D02*
X106235488Y-131725350D01*
X102940226Y-56474649D02*
X103178321Y-56474649D01*
X103178321Y-56474649D02*
X103202130Y-56712744D01*
X103202130Y-56712744D02*
X103178321Y-56688935D01*
X103178321Y-56688935D02*
X103130702Y-56665125D01*
X103130702Y-56665125D02*
X103011654Y-56665125D01*
X103011654Y-56665125D02*
X102964035Y-56688935D01*
X102964035Y-56688935D02*
X102940226Y-56712744D01*
X102940226Y-56712744D02*
X102916416Y-56760363D01*
X102916416Y-56760363D02*
X102916416Y-56879411D01*
X102916416Y-56879411D02*
X102940226Y-56927030D01*
X102940226Y-56927030D02*
X102964035Y-56950840D01*
X102964035Y-56950840D02*
X103011654Y-56974649D01*
X103011654Y-56974649D02*
X103130702Y-56974649D01*
X103130702Y-56974649D02*
X103178321Y-56950840D01*
X103178321Y-56950840D02*
X103202130Y-56927030D01*
X102773559Y-56474649D02*
X102606893Y-56974649D01*
X102606893Y-56974649D02*
X102440226Y-56474649D01*
X96226416Y-124748459D02*
X96274035Y-124724649D01*
X96274035Y-124724649D02*
X96345464Y-124724649D01*
X96345464Y-124724649D02*
X96416892Y-124748459D01*
X96416892Y-124748459D02*
X96464511Y-124796078D01*
X96464511Y-124796078D02*
X96488321Y-124843697D01*
X96488321Y-124843697D02*
X96512130Y-124938935D01*
X96512130Y-124938935D02*
X96512130Y-125010363D01*
X96512130Y-125010363D02*
X96488321Y-125105601D01*
X96488321Y-125105601D02*
X96464511Y-125153220D01*
X96464511Y-125153220D02*
X96416892Y-125200840D01*
X96416892Y-125200840D02*
X96345464Y-125224649D01*
X96345464Y-125224649D02*
X96297845Y-125224649D01*
X96297845Y-125224649D02*
X96226416Y-125200840D01*
X96226416Y-125200840D02*
X96202607Y-125177030D01*
X96202607Y-125177030D02*
X96202607Y-125010363D01*
X96202607Y-125010363D02*
X96297845Y-125010363D01*
X95988321Y-125224649D02*
X95988321Y-124724649D01*
X95988321Y-124724649D02*
X95702607Y-125224649D01*
X95702607Y-125224649D02*
X95702607Y-124724649D01*
X95464511Y-125224649D02*
X95464511Y-124724649D01*
X95464511Y-124724649D02*
X95345463Y-124724649D01*
X95345463Y-124724649D02*
X95274035Y-124748459D01*
X95274035Y-124748459D02*
X95226416Y-124796078D01*
X95226416Y-124796078D02*
X95202606Y-124843697D01*
X95202606Y-124843697D02*
X95178797Y-124938935D01*
X95178797Y-124938935D02*
X95178797Y-125010363D01*
X95178797Y-125010363D02*
X95202606Y-125105601D01*
X95202606Y-125105601D02*
X95226416Y-125153220D01*
X95226416Y-125153220D02*
X95274035Y-125200840D01*
X95274035Y-125200840D02*
X95345463Y-125224649D01*
X95345463Y-125224649D02*
X95464511Y-125224649D01*
X107445940Y-56464649D02*
X107136416Y-56464649D01*
X107136416Y-56464649D02*
X107303083Y-56655125D01*
X107303083Y-56655125D02*
X107231654Y-56655125D01*
X107231654Y-56655125D02*
X107184035Y-56678935D01*
X107184035Y-56678935D02*
X107160226Y-56702744D01*
X107160226Y-56702744D02*
X107136416Y-56750363D01*
X107136416Y-56750363D02*
X107136416Y-56869411D01*
X107136416Y-56869411D02*
X107160226Y-56917030D01*
X107160226Y-56917030D02*
X107184035Y-56940840D01*
X107184035Y-56940840D02*
X107231654Y-56964649D01*
X107231654Y-56964649D02*
X107374511Y-56964649D01*
X107374511Y-56964649D02*
X107422130Y-56940840D01*
X107422130Y-56940840D02*
X107445940Y-56917030D01*
X106993559Y-56464649D02*
X106826893Y-56964649D01*
X106826893Y-56964649D02*
X106660226Y-56464649D01*
X106541179Y-56464649D02*
X106231655Y-56464649D01*
X106231655Y-56464649D02*
X106398322Y-56655125D01*
X106398322Y-56655125D02*
X106326893Y-56655125D01*
X106326893Y-56655125D02*
X106279274Y-56678935D01*
X106279274Y-56678935D02*
X106255465Y-56702744D01*
X106255465Y-56702744D02*
X106231655Y-56750363D01*
X106231655Y-56750363D02*
X106231655Y-56869411D01*
X106231655Y-56869411D02*
X106255465Y-56917030D01*
X106255465Y-56917030D02*
X106279274Y-56940840D01*
X106279274Y-56940840D02*
X106326893Y-56964649D01*
X106326893Y-56964649D02*
X106469750Y-56964649D01*
X106469750Y-56964649D02*
X106517369Y-56940840D01*
X106517369Y-56940840D02*
X106541179Y-56917030D01*
X105401654Y-56702744D02*
X105330226Y-56726554D01*
X105330226Y-56726554D02*
X105306416Y-56750363D01*
X105306416Y-56750363D02*
X105282607Y-56797982D01*
X105282607Y-56797982D02*
X105282607Y-56869411D01*
X105282607Y-56869411D02*
X105306416Y-56917030D01*
X105306416Y-56917030D02*
X105330226Y-56940840D01*
X105330226Y-56940840D02*
X105377845Y-56964649D01*
X105377845Y-56964649D02*
X105568321Y-56964649D01*
X105568321Y-56964649D02*
X105568321Y-56464649D01*
X105568321Y-56464649D02*
X105401654Y-56464649D01*
X105401654Y-56464649D02*
X105354035Y-56488459D01*
X105354035Y-56488459D02*
X105330226Y-56512268D01*
X105330226Y-56512268D02*
X105306416Y-56559887D01*
X105306416Y-56559887D02*
X105306416Y-56607506D01*
X105306416Y-56607506D02*
X105330226Y-56655125D01*
X105330226Y-56655125D02*
X105354035Y-56678935D01*
X105354035Y-56678935D02*
X105401654Y-56702744D01*
X105401654Y-56702744D02*
X105568321Y-56702744D01*
X105092130Y-56821792D02*
X104854035Y-56821792D01*
X105139749Y-56964649D02*
X104973083Y-56464649D01*
X104973083Y-56464649D02*
X104806416Y-56964649D01*
X104711178Y-56464649D02*
X104425464Y-56464649D01*
X104568321Y-56964649D02*
X104568321Y-56464649D01*
X104330226Y-56464649D02*
X104044512Y-56464649D01*
X104187369Y-56964649D02*
X104187369Y-56464649D01*
X101613583Y-131725350D02*
X101327869Y-131725350D01*
X101470726Y-131725350D02*
X101470726Y-132225350D01*
X101470726Y-132225350D02*
X101423107Y-132153921D01*
X101423107Y-132153921D02*
X101375488Y-132106302D01*
X101375488Y-132106302D02*
X101327869Y-132082493D01*
X101804059Y-132177731D02*
X101827868Y-132201540D01*
X101827868Y-132201540D02*
X101875487Y-132225350D01*
X101875487Y-132225350D02*
X101994535Y-132225350D01*
X101994535Y-132225350D02*
X102042154Y-132201540D01*
X102042154Y-132201540D02*
X102065963Y-132177731D01*
X102065963Y-132177731D02*
X102089773Y-132130112D01*
X102089773Y-132130112D02*
X102089773Y-132082493D01*
X102089773Y-132082493D02*
X102065963Y-132011064D01*
X102065963Y-132011064D02*
X101780249Y-131725350D01*
X101780249Y-131725350D02*
X102089773Y-131725350D01*
X102232630Y-132225350D02*
X102399296Y-131725350D01*
X102399296Y-131725350D02*
X102565963Y-132225350D01*
X103799773Y-132245350D02*
X103561678Y-132245350D01*
X103561678Y-132245350D02*
X103537869Y-132007255D01*
X103537869Y-132007255D02*
X103561678Y-132031064D01*
X103561678Y-132031064D02*
X103609297Y-132054874D01*
X103609297Y-132054874D02*
X103728345Y-132054874D01*
X103728345Y-132054874D02*
X103775964Y-132031064D01*
X103775964Y-132031064D02*
X103799773Y-132007255D01*
X103799773Y-132007255D02*
X103823583Y-131959636D01*
X103823583Y-131959636D02*
X103823583Y-131840588D01*
X103823583Y-131840588D02*
X103799773Y-131792969D01*
X103799773Y-131792969D02*
X103775964Y-131769160D01*
X103775964Y-131769160D02*
X103728345Y-131745350D01*
X103728345Y-131745350D02*
X103609297Y-131745350D01*
X103609297Y-131745350D02*
X103561678Y-131769160D01*
X103561678Y-131769160D02*
X103537869Y-131792969D01*
X103966440Y-132245350D02*
X104133106Y-131745350D01*
X104133106Y-131745350D02*
X104299773Y-132245350D01*
X109166416Y-56954649D02*
X109452130Y-56954649D01*
X109309273Y-56954649D02*
X109309273Y-56454649D01*
X109309273Y-56454649D02*
X109356892Y-56526078D01*
X109356892Y-56526078D02*
X109404511Y-56573697D01*
X109404511Y-56573697D02*
X109452130Y-56597506D01*
X108975940Y-56502268D02*
X108952131Y-56478459D01*
X108952131Y-56478459D02*
X108904512Y-56454649D01*
X108904512Y-56454649D02*
X108785464Y-56454649D01*
X108785464Y-56454649D02*
X108737845Y-56478459D01*
X108737845Y-56478459D02*
X108714036Y-56502268D01*
X108714036Y-56502268D02*
X108690226Y-56549887D01*
X108690226Y-56549887D02*
X108690226Y-56597506D01*
X108690226Y-56597506D02*
X108714036Y-56668935D01*
X108714036Y-56668935D02*
X108999750Y-56954649D01*
X108999750Y-56954649D02*
X108690226Y-56954649D01*
X108547369Y-56454649D02*
X108380703Y-56954649D01*
X108380703Y-56954649D02*
X108214036Y-56454649D01*
X101216416Y-56488459D02*
X101264035Y-56464649D01*
X101264035Y-56464649D02*
X101335464Y-56464649D01*
X101335464Y-56464649D02*
X101406892Y-56488459D01*
X101406892Y-56488459D02*
X101454511Y-56536078D01*
X101454511Y-56536078D02*
X101478321Y-56583697D01*
X101478321Y-56583697D02*
X101502130Y-56678935D01*
X101502130Y-56678935D02*
X101502130Y-56750363D01*
X101502130Y-56750363D02*
X101478321Y-56845601D01*
X101478321Y-56845601D02*
X101454511Y-56893220D01*
X101454511Y-56893220D02*
X101406892Y-56940840D01*
X101406892Y-56940840D02*
X101335464Y-56964649D01*
X101335464Y-56964649D02*
X101287845Y-56964649D01*
X101287845Y-56964649D02*
X101216416Y-56940840D01*
X101216416Y-56940840D02*
X101192607Y-56917030D01*
X101192607Y-56917030D02*
X101192607Y-56750363D01*
X101192607Y-56750363D02*
X101287845Y-56750363D01*
X100978321Y-56964649D02*
X100978321Y-56464649D01*
X100978321Y-56464649D02*
X100692607Y-56964649D01*
X100692607Y-56964649D02*
X100692607Y-56464649D01*
X100454511Y-56964649D02*
X100454511Y-56464649D01*
X100454511Y-56464649D02*
X100335463Y-56464649D01*
X100335463Y-56464649D02*
X100264035Y-56488459D01*
X100264035Y-56488459D02*
X100216416Y-56536078D01*
X100216416Y-56536078D02*
X100192606Y-56583697D01*
X100192606Y-56583697D02*
X100168797Y-56678935D01*
X100168797Y-56678935D02*
X100168797Y-56750363D01*
X100168797Y-56750363D02*
X100192606Y-56845601D01*
X100192606Y-56845601D02*
X100216416Y-56893220D01*
X100216416Y-56893220D02*
X100264035Y-56940840D01*
X100264035Y-56940840D02*
X100335463Y-56964649D01*
X100335463Y-56964649D02*
X100454511Y-56964649D01*
M02*
