%TF.GenerationSoftware,KiCad,Pcbnew,8.0.3-8.0.3-0~ubuntu22.04.1*%
%TF.CreationDate,2024-08-07T13:09:10+03:00*%
%TF.ProjectId,power_distribution_body,706f7765-725f-4646-9973-747269627574,rev?*%
%TF.SameCoordinates,Original*%
%TF.FileFunction,Drillmap*%
%TF.FilePolarity,Positive*%
%FSLAX45Y45*%
G04 Gerber Fmt 4.5, Leading zero omitted, Abs format (unit mm)*
G04 Created by KiCad (PCBNEW 8.0.3-8.0.3-0~ubuntu22.04.1) date 2024-08-07 13:09:10*
%MOMM*%
%LPD*%
G01*
G04 APERTURE LIST*
%ADD10C,0.050000*%
%ADD11C,0.200000*%
%ADD12C,0.100000*%
%ADD13C,0.120000*%
%ADD14C,0.130000*%
%ADD15C,0.150000*%
%ADD16C,0.350000*%
G04 APERTURE END LIST*
D10*
X8685000Y-13750000D02*
X8685000Y-5250000D01*
X8685000Y-5250000D02*
G75*
G02*
X8935000Y-5000000I250000J0D01*
G01*
X21185000Y-5000000D02*
G75*
G02*
X21435000Y-5250000I0J-250000D01*
G01*
X21435000Y-13750000D02*
G75*
G02*
X21185000Y-14000000I-250000J0D01*
G01*
X8935000Y-14000000D02*
G75*
G02*
X8685000Y-13750000I0J250000D01*
G01*
X8935000Y-5000000D02*
X21185000Y-5000000D01*
X21435000Y-5250000D02*
X21435000Y-13750000D01*
X21185000Y-14000000D02*
X8935000Y-14000000D01*
D11*
D12*
X10655000Y-5855000D02*
X10695000Y-5895000D01*
X10695000Y-5855000D02*
X10655000Y-5895000D01*
X10977000Y-11566000D02*
X11017000Y-11606000D01*
X11017000Y-11566000D02*
X10977000Y-11606000D01*
X11030000Y-5855000D02*
X11070000Y-5895000D01*
X11070000Y-5855000D02*
X11030000Y-5895000D01*
X11162000Y-8731000D02*
X11202000Y-8771000D01*
X11202000Y-8731000D02*
X11162000Y-8771000D01*
X11205000Y-11795000D02*
X11245000Y-11835000D01*
X11245000Y-11795000D02*
X11205000Y-11835000D01*
X11380000Y-9580000D02*
X11420000Y-9620000D01*
X11420000Y-9580000D02*
X11380000Y-9620000D01*
X11380000Y-9680000D02*
X11420000Y-9720000D01*
X11420000Y-9680000D02*
X11380000Y-9720000D01*
X11380000Y-9780000D02*
X11420000Y-9820000D01*
X11420000Y-9780000D02*
X11380000Y-9820000D01*
X11380000Y-9880000D02*
X11420000Y-9920000D01*
X11420000Y-9880000D02*
X11380000Y-9920000D01*
X11380000Y-9980000D02*
X11420000Y-10020000D01*
X11420000Y-9980000D02*
X11380000Y-10020000D01*
X11380000Y-10080000D02*
X11420000Y-10120000D01*
X11420000Y-10080000D02*
X11380000Y-10120000D01*
X11380000Y-10180000D02*
X11420000Y-10220000D01*
X11420000Y-10180000D02*
X11380000Y-10220000D01*
X11419000Y-8987000D02*
X11459000Y-9027000D01*
X11459000Y-8987000D02*
X11419000Y-9027000D01*
X11480000Y-9580000D02*
X11520000Y-9620000D01*
X11520000Y-9580000D02*
X11480000Y-9620000D01*
X11480000Y-9680000D02*
X11520000Y-9720000D01*
X11520000Y-9680000D02*
X11480000Y-9720000D01*
X11480000Y-9780000D02*
X11520000Y-9820000D01*
X11520000Y-9780000D02*
X11480000Y-9820000D01*
X11480000Y-9880000D02*
X11520000Y-9920000D01*
X11520000Y-9880000D02*
X11480000Y-9920000D01*
X11480000Y-9980000D02*
X11520000Y-10020000D01*
X11520000Y-9980000D02*
X11480000Y-10020000D01*
X11480000Y-10080000D02*
X11520000Y-10120000D01*
X11520000Y-10080000D02*
X11480000Y-10120000D01*
X11480000Y-10180000D02*
X11520000Y-10220000D01*
X11520000Y-10180000D02*
X11480000Y-10220000D01*
X11580000Y-9980000D02*
X11620000Y-10020000D01*
X11620000Y-9980000D02*
X11580000Y-10020000D01*
X11580000Y-10080000D02*
X11620000Y-10120000D01*
X11620000Y-10080000D02*
X11580000Y-10120000D01*
X11580000Y-10180000D02*
X11620000Y-10220000D01*
X11620000Y-10180000D02*
X11580000Y-10220000D01*
X11680000Y-9980000D02*
X11720000Y-10020000D01*
X11720000Y-9980000D02*
X11680000Y-10020000D01*
X11680000Y-10080000D02*
X11720000Y-10120000D01*
X11720000Y-10080000D02*
X11680000Y-10120000D01*
X11680000Y-10180000D02*
X11720000Y-10220000D01*
X11720000Y-10180000D02*
X11680000Y-10220000D01*
X11780000Y-9980000D02*
X11820000Y-10020000D01*
X11820000Y-9980000D02*
X11780000Y-10020000D01*
X11780000Y-10080000D02*
X11820000Y-10120000D01*
X11820000Y-10080000D02*
X11780000Y-10120000D01*
X11780000Y-10080000D02*
X11820000Y-10120000D01*
X11820000Y-10080000D02*
X11780000Y-10120000D01*
X11780000Y-10180000D02*
X11820000Y-10220000D01*
X11820000Y-10180000D02*
X11780000Y-10220000D01*
X11880000Y-9980000D02*
X11920000Y-10020000D01*
X11920000Y-9980000D02*
X11880000Y-10020000D01*
X11880000Y-10080000D02*
X11920000Y-10120000D01*
X11920000Y-10080000D02*
X11880000Y-10120000D01*
X11880000Y-10180000D02*
X11920000Y-10220000D01*
X11920000Y-10180000D02*
X11880000Y-10220000D01*
X11980000Y-9980000D02*
X12020000Y-10020000D01*
X12020000Y-9980000D02*
X11980000Y-10020000D01*
X11980000Y-10080000D02*
X12020000Y-10120000D01*
X12020000Y-10080000D02*
X11980000Y-10120000D01*
X11980000Y-10180000D02*
X12020000Y-10220000D01*
X12020000Y-10180000D02*
X11980000Y-10220000D01*
X12080000Y-9980000D02*
X12120000Y-10020000D01*
X12120000Y-9980000D02*
X12080000Y-10020000D01*
X12080000Y-10080000D02*
X12120000Y-10120000D01*
X12120000Y-10080000D02*
X12080000Y-10120000D01*
X12080000Y-10180000D02*
X12120000Y-10220000D01*
X12120000Y-10180000D02*
X12080000Y-10220000D01*
X12180000Y-9980000D02*
X12220000Y-10020000D01*
X12220000Y-9980000D02*
X12180000Y-10020000D01*
X12180000Y-10080000D02*
X12220000Y-10120000D01*
X12220000Y-10080000D02*
X12180000Y-10120000D01*
X12180000Y-10180000D02*
X12220000Y-10220000D01*
X12220000Y-10180000D02*
X12180000Y-10220000D01*
X12280000Y-9980000D02*
X12320000Y-10020000D01*
X12320000Y-9980000D02*
X12280000Y-10020000D01*
X12280000Y-10080000D02*
X12320000Y-10120000D01*
X12320000Y-10080000D02*
X12280000Y-10120000D01*
X12280000Y-10180000D02*
X12320000Y-10220000D01*
X12320000Y-10180000D02*
X12280000Y-10220000D01*
X12380000Y-9980000D02*
X12420000Y-10020000D01*
X12420000Y-9980000D02*
X12380000Y-10020000D01*
X12380000Y-10080000D02*
X12420000Y-10120000D01*
X12420000Y-10080000D02*
X12380000Y-10120000D01*
X12380000Y-10180000D02*
X12420000Y-10220000D01*
X12420000Y-10180000D02*
X12380000Y-10220000D01*
X12380000Y-10280000D02*
X12420000Y-10320000D01*
X12420000Y-10280000D02*
X12380000Y-10320000D01*
X12380000Y-10380000D02*
X12420000Y-10420000D01*
X12420000Y-10380000D02*
X12380000Y-10420000D01*
X12480000Y-9980000D02*
X12520000Y-10020000D01*
X12520000Y-9980000D02*
X12480000Y-10020000D01*
X12480000Y-10080000D02*
X12520000Y-10120000D01*
X12520000Y-10080000D02*
X12480000Y-10120000D01*
X12480000Y-10180000D02*
X12520000Y-10220000D01*
X12520000Y-10180000D02*
X12480000Y-10220000D01*
X12480000Y-10280000D02*
X12520000Y-10320000D01*
X12520000Y-10280000D02*
X12480000Y-10320000D01*
X12480000Y-10380000D02*
X12520000Y-10420000D01*
X12520000Y-10380000D02*
X12480000Y-10420000D01*
X12480000Y-10480000D02*
X12520000Y-10520000D01*
X12520000Y-10480000D02*
X12480000Y-10520000D01*
X12780000Y-9580000D02*
X12820000Y-9620000D01*
X12820000Y-9580000D02*
X12780000Y-9620000D01*
X12780000Y-9680000D02*
X12820000Y-9720000D01*
X12820000Y-9680000D02*
X12780000Y-9720000D01*
X12780000Y-9780000D02*
X12820000Y-9820000D01*
X12820000Y-9780000D02*
X12780000Y-9820000D01*
X12780000Y-9880000D02*
X12820000Y-9920000D01*
X12820000Y-9880000D02*
X12780000Y-9920000D01*
X12780000Y-9980000D02*
X12820000Y-10020000D01*
X12820000Y-9980000D02*
X12780000Y-10020000D01*
X12780000Y-10580000D02*
X12820000Y-10620000D01*
X12820000Y-10580000D02*
X12780000Y-10620000D01*
X12780000Y-10680000D02*
X12820000Y-10720000D01*
X12820000Y-10680000D02*
X12780000Y-10720000D01*
X12880000Y-9580000D02*
X12920000Y-9620000D01*
X12920000Y-9580000D02*
X12880000Y-9620000D01*
X12880000Y-9680000D02*
X12920000Y-9720000D01*
X12920000Y-9680000D02*
X12880000Y-9720000D01*
X12880000Y-9780000D02*
X12920000Y-9820000D01*
X12920000Y-9780000D02*
X12880000Y-9820000D01*
X12880000Y-9880000D02*
X12920000Y-9920000D01*
X12920000Y-9880000D02*
X12880000Y-9920000D01*
X12880000Y-9980000D02*
X12920000Y-10020000D01*
X12920000Y-9980000D02*
X12880000Y-10020000D01*
X12880000Y-10580000D02*
X12920000Y-10620000D01*
X12920000Y-10580000D02*
X12880000Y-10620000D01*
X12880000Y-10680000D02*
X12920000Y-10720000D01*
X12920000Y-10680000D02*
X12880000Y-10720000D01*
X12980000Y-9580000D02*
X13020000Y-9620000D01*
X13020000Y-9580000D02*
X12980000Y-9620000D01*
X12980000Y-9680000D02*
X13020000Y-9720000D01*
X13020000Y-9680000D02*
X12980000Y-9720000D01*
X12980000Y-9780000D02*
X13020000Y-9820000D01*
X13020000Y-9780000D02*
X12980000Y-9820000D01*
X12980000Y-9880000D02*
X13020000Y-9920000D01*
X13020000Y-9880000D02*
X12980000Y-9920000D01*
X12980000Y-9980000D02*
X13020000Y-10020000D01*
X13020000Y-9980000D02*
X12980000Y-10020000D01*
X12980000Y-10580000D02*
X13020000Y-10620000D01*
X13020000Y-10580000D02*
X12980000Y-10620000D01*
X12980000Y-10680000D02*
X13020000Y-10720000D01*
X13020000Y-10680000D02*
X12980000Y-10720000D01*
X13080000Y-9580000D02*
X13120000Y-9620000D01*
X13120000Y-9580000D02*
X13080000Y-9620000D01*
X13080000Y-9680000D02*
X13120000Y-9720000D01*
X13120000Y-9680000D02*
X13080000Y-9720000D01*
X13080000Y-9780000D02*
X13120000Y-9820000D01*
X13120000Y-9780000D02*
X13080000Y-9820000D01*
X13080000Y-9880000D02*
X13120000Y-9920000D01*
X13120000Y-9880000D02*
X13080000Y-9920000D01*
X13080000Y-9980000D02*
X13120000Y-10020000D01*
X13120000Y-9980000D02*
X13080000Y-10020000D01*
X13080000Y-10580000D02*
X13120000Y-10620000D01*
X13120000Y-10580000D02*
X13080000Y-10620000D01*
X13080000Y-10680000D02*
X13120000Y-10720000D01*
X13120000Y-10680000D02*
X13080000Y-10720000D01*
X13180000Y-9580000D02*
X13220000Y-9620000D01*
X13220000Y-9580000D02*
X13180000Y-9620000D01*
X13180000Y-9680000D02*
X13220000Y-9720000D01*
X13220000Y-9680000D02*
X13180000Y-9720000D01*
X13180000Y-9780000D02*
X13220000Y-9820000D01*
X13220000Y-9780000D02*
X13180000Y-9820000D01*
X13180000Y-9880000D02*
X13220000Y-9920000D01*
X13220000Y-9880000D02*
X13180000Y-9920000D01*
X13180000Y-9980000D02*
X13220000Y-10020000D01*
X13220000Y-9980000D02*
X13180000Y-10020000D01*
X13180000Y-10580000D02*
X13220000Y-10620000D01*
X13220000Y-10580000D02*
X13180000Y-10620000D01*
X13180000Y-10680000D02*
X13220000Y-10720000D01*
X13220000Y-10680000D02*
X13180000Y-10720000D01*
X13280000Y-9580000D02*
X13320000Y-9620000D01*
X13320000Y-9580000D02*
X13280000Y-9620000D01*
X13280000Y-9680000D02*
X13320000Y-9720000D01*
X13320000Y-9680000D02*
X13280000Y-9720000D01*
X13280000Y-9780000D02*
X13320000Y-9820000D01*
X13320000Y-9780000D02*
X13280000Y-9820000D01*
X13280000Y-9880000D02*
X13320000Y-9920000D01*
X13320000Y-9880000D02*
X13280000Y-9920000D01*
X13280000Y-9980000D02*
X13320000Y-10020000D01*
X13320000Y-9980000D02*
X13280000Y-10020000D01*
X13280000Y-10580000D02*
X13320000Y-10620000D01*
X13320000Y-10580000D02*
X13280000Y-10620000D01*
X13280000Y-10680000D02*
X13320000Y-10720000D01*
X13320000Y-10680000D02*
X13280000Y-10720000D01*
X13380000Y-9580000D02*
X13420000Y-9620000D01*
X13420000Y-9580000D02*
X13380000Y-9620000D01*
X13380000Y-9680000D02*
X13420000Y-9720000D01*
X13420000Y-9680000D02*
X13380000Y-9720000D01*
X13380000Y-9780000D02*
X13420000Y-9820000D01*
X13420000Y-9780000D02*
X13380000Y-9820000D01*
X13380000Y-9780000D02*
X13420000Y-9820000D01*
X13420000Y-9780000D02*
X13380000Y-9820000D01*
X13380000Y-9880000D02*
X13420000Y-9920000D01*
X13420000Y-9880000D02*
X13380000Y-9920000D01*
X13380000Y-9980000D02*
X13420000Y-10020000D01*
X13420000Y-9980000D02*
X13380000Y-10020000D01*
X13380000Y-10580000D02*
X13420000Y-10620000D01*
X13420000Y-10580000D02*
X13380000Y-10620000D01*
X13380000Y-10680000D02*
X13420000Y-10720000D01*
X13420000Y-10680000D02*
X13380000Y-10720000D01*
X13480000Y-9580000D02*
X13520000Y-9620000D01*
X13520000Y-9580000D02*
X13480000Y-9620000D01*
X13480000Y-9680000D02*
X13520000Y-9720000D01*
X13520000Y-9680000D02*
X13480000Y-9720000D01*
X13480000Y-9780000D02*
X13520000Y-9820000D01*
X13520000Y-9780000D02*
X13480000Y-9820000D01*
X13480000Y-9880000D02*
X13520000Y-9920000D01*
X13520000Y-9880000D02*
X13480000Y-9920000D01*
X13480000Y-9980000D02*
X13520000Y-10020000D01*
X13520000Y-9980000D02*
X13480000Y-10020000D01*
X13480000Y-10580000D02*
X13520000Y-10620000D01*
X13520000Y-10580000D02*
X13480000Y-10620000D01*
X13480000Y-10680000D02*
X13520000Y-10720000D01*
X13520000Y-10680000D02*
X13480000Y-10720000D01*
X13580000Y-9580000D02*
X13620000Y-9620000D01*
X13620000Y-9580000D02*
X13580000Y-9620000D01*
X13580000Y-9680000D02*
X13620000Y-9720000D01*
X13620000Y-9680000D02*
X13580000Y-9720000D01*
X13580000Y-9780000D02*
X13620000Y-9820000D01*
X13620000Y-9780000D02*
X13580000Y-9820000D01*
X13580000Y-9880000D02*
X13620000Y-9920000D01*
X13620000Y-9880000D02*
X13580000Y-9920000D01*
X13580000Y-9980000D02*
X13620000Y-10020000D01*
X13620000Y-9980000D02*
X13580000Y-10020000D01*
X13580000Y-10580000D02*
X13620000Y-10620000D01*
X13620000Y-10580000D02*
X13580000Y-10620000D01*
X13580000Y-10680000D02*
X13620000Y-10720000D01*
X13620000Y-10680000D02*
X13580000Y-10720000D01*
X13680000Y-9580000D02*
X13720000Y-9620000D01*
X13720000Y-9580000D02*
X13680000Y-9620000D01*
X13680000Y-9680000D02*
X13720000Y-9720000D01*
X13720000Y-9680000D02*
X13680000Y-9720000D01*
X13680000Y-9780000D02*
X13720000Y-9820000D01*
X13720000Y-9780000D02*
X13680000Y-9820000D01*
X13680000Y-9880000D02*
X13720000Y-9920000D01*
X13720000Y-9880000D02*
X13680000Y-9920000D01*
X13680000Y-9980000D02*
X13720000Y-10020000D01*
X13720000Y-9980000D02*
X13680000Y-10020000D01*
X13680000Y-10580000D02*
X13720000Y-10620000D01*
X13720000Y-10580000D02*
X13680000Y-10620000D01*
X13680000Y-10680000D02*
X13720000Y-10720000D01*
X13720000Y-10680000D02*
X13680000Y-10720000D01*
X13780000Y-9680000D02*
X13820000Y-9720000D01*
X13820000Y-9680000D02*
X13780000Y-9720000D01*
X13780000Y-9780000D02*
X13820000Y-9820000D01*
X13820000Y-9780000D02*
X13780000Y-9820000D01*
X13780000Y-9880000D02*
X13820000Y-9920000D01*
X13820000Y-9880000D02*
X13780000Y-9920000D01*
X13780000Y-9980000D02*
X13820000Y-10020000D01*
X13820000Y-9980000D02*
X13780000Y-10020000D01*
X13780000Y-10580000D02*
X13820000Y-10620000D01*
X13820000Y-10580000D02*
X13780000Y-10620000D01*
X9197500Y-5750000D02*
G75*
G02*
X9147500Y-5750000I-25000J0D01*
G01*
X9147500Y-5750000D02*
G75*
G02*
X9197500Y-5750000I25000J0D01*
G01*
X9197500Y-13250000D02*
G75*
G02*
X9147500Y-13250000I-25000J0D01*
G01*
X9147500Y-13250000D02*
G75*
G02*
X9197500Y-13250000I25000J0D01*
G01*
X9274385Y-5564385D02*
G75*
G02*
X9224385Y-5564385I-25000J0D01*
G01*
X9224385Y-5564385D02*
G75*
G02*
X9274385Y-5564385I25000J0D01*
G01*
X9274385Y-5935615D02*
G75*
G02*
X9224385Y-5935615I-25000J0D01*
G01*
X9224385Y-5935615D02*
G75*
G02*
X9274385Y-5935615I25000J0D01*
G01*
X9274385Y-13064384D02*
G75*
G02*
X9224385Y-13064384I-25000J0D01*
G01*
X9224385Y-13064384D02*
G75*
G02*
X9274385Y-13064384I25000J0D01*
G01*
X9274385Y-13435615D02*
G75*
G02*
X9224385Y-13435615I-25000J0D01*
G01*
X9224385Y-13435615D02*
G75*
G02*
X9274385Y-13435615I25000J0D01*
G01*
X9460000Y-5487500D02*
G75*
G02*
X9410000Y-5487500I-25000J0D01*
G01*
X9410000Y-5487500D02*
G75*
G02*
X9460000Y-5487500I25000J0D01*
G01*
X9460000Y-6012500D02*
G75*
G02*
X9410000Y-6012500I-25000J0D01*
G01*
X9410000Y-6012500D02*
G75*
G02*
X9460000Y-6012500I25000J0D01*
G01*
X9460000Y-12987500D02*
G75*
G02*
X9410000Y-12987500I-25000J0D01*
G01*
X9410000Y-12987500D02*
G75*
G02*
X9460000Y-12987500I25000J0D01*
G01*
X9460000Y-13512500D02*
G75*
G02*
X9410000Y-13512500I-25000J0D01*
G01*
X9410000Y-13512500D02*
G75*
G02*
X9460000Y-13512500I25000J0D01*
G01*
X9645616Y-5564385D02*
G75*
G02*
X9595616Y-5564385I-25000J0D01*
G01*
X9595616Y-5564385D02*
G75*
G02*
X9645616Y-5564385I25000J0D01*
G01*
X9645616Y-5935615D02*
G75*
G02*
X9595616Y-5935615I-25000J0D01*
G01*
X9595616Y-5935615D02*
G75*
G02*
X9645616Y-5935615I25000J0D01*
G01*
X9645616Y-13064384D02*
G75*
G02*
X9595616Y-13064384I-25000J0D01*
G01*
X9595616Y-13064384D02*
G75*
G02*
X9645616Y-13064384I25000J0D01*
G01*
X9645616Y-13435615D02*
G75*
G02*
X9595616Y-13435615I-25000J0D01*
G01*
X9595616Y-13435615D02*
G75*
G02*
X9645616Y-13435615I25000J0D01*
G01*
X9722500Y-5750000D02*
G75*
G02*
X9672500Y-5750000I-25000J0D01*
G01*
X9672500Y-5750000D02*
G75*
G02*
X9722500Y-5750000I25000J0D01*
G01*
X9722500Y-13250000D02*
G75*
G02*
X9672500Y-13250000I-25000J0D01*
G01*
X9672500Y-13250000D02*
G75*
G02*
X9722500Y-13250000I25000J0D01*
G01*
X20447500Y-5750000D02*
G75*
G02*
X20397500Y-5750000I-25000J0D01*
G01*
X20397500Y-5750000D02*
G75*
G02*
X20447500Y-5750000I25000J0D01*
G01*
X20447500Y-13264384D02*
G75*
G02*
X20397500Y-13264384I-25000J0D01*
G01*
X20397500Y-13264384D02*
G75*
G02*
X20447500Y-13264384I25000J0D01*
G01*
X20524385Y-5564385D02*
G75*
G02*
X20474385Y-5564385I-25000J0D01*
G01*
X20474385Y-5564385D02*
G75*
G02*
X20524385Y-5564385I25000J0D01*
G01*
X20524385Y-5935615D02*
G75*
G02*
X20474385Y-5935615I-25000J0D01*
G01*
X20474385Y-5935615D02*
G75*
G02*
X20524385Y-5935615I25000J0D01*
G01*
X20524385Y-13078769D02*
G75*
G02*
X20474385Y-13078769I-25000J0D01*
G01*
X20474385Y-13078769D02*
G75*
G02*
X20524385Y-13078769I25000J0D01*
G01*
X20524385Y-13450000D02*
G75*
G02*
X20474385Y-13450000I-25000J0D01*
G01*
X20474385Y-13450000D02*
G75*
G02*
X20524385Y-13450000I25000J0D01*
G01*
X20710000Y-5487500D02*
G75*
G02*
X20660000Y-5487500I-25000J0D01*
G01*
X20660000Y-5487500D02*
G75*
G02*
X20710000Y-5487500I25000J0D01*
G01*
X20710000Y-6012500D02*
G75*
G02*
X20660000Y-6012500I-25000J0D01*
G01*
X20660000Y-6012500D02*
G75*
G02*
X20710000Y-6012500I25000J0D01*
G01*
X20710000Y-13001884D02*
G75*
G02*
X20660000Y-13001884I-25000J0D01*
G01*
X20660000Y-13001884D02*
G75*
G02*
X20710000Y-13001884I25000J0D01*
G01*
X20710000Y-13526884D02*
G75*
G02*
X20660000Y-13526884I-25000J0D01*
G01*
X20660000Y-13526884D02*
G75*
G02*
X20710000Y-13526884I25000J0D01*
G01*
X20895616Y-5564385D02*
G75*
G02*
X20845616Y-5564385I-25000J0D01*
G01*
X20845616Y-5564385D02*
G75*
G02*
X20895616Y-5564385I25000J0D01*
G01*
X20895616Y-5935615D02*
G75*
G02*
X20845616Y-5935615I-25000J0D01*
G01*
X20845616Y-5935615D02*
G75*
G02*
X20895616Y-5935615I25000J0D01*
G01*
X20895616Y-13078769D02*
G75*
G02*
X20845616Y-13078769I-25000J0D01*
G01*
X20845616Y-13078769D02*
G75*
G02*
X20895616Y-13078769I25000J0D01*
G01*
X20895616Y-13450000D02*
G75*
G02*
X20845616Y-13450000I-25000J0D01*
G01*
X20845616Y-13450000D02*
G75*
G02*
X20895616Y-13450000I25000J0D01*
G01*
X20972500Y-5750000D02*
G75*
G02*
X20922500Y-5750000I-25000J0D01*
G01*
X20922500Y-5750000D02*
G75*
G02*
X20972500Y-5750000I25000J0D01*
G01*
X20972500Y-13264384D02*
G75*
G02*
X20922500Y-13264384I-25000J0D01*
G01*
X20922500Y-13264384D02*
G75*
G02*
X20972500Y-13264384I25000J0D01*
G01*
X9085000Y-7624600D02*
X9085000Y-7675400D01*
X9059600Y-7650000D02*
X9110400Y-7650000D01*
X9085000Y-7878600D02*
X9085000Y-7929400D01*
X9059600Y-7904000D02*
X9110400Y-7904000D01*
X9085000Y-8132600D02*
X9085000Y-8183400D01*
X9059600Y-8158000D02*
X9110400Y-8158000D01*
X9085000Y-8386600D02*
X9085000Y-8437400D01*
X9059600Y-8412000D02*
X9110400Y-8412000D01*
X9085000Y-8640600D02*
X9085000Y-8691400D01*
X9059600Y-8666000D02*
X9110400Y-8666000D01*
X9085000Y-8894600D02*
X9085000Y-8945400D01*
X9059600Y-8920000D02*
X9110400Y-8920000D01*
X9085000Y-10078600D02*
X9085000Y-10129400D01*
X9059600Y-10104000D02*
X9110400Y-10104000D01*
X9085000Y-10332600D02*
X9085000Y-10383400D01*
X9059600Y-10358000D02*
X9110400Y-10358000D01*
X9085000Y-10586600D02*
X9085000Y-10637400D01*
X9059600Y-10612000D02*
X9110400Y-10612000D01*
X9085000Y-10840600D02*
X9085000Y-10891400D01*
X9059600Y-10866000D02*
X9110400Y-10866000D01*
X9085000Y-11094600D02*
X9085000Y-11145400D01*
X9059600Y-11120000D02*
X9110400Y-11120000D01*
X9085000Y-11348600D02*
X9085000Y-11399400D01*
X9059600Y-11374000D02*
X9110400Y-11374000D01*
X9339000Y-7624600D02*
X9339000Y-7675400D01*
X9313600Y-7650000D02*
X9364400Y-7650000D01*
X9339000Y-7878600D02*
X9339000Y-7929400D01*
X9313600Y-7904000D02*
X9364400Y-7904000D01*
X9339000Y-8132600D02*
X9339000Y-8183400D01*
X9313600Y-8158000D02*
X9364400Y-8158000D01*
X9339000Y-8386600D02*
X9339000Y-8437400D01*
X9313600Y-8412000D02*
X9364400Y-8412000D01*
X9339000Y-8640600D02*
X9339000Y-8691400D01*
X9313600Y-8666000D02*
X9364400Y-8666000D01*
X9339000Y-8894600D02*
X9339000Y-8945400D01*
X9313600Y-8920000D02*
X9364400Y-8920000D01*
X9339000Y-10078600D02*
X9339000Y-10129400D01*
X9313600Y-10104000D02*
X9364400Y-10104000D01*
X9339000Y-10332600D02*
X9339000Y-10383400D01*
X9313600Y-10358000D02*
X9364400Y-10358000D01*
X9339000Y-10586600D02*
X9339000Y-10637400D01*
X9313600Y-10612000D02*
X9364400Y-10612000D01*
X9339000Y-10840600D02*
X9339000Y-10891400D01*
X9313600Y-10866000D02*
X9364400Y-10866000D01*
X9339000Y-11094600D02*
X9339000Y-11145400D01*
X9313600Y-11120000D02*
X9364400Y-11120000D01*
X9339000Y-11348600D02*
X9339000Y-11399400D01*
X9313600Y-11374000D02*
X9364400Y-11374000D01*
X9593000Y-7624600D02*
X9593000Y-7675400D01*
X9567600Y-7650000D02*
X9618400Y-7650000D01*
X9593000Y-7878600D02*
X9593000Y-7929400D01*
X9567600Y-7904000D02*
X9618400Y-7904000D01*
X9593000Y-8132600D02*
X9593000Y-8183400D01*
X9567600Y-8158000D02*
X9618400Y-8158000D01*
X9593000Y-8386600D02*
X9593000Y-8437400D01*
X9567600Y-8412000D02*
X9618400Y-8412000D01*
X9593000Y-8640600D02*
X9593000Y-8691400D01*
X9567600Y-8666000D02*
X9618400Y-8666000D01*
X9593000Y-8894600D02*
X9593000Y-8945400D01*
X9567600Y-8920000D02*
X9618400Y-8920000D01*
X9593000Y-10078600D02*
X9593000Y-10129400D01*
X9567600Y-10104000D02*
X9618400Y-10104000D01*
X9593000Y-10332600D02*
X9593000Y-10383400D01*
X9567600Y-10358000D02*
X9618400Y-10358000D01*
X9593000Y-10586600D02*
X9593000Y-10637400D01*
X9567600Y-10612000D02*
X9618400Y-10612000D01*
X9593000Y-10840600D02*
X9593000Y-10891400D01*
X9567600Y-10866000D02*
X9618400Y-10866000D01*
X9593000Y-11094600D02*
X9593000Y-11145400D01*
X9567600Y-11120000D02*
X9618400Y-11120000D01*
X9593000Y-11348600D02*
X9593000Y-11399400D01*
X9567600Y-11374000D02*
X9618400Y-11374000D01*
X9847000Y-7624600D02*
X9847000Y-7675400D01*
X9821600Y-7650000D02*
X9872400Y-7650000D01*
X9847000Y-7878600D02*
X9847000Y-7929400D01*
X9821600Y-7904000D02*
X9872400Y-7904000D01*
X9847000Y-8132600D02*
X9847000Y-8183400D01*
X9821600Y-8158000D02*
X9872400Y-8158000D01*
X9847000Y-8386600D02*
X9847000Y-8437400D01*
X9821600Y-8412000D02*
X9872400Y-8412000D01*
X9847000Y-8640600D02*
X9847000Y-8691400D01*
X9821600Y-8666000D02*
X9872400Y-8666000D01*
X9847000Y-8894600D02*
X9847000Y-8945400D01*
X9821600Y-8920000D02*
X9872400Y-8920000D01*
X9847000Y-10078600D02*
X9847000Y-10129400D01*
X9821600Y-10104000D02*
X9872400Y-10104000D01*
X9847000Y-10332600D02*
X9847000Y-10383400D01*
X9821600Y-10358000D02*
X9872400Y-10358000D01*
X9847000Y-10586600D02*
X9847000Y-10637400D01*
X9821600Y-10612000D02*
X9872400Y-10612000D01*
X9847000Y-10840600D02*
X9847000Y-10891400D01*
X9821600Y-10866000D02*
X9872400Y-10866000D01*
X9847000Y-11094600D02*
X9847000Y-11145400D01*
X9821600Y-11120000D02*
X9872400Y-11120000D01*
X9847000Y-11348600D02*
X9847000Y-11399400D01*
X9821600Y-11374000D02*
X9872400Y-11374000D01*
X10101000Y-7624600D02*
X10101000Y-7675400D01*
X10075600Y-7650000D02*
X10126400Y-7650000D01*
X10101000Y-7878600D02*
X10101000Y-7929400D01*
X10075600Y-7904000D02*
X10126400Y-7904000D01*
X10101000Y-8132600D02*
X10101000Y-8183400D01*
X10075600Y-8158000D02*
X10126400Y-8158000D01*
X10101000Y-8386600D02*
X10101000Y-8437400D01*
X10075600Y-8412000D02*
X10126400Y-8412000D01*
X10101000Y-8640600D02*
X10101000Y-8691400D01*
X10075600Y-8666000D02*
X10126400Y-8666000D01*
X10101000Y-8894600D02*
X10101000Y-8945400D01*
X10075600Y-8920000D02*
X10126400Y-8920000D01*
X10101000Y-10078600D02*
X10101000Y-10129400D01*
X10075600Y-10104000D02*
X10126400Y-10104000D01*
X10101000Y-10332600D02*
X10101000Y-10383400D01*
X10075600Y-10358000D02*
X10126400Y-10358000D01*
X10101000Y-10586600D02*
X10101000Y-10637400D01*
X10075600Y-10612000D02*
X10126400Y-10612000D01*
X10101000Y-10840600D02*
X10101000Y-10891400D01*
X10075600Y-10866000D02*
X10126400Y-10866000D01*
X10101000Y-11094600D02*
X10101000Y-11145400D01*
X10075600Y-11120000D02*
X10126400Y-11120000D01*
X10101000Y-11348600D02*
X10101000Y-11399400D01*
X10075600Y-11374000D02*
X10126400Y-11374000D01*
X10355000Y-7624600D02*
X10355000Y-7675400D01*
X10329600Y-7650000D02*
X10380400Y-7650000D01*
X10355000Y-7878600D02*
X10355000Y-7929400D01*
X10329600Y-7904000D02*
X10380400Y-7904000D01*
X10355000Y-8132600D02*
X10355000Y-8183400D01*
X10329600Y-8158000D02*
X10380400Y-8158000D01*
X10355000Y-8386600D02*
X10355000Y-8437400D01*
X10329600Y-8412000D02*
X10380400Y-8412000D01*
X10355000Y-8640600D02*
X10355000Y-8691400D01*
X10329600Y-8666000D02*
X10380400Y-8666000D01*
X10355000Y-8894600D02*
X10355000Y-8945400D01*
X10329600Y-8920000D02*
X10380400Y-8920000D01*
X10355000Y-10078600D02*
X10355000Y-10129400D01*
X10329600Y-10104000D02*
X10380400Y-10104000D01*
X10355000Y-10332600D02*
X10355000Y-10383400D01*
X10329600Y-10358000D02*
X10380400Y-10358000D01*
X10355000Y-10586600D02*
X10355000Y-10637400D01*
X10329600Y-10612000D02*
X10380400Y-10612000D01*
X10355000Y-10840600D02*
X10355000Y-10891400D01*
X10329600Y-10866000D02*
X10380400Y-10866000D01*
X10355000Y-11094600D02*
X10355000Y-11145400D01*
X10329600Y-11120000D02*
X10380400Y-11120000D01*
X10355000Y-11348600D02*
X10355000Y-11399400D01*
X10329600Y-11374000D02*
X10380400Y-11374000D01*
X11515000Y-12324600D02*
X11515000Y-12375400D01*
X11489600Y-12350000D02*
X11540400Y-12350000D01*
X11515000Y-12578600D02*
X11515000Y-12629400D01*
X11489600Y-12604000D02*
X11540400Y-12604000D01*
X11515000Y-12832600D02*
X11515000Y-12883400D01*
X11489600Y-12858000D02*
X11540400Y-12858000D01*
X11515000Y-13086600D02*
X11515000Y-13137400D01*
X11489600Y-13112000D02*
X11540400Y-13112000D01*
X11515000Y-13340600D02*
X11515000Y-13391400D01*
X11489600Y-13366000D02*
X11540400Y-13366000D01*
X11515000Y-13594600D02*
X11515000Y-13645400D01*
X11489600Y-13620000D02*
X11540400Y-13620000D01*
X11545000Y-5334600D02*
X11545000Y-5385400D01*
X11519600Y-5360000D02*
X11570400Y-5360000D01*
X11545000Y-5588600D02*
X11545000Y-5639400D01*
X11519600Y-5614000D02*
X11570400Y-5614000D01*
X11545000Y-5842600D02*
X11545000Y-5893400D01*
X11519600Y-5868000D02*
X11570400Y-5868000D01*
X11545000Y-6096600D02*
X11545000Y-6147400D01*
X11519600Y-6122000D02*
X11570400Y-6122000D01*
X11545000Y-6350600D02*
X11545000Y-6401400D01*
X11519600Y-6376000D02*
X11570400Y-6376000D01*
X11545000Y-6604600D02*
X11545000Y-6655400D01*
X11519600Y-6630000D02*
X11570400Y-6630000D01*
X11769000Y-12324600D02*
X11769000Y-12375400D01*
X11743600Y-12350000D02*
X11794400Y-12350000D01*
X11769000Y-12578600D02*
X11769000Y-12629400D01*
X11743600Y-12604000D02*
X11794400Y-12604000D01*
X11769000Y-12832600D02*
X11769000Y-12883400D01*
X11743600Y-12858000D02*
X11794400Y-12858000D01*
X11769000Y-13086600D02*
X11769000Y-13137400D01*
X11743600Y-13112000D02*
X11794400Y-13112000D01*
X11769000Y-13340600D02*
X11769000Y-13391400D01*
X11743600Y-13366000D02*
X11794400Y-13366000D01*
X11769000Y-13594600D02*
X11769000Y-13645400D01*
X11743600Y-13620000D02*
X11794400Y-13620000D01*
X11799000Y-5334600D02*
X11799000Y-5385400D01*
X11773600Y-5360000D02*
X11824400Y-5360000D01*
X11799000Y-5588600D02*
X11799000Y-5639400D01*
X11773600Y-5614000D02*
X11824400Y-5614000D01*
X11799000Y-5842600D02*
X11799000Y-5893400D01*
X11773600Y-5868000D02*
X11824400Y-5868000D01*
X11799000Y-6096600D02*
X11799000Y-6147400D01*
X11773600Y-6122000D02*
X11824400Y-6122000D01*
X11799000Y-6350600D02*
X11799000Y-6401400D01*
X11773600Y-6376000D02*
X11824400Y-6376000D01*
X11799000Y-6604600D02*
X11799000Y-6655400D01*
X11773600Y-6630000D02*
X11824400Y-6630000D01*
X12023000Y-12324600D02*
X12023000Y-12375400D01*
X11997600Y-12350000D02*
X12048400Y-12350000D01*
X12023000Y-12578600D02*
X12023000Y-12629400D01*
X11997600Y-12604000D02*
X12048400Y-12604000D01*
X12023000Y-12832600D02*
X12023000Y-12883400D01*
X11997600Y-12858000D02*
X12048400Y-12858000D01*
X12023000Y-13086600D02*
X12023000Y-13137400D01*
X11997600Y-13112000D02*
X12048400Y-13112000D01*
X12023000Y-13340600D02*
X12023000Y-13391400D01*
X11997600Y-13366000D02*
X12048400Y-13366000D01*
X12023000Y-13594600D02*
X12023000Y-13645400D01*
X11997600Y-13620000D02*
X12048400Y-13620000D01*
X12053000Y-5334600D02*
X12053000Y-5385400D01*
X12027600Y-5360000D02*
X12078400Y-5360000D01*
X12053000Y-5588600D02*
X12053000Y-5639400D01*
X12027600Y-5614000D02*
X12078400Y-5614000D01*
X12053000Y-5842600D02*
X12053000Y-5893400D01*
X12027600Y-5868000D02*
X12078400Y-5868000D01*
X12053000Y-6096600D02*
X12053000Y-6147400D01*
X12027600Y-6122000D02*
X12078400Y-6122000D01*
X12053000Y-6350600D02*
X12053000Y-6401400D01*
X12027600Y-6376000D02*
X12078400Y-6376000D01*
X12053000Y-6604600D02*
X12053000Y-6655400D01*
X12027600Y-6630000D02*
X12078400Y-6630000D01*
X12277000Y-12324600D02*
X12277000Y-12375400D01*
X12251600Y-12350000D02*
X12302400Y-12350000D01*
X12277000Y-12578600D02*
X12277000Y-12629400D01*
X12251600Y-12604000D02*
X12302400Y-12604000D01*
X12277000Y-12832600D02*
X12277000Y-12883400D01*
X12251600Y-12858000D02*
X12302400Y-12858000D01*
X12277000Y-13086600D02*
X12277000Y-13137400D01*
X12251600Y-13112000D02*
X12302400Y-13112000D01*
X12277000Y-13340600D02*
X12277000Y-13391400D01*
X12251600Y-13366000D02*
X12302400Y-13366000D01*
X12277000Y-13594600D02*
X12277000Y-13645400D01*
X12251600Y-13620000D02*
X12302400Y-13620000D01*
X12307000Y-5334600D02*
X12307000Y-5385400D01*
X12281600Y-5360000D02*
X12332400Y-5360000D01*
X12307000Y-5588600D02*
X12307000Y-5639400D01*
X12281600Y-5614000D02*
X12332400Y-5614000D01*
X12307000Y-5842600D02*
X12307000Y-5893400D01*
X12281600Y-5868000D02*
X12332400Y-5868000D01*
X12307000Y-6096600D02*
X12307000Y-6147400D01*
X12281600Y-6122000D02*
X12332400Y-6122000D01*
X12307000Y-6350600D02*
X12307000Y-6401400D01*
X12281600Y-6376000D02*
X12332400Y-6376000D01*
X12307000Y-6604600D02*
X12307000Y-6655400D01*
X12281600Y-6630000D02*
X12332400Y-6630000D01*
X12531000Y-12324600D02*
X12531000Y-12375400D01*
X12505600Y-12350000D02*
X12556400Y-12350000D01*
X12531000Y-12578600D02*
X12531000Y-12629400D01*
X12505600Y-12604000D02*
X12556400Y-12604000D01*
X12531000Y-12832600D02*
X12531000Y-12883400D01*
X12505600Y-12858000D02*
X12556400Y-12858000D01*
X12531000Y-13086600D02*
X12531000Y-13137400D01*
X12505600Y-13112000D02*
X12556400Y-13112000D01*
X12531000Y-13340600D02*
X12531000Y-13391400D01*
X12505600Y-13366000D02*
X12556400Y-13366000D01*
X12531000Y-13594600D02*
X12531000Y-13645400D01*
X12505600Y-13620000D02*
X12556400Y-13620000D01*
X12561000Y-5334600D02*
X12561000Y-5385400D01*
X12535600Y-5360000D02*
X12586400Y-5360000D01*
X12561000Y-5588600D02*
X12561000Y-5639400D01*
X12535600Y-5614000D02*
X12586400Y-5614000D01*
X12561000Y-5842600D02*
X12561000Y-5893400D01*
X12535600Y-5868000D02*
X12586400Y-5868000D01*
X12561000Y-6096600D02*
X12561000Y-6147400D01*
X12535600Y-6122000D02*
X12586400Y-6122000D01*
X12561000Y-6350600D02*
X12561000Y-6401400D01*
X12535600Y-6376000D02*
X12586400Y-6376000D01*
X12561000Y-6604600D02*
X12561000Y-6655400D01*
X12535600Y-6630000D02*
X12586400Y-6630000D01*
X12785000Y-12324600D02*
X12785000Y-12375400D01*
X12759600Y-12350000D02*
X12810400Y-12350000D01*
X12785000Y-12578600D02*
X12785000Y-12629400D01*
X12759600Y-12604000D02*
X12810400Y-12604000D01*
X12785000Y-12832600D02*
X12785000Y-12883400D01*
X12759600Y-12858000D02*
X12810400Y-12858000D01*
X12785000Y-13086600D02*
X12785000Y-13137400D01*
X12759600Y-13112000D02*
X12810400Y-13112000D01*
X12785000Y-13340600D02*
X12785000Y-13391400D01*
X12759600Y-13366000D02*
X12810400Y-13366000D01*
X12785000Y-13594600D02*
X12785000Y-13645400D01*
X12759600Y-13620000D02*
X12810400Y-13620000D01*
X12815000Y-5334600D02*
X12815000Y-5385400D01*
X12789600Y-5360000D02*
X12840400Y-5360000D01*
X12815000Y-5588600D02*
X12815000Y-5639400D01*
X12789600Y-5614000D02*
X12840400Y-5614000D01*
X12815000Y-5842600D02*
X12815000Y-5893400D01*
X12789600Y-5868000D02*
X12840400Y-5868000D01*
X12815000Y-6096600D02*
X12815000Y-6147400D01*
X12789600Y-6122000D02*
X12840400Y-6122000D01*
X12815000Y-6350600D02*
X12815000Y-6401400D01*
X12789600Y-6376000D02*
X12840400Y-6376000D01*
X12815000Y-6604600D02*
X12815000Y-6655400D01*
X12789600Y-6630000D02*
X12840400Y-6630000D01*
X13755000Y-5334600D02*
X13755000Y-5385400D01*
X13729600Y-5360000D02*
X13780400Y-5360000D01*
X13755000Y-5588600D02*
X13755000Y-5639400D01*
X13729600Y-5614000D02*
X13780400Y-5614000D01*
X13755000Y-5842600D02*
X13755000Y-5893400D01*
X13729600Y-5868000D02*
X13780400Y-5868000D01*
X13755000Y-6096600D02*
X13755000Y-6147400D01*
X13729600Y-6122000D02*
X13780400Y-6122000D01*
X13755000Y-6350600D02*
X13755000Y-6401400D01*
X13729600Y-6376000D02*
X13780400Y-6376000D01*
X13755000Y-6604600D02*
X13755000Y-6655400D01*
X13729600Y-6630000D02*
X13780400Y-6630000D01*
X13785000Y-12324600D02*
X13785000Y-12375400D01*
X13759600Y-12350000D02*
X13810400Y-12350000D01*
X13785000Y-12578600D02*
X13785000Y-12629400D01*
X13759600Y-12604000D02*
X13810400Y-12604000D01*
X13785000Y-12832600D02*
X13785000Y-12883400D01*
X13759600Y-12858000D02*
X13810400Y-12858000D01*
X13785000Y-13086600D02*
X13785000Y-13137400D01*
X13759600Y-13112000D02*
X13810400Y-13112000D01*
X13785000Y-13340600D02*
X13785000Y-13391400D01*
X13759600Y-13366000D02*
X13810400Y-13366000D01*
X13785000Y-13594600D02*
X13785000Y-13645400D01*
X13759600Y-13620000D02*
X13810400Y-13620000D01*
X14009000Y-5334600D02*
X14009000Y-5385400D01*
X13983600Y-5360000D02*
X14034400Y-5360000D01*
X14009000Y-5588600D02*
X14009000Y-5639400D01*
X13983600Y-5614000D02*
X14034400Y-5614000D01*
X14009000Y-5842600D02*
X14009000Y-5893400D01*
X13983600Y-5868000D02*
X14034400Y-5868000D01*
X14009000Y-6096600D02*
X14009000Y-6147400D01*
X13983600Y-6122000D02*
X14034400Y-6122000D01*
X14009000Y-6350600D02*
X14009000Y-6401400D01*
X13983600Y-6376000D02*
X14034400Y-6376000D01*
X14009000Y-6604600D02*
X14009000Y-6655400D01*
X13983600Y-6630000D02*
X14034400Y-6630000D01*
X14039000Y-12324600D02*
X14039000Y-12375400D01*
X14013600Y-12350000D02*
X14064400Y-12350000D01*
X14039000Y-12578600D02*
X14039000Y-12629400D01*
X14013600Y-12604000D02*
X14064400Y-12604000D01*
X14039000Y-12832600D02*
X14039000Y-12883400D01*
X14013600Y-12858000D02*
X14064400Y-12858000D01*
X14039000Y-13086600D02*
X14039000Y-13137400D01*
X14013600Y-13112000D02*
X14064400Y-13112000D01*
X14039000Y-13340600D02*
X14039000Y-13391400D01*
X14013600Y-13366000D02*
X14064400Y-13366000D01*
X14039000Y-13594600D02*
X14039000Y-13645400D01*
X14013600Y-13620000D02*
X14064400Y-13620000D01*
X14263000Y-5334600D02*
X14263000Y-5385400D01*
X14237600Y-5360000D02*
X14288400Y-5360000D01*
X14263000Y-5588600D02*
X14263000Y-5639400D01*
X14237600Y-5614000D02*
X14288400Y-5614000D01*
X14263000Y-5842600D02*
X14263000Y-5893400D01*
X14237600Y-5868000D02*
X14288400Y-5868000D01*
X14263000Y-6096600D02*
X14263000Y-6147400D01*
X14237600Y-6122000D02*
X14288400Y-6122000D01*
X14263000Y-6350600D02*
X14263000Y-6401400D01*
X14237600Y-6376000D02*
X14288400Y-6376000D01*
X14263000Y-6604600D02*
X14263000Y-6655400D01*
X14237600Y-6630000D02*
X14288400Y-6630000D01*
X14293000Y-12324600D02*
X14293000Y-12375400D01*
X14267600Y-12350000D02*
X14318400Y-12350000D01*
X14293000Y-12578600D02*
X14293000Y-12629400D01*
X14267600Y-12604000D02*
X14318400Y-12604000D01*
X14293000Y-12832600D02*
X14293000Y-12883400D01*
X14267600Y-12858000D02*
X14318400Y-12858000D01*
X14293000Y-13086600D02*
X14293000Y-13137400D01*
X14267600Y-13112000D02*
X14318400Y-13112000D01*
X14293000Y-13340600D02*
X14293000Y-13391400D01*
X14267600Y-13366000D02*
X14318400Y-13366000D01*
X14293000Y-13594600D02*
X14293000Y-13645400D01*
X14267600Y-13620000D02*
X14318400Y-13620000D01*
X14517000Y-5334600D02*
X14517000Y-5385400D01*
X14491600Y-5360000D02*
X14542400Y-5360000D01*
X14517000Y-5588600D02*
X14517000Y-5639400D01*
X14491600Y-5614000D02*
X14542400Y-5614000D01*
X14517000Y-5842600D02*
X14517000Y-5893400D01*
X14491600Y-5868000D02*
X14542400Y-5868000D01*
X14517000Y-6096600D02*
X14517000Y-6147400D01*
X14491600Y-6122000D02*
X14542400Y-6122000D01*
X14517000Y-6350600D02*
X14517000Y-6401400D01*
X14491600Y-6376000D02*
X14542400Y-6376000D01*
X14517000Y-6604600D02*
X14517000Y-6655400D01*
X14491600Y-6630000D02*
X14542400Y-6630000D01*
X14547000Y-12324600D02*
X14547000Y-12375400D01*
X14521600Y-12350000D02*
X14572400Y-12350000D01*
X14547000Y-12578600D02*
X14547000Y-12629400D01*
X14521600Y-12604000D02*
X14572400Y-12604000D01*
X14547000Y-12832600D02*
X14547000Y-12883400D01*
X14521600Y-12858000D02*
X14572400Y-12858000D01*
X14547000Y-13086600D02*
X14547000Y-13137400D01*
X14521600Y-13112000D02*
X14572400Y-13112000D01*
X14547000Y-13340600D02*
X14547000Y-13391400D01*
X14521600Y-13366000D02*
X14572400Y-13366000D01*
X14547000Y-13594600D02*
X14547000Y-13645400D01*
X14521600Y-13620000D02*
X14572400Y-13620000D01*
X14771000Y-5334600D02*
X14771000Y-5385400D01*
X14745600Y-5360000D02*
X14796400Y-5360000D01*
X14771000Y-5588600D02*
X14771000Y-5639400D01*
X14745600Y-5614000D02*
X14796400Y-5614000D01*
X14771000Y-5842600D02*
X14771000Y-5893400D01*
X14745600Y-5868000D02*
X14796400Y-5868000D01*
X14771000Y-6096600D02*
X14771000Y-6147400D01*
X14745600Y-6122000D02*
X14796400Y-6122000D01*
X14771000Y-6350600D02*
X14771000Y-6401400D01*
X14745600Y-6376000D02*
X14796400Y-6376000D01*
X14771000Y-6604600D02*
X14771000Y-6655400D01*
X14745600Y-6630000D02*
X14796400Y-6630000D01*
X14801000Y-12324600D02*
X14801000Y-12375400D01*
X14775600Y-12350000D02*
X14826400Y-12350000D01*
X14801000Y-12578600D02*
X14801000Y-12629400D01*
X14775600Y-12604000D02*
X14826400Y-12604000D01*
X14801000Y-12832600D02*
X14801000Y-12883400D01*
X14775600Y-12858000D02*
X14826400Y-12858000D01*
X14801000Y-13086600D02*
X14801000Y-13137400D01*
X14775600Y-13112000D02*
X14826400Y-13112000D01*
X14801000Y-13340600D02*
X14801000Y-13391400D01*
X14775600Y-13366000D02*
X14826400Y-13366000D01*
X14801000Y-13594600D02*
X14801000Y-13645400D01*
X14775600Y-13620000D02*
X14826400Y-13620000D01*
X15025000Y-5334600D02*
X15025000Y-5385400D01*
X14999600Y-5360000D02*
X15050400Y-5360000D01*
X15025000Y-5588600D02*
X15025000Y-5639400D01*
X14999600Y-5614000D02*
X15050400Y-5614000D01*
X15025000Y-5842600D02*
X15025000Y-5893400D01*
X14999600Y-5868000D02*
X15050400Y-5868000D01*
X15025000Y-6096600D02*
X15025000Y-6147400D01*
X14999600Y-6122000D02*
X15050400Y-6122000D01*
X15025000Y-6350600D02*
X15025000Y-6401400D01*
X14999600Y-6376000D02*
X15050400Y-6376000D01*
X15025000Y-6604600D02*
X15025000Y-6655400D01*
X14999600Y-6630000D02*
X15050400Y-6630000D01*
X15055000Y-12324600D02*
X15055000Y-12375400D01*
X15029600Y-12350000D02*
X15080400Y-12350000D01*
X15055000Y-12578600D02*
X15055000Y-12629400D01*
X15029600Y-12604000D02*
X15080400Y-12604000D01*
X15055000Y-12832600D02*
X15055000Y-12883400D01*
X15029600Y-12858000D02*
X15080400Y-12858000D01*
X15055000Y-13086600D02*
X15055000Y-13137400D01*
X15029600Y-13112000D02*
X15080400Y-13112000D01*
X15055000Y-13340600D02*
X15055000Y-13391400D01*
X15029600Y-13366000D02*
X15080400Y-13366000D01*
X15055000Y-13594600D02*
X15055000Y-13645400D01*
X15029600Y-13620000D02*
X15080400Y-13620000D01*
X16285000Y-5334600D02*
X16285000Y-5385400D01*
X16259600Y-5360000D02*
X16310400Y-5360000D01*
X16285000Y-5588600D02*
X16285000Y-5639400D01*
X16259600Y-5614000D02*
X16310400Y-5614000D01*
X16285000Y-5842600D02*
X16285000Y-5893400D01*
X16259600Y-5868000D02*
X16310400Y-5868000D01*
X16285000Y-6096600D02*
X16285000Y-6147400D01*
X16259600Y-6122000D02*
X16310400Y-6122000D01*
X16285000Y-6350600D02*
X16285000Y-6401400D01*
X16259600Y-6376000D02*
X16310400Y-6376000D01*
X16285000Y-6604600D02*
X16285000Y-6655400D01*
X16259600Y-6630000D02*
X16310400Y-6630000D01*
X16285000Y-12324600D02*
X16285000Y-12375400D01*
X16259600Y-12350000D02*
X16310400Y-12350000D01*
X16285000Y-12578600D02*
X16285000Y-12629400D01*
X16259600Y-12604000D02*
X16310400Y-12604000D01*
X16285000Y-12832600D02*
X16285000Y-12883400D01*
X16259600Y-12858000D02*
X16310400Y-12858000D01*
X16285000Y-13086600D02*
X16285000Y-13137400D01*
X16259600Y-13112000D02*
X16310400Y-13112000D01*
X16285000Y-13340600D02*
X16285000Y-13391400D01*
X16259600Y-13366000D02*
X16310400Y-13366000D01*
X16285000Y-13594600D02*
X16285000Y-13645400D01*
X16259600Y-13620000D02*
X16310400Y-13620000D01*
X16539000Y-5334600D02*
X16539000Y-5385400D01*
X16513600Y-5360000D02*
X16564400Y-5360000D01*
X16539000Y-5588600D02*
X16539000Y-5639400D01*
X16513600Y-5614000D02*
X16564400Y-5614000D01*
X16539000Y-5842600D02*
X16539000Y-5893400D01*
X16513600Y-5868000D02*
X16564400Y-5868000D01*
X16539000Y-6096600D02*
X16539000Y-6147400D01*
X16513600Y-6122000D02*
X16564400Y-6122000D01*
X16539000Y-6350600D02*
X16539000Y-6401400D01*
X16513600Y-6376000D02*
X16564400Y-6376000D01*
X16539000Y-6604600D02*
X16539000Y-6655400D01*
X16513600Y-6630000D02*
X16564400Y-6630000D01*
X16539000Y-12324600D02*
X16539000Y-12375400D01*
X16513600Y-12350000D02*
X16564400Y-12350000D01*
X16539000Y-12578600D02*
X16539000Y-12629400D01*
X16513600Y-12604000D02*
X16564400Y-12604000D01*
X16539000Y-12832600D02*
X16539000Y-12883400D01*
X16513600Y-12858000D02*
X16564400Y-12858000D01*
X16539000Y-13086600D02*
X16539000Y-13137400D01*
X16513600Y-13112000D02*
X16564400Y-13112000D01*
X16539000Y-13340600D02*
X16539000Y-13391400D01*
X16513600Y-13366000D02*
X16564400Y-13366000D01*
X16539000Y-13594600D02*
X16539000Y-13645400D01*
X16513600Y-13620000D02*
X16564400Y-13620000D01*
X16793000Y-5334600D02*
X16793000Y-5385400D01*
X16767600Y-5360000D02*
X16818400Y-5360000D01*
X16793000Y-5588600D02*
X16793000Y-5639400D01*
X16767600Y-5614000D02*
X16818400Y-5614000D01*
X16793000Y-5842600D02*
X16793000Y-5893400D01*
X16767600Y-5868000D02*
X16818400Y-5868000D01*
X16793000Y-6096600D02*
X16793000Y-6147400D01*
X16767600Y-6122000D02*
X16818400Y-6122000D01*
X16793000Y-6350600D02*
X16793000Y-6401400D01*
X16767600Y-6376000D02*
X16818400Y-6376000D01*
X16793000Y-6604600D02*
X16793000Y-6655400D01*
X16767600Y-6630000D02*
X16818400Y-6630000D01*
X16793000Y-12324600D02*
X16793000Y-12375400D01*
X16767600Y-12350000D02*
X16818400Y-12350000D01*
X16793000Y-12578600D02*
X16793000Y-12629400D01*
X16767600Y-12604000D02*
X16818400Y-12604000D01*
X16793000Y-12832600D02*
X16793000Y-12883400D01*
X16767600Y-12858000D02*
X16818400Y-12858000D01*
X16793000Y-13086600D02*
X16793000Y-13137400D01*
X16767600Y-13112000D02*
X16818400Y-13112000D01*
X16793000Y-13340600D02*
X16793000Y-13391400D01*
X16767600Y-13366000D02*
X16818400Y-13366000D01*
X16793000Y-13594600D02*
X16793000Y-13645400D01*
X16767600Y-13620000D02*
X16818400Y-13620000D01*
X17047000Y-5334600D02*
X17047000Y-5385400D01*
X17021600Y-5360000D02*
X17072400Y-5360000D01*
X17047000Y-5588600D02*
X17047000Y-5639400D01*
X17021600Y-5614000D02*
X17072400Y-5614000D01*
X17047000Y-5842600D02*
X17047000Y-5893400D01*
X17021600Y-5868000D02*
X17072400Y-5868000D01*
X17047000Y-6096600D02*
X17047000Y-6147400D01*
X17021600Y-6122000D02*
X17072400Y-6122000D01*
X17047000Y-6350600D02*
X17047000Y-6401400D01*
X17021600Y-6376000D02*
X17072400Y-6376000D01*
X17047000Y-6604600D02*
X17047000Y-6655400D01*
X17021600Y-6630000D02*
X17072400Y-6630000D01*
X17047000Y-12324600D02*
X17047000Y-12375400D01*
X17021600Y-12350000D02*
X17072400Y-12350000D01*
X17047000Y-12578600D02*
X17047000Y-12629400D01*
X17021600Y-12604000D02*
X17072400Y-12604000D01*
X17047000Y-12832600D02*
X17047000Y-12883400D01*
X17021600Y-12858000D02*
X17072400Y-12858000D01*
X17047000Y-13086600D02*
X17047000Y-13137400D01*
X17021600Y-13112000D02*
X17072400Y-13112000D01*
X17047000Y-13340600D02*
X17047000Y-13391400D01*
X17021600Y-13366000D02*
X17072400Y-13366000D01*
X17047000Y-13594600D02*
X17047000Y-13645400D01*
X17021600Y-13620000D02*
X17072400Y-13620000D01*
X17301000Y-5334600D02*
X17301000Y-5385400D01*
X17275600Y-5360000D02*
X17326400Y-5360000D01*
X17301000Y-5588600D02*
X17301000Y-5639400D01*
X17275600Y-5614000D02*
X17326400Y-5614000D01*
X17301000Y-5842600D02*
X17301000Y-5893400D01*
X17275600Y-5868000D02*
X17326400Y-5868000D01*
X17301000Y-6096600D02*
X17301000Y-6147400D01*
X17275600Y-6122000D02*
X17326400Y-6122000D01*
X17301000Y-6350600D02*
X17301000Y-6401400D01*
X17275600Y-6376000D02*
X17326400Y-6376000D01*
X17301000Y-6604600D02*
X17301000Y-6655400D01*
X17275600Y-6630000D02*
X17326400Y-6630000D01*
X17301000Y-12324600D02*
X17301000Y-12375400D01*
X17275600Y-12350000D02*
X17326400Y-12350000D01*
X17301000Y-12578600D02*
X17301000Y-12629400D01*
X17275600Y-12604000D02*
X17326400Y-12604000D01*
X17301000Y-12832600D02*
X17301000Y-12883400D01*
X17275600Y-12858000D02*
X17326400Y-12858000D01*
X17301000Y-13086600D02*
X17301000Y-13137400D01*
X17275600Y-13112000D02*
X17326400Y-13112000D01*
X17301000Y-13340600D02*
X17301000Y-13391400D01*
X17275600Y-13366000D02*
X17326400Y-13366000D01*
X17301000Y-13594600D02*
X17301000Y-13645400D01*
X17275600Y-13620000D02*
X17326400Y-13620000D01*
X17555000Y-5334600D02*
X17555000Y-5385400D01*
X17529600Y-5360000D02*
X17580400Y-5360000D01*
X17555000Y-5588600D02*
X17555000Y-5639400D01*
X17529600Y-5614000D02*
X17580400Y-5614000D01*
X17555000Y-5842600D02*
X17555000Y-5893400D01*
X17529600Y-5868000D02*
X17580400Y-5868000D01*
X17555000Y-6096600D02*
X17555000Y-6147400D01*
X17529600Y-6122000D02*
X17580400Y-6122000D01*
X17555000Y-6350600D02*
X17555000Y-6401400D01*
X17529600Y-6376000D02*
X17580400Y-6376000D01*
X17555000Y-6604600D02*
X17555000Y-6655400D01*
X17529600Y-6630000D02*
X17580400Y-6630000D01*
X17555000Y-12324600D02*
X17555000Y-12375400D01*
X17529600Y-12350000D02*
X17580400Y-12350000D01*
X17555000Y-12578600D02*
X17555000Y-12629400D01*
X17529600Y-12604000D02*
X17580400Y-12604000D01*
X17555000Y-12832600D02*
X17555000Y-12883400D01*
X17529600Y-12858000D02*
X17580400Y-12858000D01*
X17555000Y-13086600D02*
X17555000Y-13137400D01*
X17529600Y-13112000D02*
X17580400Y-13112000D01*
X17555000Y-13340600D02*
X17555000Y-13391400D01*
X17529600Y-13366000D02*
X17580400Y-13366000D01*
X17555000Y-13594600D02*
X17555000Y-13645400D01*
X17529600Y-13620000D02*
X17580400Y-13620000D01*
X18585000Y-12324600D02*
X18585000Y-12375400D01*
X18559600Y-12350000D02*
X18610400Y-12350000D01*
X18585000Y-12578600D02*
X18585000Y-12629400D01*
X18559600Y-12604000D02*
X18610400Y-12604000D01*
X18585000Y-12832600D02*
X18585000Y-12883400D01*
X18559600Y-12858000D02*
X18610400Y-12858000D01*
X18585000Y-13086600D02*
X18585000Y-13137400D01*
X18559600Y-13112000D02*
X18610400Y-13112000D01*
X18585000Y-13340600D02*
X18585000Y-13391400D01*
X18559600Y-13366000D02*
X18610400Y-13366000D01*
X18585000Y-13594600D02*
X18585000Y-13645400D01*
X18559600Y-13620000D02*
X18610400Y-13620000D01*
X18595000Y-5334600D02*
X18595000Y-5385400D01*
X18569600Y-5360000D02*
X18620400Y-5360000D01*
X18595000Y-5588600D02*
X18595000Y-5639400D01*
X18569600Y-5614000D02*
X18620400Y-5614000D01*
X18595000Y-5842600D02*
X18595000Y-5893400D01*
X18569600Y-5868000D02*
X18620400Y-5868000D01*
X18595000Y-6096600D02*
X18595000Y-6147400D01*
X18569600Y-6122000D02*
X18620400Y-6122000D01*
X18595000Y-6350600D02*
X18595000Y-6401400D01*
X18569600Y-6376000D02*
X18620400Y-6376000D01*
X18595000Y-6604600D02*
X18595000Y-6655400D01*
X18569600Y-6630000D02*
X18620400Y-6630000D01*
X18839000Y-12324600D02*
X18839000Y-12375400D01*
X18813600Y-12350000D02*
X18864400Y-12350000D01*
X18839000Y-12578600D02*
X18839000Y-12629400D01*
X18813600Y-12604000D02*
X18864400Y-12604000D01*
X18839000Y-12832600D02*
X18839000Y-12883400D01*
X18813600Y-12858000D02*
X18864400Y-12858000D01*
X18839000Y-13086600D02*
X18839000Y-13137400D01*
X18813600Y-13112000D02*
X18864400Y-13112000D01*
X18839000Y-13340600D02*
X18839000Y-13391400D01*
X18813600Y-13366000D02*
X18864400Y-13366000D01*
X18839000Y-13594600D02*
X18839000Y-13645400D01*
X18813600Y-13620000D02*
X18864400Y-13620000D01*
X18849000Y-5334600D02*
X18849000Y-5385400D01*
X18823600Y-5360000D02*
X18874400Y-5360000D01*
X18849000Y-5588600D02*
X18849000Y-5639400D01*
X18823600Y-5614000D02*
X18874400Y-5614000D01*
X18849000Y-5842600D02*
X18849000Y-5893400D01*
X18823600Y-5868000D02*
X18874400Y-5868000D01*
X18849000Y-6096600D02*
X18849000Y-6147400D01*
X18823600Y-6122000D02*
X18874400Y-6122000D01*
X18849000Y-6350600D02*
X18849000Y-6401400D01*
X18823600Y-6376000D02*
X18874400Y-6376000D01*
X18849000Y-6604600D02*
X18849000Y-6655400D01*
X18823600Y-6630000D02*
X18874400Y-6630000D01*
X19093000Y-12324600D02*
X19093000Y-12375400D01*
X19067600Y-12350000D02*
X19118400Y-12350000D01*
X19093000Y-12578600D02*
X19093000Y-12629400D01*
X19067600Y-12604000D02*
X19118400Y-12604000D01*
X19093000Y-12832600D02*
X19093000Y-12883400D01*
X19067600Y-12858000D02*
X19118400Y-12858000D01*
X19093000Y-13086600D02*
X19093000Y-13137400D01*
X19067600Y-13112000D02*
X19118400Y-13112000D01*
X19093000Y-13340600D02*
X19093000Y-13391400D01*
X19067600Y-13366000D02*
X19118400Y-13366000D01*
X19093000Y-13594600D02*
X19093000Y-13645400D01*
X19067600Y-13620000D02*
X19118400Y-13620000D01*
X19103000Y-5334600D02*
X19103000Y-5385400D01*
X19077600Y-5360000D02*
X19128400Y-5360000D01*
X19103000Y-5588600D02*
X19103000Y-5639400D01*
X19077600Y-5614000D02*
X19128400Y-5614000D01*
X19103000Y-5842600D02*
X19103000Y-5893400D01*
X19077600Y-5868000D02*
X19128400Y-5868000D01*
X19103000Y-6096600D02*
X19103000Y-6147400D01*
X19077600Y-6122000D02*
X19128400Y-6122000D01*
X19103000Y-6350600D02*
X19103000Y-6401400D01*
X19077600Y-6376000D02*
X19128400Y-6376000D01*
X19103000Y-6604600D02*
X19103000Y-6655400D01*
X19077600Y-6630000D02*
X19128400Y-6630000D01*
X19347000Y-12324600D02*
X19347000Y-12375400D01*
X19321600Y-12350000D02*
X19372400Y-12350000D01*
X19347000Y-12578600D02*
X19347000Y-12629400D01*
X19321600Y-12604000D02*
X19372400Y-12604000D01*
X19347000Y-12832600D02*
X19347000Y-12883400D01*
X19321600Y-12858000D02*
X19372400Y-12858000D01*
X19347000Y-13086600D02*
X19347000Y-13137400D01*
X19321600Y-13112000D02*
X19372400Y-13112000D01*
X19347000Y-13340600D02*
X19347000Y-13391400D01*
X19321600Y-13366000D02*
X19372400Y-13366000D01*
X19347000Y-13594600D02*
X19347000Y-13645400D01*
X19321600Y-13620000D02*
X19372400Y-13620000D01*
X19357000Y-5334600D02*
X19357000Y-5385400D01*
X19331600Y-5360000D02*
X19382400Y-5360000D01*
X19357000Y-5588600D02*
X19357000Y-5639400D01*
X19331600Y-5614000D02*
X19382400Y-5614000D01*
X19357000Y-5842600D02*
X19357000Y-5893400D01*
X19331600Y-5868000D02*
X19382400Y-5868000D01*
X19357000Y-6096600D02*
X19357000Y-6147400D01*
X19331600Y-6122000D02*
X19382400Y-6122000D01*
X19357000Y-6350600D02*
X19357000Y-6401400D01*
X19331600Y-6376000D02*
X19382400Y-6376000D01*
X19357000Y-6604600D02*
X19357000Y-6655400D01*
X19331600Y-6630000D02*
X19382400Y-6630000D01*
X19601000Y-12324600D02*
X19601000Y-12375400D01*
X19575600Y-12350000D02*
X19626400Y-12350000D01*
X19601000Y-12578600D02*
X19601000Y-12629400D01*
X19575600Y-12604000D02*
X19626400Y-12604000D01*
X19601000Y-12832600D02*
X19601000Y-12883400D01*
X19575600Y-12858000D02*
X19626400Y-12858000D01*
X19601000Y-13086600D02*
X19601000Y-13137400D01*
X19575600Y-13112000D02*
X19626400Y-13112000D01*
X19601000Y-13340600D02*
X19601000Y-13391400D01*
X19575600Y-13366000D02*
X19626400Y-13366000D01*
X19601000Y-13594600D02*
X19601000Y-13645400D01*
X19575600Y-13620000D02*
X19626400Y-13620000D01*
X19611000Y-5334600D02*
X19611000Y-5385400D01*
X19585600Y-5360000D02*
X19636400Y-5360000D01*
X19611000Y-5588600D02*
X19611000Y-5639400D01*
X19585600Y-5614000D02*
X19636400Y-5614000D01*
X19611000Y-5842600D02*
X19611000Y-5893400D01*
X19585600Y-5868000D02*
X19636400Y-5868000D01*
X19611000Y-6096600D02*
X19611000Y-6147400D01*
X19585600Y-6122000D02*
X19636400Y-6122000D01*
X19611000Y-6350600D02*
X19611000Y-6401400D01*
X19585600Y-6376000D02*
X19636400Y-6376000D01*
X19611000Y-6604600D02*
X19611000Y-6655400D01*
X19585600Y-6630000D02*
X19636400Y-6630000D01*
X19785000Y-7634600D02*
X19785000Y-7685400D01*
X19759600Y-7660000D02*
X19810400Y-7660000D01*
X19785000Y-7888600D02*
X19785000Y-7939400D01*
X19759600Y-7914000D02*
X19810400Y-7914000D01*
X19785000Y-8142600D02*
X19785000Y-8193400D01*
X19759600Y-8168000D02*
X19810400Y-8168000D01*
X19785000Y-8396600D02*
X19785000Y-8447400D01*
X19759600Y-8422000D02*
X19810400Y-8422000D01*
X19785000Y-8650600D02*
X19785000Y-8701400D01*
X19759600Y-8676000D02*
X19810400Y-8676000D01*
X19785000Y-8904600D02*
X19785000Y-8955400D01*
X19759600Y-8930000D02*
X19810400Y-8930000D01*
X19785000Y-10024600D02*
X19785000Y-10075400D01*
X19759600Y-10050000D02*
X19810400Y-10050000D01*
X19785000Y-10278600D02*
X19785000Y-10329400D01*
X19759600Y-10304000D02*
X19810400Y-10304000D01*
X19785000Y-10532600D02*
X19785000Y-10583400D01*
X19759600Y-10558000D02*
X19810400Y-10558000D01*
X19785000Y-10786600D02*
X19785000Y-10837400D01*
X19759600Y-10812000D02*
X19810400Y-10812000D01*
X19785000Y-11040600D02*
X19785000Y-11091400D01*
X19759600Y-11066000D02*
X19810400Y-11066000D01*
X19785000Y-11294600D02*
X19785000Y-11345400D01*
X19759600Y-11320000D02*
X19810400Y-11320000D01*
X19855000Y-12324600D02*
X19855000Y-12375400D01*
X19829600Y-12350000D02*
X19880400Y-12350000D01*
X19855000Y-12578600D02*
X19855000Y-12629400D01*
X19829600Y-12604000D02*
X19880400Y-12604000D01*
X19855000Y-12832600D02*
X19855000Y-12883400D01*
X19829600Y-12858000D02*
X19880400Y-12858000D01*
X19855000Y-13086600D02*
X19855000Y-13137400D01*
X19829600Y-13112000D02*
X19880400Y-13112000D01*
X19855000Y-13340600D02*
X19855000Y-13391400D01*
X19829600Y-13366000D02*
X19880400Y-13366000D01*
X19855000Y-13594600D02*
X19855000Y-13645400D01*
X19829600Y-13620000D02*
X19880400Y-13620000D01*
X19865000Y-5334600D02*
X19865000Y-5385400D01*
X19839600Y-5360000D02*
X19890400Y-5360000D01*
X19865000Y-5588600D02*
X19865000Y-5639400D01*
X19839600Y-5614000D02*
X19890400Y-5614000D01*
X19865000Y-5842600D02*
X19865000Y-5893400D01*
X19839600Y-5868000D02*
X19890400Y-5868000D01*
X19865000Y-6096600D02*
X19865000Y-6147400D01*
X19839600Y-6122000D02*
X19890400Y-6122000D01*
X19865000Y-6350600D02*
X19865000Y-6401400D01*
X19839600Y-6376000D02*
X19890400Y-6376000D01*
X19865000Y-6604600D02*
X19865000Y-6655400D01*
X19839600Y-6630000D02*
X19890400Y-6630000D01*
X20039000Y-7634600D02*
X20039000Y-7685400D01*
X20013600Y-7660000D02*
X20064400Y-7660000D01*
X20039000Y-7888600D02*
X20039000Y-7939400D01*
X20013600Y-7914000D02*
X20064400Y-7914000D01*
X20039000Y-8142600D02*
X20039000Y-8193400D01*
X20013600Y-8168000D02*
X20064400Y-8168000D01*
X20039000Y-8396600D02*
X20039000Y-8447400D01*
X20013600Y-8422000D02*
X20064400Y-8422000D01*
X20039000Y-8650600D02*
X20039000Y-8701400D01*
X20013600Y-8676000D02*
X20064400Y-8676000D01*
X20039000Y-8904600D02*
X20039000Y-8955400D01*
X20013600Y-8930000D02*
X20064400Y-8930000D01*
X20039000Y-10024600D02*
X20039000Y-10075400D01*
X20013600Y-10050000D02*
X20064400Y-10050000D01*
X20039000Y-10278600D02*
X20039000Y-10329400D01*
X20013600Y-10304000D02*
X20064400Y-10304000D01*
X20039000Y-10532600D02*
X20039000Y-10583400D01*
X20013600Y-10558000D02*
X20064400Y-10558000D01*
X20039000Y-10786600D02*
X20039000Y-10837400D01*
X20013600Y-10812000D02*
X20064400Y-10812000D01*
X20039000Y-11040600D02*
X20039000Y-11091400D01*
X20013600Y-11066000D02*
X20064400Y-11066000D01*
X20039000Y-11294600D02*
X20039000Y-11345400D01*
X20013600Y-11320000D02*
X20064400Y-11320000D01*
X20293000Y-7634600D02*
X20293000Y-7685400D01*
X20267600Y-7660000D02*
X20318400Y-7660000D01*
X20293000Y-7888600D02*
X20293000Y-7939400D01*
X20267600Y-7914000D02*
X20318400Y-7914000D01*
X20293000Y-8142600D02*
X20293000Y-8193400D01*
X20267600Y-8168000D02*
X20318400Y-8168000D01*
X20293000Y-8396600D02*
X20293000Y-8447400D01*
X20267600Y-8422000D02*
X20318400Y-8422000D01*
X20293000Y-8650600D02*
X20293000Y-8701400D01*
X20267600Y-8676000D02*
X20318400Y-8676000D01*
X20293000Y-8904600D02*
X20293000Y-8955400D01*
X20267600Y-8930000D02*
X20318400Y-8930000D01*
X20293000Y-10024600D02*
X20293000Y-10075400D01*
X20267600Y-10050000D02*
X20318400Y-10050000D01*
X20293000Y-10278600D02*
X20293000Y-10329400D01*
X20267600Y-10304000D02*
X20318400Y-10304000D01*
X20293000Y-10532600D02*
X20293000Y-10583400D01*
X20267600Y-10558000D02*
X20318400Y-10558000D01*
X20293000Y-10786600D02*
X20293000Y-10837400D01*
X20267600Y-10812000D02*
X20318400Y-10812000D01*
X20293000Y-11040600D02*
X20293000Y-11091400D01*
X20267600Y-11066000D02*
X20318400Y-11066000D01*
X20293000Y-11294600D02*
X20293000Y-11345400D01*
X20267600Y-11320000D02*
X20318400Y-11320000D01*
X20547000Y-7634600D02*
X20547000Y-7685400D01*
X20521600Y-7660000D02*
X20572400Y-7660000D01*
X20547000Y-7888600D02*
X20547000Y-7939400D01*
X20521600Y-7914000D02*
X20572400Y-7914000D01*
X20547000Y-8142600D02*
X20547000Y-8193400D01*
X20521600Y-8168000D02*
X20572400Y-8168000D01*
X20547000Y-8396600D02*
X20547000Y-8447400D01*
X20521600Y-8422000D02*
X20572400Y-8422000D01*
X20547000Y-8650600D02*
X20547000Y-8701400D01*
X20521600Y-8676000D02*
X20572400Y-8676000D01*
X20547000Y-8904600D02*
X20547000Y-8955400D01*
X20521600Y-8930000D02*
X20572400Y-8930000D01*
X20547000Y-10024600D02*
X20547000Y-10075400D01*
X20521600Y-10050000D02*
X20572400Y-10050000D01*
X20547000Y-10278600D02*
X20547000Y-10329400D01*
X20521600Y-10304000D02*
X20572400Y-10304000D01*
X20547000Y-10532600D02*
X20547000Y-10583400D01*
X20521600Y-10558000D02*
X20572400Y-10558000D01*
X20547000Y-10786600D02*
X20547000Y-10837400D01*
X20521600Y-10812000D02*
X20572400Y-10812000D01*
X20547000Y-11040600D02*
X20547000Y-11091400D01*
X20521600Y-11066000D02*
X20572400Y-11066000D01*
X20547000Y-11294600D02*
X20547000Y-11345400D01*
X20521600Y-11320000D02*
X20572400Y-11320000D01*
X20801000Y-7634600D02*
X20801000Y-7685400D01*
X20775600Y-7660000D02*
X20826400Y-7660000D01*
X20801000Y-7888600D02*
X20801000Y-7939400D01*
X20775600Y-7914000D02*
X20826400Y-7914000D01*
X20801000Y-8142600D02*
X20801000Y-8193400D01*
X20775600Y-8168000D02*
X20826400Y-8168000D01*
X20801000Y-8396600D02*
X20801000Y-8447400D01*
X20775600Y-8422000D02*
X20826400Y-8422000D01*
X20801000Y-8650600D02*
X20801000Y-8701400D01*
X20775600Y-8676000D02*
X20826400Y-8676000D01*
X20801000Y-8904600D02*
X20801000Y-8955400D01*
X20775600Y-8930000D02*
X20826400Y-8930000D01*
X20801000Y-10024600D02*
X20801000Y-10075400D01*
X20775600Y-10050000D02*
X20826400Y-10050000D01*
X20801000Y-10278600D02*
X20801000Y-10329400D01*
X20775600Y-10304000D02*
X20826400Y-10304000D01*
X20801000Y-10532600D02*
X20801000Y-10583400D01*
X20775600Y-10558000D02*
X20826400Y-10558000D01*
X20801000Y-10786600D02*
X20801000Y-10837400D01*
X20775600Y-10812000D02*
X20826400Y-10812000D01*
X20801000Y-11040600D02*
X20801000Y-11091400D01*
X20775600Y-11066000D02*
X20826400Y-11066000D01*
X20801000Y-11294600D02*
X20801000Y-11345400D01*
X20775600Y-11320000D02*
X20826400Y-11320000D01*
X21055000Y-7634600D02*
X21055000Y-7685400D01*
X21029600Y-7660000D02*
X21080400Y-7660000D01*
X21055000Y-7888600D02*
X21055000Y-7939400D01*
X21029600Y-7914000D02*
X21080400Y-7914000D01*
X21055000Y-8142600D02*
X21055000Y-8193400D01*
X21029600Y-8168000D02*
X21080400Y-8168000D01*
X21055000Y-8396600D02*
X21055000Y-8447400D01*
X21029600Y-8422000D02*
X21080400Y-8422000D01*
X21055000Y-8650600D02*
X21055000Y-8701400D01*
X21029600Y-8676000D02*
X21080400Y-8676000D01*
X21055000Y-8904600D02*
X21055000Y-8955400D01*
X21029600Y-8930000D02*
X21080400Y-8930000D01*
X21055000Y-10024600D02*
X21055000Y-10075400D01*
X21029600Y-10050000D02*
X21080400Y-10050000D01*
X21055000Y-10278600D02*
X21055000Y-10329400D01*
X21029600Y-10304000D02*
X21080400Y-10304000D01*
X21055000Y-10532600D02*
X21055000Y-10583400D01*
X21029600Y-10558000D02*
X21080400Y-10558000D01*
X21055000Y-10786600D02*
X21055000Y-10837400D01*
X21029600Y-10812000D02*
X21080400Y-10812000D01*
X21055000Y-11040600D02*
X21055000Y-11091400D01*
X21029600Y-11066000D02*
X21080400Y-11066000D01*
X21055000Y-11294600D02*
X21055000Y-11345400D01*
X21029600Y-11320000D02*
X21080400Y-11320000D01*
X9311517Y-12326517D02*
X9311517Y-12273483D01*
X9258483Y-12273483D01*
X9258483Y-12326517D01*
X9311517Y-12326517D01*
X9311517Y-12526517D02*
X9311517Y-12473483D01*
X9258483Y-12473483D01*
X9258483Y-12526517D01*
X9311517Y-12526517D01*
X10111517Y-5476517D02*
X10111517Y-5423483D01*
X10058483Y-5423483D01*
X10058483Y-5476517D01*
X10111517Y-5476517D01*
X10211517Y-13476517D02*
X10211517Y-13423483D01*
X10158483Y-13423483D01*
X10158483Y-13476517D01*
X10211517Y-13476517D01*
X10311517Y-5476517D02*
X10311517Y-5423483D01*
X10258483Y-5423483D01*
X10258483Y-5476517D01*
X10311517Y-5476517D01*
X10411517Y-13476517D02*
X10411517Y-13423483D01*
X10358483Y-13423483D01*
X10358483Y-13476517D01*
X10411517Y-13476517D01*
X10511517Y-5476517D02*
X10511517Y-5423483D01*
X10458483Y-5423483D01*
X10458483Y-5476517D01*
X10511517Y-5476517D01*
X10611517Y-13476517D02*
X10611517Y-13423483D01*
X10558483Y-13423483D01*
X10558483Y-13476517D01*
X10611517Y-13476517D01*
X10711517Y-5476517D02*
X10711517Y-5423483D01*
X10658483Y-5423483D01*
X10658483Y-5476517D01*
X10711517Y-5476517D01*
X10911517Y-5476517D02*
X10911517Y-5423483D01*
X10858483Y-5423483D01*
X10858483Y-5476517D01*
X10911517Y-5476517D01*
X10285000Y-6490000D02*
X10325000Y-6450000D01*
X10285000Y-6410000D01*
X10245000Y-6450000D01*
X10285000Y-6490000D01*
X10485000Y-6490000D02*
X10525000Y-6450000D01*
X10485000Y-6410000D01*
X10445000Y-6450000D01*
X10485000Y-6490000D01*
X10685000Y-6490000D02*
X10725000Y-6450000D01*
X10685000Y-6410000D01*
X10645000Y-6450000D01*
X10685000Y-6490000D01*
D13*
X16440000Y-7690000D02*
X16560000Y-7810000D01*
X16560000Y-7690000D02*
X16440000Y-7810000D01*
X16560000Y-7750000D02*
G75*
G02*
X16440000Y-7750000I-60000J0D01*
G01*
X16440000Y-7750000D02*
G75*
G02*
X16560000Y-7750000I60000J0D01*
G01*
X16440000Y-8190000D02*
X16560000Y-8310000D01*
X16560000Y-8190000D02*
X16440000Y-8310000D01*
X16560000Y-8250000D02*
G75*
G02*
X16440000Y-8250000I-60000J0D01*
G01*
X16440000Y-8250000D02*
G75*
G02*
X16560000Y-8250000I60000J0D01*
G01*
X16440000Y-9190000D02*
X16560000Y-9310000D01*
X16560000Y-9190000D02*
X16440000Y-9310000D01*
X16560000Y-9250000D02*
G75*
G02*
X16440000Y-9250000I-60000J0D01*
G01*
X16440000Y-9250000D02*
G75*
G02*
X16560000Y-9250000I60000J0D01*
G01*
X16440000Y-9690000D02*
X16560000Y-9810000D01*
X16560000Y-9690000D02*
X16440000Y-9810000D01*
X16560000Y-9750000D02*
G75*
G02*
X16440000Y-9750000I-60000J0D01*
G01*
X16440000Y-9750000D02*
G75*
G02*
X16560000Y-9750000I60000J0D01*
G01*
X16440000Y-10690000D02*
X16560000Y-10810000D01*
X16560000Y-10690000D02*
X16440000Y-10810000D01*
X16560000Y-10750000D02*
G75*
G02*
X16440000Y-10750000I-60000J0D01*
G01*
X16440000Y-10750000D02*
G75*
G02*
X16560000Y-10750000I60000J0D01*
G01*
X16440000Y-11190000D02*
X16560000Y-11310000D01*
X16560000Y-11190000D02*
X16440000Y-11310000D01*
X16560000Y-11250000D02*
G75*
G02*
X16440000Y-11250000I-60000J0D01*
G01*
X16440000Y-11250000D02*
G75*
G02*
X16560000Y-11250000I60000J0D01*
G01*
D14*
X14720000Y-7685000D02*
X14850000Y-7815000D01*
X14850000Y-7685000D02*
X14720000Y-7815000D01*
X14785000Y-7685000D02*
X14785000Y-7815000D01*
X14720000Y-7750000D02*
X14850000Y-7750000D01*
X14720000Y-8185000D02*
X14850000Y-8315000D01*
X14850000Y-8185000D02*
X14720000Y-8315000D01*
X14785000Y-8185000D02*
X14785000Y-8315000D01*
X14720000Y-8250000D02*
X14850000Y-8250000D01*
X14720000Y-9185000D02*
X14850000Y-9315000D01*
X14850000Y-9185000D02*
X14720000Y-9315000D01*
X14785000Y-9185000D02*
X14785000Y-9315000D01*
X14720000Y-9250000D02*
X14850000Y-9250000D01*
X14720000Y-9685000D02*
X14850000Y-9815000D01*
X14850000Y-9685000D02*
X14720000Y-9815000D01*
X14785000Y-9685000D02*
X14785000Y-9815000D01*
X14720000Y-9750000D02*
X14850000Y-9750000D01*
X14720000Y-10685000D02*
X14850000Y-10815000D01*
X14850000Y-10685000D02*
X14720000Y-10815000D01*
X14785000Y-10685000D02*
X14785000Y-10815000D01*
X14720000Y-10750000D02*
X14850000Y-10750000D01*
X14720000Y-11185000D02*
X14850000Y-11315000D01*
X14850000Y-11185000D02*
X14720000Y-11315000D01*
X14785000Y-11185000D02*
X14785000Y-11315000D01*
X14720000Y-11250000D02*
X14850000Y-11250000D01*
D15*
X10000000Y-6375000D02*
X10150000Y-6525000D01*
X10150000Y-6375000D02*
X10000000Y-6525000D01*
X10128034Y-6503033D02*
X10128034Y-6396966D01*
X10021967Y-6396966D01*
X10021967Y-6503033D01*
X10128034Y-6503033D01*
X10820000Y-6375000D02*
X10970000Y-6525000D01*
X10970000Y-6375000D02*
X10820000Y-6525000D01*
X10948034Y-6503033D02*
X10948034Y-6396966D01*
X10841967Y-6396966D01*
X10841967Y-6503033D01*
X10948034Y-6503033D01*
D16*
X9260000Y-5575000D02*
X9610000Y-5925000D01*
X9610000Y-5575000D02*
X9260000Y-5925000D01*
X9435000Y-5925000D02*
X9610000Y-5750000D01*
X9435000Y-5575000D01*
X9260000Y-5750000D01*
X9435000Y-5925000D01*
X9260000Y-13075000D02*
X9610000Y-13425000D01*
X9610000Y-13075000D02*
X9260000Y-13425000D01*
X9435000Y-13425000D02*
X9610000Y-13250000D01*
X9435000Y-13075000D01*
X9260000Y-13250000D01*
X9435000Y-13425000D01*
X20510000Y-5575000D02*
X20860000Y-5925000D01*
X20860000Y-5575000D02*
X20510000Y-5925000D01*
X20685000Y-5925000D02*
X20860000Y-5750000D01*
X20685000Y-5575000D01*
X20510000Y-5750000D01*
X20685000Y-5925000D01*
X20510000Y-13089384D02*
X20860000Y-13439384D01*
X20860000Y-13089384D02*
X20510000Y-13439384D01*
X20685000Y-13439384D02*
X20860000Y-13264384D01*
X20685000Y-13089384D01*
X20510000Y-13264384D01*
X20685000Y-13439384D01*
D11*
X8943277Y-14313984D02*
X8943277Y-14113984D01*
X8943277Y-14113984D02*
X8990896Y-14113984D01*
X8990896Y-14113984D02*
X9019467Y-14123508D01*
X9019467Y-14123508D02*
X9038515Y-14142555D01*
X9038515Y-14142555D02*
X9048039Y-14161603D01*
X9048039Y-14161603D02*
X9057563Y-14199698D01*
X9057563Y-14199698D02*
X9057563Y-14228269D01*
X9057563Y-14228269D02*
X9048039Y-14266365D01*
X9048039Y-14266365D02*
X9038515Y-14285412D01*
X9038515Y-14285412D02*
X9019467Y-14304460D01*
X9019467Y-14304460D02*
X8990896Y-14313984D01*
X8990896Y-14313984D02*
X8943277Y-14313984D01*
X9143277Y-14313984D02*
X9143277Y-14180650D01*
X9143277Y-14218746D02*
X9152801Y-14199698D01*
X9152801Y-14199698D02*
X9162324Y-14190174D01*
X9162324Y-14190174D02*
X9181372Y-14180650D01*
X9181372Y-14180650D02*
X9200420Y-14180650D01*
X9267086Y-14313984D02*
X9267086Y-14180650D01*
X9267086Y-14113984D02*
X9257563Y-14123508D01*
X9257563Y-14123508D02*
X9267086Y-14133031D01*
X9267086Y-14133031D02*
X9276610Y-14123508D01*
X9276610Y-14123508D02*
X9267086Y-14113984D01*
X9267086Y-14113984D02*
X9267086Y-14133031D01*
X9390896Y-14313984D02*
X9371848Y-14304460D01*
X9371848Y-14304460D02*
X9362324Y-14285412D01*
X9362324Y-14285412D02*
X9362324Y-14113984D01*
X9495658Y-14313984D02*
X9476610Y-14304460D01*
X9476610Y-14304460D02*
X9467086Y-14285412D01*
X9467086Y-14285412D02*
X9467086Y-14113984D01*
X9724229Y-14313984D02*
X9724229Y-14113984D01*
X9724229Y-14113984D02*
X9790896Y-14256841D01*
X9790896Y-14256841D02*
X9857563Y-14113984D01*
X9857563Y-14113984D02*
X9857563Y-14313984D01*
X10038515Y-14313984D02*
X10038515Y-14209222D01*
X10038515Y-14209222D02*
X10028991Y-14190174D01*
X10028991Y-14190174D02*
X10009944Y-14180650D01*
X10009944Y-14180650D02*
X9971848Y-14180650D01*
X9971848Y-14180650D02*
X9952801Y-14190174D01*
X10038515Y-14304460D02*
X10019467Y-14313984D01*
X10019467Y-14313984D02*
X9971848Y-14313984D01*
X9971848Y-14313984D02*
X9952801Y-14304460D01*
X9952801Y-14304460D02*
X9943277Y-14285412D01*
X9943277Y-14285412D02*
X9943277Y-14266365D01*
X9943277Y-14266365D02*
X9952801Y-14247317D01*
X9952801Y-14247317D02*
X9971848Y-14237793D01*
X9971848Y-14237793D02*
X10019467Y-14237793D01*
X10019467Y-14237793D02*
X10038515Y-14228269D01*
X10133753Y-14180650D02*
X10133753Y-14380650D01*
X10133753Y-14190174D02*
X10152801Y-14180650D01*
X10152801Y-14180650D02*
X10190896Y-14180650D01*
X10190896Y-14180650D02*
X10209944Y-14190174D01*
X10209944Y-14190174D02*
X10219467Y-14199698D01*
X10219467Y-14199698D02*
X10228991Y-14218746D01*
X10228991Y-14218746D02*
X10228991Y-14275888D01*
X10228991Y-14275888D02*
X10219467Y-14294936D01*
X10219467Y-14294936D02*
X10209944Y-14304460D01*
X10209944Y-14304460D02*
X10190896Y-14313984D01*
X10190896Y-14313984D02*
X10152801Y-14313984D01*
X10152801Y-14313984D02*
X10133753Y-14304460D01*
X10314705Y-14294936D02*
X10324229Y-14304460D01*
X10324229Y-14304460D02*
X10314705Y-14313984D01*
X10314705Y-14313984D02*
X10305182Y-14304460D01*
X10305182Y-14304460D02*
X10314705Y-14294936D01*
X10314705Y-14294936D02*
X10314705Y-14313984D01*
X10314705Y-14190174D02*
X10324229Y-14199698D01*
X10324229Y-14199698D02*
X10314705Y-14209222D01*
X10314705Y-14209222D02*
X10305182Y-14199698D01*
X10305182Y-14199698D02*
X10314705Y-14190174D01*
X10314705Y-14190174D02*
X10314705Y-14209222D01*
D12*
X8642500Y-14622500D02*
X8682500Y-14662500D01*
X8682500Y-14622500D02*
X8642500Y-14662500D01*
D11*
X8981372Y-14533984D02*
X9000420Y-14533984D01*
X9000420Y-14533984D02*
X9019467Y-14543508D01*
X9019467Y-14543508D02*
X9028991Y-14553031D01*
X9028991Y-14553031D02*
X9038515Y-14572079D01*
X9038515Y-14572079D02*
X9048039Y-14610174D01*
X9048039Y-14610174D02*
X9048039Y-14657793D01*
X9048039Y-14657793D02*
X9038515Y-14695888D01*
X9038515Y-14695888D02*
X9028991Y-14714936D01*
X9028991Y-14714936D02*
X9019467Y-14724460D01*
X9019467Y-14724460D02*
X9000420Y-14733984D01*
X9000420Y-14733984D02*
X8981372Y-14733984D01*
X8981372Y-14733984D02*
X8962324Y-14724460D01*
X8962324Y-14724460D02*
X8952801Y-14714936D01*
X8952801Y-14714936D02*
X8943277Y-14695888D01*
X8943277Y-14695888D02*
X8933753Y-14657793D01*
X8933753Y-14657793D02*
X8933753Y-14610174D01*
X8933753Y-14610174D02*
X8943277Y-14572079D01*
X8943277Y-14572079D02*
X8952801Y-14553031D01*
X8952801Y-14553031D02*
X8962324Y-14543508D01*
X8962324Y-14543508D02*
X8981372Y-14533984D01*
X9133753Y-14714936D02*
X9143277Y-14724460D01*
X9143277Y-14724460D02*
X9133753Y-14733984D01*
X9133753Y-14733984D02*
X9124229Y-14724460D01*
X9124229Y-14724460D02*
X9133753Y-14714936D01*
X9133753Y-14714936D02*
X9133753Y-14733984D01*
X9314705Y-14600650D02*
X9314705Y-14733984D01*
X9267086Y-14524460D02*
X9219467Y-14667317D01*
X9219467Y-14667317D02*
X9343277Y-14667317D01*
X9457563Y-14533984D02*
X9476610Y-14533984D01*
X9476610Y-14533984D02*
X9495658Y-14543508D01*
X9495658Y-14543508D02*
X9505182Y-14553031D01*
X9505182Y-14553031D02*
X9514705Y-14572079D01*
X9514705Y-14572079D02*
X9524229Y-14610174D01*
X9524229Y-14610174D02*
X9524229Y-14657793D01*
X9524229Y-14657793D02*
X9514705Y-14695888D01*
X9514705Y-14695888D02*
X9505182Y-14714936D01*
X9505182Y-14714936D02*
X9495658Y-14724460D01*
X9495658Y-14724460D02*
X9476610Y-14733984D01*
X9476610Y-14733984D02*
X9457563Y-14733984D01*
X9457563Y-14733984D02*
X9438515Y-14724460D01*
X9438515Y-14724460D02*
X9428991Y-14714936D01*
X9428991Y-14714936D02*
X9419467Y-14695888D01*
X9419467Y-14695888D02*
X9409944Y-14657793D01*
X9409944Y-14657793D02*
X9409944Y-14610174D01*
X9409944Y-14610174D02*
X9419467Y-14572079D01*
X9419467Y-14572079D02*
X9428991Y-14553031D01*
X9428991Y-14553031D02*
X9438515Y-14543508D01*
X9438515Y-14543508D02*
X9457563Y-14533984D01*
X9648039Y-14533984D02*
X9667086Y-14533984D01*
X9667086Y-14533984D02*
X9686134Y-14543508D01*
X9686134Y-14543508D02*
X9695658Y-14553031D01*
X9695658Y-14553031D02*
X9705182Y-14572079D01*
X9705182Y-14572079D02*
X9714705Y-14610174D01*
X9714705Y-14610174D02*
X9714705Y-14657793D01*
X9714705Y-14657793D02*
X9705182Y-14695888D01*
X9705182Y-14695888D02*
X9695658Y-14714936D01*
X9695658Y-14714936D02*
X9686134Y-14724460D01*
X9686134Y-14724460D02*
X9667086Y-14733984D01*
X9667086Y-14733984D02*
X9648039Y-14733984D01*
X9648039Y-14733984D02*
X9628991Y-14724460D01*
X9628991Y-14724460D02*
X9619467Y-14714936D01*
X9619467Y-14714936D02*
X9609944Y-14695888D01*
X9609944Y-14695888D02*
X9600420Y-14657793D01*
X9600420Y-14657793D02*
X9600420Y-14610174D01*
X9600420Y-14610174D02*
X9609944Y-14572079D01*
X9609944Y-14572079D02*
X9619467Y-14553031D01*
X9619467Y-14553031D02*
X9628991Y-14543508D01*
X9628991Y-14543508D02*
X9648039Y-14533984D01*
X9800420Y-14733984D02*
X9800420Y-14600650D01*
X9800420Y-14619698D02*
X9809944Y-14610174D01*
X9809944Y-14610174D02*
X9828991Y-14600650D01*
X9828991Y-14600650D02*
X9857563Y-14600650D01*
X9857563Y-14600650D02*
X9876610Y-14610174D01*
X9876610Y-14610174D02*
X9886134Y-14629222D01*
X9886134Y-14629222D02*
X9886134Y-14733984D01*
X9886134Y-14629222D02*
X9895658Y-14610174D01*
X9895658Y-14610174D02*
X9914705Y-14600650D01*
X9914705Y-14600650D02*
X9943277Y-14600650D01*
X9943277Y-14600650D02*
X9962325Y-14610174D01*
X9962325Y-14610174D02*
X9971848Y-14629222D01*
X9971848Y-14629222D02*
X9971848Y-14733984D01*
X10067086Y-14733984D02*
X10067086Y-14600650D01*
X10067086Y-14619698D02*
X10076610Y-14610174D01*
X10076610Y-14610174D02*
X10095658Y-14600650D01*
X10095658Y-14600650D02*
X10124229Y-14600650D01*
X10124229Y-14600650D02*
X10143277Y-14610174D01*
X10143277Y-14610174D02*
X10152801Y-14629222D01*
X10152801Y-14629222D02*
X10152801Y-14733984D01*
X10152801Y-14629222D02*
X10162325Y-14610174D01*
X10162325Y-14610174D02*
X10181372Y-14600650D01*
X10181372Y-14600650D02*
X10209944Y-14600650D01*
X10209944Y-14600650D02*
X10228991Y-14610174D01*
X10228991Y-14610174D02*
X10238515Y-14629222D01*
X10238515Y-14629222D02*
X10238515Y-14733984D01*
X10628991Y-14524460D02*
X10457563Y-14781603D01*
X10886134Y-14533984D02*
X10905182Y-14533984D01*
X10905182Y-14533984D02*
X10924229Y-14543508D01*
X10924229Y-14543508D02*
X10933753Y-14553031D01*
X10933753Y-14553031D02*
X10943277Y-14572079D01*
X10943277Y-14572079D02*
X10952801Y-14610174D01*
X10952801Y-14610174D02*
X10952801Y-14657793D01*
X10952801Y-14657793D02*
X10943277Y-14695888D01*
X10943277Y-14695888D02*
X10933753Y-14714936D01*
X10933753Y-14714936D02*
X10924229Y-14724460D01*
X10924229Y-14724460D02*
X10905182Y-14733984D01*
X10905182Y-14733984D02*
X10886134Y-14733984D01*
X10886134Y-14733984D02*
X10867087Y-14724460D01*
X10867087Y-14724460D02*
X10857563Y-14714936D01*
X10857563Y-14714936D02*
X10848039Y-14695888D01*
X10848039Y-14695888D02*
X10838515Y-14657793D01*
X10838515Y-14657793D02*
X10838515Y-14610174D01*
X10838515Y-14610174D02*
X10848039Y-14572079D01*
X10848039Y-14572079D02*
X10857563Y-14553031D01*
X10857563Y-14553031D02*
X10867087Y-14543508D01*
X10867087Y-14543508D02*
X10886134Y-14533984D01*
X11038515Y-14714936D02*
X11048039Y-14724460D01*
X11048039Y-14724460D02*
X11038515Y-14733984D01*
X11038515Y-14733984D02*
X11028991Y-14724460D01*
X11028991Y-14724460D02*
X11038515Y-14714936D01*
X11038515Y-14714936D02*
X11038515Y-14733984D01*
X11171848Y-14533984D02*
X11190896Y-14533984D01*
X11190896Y-14533984D02*
X11209944Y-14543508D01*
X11209944Y-14543508D02*
X11219467Y-14553031D01*
X11219467Y-14553031D02*
X11228991Y-14572079D01*
X11228991Y-14572079D02*
X11238515Y-14610174D01*
X11238515Y-14610174D02*
X11238515Y-14657793D01*
X11238515Y-14657793D02*
X11228991Y-14695888D01*
X11228991Y-14695888D02*
X11219467Y-14714936D01*
X11219467Y-14714936D02*
X11209944Y-14724460D01*
X11209944Y-14724460D02*
X11190896Y-14733984D01*
X11190896Y-14733984D02*
X11171848Y-14733984D01*
X11171848Y-14733984D02*
X11152801Y-14724460D01*
X11152801Y-14724460D02*
X11143277Y-14714936D01*
X11143277Y-14714936D02*
X11133753Y-14695888D01*
X11133753Y-14695888D02*
X11124229Y-14657793D01*
X11124229Y-14657793D02*
X11124229Y-14610174D01*
X11124229Y-14610174D02*
X11133753Y-14572079D01*
X11133753Y-14572079D02*
X11143277Y-14553031D01*
X11143277Y-14553031D02*
X11152801Y-14543508D01*
X11152801Y-14543508D02*
X11171848Y-14533984D01*
X11428991Y-14733984D02*
X11314706Y-14733984D01*
X11371848Y-14733984D02*
X11371848Y-14533984D01*
X11371848Y-14533984D02*
X11352801Y-14562555D01*
X11352801Y-14562555D02*
X11333753Y-14581603D01*
X11333753Y-14581603D02*
X11314706Y-14591127D01*
X11609944Y-14533984D02*
X11514706Y-14533984D01*
X11514706Y-14533984D02*
X11505182Y-14629222D01*
X11505182Y-14629222D02*
X11514706Y-14619698D01*
X11514706Y-14619698D02*
X11533753Y-14610174D01*
X11533753Y-14610174D02*
X11581372Y-14610174D01*
X11581372Y-14610174D02*
X11600420Y-14619698D01*
X11600420Y-14619698D02*
X11609944Y-14629222D01*
X11609944Y-14629222D02*
X11619467Y-14648269D01*
X11619467Y-14648269D02*
X11619467Y-14695888D01*
X11619467Y-14695888D02*
X11609944Y-14714936D01*
X11609944Y-14714936D02*
X11600420Y-14724460D01*
X11600420Y-14724460D02*
X11581372Y-14733984D01*
X11581372Y-14733984D02*
X11533753Y-14733984D01*
X11533753Y-14733984D02*
X11514706Y-14724460D01*
X11514706Y-14724460D02*
X11505182Y-14714936D01*
X11686134Y-14533984D02*
X11819467Y-14533984D01*
X11819467Y-14533984D02*
X11733753Y-14733984D01*
X11886134Y-14533984D02*
X11886134Y-14572079D01*
X11962325Y-14533984D02*
X11962325Y-14572079D01*
X12257563Y-14810174D02*
X12248039Y-14800650D01*
X12248039Y-14800650D02*
X12228991Y-14772079D01*
X12228991Y-14772079D02*
X12219468Y-14753031D01*
X12219468Y-14753031D02*
X12209944Y-14724460D01*
X12209944Y-14724460D02*
X12200420Y-14676841D01*
X12200420Y-14676841D02*
X12200420Y-14638746D01*
X12200420Y-14638746D02*
X12209944Y-14591127D01*
X12209944Y-14591127D02*
X12219468Y-14562555D01*
X12219468Y-14562555D02*
X12228991Y-14543508D01*
X12228991Y-14543508D02*
X12248039Y-14514936D01*
X12248039Y-14514936D02*
X12257563Y-14505412D01*
X12438515Y-14733984D02*
X12324229Y-14733984D01*
X12381372Y-14733984D02*
X12381372Y-14533984D01*
X12381372Y-14533984D02*
X12362325Y-14562555D01*
X12362325Y-14562555D02*
X12343277Y-14581603D01*
X12343277Y-14581603D02*
X12324229Y-14591127D01*
X12505182Y-14533984D02*
X12628991Y-14533984D01*
X12628991Y-14533984D02*
X12562325Y-14610174D01*
X12562325Y-14610174D02*
X12590896Y-14610174D01*
X12590896Y-14610174D02*
X12609944Y-14619698D01*
X12609944Y-14619698D02*
X12619468Y-14629222D01*
X12619468Y-14629222D02*
X12628991Y-14648269D01*
X12628991Y-14648269D02*
X12628991Y-14695888D01*
X12628991Y-14695888D02*
X12619468Y-14714936D01*
X12619468Y-14714936D02*
X12609944Y-14724460D01*
X12609944Y-14724460D02*
X12590896Y-14733984D01*
X12590896Y-14733984D02*
X12533753Y-14733984D01*
X12533753Y-14733984D02*
X12514706Y-14724460D01*
X12514706Y-14724460D02*
X12505182Y-14714936D01*
X12705182Y-14553031D02*
X12714706Y-14543508D01*
X12714706Y-14543508D02*
X12733753Y-14533984D01*
X12733753Y-14533984D02*
X12781372Y-14533984D01*
X12781372Y-14533984D02*
X12800420Y-14543508D01*
X12800420Y-14543508D02*
X12809944Y-14553031D01*
X12809944Y-14553031D02*
X12819468Y-14572079D01*
X12819468Y-14572079D02*
X12819468Y-14591127D01*
X12819468Y-14591127D02*
X12809944Y-14619698D01*
X12809944Y-14619698D02*
X12695658Y-14733984D01*
X12695658Y-14733984D02*
X12819468Y-14733984D01*
X13057563Y-14733984D02*
X13057563Y-14533984D01*
X13143277Y-14733984D02*
X13143277Y-14629222D01*
X13143277Y-14629222D02*
X13133753Y-14610174D01*
X13133753Y-14610174D02*
X13114706Y-14600650D01*
X13114706Y-14600650D02*
X13086134Y-14600650D01*
X13086134Y-14600650D02*
X13067087Y-14610174D01*
X13067087Y-14610174D02*
X13057563Y-14619698D01*
X13267087Y-14733984D02*
X13248039Y-14724460D01*
X13248039Y-14724460D02*
X13238515Y-14714936D01*
X13238515Y-14714936D02*
X13228991Y-14695888D01*
X13228991Y-14695888D02*
X13228991Y-14638746D01*
X13228991Y-14638746D02*
X13238515Y-14619698D01*
X13238515Y-14619698D02*
X13248039Y-14610174D01*
X13248039Y-14610174D02*
X13267087Y-14600650D01*
X13267087Y-14600650D02*
X13295658Y-14600650D01*
X13295658Y-14600650D02*
X13314706Y-14610174D01*
X13314706Y-14610174D02*
X13324230Y-14619698D01*
X13324230Y-14619698D02*
X13333753Y-14638746D01*
X13333753Y-14638746D02*
X13333753Y-14695888D01*
X13333753Y-14695888D02*
X13324230Y-14714936D01*
X13324230Y-14714936D02*
X13314706Y-14724460D01*
X13314706Y-14724460D02*
X13295658Y-14733984D01*
X13295658Y-14733984D02*
X13267087Y-14733984D01*
X13448039Y-14733984D02*
X13428991Y-14724460D01*
X13428991Y-14724460D02*
X13419468Y-14705412D01*
X13419468Y-14705412D02*
X13419468Y-14533984D01*
X13600420Y-14724460D02*
X13581372Y-14733984D01*
X13581372Y-14733984D02*
X13543277Y-14733984D01*
X13543277Y-14733984D02*
X13524230Y-14724460D01*
X13524230Y-14724460D02*
X13514706Y-14705412D01*
X13514706Y-14705412D02*
X13514706Y-14629222D01*
X13514706Y-14629222D02*
X13524230Y-14610174D01*
X13524230Y-14610174D02*
X13543277Y-14600650D01*
X13543277Y-14600650D02*
X13581372Y-14600650D01*
X13581372Y-14600650D02*
X13600420Y-14610174D01*
X13600420Y-14610174D02*
X13609944Y-14629222D01*
X13609944Y-14629222D02*
X13609944Y-14648269D01*
X13609944Y-14648269D02*
X13514706Y-14667317D01*
X13686134Y-14724460D02*
X13705182Y-14733984D01*
X13705182Y-14733984D02*
X13743277Y-14733984D01*
X13743277Y-14733984D02*
X13762325Y-14724460D01*
X13762325Y-14724460D02*
X13771849Y-14705412D01*
X13771849Y-14705412D02*
X13771849Y-14695888D01*
X13771849Y-14695888D02*
X13762325Y-14676841D01*
X13762325Y-14676841D02*
X13743277Y-14667317D01*
X13743277Y-14667317D02*
X13714706Y-14667317D01*
X13714706Y-14667317D02*
X13695658Y-14657793D01*
X13695658Y-14657793D02*
X13686134Y-14638746D01*
X13686134Y-14638746D02*
X13686134Y-14629222D01*
X13686134Y-14629222D02*
X13695658Y-14610174D01*
X13695658Y-14610174D02*
X13714706Y-14600650D01*
X13714706Y-14600650D02*
X13743277Y-14600650D01*
X13743277Y-14600650D02*
X13762325Y-14610174D01*
X13838515Y-14810174D02*
X13848039Y-14800650D01*
X13848039Y-14800650D02*
X13867087Y-14772079D01*
X13867087Y-14772079D02*
X13876611Y-14753031D01*
X13876611Y-14753031D02*
X13886134Y-14724460D01*
X13886134Y-14724460D02*
X13895658Y-14676841D01*
X13895658Y-14676841D02*
X13895658Y-14638746D01*
X13895658Y-14638746D02*
X13886134Y-14591127D01*
X13886134Y-14591127D02*
X13876611Y-14562555D01*
X13876611Y-14562555D02*
X13867087Y-14543508D01*
X13867087Y-14543508D02*
X13848039Y-14514936D01*
X13848039Y-14514936D02*
X13838515Y-14505412D01*
D12*
X8682500Y-14906500D02*
G75*
G02*
X8632500Y-14906500I-25000J0D01*
G01*
X8632500Y-14906500D02*
G75*
G02*
X8682500Y-14906500I25000J0D01*
G01*
D11*
X8981372Y-14797984D02*
X9000420Y-14797984D01*
X9000420Y-14797984D02*
X9019467Y-14807508D01*
X9019467Y-14807508D02*
X9028991Y-14817031D01*
X9028991Y-14817031D02*
X9038515Y-14836079D01*
X9038515Y-14836079D02*
X9048039Y-14874174D01*
X9048039Y-14874174D02*
X9048039Y-14921793D01*
X9048039Y-14921793D02*
X9038515Y-14959888D01*
X9038515Y-14959888D02*
X9028991Y-14978936D01*
X9028991Y-14978936D02*
X9019467Y-14988460D01*
X9019467Y-14988460D02*
X9000420Y-14997984D01*
X9000420Y-14997984D02*
X8981372Y-14997984D01*
X8981372Y-14997984D02*
X8962324Y-14988460D01*
X8962324Y-14988460D02*
X8952801Y-14978936D01*
X8952801Y-14978936D02*
X8943277Y-14959888D01*
X8943277Y-14959888D02*
X8933753Y-14921793D01*
X8933753Y-14921793D02*
X8933753Y-14874174D01*
X8933753Y-14874174D02*
X8943277Y-14836079D01*
X8943277Y-14836079D02*
X8952801Y-14817031D01*
X8952801Y-14817031D02*
X8962324Y-14807508D01*
X8962324Y-14807508D02*
X8981372Y-14797984D01*
X9133753Y-14978936D02*
X9143277Y-14988460D01*
X9143277Y-14988460D02*
X9133753Y-14997984D01*
X9133753Y-14997984D02*
X9124229Y-14988460D01*
X9124229Y-14988460D02*
X9133753Y-14978936D01*
X9133753Y-14978936D02*
X9133753Y-14997984D01*
X9324229Y-14797984D02*
X9228991Y-14797984D01*
X9228991Y-14797984D02*
X9219467Y-14893222D01*
X9219467Y-14893222D02*
X9228991Y-14883698D01*
X9228991Y-14883698D02*
X9248039Y-14874174D01*
X9248039Y-14874174D02*
X9295658Y-14874174D01*
X9295658Y-14874174D02*
X9314705Y-14883698D01*
X9314705Y-14883698D02*
X9324229Y-14893222D01*
X9324229Y-14893222D02*
X9333753Y-14912269D01*
X9333753Y-14912269D02*
X9333753Y-14959888D01*
X9333753Y-14959888D02*
X9324229Y-14978936D01*
X9324229Y-14978936D02*
X9314705Y-14988460D01*
X9314705Y-14988460D02*
X9295658Y-14997984D01*
X9295658Y-14997984D02*
X9248039Y-14997984D01*
X9248039Y-14997984D02*
X9228991Y-14988460D01*
X9228991Y-14988460D02*
X9219467Y-14978936D01*
X9457563Y-14797984D02*
X9476610Y-14797984D01*
X9476610Y-14797984D02*
X9495658Y-14807508D01*
X9495658Y-14807508D02*
X9505182Y-14817031D01*
X9505182Y-14817031D02*
X9514705Y-14836079D01*
X9514705Y-14836079D02*
X9524229Y-14874174D01*
X9524229Y-14874174D02*
X9524229Y-14921793D01*
X9524229Y-14921793D02*
X9514705Y-14959888D01*
X9514705Y-14959888D02*
X9505182Y-14978936D01*
X9505182Y-14978936D02*
X9495658Y-14988460D01*
X9495658Y-14988460D02*
X9476610Y-14997984D01*
X9476610Y-14997984D02*
X9457563Y-14997984D01*
X9457563Y-14997984D02*
X9438515Y-14988460D01*
X9438515Y-14988460D02*
X9428991Y-14978936D01*
X9428991Y-14978936D02*
X9419467Y-14959888D01*
X9419467Y-14959888D02*
X9409944Y-14921793D01*
X9409944Y-14921793D02*
X9409944Y-14874174D01*
X9409944Y-14874174D02*
X9419467Y-14836079D01*
X9419467Y-14836079D02*
X9428991Y-14817031D01*
X9428991Y-14817031D02*
X9438515Y-14807508D01*
X9438515Y-14807508D02*
X9457563Y-14797984D01*
X9648039Y-14797984D02*
X9667086Y-14797984D01*
X9667086Y-14797984D02*
X9686134Y-14807508D01*
X9686134Y-14807508D02*
X9695658Y-14817031D01*
X9695658Y-14817031D02*
X9705182Y-14836079D01*
X9705182Y-14836079D02*
X9714705Y-14874174D01*
X9714705Y-14874174D02*
X9714705Y-14921793D01*
X9714705Y-14921793D02*
X9705182Y-14959888D01*
X9705182Y-14959888D02*
X9695658Y-14978936D01*
X9695658Y-14978936D02*
X9686134Y-14988460D01*
X9686134Y-14988460D02*
X9667086Y-14997984D01*
X9667086Y-14997984D02*
X9648039Y-14997984D01*
X9648039Y-14997984D02*
X9628991Y-14988460D01*
X9628991Y-14988460D02*
X9619467Y-14978936D01*
X9619467Y-14978936D02*
X9609944Y-14959888D01*
X9609944Y-14959888D02*
X9600420Y-14921793D01*
X9600420Y-14921793D02*
X9600420Y-14874174D01*
X9600420Y-14874174D02*
X9609944Y-14836079D01*
X9609944Y-14836079D02*
X9619467Y-14817031D01*
X9619467Y-14817031D02*
X9628991Y-14807508D01*
X9628991Y-14807508D02*
X9648039Y-14797984D01*
X9800420Y-14997984D02*
X9800420Y-14864650D01*
X9800420Y-14883698D02*
X9809944Y-14874174D01*
X9809944Y-14874174D02*
X9828991Y-14864650D01*
X9828991Y-14864650D02*
X9857563Y-14864650D01*
X9857563Y-14864650D02*
X9876610Y-14874174D01*
X9876610Y-14874174D02*
X9886134Y-14893222D01*
X9886134Y-14893222D02*
X9886134Y-14997984D01*
X9886134Y-14893222D02*
X9895658Y-14874174D01*
X9895658Y-14874174D02*
X9914705Y-14864650D01*
X9914705Y-14864650D02*
X9943277Y-14864650D01*
X9943277Y-14864650D02*
X9962325Y-14874174D01*
X9962325Y-14874174D02*
X9971848Y-14893222D01*
X9971848Y-14893222D02*
X9971848Y-14997984D01*
X10067086Y-14997984D02*
X10067086Y-14864650D01*
X10067086Y-14883698D02*
X10076610Y-14874174D01*
X10076610Y-14874174D02*
X10095658Y-14864650D01*
X10095658Y-14864650D02*
X10124229Y-14864650D01*
X10124229Y-14864650D02*
X10143277Y-14874174D01*
X10143277Y-14874174D02*
X10152801Y-14893222D01*
X10152801Y-14893222D02*
X10152801Y-14997984D01*
X10152801Y-14893222D02*
X10162325Y-14874174D01*
X10162325Y-14874174D02*
X10181372Y-14864650D01*
X10181372Y-14864650D02*
X10209944Y-14864650D01*
X10209944Y-14864650D02*
X10228991Y-14874174D01*
X10228991Y-14874174D02*
X10238515Y-14893222D01*
X10238515Y-14893222D02*
X10238515Y-14997984D01*
X10628991Y-14788460D02*
X10457563Y-15045603D01*
X10886134Y-14797984D02*
X10905182Y-14797984D01*
X10905182Y-14797984D02*
X10924229Y-14807508D01*
X10924229Y-14807508D02*
X10933753Y-14817031D01*
X10933753Y-14817031D02*
X10943277Y-14836079D01*
X10943277Y-14836079D02*
X10952801Y-14874174D01*
X10952801Y-14874174D02*
X10952801Y-14921793D01*
X10952801Y-14921793D02*
X10943277Y-14959888D01*
X10943277Y-14959888D02*
X10933753Y-14978936D01*
X10933753Y-14978936D02*
X10924229Y-14988460D01*
X10924229Y-14988460D02*
X10905182Y-14997984D01*
X10905182Y-14997984D02*
X10886134Y-14997984D01*
X10886134Y-14997984D02*
X10867087Y-14988460D01*
X10867087Y-14988460D02*
X10857563Y-14978936D01*
X10857563Y-14978936D02*
X10848039Y-14959888D01*
X10848039Y-14959888D02*
X10838515Y-14921793D01*
X10838515Y-14921793D02*
X10838515Y-14874174D01*
X10838515Y-14874174D02*
X10848039Y-14836079D01*
X10848039Y-14836079D02*
X10857563Y-14817031D01*
X10857563Y-14817031D02*
X10867087Y-14807508D01*
X10867087Y-14807508D02*
X10886134Y-14797984D01*
X11038515Y-14978936D02*
X11048039Y-14988460D01*
X11048039Y-14988460D02*
X11038515Y-14997984D01*
X11038515Y-14997984D02*
X11028991Y-14988460D01*
X11028991Y-14988460D02*
X11038515Y-14978936D01*
X11038515Y-14978936D02*
X11038515Y-14997984D01*
X11171848Y-14797984D02*
X11190896Y-14797984D01*
X11190896Y-14797984D02*
X11209944Y-14807508D01*
X11209944Y-14807508D02*
X11219467Y-14817031D01*
X11219467Y-14817031D02*
X11228991Y-14836079D01*
X11228991Y-14836079D02*
X11238515Y-14874174D01*
X11238515Y-14874174D02*
X11238515Y-14921793D01*
X11238515Y-14921793D02*
X11228991Y-14959888D01*
X11228991Y-14959888D02*
X11219467Y-14978936D01*
X11219467Y-14978936D02*
X11209944Y-14988460D01*
X11209944Y-14988460D02*
X11190896Y-14997984D01*
X11190896Y-14997984D02*
X11171848Y-14997984D01*
X11171848Y-14997984D02*
X11152801Y-14988460D01*
X11152801Y-14988460D02*
X11143277Y-14978936D01*
X11143277Y-14978936D02*
X11133753Y-14959888D01*
X11133753Y-14959888D02*
X11124229Y-14921793D01*
X11124229Y-14921793D02*
X11124229Y-14874174D01*
X11124229Y-14874174D02*
X11133753Y-14836079D01*
X11133753Y-14836079D02*
X11143277Y-14817031D01*
X11143277Y-14817031D02*
X11152801Y-14807508D01*
X11152801Y-14807508D02*
X11171848Y-14797984D01*
X11428991Y-14997984D02*
X11314706Y-14997984D01*
X11371848Y-14997984D02*
X11371848Y-14797984D01*
X11371848Y-14797984D02*
X11352801Y-14826555D01*
X11352801Y-14826555D02*
X11333753Y-14845603D01*
X11333753Y-14845603D02*
X11314706Y-14855127D01*
X11524229Y-14997984D02*
X11562325Y-14997984D01*
X11562325Y-14997984D02*
X11581372Y-14988460D01*
X11581372Y-14988460D02*
X11590896Y-14978936D01*
X11590896Y-14978936D02*
X11609944Y-14950365D01*
X11609944Y-14950365D02*
X11619467Y-14912269D01*
X11619467Y-14912269D02*
X11619467Y-14836079D01*
X11619467Y-14836079D02*
X11609944Y-14817031D01*
X11609944Y-14817031D02*
X11600420Y-14807508D01*
X11600420Y-14807508D02*
X11581372Y-14797984D01*
X11581372Y-14797984D02*
X11543277Y-14797984D01*
X11543277Y-14797984D02*
X11524229Y-14807508D01*
X11524229Y-14807508D02*
X11514706Y-14817031D01*
X11514706Y-14817031D02*
X11505182Y-14836079D01*
X11505182Y-14836079D02*
X11505182Y-14883698D01*
X11505182Y-14883698D02*
X11514706Y-14902746D01*
X11514706Y-14902746D02*
X11524229Y-14912269D01*
X11524229Y-14912269D02*
X11543277Y-14921793D01*
X11543277Y-14921793D02*
X11581372Y-14921793D01*
X11581372Y-14921793D02*
X11600420Y-14912269D01*
X11600420Y-14912269D02*
X11609944Y-14902746D01*
X11609944Y-14902746D02*
X11619467Y-14883698D01*
X11686134Y-14797984D02*
X11819467Y-14797984D01*
X11819467Y-14797984D02*
X11733753Y-14997984D01*
X11886134Y-14797984D02*
X11886134Y-14836079D01*
X11962325Y-14797984D02*
X11962325Y-14836079D01*
X12257563Y-15074174D02*
X12248039Y-15064650D01*
X12248039Y-15064650D02*
X12228991Y-15036079D01*
X12228991Y-15036079D02*
X12219468Y-15017031D01*
X12219468Y-15017031D02*
X12209944Y-14988460D01*
X12209944Y-14988460D02*
X12200420Y-14940841D01*
X12200420Y-14940841D02*
X12200420Y-14902746D01*
X12200420Y-14902746D02*
X12209944Y-14855127D01*
X12209944Y-14855127D02*
X12219468Y-14826555D01*
X12219468Y-14826555D02*
X12228991Y-14807508D01*
X12228991Y-14807508D02*
X12248039Y-14778936D01*
X12248039Y-14778936D02*
X12257563Y-14769412D01*
X12314706Y-14797984D02*
X12438515Y-14797984D01*
X12438515Y-14797984D02*
X12371848Y-14874174D01*
X12371848Y-14874174D02*
X12400420Y-14874174D01*
X12400420Y-14874174D02*
X12419468Y-14883698D01*
X12419468Y-14883698D02*
X12428991Y-14893222D01*
X12428991Y-14893222D02*
X12438515Y-14912269D01*
X12438515Y-14912269D02*
X12438515Y-14959888D01*
X12438515Y-14959888D02*
X12428991Y-14978936D01*
X12428991Y-14978936D02*
X12419468Y-14988460D01*
X12419468Y-14988460D02*
X12400420Y-14997984D01*
X12400420Y-14997984D02*
X12343277Y-14997984D01*
X12343277Y-14997984D02*
X12324229Y-14988460D01*
X12324229Y-14988460D02*
X12314706Y-14978936D01*
X12514706Y-14817031D02*
X12524229Y-14807508D01*
X12524229Y-14807508D02*
X12543277Y-14797984D01*
X12543277Y-14797984D02*
X12590896Y-14797984D01*
X12590896Y-14797984D02*
X12609944Y-14807508D01*
X12609944Y-14807508D02*
X12619468Y-14817031D01*
X12619468Y-14817031D02*
X12628991Y-14836079D01*
X12628991Y-14836079D02*
X12628991Y-14855127D01*
X12628991Y-14855127D02*
X12619468Y-14883698D01*
X12619468Y-14883698D02*
X12505182Y-14997984D01*
X12505182Y-14997984D02*
X12628991Y-14997984D01*
X12867087Y-14997984D02*
X12867087Y-14797984D01*
X12952801Y-14997984D02*
X12952801Y-14893222D01*
X12952801Y-14893222D02*
X12943277Y-14874174D01*
X12943277Y-14874174D02*
X12924230Y-14864650D01*
X12924230Y-14864650D02*
X12895658Y-14864650D01*
X12895658Y-14864650D02*
X12876610Y-14874174D01*
X12876610Y-14874174D02*
X12867087Y-14883698D01*
X13076610Y-14997984D02*
X13057563Y-14988460D01*
X13057563Y-14988460D02*
X13048039Y-14978936D01*
X13048039Y-14978936D02*
X13038515Y-14959888D01*
X13038515Y-14959888D02*
X13038515Y-14902746D01*
X13038515Y-14902746D02*
X13048039Y-14883698D01*
X13048039Y-14883698D02*
X13057563Y-14874174D01*
X13057563Y-14874174D02*
X13076610Y-14864650D01*
X13076610Y-14864650D02*
X13105182Y-14864650D01*
X13105182Y-14864650D02*
X13124230Y-14874174D01*
X13124230Y-14874174D02*
X13133753Y-14883698D01*
X13133753Y-14883698D02*
X13143277Y-14902746D01*
X13143277Y-14902746D02*
X13143277Y-14959888D01*
X13143277Y-14959888D02*
X13133753Y-14978936D01*
X13133753Y-14978936D02*
X13124230Y-14988460D01*
X13124230Y-14988460D02*
X13105182Y-14997984D01*
X13105182Y-14997984D02*
X13076610Y-14997984D01*
X13257563Y-14997984D02*
X13238515Y-14988460D01*
X13238515Y-14988460D02*
X13228991Y-14969412D01*
X13228991Y-14969412D02*
X13228991Y-14797984D01*
X13409944Y-14988460D02*
X13390896Y-14997984D01*
X13390896Y-14997984D02*
X13352801Y-14997984D01*
X13352801Y-14997984D02*
X13333753Y-14988460D01*
X13333753Y-14988460D02*
X13324230Y-14969412D01*
X13324230Y-14969412D02*
X13324230Y-14893222D01*
X13324230Y-14893222D02*
X13333753Y-14874174D01*
X13333753Y-14874174D02*
X13352801Y-14864650D01*
X13352801Y-14864650D02*
X13390896Y-14864650D01*
X13390896Y-14864650D02*
X13409944Y-14874174D01*
X13409944Y-14874174D02*
X13419468Y-14893222D01*
X13419468Y-14893222D02*
X13419468Y-14912269D01*
X13419468Y-14912269D02*
X13324230Y-14931317D01*
X13495658Y-14988460D02*
X13514706Y-14997984D01*
X13514706Y-14997984D02*
X13552801Y-14997984D01*
X13552801Y-14997984D02*
X13571849Y-14988460D01*
X13571849Y-14988460D02*
X13581372Y-14969412D01*
X13581372Y-14969412D02*
X13581372Y-14959888D01*
X13581372Y-14959888D02*
X13571849Y-14940841D01*
X13571849Y-14940841D02*
X13552801Y-14931317D01*
X13552801Y-14931317D02*
X13524230Y-14931317D01*
X13524230Y-14931317D02*
X13505182Y-14921793D01*
X13505182Y-14921793D02*
X13495658Y-14902746D01*
X13495658Y-14902746D02*
X13495658Y-14893222D01*
X13495658Y-14893222D02*
X13505182Y-14874174D01*
X13505182Y-14874174D02*
X13524230Y-14864650D01*
X13524230Y-14864650D02*
X13552801Y-14864650D01*
X13552801Y-14864650D02*
X13571849Y-14874174D01*
X13648039Y-15074174D02*
X13657563Y-15064650D01*
X13657563Y-15064650D02*
X13676611Y-15036079D01*
X13676611Y-15036079D02*
X13686134Y-15017031D01*
X13686134Y-15017031D02*
X13695658Y-14988460D01*
X13695658Y-14988460D02*
X13705182Y-14940841D01*
X13705182Y-14940841D02*
X13705182Y-14902746D01*
X13705182Y-14902746D02*
X13695658Y-14855127D01*
X13695658Y-14855127D02*
X13686134Y-14826555D01*
X13686134Y-14826555D02*
X13676611Y-14807508D01*
X13676611Y-14807508D02*
X13657563Y-14778936D01*
X13657563Y-14778936D02*
X13648039Y-14769412D01*
D12*
X8657100Y-15145100D02*
X8657100Y-15195900D01*
X8631700Y-15170500D02*
X8682500Y-15170500D01*
D11*
X8981372Y-15061984D02*
X9000420Y-15061984D01*
X9000420Y-15061984D02*
X9019467Y-15071508D01*
X9019467Y-15071508D02*
X9028991Y-15081031D01*
X9028991Y-15081031D02*
X9038515Y-15100079D01*
X9038515Y-15100079D02*
X9048039Y-15138174D01*
X9048039Y-15138174D02*
X9048039Y-15185793D01*
X9048039Y-15185793D02*
X9038515Y-15223888D01*
X9038515Y-15223888D02*
X9028991Y-15242936D01*
X9028991Y-15242936D02*
X9019467Y-15252460D01*
X9019467Y-15252460D02*
X9000420Y-15261984D01*
X9000420Y-15261984D02*
X8981372Y-15261984D01*
X8981372Y-15261984D02*
X8962324Y-15252460D01*
X8962324Y-15252460D02*
X8952801Y-15242936D01*
X8952801Y-15242936D02*
X8943277Y-15223888D01*
X8943277Y-15223888D02*
X8933753Y-15185793D01*
X8933753Y-15185793D02*
X8933753Y-15138174D01*
X8933753Y-15138174D02*
X8943277Y-15100079D01*
X8943277Y-15100079D02*
X8952801Y-15081031D01*
X8952801Y-15081031D02*
X8962324Y-15071508D01*
X8962324Y-15071508D02*
X8981372Y-15061984D01*
X9133753Y-15242936D02*
X9143277Y-15252460D01*
X9143277Y-15252460D02*
X9133753Y-15261984D01*
X9133753Y-15261984D02*
X9124229Y-15252460D01*
X9124229Y-15252460D02*
X9133753Y-15242936D01*
X9133753Y-15242936D02*
X9133753Y-15261984D01*
X9324229Y-15061984D02*
X9228991Y-15061984D01*
X9228991Y-15061984D02*
X9219467Y-15157222D01*
X9219467Y-15157222D02*
X9228991Y-15147698D01*
X9228991Y-15147698D02*
X9248039Y-15138174D01*
X9248039Y-15138174D02*
X9295658Y-15138174D01*
X9295658Y-15138174D02*
X9314705Y-15147698D01*
X9314705Y-15147698D02*
X9324229Y-15157222D01*
X9324229Y-15157222D02*
X9333753Y-15176269D01*
X9333753Y-15176269D02*
X9333753Y-15223888D01*
X9333753Y-15223888D02*
X9324229Y-15242936D01*
X9324229Y-15242936D02*
X9314705Y-15252460D01*
X9314705Y-15252460D02*
X9295658Y-15261984D01*
X9295658Y-15261984D02*
X9248039Y-15261984D01*
X9248039Y-15261984D02*
X9228991Y-15252460D01*
X9228991Y-15252460D02*
X9219467Y-15242936D01*
X9457563Y-15061984D02*
X9476610Y-15061984D01*
X9476610Y-15061984D02*
X9495658Y-15071508D01*
X9495658Y-15071508D02*
X9505182Y-15081031D01*
X9505182Y-15081031D02*
X9514705Y-15100079D01*
X9514705Y-15100079D02*
X9524229Y-15138174D01*
X9524229Y-15138174D02*
X9524229Y-15185793D01*
X9524229Y-15185793D02*
X9514705Y-15223888D01*
X9514705Y-15223888D02*
X9505182Y-15242936D01*
X9505182Y-15242936D02*
X9495658Y-15252460D01*
X9495658Y-15252460D02*
X9476610Y-15261984D01*
X9476610Y-15261984D02*
X9457563Y-15261984D01*
X9457563Y-15261984D02*
X9438515Y-15252460D01*
X9438515Y-15252460D02*
X9428991Y-15242936D01*
X9428991Y-15242936D02*
X9419467Y-15223888D01*
X9419467Y-15223888D02*
X9409944Y-15185793D01*
X9409944Y-15185793D02*
X9409944Y-15138174D01*
X9409944Y-15138174D02*
X9419467Y-15100079D01*
X9419467Y-15100079D02*
X9428991Y-15081031D01*
X9428991Y-15081031D02*
X9438515Y-15071508D01*
X9438515Y-15071508D02*
X9457563Y-15061984D01*
X9638515Y-15147698D02*
X9619467Y-15138174D01*
X9619467Y-15138174D02*
X9609944Y-15128650D01*
X9609944Y-15128650D02*
X9600420Y-15109603D01*
X9600420Y-15109603D02*
X9600420Y-15100079D01*
X9600420Y-15100079D02*
X9609944Y-15081031D01*
X9609944Y-15081031D02*
X9619467Y-15071508D01*
X9619467Y-15071508D02*
X9638515Y-15061984D01*
X9638515Y-15061984D02*
X9676610Y-15061984D01*
X9676610Y-15061984D02*
X9695658Y-15071508D01*
X9695658Y-15071508D02*
X9705182Y-15081031D01*
X9705182Y-15081031D02*
X9714705Y-15100079D01*
X9714705Y-15100079D02*
X9714705Y-15109603D01*
X9714705Y-15109603D02*
X9705182Y-15128650D01*
X9705182Y-15128650D02*
X9695658Y-15138174D01*
X9695658Y-15138174D02*
X9676610Y-15147698D01*
X9676610Y-15147698D02*
X9638515Y-15147698D01*
X9638515Y-15147698D02*
X9619467Y-15157222D01*
X9619467Y-15157222D02*
X9609944Y-15166746D01*
X9609944Y-15166746D02*
X9600420Y-15185793D01*
X9600420Y-15185793D02*
X9600420Y-15223888D01*
X9600420Y-15223888D02*
X9609944Y-15242936D01*
X9609944Y-15242936D02*
X9619467Y-15252460D01*
X9619467Y-15252460D02*
X9638515Y-15261984D01*
X9638515Y-15261984D02*
X9676610Y-15261984D01*
X9676610Y-15261984D02*
X9695658Y-15252460D01*
X9695658Y-15252460D02*
X9705182Y-15242936D01*
X9705182Y-15242936D02*
X9714705Y-15223888D01*
X9714705Y-15223888D02*
X9714705Y-15185793D01*
X9714705Y-15185793D02*
X9705182Y-15166746D01*
X9705182Y-15166746D02*
X9695658Y-15157222D01*
X9695658Y-15157222D02*
X9676610Y-15147698D01*
X9800420Y-15261984D02*
X9800420Y-15128650D01*
X9800420Y-15147698D02*
X9809944Y-15138174D01*
X9809944Y-15138174D02*
X9828991Y-15128650D01*
X9828991Y-15128650D02*
X9857563Y-15128650D01*
X9857563Y-15128650D02*
X9876610Y-15138174D01*
X9876610Y-15138174D02*
X9886134Y-15157222D01*
X9886134Y-15157222D02*
X9886134Y-15261984D01*
X9886134Y-15157222D02*
X9895658Y-15138174D01*
X9895658Y-15138174D02*
X9914705Y-15128650D01*
X9914705Y-15128650D02*
X9943277Y-15128650D01*
X9943277Y-15128650D02*
X9962325Y-15138174D01*
X9962325Y-15138174D02*
X9971848Y-15157222D01*
X9971848Y-15157222D02*
X9971848Y-15261984D01*
X10067086Y-15261984D02*
X10067086Y-15128650D01*
X10067086Y-15147698D02*
X10076610Y-15138174D01*
X10076610Y-15138174D02*
X10095658Y-15128650D01*
X10095658Y-15128650D02*
X10124229Y-15128650D01*
X10124229Y-15128650D02*
X10143277Y-15138174D01*
X10143277Y-15138174D02*
X10152801Y-15157222D01*
X10152801Y-15157222D02*
X10152801Y-15261984D01*
X10152801Y-15157222D02*
X10162325Y-15138174D01*
X10162325Y-15138174D02*
X10181372Y-15128650D01*
X10181372Y-15128650D02*
X10209944Y-15128650D01*
X10209944Y-15128650D02*
X10228991Y-15138174D01*
X10228991Y-15138174D02*
X10238515Y-15157222D01*
X10238515Y-15157222D02*
X10238515Y-15261984D01*
X10628991Y-15052460D02*
X10457563Y-15309603D01*
X10886134Y-15061984D02*
X10905182Y-15061984D01*
X10905182Y-15061984D02*
X10924229Y-15071508D01*
X10924229Y-15071508D02*
X10933753Y-15081031D01*
X10933753Y-15081031D02*
X10943277Y-15100079D01*
X10943277Y-15100079D02*
X10952801Y-15138174D01*
X10952801Y-15138174D02*
X10952801Y-15185793D01*
X10952801Y-15185793D02*
X10943277Y-15223888D01*
X10943277Y-15223888D02*
X10933753Y-15242936D01*
X10933753Y-15242936D02*
X10924229Y-15252460D01*
X10924229Y-15252460D02*
X10905182Y-15261984D01*
X10905182Y-15261984D02*
X10886134Y-15261984D01*
X10886134Y-15261984D02*
X10867087Y-15252460D01*
X10867087Y-15252460D02*
X10857563Y-15242936D01*
X10857563Y-15242936D02*
X10848039Y-15223888D01*
X10848039Y-15223888D02*
X10838515Y-15185793D01*
X10838515Y-15185793D02*
X10838515Y-15138174D01*
X10838515Y-15138174D02*
X10848039Y-15100079D01*
X10848039Y-15100079D02*
X10857563Y-15081031D01*
X10857563Y-15081031D02*
X10867087Y-15071508D01*
X10867087Y-15071508D02*
X10886134Y-15061984D01*
X11038515Y-15242936D02*
X11048039Y-15252460D01*
X11048039Y-15252460D02*
X11038515Y-15261984D01*
X11038515Y-15261984D02*
X11028991Y-15252460D01*
X11028991Y-15252460D02*
X11038515Y-15242936D01*
X11038515Y-15242936D02*
X11038515Y-15261984D01*
X11171848Y-15061984D02*
X11190896Y-15061984D01*
X11190896Y-15061984D02*
X11209944Y-15071508D01*
X11209944Y-15071508D02*
X11219467Y-15081031D01*
X11219467Y-15081031D02*
X11228991Y-15100079D01*
X11228991Y-15100079D02*
X11238515Y-15138174D01*
X11238515Y-15138174D02*
X11238515Y-15185793D01*
X11238515Y-15185793D02*
X11228991Y-15223888D01*
X11228991Y-15223888D02*
X11219467Y-15242936D01*
X11219467Y-15242936D02*
X11209944Y-15252460D01*
X11209944Y-15252460D02*
X11190896Y-15261984D01*
X11190896Y-15261984D02*
X11171848Y-15261984D01*
X11171848Y-15261984D02*
X11152801Y-15252460D01*
X11152801Y-15252460D02*
X11143277Y-15242936D01*
X11143277Y-15242936D02*
X11133753Y-15223888D01*
X11133753Y-15223888D02*
X11124229Y-15185793D01*
X11124229Y-15185793D02*
X11124229Y-15138174D01*
X11124229Y-15138174D02*
X11133753Y-15100079D01*
X11133753Y-15100079D02*
X11143277Y-15081031D01*
X11143277Y-15081031D02*
X11152801Y-15071508D01*
X11152801Y-15071508D02*
X11171848Y-15061984D01*
X11314706Y-15081031D02*
X11324229Y-15071508D01*
X11324229Y-15071508D02*
X11343277Y-15061984D01*
X11343277Y-15061984D02*
X11390896Y-15061984D01*
X11390896Y-15061984D02*
X11409944Y-15071508D01*
X11409944Y-15071508D02*
X11419467Y-15081031D01*
X11419467Y-15081031D02*
X11428991Y-15100079D01*
X11428991Y-15100079D02*
X11428991Y-15119127D01*
X11428991Y-15119127D02*
X11419467Y-15147698D01*
X11419467Y-15147698D02*
X11305182Y-15261984D01*
X11305182Y-15261984D02*
X11428991Y-15261984D01*
X11552801Y-15061984D02*
X11571848Y-15061984D01*
X11571848Y-15061984D02*
X11590896Y-15071508D01*
X11590896Y-15071508D02*
X11600420Y-15081031D01*
X11600420Y-15081031D02*
X11609944Y-15100079D01*
X11609944Y-15100079D02*
X11619467Y-15138174D01*
X11619467Y-15138174D02*
X11619467Y-15185793D01*
X11619467Y-15185793D02*
X11609944Y-15223888D01*
X11609944Y-15223888D02*
X11600420Y-15242936D01*
X11600420Y-15242936D02*
X11590896Y-15252460D01*
X11590896Y-15252460D02*
X11571848Y-15261984D01*
X11571848Y-15261984D02*
X11552801Y-15261984D01*
X11552801Y-15261984D02*
X11533753Y-15252460D01*
X11533753Y-15252460D02*
X11524229Y-15242936D01*
X11524229Y-15242936D02*
X11514706Y-15223888D01*
X11514706Y-15223888D02*
X11505182Y-15185793D01*
X11505182Y-15185793D02*
X11505182Y-15138174D01*
X11505182Y-15138174D02*
X11514706Y-15100079D01*
X11514706Y-15100079D02*
X11524229Y-15081031D01*
X11524229Y-15081031D02*
X11533753Y-15071508D01*
X11533753Y-15071508D02*
X11552801Y-15061984D01*
X11743277Y-15061984D02*
X11762325Y-15061984D01*
X11762325Y-15061984D02*
X11781372Y-15071508D01*
X11781372Y-15071508D02*
X11790896Y-15081031D01*
X11790896Y-15081031D02*
X11800420Y-15100079D01*
X11800420Y-15100079D02*
X11809944Y-15138174D01*
X11809944Y-15138174D02*
X11809944Y-15185793D01*
X11809944Y-15185793D02*
X11800420Y-15223888D01*
X11800420Y-15223888D02*
X11790896Y-15242936D01*
X11790896Y-15242936D02*
X11781372Y-15252460D01*
X11781372Y-15252460D02*
X11762325Y-15261984D01*
X11762325Y-15261984D02*
X11743277Y-15261984D01*
X11743277Y-15261984D02*
X11724229Y-15252460D01*
X11724229Y-15252460D02*
X11714706Y-15242936D01*
X11714706Y-15242936D02*
X11705182Y-15223888D01*
X11705182Y-15223888D02*
X11695658Y-15185793D01*
X11695658Y-15185793D02*
X11695658Y-15138174D01*
X11695658Y-15138174D02*
X11705182Y-15100079D01*
X11705182Y-15100079D02*
X11714706Y-15081031D01*
X11714706Y-15081031D02*
X11724229Y-15071508D01*
X11724229Y-15071508D02*
X11743277Y-15061984D01*
X11886134Y-15061984D02*
X11886134Y-15100079D01*
X11962325Y-15061984D02*
X11962325Y-15100079D01*
X12257563Y-15338174D02*
X12248039Y-15328650D01*
X12248039Y-15328650D02*
X12228991Y-15300079D01*
X12228991Y-15300079D02*
X12219468Y-15281031D01*
X12219468Y-15281031D02*
X12209944Y-15252460D01*
X12209944Y-15252460D02*
X12200420Y-15204841D01*
X12200420Y-15204841D02*
X12200420Y-15166746D01*
X12200420Y-15166746D02*
X12209944Y-15119127D01*
X12209944Y-15119127D02*
X12219468Y-15090555D01*
X12219468Y-15090555D02*
X12228991Y-15071508D01*
X12228991Y-15071508D02*
X12248039Y-15042936D01*
X12248039Y-15042936D02*
X12257563Y-15033412D01*
X12419468Y-15128650D02*
X12419468Y-15261984D01*
X12371848Y-15052460D02*
X12324229Y-15195317D01*
X12324229Y-15195317D02*
X12448039Y-15195317D01*
X12505182Y-15061984D02*
X12628991Y-15061984D01*
X12628991Y-15061984D02*
X12562325Y-15138174D01*
X12562325Y-15138174D02*
X12590896Y-15138174D01*
X12590896Y-15138174D02*
X12609944Y-15147698D01*
X12609944Y-15147698D02*
X12619468Y-15157222D01*
X12619468Y-15157222D02*
X12628991Y-15176269D01*
X12628991Y-15176269D02*
X12628991Y-15223888D01*
X12628991Y-15223888D02*
X12619468Y-15242936D01*
X12619468Y-15242936D02*
X12609944Y-15252460D01*
X12609944Y-15252460D02*
X12590896Y-15261984D01*
X12590896Y-15261984D02*
X12533753Y-15261984D01*
X12533753Y-15261984D02*
X12514706Y-15252460D01*
X12514706Y-15252460D02*
X12505182Y-15242936D01*
X12705182Y-15081031D02*
X12714706Y-15071508D01*
X12714706Y-15071508D02*
X12733753Y-15061984D01*
X12733753Y-15061984D02*
X12781372Y-15061984D01*
X12781372Y-15061984D02*
X12800420Y-15071508D01*
X12800420Y-15071508D02*
X12809944Y-15081031D01*
X12809944Y-15081031D02*
X12819468Y-15100079D01*
X12819468Y-15100079D02*
X12819468Y-15119127D01*
X12819468Y-15119127D02*
X12809944Y-15147698D01*
X12809944Y-15147698D02*
X12695658Y-15261984D01*
X12695658Y-15261984D02*
X12819468Y-15261984D01*
X13057563Y-15261984D02*
X13057563Y-15061984D01*
X13143277Y-15261984D02*
X13143277Y-15157222D01*
X13143277Y-15157222D02*
X13133753Y-15138174D01*
X13133753Y-15138174D02*
X13114706Y-15128650D01*
X13114706Y-15128650D02*
X13086134Y-15128650D01*
X13086134Y-15128650D02*
X13067087Y-15138174D01*
X13067087Y-15138174D02*
X13057563Y-15147698D01*
X13267087Y-15261984D02*
X13248039Y-15252460D01*
X13248039Y-15252460D02*
X13238515Y-15242936D01*
X13238515Y-15242936D02*
X13228991Y-15223888D01*
X13228991Y-15223888D02*
X13228991Y-15166746D01*
X13228991Y-15166746D02*
X13238515Y-15147698D01*
X13238515Y-15147698D02*
X13248039Y-15138174D01*
X13248039Y-15138174D02*
X13267087Y-15128650D01*
X13267087Y-15128650D02*
X13295658Y-15128650D01*
X13295658Y-15128650D02*
X13314706Y-15138174D01*
X13314706Y-15138174D02*
X13324230Y-15147698D01*
X13324230Y-15147698D02*
X13333753Y-15166746D01*
X13333753Y-15166746D02*
X13333753Y-15223888D01*
X13333753Y-15223888D02*
X13324230Y-15242936D01*
X13324230Y-15242936D02*
X13314706Y-15252460D01*
X13314706Y-15252460D02*
X13295658Y-15261984D01*
X13295658Y-15261984D02*
X13267087Y-15261984D01*
X13448039Y-15261984D02*
X13428991Y-15252460D01*
X13428991Y-15252460D02*
X13419468Y-15233412D01*
X13419468Y-15233412D02*
X13419468Y-15061984D01*
X13600420Y-15252460D02*
X13581372Y-15261984D01*
X13581372Y-15261984D02*
X13543277Y-15261984D01*
X13543277Y-15261984D02*
X13524230Y-15252460D01*
X13524230Y-15252460D02*
X13514706Y-15233412D01*
X13514706Y-15233412D02*
X13514706Y-15157222D01*
X13514706Y-15157222D02*
X13524230Y-15138174D01*
X13524230Y-15138174D02*
X13543277Y-15128650D01*
X13543277Y-15128650D02*
X13581372Y-15128650D01*
X13581372Y-15128650D02*
X13600420Y-15138174D01*
X13600420Y-15138174D02*
X13609944Y-15157222D01*
X13609944Y-15157222D02*
X13609944Y-15176269D01*
X13609944Y-15176269D02*
X13514706Y-15195317D01*
X13686134Y-15252460D02*
X13705182Y-15261984D01*
X13705182Y-15261984D02*
X13743277Y-15261984D01*
X13743277Y-15261984D02*
X13762325Y-15252460D01*
X13762325Y-15252460D02*
X13771849Y-15233412D01*
X13771849Y-15233412D02*
X13771849Y-15223888D01*
X13771849Y-15223888D02*
X13762325Y-15204841D01*
X13762325Y-15204841D02*
X13743277Y-15195317D01*
X13743277Y-15195317D02*
X13714706Y-15195317D01*
X13714706Y-15195317D02*
X13695658Y-15185793D01*
X13695658Y-15185793D02*
X13686134Y-15166746D01*
X13686134Y-15166746D02*
X13686134Y-15157222D01*
X13686134Y-15157222D02*
X13695658Y-15138174D01*
X13695658Y-15138174D02*
X13714706Y-15128650D01*
X13714706Y-15128650D02*
X13743277Y-15128650D01*
X13743277Y-15128650D02*
X13762325Y-15138174D01*
X13838515Y-15338174D02*
X13848039Y-15328650D01*
X13848039Y-15328650D02*
X13867087Y-15300079D01*
X13867087Y-15300079D02*
X13876611Y-15281031D01*
X13876611Y-15281031D02*
X13886134Y-15252460D01*
X13886134Y-15252460D02*
X13895658Y-15204841D01*
X13895658Y-15204841D02*
X13895658Y-15166746D01*
X13895658Y-15166746D02*
X13886134Y-15119127D01*
X13886134Y-15119127D02*
X13876611Y-15090555D01*
X13876611Y-15090555D02*
X13867087Y-15071508D01*
X13867087Y-15071508D02*
X13848039Y-15042936D01*
X13848039Y-15042936D02*
X13838515Y-15033412D01*
D12*
X8671517Y-15461017D02*
X8671517Y-15407983D01*
X8618483Y-15407983D01*
X8618483Y-15461017D01*
X8671517Y-15461017D01*
D11*
X8981372Y-15325984D02*
X9000420Y-15325984D01*
X9000420Y-15325984D02*
X9019467Y-15335508D01*
X9019467Y-15335508D02*
X9028991Y-15345031D01*
X9028991Y-15345031D02*
X9038515Y-15364079D01*
X9038515Y-15364079D02*
X9048039Y-15402174D01*
X9048039Y-15402174D02*
X9048039Y-15449793D01*
X9048039Y-15449793D02*
X9038515Y-15487888D01*
X9038515Y-15487888D02*
X9028991Y-15506936D01*
X9028991Y-15506936D02*
X9019467Y-15516460D01*
X9019467Y-15516460D02*
X9000420Y-15525984D01*
X9000420Y-15525984D02*
X8981372Y-15525984D01*
X8981372Y-15525984D02*
X8962324Y-15516460D01*
X8962324Y-15516460D02*
X8952801Y-15506936D01*
X8952801Y-15506936D02*
X8943277Y-15487888D01*
X8943277Y-15487888D02*
X8933753Y-15449793D01*
X8933753Y-15449793D02*
X8933753Y-15402174D01*
X8933753Y-15402174D02*
X8943277Y-15364079D01*
X8943277Y-15364079D02*
X8952801Y-15345031D01*
X8952801Y-15345031D02*
X8962324Y-15335508D01*
X8962324Y-15335508D02*
X8981372Y-15325984D01*
X9133753Y-15506936D02*
X9143277Y-15516460D01*
X9143277Y-15516460D02*
X9133753Y-15525984D01*
X9133753Y-15525984D02*
X9124229Y-15516460D01*
X9124229Y-15516460D02*
X9133753Y-15506936D01*
X9133753Y-15506936D02*
X9133753Y-15525984D01*
X9209944Y-15325984D02*
X9343277Y-15325984D01*
X9343277Y-15325984D02*
X9257563Y-15525984D01*
X9514705Y-15325984D02*
X9419467Y-15325984D01*
X9419467Y-15325984D02*
X9409944Y-15421222D01*
X9409944Y-15421222D02*
X9419467Y-15411698D01*
X9419467Y-15411698D02*
X9438515Y-15402174D01*
X9438515Y-15402174D02*
X9486134Y-15402174D01*
X9486134Y-15402174D02*
X9505182Y-15411698D01*
X9505182Y-15411698D02*
X9514705Y-15421222D01*
X9514705Y-15421222D02*
X9524229Y-15440269D01*
X9524229Y-15440269D02*
X9524229Y-15487888D01*
X9524229Y-15487888D02*
X9514705Y-15506936D01*
X9514705Y-15506936D02*
X9505182Y-15516460D01*
X9505182Y-15516460D02*
X9486134Y-15525984D01*
X9486134Y-15525984D02*
X9438515Y-15525984D01*
X9438515Y-15525984D02*
X9419467Y-15516460D01*
X9419467Y-15516460D02*
X9409944Y-15506936D01*
X9648039Y-15325984D02*
X9667086Y-15325984D01*
X9667086Y-15325984D02*
X9686134Y-15335508D01*
X9686134Y-15335508D02*
X9695658Y-15345031D01*
X9695658Y-15345031D02*
X9705182Y-15364079D01*
X9705182Y-15364079D02*
X9714705Y-15402174D01*
X9714705Y-15402174D02*
X9714705Y-15449793D01*
X9714705Y-15449793D02*
X9705182Y-15487888D01*
X9705182Y-15487888D02*
X9695658Y-15506936D01*
X9695658Y-15506936D02*
X9686134Y-15516460D01*
X9686134Y-15516460D02*
X9667086Y-15525984D01*
X9667086Y-15525984D02*
X9648039Y-15525984D01*
X9648039Y-15525984D02*
X9628991Y-15516460D01*
X9628991Y-15516460D02*
X9619467Y-15506936D01*
X9619467Y-15506936D02*
X9609944Y-15487888D01*
X9609944Y-15487888D02*
X9600420Y-15449793D01*
X9600420Y-15449793D02*
X9600420Y-15402174D01*
X9600420Y-15402174D02*
X9609944Y-15364079D01*
X9609944Y-15364079D02*
X9619467Y-15345031D01*
X9619467Y-15345031D02*
X9628991Y-15335508D01*
X9628991Y-15335508D02*
X9648039Y-15325984D01*
X9800420Y-15525984D02*
X9800420Y-15392650D01*
X9800420Y-15411698D02*
X9809944Y-15402174D01*
X9809944Y-15402174D02*
X9828991Y-15392650D01*
X9828991Y-15392650D02*
X9857563Y-15392650D01*
X9857563Y-15392650D02*
X9876610Y-15402174D01*
X9876610Y-15402174D02*
X9886134Y-15421222D01*
X9886134Y-15421222D02*
X9886134Y-15525984D01*
X9886134Y-15421222D02*
X9895658Y-15402174D01*
X9895658Y-15402174D02*
X9914705Y-15392650D01*
X9914705Y-15392650D02*
X9943277Y-15392650D01*
X9943277Y-15392650D02*
X9962325Y-15402174D01*
X9962325Y-15402174D02*
X9971848Y-15421222D01*
X9971848Y-15421222D02*
X9971848Y-15525984D01*
X10067086Y-15525984D02*
X10067086Y-15392650D01*
X10067086Y-15411698D02*
X10076610Y-15402174D01*
X10076610Y-15402174D02*
X10095658Y-15392650D01*
X10095658Y-15392650D02*
X10124229Y-15392650D01*
X10124229Y-15392650D02*
X10143277Y-15402174D01*
X10143277Y-15402174D02*
X10152801Y-15421222D01*
X10152801Y-15421222D02*
X10152801Y-15525984D01*
X10152801Y-15421222D02*
X10162325Y-15402174D01*
X10162325Y-15402174D02*
X10181372Y-15392650D01*
X10181372Y-15392650D02*
X10209944Y-15392650D01*
X10209944Y-15392650D02*
X10228991Y-15402174D01*
X10228991Y-15402174D02*
X10238515Y-15421222D01*
X10238515Y-15421222D02*
X10238515Y-15525984D01*
X10628991Y-15316460D02*
X10457563Y-15573603D01*
X10886134Y-15325984D02*
X10905182Y-15325984D01*
X10905182Y-15325984D02*
X10924229Y-15335508D01*
X10924229Y-15335508D02*
X10933753Y-15345031D01*
X10933753Y-15345031D02*
X10943277Y-15364079D01*
X10943277Y-15364079D02*
X10952801Y-15402174D01*
X10952801Y-15402174D02*
X10952801Y-15449793D01*
X10952801Y-15449793D02*
X10943277Y-15487888D01*
X10943277Y-15487888D02*
X10933753Y-15506936D01*
X10933753Y-15506936D02*
X10924229Y-15516460D01*
X10924229Y-15516460D02*
X10905182Y-15525984D01*
X10905182Y-15525984D02*
X10886134Y-15525984D01*
X10886134Y-15525984D02*
X10867087Y-15516460D01*
X10867087Y-15516460D02*
X10857563Y-15506936D01*
X10857563Y-15506936D02*
X10848039Y-15487888D01*
X10848039Y-15487888D02*
X10838515Y-15449793D01*
X10838515Y-15449793D02*
X10838515Y-15402174D01*
X10838515Y-15402174D02*
X10848039Y-15364079D01*
X10848039Y-15364079D02*
X10857563Y-15345031D01*
X10857563Y-15345031D02*
X10867087Y-15335508D01*
X10867087Y-15335508D02*
X10886134Y-15325984D01*
X11038515Y-15506936D02*
X11048039Y-15516460D01*
X11048039Y-15516460D02*
X11038515Y-15525984D01*
X11038515Y-15525984D02*
X11028991Y-15516460D01*
X11028991Y-15516460D02*
X11038515Y-15506936D01*
X11038515Y-15506936D02*
X11038515Y-15525984D01*
X11171848Y-15325984D02*
X11190896Y-15325984D01*
X11190896Y-15325984D02*
X11209944Y-15335508D01*
X11209944Y-15335508D02*
X11219467Y-15345031D01*
X11219467Y-15345031D02*
X11228991Y-15364079D01*
X11228991Y-15364079D02*
X11238515Y-15402174D01*
X11238515Y-15402174D02*
X11238515Y-15449793D01*
X11238515Y-15449793D02*
X11228991Y-15487888D01*
X11228991Y-15487888D02*
X11219467Y-15506936D01*
X11219467Y-15506936D02*
X11209944Y-15516460D01*
X11209944Y-15516460D02*
X11190896Y-15525984D01*
X11190896Y-15525984D02*
X11171848Y-15525984D01*
X11171848Y-15525984D02*
X11152801Y-15516460D01*
X11152801Y-15516460D02*
X11143277Y-15506936D01*
X11143277Y-15506936D02*
X11133753Y-15487888D01*
X11133753Y-15487888D02*
X11124229Y-15449793D01*
X11124229Y-15449793D02*
X11124229Y-15402174D01*
X11124229Y-15402174D02*
X11133753Y-15364079D01*
X11133753Y-15364079D02*
X11143277Y-15345031D01*
X11143277Y-15345031D02*
X11152801Y-15335508D01*
X11152801Y-15335508D02*
X11171848Y-15325984D01*
X11314706Y-15345031D02*
X11324229Y-15335508D01*
X11324229Y-15335508D02*
X11343277Y-15325984D01*
X11343277Y-15325984D02*
X11390896Y-15325984D01*
X11390896Y-15325984D02*
X11409944Y-15335508D01*
X11409944Y-15335508D02*
X11419467Y-15345031D01*
X11419467Y-15345031D02*
X11428991Y-15364079D01*
X11428991Y-15364079D02*
X11428991Y-15383127D01*
X11428991Y-15383127D02*
X11419467Y-15411698D01*
X11419467Y-15411698D02*
X11305182Y-15525984D01*
X11305182Y-15525984D02*
X11428991Y-15525984D01*
X11524229Y-15525984D02*
X11562325Y-15525984D01*
X11562325Y-15525984D02*
X11581372Y-15516460D01*
X11581372Y-15516460D02*
X11590896Y-15506936D01*
X11590896Y-15506936D02*
X11609944Y-15478365D01*
X11609944Y-15478365D02*
X11619467Y-15440269D01*
X11619467Y-15440269D02*
X11619467Y-15364079D01*
X11619467Y-15364079D02*
X11609944Y-15345031D01*
X11609944Y-15345031D02*
X11600420Y-15335508D01*
X11600420Y-15335508D02*
X11581372Y-15325984D01*
X11581372Y-15325984D02*
X11543277Y-15325984D01*
X11543277Y-15325984D02*
X11524229Y-15335508D01*
X11524229Y-15335508D02*
X11514706Y-15345031D01*
X11514706Y-15345031D02*
X11505182Y-15364079D01*
X11505182Y-15364079D02*
X11505182Y-15411698D01*
X11505182Y-15411698D02*
X11514706Y-15430746D01*
X11514706Y-15430746D02*
X11524229Y-15440269D01*
X11524229Y-15440269D02*
X11543277Y-15449793D01*
X11543277Y-15449793D02*
X11581372Y-15449793D01*
X11581372Y-15449793D02*
X11600420Y-15440269D01*
X11600420Y-15440269D02*
X11609944Y-15430746D01*
X11609944Y-15430746D02*
X11619467Y-15411698D01*
X11800420Y-15325984D02*
X11705182Y-15325984D01*
X11705182Y-15325984D02*
X11695658Y-15421222D01*
X11695658Y-15421222D02*
X11705182Y-15411698D01*
X11705182Y-15411698D02*
X11724229Y-15402174D01*
X11724229Y-15402174D02*
X11771848Y-15402174D01*
X11771848Y-15402174D02*
X11790896Y-15411698D01*
X11790896Y-15411698D02*
X11800420Y-15421222D01*
X11800420Y-15421222D02*
X11809944Y-15440269D01*
X11809944Y-15440269D02*
X11809944Y-15487888D01*
X11809944Y-15487888D02*
X11800420Y-15506936D01*
X11800420Y-15506936D02*
X11790896Y-15516460D01*
X11790896Y-15516460D02*
X11771848Y-15525984D01*
X11771848Y-15525984D02*
X11724229Y-15525984D01*
X11724229Y-15525984D02*
X11705182Y-15516460D01*
X11705182Y-15516460D02*
X11695658Y-15506936D01*
X11886134Y-15325984D02*
X11886134Y-15364079D01*
X11962325Y-15325984D02*
X11962325Y-15364079D01*
X12257563Y-15602174D02*
X12248039Y-15592650D01*
X12248039Y-15592650D02*
X12228991Y-15564079D01*
X12228991Y-15564079D02*
X12219468Y-15545031D01*
X12219468Y-15545031D02*
X12209944Y-15516460D01*
X12209944Y-15516460D02*
X12200420Y-15468841D01*
X12200420Y-15468841D02*
X12200420Y-15430746D01*
X12200420Y-15430746D02*
X12209944Y-15383127D01*
X12209944Y-15383127D02*
X12219468Y-15354555D01*
X12219468Y-15354555D02*
X12228991Y-15335508D01*
X12228991Y-15335508D02*
X12248039Y-15306936D01*
X12248039Y-15306936D02*
X12257563Y-15297412D01*
X12438515Y-15525984D02*
X12324229Y-15525984D01*
X12381372Y-15525984D02*
X12381372Y-15325984D01*
X12381372Y-15325984D02*
X12362325Y-15354555D01*
X12362325Y-15354555D02*
X12343277Y-15373603D01*
X12343277Y-15373603D02*
X12324229Y-15383127D01*
X12562325Y-15325984D02*
X12581372Y-15325984D01*
X12581372Y-15325984D02*
X12600420Y-15335508D01*
X12600420Y-15335508D02*
X12609944Y-15345031D01*
X12609944Y-15345031D02*
X12619468Y-15364079D01*
X12619468Y-15364079D02*
X12628991Y-15402174D01*
X12628991Y-15402174D02*
X12628991Y-15449793D01*
X12628991Y-15449793D02*
X12619468Y-15487888D01*
X12619468Y-15487888D02*
X12609944Y-15506936D01*
X12609944Y-15506936D02*
X12600420Y-15516460D01*
X12600420Y-15516460D02*
X12581372Y-15525984D01*
X12581372Y-15525984D02*
X12562325Y-15525984D01*
X12562325Y-15525984D02*
X12543277Y-15516460D01*
X12543277Y-15516460D02*
X12533753Y-15506936D01*
X12533753Y-15506936D02*
X12524229Y-15487888D01*
X12524229Y-15487888D02*
X12514706Y-15449793D01*
X12514706Y-15449793D02*
X12514706Y-15402174D01*
X12514706Y-15402174D02*
X12524229Y-15364079D01*
X12524229Y-15364079D02*
X12533753Y-15345031D01*
X12533753Y-15345031D02*
X12543277Y-15335508D01*
X12543277Y-15335508D02*
X12562325Y-15325984D01*
X12867087Y-15525984D02*
X12867087Y-15325984D01*
X12952801Y-15525984D02*
X12952801Y-15421222D01*
X12952801Y-15421222D02*
X12943277Y-15402174D01*
X12943277Y-15402174D02*
X12924230Y-15392650D01*
X12924230Y-15392650D02*
X12895658Y-15392650D01*
X12895658Y-15392650D02*
X12876610Y-15402174D01*
X12876610Y-15402174D02*
X12867087Y-15411698D01*
X13076610Y-15525984D02*
X13057563Y-15516460D01*
X13057563Y-15516460D02*
X13048039Y-15506936D01*
X13048039Y-15506936D02*
X13038515Y-15487888D01*
X13038515Y-15487888D02*
X13038515Y-15430746D01*
X13038515Y-15430746D02*
X13048039Y-15411698D01*
X13048039Y-15411698D02*
X13057563Y-15402174D01*
X13057563Y-15402174D02*
X13076610Y-15392650D01*
X13076610Y-15392650D02*
X13105182Y-15392650D01*
X13105182Y-15392650D02*
X13124230Y-15402174D01*
X13124230Y-15402174D02*
X13133753Y-15411698D01*
X13133753Y-15411698D02*
X13143277Y-15430746D01*
X13143277Y-15430746D02*
X13143277Y-15487888D01*
X13143277Y-15487888D02*
X13133753Y-15506936D01*
X13133753Y-15506936D02*
X13124230Y-15516460D01*
X13124230Y-15516460D02*
X13105182Y-15525984D01*
X13105182Y-15525984D02*
X13076610Y-15525984D01*
X13257563Y-15525984D02*
X13238515Y-15516460D01*
X13238515Y-15516460D02*
X13228991Y-15497412D01*
X13228991Y-15497412D02*
X13228991Y-15325984D01*
X13409944Y-15516460D02*
X13390896Y-15525984D01*
X13390896Y-15525984D02*
X13352801Y-15525984D01*
X13352801Y-15525984D02*
X13333753Y-15516460D01*
X13333753Y-15516460D02*
X13324230Y-15497412D01*
X13324230Y-15497412D02*
X13324230Y-15421222D01*
X13324230Y-15421222D02*
X13333753Y-15402174D01*
X13333753Y-15402174D02*
X13352801Y-15392650D01*
X13352801Y-15392650D02*
X13390896Y-15392650D01*
X13390896Y-15392650D02*
X13409944Y-15402174D01*
X13409944Y-15402174D02*
X13419468Y-15421222D01*
X13419468Y-15421222D02*
X13419468Y-15440269D01*
X13419468Y-15440269D02*
X13324230Y-15459317D01*
X13495658Y-15516460D02*
X13514706Y-15525984D01*
X13514706Y-15525984D02*
X13552801Y-15525984D01*
X13552801Y-15525984D02*
X13571849Y-15516460D01*
X13571849Y-15516460D02*
X13581372Y-15497412D01*
X13581372Y-15497412D02*
X13581372Y-15487888D01*
X13581372Y-15487888D02*
X13571849Y-15468841D01*
X13571849Y-15468841D02*
X13552801Y-15459317D01*
X13552801Y-15459317D02*
X13524230Y-15459317D01*
X13524230Y-15459317D02*
X13505182Y-15449793D01*
X13505182Y-15449793D02*
X13495658Y-15430746D01*
X13495658Y-15430746D02*
X13495658Y-15421222D01*
X13495658Y-15421222D02*
X13505182Y-15402174D01*
X13505182Y-15402174D02*
X13524230Y-15392650D01*
X13524230Y-15392650D02*
X13552801Y-15392650D01*
X13552801Y-15392650D02*
X13571849Y-15402174D01*
X13648039Y-15602174D02*
X13657563Y-15592650D01*
X13657563Y-15592650D02*
X13676611Y-15564079D01*
X13676611Y-15564079D02*
X13686134Y-15545031D01*
X13686134Y-15545031D02*
X13695658Y-15516460D01*
X13695658Y-15516460D02*
X13705182Y-15468841D01*
X13705182Y-15468841D02*
X13705182Y-15430746D01*
X13705182Y-15430746D02*
X13695658Y-15383127D01*
X13695658Y-15383127D02*
X13686134Y-15354555D01*
X13686134Y-15354555D02*
X13676611Y-15335508D01*
X13676611Y-15335508D02*
X13657563Y-15306936D01*
X13657563Y-15306936D02*
X13648039Y-15297412D01*
D12*
X8642500Y-15738500D02*
X8682500Y-15698500D01*
X8642500Y-15658500D01*
X8602500Y-15698500D01*
X8642500Y-15738500D01*
D11*
X8981372Y-15589984D02*
X9000420Y-15589984D01*
X9000420Y-15589984D02*
X9019467Y-15599508D01*
X9019467Y-15599508D02*
X9028991Y-15609031D01*
X9028991Y-15609031D02*
X9038515Y-15628079D01*
X9038515Y-15628079D02*
X9048039Y-15666174D01*
X9048039Y-15666174D02*
X9048039Y-15713793D01*
X9048039Y-15713793D02*
X9038515Y-15751888D01*
X9038515Y-15751888D02*
X9028991Y-15770936D01*
X9028991Y-15770936D02*
X9019467Y-15780460D01*
X9019467Y-15780460D02*
X9000420Y-15789984D01*
X9000420Y-15789984D02*
X8981372Y-15789984D01*
X8981372Y-15789984D02*
X8962324Y-15780460D01*
X8962324Y-15780460D02*
X8952801Y-15770936D01*
X8952801Y-15770936D02*
X8943277Y-15751888D01*
X8943277Y-15751888D02*
X8933753Y-15713793D01*
X8933753Y-15713793D02*
X8933753Y-15666174D01*
X8933753Y-15666174D02*
X8943277Y-15628079D01*
X8943277Y-15628079D02*
X8952801Y-15609031D01*
X8952801Y-15609031D02*
X8962324Y-15599508D01*
X8962324Y-15599508D02*
X8981372Y-15589984D01*
X9133753Y-15770936D02*
X9143277Y-15780460D01*
X9143277Y-15780460D02*
X9133753Y-15789984D01*
X9133753Y-15789984D02*
X9124229Y-15780460D01*
X9124229Y-15780460D02*
X9133753Y-15770936D01*
X9133753Y-15770936D02*
X9133753Y-15789984D01*
X9257563Y-15675698D02*
X9238515Y-15666174D01*
X9238515Y-15666174D02*
X9228991Y-15656650D01*
X9228991Y-15656650D02*
X9219467Y-15637603D01*
X9219467Y-15637603D02*
X9219467Y-15628079D01*
X9219467Y-15628079D02*
X9228991Y-15609031D01*
X9228991Y-15609031D02*
X9238515Y-15599508D01*
X9238515Y-15599508D02*
X9257563Y-15589984D01*
X9257563Y-15589984D02*
X9295658Y-15589984D01*
X9295658Y-15589984D02*
X9314705Y-15599508D01*
X9314705Y-15599508D02*
X9324229Y-15609031D01*
X9324229Y-15609031D02*
X9333753Y-15628079D01*
X9333753Y-15628079D02*
X9333753Y-15637603D01*
X9333753Y-15637603D02*
X9324229Y-15656650D01*
X9324229Y-15656650D02*
X9314705Y-15666174D01*
X9314705Y-15666174D02*
X9295658Y-15675698D01*
X9295658Y-15675698D02*
X9257563Y-15675698D01*
X9257563Y-15675698D02*
X9238515Y-15685222D01*
X9238515Y-15685222D02*
X9228991Y-15694746D01*
X9228991Y-15694746D02*
X9219467Y-15713793D01*
X9219467Y-15713793D02*
X9219467Y-15751888D01*
X9219467Y-15751888D02*
X9228991Y-15770936D01*
X9228991Y-15770936D02*
X9238515Y-15780460D01*
X9238515Y-15780460D02*
X9257563Y-15789984D01*
X9257563Y-15789984D02*
X9295658Y-15789984D01*
X9295658Y-15789984D02*
X9314705Y-15780460D01*
X9314705Y-15780460D02*
X9324229Y-15770936D01*
X9324229Y-15770936D02*
X9333753Y-15751888D01*
X9333753Y-15751888D02*
X9333753Y-15713793D01*
X9333753Y-15713793D02*
X9324229Y-15694746D01*
X9324229Y-15694746D02*
X9314705Y-15685222D01*
X9314705Y-15685222D02*
X9295658Y-15675698D01*
X9457563Y-15589984D02*
X9476610Y-15589984D01*
X9476610Y-15589984D02*
X9495658Y-15599508D01*
X9495658Y-15599508D02*
X9505182Y-15609031D01*
X9505182Y-15609031D02*
X9514705Y-15628079D01*
X9514705Y-15628079D02*
X9524229Y-15666174D01*
X9524229Y-15666174D02*
X9524229Y-15713793D01*
X9524229Y-15713793D02*
X9514705Y-15751888D01*
X9514705Y-15751888D02*
X9505182Y-15770936D01*
X9505182Y-15770936D02*
X9495658Y-15780460D01*
X9495658Y-15780460D02*
X9476610Y-15789984D01*
X9476610Y-15789984D02*
X9457563Y-15789984D01*
X9457563Y-15789984D02*
X9438515Y-15780460D01*
X9438515Y-15780460D02*
X9428991Y-15770936D01*
X9428991Y-15770936D02*
X9419467Y-15751888D01*
X9419467Y-15751888D02*
X9409944Y-15713793D01*
X9409944Y-15713793D02*
X9409944Y-15666174D01*
X9409944Y-15666174D02*
X9419467Y-15628079D01*
X9419467Y-15628079D02*
X9428991Y-15609031D01*
X9428991Y-15609031D02*
X9438515Y-15599508D01*
X9438515Y-15599508D02*
X9457563Y-15589984D01*
X9648039Y-15589984D02*
X9667086Y-15589984D01*
X9667086Y-15589984D02*
X9686134Y-15599508D01*
X9686134Y-15599508D02*
X9695658Y-15609031D01*
X9695658Y-15609031D02*
X9705182Y-15628079D01*
X9705182Y-15628079D02*
X9714705Y-15666174D01*
X9714705Y-15666174D02*
X9714705Y-15713793D01*
X9714705Y-15713793D02*
X9705182Y-15751888D01*
X9705182Y-15751888D02*
X9695658Y-15770936D01*
X9695658Y-15770936D02*
X9686134Y-15780460D01*
X9686134Y-15780460D02*
X9667086Y-15789984D01*
X9667086Y-15789984D02*
X9648039Y-15789984D01*
X9648039Y-15789984D02*
X9628991Y-15780460D01*
X9628991Y-15780460D02*
X9619467Y-15770936D01*
X9619467Y-15770936D02*
X9609944Y-15751888D01*
X9609944Y-15751888D02*
X9600420Y-15713793D01*
X9600420Y-15713793D02*
X9600420Y-15666174D01*
X9600420Y-15666174D02*
X9609944Y-15628079D01*
X9609944Y-15628079D02*
X9619467Y-15609031D01*
X9619467Y-15609031D02*
X9628991Y-15599508D01*
X9628991Y-15599508D02*
X9648039Y-15589984D01*
X9800420Y-15789984D02*
X9800420Y-15656650D01*
X9800420Y-15675698D02*
X9809944Y-15666174D01*
X9809944Y-15666174D02*
X9828991Y-15656650D01*
X9828991Y-15656650D02*
X9857563Y-15656650D01*
X9857563Y-15656650D02*
X9876610Y-15666174D01*
X9876610Y-15666174D02*
X9886134Y-15685222D01*
X9886134Y-15685222D02*
X9886134Y-15789984D01*
X9886134Y-15685222D02*
X9895658Y-15666174D01*
X9895658Y-15666174D02*
X9914705Y-15656650D01*
X9914705Y-15656650D02*
X9943277Y-15656650D01*
X9943277Y-15656650D02*
X9962325Y-15666174D01*
X9962325Y-15666174D02*
X9971848Y-15685222D01*
X9971848Y-15685222D02*
X9971848Y-15789984D01*
X10067086Y-15789984D02*
X10067086Y-15656650D01*
X10067086Y-15675698D02*
X10076610Y-15666174D01*
X10076610Y-15666174D02*
X10095658Y-15656650D01*
X10095658Y-15656650D02*
X10124229Y-15656650D01*
X10124229Y-15656650D02*
X10143277Y-15666174D01*
X10143277Y-15666174D02*
X10152801Y-15685222D01*
X10152801Y-15685222D02*
X10152801Y-15789984D01*
X10152801Y-15685222D02*
X10162325Y-15666174D01*
X10162325Y-15666174D02*
X10181372Y-15656650D01*
X10181372Y-15656650D02*
X10209944Y-15656650D01*
X10209944Y-15656650D02*
X10228991Y-15666174D01*
X10228991Y-15666174D02*
X10238515Y-15685222D01*
X10238515Y-15685222D02*
X10238515Y-15789984D01*
X10628991Y-15580460D02*
X10457563Y-15837603D01*
X10886134Y-15589984D02*
X10905182Y-15589984D01*
X10905182Y-15589984D02*
X10924229Y-15599508D01*
X10924229Y-15599508D02*
X10933753Y-15609031D01*
X10933753Y-15609031D02*
X10943277Y-15628079D01*
X10943277Y-15628079D02*
X10952801Y-15666174D01*
X10952801Y-15666174D02*
X10952801Y-15713793D01*
X10952801Y-15713793D02*
X10943277Y-15751888D01*
X10943277Y-15751888D02*
X10933753Y-15770936D01*
X10933753Y-15770936D02*
X10924229Y-15780460D01*
X10924229Y-15780460D02*
X10905182Y-15789984D01*
X10905182Y-15789984D02*
X10886134Y-15789984D01*
X10886134Y-15789984D02*
X10867087Y-15780460D01*
X10867087Y-15780460D02*
X10857563Y-15770936D01*
X10857563Y-15770936D02*
X10848039Y-15751888D01*
X10848039Y-15751888D02*
X10838515Y-15713793D01*
X10838515Y-15713793D02*
X10838515Y-15666174D01*
X10838515Y-15666174D02*
X10848039Y-15628079D01*
X10848039Y-15628079D02*
X10857563Y-15609031D01*
X10857563Y-15609031D02*
X10867087Y-15599508D01*
X10867087Y-15599508D02*
X10886134Y-15589984D01*
X11038515Y-15770936D02*
X11048039Y-15780460D01*
X11048039Y-15780460D02*
X11038515Y-15789984D01*
X11038515Y-15789984D02*
X11028991Y-15780460D01*
X11028991Y-15780460D02*
X11038515Y-15770936D01*
X11038515Y-15770936D02*
X11038515Y-15789984D01*
X11171848Y-15589984D02*
X11190896Y-15589984D01*
X11190896Y-15589984D02*
X11209944Y-15599508D01*
X11209944Y-15599508D02*
X11219467Y-15609031D01*
X11219467Y-15609031D02*
X11228991Y-15628079D01*
X11228991Y-15628079D02*
X11238515Y-15666174D01*
X11238515Y-15666174D02*
X11238515Y-15713793D01*
X11238515Y-15713793D02*
X11228991Y-15751888D01*
X11228991Y-15751888D02*
X11219467Y-15770936D01*
X11219467Y-15770936D02*
X11209944Y-15780460D01*
X11209944Y-15780460D02*
X11190896Y-15789984D01*
X11190896Y-15789984D02*
X11171848Y-15789984D01*
X11171848Y-15789984D02*
X11152801Y-15780460D01*
X11152801Y-15780460D02*
X11143277Y-15770936D01*
X11143277Y-15770936D02*
X11133753Y-15751888D01*
X11133753Y-15751888D02*
X11124229Y-15713793D01*
X11124229Y-15713793D02*
X11124229Y-15666174D01*
X11124229Y-15666174D02*
X11133753Y-15628079D01*
X11133753Y-15628079D02*
X11143277Y-15609031D01*
X11143277Y-15609031D02*
X11152801Y-15599508D01*
X11152801Y-15599508D02*
X11171848Y-15589984D01*
X11305182Y-15589984D02*
X11428991Y-15589984D01*
X11428991Y-15589984D02*
X11362325Y-15666174D01*
X11362325Y-15666174D02*
X11390896Y-15666174D01*
X11390896Y-15666174D02*
X11409944Y-15675698D01*
X11409944Y-15675698D02*
X11419467Y-15685222D01*
X11419467Y-15685222D02*
X11428991Y-15704269D01*
X11428991Y-15704269D02*
X11428991Y-15751888D01*
X11428991Y-15751888D02*
X11419467Y-15770936D01*
X11419467Y-15770936D02*
X11409944Y-15780460D01*
X11409944Y-15780460D02*
X11390896Y-15789984D01*
X11390896Y-15789984D02*
X11333753Y-15789984D01*
X11333753Y-15789984D02*
X11314706Y-15780460D01*
X11314706Y-15780460D02*
X11305182Y-15770936D01*
X11619467Y-15789984D02*
X11505182Y-15789984D01*
X11562325Y-15789984D02*
X11562325Y-15589984D01*
X11562325Y-15589984D02*
X11543277Y-15618555D01*
X11543277Y-15618555D02*
X11524229Y-15637603D01*
X11524229Y-15637603D02*
X11505182Y-15647127D01*
X11800420Y-15589984D02*
X11705182Y-15589984D01*
X11705182Y-15589984D02*
X11695658Y-15685222D01*
X11695658Y-15685222D02*
X11705182Y-15675698D01*
X11705182Y-15675698D02*
X11724229Y-15666174D01*
X11724229Y-15666174D02*
X11771848Y-15666174D01*
X11771848Y-15666174D02*
X11790896Y-15675698D01*
X11790896Y-15675698D02*
X11800420Y-15685222D01*
X11800420Y-15685222D02*
X11809944Y-15704269D01*
X11809944Y-15704269D02*
X11809944Y-15751888D01*
X11809944Y-15751888D02*
X11800420Y-15770936D01*
X11800420Y-15770936D02*
X11790896Y-15780460D01*
X11790896Y-15780460D02*
X11771848Y-15789984D01*
X11771848Y-15789984D02*
X11724229Y-15789984D01*
X11724229Y-15789984D02*
X11705182Y-15780460D01*
X11705182Y-15780460D02*
X11695658Y-15770936D01*
X11886134Y-15589984D02*
X11886134Y-15628079D01*
X11962325Y-15589984D02*
X11962325Y-15628079D01*
X12257563Y-15866174D02*
X12248039Y-15856650D01*
X12248039Y-15856650D02*
X12228991Y-15828079D01*
X12228991Y-15828079D02*
X12219468Y-15809031D01*
X12219468Y-15809031D02*
X12209944Y-15780460D01*
X12209944Y-15780460D02*
X12200420Y-15732841D01*
X12200420Y-15732841D02*
X12200420Y-15694746D01*
X12200420Y-15694746D02*
X12209944Y-15647127D01*
X12209944Y-15647127D02*
X12219468Y-15618555D01*
X12219468Y-15618555D02*
X12228991Y-15599508D01*
X12228991Y-15599508D02*
X12248039Y-15570936D01*
X12248039Y-15570936D02*
X12257563Y-15561412D01*
X12314706Y-15589984D02*
X12438515Y-15589984D01*
X12438515Y-15589984D02*
X12371848Y-15666174D01*
X12371848Y-15666174D02*
X12400420Y-15666174D01*
X12400420Y-15666174D02*
X12419468Y-15675698D01*
X12419468Y-15675698D02*
X12428991Y-15685222D01*
X12428991Y-15685222D02*
X12438515Y-15704269D01*
X12438515Y-15704269D02*
X12438515Y-15751888D01*
X12438515Y-15751888D02*
X12428991Y-15770936D01*
X12428991Y-15770936D02*
X12419468Y-15780460D01*
X12419468Y-15780460D02*
X12400420Y-15789984D01*
X12400420Y-15789984D02*
X12343277Y-15789984D01*
X12343277Y-15789984D02*
X12324229Y-15780460D01*
X12324229Y-15780460D02*
X12314706Y-15770936D01*
X12676610Y-15789984D02*
X12676610Y-15589984D01*
X12762325Y-15789984D02*
X12762325Y-15685222D01*
X12762325Y-15685222D02*
X12752801Y-15666174D01*
X12752801Y-15666174D02*
X12733753Y-15656650D01*
X12733753Y-15656650D02*
X12705182Y-15656650D01*
X12705182Y-15656650D02*
X12686134Y-15666174D01*
X12686134Y-15666174D02*
X12676610Y-15675698D01*
X12886134Y-15789984D02*
X12867087Y-15780460D01*
X12867087Y-15780460D02*
X12857563Y-15770936D01*
X12857563Y-15770936D02*
X12848039Y-15751888D01*
X12848039Y-15751888D02*
X12848039Y-15694746D01*
X12848039Y-15694746D02*
X12857563Y-15675698D01*
X12857563Y-15675698D02*
X12867087Y-15666174D01*
X12867087Y-15666174D02*
X12886134Y-15656650D01*
X12886134Y-15656650D02*
X12914706Y-15656650D01*
X12914706Y-15656650D02*
X12933753Y-15666174D01*
X12933753Y-15666174D02*
X12943277Y-15675698D01*
X12943277Y-15675698D02*
X12952801Y-15694746D01*
X12952801Y-15694746D02*
X12952801Y-15751888D01*
X12952801Y-15751888D02*
X12943277Y-15770936D01*
X12943277Y-15770936D02*
X12933753Y-15780460D01*
X12933753Y-15780460D02*
X12914706Y-15789984D01*
X12914706Y-15789984D02*
X12886134Y-15789984D01*
X13067087Y-15789984D02*
X13048039Y-15780460D01*
X13048039Y-15780460D02*
X13038515Y-15761412D01*
X13038515Y-15761412D02*
X13038515Y-15589984D01*
X13219468Y-15780460D02*
X13200420Y-15789984D01*
X13200420Y-15789984D02*
X13162325Y-15789984D01*
X13162325Y-15789984D02*
X13143277Y-15780460D01*
X13143277Y-15780460D02*
X13133753Y-15761412D01*
X13133753Y-15761412D02*
X13133753Y-15685222D01*
X13133753Y-15685222D02*
X13143277Y-15666174D01*
X13143277Y-15666174D02*
X13162325Y-15656650D01*
X13162325Y-15656650D02*
X13200420Y-15656650D01*
X13200420Y-15656650D02*
X13219468Y-15666174D01*
X13219468Y-15666174D02*
X13228991Y-15685222D01*
X13228991Y-15685222D02*
X13228991Y-15704269D01*
X13228991Y-15704269D02*
X13133753Y-15723317D01*
X13305182Y-15780460D02*
X13324230Y-15789984D01*
X13324230Y-15789984D02*
X13362325Y-15789984D01*
X13362325Y-15789984D02*
X13381372Y-15780460D01*
X13381372Y-15780460D02*
X13390896Y-15761412D01*
X13390896Y-15761412D02*
X13390896Y-15751888D01*
X13390896Y-15751888D02*
X13381372Y-15732841D01*
X13381372Y-15732841D02*
X13362325Y-15723317D01*
X13362325Y-15723317D02*
X13333753Y-15723317D01*
X13333753Y-15723317D02*
X13314706Y-15713793D01*
X13314706Y-15713793D02*
X13305182Y-15694746D01*
X13305182Y-15694746D02*
X13305182Y-15685222D01*
X13305182Y-15685222D02*
X13314706Y-15666174D01*
X13314706Y-15666174D02*
X13333753Y-15656650D01*
X13333753Y-15656650D02*
X13362325Y-15656650D01*
X13362325Y-15656650D02*
X13381372Y-15666174D01*
X13457563Y-15866174D02*
X13467087Y-15856650D01*
X13467087Y-15856650D02*
X13486134Y-15828079D01*
X13486134Y-15828079D02*
X13495658Y-15809031D01*
X13495658Y-15809031D02*
X13505182Y-15780460D01*
X13505182Y-15780460D02*
X13514706Y-15732841D01*
X13514706Y-15732841D02*
X13514706Y-15694746D01*
X13514706Y-15694746D02*
X13505182Y-15647127D01*
X13505182Y-15647127D02*
X13495658Y-15618555D01*
X13495658Y-15618555D02*
X13486134Y-15599508D01*
X13486134Y-15599508D02*
X13467087Y-15570936D01*
X13467087Y-15570936D02*
X13457563Y-15561412D01*
D13*
X8562500Y-15902500D02*
X8682500Y-16022500D01*
X8682500Y-15902500D02*
X8562500Y-16022500D01*
X8682500Y-15962500D02*
G75*
G02*
X8562500Y-15962500I-60000J0D01*
G01*
X8562500Y-15962500D02*
G75*
G02*
X8682500Y-15962500I60000J0D01*
G01*
D11*
X9048039Y-16053984D02*
X8933753Y-16053984D01*
X8990896Y-16053984D02*
X8990896Y-15853984D01*
X8990896Y-15853984D02*
X8971848Y-15882555D01*
X8971848Y-15882555D02*
X8952801Y-15901603D01*
X8952801Y-15901603D02*
X8933753Y-15911127D01*
X9133753Y-16034936D02*
X9143277Y-16044460D01*
X9143277Y-16044460D02*
X9133753Y-16053984D01*
X9133753Y-16053984D02*
X9124229Y-16044460D01*
X9124229Y-16044460D02*
X9133753Y-16034936D01*
X9133753Y-16034936D02*
X9133753Y-16053984D01*
X9219467Y-15873031D02*
X9228991Y-15863508D01*
X9228991Y-15863508D02*
X9248039Y-15853984D01*
X9248039Y-15853984D02*
X9295658Y-15853984D01*
X9295658Y-15853984D02*
X9314705Y-15863508D01*
X9314705Y-15863508D02*
X9324229Y-15873031D01*
X9324229Y-15873031D02*
X9333753Y-15892079D01*
X9333753Y-15892079D02*
X9333753Y-15911127D01*
X9333753Y-15911127D02*
X9324229Y-15939698D01*
X9324229Y-15939698D02*
X9209944Y-16053984D01*
X9209944Y-16053984D02*
X9333753Y-16053984D01*
X9457563Y-15853984D02*
X9476610Y-15853984D01*
X9476610Y-15853984D02*
X9495658Y-15863508D01*
X9495658Y-15863508D02*
X9505182Y-15873031D01*
X9505182Y-15873031D02*
X9514705Y-15892079D01*
X9514705Y-15892079D02*
X9524229Y-15930174D01*
X9524229Y-15930174D02*
X9524229Y-15977793D01*
X9524229Y-15977793D02*
X9514705Y-16015888D01*
X9514705Y-16015888D02*
X9505182Y-16034936D01*
X9505182Y-16034936D02*
X9495658Y-16044460D01*
X9495658Y-16044460D02*
X9476610Y-16053984D01*
X9476610Y-16053984D02*
X9457563Y-16053984D01*
X9457563Y-16053984D02*
X9438515Y-16044460D01*
X9438515Y-16044460D02*
X9428991Y-16034936D01*
X9428991Y-16034936D02*
X9419467Y-16015888D01*
X9419467Y-16015888D02*
X9409944Y-15977793D01*
X9409944Y-15977793D02*
X9409944Y-15930174D01*
X9409944Y-15930174D02*
X9419467Y-15892079D01*
X9419467Y-15892079D02*
X9428991Y-15873031D01*
X9428991Y-15873031D02*
X9438515Y-15863508D01*
X9438515Y-15863508D02*
X9457563Y-15853984D01*
X9648039Y-15853984D02*
X9667086Y-15853984D01*
X9667086Y-15853984D02*
X9686134Y-15863508D01*
X9686134Y-15863508D02*
X9695658Y-15873031D01*
X9695658Y-15873031D02*
X9705182Y-15892079D01*
X9705182Y-15892079D02*
X9714705Y-15930174D01*
X9714705Y-15930174D02*
X9714705Y-15977793D01*
X9714705Y-15977793D02*
X9705182Y-16015888D01*
X9705182Y-16015888D02*
X9695658Y-16034936D01*
X9695658Y-16034936D02*
X9686134Y-16044460D01*
X9686134Y-16044460D02*
X9667086Y-16053984D01*
X9667086Y-16053984D02*
X9648039Y-16053984D01*
X9648039Y-16053984D02*
X9628991Y-16044460D01*
X9628991Y-16044460D02*
X9619467Y-16034936D01*
X9619467Y-16034936D02*
X9609944Y-16015888D01*
X9609944Y-16015888D02*
X9600420Y-15977793D01*
X9600420Y-15977793D02*
X9600420Y-15930174D01*
X9600420Y-15930174D02*
X9609944Y-15892079D01*
X9609944Y-15892079D02*
X9619467Y-15873031D01*
X9619467Y-15873031D02*
X9628991Y-15863508D01*
X9628991Y-15863508D02*
X9648039Y-15853984D01*
X9800420Y-16053984D02*
X9800420Y-15920650D01*
X9800420Y-15939698D02*
X9809944Y-15930174D01*
X9809944Y-15930174D02*
X9828991Y-15920650D01*
X9828991Y-15920650D02*
X9857563Y-15920650D01*
X9857563Y-15920650D02*
X9876610Y-15930174D01*
X9876610Y-15930174D02*
X9886134Y-15949222D01*
X9886134Y-15949222D02*
X9886134Y-16053984D01*
X9886134Y-15949222D02*
X9895658Y-15930174D01*
X9895658Y-15930174D02*
X9914705Y-15920650D01*
X9914705Y-15920650D02*
X9943277Y-15920650D01*
X9943277Y-15920650D02*
X9962325Y-15930174D01*
X9962325Y-15930174D02*
X9971848Y-15949222D01*
X9971848Y-15949222D02*
X9971848Y-16053984D01*
X10067086Y-16053984D02*
X10067086Y-15920650D01*
X10067086Y-15939698D02*
X10076610Y-15930174D01*
X10076610Y-15930174D02*
X10095658Y-15920650D01*
X10095658Y-15920650D02*
X10124229Y-15920650D01*
X10124229Y-15920650D02*
X10143277Y-15930174D01*
X10143277Y-15930174D02*
X10152801Y-15949222D01*
X10152801Y-15949222D02*
X10152801Y-16053984D01*
X10152801Y-15949222D02*
X10162325Y-15930174D01*
X10162325Y-15930174D02*
X10181372Y-15920650D01*
X10181372Y-15920650D02*
X10209944Y-15920650D01*
X10209944Y-15920650D02*
X10228991Y-15930174D01*
X10228991Y-15930174D02*
X10238515Y-15949222D01*
X10238515Y-15949222D02*
X10238515Y-16053984D01*
X10628991Y-15844460D02*
X10457563Y-16101603D01*
X10886134Y-15853984D02*
X10905182Y-15853984D01*
X10905182Y-15853984D02*
X10924229Y-15863508D01*
X10924229Y-15863508D02*
X10933753Y-15873031D01*
X10933753Y-15873031D02*
X10943277Y-15892079D01*
X10943277Y-15892079D02*
X10952801Y-15930174D01*
X10952801Y-15930174D02*
X10952801Y-15977793D01*
X10952801Y-15977793D02*
X10943277Y-16015888D01*
X10943277Y-16015888D02*
X10933753Y-16034936D01*
X10933753Y-16034936D02*
X10924229Y-16044460D01*
X10924229Y-16044460D02*
X10905182Y-16053984D01*
X10905182Y-16053984D02*
X10886134Y-16053984D01*
X10886134Y-16053984D02*
X10867087Y-16044460D01*
X10867087Y-16044460D02*
X10857563Y-16034936D01*
X10857563Y-16034936D02*
X10848039Y-16015888D01*
X10848039Y-16015888D02*
X10838515Y-15977793D01*
X10838515Y-15977793D02*
X10838515Y-15930174D01*
X10838515Y-15930174D02*
X10848039Y-15892079D01*
X10848039Y-15892079D02*
X10857563Y-15873031D01*
X10857563Y-15873031D02*
X10867087Y-15863508D01*
X10867087Y-15863508D02*
X10886134Y-15853984D01*
X11038515Y-16034936D02*
X11048039Y-16044460D01*
X11048039Y-16044460D02*
X11038515Y-16053984D01*
X11038515Y-16053984D02*
X11028991Y-16044460D01*
X11028991Y-16044460D02*
X11038515Y-16034936D01*
X11038515Y-16034936D02*
X11038515Y-16053984D01*
X11171848Y-15853984D02*
X11190896Y-15853984D01*
X11190896Y-15853984D02*
X11209944Y-15863508D01*
X11209944Y-15863508D02*
X11219467Y-15873031D01*
X11219467Y-15873031D02*
X11228991Y-15892079D01*
X11228991Y-15892079D02*
X11238515Y-15930174D01*
X11238515Y-15930174D02*
X11238515Y-15977793D01*
X11238515Y-15977793D02*
X11228991Y-16015888D01*
X11228991Y-16015888D02*
X11219467Y-16034936D01*
X11219467Y-16034936D02*
X11209944Y-16044460D01*
X11209944Y-16044460D02*
X11190896Y-16053984D01*
X11190896Y-16053984D02*
X11171848Y-16053984D01*
X11171848Y-16053984D02*
X11152801Y-16044460D01*
X11152801Y-16044460D02*
X11143277Y-16034936D01*
X11143277Y-16034936D02*
X11133753Y-16015888D01*
X11133753Y-16015888D02*
X11124229Y-15977793D01*
X11124229Y-15977793D02*
X11124229Y-15930174D01*
X11124229Y-15930174D02*
X11133753Y-15892079D01*
X11133753Y-15892079D02*
X11143277Y-15873031D01*
X11143277Y-15873031D02*
X11152801Y-15863508D01*
X11152801Y-15863508D02*
X11171848Y-15853984D01*
X11409944Y-15920650D02*
X11409944Y-16053984D01*
X11362325Y-15844460D02*
X11314706Y-15987317D01*
X11314706Y-15987317D02*
X11438515Y-15987317D01*
X11495658Y-15853984D02*
X11628991Y-15853984D01*
X11628991Y-15853984D02*
X11543277Y-16053984D01*
X11695658Y-15873031D02*
X11705182Y-15863508D01*
X11705182Y-15863508D02*
X11724229Y-15853984D01*
X11724229Y-15853984D02*
X11771848Y-15853984D01*
X11771848Y-15853984D02*
X11790896Y-15863508D01*
X11790896Y-15863508D02*
X11800420Y-15873031D01*
X11800420Y-15873031D02*
X11809944Y-15892079D01*
X11809944Y-15892079D02*
X11809944Y-15911127D01*
X11809944Y-15911127D02*
X11800420Y-15939698D01*
X11800420Y-15939698D02*
X11686134Y-16053984D01*
X11686134Y-16053984D02*
X11809944Y-16053984D01*
X11886134Y-15853984D02*
X11886134Y-15892079D01*
X11962325Y-15853984D02*
X11962325Y-15892079D01*
X12257563Y-16130174D02*
X12248039Y-16120650D01*
X12248039Y-16120650D02*
X12228991Y-16092079D01*
X12228991Y-16092079D02*
X12219468Y-16073031D01*
X12219468Y-16073031D02*
X12209944Y-16044460D01*
X12209944Y-16044460D02*
X12200420Y-15996841D01*
X12200420Y-15996841D02*
X12200420Y-15958746D01*
X12200420Y-15958746D02*
X12209944Y-15911127D01*
X12209944Y-15911127D02*
X12219468Y-15882555D01*
X12219468Y-15882555D02*
X12228991Y-15863508D01*
X12228991Y-15863508D02*
X12248039Y-15834936D01*
X12248039Y-15834936D02*
X12257563Y-15825412D01*
X12419468Y-15853984D02*
X12381372Y-15853984D01*
X12381372Y-15853984D02*
X12362325Y-15863508D01*
X12362325Y-15863508D02*
X12352801Y-15873031D01*
X12352801Y-15873031D02*
X12333753Y-15901603D01*
X12333753Y-15901603D02*
X12324229Y-15939698D01*
X12324229Y-15939698D02*
X12324229Y-16015888D01*
X12324229Y-16015888D02*
X12333753Y-16034936D01*
X12333753Y-16034936D02*
X12343277Y-16044460D01*
X12343277Y-16044460D02*
X12362325Y-16053984D01*
X12362325Y-16053984D02*
X12400420Y-16053984D01*
X12400420Y-16053984D02*
X12419468Y-16044460D01*
X12419468Y-16044460D02*
X12428991Y-16034936D01*
X12428991Y-16034936D02*
X12438515Y-16015888D01*
X12438515Y-16015888D02*
X12438515Y-15968269D01*
X12438515Y-15968269D02*
X12428991Y-15949222D01*
X12428991Y-15949222D02*
X12419468Y-15939698D01*
X12419468Y-15939698D02*
X12400420Y-15930174D01*
X12400420Y-15930174D02*
X12362325Y-15930174D01*
X12362325Y-15930174D02*
X12343277Y-15939698D01*
X12343277Y-15939698D02*
X12333753Y-15949222D01*
X12333753Y-15949222D02*
X12324229Y-15968269D01*
X12676610Y-16053984D02*
X12676610Y-15853984D01*
X12762325Y-16053984D02*
X12762325Y-15949222D01*
X12762325Y-15949222D02*
X12752801Y-15930174D01*
X12752801Y-15930174D02*
X12733753Y-15920650D01*
X12733753Y-15920650D02*
X12705182Y-15920650D01*
X12705182Y-15920650D02*
X12686134Y-15930174D01*
X12686134Y-15930174D02*
X12676610Y-15939698D01*
X12886134Y-16053984D02*
X12867087Y-16044460D01*
X12867087Y-16044460D02*
X12857563Y-16034936D01*
X12857563Y-16034936D02*
X12848039Y-16015888D01*
X12848039Y-16015888D02*
X12848039Y-15958746D01*
X12848039Y-15958746D02*
X12857563Y-15939698D01*
X12857563Y-15939698D02*
X12867087Y-15930174D01*
X12867087Y-15930174D02*
X12886134Y-15920650D01*
X12886134Y-15920650D02*
X12914706Y-15920650D01*
X12914706Y-15920650D02*
X12933753Y-15930174D01*
X12933753Y-15930174D02*
X12943277Y-15939698D01*
X12943277Y-15939698D02*
X12952801Y-15958746D01*
X12952801Y-15958746D02*
X12952801Y-16015888D01*
X12952801Y-16015888D02*
X12943277Y-16034936D01*
X12943277Y-16034936D02*
X12933753Y-16044460D01*
X12933753Y-16044460D02*
X12914706Y-16053984D01*
X12914706Y-16053984D02*
X12886134Y-16053984D01*
X13067087Y-16053984D02*
X13048039Y-16044460D01*
X13048039Y-16044460D02*
X13038515Y-16025412D01*
X13038515Y-16025412D02*
X13038515Y-15853984D01*
X13219468Y-16044460D02*
X13200420Y-16053984D01*
X13200420Y-16053984D02*
X13162325Y-16053984D01*
X13162325Y-16053984D02*
X13143277Y-16044460D01*
X13143277Y-16044460D02*
X13133753Y-16025412D01*
X13133753Y-16025412D02*
X13133753Y-15949222D01*
X13133753Y-15949222D02*
X13143277Y-15930174D01*
X13143277Y-15930174D02*
X13162325Y-15920650D01*
X13162325Y-15920650D02*
X13200420Y-15920650D01*
X13200420Y-15920650D02*
X13219468Y-15930174D01*
X13219468Y-15930174D02*
X13228991Y-15949222D01*
X13228991Y-15949222D02*
X13228991Y-15968269D01*
X13228991Y-15968269D02*
X13133753Y-15987317D01*
X13305182Y-16044460D02*
X13324230Y-16053984D01*
X13324230Y-16053984D02*
X13362325Y-16053984D01*
X13362325Y-16053984D02*
X13381372Y-16044460D01*
X13381372Y-16044460D02*
X13390896Y-16025412D01*
X13390896Y-16025412D02*
X13390896Y-16015888D01*
X13390896Y-16015888D02*
X13381372Y-15996841D01*
X13381372Y-15996841D02*
X13362325Y-15987317D01*
X13362325Y-15987317D02*
X13333753Y-15987317D01*
X13333753Y-15987317D02*
X13314706Y-15977793D01*
X13314706Y-15977793D02*
X13305182Y-15958746D01*
X13305182Y-15958746D02*
X13305182Y-15949222D01*
X13305182Y-15949222D02*
X13314706Y-15930174D01*
X13314706Y-15930174D02*
X13333753Y-15920650D01*
X13333753Y-15920650D02*
X13362325Y-15920650D01*
X13362325Y-15920650D02*
X13381372Y-15930174D01*
X13457563Y-16130174D02*
X13467087Y-16120650D01*
X13467087Y-16120650D02*
X13486134Y-16092079D01*
X13486134Y-16092079D02*
X13495658Y-16073031D01*
X13495658Y-16073031D02*
X13505182Y-16044460D01*
X13505182Y-16044460D02*
X13514706Y-15996841D01*
X13514706Y-15996841D02*
X13514706Y-15958746D01*
X13514706Y-15958746D02*
X13505182Y-15911127D01*
X13505182Y-15911127D02*
X13495658Y-15882555D01*
X13495658Y-15882555D02*
X13486134Y-15863508D01*
X13486134Y-15863508D02*
X13467087Y-15834936D01*
X13467087Y-15834936D02*
X13457563Y-15825412D01*
D14*
X8552500Y-16161500D02*
X8682500Y-16291500D01*
X8682500Y-16161500D02*
X8552500Y-16291500D01*
X8617500Y-16161500D02*
X8617500Y-16291500D01*
X8552500Y-16226500D02*
X8682500Y-16226500D01*
D11*
X9048039Y-16317984D02*
X8933753Y-16317984D01*
X8990896Y-16317984D02*
X8990896Y-16117984D01*
X8990896Y-16117984D02*
X8971848Y-16146555D01*
X8971848Y-16146555D02*
X8952801Y-16165603D01*
X8952801Y-16165603D02*
X8933753Y-16175127D01*
X9133753Y-16298936D02*
X9143277Y-16308460D01*
X9143277Y-16308460D02*
X9133753Y-16317984D01*
X9133753Y-16317984D02*
X9124229Y-16308460D01*
X9124229Y-16308460D02*
X9133753Y-16298936D01*
X9133753Y-16298936D02*
X9133753Y-16317984D01*
X9209944Y-16117984D02*
X9333753Y-16117984D01*
X9333753Y-16117984D02*
X9267086Y-16194174D01*
X9267086Y-16194174D02*
X9295658Y-16194174D01*
X9295658Y-16194174D02*
X9314705Y-16203698D01*
X9314705Y-16203698D02*
X9324229Y-16213222D01*
X9324229Y-16213222D02*
X9333753Y-16232269D01*
X9333753Y-16232269D02*
X9333753Y-16279888D01*
X9333753Y-16279888D02*
X9324229Y-16298936D01*
X9324229Y-16298936D02*
X9314705Y-16308460D01*
X9314705Y-16308460D02*
X9295658Y-16317984D01*
X9295658Y-16317984D02*
X9238515Y-16317984D01*
X9238515Y-16317984D02*
X9219467Y-16308460D01*
X9219467Y-16308460D02*
X9209944Y-16298936D01*
X9457563Y-16117984D02*
X9476610Y-16117984D01*
X9476610Y-16117984D02*
X9495658Y-16127508D01*
X9495658Y-16127508D02*
X9505182Y-16137031D01*
X9505182Y-16137031D02*
X9514705Y-16156079D01*
X9514705Y-16156079D02*
X9524229Y-16194174D01*
X9524229Y-16194174D02*
X9524229Y-16241793D01*
X9524229Y-16241793D02*
X9514705Y-16279888D01*
X9514705Y-16279888D02*
X9505182Y-16298936D01*
X9505182Y-16298936D02*
X9495658Y-16308460D01*
X9495658Y-16308460D02*
X9476610Y-16317984D01*
X9476610Y-16317984D02*
X9457563Y-16317984D01*
X9457563Y-16317984D02*
X9438515Y-16308460D01*
X9438515Y-16308460D02*
X9428991Y-16298936D01*
X9428991Y-16298936D02*
X9419467Y-16279888D01*
X9419467Y-16279888D02*
X9409944Y-16241793D01*
X9409944Y-16241793D02*
X9409944Y-16194174D01*
X9409944Y-16194174D02*
X9419467Y-16156079D01*
X9419467Y-16156079D02*
X9428991Y-16137031D01*
X9428991Y-16137031D02*
X9438515Y-16127508D01*
X9438515Y-16127508D02*
X9457563Y-16117984D01*
X9648039Y-16117984D02*
X9667086Y-16117984D01*
X9667086Y-16117984D02*
X9686134Y-16127508D01*
X9686134Y-16127508D02*
X9695658Y-16137031D01*
X9695658Y-16137031D02*
X9705182Y-16156079D01*
X9705182Y-16156079D02*
X9714705Y-16194174D01*
X9714705Y-16194174D02*
X9714705Y-16241793D01*
X9714705Y-16241793D02*
X9705182Y-16279888D01*
X9705182Y-16279888D02*
X9695658Y-16298936D01*
X9695658Y-16298936D02*
X9686134Y-16308460D01*
X9686134Y-16308460D02*
X9667086Y-16317984D01*
X9667086Y-16317984D02*
X9648039Y-16317984D01*
X9648039Y-16317984D02*
X9628991Y-16308460D01*
X9628991Y-16308460D02*
X9619467Y-16298936D01*
X9619467Y-16298936D02*
X9609944Y-16279888D01*
X9609944Y-16279888D02*
X9600420Y-16241793D01*
X9600420Y-16241793D02*
X9600420Y-16194174D01*
X9600420Y-16194174D02*
X9609944Y-16156079D01*
X9609944Y-16156079D02*
X9619467Y-16137031D01*
X9619467Y-16137031D02*
X9628991Y-16127508D01*
X9628991Y-16127508D02*
X9648039Y-16117984D01*
X9800420Y-16317984D02*
X9800420Y-16184650D01*
X9800420Y-16203698D02*
X9809944Y-16194174D01*
X9809944Y-16194174D02*
X9828991Y-16184650D01*
X9828991Y-16184650D02*
X9857563Y-16184650D01*
X9857563Y-16184650D02*
X9876610Y-16194174D01*
X9876610Y-16194174D02*
X9886134Y-16213222D01*
X9886134Y-16213222D02*
X9886134Y-16317984D01*
X9886134Y-16213222D02*
X9895658Y-16194174D01*
X9895658Y-16194174D02*
X9914705Y-16184650D01*
X9914705Y-16184650D02*
X9943277Y-16184650D01*
X9943277Y-16184650D02*
X9962325Y-16194174D01*
X9962325Y-16194174D02*
X9971848Y-16213222D01*
X9971848Y-16213222D02*
X9971848Y-16317984D01*
X10067086Y-16317984D02*
X10067086Y-16184650D01*
X10067086Y-16203698D02*
X10076610Y-16194174D01*
X10076610Y-16194174D02*
X10095658Y-16184650D01*
X10095658Y-16184650D02*
X10124229Y-16184650D01*
X10124229Y-16184650D02*
X10143277Y-16194174D01*
X10143277Y-16194174D02*
X10152801Y-16213222D01*
X10152801Y-16213222D02*
X10152801Y-16317984D01*
X10152801Y-16213222D02*
X10162325Y-16194174D01*
X10162325Y-16194174D02*
X10181372Y-16184650D01*
X10181372Y-16184650D02*
X10209944Y-16184650D01*
X10209944Y-16184650D02*
X10228991Y-16194174D01*
X10228991Y-16194174D02*
X10238515Y-16213222D01*
X10238515Y-16213222D02*
X10238515Y-16317984D01*
X10628991Y-16108460D02*
X10457563Y-16365603D01*
X10886134Y-16117984D02*
X10905182Y-16117984D01*
X10905182Y-16117984D02*
X10924229Y-16127508D01*
X10924229Y-16127508D02*
X10933753Y-16137031D01*
X10933753Y-16137031D02*
X10943277Y-16156079D01*
X10943277Y-16156079D02*
X10952801Y-16194174D01*
X10952801Y-16194174D02*
X10952801Y-16241793D01*
X10952801Y-16241793D02*
X10943277Y-16279888D01*
X10943277Y-16279888D02*
X10933753Y-16298936D01*
X10933753Y-16298936D02*
X10924229Y-16308460D01*
X10924229Y-16308460D02*
X10905182Y-16317984D01*
X10905182Y-16317984D02*
X10886134Y-16317984D01*
X10886134Y-16317984D02*
X10867087Y-16308460D01*
X10867087Y-16308460D02*
X10857563Y-16298936D01*
X10857563Y-16298936D02*
X10848039Y-16279888D01*
X10848039Y-16279888D02*
X10838515Y-16241793D01*
X10838515Y-16241793D02*
X10838515Y-16194174D01*
X10838515Y-16194174D02*
X10848039Y-16156079D01*
X10848039Y-16156079D02*
X10857563Y-16137031D01*
X10857563Y-16137031D02*
X10867087Y-16127508D01*
X10867087Y-16127508D02*
X10886134Y-16117984D01*
X11038515Y-16298936D02*
X11048039Y-16308460D01*
X11048039Y-16308460D02*
X11038515Y-16317984D01*
X11038515Y-16317984D02*
X11028991Y-16308460D01*
X11028991Y-16308460D02*
X11038515Y-16298936D01*
X11038515Y-16298936D02*
X11038515Y-16317984D01*
X11171848Y-16117984D02*
X11190896Y-16117984D01*
X11190896Y-16117984D02*
X11209944Y-16127508D01*
X11209944Y-16127508D02*
X11219467Y-16137031D01*
X11219467Y-16137031D02*
X11228991Y-16156079D01*
X11228991Y-16156079D02*
X11238515Y-16194174D01*
X11238515Y-16194174D02*
X11238515Y-16241793D01*
X11238515Y-16241793D02*
X11228991Y-16279888D01*
X11228991Y-16279888D02*
X11219467Y-16298936D01*
X11219467Y-16298936D02*
X11209944Y-16308460D01*
X11209944Y-16308460D02*
X11190896Y-16317984D01*
X11190896Y-16317984D02*
X11171848Y-16317984D01*
X11171848Y-16317984D02*
X11152801Y-16308460D01*
X11152801Y-16308460D02*
X11143277Y-16298936D01*
X11143277Y-16298936D02*
X11133753Y-16279888D01*
X11133753Y-16279888D02*
X11124229Y-16241793D01*
X11124229Y-16241793D02*
X11124229Y-16194174D01*
X11124229Y-16194174D02*
X11133753Y-16156079D01*
X11133753Y-16156079D02*
X11143277Y-16137031D01*
X11143277Y-16137031D02*
X11152801Y-16127508D01*
X11152801Y-16127508D02*
X11171848Y-16117984D01*
X11419467Y-16117984D02*
X11324229Y-16117984D01*
X11324229Y-16117984D02*
X11314706Y-16213222D01*
X11314706Y-16213222D02*
X11324229Y-16203698D01*
X11324229Y-16203698D02*
X11343277Y-16194174D01*
X11343277Y-16194174D02*
X11390896Y-16194174D01*
X11390896Y-16194174D02*
X11409944Y-16203698D01*
X11409944Y-16203698D02*
X11419467Y-16213222D01*
X11419467Y-16213222D02*
X11428991Y-16232269D01*
X11428991Y-16232269D02*
X11428991Y-16279888D01*
X11428991Y-16279888D02*
X11419467Y-16298936D01*
X11419467Y-16298936D02*
X11409944Y-16308460D01*
X11409944Y-16308460D02*
X11390896Y-16317984D01*
X11390896Y-16317984D02*
X11343277Y-16317984D01*
X11343277Y-16317984D02*
X11324229Y-16308460D01*
X11324229Y-16308460D02*
X11314706Y-16298936D01*
X11619467Y-16317984D02*
X11505182Y-16317984D01*
X11562325Y-16317984D02*
X11562325Y-16117984D01*
X11562325Y-16117984D02*
X11543277Y-16146555D01*
X11543277Y-16146555D02*
X11524229Y-16165603D01*
X11524229Y-16165603D02*
X11505182Y-16175127D01*
X11695658Y-16137031D02*
X11705182Y-16127508D01*
X11705182Y-16127508D02*
X11724229Y-16117984D01*
X11724229Y-16117984D02*
X11771848Y-16117984D01*
X11771848Y-16117984D02*
X11790896Y-16127508D01*
X11790896Y-16127508D02*
X11800420Y-16137031D01*
X11800420Y-16137031D02*
X11809944Y-16156079D01*
X11809944Y-16156079D02*
X11809944Y-16175127D01*
X11809944Y-16175127D02*
X11800420Y-16203698D01*
X11800420Y-16203698D02*
X11686134Y-16317984D01*
X11686134Y-16317984D02*
X11809944Y-16317984D01*
X11886134Y-16117984D02*
X11886134Y-16156079D01*
X11962325Y-16117984D02*
X11962325Y-16156079D01*
X12257563Y-16394174D02*
X12248039Y-16384650D01*
X12248039Y-16384650D02*
X12228991Y-16356079D01*
X12228991Y-16356079D02*
X12219468Y-16337031D01*
X12219468Y-16337031D02*
X12209944Y-16308460D01*
X12209944Y-16308460D02*
X12200420Y-16260841D01*
X12200420Y-16260841D02*
X12200420Y-16222746D01*
X12200420Y-16222746D02*
X12209944Y-16175127D01*
X12209944Y-16175127D02*
X12219468Y-16146555D01*
X12219468Y-16146555D02*
X12228991Y-16127508D01*
X12228991Y-16127508D02*
X12248039Y-16098936D01*
X12248039Y-16098936D02*
X12257563Y-16089412D01*
X12419468Y-16117984D02*
X12381372Y-16117984D01*
X12381372Y-16117984D02*
X12362325Y-16127508D01*
X12362325Y-16127508D02*
X12352801Y-16137031D01*
X12352801Y-16137031D02*
X12333753Y-16165603D01*
X12333753Y-16165603D02*
X12324229Y-16203698D01*
X12324229Y-16203698D02*
X12324229Y-16279888D01*
X12324229Y-16279888D02*
X12333753Y-16298936D01*
X12333753Y-16298936D02*
X12343277Y-16308460D01*
X12343277Y-16308460D02*
X12362325Y-16317984D01*
X12362325Y-16317984D02*
X12400420Y-16317984D01*
X12400420Y-16317984D02*
X12419468Y-16308460D01*
X12419468Y-16308460D02*
X12428991Y-16298936D01*
X12428991Y-16298936D02*
X12438515Y-16279888D01*
X12438515Y-16279888D02*
X12438515Y-16232269D01*
X12438515Y-16232269D02*
X12428991Y-16213222D01*
X12428991Y-16213222D02*
X12419468Y-16203698D01*
X12419468Y-16203698D02*
X12400420Y-16194174D01*
X12400420Y-16194174D02*
X12362325Y-16194174D01*
X12362325Y-16194174D02*
X12343277Y-16203698D01*
X12343277Y-16203698D02*
X12333753Y-16213222D01*
X12333753Y-16213222D02*
X12324229Y-16232269D01*
X12676610Y-16317984D02*
X12676610Y-16117984D01*
X12762325Y-16317984D02*
X12762325Y-16213222D01*
X12762325Y-16213222D02*
X12752801Y-16194174D01*
X12752801Y-16194174D02*
X12733753Y-16184650D01*
X12733753Y-16184650D02*
X12705182Y-16184650D01*
X12705182Y-16184650D02*
X12686134Y-16194174D01*
X12686134Y-16194174D02*
X12676610Y-16203698D01*
X12886134Y-16317984D02*
X12867087Y-16308460D01*
X12867087Y-16308460D02*
X12857563Y-16298936D01*
X12857563Y-16298936D02*
X12848039Y-16279888D01*
X12848039Y-16279888D02*
X12848039Y-16222746D01*
X12848039Y-16222746D02*
X12857563Y-16203698D01*
X12857563Y-16203698D02*
X12867087Y-16194174D01*
X12867087Y-16194174D02*
X12886134Y-16184650D01*
X12886134Y-16184650D02*
X12914706Y-16184650D01*
X12914706Y-16184650D02*
X12933753Y-16194174D01*
X12933753Y-16194174D02*
X12943277Y-16203698D01*
X12943277Y-16203698D02*
X12952801Y-16222746D01*
X12952801Y-16222746D02*
X12952801Y-16279888D01*
X12952801Y-16279888D02*
X12943277Y-16298936D01*
X12943277Y-16298936D02*
X12933753Y-16308460D01*
X12933753Y-16308460D02*
X12914706Y-16317984D01*
X12914706Y-16317984D02*
X12886134Y-16317984D01*
X13067087Y-16317984D02*
X13048039Y-16308460D01*
X13048039Y-16308460D02*
X13038515Y-16289412D01*
X13038515Y-16289412D02*
X13038515Y-16117984D01*
X13219468Y-16308460D02*
X13200420Y-16317984D01*
X13200420Y-16317984D02*
X13162325Y-16317984D01*
X13162325Y-16317984D02*
X13143277Y-16308460D01*
X13143277Y-16308460D02*
X13133753Y-16289412D01*
X13133753Y-16289412D02*
X13133753Y-16213222D01*
X13133753Y-16213222D02*
X13143277Y-16194174D01*
X13143277Y-16194174D02*
X13162325Y-16184650D01*
X13162325Y-16184650D02*
X13200420Y-16184650D01*
X13200420Y-16184650D02*
X13219468Y-16194174D01*
X13219468Y-16194174D02*
X13228991Y-16213222D01*
X13228991Y-16213222D02*
X13228991Y-16232269D01*
X13228991Y-16232269D02*
X13133753Y-16251317D01*
X13305182Y-16308460D02*
X13324230Y-16317984D01*
X13324230Y-16317984D02*
X13362325Y-16317984D01*
X13362325Y-16317984D02*
X13381372Y-16308460D01*
X13381372Y-16308460D02*
X13390896Y-16289412D01*
X13390896Y-16289412D02*
X13390896Y-16279888D01*
X13390896Y-16279888D02*
X13381372Y-16260841D01*
X13381372Y-16260841D02*
X13362325Y-16251317D01*
X13362325Y-16251317D02*
X13333753Y-16251317D01*
X13333753Y-16251317D02*
X13314706Y-16241793D01*
X13314706Y-16241793D02*
X13305182Y-16222746D01*
X13305182Y-16222746D02*
X13305182Y-16213222D01*
X13305182Y-16213222D02*
X13314706Y-16194174D01*
X13314706Y-16194174D02*
X13333753Y-16184650D01*
X13333753Y-16184650D02*
X13362325Y-16184650D01*
X13362325Y-16184650D02*
X13381372Y-16194174D01*
X13457563Y-16394174D02*
X13467087Y-16384650D01*
X13467087Y-16384650D02*
X13486134Y-16356079D01*
X13486134Y-16356079D02*
X13495658Y-16337031D01*
X13495658Y-16337031D02*
X13505182Y-16308460D01*
X13505182Y-16308460D02*
X13514706Y-16260841D01*
X13514706Y-16260841D02*
X13514706Y-16222746D01*
X13514706Y-16222746D02*
X13505182Y-16175127D01*
X13505182Y-16175127D02*
X13495658Y-16146555D01*
X13495658Y-16146555D02*
X13486134Y-16127508D01*
X13486134Y-16127508D02*
X13467087Y-16098936D01*
X13467087Y-16098936D02*
X13457563Y-16089412D01*
D15*
X8532500Y-16415500D02*
X8682500Y-16565500D01*
X8682500Y-16415500D02*
X8532500Y-16565500D01*
X8660534Y-16543533D02*
X8660534Y-16437466D01*
X8554467Y-16437466D01*
X8554467Y-16543533D01*
X8660534Y-16543533D01*
D11*
X9048039Y-16581984D02*
X8933753Y-16581984D01*
X8990896Y-16581984D02*
X8990896Y-16381984D01*
X8990896Y-16381984D02*
X8971848Y-16410555D01*
X8971848Y-16410555D02*
X8952801Y-16429603D01*
X8952801Y-16429603D02*
X8933753Y-16439127D01*
X9133753Y-16562936D02*
X9143277Y-16572460D01*
X9143277Y-16572460D02*
X9133753Y-16581984D01*
X9133753Y-16581984D02*
X9124229Y-16572460D01*
X9124229Y-16572460D02*
X9133753Y-16562936D01*
X9133753Y-16562936D02*
X9133753Y-16581984D01*
X9324229Y-16381984D02*
X9228991Y-16381984D01*
X9228991Y-16381984D02*
X9219467Y-16477222D01*
X9219467Y-16477222D02*
X9228991Y-16467698D01*
X9228991Y-16467698D02*
X9248039Y-16458174D01*
X9248039Y-16458174D02*
X9295658Y-16458174D01*
X9295658Y-16458174D02*
X9314705Y-16467698D01*
X9314705Y-16467698D02*
X9324229Y-16477222D01*
X9324229Y-16477222D02*
X9333753Y-16496269D01*
X9333753Y-16496269D02*
X9333753Y-16543888D01*
X9333753Y-16543888D02*
X9324229Y-16562936D01*
X9324229Y-16562936D02*
X9314705Y-16572460D01*
X9314705Y-16572460D02*
X9295658Y-16581984D01*
X9295658Y-16581984D02*
X9248039Y-16581984D01*
X9248039Y-16581984D02*
X9228991Y-16572460D01*
X9228991Y-16572460D02*
X9219467Y-16562936D01*
X9457563Y-16381984D02*
X9476610Y-16381984D01*
X9476610Y-16381984D02*
X9495658Y-16391508D01*
X9495658Y-16391508D02*
X9505182Y-16401031D01*
X9505182Y-16401031D02*
X9514705Y-16420079D01*
X9514705Y-16420079D02*
X9524229Y-16458174D01*
X9524229Y-16458174D02*
X9524229Y-16505793D01*
X9524229Y-16505793D02*
X9514705Y-16543888D01*
X9514705Y-16543888D02*
X9505182Y-16562936D01*
X9505182Y-16562936D02*
X9495658Y-16572460D01*
X9495658Y-16572460D02*
X9476610Y-16581984D01*
X9476610Y-16581984D02*
X9457563Y-16581984D01*
X9457563Y-16581984D02*
X9438515Y-16572460D01*
X9438515Y-16572460D02*
X9428991Y-16562936D01*
X9428991Y-16562936D02*
X9419467Y-16543888D01*
X9419467Y-16543888D02*
X9409944Y-16505793D01*
X9409944Y-16505793D02*
X9409944Y-16458174D01*
X9409944Y-16458174D02*
X9419467Y-16420079D01*
X9419467Y-16420079D02*
X9428991Y-16401031D01*
X9428991Y-16401031D02*
X9438515Y-16391508D01*
X9438515Y-16391508D02*
X9457563Y-16381984D01*
X9648039Y-16381984D02*
X9667086Y-16381984D01*
X9667086Y-16381984D02*
X9686134Y-16391508D01*
X9686134Y-16391508D02*
X9695658Y-16401031D01*
X9695658Y-16401031D02*
X9705182Y-16420079D01*
X9705182Y-16420079D02*
X9714705Y-16458174D01*
X9714705Y-16458174D02*
X9714705Y-16505793D01*
X9714705Y-16505793D02*
X9705182Y-16543888D01*
X9705182Y-16543888D02*
X9695658Y-16562936D01*
X9695658Y-16562936D02*
X9686134Y-16572460D01*
X9686134Y-16572460D02*
X9667086Y-16581984D01*
X9667086Y-16581984D02*
X9648039Y-16581984D01*
X9648039Y-16581984D02*
X9628991Y-16572460D01*
X9628991Y-16572460D02*
X9619467Y-16562936D01*
X9619467Y-16562936D02*
X9609944Y-16543888D01*
X9609944Y-16543888D02*
X9600420Y-16505793D01*
X9600420Y-16505793D02*
X9600420Y-16458174D01*
X9600420Y-16458174D02*
X9609944Y-16420079D01*
X9609944Y-16420079D02*
X9619467Y-16401031D01*
X9619467Y-16401031D02*
X9628991Y-16391508D01*
X9628991Y-16391508D02*
X9648039Y-16381984D01*
X9800420Y-16581984D02*
X9800420Y-16448650D01*
X9800420Y-16467698D02*
X9809944Y-16458174D01*
X9809944Y-16458174D02*
X9828991Y-16448650D01*
X9828991Y-16448650D02*
X9857563Y-16448650D01*
X9857563Y-16448650D02*
X9876610Y-16458174D01*
X9876610Y-16458174D02*
X9886134Y-16477222D01*
X9886134Y-16477222D02*
X9886134Y-16581984D01*
X9886134Y-16477222D02*
X9895658Y-16458174D01*
X9895658Y-16458174D02*
X9914705Y-16448650D01*
X9914705Y-16448650D02*
X9943277Y-16448650D01*
X9943277Y-16448650D02*
X9962325Y-16458174D01*
X9962325Y-16458174D02*
X9971848Y-16477222D01*
X9971848Y-16477222D02*
X9971848Y-16581984D01*
X10067086Y-16581984D02*
X10067086Y-16448650D01*
X10067086Y-16467698D02*
X10076610Y-16458174D01*
X10076610Y-16458174D02*
X10095658Y-16448650D01*
X10095658Y-16448650D02*
X10124229Y-16448650D01*
X10124229Y-16448650D02*
X10143277Y-16458174D01*
X10143277Y-16458174D02*
X10152801Y-16477222D01*
X10152801Y-16477222D02*
X10152801Y-16581984D01*
X10152801Y-16477222D02*
X10162325Y-16458174D01*
X10162325Y-16458174D02*
X10181372Y-16448650D01*
X10181372Y-16448650D02*
X10209944Y-16448650D01*
X10209944Y-16448650D02*
X10228991Y-16458174D01*
X10228991Y-16458174D02*
X10238515Y-16477222D01*
X10238515Y-16477222D02*
X10238515Y-16581984D01*
X10628991Y-16372460D02*
X10457563Y-16629603D01*
X10886134Y-16381984D02*
X10905182Y-16381984D01*
X10905182Y-16381984D02*
X10924229Y-16391508D01*
X10924229Y-16391508D02*
X10933753Y-16401031D01*
X10933753Y-16401031D02*
X10943277Y-16420079D01*
X10943277Y-16420079D02*
X10952801Y-16458174D01*
X10952801Y-16458174D02*
X10952801Y-16505793D01*
X10952801Y-16505793D02*
X10943277Y-16543888D01*
X10943277Y-16543888D02*
X10933753Y-16562936D01*
X10933753Y-16562936D02*
X10924229Y-16572460D01*
X10924229Y-16572460D02*
X10905182Y-16581984D01*
X10905182Y-16581984D02*
X10886134Y-16581984D01*
X10886134Y-16581984D02*
X10867087Y-16572460D01*
X10867087Y-16572460D02*
X10857563Y-16562936D01*
X10857563Y-16562936D02*
X10848039Y-16543888D01*
X10848039Y-16543888D02*
X10838515Y-16505793D01*
X10838515Y-16505793D02*
X10838515Y-16458174D01*
X10838515Y-16458174D02*
X10848039Y-16420079D01*
X10848039Y-16420079D02*
X10857563Y-16401031D01*
X10857563Y-16401031D02*
X10867087Y-16391508D01*
X10867087Y-16391508D02*
X10886134Y-16381984D01*
X11038515Y-16562936D02*
X11048039Y-16572460D01*
X11048039Y-16572460D02*
X11038515Y-16581984D01*
X11038515Y-16581984D02*
X11028991Y-16572460D01*
X11028991Y-16572460D02*
X11038515Y-16562936D01*
X11038515Y-16562936D02*
X11038515Y-16581984D01*
X11171848Y-16381984D02*
X11190896Y-16381984D01*
X11190896Y-16381984D02*
X11209944Y-16391508D01*
X11209944Y-16391508D02*
X11219467Y-16401031D01*
X11219467Y-16401031D02*
X11228991Y-16420079D01*
X11228991Y-16420079D02*
X11238515Y-16458174D01*
X11238515Y-16458174D02*
X11238515Y-16505793D01*
X11238515Y-16505793D02*
X11228991Y-16543888D01*
X11228991Y-16543888D02*
X11219467Y-16562936D01*
X11219467Y-16562936D02*
X11209944Y-16572460D01*
X11209944Y-16572460D02*
X11190896Y-16581984D01*
X11190896Y-16581984D02*
X11171848Y-16581984D01*
X11171848Y-16581984D02*
X11152801Y-16572460D01*
X11152801Y-16572460D02*
X11143277Y-16562936D01*
X11143277Y-16562936D02*
X11133753Y-16543888D01*
X11133753Y-16543888D02*
X11124229Y-16505793D01*
X11124229Y-16505793D02*
X11124229Y-16458174D01*
X11124229Y-16458174D02*
X11133753Y-16420079D01*
X11133753Y-16420079D02*
X11143277Y-16401031D01*
X11143277Y-16401031D02*
X11152801Y-16391508D01*
X11152801Y-16391508D02*
X11171848Y-16381984D01*
X11419467Y-16381984D02*
X11324229Y-16381984D01*
X11324229Y-16381984D02*
X11314706Y-16477222D01*
X11314706Y-16477222D02*
X11324229Y-16467698D01*
X11324229Y-16467698D02*
X11343277Y-16458174D01*
X11343277Y-16458174D02*
X11390896Y-16458174D01*
X11390896Y-16458174D02*
X11409944Y-16467698D01*
X11409944Y-16467698D02*
X11419467Y-16477222D01*
X11419467Y-16477222D02*
X11428991Y-16496269D01*
X11428991Y-16496269D02*
X11428991Y-16543888D01*
X11428991Y-16543888D02*
X11419467Y-16562936D01*
X11419467Y-16562936D02*
X11409944Y-16572460D01*
X11409944Y-16572460D02*
X11390896Y-16581984D01*
X11390896Y-16581984D02*
X11343277Y-16581984D01*
X11343277Y-16581984D02*
X11324229Y-16572460D01*
X11324229Y-16572460D02*
X11314706Y-16562936D01*
X11524229Y-16581984D02*
X11562325Y-16581984D01*
X11562325Y-16581984D02*
X11581372Y-16572460D01*
X11581372Y-16572460D02*
X11590896Y-16562936D01*
X11590896Y-16562936D02*
X11609944Y-16534365D01*
X11609944Y-16534365D02*
X11619467Y-16496269D01*
X11619467Y-16496269D02*
X11619467Y-16420079D01*
X11619467Y-16420079D02*
X11609944Y-16401031D01*
X11609944Y-16401031D02*
X11600420Y-16391508D01*
X11600420Y-16391508D02*
X11581372Y-16381984D01*
X11581372Y-16381984D02*
X11543277Y-16381984D01*
X11543277Y-16381984D02*
X11524229Y-16391508D01*
X11524229Y-16391508D02*
X11514706Y-16401031D01*
X11514706Y-16401031D02*
X11505182Y-16420079D01*
X11505182Y-16420079D02*
X11505182Y-16467698D01*
X11505182Y-16467698D02*
X11514706Y-16486746D01*
X11514706Y-16486746D02*
X11524229Y-16496269D01*
X11524229Y-16496269D02*
X11543277Y-16505793D01*
X11543277Y-16505793D02*
X11581372Y-16505793D01*
X11581372Y-16505793D02*
X11600420Y-16496269D01*
X11600420Y-16496269D02*
X11609944Y-16486746D01*
X11609944Y-16486746D02*
X11619467Y-16467698D01*
X11809944Y-16581984D02*
X11695658Y-16581984D01*
X11752801Y-16581984D02*
X11752801Y-16381984D01*
X11752801Y-16381984D02*
X11733753Y-16410555D01*
X11733753Y-16410555D02*
X11714706Y-16429603D01*
X11714706Y-16429603D02*
X11695658Y-16439127D01*
X11886134Y-16381984D02*
X11886134Y-16420079D01*
X11962325Y-16381984D02*
X11962325Y-16420079D01*
X12257563Y-16658174D02*
X12248039Y-16648650D01*
X12248039Y-16648650D02*
X12228991Y-16620079D01*
X12228991Y-16620079D02*
X12219468Y-16601031D01*
X12219468Y-16601031D02*
X12209944Y-16572460D01*
X12209944Y-16572460D02*
X12200420Y-16524841D01*
X12200420Y-16524841D02*
X12200420Y-16486746D01*
X12200420Y-16486746D02*
X12209944Y-16439127D01*
X12209944Y-16439127D02*
X12219468Y-16410555D01*
X12219468Y-16410555D02*
X12228991Y-16391508D01*
X12228991Y-16391508D02*
X12248039Y-16362936D01*
X12248039Y-16362936D02*
X12257563Y-16353412D01*
X12324229Y-16401031D02*
X12333753Y-16391508D01*
X12333753Y-16391508D02*
X12352801Y-16381984D01*
X12352801Y-16381984D02*
X12400420Y-16381984D01*
X12400420Y-16381984D02*
X12419468Y-16391508D01*
X12419468Y-16391508D02*
X12428991Y-16401031D01*
X12428991Y-16401031D02*
X12438515Y-16420079D01*
X12438515Y-16420079D02*
X12438515Y-16439127D01*
X12438515Y-16439127D02*
X12428991Y-16467698D01*
X12428991Y-16467698D02*
X12314706Y-16581984D01*
X12314706Y-16581984D02*
X12438515Y-16581984D01*
X12676610Y-16581984D02*
X12676610Y-16381984D01*
X12762325Y-16581984D02*
X12762325Y-16477222D01*
X12762325Y-16477222D02*
X12752801Y-16458174D01*
X12752801Y-16458174D02*
X12733753Y-16448650D01*
X12733753Y-16448650D02*
X12705182Y-16448650D01*
X12705182Y-16448650D02*
X12686134Y-16458174D01*
X12686134Y-16458174D02*
X12676610Y-16467698D01*
X12886134Y-16581984D02*
X12867087Y-16572460D01*
X12867087Y-16572460D02*
X12857563Y-16562936D01*
X12857563Y-16562936D02*
X12848039Y-16543888D01*
X12848039Y-16543888D02*
X12848039Y-16486746D01*
X12848039Y-16486746D02*
X12857563Y-16467698D01*
X12857563Y-16467698D02*
X12867087Y-16458174D01*
X12867087Y-16458174D02*
X12886134Y-16448650D01*
X12886134Y-16448650D02*
X12914706Y-16448650D01*
X12914706Y-16448650D02*
X12933753Y-16458174D01*
X12933753Y-16458174D02*
X12943277Y-16467698D01*
X12943277Y-16467698D02*
X12952801Y-16486746D01*
X12952801Y-16486746D02*
X12952801Y-16543888D01*
X12952801Y-16543888D02*
X12943277Y-16562936D01*
X12943277Y-16562936D02*
X12933753Y-16572460D01*
X12933753Y-16572460D02*
X12914706Y-16581984D01*
X12914706Y-16581984D02*
X12886134Y-16581984D01*
X13067087Y-16581984D02*
X13048039Y-16572460D01*
X13048039Y-16572460D02*
X13038515Y-16553412D01*
X13038515Y-16553412D02*
X13038515Y-16381984D01*
X13219468Y-16572460D02*
X13200420Y-16581984D01*
X13200420Y-16581984D02*
X13162325Y-16581984D01*
X13162325Y-16581984D02*
X13143277Y-16572460D01*
X13143277Y-16572460D02*
X13133753Y-16553412D01*
X13133753Y-16553412D02*
X13133753Y-16477222D01*
X13133753Y-16477222D02*
X13143277Y-16458174D01*
X13143277Y-16458174D02*
X13162325Y-16448650D01*
X13162325Y-16448650D02*
X13200420Y-16448650D01*
X13200420Y-16448650D02*
X13219468Y-16458174D01*
X13219468Y-16458174D02*
X13228991Y-16477222D01*
X13228991Y-16477222D02*
X13228991Y-16496269D01*
X13228991Y-16496269D02*
X13133753Y-16515317D01*
X13305182Y-16572460D02*
X13324230Y-16581984D01*
X13324230Y-16581984D02*
X13362325Y-16581984D01*
X13362325Y-16581984D02*
X13381372Y-16572460D01*
X13381372Y-16572460D02*
X13390896Y-16553412D01*
X13390896Y-16553412D02*
X13390896Y-16543888D01*
X13390896Y-16543888D02*
X13381372Y-16524841D01*
X13381372Y-16524841D02*
X13362325Y-16515317D01*
X13362325Y-16515317D02*
X13333753Y-16515317D01*
X13333753Y-16515317D02*
X13314706Y-16505793D01*
X13314706Y-16505793D02*
X13305182Y-16486746D01*
X13305182Y-16486746D02*
X13305182Y-16477222D01*
X13305182Y-16477222D02*
X13314706Y-16458174D01*
X13314706Y-16458174D02*
X13333753Y-16448650D01*
X13333753Y-16448650D02*
X13362325Y-16448650D01*
X13362325Y-16448650D02*
X13381372Y-16458174D01*
X13457563Y-16658174D02*
X13467087Y-16648650D01*
X13467087Y-16648650D02*
X13486134Y-16620079D01*
X13486134Y-16620079D02*
X13495658Y-16601031D01*
X13495658Y-16601031D02*
X13505182Y-16572460D01*
X13505182Y-16572460D02*
X13514706Y-16524841D01*
X13514706Y-16524841D02*
X13514706Y-16486746D01*
X13514706Y-16486746D02*
X13505182Y-16439127D01*
X13505182Y-16439127D02*
X13495658Y-16410555D01*
X13495658Y-16410555D02*
X13486134Y-16391508D01*
X13486134Y-16391508D02*
X13467087Y-16362936D01*
X13467087Y-16362936D02*
X13457563Y-16353412D01*
X8482500Y-16660500D02*
X8682500Y-16860500D01*
X8682500Y-16660500D02*
X8482500Y-16860500D01*
X8582500Y-16860500D02*
X8682500Y-16760500D01*
X8582500Y-16660500D01*
X8482500Y-16760500D01*
X8582500Y-16860500D01*
X8924229Y-16651984D02*
X9048039Y-16651984D01*
X9048039Y-16651984D02*
X8981372Y-16728174D01*
X8981372Y-16728174D02*
X9009944Y-16728174D01*
X9009944Y-16728174D02*
X9028991Y-16737698D01*
X9028991Y-16737698D02*
X9038515Y-16747222D01*
X9038515Y-16747222D02*
X9048039Y-16766269D01*
X9048039Y-16766269D02*
X9048039Y-16813889D01*
X9048039Y-16813889D02*
X9038515Y-16832936D01*
X9038515Y-16832936D02*
X9028991Y-16842460D01*
X9028991Y-16842460D02*
X9009944Y-16851984D01*
X9009944Y-16851984D02*
X8952801Y-16851984D01*
X8952801Y-16851984D02*
X8933753Y-16842460D01*
X8933753Y-16842460D02*
X8924229Y-16832936D01*
X9133753Y-16832936D02*
X9143277Y-16842460D01*
X9143277Y-16842460D02*
X9133753Y-16851984D01*
X9133753Y-16851984D02*
X9124229Y-16842460D01*
X9124229Y-16842460D02*
X9133753Y-16832936D01*
X9133753Y-16832936D02*
X9133753Y-16851984D01*
X9324229Y-16651984D02*
X9228991Y-16651984D01*
X9228991Y-16651984D02*
X9219467Y-16747222D01*
X9219467Y-16747222D02*
X9228991Y-16737698D01*
X9228991Y-16737698D02*
X9248039Y-16728174D01*
X9248039Y-16728174D02*
X9295658Y-16728174D01*
X9295658Y-16728174D02*
X9314705Y-16737698D01*
X9314705Y-16737698D02*
X9324229Y-16747222D01*
X9324229Y-16747222D02*
X9333753Y-16766269D01*
X9333753Y-16766269D02*
X9333753Y-16813889D01*
X9333753Y-16813889D02*
X9324229Y-16832936D01*
X9324229Y-16832936D02*
X9314705Y-16842460D01*
X9314705Y-16842460D02*
X9295658Y-16851984D01*
X9295658Y-16851984D02*
X9248039Y-16851984D01*
X9248039Y-16851984D02*
X9228991Y-16842460D01*
X9228991Y-16842460D02*
X9219467Y-16832936D01*
X9457563Y-16651984D02*
X9476610Y-16651984D01*
X9476610Y-16651984D02*
X9495658Y-16661508D01*
X9495658Y-16661508D02*
X9505182Y-16671031D01*
X9505182Y-16671031D02*
X9514705Y-16690079D01*
X9514705Y-16690079D02*
X9524229Y-16728174D01*
X9524229Y-16728174D02*
X9524229Y-16775793D01*
X9524229Y-16775793D02*
X9514705Y-16813889D01*
X9514705Y-16813889D02*
X9505182Y-16832936D01*
X9505182Y-16832936D02*
X9495658Y-16842460D01*
X9495658Y-16842460D02*
X9476610Y-16851984D01*
X9476610Y-16851984D02*
X9457563Y-16851984D01*
X9457563Y-16851984D02*
X9438515Y-16842460D01*
X9438515Y-16842460D02*
X9428991Y-16832936D01*
X9428991Y-16832936D02*
X9419467Y-16813889D01*
X9419467Y-16813889D02*
X9409944Y-16775793D01*
X9409944Y-16775793D02*
X9409944Y-16728174D01*
X9409944Y-16728174D02*
X9419467Y-16690079D01*
X9419467Y-16690079D02*
X9428991Y-16671031D01*
X9428991Y-16671031D02*
X9438515Y-16661508D01*
X9438515Y-16661508D02*
X9457563Y-16651984D01*
X9648039Y-16651984D02*
X9667086Y-16651984D01*
X9667086Y-16651984D02*
X9686134Y-16661508D01*
X9686134Y-16661508D02*
X9695658Y-16671031D01*
X9695658Y-16671031D02*
X9705182Y-16690079D01*
X9705182Y-16690079D02*
X9714705Y-16728174D01*
X9714705Y-16728174D02*
X9714705Y-16775793D01*
X9714705Y-16775793D02*
X9705182Y-16813889D01*
X9705182Y-16813889D02*
X9695658Y-16832936D01*
X9695658Y-16832936D02*
X9686134Y-16842460D01*
X9686134Y-16842460D02*
X9667086Y-16851984D01*
X9667086Y-16851984D02*
X9648039Y-16851984D01*
X9648039Y-16851984D02*
X9628991Y-16842460D01*
X9628991Y-16842460D02*
X9619467Y-16832936D01*
X9619467Y-16832936D02*
X9609944Y-16813889D01*
X9609944Y-16813889D02*
X9600420Y-16775793D01*
X9600420Y-16775793D02*
X9600420Y-16728174D01*
X9600420Y-16728174D02*
X9609944Y-16690079D01*
X9609944Y-16690079D02*
X9619467Y-16671031D01*
X9619467Y-16671031D02*
X9628991Y-16661508D01*
X9628991Y-16661508D02*
X9648039Y-16651984D01*
X9800420Y-16851984D02*
X9800420Y-16718650D01*
X9800420Y-16737698D02*
X9809944Y-16728174D01*
X9809944Y-16728174D02*
X9828991Y-16718650D01*
X9828991Y-16718650D02*
X9857563Y-16718650D01*
X9857563Y-16718650D02*
X9876610Y-16728174D01*
X9876610Y-16728174D02*
X9886134Y-16747222D01*
X9886134Y-16747222D02*
X9886134Y-16851984D01*
X9886134Y-16747222D02*
X9895658Y-16728174D01*
X9895658Y-16728174D02*
X9914705Y-16718650D01*
X9914705Y-16718650D02*
X9943277Y-16718650D01*
X9943277Y-16718650D02*
X9962325Y-16728174D01*
X9962325Y-16728174D02*
X9971848Y-16747222D01*
X9971848Y-16747222D02*
X9971848Y-16851984D01*
X10067086Y-16851984D02*
X10067086Y-16718650D01*
X10067086Y-16737698D02*
X10076610Y-16728174D01*
X10076610Y-16728174D02*
X10095658Y-16718650D01*
X10095658Y-16718650D02*
X10124229Y-16718650D01*
X10124229Y-16718650D02*
X10143277Y-16728174D01*
X10143277Y-16728174D02*
X10152801Y-16747222D01*
X10152801Y-16747222D02*
X10152801Y-16851984D01*
X10152801Y-16747222D02*
X10162325Y-16728174D01*
X10162325Y-16728174D02*
X10181372Y-16718650D01*
X10181372Y-16718650D02*
X10209944Y-16718650D01*
X10209944Y-16718650D02*
X10228991Y-16728174D01*
X10228991Y-16728174D02*
X10238515Y-16747222D01*
X10238515Y-16747222D02*
X10238515Y-16851984D01*
X10628991Y-16642460D02*
X10457563Y-16899603D01*
X10886134Y-16651984D02*
X10905182Y-16651984D01*
X10905182Y-16651984D02*
X10924229Y-16661508D01*
X10924229Y-16661508D02*
X10933753Y-16671031D01*
X10933753Y-16671031D02*
X10943277Y-16690079D01*
X10943277Y-16690079D02*
X10952801Y-16728174D01*
X10952801Y-16728174D02*
X10952801Y-16775793D01*
X10952801Y-16775793D02*
X10943277Y-16813889D01*
X10943277Y-16813889D02*
X10933753Y-16832936D01*
X10933753Y-16832936D02*
X10924229Y-16842460D01*
X10924229Y-16842460D02*
X10905182Y-16851984D01*
X10905182Y-16851984D02*
X10886134Y-16851984D01*
X10886134Y-16851984D02*
X10867087Y-16842460D01*
X10867087Y-16842460D02*
X10857563Y-16832936D01*
X10857563Y-16832936D02*
X10848039Y-16813889D01*
X10848039Y-16813889D02*
X10838515Y-16775793D01*
X10838515Y-16775793D02*
X10838515Y-16728174D01*
X10838515Y-16728174D02*
X10848039Y-16690079D01*
X10848039Y-16690079D02*
X10857563Y-16671031D01*
X10857563Y-16671031D02*
X10867087Y-16661508D01*
X10867087Y-16661508D02*
X10886134Y-16651984D01*
X11038515Y-16832936D02*
X11048039Y-16842460D01*
X11048039Y-16842460D02*
X11038515Y-16851984D01*
X11038515Y-16851984D02*
X11028991Y-16842460D01*
X11028991Y-16842460D02*
X11038515Y-16832936D01*
X11038515Y-16832936D02*
X11038515Y-16851984D01*
X11238515Y-16851984D02*
X11124229Y-16851984D01*
X11181372Y-16851984D02*
X11181372Y-16651984D01*
X11181372Y-16651984D02*
X11162325Y-16680555D01*
X11162325Y-16680555D02*
X11143277Y-16699603D01*
X11143277Y-16699603D02*
X11124229Y-16709127D01*
X11305182Y-16651984D02*
X11428991Y-16651984D01*
X11428991Y-16651984D02*
X11362325Y-16728174D01*
X11362325Y-16728174D02*
X11390896Y-16728174D01*
X11390896Y-16728174D02*
X11409944Y-16737698D01*
X11409944Y-16737698D02*
X11419467Y-16747222D01*
X11419467Y-16747222D02*
X11428991Y-16766269D01*
X11428991Y-16766269D02*
X11428991Y-16813889D01*
X11428991Y-16813889D02*
X11419467Y-16832936D01*
X11419467Y-16832936D02*
X11409944Y-16842460D01*
X11409944Y-16842460D02*
X11390896Y-16851984D01*
X11390896Y-16851984D02*
X11333753Y-16851984D01*
X11333753Y-16851984D02*
X11314706Y-16842460D01*
X11314706Y-16842460D02*
X11305182Y-16832936D01*
X11495658Y-16651984D02*
X11628991Y-16651984D01*
X11628991Y-16651984D02*
X11543277Y-16851984D01*
X11733753Y-16737698D02*
X11714706Y-16728174D01*
X11714706Y-16728174D02*
X11705182Y-16718650D01*
X11705182Y-16718650D02*
X11695658Y-16699603D01*
X11695658Y-16699603D02*
X11695658Y-16690079D01*
X11695658Y-16690079D02*
X11705182Y-16671031D01*
X11705182Y-16671031D02*
X11714706Y-16661508D01*
X11714706Y-16661508D02*
X11733753Y-16651984D01*
X11733753Y-16651984D02*
X11771848Y-16651984D01*
X11771848Y-16651984D02*
X11790896Y-16661508D01*
X11790896Y-16661508D02*
X11800420Y-16671031D01*
X11800420Y-16671031D02*
X11809944Y-16690079D01*
X11809944Y-16690079D02*
X11809944Y-16699603D01*
X11809944Y-16699603D02*
X11800420Y-16718650D01*
X11800420Y-16718650D02*
X11790896Y-16728174D01*
X11790896Y-16728174D02*
X11771848Y-16737698D01*
X11771848Y-16737698D02*
X11733753Y-16737698D01*
X11733753Y-16737698D02*
X11714706Y-16747222D01*
X11714706Y-16747222D02*
X11705182Y-16756746D01*
X11705182Y-16756746D02*
X11695658Y-16775793D01*
X11695658Y-16775793D02*
X11695658Y-16813889D01*
X11695658Y-16813889D02*
X11705182Y-16832936D01*
X11705182Y-16832936D02*
X11714706Y-16842460D01*
X11714706Y-16842460D02*
X11733753Y-16851984D01*
X11733753Y-16851984D02*
X11771848Y-16851984D01*
X11771848Y-16851984D02*
X11790896Y-16842460D01*
X11790896Y-16842460D02*
X11800420Y-16832936D01*
X11800420Y-16832936D02*
X11809944Y-16813889D01*
X11809944Y-16813889D02*
X11809944Y-16775793D01*
X11809944Y-16775793D02*
X11800420Y-16756746D01*
X11800420Y-16756746D02*
X11790896Y-16747222D01*
X11790896Y-16747222D02*
X11771848Y-16737698D01*
X11886134Y-16651984D02*
X11886134Y-16690079D01*
X11962325Y-16651984D02*
X11962325Y-16690079D01*
X12257563Y-16928174D02*
X12248039Y-16918650D01*
X12248039Y-16918650D02*
X12228991Y-16890079D01*
X12228991Y-16890079D02*
X12219468Y-16871031D01*
X12219468Y-16871031D02*
X12209944Y-16842460D01*
X12209944Y-16842460D02*
X12200420Y-16794841D01*
X12200420Y-16794841D02*
X12200420Y-16756746D01*
X12200420Y-16756746D02*
X12209944Y-16709127D01*
X12209944Y-16709127D02*
X12219468Y-16680555D01*
X12219468Y-16680555D02*
X12228991Y-16661508D01*
X12228991Y-16661508D02*
X12248039Y-16632936D01*
X12248039Y-16632936D02*
X12257563Y-16623412D01*
X12419468Y-16718650D02*
X12419468Y-16851984D01*
X12371848Y-16642460D02*
X12324229Y-16785317D01*
X12324229Y-16785317D02*
X12448039Y-16785317D01*
X12676610Y-16851984D02*
X12676610Y-16651984D01*
X12762325Y-16851984D02*
X12762325Y-16747222D01*
X12762325Y-16747222D02*
X12752801Y-16728174D01*
X12752801Y-16728174D02*
X12733753Y-16718650D01*
X12733753Y-16718650D02*
X12705182Y-16718650D01*
X12705182Y-16718650D02*
X12686134Y-16728174D01*
X12686134Y-16728174D02*
X12676610Y-16737698D01*
X12886134Y-16851984D02*
X12867087Y-16842460D01*
X12867087Y-16842460D02*
X12857563Y-16832936D01*
X12857563Y-16832936D02*
X12848039Y-16813889D01*
X12848039Y-16813889D02*
X12848039Y-16756746D01*
X12848039Y-16756746D02*
X12857563Y-16737698D01*
X12857563Y-16737698D02*
X12867087Y-16728174D01*
X12867087Y-16728174D02*
X12886134Y-16718650D01*
X12886134Y-16718650D02*
X12914706Y-16718650D01*
X12914706Y-16718650D02*
X12933753Y-16728174D01*
X12933753Y-16728174D02*
X12943277Y-16737698D01*
X12943277Y-16737698D02*
X12952801Y-16756746D01*
X12952801Y-16756746D02*
X12952801Y-16813889D01*
X12952801Y-16813889D02*
X12943277Y-16832936D01*
X12943277Y-16832936D02*
X12933753Y-16842460D01*
X12933753Y-16842460D02*
X12914706Y-16851984D01*
X12914706Y-16851984D02*
X12886134Y-16851984D01*
X13067087Y-16851984D02*
X13048039Y-16842460D01*
X13048039Y-16842460D02*
X13038515Y-16823412D01*
X13038515Y-16823412D02*
X13038515Y-16651984D01*
X13219468Y-16842460D02*
X13200420Y-16851984D01*
X13200420Y-16851984D02*
X13162325Y-16851984D01*
X13162325Y-16851984D02*
X13143277Y-16842460D01*
X13143277Y-16842460D02*
X13133753Y-16823412D01*
X13133753Y-16823412D02*
X13133753Y-16747222D01*
X13133753Y-16747222D02*
X13143277Y-16728174D01*
X13143277Y-16728174D02*
X13162325Y-16718650D01*
X13162325Y-16718650D02*
X13200420Y-16718650D01*
X13200420Y-16718650D02*
X13219468Y-16728174D01*
X13219468Y-16728174D02*
X13228991Y-16747222D01*
X13228991Y-16747222D02*
X13228991Y-16766269D01*
X13228991Y-16766269D02*
X13133753Y-16785317D01*
X13305182Y-16842460D02*
X13324230Y-16851984D01*
X13324230Y-16851984D02*
X13362325Y-16851984D01*
X13362325Y-16851984D02*
X13381372Y-16842460D01*
X13381372Y-16842460D02*
X13390896Y-16823412D01*
X13390896Y-16823412D02*
X13390896Y-16813889D01*
X13390896Y-16813889D02*
X13381372Y-16794841D01*
X13381372Y-16794841D02*
X13362325Y-16785317D01*
X13362325Y-16785317D02*
X13333753Y-16785317D01*
X13333753Y-16785317D02*
X13314706Y-16775793D01*
X13314706Y-16775793D02*
X13305182Y-16756746D01*
X13305182Y-16756746D02*
X13305182Y-16747222D01*
X13305182Y-16747222D02*
X13314706Y-16728174D01*
X13314706Y-16728174D02*
X13333753Y-16718650D01*
X13333753Y-16718650D02*
X13362325Y-16718650D01*
X13362325Y-16718650D02*
X13381372Y-16728174D01*
X13457563Y-16928174D02*
X13467087Y-16918650D01*
X13467087Y-16918650D02*
X13486134Y-16890079D01*
X13486134Y-16890079D02*
X13495658Y-16871031D01*
X13495658Y-16871031D02*
X13505182Y-16842460D01*
X13505182Y-16842460D02*
X13514706Y-16794841D01*
X13514706Y-16794841D02*
X13514706Y-16756746D01*
X13514706Y-16756746D02*
X13505182Y-16709127D01*
X13505182Y-16709127D02*
X13495658Y-16680555D01*
X13495658Y-16680555D02*
X13486134Y-16661508D01*
X13486134Y-16661508D02*
X13467087Y-16632936D01*
X13467087Y-16632936D02*
X13457563Y-16623412D01*
M02*
