%TF.GenerationSoftware,KiCad,Pcbnew,8.0.3-8.0.3-0~ubuntu22.04.1*%
%TF.CreationDate,2024-08-07T13:08:45+03:00*%
%TF.ProjectId,power_distribution_body,706f7765-725f-4646-9973-747269627574,rev?*%
%TF.SameCoordinates,Original*%
%TF.FileFunction,Soldermask,Top*%
%TF.FilePolarity,Negative*%
%FSLAX46Y46*%
G04 Gerber Fmt 4.6, Leading zero omitted, Abs format (unit mm)*
G04 Created by KiCad (PCBNEW 8.0.3-8.0.3-0~ubuntu22.04.1) date 2024-08-07 13:08:45*
%MOMM*%
%LPD*%
G01*
G04 APERTURE LIST*
G04 Aperture macros list*
%AMRoundRect*
0 Rectangle with rounded corners*
0 $1 Rounding radius*
0 $2 $3 $4 $5 $6 $7 $8 $9 X,Y pos of 4 corners*
0 Add a 4 corners polygon primitive as box body*
4,1,4,$2,$3,$4,$5,$6,$7,$8,$9,$2,$3,0*
0 Add four circle primitives for the rounded corners*
1,1,$1+$1,$2,$3*
1,1,$1+$1,$4,$5*
1,1,$1+$1,$6,$7*
1,1,$1+$1,$8,$9*
0 Add four rect primitives between the rounded corners*
20,1,$1+$1,$2,$3,$4,$5,0*
20,1,$1+$1,$4,$5,$6,$7,0*
20,1,$1+$1,$6,$7,$8,$9,0*
20,1,$1+$1,$8,$9,$2,$3,0*%
G04 Aperture macros list end*
%ADD10C,0.800000*%
%ADD11C,7.000000*%
%ADD12RoundRect,0.250000X-0.650000X1.000000X-0.650000X-1.000000X0.650000X-1.000000X0.650000X1.000000X0*%
%ADD13C,1.270000*%
%ADD14R,20.000000X20.000000*%
%ADD15RoundRect,0.250000X-2.050000X-0.300000X2.050000X-0.300000X2.050000X0.300000X-2.050000X0.300000X0*%
%ADD16RoundRect,0.250002X-4.449998X-5.149998X4.449998X-5.149998X4.449998X5.149998X-4.449998X5.149998X0*%
%ADD17RoundRect,0.250000X-0.475000X0.337500X-0.475000X-0.337500X0.475000X-0.337500X0.475000X0.337500X0*%
%ADD18C,2.600000*%
%ADD19R,2.400000X2.400000*%
%ADD20C,2.400000*%
%ADD21C,1.000000*%
%ADD22O,2.200000X3.500000*%
%ADD23R,1.500000X2.500000*%
%ADD24O,1.500000X2.500000*%
%ADD25RoundRect,0.250000X-0.625000X0.350000X-0.625000X-0.350000X0.625000X-0.350000X0.625000X0.350000X0*%
%ADD26O,1.750000X1.200000*%
%ADD27RoundRect,0.250000X-1.000000X-0.650000X1.000000X-0.650000X1.000000X0.650000X-1.000000X0.650000X0*%
%ADD28RoundRect,0.250000X0.350000X0.625000X-0.350000X0.625000X-0.350000X-0.625000X0.350000X-0.625000X0*%
%ADD29O,1.200000X1.750000*%
%ADD30RoundRect,0.250000X-0.350000X-0.625000X0.350000X-0.625000X0.350000X0.625000X-0.350000X0.625000X0*%
G04 APERTURE END LIST*
D10*
%TO.C,H1*%
X91725000Y-132500000D03*
X92493845Y-130643845D03*
X92493845Y-134356155D03*
X94350000Y-129875000D03*
D11*
X94350000Y-132500000D03*
D10*
X94350000Y-135125000D03*
X96206155Y-130643845D03*
X96206155Y-134356155D03*
X96975000Y-132500000D03*
%TD*%
D12*
%TO.C,D3*%
X117000000Y-78500000D03*
X117000000Y-82500000D03*
%TD*%
D13*
%TO.C,J4*%
X90850000Y-76500000D03*
X90850000Y-79040000D03*
X90850000Y-81580000D03*
X90850000Y-84120000D03*
X90850000Y-86660000D03*
X90850000Y-89200000D03*
X93390000Y-76500000D03*
X93390000Y-79040000D03*
X93390000Y-81580000D03*
X93390000Y-84120000D03*
X93390000Y-86660000D03*
X93390000Y-89200000D03*
X95930000Y-76500000D03*
X95930000Y-79040000D03*
X95930000Y-81580000D03*
X95930000Y-84120000D03*
X95930000Y-86660000D03*
X95930000Y-89200000D03*
D14*
X97200000Y-82850000D03*
D13*
X98470000Y-76500000D03*
X98470000Y-79040000D03*
X98470000Y-81580000D03*
X98470000Y-84120000D03*
X98470000Y-86660000D03*
X98470000Y-89200000D03*
X101010000Y-76500000D03*
X101010000Y-79040000D03*
X101010000Y-81580000D03*
X101010000Y-84120000D03*
X101010000Y-86660000D03*
X101010000Y-89200000D03*
X103550000Y-76500000D03*
X103550000Y-79040000D03*
X103550000Y-81580000D03*
X103550000Y-84120000D03*
X103550000Y-86660000D03*
X103550000Y-89200000D03*
%TD*%
D15*
%TO.C,U3*%
X123075000Y-77100000D03*
X123075000Y-78800000D03*
X123075000Y-80500000D03*
D16*
X132225000Y-80500000D03*
D15*
X123075000Y-82200000D03*
X123075000Y-83900000D03*
%TD*%
D13*
%TO.C,J10*%
X137850000Y-123500000D03*
X137850000Y-126040000D03*
X137850000Y-128580000D03*
X137850000Y-131120000D03*
X137850000Y-133660000D03*
X137850000Y-136200000D03*
X140390000Y-123500000D03*
X140390000Y-126040000D03*
X140390000Y-128580000D03*
X140390000Y-131120000D03*
X140390000Y-133660000D03*
X140390000Y-136200000D03*
X142930000Y-123500000D03*
X142930000Y-126040000D03*
X142930000Y-128580000D03*
X142930000Y-131120000D03*
X142930000Y-133660000D03*
X142930000Y-136200000D03*
D14*
X144200000Y-129850000D03*
D13*
X145470000Y-123500000D03*
X145470000Y-126040000D03*
X145470000Y-128580000D03*
X145470000Y-131120000D03*
X145470000Y-133660000D03*
X145470000Y-136200000D03*
X148010000Y-123500000D03*
X148010000Y-126040000D03*
X148010000Y-128580000D03*
X148010000Y-131120000D03*
X148010000Y-133660000D03*
X148010000Y-136200000D03*
X150550000Y-123500000D03*
X150550000Y-126040000D03*
X150550000Y-128580000D03*
X150550000Y-131120000D03*
X150550000Y-133660000D03*
X150550000Y-136200000D03*
%TD*%
D17*
%TO.C,C1*%
X178850000Y-79425000D03*
X178850000Y-81500000D03*
%TD*%
D13*
%TO.C,J13*%
X90850000Y-101040000D03*
X90850000Y-103580000D03*
X90850000Y-106120000D03*
X90850000Y-108660000D03*
X90850000Y-111200000D03*
X90850000Y-113740000D03*
X93390000Y-101040000D03*
X93390000Y-103580000D03*
X93390000Y-106120000D03*
X93390000Y-108660000D03*
X93390000Y-111200000D03*
X93390000Y-113740000D03*
X95930000Y-101040000D03*
X95930000Y-103580000D03*
X95930000Y-106120000D03*
X95930000Y-108660000D03*
X95930000Y-111200000D03*
X95930000Y-113740000D03*
D14*
X97200000Y-107390000D03*
D13*
X98470000Y-101040000D03*
X98470000Y-103580000D03*
X98470000Y-106120000D03*
X98470000Y-108660000D03*
X98470000Y-111200000D03*
X98470000Y-113740000D03*
X101010000Y-101040000D03*
X101010000Y-103580000D03*
X101010000Y-106120000D03*
X101010000Y-108660000D03*
X101010000Y-111200000D03*
X101010000Y-113740000D03*
X103550000Y-101040000D03*
X103550000Y-103580000D03*
X103550000Y-106120000D03*
X103550000Y-108660000D03*
X103550000Y-111200000D03*
X103550000Y-113740000D03*
%TD*%
D18*
%TO.C,L1*%
X147850000Y-107500000D03*
X147850000Y-112500000D03*
%TD*%
D13*
%TO.C,J5*%
X115450000Y-53600000D03*
X115450000Y-56140000D03*
X115450000Y-58680000D03*
X115450000Y-61220000D03*
X115450000Y-63760000D03*
X115450000Y-66300000D03*
X117990000Y-53600000D03*
X117990000Y-56140000D03*
X117990000Y-58680000D03*
X117990000Y-61220000D03*
X117990000Y-63760000D03*
X117990000Y-66300000D03*
X120530000Y-53600000D03*
X120530000Y-56140000D03*
X120530000Y-58680000D03*
X120530000Y-61220000D03*
X120530000Y-63760000D03*
X120530000Y-66300000D03*
D14*
X121800000Y-59950000D03*
D13*
X123070000Y-53600000D03*
X123070000Y-56140000D03*
X123070000Y-58680000D03*
X123070000Y-61220000D03*
X123070000Y-63760000D03*
X123070000Y-66300000D03*
X125610000Y-53600000D03*
X125610000Y-56140000D03*
X125610000Y-58680000D03*
X125610000Y-61220000D03*
X125610000Y-63760000D03*
X125610000Y-66300000D03*
X128150000Y-53600000D03*
X128150000Y-56140000D03*
X128150000Y-58680000D03*
X128150000Y-61220000D03*
X128150000Y-63760000D03*
X128150000Y-66300000D03*
%TD*%
D19*
%TO.C,C2*%
X165000000Y-112500000D03*
D20*
X165000000Y-107500000D03*
%TD*%
D13*
%TO.C,J12*%
X185950000Y-53600000D03*
X185950000Y-56140000D03*
X185950000Y-58680000D03*
X185950000Y-61220000D03*
X185950000Y-63760000D03*
X185950000Y-66300000D03*
X188490000Y-53600000D03*
X188490000Y-56140000D03*
X188490000Y-58680000D03*
X188490000Y-61220000D03*
X188490000Y-63760000D03*
X188490000Y-66300000D03*
X191030000Y-53600000D03*
X191030000Y-56140000D03*
X191030000Y-58680000D03*
X191030000Y-61220000D03*
X191030000Y-63760000D03*
X191030000Y-66300000D03*
D14*
X192300000Y-59950000D03*
D13*
X193570000Y-53600000D03*
X193570000Y-56140000D03*
X193570000Y-58680000D03*
X193570000Y-61220000D03*
X193570000Y-63760000D03*
X193570000Y-66300000D03*
X196110000Y-53600000D03*
X196110000Y-56140000D03*
X196110000Y-58680000D03*
X196110000Y-61220000D03*
X196110000Y-63760000D03*
X196110000Y-66300000D03*
X198650000Y-53600000D03*
X198650000Y-56140000D03*
X198650000Y-58680000D03*
X198650000Y-61220000D03*
X198650000Y-63760000D03*
X198650000Y-66300000D03*
%TD*%
D18*
%TO.C,L2*%
X147850000Y-92500000D03*
X147850000Y-97500000D03*
%TD*%
D21*
%TO.C,TP2*%
X185850000Y-105500000D03*
%TD*%
D22*
%TO.C,SW1*%
X108950000Y-64500000D03*
X100750000Y-64500000D03*
D23*
X106850000Y-64500000D03*
D24*
X104850000Y-64500000D03*
X102850000Y-64500000D03*
%TD*%
D15*
%TO.C,U2*%
X123075000Y-107100000D03*
X123075000Y-108800000D03*
X123075000Y-110500000D03*
D16*
X132225000Y-110500000D03*
D15*
X123075000Y-112200000D03*
X123075000Y-113900000D03*
%TD*%
D13*
%TO.C,J1*%
X162850000Y-53600000D03*
X162850000Y-56140000D03*
X162850000Y-58680000D03*
X162850000Y-61220000D03*
X162850000Y-63760000D03*
X162850000Y-66300000D03*
X165390000Y-53600000D03*
X165390000Y-56140000D03*
X165390000Y-58680000D03*
X165390000Y-61220000D03*
X165390000Y-63760000D03*
X165390000Y-66300000D03*
X167930000Y-53600000D03*
X167930000Y-56140000D03*
X167930000Y-58680000D03*
X167930000Y-61220000D03*
X167930000Y-63760000D03*
X167930000Y-66300000D03*
D14*
X169200000Y-59950000D03*
D13*
X170470000Y-53600000D03*
X170470000Y-56140000D03*
X170470000Y-58680000D03*
X170470000Y-61220000D03*
X170470000Y-63760000D03*
X170470000Y-66300000D03*
X173010000Y-53600000D03*
X173010000Y-56140000D03*
X173010000Y-58680000D03*
X173010000Y-61220000D03*
X173010000Y-63760000D03*
X173010000Y-66300000D03*
X175550000Y-53600000D03*
X175550000Y-56140000D03*
X175550000Y-58680000D03*
X175550000Y-61220000D03*
X175550000Y-63760000D03*
X175550000Y-66300000D03*
%TD*%
D25*
%TO.C,J7*%
X92850000Y-123000000D03*
D26*
X92850000Y-125000000D03*
%TD*%
D13*
%TO.C,J15*%
X197850000Y-100500000D03*
X197850000Y-103040000D03*
X197850000Y-105580000D03*
X197850000Y-108120000D03*
X197850000Y-110660000D03*
X197850000Y-113200000D03*
X200390000Y-100500000D03*
X200390000Y-103040000D03*
X200390000Y-105580000D03*
X200390000Y-108120000D03*
X200390000Y-110660000D03*
X200390000Y-113200000D03*
X202930000Y-100500000D03*
X202930000Y-103040000D03*
X202930000Y-105580000D03*
X202930000Y-108120000D03*
X202930000Y-110660000D03*
X202930000Y-113200000D03*
D14*
X204200000Y-106850000D03*
D13*
X205470000Y-100500000D03*
X205470000Y-103040000D03*
X205470000Y-105580000D03*
X205470000Y-108120000D03*
X205470000Y-110660000D03*
X205470000Y-113200000D03*
X208010000Y-100500000D03*
X208010000Y-103040000D03*
X208010000Y-105580000D03*
X208010000Y-108120000D03*
X208010000Y-110660000D03*
X208010000Y-113200000D03*
X210550000Y-100500000D03*
X210550000Y-103040000D03*
X210550000Y-105580000D03*
X210550000Y-108120000D03*
X210550000Y-110660000D03*
X210550000Y-113200000D03*
%TD*%
%TO.C,J9*%
X115150000Y-123500000D03*
X115150000Y-126040000D03*
X115150000Y-128580000D03*
X115150000Y-131120000D03*
X115150000Y-133660000D03*
X115150000Y-136200000D03*
X117690000Y-123500000D03*
X117690000Y-126040000D03*
X117690000Y-128580000D03*
X117690000Y-131120000D03*
X117690000Y-133660000D03*
X117690000Y-136200000D03*
X120230000Y-123500000D03*
X120230000Y-126040000D03*
X120230000Y-128580000D03*
X120230000Y-131120000D03*
X120230000Y-133660000D03*
X120230000Y-136200000D03*
D14*
X121500000Y-129850000D03*
D13*
X122770000Y-123500000D03*
X122770000Y-126040000D03*
X122770000Y-128580000D03*
X122770000Y-131120000D03*
X122770000Y-133660000D03*
X122770000Y-136200000D03*
X125310000Y-123500000D03*
X125310000Y-126040000D03*
X125310000Y-128580000D03*
X125310000Y-131120000D03*
X125310000Y-133660000D03*
X125310000Y-136200000D03*
X127850000Y-123500000D03*
X127850000Y-126040000D03*
X127850000Y-128580000D03*
X127850000Y-131120000D03*
X127850000Y-133660000D03*
X127850000Y-136200000D03*
%TD*%
D17*
%TO.C,C6*%
X178850000Y-109462500D03*
X178850000Y-111537500D03*
%TD*%
D10*
%TO.C,H2*%
X204225000Y-57500000D03*
X204993845Y-55643845D03*
X204993845Y-59356155D03*
X206850000Y-54875000D03*
D11*
X206850000Y-57500000D03*
D10*
X206850000Y-60125000D03*
X208706155Y-55643845D03*
X208706155Y-59356155D03*
X209475000Y-57500000D03*
%TD*%
D15*
%TO.C,U1*%
X123075000Y-91325000D03*
X123075000Y-93025000D03*
X123075000Y-94725000D03*
D16*
X132225000Y-94725000D03*
D15*
X123075000Y-96425000D03*
X123075000Y-98125000D03*
%TD*%
D13*
%TO.C,J3*%
X197850000Y-76600000D03*
X197850000Y-79140000D03*
X197850000Y-81680000D03*
X197850000Y-84220000D03*
X197850000Y-86760000D03*
X197850000Y-89300000D03*
X200390000Y-76600000D03*
X200390000Y-79140000D03*
X200390000Y-81680000D03*
X200390000Y-84220000D03*
X200390000Y-86760000D03*
X200390000Y-89300000D03*
X202930000Y-76600000D03*
X202930000Y-79140000D03*
X202930000Y-81680000D03*
X202930000Y-84220000D03*
X202930000Y-86760000D03*
X202930000Y-89300000D03*
D14*
X204200000Y-82950000D03*
D13*
X205470000Y-76600000D03*
X205470000Y-79140000D03*
X205470000Y-81680000D03*
X205470000Y-84220000D03*
X205470000Y-86760000D03*
X205470000Y-89300000D03*
X208010000Y-76600000D03*
X208010000Y-79140000D03*
X208010000Y-81680000D03*
X208010000Y-84220000D03*
X208010000Y-86760000D03*
X208010000Y-89300000D03*
X210550000Y-76600000D03*
X210550000Y-79140000D03*
X210550000Y-81680000D03*
X210550000Y-84220000D03*
X210550000Y-86760000D03*
X210550000Y-89300000D03*
%TD*%
D27*
%TO.C,D4*%
X123112500Y-72190000D03*
X127112500Y-72190000D03*
%TD*%
D28*
%TO.C,J6*%
X108850000Y-54500000D03*
D29*
X106850000Y-54500000D03*
X104850000Y-54500000D03*
X102850000Y-54500000D03*
X100850000Y-54500000D03*
%TD*%
D19*
%TO.C,C4*%
X165000000Y-97500000D03*
D20*
X165000000Y-92500000D03*
%TD*%
D10*
%TO.C,H4*%
X204225000Y-132643845D03*
X204993845Y-130787690D03*
X204993845Y-134500000D03*
X206850000Y-130018845D03*
D11*
X206850000Y-132643845D03*
D10*
X206850000Y-135268845D03*
X208706155Y-130787690D03*
X208706155Y-134500000D03*
X209475000Y-132643845D03*
%TD*%
D12*
%TO.C,D2*%
X117000000Y-93000000D03*
X117000000Y-97000000D03*
%TD*%
D10*
%TO.C,H3*%
X91725000Y-57500000D03*
X92493845Y-55643845D03*
X92493845Y-59356155D03*
X94350000Y-54875000D03*
D11*
X94350000Y-57500000D03*
D10*
X94350000Y-60125000D03*
X96206155Y-55643845D03*
X96206155Y-59356155D03*
X96975000Y-57500000D03*
%TD*%
D19*
%TO.C,C3*%
X165000000Y-82500000D03*
D20*
X165000000Y-77500000D03*
%TD*%
D21*
%TO.C,TP1*%
X185850000Y-95500000D03*
%TD*%
%TO.C,TP3*%
X185850000Y-86250000D03*
%TD*%
D30*
%TO.C,J8*%
X101850000Y-134500000D03*
D29*
X103850000Y-134500000D03*
X105850000Y-134500000D03*
%TD*%
D13*
%TO.C,J14*%
X137550000Y-53600000D03*
X137550000Y-56140000D03*
X137550000Y-58680000D03*
X137550000Y-61220000D03*
X137550000Y-63760000D03*
X137550000Y-66300000D03*
X140090000Y-53600000D03*
X140090000Y-56140000D03*
X140090000Y-58680000D03*
X140090000Y-61220000D03*
X140090000Y-63760000D03*
X140090000Y-66300000D03*
X142630000Y-53600000D03*
X142630000Y-56140000D03*
X142630000Y-58680000D03*
X142630000Y-61220000D03*
X142630000Y-63760000D03*
X142630000Y-66300000D03*
D14*
X143900000Y-59950000D03*
D13*
X145170000Y-53600000D03*
X145170000Y-56140000D03*
X145170000Y-58680000D03*
X145170000Y-61220000D03*
X145170000Y-63760000D03*
X145170000Y-66300000D03*
X147710000Y-53600000D03*
X147710000Y-56140000D03*
X147710000Y-58680000D03*
X147710000Y-61220000D03*
X147710000Y-63760000D03*
X147710000Y-66300000D03*
X150250000Y-53600000D03*
X150250000Y-56140000D03*
X150250000Y-58680000D03*
X150250000Y-61220000D03*
X150250000Y-63760000D03*
X150250000Y-66300000D03*
%TD*%
%TO.C,J11*%
X185850000Y-123500000D03*
X185850000Y-126040000D03*
X185850000Y-128580000D03*
X185850000Y-131120000D03*
X185850000Y-133660000D03*
X185850000Y-136200000D03*
X188390000Y-123500000D03*
X188390000Y-126040000D03*
X188390000Y-128580000D03*
X188390000Y-131120000D03*
X188390000Y-133660000D03*
X188390000Y-136200000D03*
X190930000Y-123500000D03*
X190930000Y-126040000D03*
X190930000Y-128580000D03*
X190930000Y-131120000D03*
X190930000Y-133660000D03*
X190930000Y-136200000D03*
D14*
X192200000Y-129850000D03*
D13*
X193470000Y-123500000D03*
X193470000Y-126040000D03*
X193470000Y-128580000D03*
X193470000Y-131120000D03*
X193470000Y-133660000D03*
X193470000Y-136200000D03*
X196010000Y-123500000D03*
X196010000Y-126040000D03*
X196010000Y-128580000D03*
X196010000Y-131120000D03*
X196010000Y-133660000D03*
X196010000Y-136200000D03*
X198550000Y-123500000D03*
X198550000Y-126040000D03*
X198550000Y-128580000D03*
X198550000Y-131120000D03*
X198550000Y-133660000D03*
X198550000Y-136200000D03*
%TD*%
%TO.C,J2*%
X162850000Y-123500000D03*
X162850000Y-126040000D03*
X162850000Y-128580000D03*
X162850000Y-131120000D03*
X162850000Y-133660000D03*
X162850000Y-136200000D03*
X165390000Y-123500000D03*
X165390000Y-126040000D03*
X165390000Y-128580000D03*
X165390000Y-131120000D03*
X165390000Y-133660000D03*
X165390000Y-136200000D03*
X167930000Y-123500000D03*
X167930000Y-126040000D03*
X167930000Y-128580000D03*
X167930000Y-131120000D03*
X167930000Y-133660000D03*
X167930000Y-136200000D03*
D14*
X169200000Y-129850000D03*
D13*
X170470000Y-123500000D03*
X170470000Y-126040000D03*
X170470000Y-128580000D03*
X170470000Y-131120000D03*
X170470000Y-133660000D03*
X170470000Y-136200000D03*
X173010000Y-123500000D03*
X173010000Y-126040000D03*
X173010000Y-128580000D03*
X173010000Y-131120000D03*
X173010000Y-133660000D03*
X173010000Y-136200000D03*
X175550000Y-123500000D03*
X175550000Y-126040000D03*
X175550000Y-128580000D03*
X175550000Y-131120000D03*
X175550000Y-133660000D03*
X175550000Y-136200000D03*
%TD*%
D12*
%TO.C,D1*%
X117000000Y-108500000D03*
X117000000Y-112500000D03*
%TD*%
D18*
%TO.C,L3*%
X147850000Y-77500000D03*
X147850000Y-82500000D03*
%TD*%
D17*
%TO.C,C5*%
X178850000Y-94425000D03*
X178850000Y-96500000D03*
%TD*%
M02*
