%TF.GenerationSoftware,KiCad,Pcbnew,8.0.3-8.0.3-0~ubuntu22.04.1*%
%TF.CreationDate,2024-08-07T13:09:10+03:00*%
%TF.ProjectId,power_distribution_body,706f7765-725f-4646-9973-747269627574,rev?*%
%TF.SameCoordinates,Original*%
%TF.FileFunction,Drillmap*%
%TF.FilePolarity,Positive*%
%FSLAX45Y45*%
G04 Gerber Fmt 4.5, Leading zero omitted, Abs format (unit mm)*
G04 Created by KiCad (PCBNEW 8.0.3-8.0.3-0~ubuntu22.04.1) date 2024-08-07 13:09:10*
%MOMM*%
%LPD*%
G01*
G04 APERTURE LIST*
%ADD10C,0.050000*%
%ADD11C,0.200000*%
G04 APERTURE END LIST*
D10*
X8685000Y-13750000D02*
X8685000Y-5250000D01*
X8685000Y-5250000D02*
G75*
G02*
X8935000Y-5000000I250000J0D01*
G01*
X21185000Y-5000000D02*
G75*
G02*
X21435000Y-5250000I0J-250000D01*
G01*
X21435000Y-13750000D02*
G75*
G02*
X21185000Y-14000000I-250000J0D01*
G01*
X8935000Y-14000000D02*
G75*
G02*
X8685000Y-13750000I0J250000D01*
G01*
X8935000Y-5000000D02*
X21185000Y-5000000D01*
X21435000Y-5250000D02*
X21435000Y-13750000D01*
X21185000Y-14000000D02*
X8935000Y-14000000D01*
D11*
X8943277Y-14313984D02*
X8943277Y-14113984D01*
X8943277Y-14113984D02*
X8990896Y-14113984D01*
X8990896Y-14113984D02*
X9019467Y-14123508D01*
X9019467Y-14123508D02*
X9038515Y-14142555D01*
X9038515Y-14142555D02*
X9048039Y-14161603D01*
X9048039Y-14161603D02*
X9057563Y-14199698D01*
X9057563Y-14199698D02*
X9057563Y-14228269D01*
X9057563Y-14228269D02*
X9048039Y-14266365D01*
X9048039Y-14266365D02*
X9038515Y-14285412D01*
X9038515Y-14285412D02*
X9019467Y-14304460D01*
X9019467Y-14304460D02*
X8990896Y-14313984D01*
X8990896Y-14313984D02*
X8943277Y-14313984D01*
X9143277Y-14313984D02*
X9143277Y-14180650D01*
X9143277Y-14218746D02*
X9152801Y-14199698D01*
X9152801Y-14199698D02*
X9162324Y-14190174D01*
X9162324Y-14190174D02*
X9181372Y-14180650D01*
X9181372Y-14180650D02*
X9200420Y-14180650D01*
X9267086Y-14313984D02*
X9267086Y-14180650D01*
X9267086Y-14113984D02*
X9257563Y-14123508D01*
X9257563Y-14123508D02*
X9267086Y-14133031D01*
X9267086Y-14133031D02*
X9276610Y-14123508D01*
X9276610Y-14123508D02*
X9267086Y-14113984D01*
X9267086Y-14113984D02*
X9267086Y-14133031D01*
X9390896Y-14313984D02*
X9371848Y-14304460D01*
X9371848Y-14304460D02*
X9362324Y-14285412D01*
X9362324Y-14285412D02*
X9362324Y-14113984D01*
X9495658Y-14313984D02*
X9476610Y-14304460D01*
X9476610Y-14304460D02*
X9467086Y-14285412D01*
X9467086Y-14285412D02*
X9467086Y-14113984D01*
X9724229Y-14313984D02*
X9724229Y-14113984D01*
X9724229Y-14113984D02*
X9790896Y-14256841D01*
X9790896Y-14256841D02*
X9857563Y-14113984D01*
X9857563Y-14113984D02*
X9857563Y-14313984D01*
X10038515Y-14313984D02*
X10038515Y-14209222D01*
X10038515Y-14209222D02*
X10028991Y-14190174D01*
X10028991Y-14190174D02*
X10009944Y-14180650D01*
X10009944Y-14180650D02*
X9971848Y-14180650D01*
X9971848Y-14180650D02*
X9952801Y-14190174D01*
X10038515Y-14304460D02*
X10019467Y-14313984D01*
X10019467Y-14313984D02*
X9971848Y-14313984D01*
X9971848Y-14313984D02*
X9952801Y-14304460D01*
X9952801Y-14304460D02*
X9943277Y-14285412D01*
X9943277Y-14285412D02*
X9943277Y-14266365D01*
X9943277Y-14266365D02*
X9952801Y-14247317D01*
X9952801Y-14247317D02*
X9971848Y-14237793D01*
X9971848Y-14237793D02*
X10019467Y-14237793D01*
X10019467Y-14237793D02*
X10038515Y-14228269D01*
X10133753Y-14180650D02*
X10133753Y-14380650D01*
X10133753Y-14190174D02*
X10152801Y-14180650D01*
X10152801Y-14180650D02*
X10190896Y-14180650D01*
X10190896Y-14180650D02*
X10209944Y-14190174D01*
X10209944Y-14190174D02*
X10219467Y-14199698D01*
X10219467Y-14199698D02*
X10228991Y-14218746D01*
X10228991Y-14218746D02*
X10228991Y-14275888D01*
X10228991Y-14275888D02*
X10219467Y-14294936D01*
X10219467Y-14294936D02*
X10209944Y-14304460D01*
X10209944Y-14304460D02*
X10190896Y-14313984D01*
X10190896Y-14313984D02*
X10152801Y-14313984D01*
X10152801Y-14313984D02*
X10133753Y-14304460D01*
X10314705Y-14294936D02*
X10324229Y-14304460D01*
X10324229Y-14304460D02*
X10314705Y-14313984D01*
X10314705Y-14313984D02*
X10305182Y-14304460D01*
X10305182Y-14304460D02*
X10314705Y-14294936D01*
X10314705Y-14294936D02*
X10314705Y-14313984D01*
X10314705Y-14190174D02*
X10324229Y-14199698D01*
X10324229Y-14199698D02*
X10314705Y-14209222D01*
X10314705Y-14209222D02*
X10305182Y-14199698D01*
X10305182Y-14199698D02*
X10314705Y-14190174D01*
X10314705Y-14190174D02*
X10314705Y-14209222D01*
M02*
