M48
; DRILL file {KiCad 8.0.3-8.0.3-0~ubuntu22.04.1} date 2024-08-07T13:09:05+0300
; FORMAT={-:-/ absolute / inch / decimal}
; #@! TF.CreationDate,2024-08-07T13:09:05+03:00
; #@! TF.GenerationSoftware,Kicad,Pcbnew,8.0.3-8.0.3-0~ubuntu22.04.1
; #@! TF.FileFunction,Plated,1,2,PTH
FMAT,2
INCH
; #@! TA.AperFunction,Plated,PTH,ViaDrill
T1C0.0157
; #@! TA.AperFunction,Plated,PTH,ComponentDrill
T2C0.0197
; #@! TA.AperFunction,Plated,PTH,ComponentDrill
T3C0.0200
; #@! TA.AperFunction,Plated,PTH,ComponentDrill
T4C0.0295
; #@! TA.AperFunction,Plated,PTH,ComponentDrill
T5C0.0315
; #@! TA.AperFunction,Plated,PTH,ComponentDrill
T6C0.0472
; #@! TA.AperFunction,Plated,PTH,ComponentDrill
T7C0.0512
; #@! TA.AperFunction,Plated,PTH,ComponentDrill
T8C0.0591
; #@! TA.AperFunction,Plated,PTH,ComponentDrill
T9C0.1378
%
G90
G05
T1
X4.2028Y-2.313
X4.3295Y-4.5614
X4.3504Y-2.313
X4.4024Y-3.4453
X4.4193Y-4.6516
X4.4882Y-3.7795
X4.4882Y-3.8189
X4.4882Y-3.8583
X4.4882Y-3.8976
X4.4882Y-3.937
X4.4882Y-3.9764
X4.4882Y-4.0157
X4.5035Y-3.5461
X4.5276Y-3.7795
X4.5276Y-3.8189
X4.5276Y-3.8583
X4.5276Y-3.8976
X4.5276Y-3.937
X4.5276Y-3.9764
X4.5276Y-4.0157
X4.5669Y-3.937
X4.5669Y-3.9764
X4.5669Y-4.0157
X4.6063Y-3.937
X4.6063Y-3.9764
X4.6063Y-4.0157
X4.6457Y-3.937
X4.6457Y-3.9764
X4.6457Y-3.9764
X4.6457Y-4.0157
X4.685Y-3.937
X4.685Y-3.9764
X4.685Y-4.0157
X4.7244Y-3.937
X4.7244Y-3.9764
X4.7244Y-4.0157
X4.7638Y-3.937
X4.7638Y-3.9764
X4.7638Y-4.0157
X4.8031Y-3.937
X4.8031Y-3.9764
X4.8031Y-4.0157
X4.8425Y-3.937
X4.8425Y-3.9764
X4.8425Y-4.0157
X4.8819Y-3.937
X4.8819Y-3.9764
X4.8819Y-4.0157
X4.8819Y-4.0551
X4.8819Y-4.0945
X4.9213Y-3.937
X4.9213Y-3.9764
X4.9213Y-4.0157
X4.9213Y-4.0551
X4.9213Y-4.0945
X4.9213Y-4.1339
X5.0394Y-3.7795
X5.0394Y-3.8189
X5.0394Y-3.8583
X5.0394Y-3.8976
X5.0394Y-3.937
X5.0394Y-4.1732
X5.0394Y-4.2126
X5.0787Y-3.7795
X5.0787Y-3.8189
X5.0787Y-3.8583
X5.0787Y-3.8976
X5.0787Y-3.937
X5.0787Y-4.1732
X5.0787Y-4.2126
X5.1181Y-3.7795
X5.1181Y-3.8189
X5.1181Y-3.8583
X5.1181Y-3.8976
X5.1181Y-3.937
X5.1181Y-4.1732
X5.1181Y-4.2126
X5.1575Y-3.7795
X5.1575Y-3.8189
X5.1575Y-3.8583
X5.1575Y-3.8976
X5.1575Y-3.937
X5.1575Y-4.1732
X5.1575Y-4.2126
X5.1969Y-3.7795
X5.1969Y-3.8189
X5.1969Y-3.8583
X5.1969Y-3.8976
X5.1969Y-3.937
X5.1969Y-4.1732
X5.1969Y-4.2126
X5.2362Y-3.7795
X5.2362Y-3.8189
X5.2362Y-3.8583
X5.2362Y-3.8976
X5.2362Y-3.937
X5.2362Y-4.1732
X5.2362Y-4.2126
X5.2756Y-3.7795
X5.2756Y-3.8189
X5.2756Y-3.8583
X5.2756Y-3.8583
X5.2756Y-3.8976
X5.2756Y-3.937
X5.2756Y-4.1732
X5.2756Y-4.2126
X5.315Y-3.7795
X5.315Y-3.8189
X5.315Y-3.8583
X5.315Y-3.8976
X5.315Y-3.937
X5.315Y-4.1732
X5.315Y-4.2126
X5.3543Y-3.7795
X5.3543Y-3.8189
X5.3543Y-3.8583
X5.3543Y-3.8976
X5.3543Y-3.937
X5.3543Y-4.1732
X5.3543Y-4.2126
X5.3937Y-3.7795
X5.3937Y-3.8189
X5.3937Y-3.8583
X5.3937Y-3.8976
X5.3937Y-3.937
X5.3937Y-4.1732
X5.3937Y-4.2126
X5.4331Y-3.8189
X5.4331Y-3.8583
X5.4331Y-3.8976
X5.4331Y-3.937
X5.4331Y-4.1732
T2
X3.6112Y-2.2638
X3.6112Y-5.2165
X3.6415Y-2.1907
X3.6415Y-2.3369
X3.6415Y-5.1435
X3.6415Y-5.2896
X3.7146Y-2.1604
X3.7146Y-2.3671
X3.7146Y-5.1132
X3.7146Y-5.3199
X3.7876Y-2.1907
X3.7876Y-2.3369
X3.7876Y-5.1435
X3.7876Y-5.2896
X3.8179Y-2.2638
X3.8179Y-5.2165
X8.0404Y-2.2638
X8.0404Y-5.2222
X8.0706Y-2.1907
X8.0706Y-2.3369
X8.0706Y-5.1491
X8.0706Y-5.2953
X8.1437Y-2.1604
X8.1437Y-2.3671
X8.1437Y-5.1189
X8.1437Y-5.3255
X8.2168Y-2.1907
X8.2168Y-2.3369
X8.2168Y-5.1491
X8.2168Y-5.2953
X8.247Y-2.2638
X8.247Y-5.2222
T3
X3.5768Y-3.0118
X3.5768Y-3.1118
X3.5768Y-3.2118
X3.5768Y-3.3118
X3.5768Y-3.4118
X3.5768Y-3.5118
X3.5768Y-3.978
X3.5768Y-4.078
X3.5768Y-4.178
X3.5768Y-4.278
X3.5768Y-4.378
X3.5768Y-4.478
X3.6768Y-3.0118
X3.6768Y-3.1118
X3.6768Y-3.2118
X3.6768Y-3.3118
X3.6768Y-3.4118
X3.6768Y-3.5118
X3.6768Y-3.978
X3.6768Y-4.078
X3.6768Y-4.178
X3.6768Y-4.278
X3.6768Y-4.378
X3.6768Y-4.478
X3.7768Y-3.0118
X3.7768Y-3.1118
X3.7768Y-3.2118
X3.7768Y-3.3118
X3.7768Y-3.4118
X3.7768Y-3.5118
X3.7768Y-3.978
X3.7768Y-4.078
X3.7768Y-4.178
X3.7768Y-4.278
X3.7768Y-4.378
X3.7768Y-4.478
X3.8768Y-3.0118
X3.8768Y-3.1118
X3.8768Y-3.2118
X3.8768Y-3.3118
X3.8768Y-3.4118
X3.8768Y-3.5118
X3.8768Y-3.978
X3.8768Y-4.078
X3.8768Y-4.178
X3.8768Y-4.278
X3.8768Y-4.378
X3.8768Y-4.478
X3.9768Y-3.0118
X3.9768Y-3.1118
X3.9768Y-3.2118
X3.9768Y-3.3118
X3.9768Y-3.4118
X3.9768Y-3.5118
X3.9768Y-3.978
X3.9768Y-4.078
X3.9768Y-4.178
X3.9768Y-4.278
X3.9768Y-4.378
X3.9768Y-4.478
X4.0768Y-3.0118
X4.0768Y-3.1118
X4.0768Y-3.2118
X4.0768Y-3.3118
X4.0768Y-3.4118
X4.0768Y-3.5118
X4.0768Y-3.978
X4.0768Y-4.078
X4.0768Y-4.178
X4.0768Y-4.278
X4.0768Y-4.378
X4.0768Y-4.478
X4.5335Y-4.8622
X4.5335Y-4.9622
X4.5335Y-5.0622
X4.5335Y-5.1622
X4.5335Y-5.2622
X4.5335Y-5.3622
X4.5453Y-2.1102
X4.5453Y-2.2102
X4.5453Y-2.3102
X4.5453Y-2.4102
X4.5453Y-2.5102
X4.5453Y-2.6102
X4.6335Y-4.8622
X4.6335Y-4.9622
X4.6335Y-5.0622
X4.6335Y-5.1622
X4.6335Y-5.2622
X4.6335Y-5.3622
X4.6453Y-2.1102
X4.6453Y-2.2102
X4.6453Y-2.3102
X4.6453Y-2.4102
X4.6453Y-2.5102
X4.6453Y-2.6102
X4.7335Y-4.8622
X4.7335Y-4.9622
X4.7335Y-5.0622
X4.7335Y-5.1622
X4.7335Y-5.2622
X4.7335Y-5.3622
X4.7453Y-2.1102
X4.7453Y-2.2102
X4.7453Y-2.3102
X4.7453Y-2.4102
X4.7453Y-2.5102
X4.7453Y-2.6102
X4.8335Y-4.8622
X4.8335Y-4.9622
X4.8335Y-5.0622
X4.8335Y-5.1622
X4.8335Y-5.2622
X4.8335Y-5.3622
X4.8453Y-2.1102
X4.8453Y-2.2102
X4.8453Y-2.3102
X4.8453Y-2.4102
X4.8453Y-2.5102
X4.8453Y-2.6102
X4.9335Y-4.8622
X4.9335Y-4.9622
X4.9335Y-5.0622
X4.9335Y-5.1622
X4.9335Y-5.2622
X4.9335Y-5.3622
X4.9453Y-2.1102
X4.9453Y-2.2102
X4.9453Y-2.3102
X4.9453Y-2.4102
X4.9453Y-2.5102
X4.9453Y-2.6102
X5.0335Y-4.8622
X5.0335Y-4.9622
X5.0335Y-5.0622
X5.0335Y-5.1622
X5.0335Y-5.2622
X5.0335Y-5.3622
X5.0453Y-2.1102
X5.0453Y-2.2102
X5.0453Y-2.3102
X5.0453Y-2.4102
X5.0453Y-2.5102
X5.0453Y-2.6102
X5.4154Y-2.1102
X5.4154Y-2.2102
X5.4154Y-2.3102
X5.4154Y-2.4102
X5.4154Y-2.5102
X5.4154Y-2.6102
X5.4272Y-4.8622
X5.4272Y-4.9622
X5.4272Y-5.0622
X5.4272Y-5.1622
X5.4272Y-5.2622
X5.4272Y-5.3622
X5.5154Y-2.1102
X5.5154Y-2.2102
X5.5154Y-2.3102
X5.5154Y-2.4102
X5.5154Y-2.5102
X5.5154Y-2.6102
X5.5272Y-4.8622
X5.5272Y-4.9622
X5.5272Y-5.0622
X5.5272Y-5.1622
X5.5272Y-5.2622
X5.5272Y-5.3622
X5.6154Y-2.1102
X5.6154Y-2.2102
X5.6154Y-2.3102
X5.6154Y-2.4102
X5.6154Y-2.5102
X5.6154Y-2.6102
X5.6272Y-4.8622
X5.6272Y-4.9622
X5.6272Y-5.0622
X5.6272Y-5.1622
X5.6272Y-5.2622
X5.6272Y-5.3622
X5.7154Y-2.1102
X5.7154Y-2.2102
X5.7154Y-2.3102
X5.7154Y-2.4102
X5.7154Y-2.5102
X5.7154Y-2.6102
X5.7272Y-4.8622
X5.7272Y-4.9622
X5.7272Y-5.0622
X5.7272Y-5.1622
X5.7272Y-5.2622
X5.7272Y-5.3622
X5.8154Y-2.1102
X5.8154Y-2.2102
X5.8154Y-2.3102
X5.8154Y-2.4102
X5.8154Y-2.5102
X5.8154Y-2.6102
X5.8272Y-4.8622
X5.8272Y-4.9622
X5.8272Y-5.0622
X5.8272Y-5.1622
X5.8272Y-5.2622
X5.8272Y-5.3622
X5.9154Y-2.1102
X5.9154Y-2.2102
X5.9154Y-2.3102
X5.9154Y-2.4102
X5.9154Y-2.5102
X5.9154Y-2.6102
X5.9272Y-4.8622
X5.9272Y-4.9622
X5.9272Y-5.0622
X5.9272Y-5.1622
X5.9272Y-5.2622
X5.9272Y-5.3622
X6.4114Y-2.1102
X6.4114Y-2.2102
X6.4114Y-2.3102
X6.4114Y-2.4102
X6.4114Y-2.5102
X6.4114Y-2.6102
X6.4114Y-4.8622
X6.4114Y-4.9622
X6.4114Y-5.0622
X6.4114Y-5.1622
X6.4114Y-5.2622
X6.4114Y-5.3622
X6.5114Y-2.1102
X6.5114Y-2.2102
X6.5114Y-2.3102
X6.5114Y-2.4102
X6.5114Y-2.5102
X6.5114Y-2.6102
X6.5114Y-4.8622
X6.5114Y-4.9622
X6.5114Y-5.0622
X6.5114Y-5.1622
X6.5114Y-5.2622
X6.5114Y-5.3622
X6.6114Y-2.1102
X6.6114Y-2.2102
X6.6114Y-2.3102
X6.6114Y-2.4102
X6.6114Y-2.5102
X6.6114Y-2.6102
X6.6114Y-4.8622
X6.6114Y-4.9622
X6.6114Y-5.0622
X6.6114Y-5.1622
X6.6114Y-5.2622
X6.6114Y-5.3622
X6.7114Y-2.1102
X6.7114Y-2.2102
X6.7114Y-2.3102
X6.7114Y-2.4102
X6.7114Y-2.5102
X6.7114Y-2.6102
X6.7114Y-4.8622
X6.7114Y-4.9622
X6.7114Y-5.0622
X6.7114Y-5.1622
X6.7114Y-5.2622
X6.7114Y-5.3622
X6.8114Y-2.1102
X6.8114Y-2.2102
X6.8114Y-2.3102
X6.8114Y-2.4102
X6.8114Y-2.5102
X6.8114Y-2.6102
X6.8114Y-4.8622
X6.8114Y-4.9622
X6.8114Y-5.0622
X6.8114Y-5.1622
X6.8114Y-5.2622
X6.8114Y-5.3622
X6.9114Y-2.1102
X6.9114Y-2.2102
X6.9114Y-2.3102
X6.9114Y-2.4102
X6.9114Y-2.5102
X6.9114Y-2.6102
X6.9114Y-4.8622
X6.9114Y-4.9622
X6.9114Y-5.0622
X6.9114Y-5.1622
X6.9114Y-5.2622
X6.9114Y-5.3622
X7.3169Y-4.8622
X7.3169Y-4.9622
X7.3169Y-5.0622
X7.3169Y-5.1622
X7.3169Y-5.2622
X7.3169Y-5.3622
X7.3209Y-2.1102
X7.3209Y-2.2102
X7.3209Y-2.3102
X7.3209Y-2.4102
X7.3209Y-2.5102
X7.3209Y-2.6102
X7.4169Y-4.8622
X7.4169Y-4.9622
X7.4169Y-5.0622
X7.4169Y-5.1622
X7.4169Y-5.2622
X7.4169Y-5.3622
X7.4209Y-2.1102
X7.4209Y-2.2102
X7.4209Y-2.3102
X7.4209Y-2.4102
X7.4209Y-2.5102
X7.4209Y-2.6102
X7.5169Y-4.8622
X7.5169Y-4.9622
X7.5169Y-5.0622
X7.5169Y-5.1622
X7.5169Y-5.2622
X7.5169Y-5.3622
X7.5209Y-2.1102
X7.5209Y-2.2102
X7.5209Y-2.3102
X7.5209Y-2.4102
X7.5209Y-2.5102
X7.5209Y-2.6102
X7.6169Y-4.8622
X7.6169Y-4.9622
X7.6169Y-5.0622
X7.6169Y-5.1622
X7.6169Y-5.2622
X7.6169Y-5.3622
X7.6209Y-2.1102
X7.6209Y-2.2102
X7.6209Y-2.3102
X7.6209Y-2.4102
X7.6209Y-2.5102
X7.6209Y-2.6102
X7.7169Y-4.8622
X7.7169Y-4.9622
X7.7169Y-5.0622
X7.7169Y-5.1622
X7.7169Y-5.2622
X7.7169Y-5.3622
X7.7209Y-2.1102
X7.7209Y-2.2102
X7.7209Y-2.3102
X7.7209Y-2.4102
X7.7209Y-2.5102
X7.7209Y-2.6102
X7.7894Y-3.0157
X7.7894Y-3.1157
X7.7894Y-3.2157
X7.7894Y-3.3157
X7.7894Y-3.4157
X7.7894Y-3.5157
X7.7894Y-3.9567
X7.7894Y-4.0567
X7.7894Y-4.1567
X7.7894Y-4.2567
X7.7894Y-4.3567
X7.7894Y-4.4567
X7.8169Y-4.8622
X7.8169Y-4.9622
X7.8169Y-5.0622
X7.8169Y-5.1622
X7.8169Y-5.2622
X7.8169Y-5.3622
X7.8209Y-2.1102
X7.8209Y-2.2102
X7.8209Y-2.3102
X7.8209Y-2.4102
X7.8209Y-2.5102
X7.8209Y-2.6102
X7.8894Y-3.0157
X7.8894Y-3.1157
X7.8894Y-3.2157
X7.8894Y-3.3157
X7.8894Y-3.4157
X7.8894Y-3.5157
X7.8894Y-3.9567
X7.8894Y-4.0567
X7.8894Y-4.1567
X7.8894Y-4.2567
X7.8894Y-4.3567
X7.8894Y-4.4567
X7.9894Y-3.0157
X7.9894Y-3.1157
X7.9894Y-3.2157
X7.9894Y-3.3157
X7.9894Y-3.4157
X7.9894Y-3.5157
X7.9894Y-3.9567
X7.9894Y-4.0567
X7.9894Y-4.1567
X7.9894Y-4.2567
X7.9894Y-4.3567
X7.9894Y-4.4567
X8.0894Y-3.0157
X8.0894Y-3.1157
X8.0894Y-3.2157
X8.0894Y-3.3157
X8.0894Y-3.4157
X8.0894Y-3.5157
X8.0894Y-3.9567
X8.0894Y-4.0567
X8.0894Y-4.1567
X8.0894Y-4.2567
X8.0894Y-4.3567
X8.0894Y-4.4567
X8.1894Y-3.0157
X8.1894Y-3.1157
X8.1894Y-3.2157
X8.1894Y-3.3157
X8.1894Y-3.4157
X8.1894Y-3.5157
X8.1894Y-3.9567
X8.1894Y-4.0567
X8.1894Y-4.1567
X8.1894Y-4.2567
X8.1894Y-4.3567
X8.1894Y-4.4567
X8.2894Y-3.0157
X8.2894Y-3.1157
X8.2894Y-3.2157
X8.2894Y-3.3157
X8.2894Y-3.4157
X8.2894Y-3.5157
X8.2894Y-3.9567
X8.2894Y-4.0567
X8.2894Y-4.1567
X8.2894Y-4.2567
X8.2894Y-4.3567
X8.2894Y-4.4567
T4
X3.6555Y-4.8425
X3.6555Y-4.9213
X3.9705Y-2.1457
X4.0098Y-5.2953
X4.0492Y-2.1457
X4.0886Y-5.2953
X4.128Y-2.1457
X4.1673Y-5.2953
X4.2067Y-2.1457
X4.2854Y-2.1457
T5
X4.0492Y-2.5394
X4.128Y-2.5394
X4.2067Y-2.5394
T6
X6.4961Y-3.0512
X6.4961Y-3.248
X6.4961Y-3.6417
X6.4961Y-3.8386
X6.4961Y-4.2323
X6.4961Y-4.4291
T7
X5.8209Y-3.0512
X5.8209Y-3.248
X5.8209Y-3.6417
X5.8209Y-3.8386
X5.8209Y-4.2323
X5.8209Y-4.4291
T8
X3.9665Y-2.5394
X4.2894Y-2.5394
T9
X3.7146Y-2.2638
X3.7146Y-5.2165
X8.1437Y-2.2638
X8.1437Y-5.2222
M30
